<svg xmlns="http://www.w3.org/2000/svg" xmlns:svg="http://www.w3.org/2000/svg" xmlns:sodipodi="http://sodipodi.sourceforge.net/DTD/sodipodi-0.dtd" xmlns:inkscape="http://www.inkscape.org/namespaces/inkscape" xmlns:xlink="http://www.w3.org/1999/xlink" width="210mm" height="297mm" viewBox="0 0 210 297">
  <sodipodi:namedview/><g inkscape:label="Ebene 1" inkscape:groupmode="layer" id="layer1">
    </g>
<path style="fill:none;stroke:#000000;stroke-linecap:round;stroke-width:5.0" d="M107 438C94.7237 431.486 76.5292 419.945 75 405C85.8866 405.475 95.894 410.665 107 410.661C128.001 410.652 147.681 397.515 165 387.201C173.264 382.279 186.719 376.965 191 368C183.12 368.688 176.002 372.607 168 372.961C162.033 373.224 154.381 373.93 149.055 370.721C142.979 367.061 143.507 359.171 144.167 353C145.85 337.28 154.574 323.461 163.735 311C167.172 306.324 176.132 298.454 175.468 292.108C174.92 286.861 166.803 286.941 163 287.015C154.429 287.183 131.591 292.425 127.643 280.956C126.257 276.929 128.949 271.799 130.117 268C133.643 256.522 137.812 245.176 142.203 234C160.109 188.43 177.698 144.459 210.289 107C216.55 99.8043 223.731 93.4211 231 87.2747C261.026 61.8842 316.406 24.425 353 55.7291C361.92 63.3595 374.153 72.2545 375 85C343.521 72.7866 321.807 62.8596 289 77.5864C282.791 80.3738 275.79 83.0602 271 88C278.343 90.9703 289.683 87.879 298 89.1343C318.636 92.2487 339.118 97.8621 358 106.781C364.025 109.627 378.914 114.662 381.548 121.105C383.989 127.076 382.053 137.743 381.285 144C379.304 160.125 374.695 176.866 374 193C380.616 192.164 388.57 190.62 394.999 193.148C398.42 194.494 402.858 201.18 406.74 198.994C412.225 195.905 413.526 183.576 413.91 178C415.516 154.691 402.429 134.25 384 121M375 85C386.524 93.5669 400.86 99.2971 413 107.243C419.868 111.738 425.409 117.979 432 122.844C442.785 130.805 452.897 137.038 458.24 150C468.96 176.006 458.057 206.322 446.247 230C419.47 283.684 381.884 328.803 344.31 375C334.632 386.9 326.434 399.837 318.604 413C314.595 419.74 311.724 428.631 304.985 433.186C287.072 445.294 268.859 455.961 249 464.576C234.142 471.021 216.657 475.343 203 484C206.958 489.641 215.537 497.162 214.497 504.957C213.594 511.724 198.369 516.563 193 519.247C174.024 528.734 149.476 537.576 128 531.362C123.596 530.087 120.136 526.831 116 525C115.127 532.44 121.669 541.651 123.705 549C127.67 563.31 131.083 578.926 142.174 589.815C160.322 607.633 193.199 600.58 215 595.105C266.413 582.192 308.68 556.075 351 525.151C371.232 510.368 392.222 495.749 410 478C428.813 459.217 454.412 437.461 455 409L417 425.795L378 433.13L343 447M378 88L382 118M245 103L270 89M29 217C30.6907 204.455 38.3949 194.084 43.9321 183C56.6082 157.625 70.5596 137.403 92 118.105C94.2689 116.063 96.8468 113.926 100 113.579C103.893 113.151 108.139 115.208 112 115.711C120.406 116.806 132.916 113.352 137.347 123.005C146.393 142.71 128.248 170.166 120.109 187C113.571 200.523 105.425 219.696 106.104 235C107.233 260.436 114.998 285.229 115 311C115.001 323.069 115.016 334.356 108.536 345C99.3274 360.128 82.9885 376.753 67 384.722C61.8948 387.267 43.4847 384.99 41.2562 389.589C39.4716 393.271 46.7965 398.858 49 400.911C56.3051 407.715 64.9187 412.656 73 418.427C77.3263 421.517 80.6352 425.269 86 423M60 173C50.5831 182.823 48.4043 200.703 43.1273 213C41.9689 215.699 36.0726 224.278 40.358 226.382C48.9468 230.599 60.713 218.416 68 216C67.8806 230.424 62.6445 243.648 55.5787 256C49.7952 266.111 41.3489 275.648 45 288C51.6686 282.998 70.5491 273.553 78.6821 280.009C87.4651 286.981 73.9947 308.582 67 312C67.6406 303.803 66.0681 298.763 58 295C58.9409 303.752 56.0509 311.548 62 319L66 313M47 181L57 175M374 193C371.209 200.557 367.598 212.844 368.122 220.957C368.409 225.407 373.575 227.545 374.606 232.004C377.385 244.023 368.242 266.072 358.96 273.606C350.294 280.639 340.197 275.695 331.285 279.549C323.7 282.83 318.443 291.172 311 295.08C294.53 303.728 280.968 287.466 270.961 277C266.219 272.041 251.45 259.999 252.881 252.055C254.077 245.415 267.878 244.549 273 243.949C280.256 243.099 288.707 238.829 296 239.618C304.097 240.494 313.909 254.333 313 262M366 222C348.897 217.182 333.425 219.085 317 225.601C307.826 229.241 291.719 237.746 282.133 231.143C271.238 223.637 287.237 218.78 293 217.601C319.263 212.229 344.982 196.235 372 195M69 215L68 216M367 225C366.485 249.816 348.678 259.419 335 277M299 240C316.383 229.303 339.087 233.61 358 234M313 256L321 243L330 253C322.308 261.812 311.007 276.043 299 277M334 251L331 253M477 265C477 299.013 461.886 325.634 443.024 353C428.81 373.622 414.884 394.953 398.572 414C392.902 420.62 385.741 425.526 380 432M311 276L329 278M44 289L44 291M59 295C65.8844 289.987 71.0698 294.498 67 302M56 308C53.409 303.539 49.712 297.217 57 296M42 298L52 297M469 314L460.718 380L458 405L478 396M61 320L57 323M201 360L192 367M474 399C470.966 408.146 461.377 418.893 454 425M72 403L74 404M457 406L455 409M84 425L89 425M91 426L90 430L92 428M87 427L89 429M92 431L95 433M447 439C446.516 461.704 431.797 487.213 425.424 509C408.194 567.909 388.249 627.06 379.272 688C356.112 845.215 356.257 1005.82 367.09 1164C368.421 1183.45 372.458 1202.63 374 1222M77 455C81.2778 461.778 83.9259 472.421 90.3287 477.512C94.3045 480.674 102.169 480.918 107 483.374C111.161 485.489 116.061 490.396 121 490.18C126.248 489.95 131.538 483.904 136 481.453C150.239 473.632 166.222 465.115 183 470.043C191.719 472.604 195.694 479.789 203 484M92 481C94.7421 488.151 97.1179 497.432 103.326 502.528C126.051 521.183 159.102 504.763 180 493.312C186.57 489.712 193.881 487.319 200 483M105 505L116 525M650 510L651 510M360 547C360 553.031 359.154 559.23 361.309 565C363.435 570.693 368.479 573.362 367.107 580C362.006 604.685 349.663 628.307 341.309 652C338.016 661.336 331.812 673.945 332.318 684C332.674 691.08 340.807 699.288 343.548 706C350.505 723.04 354.789 740.724 356.833 759C358.869 777.199 358 795.695 358 814C358 819.216 355.757 830.527 360 834L363 833M359 560C347.983 577.323 345.138 600.493 339.579 620C330.51 651.822 319.328 685.091 315.286 718C312.955 736.982 314.228 756.874 312.91 776C312.169 786.767 309.087 798.222 309.75 809C310.337 818.54 313.566 828.4 314.715 838C315.566 845.117 313.807 852.366 317 859L344 842.8L357 835M366 830C399.219 809.665 440 791.561 465.242 761C476.882 746.908 487.034 725.296 476.691 708C468.934 695.031 458.099 688.311 444 683.671C437.926 681.671 424.69 680.933 420.693 675.581C416.076 669.4 425.427 661.058 425.497 655C425.57 648.625 417.608 644.305 414 640C419.859 638.268 425.993 639.497 432 638.561C456.391 634.759 480.538 632.61 505 629.714C520.409 627.891 538.039 625.544 550.996 636.329C562.951 646.28 562.588 662.855 564.286 677C565.382 686.138 570.307 700.604 566 709C556.903 697.791 548.235 686.352 539.338 675C536.638 671.555 532.286 664.347 526.999 665.712C521.068 667.244 515.19 676.338 511.684 681C506.346 688.097 507.483 696.646 506.91 705C505.871 720.18 502.994 734.695 503 750C503.008 770.212 512.516 789.63 513.911 810C517.198 858.001 515.186 906.009 519.83 954C522.334 979.875 520.84 1017.75 536 1040C540.952 1031.41 541.756 1018.75 543.13 1009C545.907 989.3 547.283 969.749 549.17 950C554.339 895.9 562.023 842.082 567.17 788C569.433 764.219 574.266 731.929 567 709M411 640L414 640M415 722L416 722M570 722C578.388 732.472 578.18 752.022 579.089 765C581.47 798.97 579.527 833.083 578.039 867C576.287 906.959 564.948 945.302 561.17 985C556.675 1032.23 558.905 1079.89 552.711 1127C547.896 1163.62 544.389 1200.25 540.83 1237C539.437 1251.38 535.002 1265.56 535 1280M358 838C354.04 859.33 356.435 884.457 357.91 906C358.445 913.806 356.222 922.92 360 930M1041 1563L1041 1564" transform="translate(-577.122,-226.816) scale(0.929334,0.338352)"/></svg>