<svg xmlns="http://www.w3.org/2000/svg" xmlns:svg="http://www.w3.org/2000/svg" xmlns:sodipodi="http://sodipodi.sourceforge.net/DTD/sodipodi-0.dtd" xmlns:inkscape="http://www.inkscape.org/namespaces/inkscape" xmlns:xlink="http://www.w3.org/1999/xlink" width="210mm" height="297mm" viewBox="0 0 210 297">
  <sodipodi:namedview/><g inkscape:label="Ebene 1" inkscape:groupmode="layer" id="layer1">
    </g>
<path style="fill:none;stroke:#000000;stroke-linecap:round;stroke-width:5.0" d="M323 98L293 107C300.377 76.2295 339.511 62.6797 366 56.6011C374.872 54.5652 381.386 47.6584 391 49.3287C405.417 51.8334 426.478 70.9592 432 84C423.933 85.5742 415.169 82.3971 407 82.0393C385.848 81.113 366.304 82.6299 346 88.5756C340.171 90.2826 332.007 91.4489 327.055 94.9814C321.464 98.97 317.559 107.432 313.579 113C302.801 128.075 293.098 143.927 283.872 160C276.061 173.607 268.914 188.072 264.001 203C262.879 206.409 258.783 216.16 262.604 218.933C265.465 221.009 271.883 218.199 275 217.611C285.304 215.668 296.492 213.583 307 214.039C322.858 214.728 339.232 215.423 355 217.286C362.469 218.168 371.613 221.469 378.961 220.981C387.766 220.397 397.133 210.744 406 208.289C413.759 206.141 423.931 203.003 432 204.326C437.565 205.239 441.413 209.377 447 210M377 55L402 58M364 59L331 91M416 61C435.282 66.2631 462.88 75.8054 477.961 89.213C485.033 95.5005 490.138 104.533 495.887 112C526.609 151.899 536.468 195.479 531.166 245C529.834 257.438 528.522 271.223 524.085 283C511.014 317.696 481.891 340.837 458.425 368C435.439 394.608 420.317 427.338 395 451.985C385.738 461.003 376.951 461.17 365 463.25C360.077 464.107 355.715 466.105 351 464C357.134 456.584 365.333 451.06 371.91 444C400.896 412.885 434.551 375.938 446.573 334C450.727 319.506 454.267 301.096 452.83 286C452.18 279.172 451.767 271.657 450.153 265C449.421 261.983 446.664 258.248 447.56 255.089C448.996 250.028 457.115 245.478 460.226 240.999C466.961 231.304 469.366 218.423 471.385 207C472.122 202.83 473.567 197.002 471.667 193.015C469.6 188.676 465.062 186.936 461 185C454.654 205.884 451.475 229.983 438 248L446 255M433 85C459.448 97.5348 496.94 99.1659 497 138C497.011 145.31 496.511 152.071 491.471 157.891C481.745 169.121 471.61 149.908 463.643 156.067C461.445 157.766 462.933 162.652 462.985 165C463.133 171.56 462.559 178.935 460 185M437 89C451.908 106.241 461.937 131.094 462 154C426.314 154.004 373.215 174.922 357 209C369.777 210.784 388.208 192.923 400 187.873C420.108 179.261 438.213 182.302 459 184M223 96L192 150C169.863 135.537 154.721 162.392 143.573 178C139.16 184.177 132.51 191.56 130.438 199C128.231 206.924 141.565 220.558 145.575 227C159.783 249.825 153.152 266.932 133 282.576C127.356 286.958 122.24 292.688 115 294M192 150L169 201C176.45 198.704 185.286 193.45 192.956 198.089C200.941 202.92 201.295 217.71 202.424 226C206.22 253.885 201.837 284.39 198 312C196.857 320.224 189.819 339.479 196.738 346.397C199.418 349.075 203.998 347.556 207 346.37C215.839 342.877 223.533 338.079 233 336.015C260.596 329.997 286.979 322.479 315 331.519C326.661 335.282 342.954 341.684 346.442 355C349.03 364.879 341.547 378.203 336 386C328.568 374.685 307.722 379.884 296 381.286C280.644 383.122 265.1 386.393 250 389.668C239.018 392.05 229.536 396.066 218 394.826C209.393 393.902 202.868 388.864 195 386L206 425C194.222 421.308 184.375 407.555 178.782 397C164.179 369.446 169.439 336.312 174.324 307C176.52 293.824 179.651 282.448 177.729 269C174.861 248.924 152.893 219.266 169 201M163 206L149 216C152.877 205.925 164.238 188.757 174 184M440 208L421 212.015L392 224L403 227.644L412.91 222.921L424.143 237.791L438 248M151 213L153 215M149 216L144 223M383 221L391 224M376 222C363.318 231.214 340.994 247.527 325 248M390 225L396 237L402 229M404 228L421 237M424 239C412.434 246.88 392.485 242.201 383 252C393.263 256.967 421.002 261.882 431.946 257.548C435.147 256.28 436.568 252.865 438 250M332 248C337.76 251.325 344.232 252.368 350 255.951C371.305 269.182 409.744 305.893 427.247 271C429.222 267.062 431.223 263.359 432 259M376 251L383 251M443 254L436 256M156 282C147.663 286.394 133.47 292.401 124 291M142 289C140.761 296.017 143.489 299.782 148 305L129 314M151 303C151.483 292.617 157.012 293.838 165 297C161.717 302.985 155.431 304.864 149 305M133 314C141.179 319.951 158.023 318.234 161.156 330.001C165.193 345.163 140.773 360.179 137.808 375C132.322 402.422 157.713 436.231 172.745 457C182.657 470.694 193.705 482.81 208 491.985C210.901 493.847 219.858 500.025 223.393 497.843C225.898 496.296 224.788 486.813 224.975 484C226.167 466.131 216.287 451.822 207 437C223.824 433.713 243.629 453.543 254 464M192 380L195 386M336 387C330.91 401.65 323.724 411.852 311 421M206 425L208 427M200 431L207 436M535 447C525.333 458.912 512.131 468.315 503.562 481C500.347 485.76 498.891 491.937 495.999 497C472.777 537.661 458.441 581.601 447.765 627C429.093 706.408 420.793 787.064 412.83 868C409.681 900.009 404.115 932.423 397.8 964C396.106 972.473 395.331 981.801 393.122 990C391.459 996.173 387.903 1000.33 388 1007M502 482C495.234 484.319 491.111 491.147 486 495.911C475.472 505.722 464.953 515.39 454 524.728C424.981 549.471 392.914 572.085 359 589.59C344.599 597.023 330.277 605.206 314 607.725C297.846 610.226 280.946 608.923 268.001 597.79C261.789 592.448 257.746 585.163 252.424 579C244.905 570.294 235.829 566.14 237.858 553.059C238.467 549.136 241.627 549.394 243.653 552.153C247.354 557.192 250.083 562.584 256 565.543C267.986 571.537 285.001 561.713 295 555.572C302.342 551.062 320.868 541.675 313 532L335.828 525.411L329.961 515.004L304 496L325 483.329L351 465M258 467C268.653 474.902 282.601 471.398 295 471.042C308.558 470.654 322.348 473 336 473M218 513C237.578 525.451 250.585 503.791 268 497.436C280.61 492.835 291.265 496.179 304 496M297 497C288.183 502.894 267.789 508.224 258 503M224 499L228 516M226 501L250 506M221 516C222.88 525.445 230.249 527.984 236.871 533.429C243.745 539.082 248.546 545.811 256 551M231 519L235 531M253 548L284 538.522L313 532M245 540C257.196 531.95 278.829 533 293 533M241 539L238 548M247 546L243 550M396 988C433.902 927.576 489.104 878.794 530.427 821C536.249 812.859 543.561 805.681 548.572 797C561.424 774.731 566.759 743.137 556.381 719C552.138 709.13 543.619 702.157 534 697.861C528.114 695.232 520.301 693.89 516 689C524.745 685.286 534.799 684.424 544 682.127C563.445 677.272 582.781 672.423 602 666.721C606.581 665.361 625.54 657.424 628.971 661.618C631.198 664.34 629.265 670.003 628.572 673C626.158 683.443 620.824 693.076 616.938 703C601.229 743.124 589.6 780.885 585.079 824C578.593 885.846 584.75 948.842 578.83 1011C571.214 1090.97 550.626 1165.46 523.858 1241C507.874 1286.11 490.7 1333.05 466 1374M450 694C469.71 686.605 495.215 689 516 689M255 736C260.855 735.811 264.703 732.498 270 730.429C278.393 727.151 287.276 725.054 296 722.873C318.829 717.166 340.902 717.842 364 720.715C373.444 721.89 382.994 721.602 392 725L379 736.424L343 757C346.357 763.421 355.752 765.505 362 768.486C374.238 774.326 392.507 787.326 393.896 802C395.637 820.396 387.049 841.11 380.684 858C368.014 891.625 354.575 925.086 340.139 958C334.333 971.238 328.434 984.666 325.924 999C325.008 1004.23 324.268 1012.41 328.434 1016.57C331.963 1020.09 337.615 1018.9 342 1018.27C352.049 1016.84 361.937 1014.3 372 1013M262 735C282.418 746.39 287.08 762.384 293.011 784C303.599 822.591 301.602 865.528 297.83 905C296.752 916.282 296.067 927.782 294.576 939C293.664 945.86 291.355 953.408 294 960C300.789 948.969 303.611 934.104 308.449 922C320.809 891.076 340.959 853.841 341 820C341.026 798.947 329.659 773.452 306 771.199C301.18 770.74 296.607 772.934 292 774M341 757L343 757M284 944C284 913.988 284.31 882.698 279.725 853C276.851 834.383 267.272 809.685 270.148 791C271.473 782.395 282.037 778.895 289 776M284 948L284 950M284 956L283 965M293 961L285 1049M283 973L278.83 1024L269 1145M327 1206C316.926 1154.05 334.551 1093.41 357.753 1047C364.865 1032.78 374.296 1011.83 387 1002M387 1011C396.586 1012.78 406.476 1012.35 416 1014.5C448.03 1021.73 475.452 1037.52 490.485 1068C505.622 1098.69 491.1 1140.6 485.424 1172C473.614 1237.34 465 1304.57 465 1371M386 1016L372.573 1062L364 1092M643 1043C640.2 1056.53 634.495 1069.68 630.71 1083C620.577 1118.66 610.115 1154.69 603.75 1191C601.267 1205.17 591.992 1227.05 596 1241C606.695 1225.35 609.424 1203.33 611.17 1185C611.854 1177.81 614.478 1168.55 611 1162M362 1096L361 1100M360 1102L359 1105M357 1114L355 1119M354 1122L352 1128M351 1134L350 1136M348 1143L348 1144M268 1151C263.218 1176.76 266 1205.82 266 1232C266 1267.69 263.612 1303.44 267.171 1339C268.355 1350.84 270.663 1363.84 274.811 1375C277.193 1381.41 283.401 1390.09 282.744 1397C282.14 1403.35 277.886 1409.74 276.339 1416C269.053 1445.49 259.952 1476.36 263.715 1507C264.742 1515.36 265.217 1524.45 269.417 1532C278.937 1549.11 301.732 1537.62 316 1537L315 1543L333.039 1530.39L365 1513.92L389.951 1506.15L394 1481C381.845 1486.67 370.215 1501.53 360.424 1510.8C356.701 1514.33 351.469 1515.4 349 1520M343 1159L343 1160M342 1164L341 1167M595 1242C589.593 1258.91 587.489 1276.55 584 1294C572.625 1350.88 565.422 1411.33 542.281 1465C527.489 1499.31 508.314 1532.99 469 1542M395 1480C404.545 1460.81 422.138 1445.06 436 1429C468.506 1391.34 503.756 1356.24 539 1321C549.827 1310.17 561.132 1299.37 570.244 1287C576.608 1278.36 581.217 1266.19 589 1259M285 1288L287 1293M282 1301L280 1303M259 1330L255 1336M231 1335L229 1337M253 1338L253 1340M249 1344L249 1345M220 1348L214 1355M246 1349L245 1351M242 1353L241 1355M240 1357L236 1361M210 1360L206 1365M234 1364L232 1366M203 1369L202 1371M228 1371L222 1378M192 1385L195 1381M219 1381L213 1387M211 1388L206 1393M188 1390L187 1391M186 1393L185 1394M184 1492C176.021 1457.51 172.616 1421.32 204 1396M183 1398C176.605 1408.45 170.526 1418.96 165.222 1430C161.987 1436.74 157.662 1442.98 167 1446M322 1524C335.002 1523.91 346.443 1502.8 355.17 1494.42C375.61 1474.8 398.585 1457.75 417.91 1437C428.316 1425.83 438.552 1406.13 452 1399L452 1407M117 1442L119 1442M149 1442L150 1442M160 1443L151 1462M96 1446L98 1445M85 1449L90 1448M170 1448L172 1449M392 1500C421.277 1489.52 448.185 1471.95 476 1458.24C485.456 1453.59 501.313 1444.44 511.96 1450.18C528.546 1459.11 514.974 1479.88 508.38 1490C489.911 1518.34 468.332 1542 433 1542M87 1487C77.0316 1479.49 56.2339 1460.99 75.9985 1452.05C78.2893 1451.02 80.5428 1450.42 83 1450M179 1453C195.669 1468.35 197.647 1485.15 203.485 1506C208.954 1525.53 215.405 1544.7 221 1564M149 1467L136.949 1501L109.09 1589L101.286 1611L94 1628C120.59 1615.97 145.956 1611.29 174 1604.37C181.086 1602.63 197.554 1600.58 200.863 1592.9C203.459 1586.87 191.219 1577.71 187.54 1573.87C170.738 1556.31 150.358 1539.7 131 1525M89 1489L98 1497M186 1495L195 1518M505 1496L525 1500M392 1508L417 1502.56L485 1497M487 1497L496 1497M101 1499L129 1521M529 1499C544.338 1501.85 555.952 1503.33 569 1512M384 1504L390 1502M392 1508L392 1512M360 1513L362 1515M285 1600C391.281 1627.57 473.278 1547.56 566 1513M394 1516L396 1519M333 1521L349 1518M197 1522L201 1530M399 1523L400 1523M305 1530L318 1526M326 1526L316 1537M334 1530L351 1533M324 1532L329 1531M298 1532L299 1532M313 1532L319 1534M297 1536L311 1533M353 1533L354 1533M357 1534L368 1535M289 1536L288 1537M373 1536L388 1539M420 1538L423 1539M279 1540C269.424 1547.93 256.013 1552.42 250 1564C258.689 1564.89 278.359 1548.65 282 1541M390 1540L392 1540M426 1540L427 1540M405 1542L407 1543M314 1543C297.967 1559.08 291.883 1580.32 280 1599L270 1596M410 1543L412 1543M415 1544L416 1544M460 1544L461 1544M419 1545L422 1545M452 1545L458 1545M429 1546L430 1546M436 1547L449 1546M212 1548L213 1549M299 1554C276.522 1571.78 249.547 1589.14 234 1614M227 1566L230 1570M222 1568L232 1607M232 1571L235 1574M237 1576L238 1576M242 1580L244 1581M246 1583L247 1583M249 1585L251 1585M258 1588L262 1592M280 1599L272 1629L270 1641M230 1619C227.493 1623.09 216.115 1637.56 219.157 1642.38C220.476 1644.47 224.066 1643.34 226 1643.17C233.002 1642.55 239.995 1642.25 247 1641.58C268.433 1639.55 291.736 1639.32 309 1654M238 1623L238 1625M93 1627L55 1659L61 1656M240 1628L243 1637M269 1642C268.133 1648.86 267.181 1656.12 268.468 1663C268.919 1665.42 271.489 1670.07 269.868 1672.35C266.763 1676.73 259.636 1668.1 258 1666M218 1643C210.781 1654.39 209 1669.8 209 1683M246 1643L249 1653M210 1685C211.152 1689.31 215.947 1698.56 210.812 1701.68C203.223 1706.3 188.646 1702.26 180 1703.29C159.348 1705.72 138.614 1706.26 118 1708.7C103.512 1710.42 83.557 1712.7 71.1242 1702.36C66.048 1698.14 69.9942 1693.73 74.0039 1690.52C82.2374 1683.93 91.8733 1678.8 101 1673.58C135.599 1653.79 176.203 1645.11 216 1645M251 1656L255 1663M55 1659L36 1677M1 1734L4 1734M1 1749C14.7725 1749.75 15.1799 1764.66 1 1765" transform="translate(-577.122,-226.816) scale(0.911876,0.326876)"/></svg>