<svg xmlns="http://www.w3.org/2000/svg" xmlns:svg="http://www.w3.org/2000/svg" xmlns:sodipodi="http://sodipodi.sourceforge.net/DTD/sodipodi-0.dtd" xmlns:inkscape="http://www.inkscape.org/namespaces/inkscape" xmlns:xlink="http://www.w3.org/1999/xlink" width="210mm" height="297mm" viewBox="0 0 210 297">
  <sodipodi:namedview/><g inkscape:label="Ebene 1" inkscape:groupmode="layer" id="layer1">
    </g>
<path style="fill:none;stroke:#000000;stroke-linecap:round;stroke-width:5.0" d="M342 130L346 135C309.658 168.174 272.636 197.295 245.004 239C237.648 250.102 221.205 271.533 226.603 285.996C229.183 292.909 238.741 296.276 245 298.799C263.618 306.306 285.005 301.798 303 312.043C313.402 317.966 320.698 329.504 325.913 340C345.654 379.738 329.412 428.62 305 463C311.314 465.819 319.383 461.504 326 460.438C339.416 458.278 353.511 457.546 367 458.83C374.726 459.566 387.635 456.689 385 468C388.473 466.812 391.565 462.78 395.09 462.438C405.581 461.422 418.304 473.48 425 480.015C450.786 505.179 455.083 537.395 448.192 572C438.323 621.558 386.686 648.772 349 676.012C335.867 685.505 321.813 694.957 310.004 706.089C306.191 709.684 299.191 716.064 302.043 721.985C309.709 737.903 341.397 732.939 355 731.206C399.916 725.482 447.167 714.575 480.999 754C488.664 762.931 493.957 773.139 495 785C495.824 794.366 495.841 801.981 492.564 811C484.893 832.116 468.704 846.861 453 862.018C433.912 880.442 414.908 898.734 395 916.286C371.337 937.147 354.328 966.604 329 985.08C316.506 994.194 303.174 998.405 289 1003.82C257.322 1015.93 222.91 1024.88 190 1011.55C168.885 1002.99 150.72 984.095 137.489 966C114.061 933.957 126.672 902.563 131.715 867C136.811 831.057 137.24 796.149 138.809 760C140.946 710.773 125.307 660.896 112.425 614C103.828 582.702 97.9626 550.371 83.7415 521C78.2109 509.578 71.9852 497.685 63.6998 488C53.2558 475.792 39.9961 464.756 31.5941 451C10.3653 416.244 13.0706 379.292 21.2106 341C26.7617 314.887 39.9077 290.016 46.8449 264C53.7131 238.243 54.9737 208.434 72.311 187C79.5764 178.018 88.669 169.51 99 164.134C103.826 161.623 109.123 161.722 114 159.634C123.671 155.491 134.049 146.18 140.482 138C148.777 127.452 150.735 113.677 156.889 102C165.12 86.3817 176.691 75.5056 190 64.2747C200.821 55.1431 215.377 46.8014 227.996 57.3287C233.842 62.2054 238.401 68.8768 242.848 75C249.319 83.9099 252.901 93.4257 258 103C265.989 94.121 271.643 84.2939 281 76.4398C318.579 44.8969 362.162 36.6978 405 62.3997C416.487 69.2915 427.368 77.0638 434 89L397 100C396.943 79.1368 378.833 65.1523 359 63.1705C335.767 60.849 306.678 74.3612 288 87.0934C280.434 92.2505 273.144 99.3374 268.104 107C266.279 109.776 263.327 114.35 266.477 117.258C269.49 120.038 274.374 118.463 278 118.594C287.972 118.954 298.028 116.996 308 118.428C315.559 119.514 322.956 121.861 329.985 124.826C333.432 126.28 336.647 129.474 340.579 128.181C359.015 122.12 374.346 106.493 394 103C390.274 116.238 364.968 122.523 353 125M388 461C399.195 450.973 408.524 434.271 417.424 422C449.413 377.892 477.328 320.127 474.961 264C472.79 212.538 452.842 161.374 466.921 110C470.222 97.9515 477.535 74.0667 488.04 66.7021C497.121 60.3362 512.277 59.1279 523 57.8448C531.365 56.8439 551.443 51.2843 554.562 63.0046C556.385 69.8525 551.829 77.6088 548.188 83C540.015 95.1003 530.557 106.083 522.144 118C501.248 147.603 481.922 192.312 491.757 229C498.315 253.466 521.905 262.904 537.7 280.089C547.629 290.892 549.456 304.411 552.894 318C554.144 322.937 557.223 326.815 558 332M208 88C192.232 105.131 180.117 126.874 168.579 147C165.518 152.338 156.805 162.574 157.778 169C158.523 173.919 164.413 178.957 167.11 183C172.461 191.019 176.682 200.244 180.691 209C190.531 230.489 190.025 253.97 187.83 277C185.734 298.999 179.618 321.27 169.753 341C165.028 350.45 151.656 365.54 151.514 376C151.226 397.203 165.966 418.691 170.651 439C172.122 445.377 176.407 453.765 174 460C166.219 454.519 160.217 446.884 155.004 439C121.493 388.323 150.313 338.039 148.985 284C148.357 258.406 138.373 234.066 141.174 208C142.536 195.316 149.643 180.894 156 170M397 100L394 103M258 103C258 116.564 260.855 126.561 256.333 140C254.365 145.847 246.178 156.973 248.447 163C249.647 166.187 255.036 174.588 259.025 174.079C264.807 173.341 272.74 160.327 278 156.746C295.694 144.701 317.402 139.775 335 128M262 122C280.408 133.564 305.216 126.152 325 132M296 280C311.478 267.187 332.426 258.495 351 251.203C356.729 248.953 366.924 243.146 372 248C366.999 250.635 357.057 251.671 353.708 256.418C349.871 261.859 360.75 273.244 364 277C366.674 273.687 368.409 267.066 372.214 265.071C382.125 259.873 391.024 280.931 399.787 278.539C405.143 277.078 411.89 259.587 415.755 255.004C419.154 250.973 430.766 243.874 429.824 238.039C428.678 230.942 414.661 226.038 409 223.576C387.662 214.292 367.564 216.173 345 214.075C338.805 213.499 324.434 214.979 320.788 208.856C317.478 203.298 325.825 191.442 328.904 187C335.625 177.307 349.754 171.217 354.957 160.911C359.196 152.515 342.445 139.705 350.164 133.044C373.088 113.262 405.085 145.353 418.946 161.004C433.28 177.19 446.959 204.878 443.699 227C440.872 246.182 423.9 267.517 409 278.87C402.696 283.673 395.614 290.465 388 293.016C376.896 296.735 359.901 290.781 349 288.235C330.17 283.839 310.316 281.305 291 282M246 163C243.407 167.924 240.678 172.643 237.192 177C234.649 180.18 231.891 183.131 228.999 185.996C222.291 192.643 212.538 194.926 213.106 182C213.494 173.155 218.491 159.672 222.88 152C224.728 148.77 228.528 142.38 232.985 142.921C239.451 143.706 243.472 156.439 247 161M132 312C110.916 315.114 89.7333 327.895 69 333.706C60.3125 336.141 47.3841 339.035 39 335C44.9429 326.563 54.7719 321.315 59.5617 312C69.5837 292.51 73.8125 268.254 88 251C91.9721 258.443 88.7452 278.768 100.015 281.249C105.117 282.371 109.99 274.272 112.715 271C119.367 263.01 127.118 253.806 127.91 243C128.783 231.076 118.086 223.102 107 229.279C100.327 232.996 96.588 240.289 90 244C83.2665 221.22 99.5082 188.752 116 174.286C128.693 163.152 141.382 156.99 156 169M90 244L89 250M371 245C383.464 242.196 391.876 246.391 403 251M377 245L372 248M653 251C656.968 257.042 663.6 258.659 668.999 263.3C680.775 273.423 695.145 289.358 698.482 305C700.605 314.95 699.171 326.978 698.169 337C695.825 360.441 690.04 383.67 677.444 404C660.577 431.227 634.374 451.292 615.954 477.089C601.539 497.277 593.805 525.989 584.6 549C564.081 600.297 537.037 657.546 537 714C561.864 710.635 585.979 695.439 611 690.286C633.236 685.706 656.454 686.678 672.96 704C678.944 710.28 686.525 718.877 682.633 728C678.963 736.605 671.871 744.457 666.424 752C648.998 776.135 627.653 797.201 606.428 817.92C575.337 848.269 546.217 883.458 522.692 920C500.526 954.431 491.118 1004.48 526 1035M657 257C657.487 267.653 661.171 278.197 661.911 289C663.598 313.634 659.927 339.985 654.501 364C649.36 386.751 642.211 409.351 633.551 431C628.054 444.741 620.344 458.552 617 473M397 460C406.37 446.698 418.659 435.078 428.525 422C436.546 411.368 442.417 399.537 450.503 389.001C464.212 371.138 482.144 353.951 500 340.235C509.944 332.597 528.028 314.936 541 314.029C544.775 313.765 548.559 316.748 552 318M95 327C95 333 93.3877 352.674 102.455 354.079C107.839 354.913 116.521 339.967 119 336M37 336L38 336M67 345C77.9296 353.351 86.3421 365.665 101 355M85 361C104.13 376.42 115.681 394.202 122.255 418C132.493 455.066 125.851 493.49 163 517.995C169.511 522.291 176.553 524.829 184 526.999C194.372 530.022 204.227 531 215 531C214.295 523.232 208.717 515.057 201 513M390 460L392 462M176 461L178 464M305 464C289.726 477.411 283.569 499.953 267 513.536C251.038 526.621 233.887 525.301 216 532C219.264 543.042 217.056 557.681 215.826 569C215.308 573.77 212.142 579.601 216.238 583.581C229.103 596.085 255.192 579.463 267 572.86C299.891 554.469 327.957 526.712 354.015 500C363.563 490.212 377.174 480.809 384 469M157 491C163.309 493.148 172.139 499.833 179 498.081C202.888 491.98 217.868 461.066 245 466.262C273.94 471.803 268.099 507.241 243 514.363C231.746 517.556 217.859 510.062 207 515M263 477C273.798 472.414 288.253 468.512 300 468M259 476C251.398 480.662 240.627 481.605 232 483.884C221.267 486.719 211.178 491.069 201 495.421C194.409 498.24 186.877 502.612 180 499M374 483C371.129 492.968 364.503 502.03 359.424 511C350.23 527.238 341.288 543.656 332.312 560C300.554 617.826 267.671 678.262 256.25 744C249.12 785.041 254.261 826.284 260.576 867C264.091 889.665 266.733 912.617 271.887 935C276.966 957.058 289.159 979.465 291 1002M364 727C382.216 700.36 410.52 678.783 434 656.911C470.92 622.519 506.584 586.685 544 552.83C559.755 538.574 574.668 522.857 589.576 507.714C595.728 501.465 600.993 491.765 609 488M536 715C532.239 730.798 537.77 748.217 533.502 764C531.756 770.453 527.804 776.642 525.541 783C515.919 810.034 506.724 837.329 499.152 865C470.973 967.97 454.703 1073.51 450.039 1180C447.373 1240.88 450.381 1301.42 456.17 1362C458.297 1384.27 460 1406.61 460 1429C460 1439.79 460.841 1451.74 457 1462M358 733C349.872 744.315 332.665 768.46 343.653 782.895C350.66 792.101 369.401 794.368 380 796.884C411.073 804.261 450.251 811.768 461 847M533 766L537 800M538 807L538 814M538 819L539 826M542 842L549 879M462 858L458.252 879L427.884 965L418.679 1029L405 1079M681 925C699.486 911.721 717.58 897.709 737 885.811C741.796 882.873 752.083 874.346 757.961 877.071C767.926 881.692 774.207 899.139 779.684 908C788.911 922.929 793.165 939.579 798.861 956C807.267 980.231 816.075 1004.23 825.734 1028C844.643 1074.53 871.489 1118.89 886.116 1167C895.225 1196.96 894.974 1228.11 897.089 1259C899.414 1292.94 904.456 1326.86 902.961 1361C902.087 1380.94 897.692 1400.57 893.424 1420C884.337 1461.37 871.828 1511.12 840.961 1541.96C826.431 1556.48 812.954 1534.15 806.887 1521C790.466 1485.41 788.709 1445.72 780.424 1408C759.115 1310.98 699.346 1232.04 649.989 1148C634.073 1120.9 621.227 1093.51 608.231 1065C603.864 1055.42 593.494 1037.63 594.325 1027C594.894 1019.72 606.12 1012.2 610.572 1007C624.999 990.162 639.053 973.01 652 955M551 885L572.67 964L592 1024M677 928L657 948M293 1005C299.3 1042.06 316.356 1076.81 318 1115M588 1031C583.151 1037.83 570.701 1050.68 562 1051.74C552.998 1052.83 541.34 1045.45 534 1041M403 1085C394.207 1112.02 388.176 1139.66 380.576 1167C368.105 1211.86 353.106 1260.99 353.179 1308C353.196 1319.1 357.371 1330.91 358.715 1342C361.654 1366.25 363.373 1388.93 375 1411M320 1125L339.87 1247L346.739 1285L353 1306M366 1393C366.048 1410.25 376.733 1428.64 387 1442M376 1413L376 1415M380 1420L381 1424M387 1432L387 1433M390 1437L390 1438M389 1446L391 1448M393 1451L398 1457L398 1452M398 1457L421 1488M1 1737C7.94969 1741.64 -4.80827 1754.41 9 1752" transform="translate(-577.122,-226.816) scale(0.908463,0.326225)"/></svg>