<svg xmlns="http://www.w3.org/2000/svg" xmlns:svg="http://www.w3.org/2000/svg" xmlns:sodipodi="http://sodipodi.sourceforge.net/DTD/sodipodi-0.dtd" xmlns:inkscape="http://www.inkscape.org/namespaces/inkscape" xmlns:xlink="http://www.w3.org/1999/xlink" width="210mm" height="297mm" viewBox="0 0 210 297">
  <sodipodi:namedview/><g inkscape:label="Ebene 1" inkscape:groupmode="layer" id="layer1">
    </g>
<path style="fill:none;stroke:#000000;stroke-linecap:round;stroke-width:5.0" d="M19 3C34.6702 28.912 63.6308 45.6365 83.8302 68C97.8396 83.5103 109.358 100.999 123.985 116C127.602 119.709 130.848 125.522 135.286 128.227C142.407 132.566 164.027 126.615 170.682 122.501C174.392 120.207 172.837 113.683 173.09 110C173.647 101.855 176.826 90.9999 174.566 83.0393C173.574 79.5441 170.205 77.5358 169.317 73.9854C168.207 69.5421 169.373 59.316 175.104 58.4266C181.69 57.4047 186.153 67.8595 186.811 73C187.619 79.3145 183.645 82.3772 182.314 88C180.415 96.0209 180.005 112.941 182.318 120.856C183.547 125.062 190.571 126.234 194 128.174C201.148 132.217 207.567 137.083 215 140.707C218.403 142.366 225.602 144.892 227.972 147.729C231.128 151.508 228.172 160.567 228.011 165C227.393 181.989 228.148 198.034 229 215M613 3C605.098 19.9735 605.35 39.048 601.547 57C599.261 67.7882 595.012 77.9742 593.428 89C587.252 131.998 585.877 175.859 580.714 219C579.065 232.782 575.105 246.192 573.289 260C572.307 267.474 573.738 276.739 571.682 283.866C570.256 288.811 563.721 287.531 560.238 290.089C557.372 292.194 557.972 295.865 558 299M632 3C624.331 35.1958 622.97 70.1384 619.83 103C617.037 132.231 610.518 160.896 607.29 190C606.698 195.341 608.342 200.605 607.83 206C606.137 223.862 601.268 241.473 597.424 259C595.487 267.835 595.166 277.547 592 286M656 6L647.464 70L646.675 97L635.296 148L615 306C606.073 303.495 601.98 290.958 592 292M699 6C698.977 40.8751 689.75 74.9711 683.614 109C676.764 146.994 672.487 186.003 668 224M591 7C589.318 19.4773 584.213 31.446 582.275 44C572.924 104.567 568.093 165.929 563.911 227C562.497 247.645 558.427 268.304 558 289M1 10C6.31931 21.6128 18.4429 30.1179 26.3349 40C38.3172 55.0039 48.8168 72.101 62.0401 86C80.9541 105.88 105.155 124.327 120.436 147.286C123.346 151.657 121.25 157.188 121.039 162C120.515 173.977 116.083 195.839 120.603 206.895C123.638 214.317 138.032 216.109 144 221C139.384 227.754 132.981 241.646 135.707 250C143.115 272.702 175.121 270.314 189.941 258.892C196.705 253.68 195.572 241.656 198 234M551 21L542.17 131L540.83 169L538.911 208L539 237M374 24C366.14 47.2178 362.55 75.6801 359.13 100C358.267 106.138 353.687 120.078 357.042 125.61C359.815 130.18 368.398 131.827 373 133.862C385.673 139.465 397.926 146.083 410 152.861C427.863 162.889 444.214 175.523 462 185.664C487.642 200.283 515.388 213.33 537 234M928 25L928 31M913 27L914 35M350 31C348.868 57.3523 340.263 84.0704 335.75 110C334.421 117.637 328.753 133.302 332.313 140.61C334.716 145.542 345.427 148.697 350 151.45C364.478 160.166 378.616 169.579 393 178.461C424.94 198.181 457.44 220.502 487 243.662C507.924 260.056 530.504 282.16 556 291M874 31C884.993 37.8568 870.113 50.2472 867 40M897 31L896 36M842 38L841 47M821 40C820.118 43.8931 820.092 46.1425 823 49M798 41C797.798 45.3501 795.972 53.7932 790.109 53.7932C783.164 53.7932 788.74 44.8392 791 43M378 47C383.435 44.8136 381.486 54.9697 376 56M417 50L414 61M390 51L388 59M406 52L400 56L401 53M428 56L427 63M453.628 63.0856C456.422 60.9268 459.206 66.1229 456.436 67.8248C453.889 69.39 451.419 64.7925 453.628 63.0856M440 63L439 68M467 66L465 71M478 67L478 71M488 68C491.367 69.905 491.434 71.5151 490 75L488 68M852 70C849.897 74.5054 845.057 81.024 840 77L841 74M502 72L501 78M515 77L514 82M936 78L936 85M816 79L816 88M787 82L787 90M181 83L183 85M913 84C921.606 84.6566 919.453 90.9357 914 95L913 92M375 85L372 93M388 86L384 96M766 87C772.934 101.478 748.023 98.5247 762 91M399 88L397 95M731 90L734 101M430 92C440.841 91.0608 430.503 101.093 426 103L425 97M712 93C722.244 94.6335 716.867 110.406 709.001 112.029C699.013 114.091 702.628 98.8884 709 96M893 94L893 100M458 96L457 105M442 100C443.667 102.394 444.34 102.122 447 101M868 100L874 101C870.922 105.331 862.703 113.819 860 105M468 103L467 108M482 104L481 110M832 114L835 120M784 121C785.567 120.516 787.355 119.708 789.009 119.603C800.37 118.88 791.867 138.225 786.742 134.248C784.527 132.53 784.753 127.522 784 125M812 120L813 128M665 220C664.071 224.501 658.218 240.75 662.604 243.933C667.04 247.152 682.129 240.963 687 239.573C710.322 232.916 734.283 228.217 757 219.576C818.69 196.109 884.555 174.481 949 160.015C968.872 155.554 989.231 153.016 1009 148.346C1025.5 144.447 1041.46 138.69 1058 134.887C1075.73 130.811 1092.83 129.622 1110 123M173 124C173 126.27 174.266 147.836 180.972 140.342C183.88 137.092 181.033 128.041 181 124M135 129L125 136L178 151M122 145L125 136M566 137L568 147M1135 141C1122.13 150.084 1103.94 152.274 1089 156.424C1058.98 164.767 1029.04 173.448 999 181.745C910.099 206.303 823.341 234.76 736 264.204C706.642 274.101 677.762 286.497 649 298C640.039 301.584 624.327 310.784 615 306M222 146L196 153.486L184.603 155.603L181 177L175.286 211L173 234C164.243 228.712 154.419 221.915 144 221M266 237C262.56 235.006 255.933 230.882 256.167 226.184C256.362 222.286 265.135 217.812 268 215.745C277.554 208.855 299.51 191.062 312 195.646C329.151 201.941 342.717 218.074 357 228.87C385.701 250.566 416.076 269.796 443 293.834C451.609 301.52 460.34 309.09 469 316.714C472.641 319.92 478.816 323.851 479.727 329C480.854 335.373 473.301 339.671 469 342.706C458.029 350.447 446.37 357.288 435 364.424C430.084 367.51 425.856 372.1 420 373C420 358.639 396.177 348.008 385 341.333C382.271 339.704 372 332.215 372 338L373 339M299 206L312 203L305 212M176 241C192.104 231.503 210.286 216.645 228 211M288 258C287.559 248.378 282.009 243.458 274 239C279.695 228.022 295.238 217.764 308 218.375C314.483 218.685 333.36 217.343 328 228L335 233L331 237C332.417 238.7 335.768 240.901 336.079 243.194C336.465 246.033 333.211 247.945 332.023 250.17C327.892 257.908 328.746 261.903 318 262C319.166 266.971 318.789 270.388 315 274C311.884 266.37 308 267.688 302.054 263.348C299.959 261.819 298.344 258.505 295.741 257.862C289.383 256.291 279.78 260.095 273 259.975C265.665 259.846 256.541 258.363 250 262C255.556 273.529 254 291.376 254 304M94 237L129 223M218 223L240 241M147 227L162 231M249 227C250.49 232.465 254.32 236.011 259 239M317 229L328 228M208 229L234.985 253.258L247 264L247 266L247 267M249 232L251 237L253 235M143 235L151 252L142 247M326 236L331 237M274 239C263.619 247.78 243.721 245.238 231 249M271 243L280 255M109 395C109.358 390.254 111.191 387.773 115 385L119 393L125 385L126 385C129.973 390.629 135.872 400.087 136 407L96 392.578L83 388C83.0197 358.209 85.6554 327.807 86.9606 298C87.6874 281.403 85.2932 260.924 90 245C104.718 251.129 116.737 261.567 130 270.136C140.262 276.766 151.515 281.438 162 287.604C168.089 291.185 179.994 303.497 186.961 302.781C191.083 302.357 195.435 298.178 199 296.231C214.786 287.608 229.121 270.598 246 265M349 257C343.394 255.034 340.997 246.81 349.002 246.037C354.962 245.462 357.108 252.33 352 255M257 246C262.124 249.526 266.706 252.589 268 259M168 247C163.533 251.185 157.609 250.041 152 249M221 247L223 247M247 247C251.474 250.719 255.53 252.78 256 259M148 248L146 250M149 249L149 251M177 249C182.862 263.392 157.395 255.093 152 253M311 256L301 253C308.484 249.073 312.944 255.072 317 261M297 257L301 253M248 262L250 262M277 264C291.936 276.164 305.307 290.467 319 303.996C322.056 307.016 332.839 313.227 332.218 318.015C331.112 326.547 317.284 332.964 311 337C322.368 343.523 323.838 331.632 332.934 331.636C336.975 331.638 337.416 337.555 341.105 338.427C344.374 339.199 349.475 336.291 353 336C351.353 340.798 347.76 344.77 343 341M290 266C303.93 281.124 319.649 298.231 338 308M353 271C355.236 269.784 357.529 268.24 360.001 267.552C370.388 264.662 367.895 280.913 359.005 275.928C356.758 274.669 354.879 272.723 353 271M264 268L322 328M392 282L381 270C391.009 267.041 392.084 272.783 399 278M336 285C335.02 283.675 333.962 282.532 333.393 280.955C327.436 264.466 356.645 277.896 339 283M254 284C273.771 293.22 283.638 322.242 304 329M362 302C366.701 295.629 372.603 290.131 380 287C382.117 294.158 380.969 299.485 376 305M335 317C346.059 310.573 340.45 298.303 350.043 291.995C354.944 288.771 364.733 286.406 366 294M382 298C387.64 296.375 398.614 289.791 394 301C400.342 305.762 397.74 311.675 391.957 316.239C383.127 323.209 369.317 330.866 358 332L352 326L353 336M411 305C412.654 304.055 414.274 303.135 416.025 302.373C427.828 297.233 424.051 313.722 418 308M394 302L392 304M192 303L192 348L191 443M343 348C352.629 361.386 369.197 371.332 382 381.515C405.772 400.421 431.15 419.714 451.91 442C461.475 452.268 480.551 464.825 481 480C495.758 479.654 512.009 469.664 526 465C558.752 454.083 592.182 442.917 626 435.804C681.706 424.087 737.478 410.855 792 394.431C830.731 382.765 868.867 367.678 908 357.478C949.405 346.685 990.477 334.805 1032 324.475C1054.33 318.921 1080.12 315.758 1101 306M254 319C253.26 321.503 253.878 328.434 251.397 329.749C248.718 331.168 244.428 327.487 242 326.611C236.091 324.481 222.365 320.059 231.603 310.728C236.138 306.146 246.689 308.034 252 309.954C266.092 315.046 296.026 327.249 295 344M230 323L224 327C219.513 319.667 221.946 312.305 230 309M245 309L241 325M321 355C343.331 376.868 368.889 395.735 393 415.615C410.037 429.662 426.018 445.038 443 459.246C452.545 467.232 461.841 475.772 470.271 484.911C473.508 488.42 479.237 496.066 484.039 497.073C494.497 499.266 511.51 488.018 522 485.804C566.169 476.483 608.225 457.735 652 446.478C725.254 427.642 800.156 413.466 873 393.255C908.659 383.361 944.851 373.886 980 362.258C1003.84 354.371 1027.02 344.478 1051 337.026C1065.75 332.442 1080.92 327.332 1096 324.014C1109.75 320.989 1123.76 320.101 1137 315M339 316L352 326M161 354C158.102 356.918 158.051 358.411 160 362C166.494 352.902 160.359 335.984 153.362 328.302C150.94 325.644 147.424 324.759 145 322C161.653 317.077 166.283 330.621 169.349 344C174.628 367.036 175.9 401.526 165 423L159 420C157.603 423.938 156.987 428.721 161 431M121 340C123.996 349.553 116.367 359.036 109 365C93.7115 342.385 127.344 326.935 144 322M447 325C455.818 323.633 453.143 330.167 448 334M139 326L137 329M269 328C261.811 341.714 272.422 347.314 285 349.536C301.889 352.521 326.562 350.415 340 339M405 338L398 332C404.438 326.631 409.635 330.85 405 338M445 330L445 331M252 331L265 340M279 332L278 344M358 332L356 334M397 332L398 332M126 343L134 335L138 344L145 333L154 341L155 340L156 339L157 338M421 366C434.238 362.179 447.74 351.683 459 343.883C465.008 339.722 471.6 333.984 479 333M296 335L311 337M307 337L301 346L297 341M363 338C374.787 347.059 388.078 354.061 400 363.004C406.126 367.599 410.935 373.559 419 374M250 339L253 388L260 385L260 386L260 387M144 341L144 342M152 342C152.774 348.206 157.394 353.04 154 359M138 344L129 359L123 347M152 346L145 355M114 349L117 355M139 349L140.948 360L126 385M256 353L253 357M261 358L259 355C272.241 355.047 265.465 362.959 272.589 369.154C275.758 371.91 280.579 372.141 283.907 375.213C291.749 382.452 293.561 396.521 289 406C293.752 407.016 297.398 405.092 302 404.083C306.833 403.024 314.184 408.485 309.393 413.397C303.929 418.998 288.59 413.473 287 423M257 356L258 356M104 358C100.434 363.815 98.8539 370.214 103 376L99 378L99 374M116 359L122 370L129 359M265 359L269 360M162 360C171.42 378.362 156.352 398.575 150.953 415C148.958 421.069 151.006 423.57 157 423M143 362L150 380L160 363M130 363L133 371M253 365L264 365M109 365L103 375M271 369C265.512 372.362 256.888 370.727 254 377L253 377M110 370L115 382L121 371M273 371L276 404M121 373L126 381M134 375L143 393L150 380M104 378L102 383M256 378L261 383M266 378C268.359 381.52 270.851 380.049 274 378M98 379L95 392M167 379L167 381M266 380L261 383M277 380C288.388 390.246 287.124 402.954 287 417M104 381L109 389M115 382L115 385M149 383L155 396M283 384L285 388M166 385L165 386M253 388L259 422M270 388L271 410M82 389L82 391M119 393L119 399M142 393L148 410M96 394C96.3108 397.882 97.1378 398.66 101 398L102 398M106 396L106 409L98 406L98 407L98 408L98 409M142 396L137 403M161 399L159 419M97 400L98 404M115 401L113 406M123 403C123.748 407.211 125.775 415.408 129.499 417.972C137.492 423.477 144.476 414.593 137 408M134 407L133 412M106 409C112.584 415.512 118.154 417.18 127 419M272 415L283 409M257 410C261.3 410.871 263.801 412.438 264 417M142 411L149 415L143 419C144.76 422.774 145.823 424.638 150 423M193 439C211.861 452.902 238.803 422.053 254 412M152 416L158 418M117 419C125.285 425.192 133.999 425.53 144 425M162 421L166 419M166 423L189 436M142 426C144.274 435.947 147.963 448.972 145 459C158.181 462.787 171.538 454.67 184 452M133 435L135 439L139 435M135 439C135.238 444.543 137.447 450.876 134.436 456C127.075 468.528 106.749 473.885 106 490L119 493M101 452L118 456C112.167 460.197 101.178 461.734 101 452M101 458L96 461C94.6098 456.829 96.1655 454.897 100 453M141 454L145 459M180 455C186.419 463.432 176.611 468.651 175 457M119 456L131 459M180 456L176 461M95 462L100 467M165 493L170 489C173.696 496.354 167.195 498.187 162.134 493.285C155.283 486.647 150.621 476.73 145 469C152.41 465.265 161.371 473.394 166 479M115 477L145 469M141 469C137.132 477.122 125.77 483.103 117 484L114 492M161 476C161.587 482.72 163.891 485.042 169 489M111 480L116 483M480 481L479 493M163 486L160 490M105 491L109 501L112 497L107 495M113 495L113 496M475 497L480 497M14 498L15 498M929 534L1081 530M845 536L927 534M834 537L841 536M613 544L828 537M539 548L608 545M1 559L124 557.961L467 550.986L536 548M275 629L270 629C270 618.152 270.621 606.203 264 597C268.661 591.59 276.334 588.287 278.137 598.001C279.076 603.055 276.513 607.129 276.048 612C275.519 617.53 277.339 622.375 276 628L295 635M269 597L267 599M271 605L270 609M271 612L275 612M277 629C277.022 635.353 277.929 637.721 284 640L269 651L269 630M239 664L235 665L248.213 638.394L269 630M272 639L276 638M265 640L267 644M264 643L262 645M300 645L305 647C291.592 657.633 278.889 663.06 262 657.135C256.411 655.174 250.744 653.065 249 647M305 650L308 677M234 667C232.223 670.614 228.745 677.684 235 678M313 669L342.957 683.588L350.588 695.143L369 700M194 695C190.034 695.92 184.11 697.141 182.118 701.188C178.079 709.397 191.191 723.684 198 726C196.49 718.081 191.2 711.515 192.185 703C193.737 689.594 219.706 676.367 231 671M509 672C521.302 704.791 512.909 743.237 524 776L535 769C536.407 777.095 531.67 778.608 527.654 784.594C525.935 787.155 527.357 790.217 526.382 792.996C524.306 798.915 517.598 801.23 512 802C513.78 808.011 521.437 811.089 526.985 807.452C536.149 801.446 538.021 790.901 531 783M521 672L525.424 707L536 768M238 673C243.552 683.702 260.782 697.04 273 698.695C284.024 700.189 297.265 690.924 299 680M223 697C234.512 701.133 222.747 722.603 227.313 731.581C230.952 738.735 252.093 736.901 259 739C249.111 744.278 232.607 735.901 225 743C253.325 753.842 274.627 745.156 302 737.036C311.606 734.187 322.056 733.758 331 729L323 727C330.531 722.382 341.299 721.687 350 721C346.29 728.137 338.008 727.698 331 729M351 698L352 720C356.869 714.054 357.355 708.471 357 701M230 700C247.554 709.614 269.402 723.827 290 724M337 704L350 715M358 705L369 704M371 709L369 724L368 719M195 712C203.327 719.646 214.583 728.965 226 731M369 724C365.834 741.052 363.152 762.684 365 780M198 726L225 743M259 739C279.736 738.57 302.878 731.958 323 727M227 733L223 739M321 741L315.576 779L313.397 792.262L292 788.475L252 777.934L229 768M226 744L225 782M316 744L319 744M227 748L231 749M523 775C512.153 784.439 498.14 788.614 512 802M524 776L526 786M537 778L538 783M226 780C241.985 781.306 271.545 784.8 284 795M389 796C415.314 800.456 443.2 790.803 470 790.137C476.785 789.968 483.282 788.097 490 790C495.064 782.104 503.165 778.285 512 783M517 783L524 785C519.619 790.061 515.537 789.798 511 785M353 788C347.728 793.324 333.903 800.796 329 793M483 790C483.043 795.104 483.129 800.925 489 802M470 791L470 801L476 797M453 792C453.003 796.814 452.293 804.423 459 803M310 794L306 820M315 794L330 799M259 815L255 817L259 796C271.835 811.761 286.552 816.412 304 804M367 796L408 810M326 799L318 800M434 799C433.101 802.034 433.581 807.03 430.682 808.972C423.603 813.715 415.323 810.905 419 802M443 804L442 805M522 807L522 808M433 810L505 808M194 830C211.351 821.756 233.112 803.828 254 810M524 811C524.994 813.938 526.917 818.729 524.382 821.397C520.716 825.255 512.363 824.567 515.746 832.941C517.571 837.459 525.177 837.638 527.651 833.44C529.561 830.198 527.554 824.908 526 822M535 812C543.479 828.09 544.216 850.244 547.424 868C552.752 897.486 560.879 925.904 567.765 955C570.936 968.394 572.075 991.502 579.988 1002.76C582.802 1006.77 589.228 1005.03 592.396 1009.22C596.689 1014.91 587.784 1023.52 593.515 1027.99C599.403 1032.59 607.337 1031.01 614 1029.92C626.648 1027.84 639.248 1025.38 652 1024.17C658.656 1023.54 665.537 1024.91 672 1023M258 817L291 824L299 819M254 818L250 843M261 820C265.096 828.304 281.231 829.887 288 824M292 821L293 821M319 1017C312.892 984.098 319.012 949.271 314.271 916C312.935 906.624 311.181 897.333 309.586 888C309.044 884.832 307.255 880.331 308.987 877.325C311.974 872.138 320.2 866.698 325 863.156C343.197 849.729 365.275 843.163 386 834.799C390.422 833.015 405.612 822.21 409.487 824.172C413.02 825.961 412.909 833.679 413.424 837C415.331 849.292 416 861.562 416 874M288 825L290 825M302 830C284.423 840.003 270.938 836.566 253 831M528 835C536.464 848.817 517.454 857.02 516 841C510.127 843.892 508.988 851.785 516 854M194 836C231.082 851.369 267.91 869.309 307 880M518 837L516 841M187 841C193.767 851.25 191.862 869.084 192.004 881C192.268 903.228 195.689 925.876 197.83 948C198.66 956.577 196.672 973.448 201.988 980.566C204.358 983.739 210.426 983.685 214 984.4C222.515 986.103 231.047 988.475 239 992C233.398 1005.28 237.201 1027.18 240 1041C240.969 1045.78 248.49 1052.35 253.397 1048.1C255.832 1045.99 255.044 1040.9 255.424 1038C256.785 1027.64 257.052 1017.34 259 1007M497 860L491 865C486.651 854.468 501.531 848.101 510 845M532 849L551.379 957L560.14 991L573 1017M522 852C521.822 867.027 493.541 873.118 482 878.755C466.52 886.316 451.487 896.725 435 901.971C410.684 909.709 376.429 904.843 361 883M882 915C875.723 911.144 864.317 905.134 863.157 897C862.103 889.618 871.967 882.518 877.001 878.576C893.319 865.795 911.992 857.932 932 853M937 854L923 862M463 868L463 872L489 858M522 860C525.315 863.056 527.429 864.745 532 864M896 869C928.45 869 972.224 858.074 1002 875M861 894L854 888C862.792 882.79 871.878 867.097 883 873M364 872C372.969 872 382.218 871.398 391 873.428C413.047 878.525 428.053 890.814 451 879.742C454.762 877.926 459.507 876.401 462 873M378 873L370 891M462 875C465.433 877.392 467.166 877.725 471 876M1005 877L1018 890M783 1091C761.888 1059.09 744.625 1024.7 723.315 993C711.398 975.275 695.347 961.156 694.093 939C692.487 910.615 718.597 895.072 741 885.14C751.414 880.522 762.582 875.836 774 879.761C798.889 888.316 817.659 918.111 833 938M400 882C394.33 893.298 396.166 905.256 408 892M415 883C414.6 888.072 412.232 900.141 421 896M437 886C438.692 891.508 442.165 889.791 446 887M1019 892L1022 900M867 896L882 903M397 900L397 903M1023 902L1024 906M887 906L889 908M1025 908L1032 945M415 915C415 928.825 415.968 943.314 417.87 957C418.431 961.037 417.71 970.446 423 970M667 916C672.693 928.179 682.877 942.154 693 951M884 916L888 918M891 920L894 922M901 926L909 932M605 928L646 997M584 939C588.966 957.202 596.484 972.413 607 988M836 942L858 975M507 943C511.837 963.364 524.478 987.904 535 1006M915 943L916 945M1033 947C1037.3 980.264 1041.44 1012.43 1040 1046M708 948L724 956M482 952C483.775 972.36 498.36 994.182 509 1011M726 958L733 967M454 962L486 1032M421 972L372 993.981L333 1019M859 978L861 980M724 982L725 983M863 983L870 994M239 992L287 1012.72L326 1030M560 995C560.379 999.764 560.701 1007.69 567 1006M752 996L753 997M873 999L876 1005M413 1001C426.94 1009.06 433.641 1029.75 442.047 1043C459.558 1070.61 484.069 1099.48 484.671 1134C485.1 1158.66 472.053 1181.85 471 1206C476.048 1201 478.288 1193.34 481.299 1187C487.694 1173.54 506.093 1150.05 485 1140M569 1008L578 1004M254 1005C249.175 1011.79 244.604 1014.1 239 1007M582 1006L587 1022C588.823 1017.25 586.81 1013.98 584 1010M109 1061C112.461 1067.75 109.379 1077.42 110.285 1085C111.871 1098.26 116.768 1110.91 122.309 1123C131.424 1142.89 144.383 1163.35 157.289 1181C166.018 1192.94 179.641 1206.53 181 1222C168.643 1217.25 157.939 1204.39 148.965 1195C118.235 1162.84 92.6884 1117.74 104.735 1072C110.868 1048.71 131.607 1034.77 149 1020C157.942 1012.41 170.214 1004.5 182 1010.77C201.249 1021 203.462 1051.48 213.731 1069C225.83 1089.65 247.427 1102.05 259.138 1123C273.059 1147.9 269.579 1175.8 272.17 1203C273.559 1217.59 276.839 1231.76 280.119 1246C280.91 1249.43 284.706 1258.27 281.968 1261.29C280.213 1263.23 276.169 1261.26 274 1261.12C269.47 1260.82 265.011 1262.3 261 1264.27C251.172 1269.11 242.491 1278.12 231 1278.9C220.963 1279.59 216.845 1269.69 208 1268.08C197.312 1266.13 186.847 1267.45 176 1264.51C158.118 1259.66 143.086 1249 127 1240.31C118.929 1235.95 109.467 1234.27 102 1229C97.9736 1238.1 99.1599 1247.14 91 1254M564 1008L568.514 1035.88L578 1034.89L599 1032M358 1010C358 1018.31 359.45 1032.83 351 1037L350 1031M374 1015C381.566 1013.2 389.362 1014.62 397 1013.2C399.7 1012.69 403.928 1011.16 406.4 1013.03C409.124 1015.1 409.299 1021.87 410.011 1025C412.086 1034.14 415.527 1043.12 418.516 1052C427.008 1077.23 441.822 1107.49 463 1124.33C469.167 1129.24 476.196 1135.21 484 1137M967 1017L974 1027M345 1018L346 1055L353 1049M241 1020C242.647 1025.49 248.116 1031.02 252 1024M886 1020L888 1023M589 1021L591 1023M112 1052C113.628 1044.13 115.704 1034.56 120.638 1028.04C122.926 1025.02 127.13 1021.21 130 1025M352 1022L356 1027M676 1028C674.172 1034.97 669.392 1047.31 663 1051C662.354 1049.68 661.761 1048.24 661.005 1046.97C653.014 1033.62 651.232 1055.72 644.086 1053.65C639.003 1052.19 639.107 1042.82 632.975 1043.09C624.573 1043.45 627.281 1058.11 619.899 1058.29C614.019 1058.43 613.582 1051.31 609.775 1048.62C602.763 1043.67 598.532 1056.93 596 1061C594.872 1059.07 593.909 1056.95 592.647 1055.1C585.249 1044.3 577.894 1065.31 573 1069C571.674 1066.72 570.453 1064.45 569.451 1062C568.779 1060.36 568.273 1058.63 567.532 1057.02C561.302 1043.43 555.641 1066.64 552 1070C550.791 1067.15 550.355 1060.73 547.486 1059.14C539.683 1054.82 532.51 1075.67 530 1080L522 1068L518 1075L517 1075C507.592 1061.26 508.969 1072.96 506 1083L511 1084M774 1030L775 1031M892 1030L892 1031M977 1031L1012 1065M777 1034L777 1035M357 1036C357 1045.07 358.016 1056.16 355.837 1064.96C354.125 1071.88 347.969 1075.82 349.152 1083.99C349.93 1089.36 357.694 1100.41 363.985 1098.02C375.798 1093.52 386.791 1058.63 365.002 1062.33C362.439 1062.76 360.273 1063.81 358 1065M567 1036C554.597 1044.44 536.443 1046.04 522 1048.8C516.628 1049.83 508.919 1049.64 504.344 1052.94C496.585 1058.53 500.938 1076.46 505 1083M899 1042L899 1044M1 1046C6.52752 1046.7 11.7902 1047.79 17 1049.81C33.5109 1056.2 40.7007 1071.34 37.7276 1088.91C37.0825 1092.72 33.5552 1096.1 32.429 1100C27.2712 1117.84 22.468 1144.79 31.6736 1162C35.221 1168.63 42.2088 1168.98 49 1169C62.3194 1169.04 74.9838 1165.2 88 1170.13C114.796 1180.28 102.414 1208.93 102 1229M242 1047C242.933 1056.31 247.518 1060.98 254.715 1066.32C257.15 1068.13 260.525 1071.12 263.725 1069.19C268.974 1066.02 267.332 1048.47 275.015 1051.07C288.356 1055.58 276.335 1074.47 265 1069M308 1047C290.963 1074.84 302.314 1099.73 316.997 1126C320.861 1132.91 320.66 1140.97 324.883 1147.71C341.936 1174.93 369.488 1199.63 381 1230C367.157 1228.5 355.173 1212.47 347.709 1202C327.627 1173.82 314.163 1143.35 298 1113M1039 1048C1037.74 1057.34 1034.66 1066.74 1024 1067M255 1050L256 1064M337 1050L345 1056M785 1054L797 1076M346 1057L346 1070M245 1061C245.257 1071.65 254.032 1078.16 263 1071M1 1064L35 1084M356 1070L360 1084M916 1077L916 1078M1140 1084L1140 1085M40 1089C46.1086 1100.45 35.8237 1117.12 30 1127M922 1092L922 1094M300 1094C300.695 1109.93 309.881 1126.13 320 1138M785 1094C794.014 1109.67 806.214 1132.33 820 1144M924 1099C926.214 1110.42 926.522 1120.25 912 1121M698 1100L717.456 1132L743 1172M811 1100L817 1117M514 1102L546 1166M611 1106C628.619 1135.16 644.895 1168.31 666 1195M660 1106L702 1170M536 1109L580 1177M570 1110C584.686 1136.78 599.954 1166.83 620 1190M818 1119L818 1120M825 1120L840 1121M905 1122L910 1122M821 1126L830 1148M822 1148L827 1161M325 1149L325 1161M829 1166L829 1168M37 1170C42.3433 1188.16 60.3057 1184.27 75 1187M321 1171L327 1199M325 1172L326 1194M18 1192C15.5152 1184.26 9.02158 1187.91 4 1191C2.31721 1188.09 0.564559 1183.56 5 1183M82 1189C96.1028 1196.32 93.6161 1212.68 102 1224M13 1196L14 1196M7 1198L8 1198M470 1207C460.208 1235.94 434.576 1257.13 403 1245.44C394.537 1242.31 389.534 1235.37 382 1231M181 1222C193.064 1235.4 216.168 1244.09 233 1249.75C237.931 1251.41 241.933 1254.81 247 1256C245.936 1273.9 223.838 1264.22 213 1270M186 1228C189.781 1241.12 198.642 1256.14 208 1266M4 1235L6 1241M390 1235L428 1236.99L449 1239M96 1253C95.0264 1264.92 90.9583 1279.22 84 1289M248 1255L247 1256M9 1266C16.2639 1270.77 25.2588 1275.24 34 1276M666 1268L673 1266M964 1270C969.624 1283.5 971.481 1300.64 974.884 1315C989.687 1377.46 989 1443.13 989 1507C989 1526.64 984.239 1545.59 981.718 1565C981.142 1569.44 983.53 1581.39 979.681 1583.97C972.141 1589.04 951.858 1584.88 943 1585.05C912.707 1585.64 882.361 1586.64 852 1587C821.092 1587.37 789.948 1589.74 759 1588.99C728.636 1588.24 698.503 1585.27 668 1586.01C615.41 1587.3 562.575 1592 510 1592M658 1275L773 1275.04L875 1280L931 1279L964 1278M620 1275L622 1275M627 1275L647 1275M440 1439L433.17 1386L431.83 1335L430.83 1307L431.028 1294.6L444 1292L479 1288.98L618 1276M83 1292L82 1293M425 1294L430 1294M927 1298L927 1330C932.181 1332.81 937.612 1333.58 943 1331M70 1304L71 1304M547 1305L547 1307M631 1305C636.056 1309.8 631.97 1314.22 633 1320M64 1306L66 1306M626 1306L627 1306M808 1347C817.698 1339.76 815.131 1353.66 807 1356L808 1347L791 1346C789.842 1336.84 787.217 1326.17 788.426 1317C788.793 1314.21 788.783 1309.64 791.418 1307.89C794.79 1305.65 796.984 1310.63 797.981 1313C801.147 1320.54 800.162 1327.16 800 1335M621 1308L622 1308M854 1310C854 1314.97 851.716 1334.39 856.318 1336.87C859.436 1338.54 864.154 1335.18 867 1334M834 1311L836 1366M605 1360C604.648 1351.8 605.503 1343.03 603.957 1335C603.181 1330.97 600.253 1327.1 602.909 1323.19C608.701 1314.66 622.79 1318.31 631 1318M708 1318C712.51 1329.54 712 1343.79 712 1356M519 1327L523 1330L527 1319M628 1320C631.413 1331.57 621.436 1340.57 613 1347L630 1364M711 1320C720.887 1326.75 738.184 1339.57 741.037 1352C743.685 1363.54 718.71 1365.83 712 1363M564 1323C568.721 1326.59 573.505 1330.53 577.385 1335.04C581.502 1339.82 588.271 1347.12 587.667 1354C586.978 1361.87 572.828 1367.37 566.434 1362.97C563.441 1360.91 564.029 1356.16 563.729 1353C562.885 1344.13 561.465 1331.58 564 1323M481 1352C481.78 1345.74 487.583 1328.62 494.218 1326.35C499.267 1324.61 501.526 1343.7 500.678 1346.9C498.666 1354.48 489.137 1350.37 484.055 1352.46C478.71 1354.67 476.386 1363.93 475 1369M652 1331C654.552 1329.11 656.876 1327.62 660 1326.85C681.724 1321.48 668.681 1349.68 659.907 1356.57C652.979 1362 647.616 1354.72 647.094 1348C646.83 1344.6 647.383 1341.32 648 1338M1028 1327L1030 1327M1035 1327L1036 1327M1040 1327L1042 1327M692 1328L691 1356M1000 1329L1011 1328M922 1329L927 1330M984 1330L996 1329M1072 1330L1074 1330M524 1331L531 1349M601 1331L602 1347M1080 1331L1082 1331M494 1332L485 1350M929 1332L927 1354M524 1333L522 1337M910 1334L910 1352M1104 1334L1107 1334M845 1336L854 1339L853 1359M522 1341L523 1365M784 1345C792.513 1347.99 792.384 1360.19 793 1368M307 1350C317.575 1359.22 330.411 1357.01 344 1357C373.058 1356.99 402.084 1352.24 431 1352M502 1351L503 1359M104 1353L107 1353M265 1354L266 1354M279 1355L280 1355M286 1355L287 1355M295 1355L296 1355M298 1355L310 1356M822 1355C818.143 1367.08 808.869 1371.74 806 1357M549 1356C548.532 1361.16 546.891 1365.84 541 1365M600 1384L599 1408M853 1392C855.929 1400.59 862.09 1412.08 869 1418C873.56 1408.93 874.269 1392.06 884 1387M710 1389L712 1408L726.625 1411.32L730 1427C737.076 1421.73 737.774 1413.78 728 1412M910 1394L896 1405C896.417 1397.38 902.099 1390.89 910 1394M614 1395L617 1399M820 1400C842.518 1389.15 819.947 1435.82 817.174 1412C816.943 1410.02 817.005 1408 817 1406M776 1422C776.014 1418 782.404 1394.9 789.258 1400.71C792.06 1403.09 791.014 1409.66 792 1413L803 1400C806.428 1407.12 805.166 1416.37 804 1424M540 1402C538.783 1403.77 537.158 1405.47 538.171 1407.79C540.254 1412.55 546.39 1413.03 547.59 1419C548.841 1425.22 543.517 1433.38 538 1427M660 1418C657.927 1412.45 658.02 1408.17 661 1403C667.312 1409.69 659.354 1413.86 660.867 1420.71C662.881 1429.84 671.938 1424.57 675 1420M584 1406C595.067 1408.93 612.947 1405.03 613 1420M895 1406C892.728 1420.54 906.92 1425.13 917 1417M701 1407L711 1409M623 1424C627.204 1414.13 631.599 1404.55 636 1419C637.687 1417.11 641.427 1409.21 643.996 1409.21C651.025 1409.21 643.833 1431.43 655.955 1425.42C657.471 1424.67 658.796 1423.11 660 1422M776 1408L776 1412M889 1408L894 1408M473 1409L474 1415M598 1409L595 1426M712 1410L711 1427M511 1424L520 1416L523 1422M636 1420L635 1423M760 1435C760 1448.85 755.444 1475.84 767 1486M806 1443L804 1468C806.316 1466.56 808.273 1463.55 811.028 1462.97C816.201 1461.88 817.225 1468.38 816.671 1472C815.59 1479.06 811.514 1488.67 805 1492L803 1469M615 1445L612 1488M564 1447L563 1472L586 1472M441 1454L441 1462M705 1483L701 1468C697.378 1471.24 695.716 1476.45 691.701 1479.29C688.929 1481.25 686.185 1480.23 685.319 1476.97C682.946 1468.02 688.893 1455.02 699 1461M925 1471L929 1459C935.145 1465.22 926.174 1468.97 925.36 1475.09C924.038 1485.03 935.265 1488.44 942 1484M507 1514C503.962 1501.24 505.872 1485.34 509.718 1473C510.595 1470.18 512.509 1461.22 516.776 1461.92C523.611 1463.04 520.277 1487.28 515.621 1490.25C510.53 1493.49 510.807 1485.52 512 1483M825 1474C825.043 1471.98 825.028 1469.96 825.558 1468C831.073 1447.52 842.998 1483.03 825 1474C823.141 1480.29 823.302 1492.95 833.001 1491.61C838.635 1490.83 843.161 1485.76 847 1482M543 1463C541.084 1464.03 536.205 1465.47 536.207 1468.18C536.211 1474.5 548.645 1474.85 548.457 1483C548.219 1493.3 536.476 1494.64 535 1484M629 1471C630.397 1465.68 632.755 1463.17 638 1466C632.692 1473.3 623.747 1476.6 615 1475M713 1468C717.428 1467.92 717.486 1472.44 719 1476C720.889 1473.42 725.505 1463.9 729.581 1465.35C733.276 1466.66 732.383 1477.68 733 1481M759 1464L749 1481L750 1466M893 1481L903 1465L905 1475L916 1465C917.506 1470.24 914.004 1482.25 923 1476M878 1467C887.997 1466.2 886.419 1476.45 880.696 1481.46C876.785 1484.89 874.185 1482.03 870.089 1483.32C866.669 1484.39 865.062 1488.74 861.012 1488.45C851.195 1487.75 854.238 1473.27 857 1468M888 1467L890 1468M806 1468L809 1470M612 1486C609.58 1481.53 607.724 1475.35 611 1471L614 1472M558 1476L557 1473L562 1473M582 1472C578.683 1475.83 576.733 1478.91 578 1484C589.085 1478.84 592.274 1472.24 598 1487M873 1472L872 1482M892 1472L893 1479M711 1473L710 1475M475 1474L475 1475M563 1474L560 1487M630 1475C632.992 1485.04 639.6 1483.05 646 1477M489 1477L489 1478M441 1478L442 1481M709 1479L708 1480M442 1485L442 1489M442 1501L442 1502M550 1541C550.048 1554.5 557.33 1548.12 563 1541C556.522 1537.55 540.716 1542.99 536.198 1535.44C533.161 1530.36 535.853 1505.26 543.105 1504.3C549.288 1503.48 556.192 1513.19 560 1517M442 1507L443 1520M674 1546C675.849 1531.77 690.165 1522.29 704 1522M442 1525L442 1529M653 1545C650.777 1540.4 648.366 1528 655.209 1525.66C663.249 1522.91 659.885 1534.94 658.071 1538C656.596 1540.49 654.789 1542.74 653 1545M443 1532L444 1551M625 1548C626.028 1545.52 627.336 1543.33 628.671 1541C629.426 1539.68 630.072 1538.25 630.965 1537.02C641.407 1522.62 637.738 1555.49 652 1545C662.917 1553.68 665.36 1538.65 675 1537M612 1550C614.245 1541.74 624.941 1527.33 625 1544M488 1535C488.707 1538.43 492.816 1557.81 498 1551M578 1540L581 1551L595 1535M534 1537L534 1553M563 1541C567.305 1543.37 567.16 1547.49 568 1552M707 1551L704 1553M476 1552L477 1552M444 1558L445 1575M437 1581L439 1581M450 1583L475 1589M494 1591L500 1591M507 1591L508 1591M1079 1711C1084.52 1710.87 1097.04 1702.9 1101.35 1707.6C1104.59 1711.14 1096.24 1726.68 1096 1732L1109 1727M1111 1714C1112.71 1713.18 1114.12 1712.48 1116.02 1712.2C1135.32 1709.44 1112.58 1730.27 1117.07 1736.38C1119.27 1739.37 1133.95 1734.03 1138 1734M1096 1732L1094 1741M1085 1736L1092 1734" transform="translate(-577.122,-226.816) scale(0.907331,0.332043)"/></svg>