<svg xmlns="http://www.w3.org/2000/svg" xmlns:svg="http://www.w3.org/2000/svg" xmlns:sodipodi="http://sodipodi.sourceforge.net/DTD/sodipodi-0.dtd" xmlns:inkscape="http://www.inkscape.org/namespaces/inkscape" xmlns:xlink="http://www.w3.org/1999/xlink" width="210mm" height="297mm" viewBox="0 0 210 297">
  <sodipodi:namedview/><g inkscape:label="Ebene 1" inkscape:groupmode="layer" id="layer1">
    </g>
<path style="fill:none;stroke:#000000;stroke-linecap:round;stroke-width:5.0" d="M603 27C611.032 38.7401 616.093 53.0381 621.861 66C634.793 95.0599 649.469 118.411 648.039 151C647.526 162.717 645.958 174.822 637.535 183.815C627.397 194.64 610.836 191.307 598 196.486C592.328 198.774 588.422 204.008 584.271 208.286C573.425 219.462 561.964 233.661 553.926 247C550.862 252.084 546.315 260.626 547.488 266.836C549.134 275.556 564.369 260.315 566.039 258C570.159 252.29 575.69 247.85 579.64 242C584.382 234.979 587.338 226.962 592.208 220C597.332 212.677 604.055 205.229 605 196M488 221C517.166 208.139 543.528 189.999 573 177.421C581.819 173.658 605.115 160.747 611.397 176.105C613.312 180.788 611.101 187.106 611 192M494 219L534 231C524.766 241.879 509.48 244.148 497 249.428C483.841 254.996 470.997 262.169 457 265.497C432.072 271.425 404.926 267.054 380 264M388 264C397.893 258.516 409.892 262.777 419.96 256.776C432.753 249.149 431.981 234.513 449 231M318 1458L302 1470C287.388 1452.21 268.109 1438.63 253.325 1421C241.596 1407.01 233.511 1391 227.064 1374C215.087 1342.42 216.704 1313.94 217.742 1281C219.209 1234.41 228.421 1187.08 246.873 1144C256.148 1122.34 270.458 1102.41 282.127 1082C289.505 1069.1 294.95 1055.16 301.784 1042C316.822 1013.04 332.927 985.589 344.425 955C348.61 943.868 355.446 930.078 355.908 918.054C356.075 913.71 350.669 909.873 347.975 906.999C339.745 898.219 331.181 889.882 322.804 881.246C305.923 863.844 289.442 842.359 266 833.468C249.96 827.383 225.946 836.689 210 840.349C203.356 841.874 195.992 842.678 190 846L199 854C194.801 857.366 191.262 853.832 187 851.784C178.111 847.512 168.618 844.402 160 839.575C122.818 818.749 86.9406 789.483 73.0756 748C47.3701 671.091 44.4171 587.656 77.8619 512C94.2683 474.887 120.367 444.063 138 408C146.043 415.698 155.425 422.334 167 422.895C175.761 423.32 184.211 418.761 192 415.427C207.661 408.726 223.044 401.451 237 391.576C269.499 368.58 298.173 338.513 324.83 309C337.196 295.31 347.652 280.724 361 267.961C371.923 257.516 382.801 242.379 398 237.8C404.985 235.696 412.826 237.606 420 236.826C425.897 236.186 431.035 232.725 437 234M137 408C109.963 380.963 83.3727 349.403 63.0502 317C58.7156 310.089 43.1631 293.885 45.6366 285.133C46.6667 281.488 52.8881 279.72 56 278.452C66.4156 274.208 76.8942 270.697 88 268.75C124.415 262.367 170.855 271.256 189.864 307C192.179 311.354 191.637 316.399 193 321L203 310M194 321L138 408M403 579C418.402 573.968 436.899 574.997 453 572.714C485.26 568.141 518.19 563.401 550 556.424C568.225 552.427 594.13 548.073 607.985 535.085C625.865 518.324 633.459 492.927 634.05 469C634.187 463.468 636.274 449.469 630.697 446.042C626.623 443.539 619.038 446.994 615 448.333C610.648 449.777 605.819 450.87 602 453.495C591.332 460.83 579.044 481.863 565 472C575.059 463.426 582.523 455.264 589.761 444C592.6 439.582 595.881 429.498 601.105 427.643C605.234 426.178 611.972 429.273 616 430.427C638.127 436.771 646.083 453.162 644.964 475C643.88 496.137 628.791 511.917 625.554 532C623.557 544.388 631.179 556.694 630.871 569C630.262 593.345 611.321 619.228 593.999 634.895C587.679 640.612 580.02 640.24 572 641.282C546.989 644.532 524.552 635.176 500 632.911C493.18 632.281 486.851 629.032 480 631C482.886 635.958 490.176 636.602 495 639.454C506.19 646.069 517.189 653.129 525.815 663C532.306 670.428 534.752 681.281 533.83 691C533.46 694.906 529.694 706.137 532.117 709.307C534.152 711.969 548.693 709.076 552 708.561C568.19 706.038 584.531 699.927 599 692.363C603.717 689.897 609.984 687.837 613.581 683.787C627.413 668.212 616.408 640.969 630 624C645.034 648.21 635.896 682.619 634.089 709C632.426 733.295 632.747 757.765 635.171 782C637.38 804.101 642.541 826.04 635.481 848C625.281 879.725 602.461 902.038 568 891M365 576C370.834 573.48 377.097 573.365 383 571.189C391.017 568.234 398.234 562.9 406 559.309C416.092 554.644 427.173 551.823 437 546.68C455.788 536.846 469.768 521.898 486 508.614C498.837 498.108 513.173 489.75 525 477.999C532.95 470.1 542.72 458.16 554.999 464.97C557.186 466.183 560.817 468.324 561.218 471.076C561.737 474.641 556.258 477.945 554 479.95C545.589 487.419 536.163 492.068 527 498.322C488.92 524.311 443.604 542.839 410 575M563 472L565 472M279 536L271 554C265.288 533.225 280.447 515.265 300 512.718C304.749 512.1 310.463 511 314.895 513.457C325.489 519.331 321.58 537.443 325.905 546.999C329.387 554.692 337.289 559.058 342.96 565.001C347.906 570.184 349.11 578.068 354.144 582.721C361.229 589.271 374.258 586.542 383 587M271 554C267.353 573.647 274.796 593.509 282.548 611C297.578 644.91 320.018 674.967 334.573 709C349.023 742.79 353.602 775.883 356.09 812C357.557 833.304 361.252 854.522 360.996 876C360.85 888.268 357.968 900.73 357 913M367 576L381 585M285 612L290 615M630 622L630 624M449 623L480 631M461 1725C482.279 1729.01 503.719 1731.83 525 1736.88C542.66 1741.08 559.423 1747.63 578 1745.83C608.337 1742.89 632.353 1727.74 658 1712.88C700.801 1688.07 743.38 1662.3 782 1631.26C798.284 1618.17 821.106 1604.63 841 1598.56C846.168 1596.99 861.364 1594.12 861.364 1586.99C861.364 1582.62 855.029 1578.95 852.428 1575.99C843.88 1566.25 835.432 1556.26 829.001 1545C819.735 1528.78 810.625 1512.94 799.251 1498C794.06 1491.18 787.213 1485.86 782.043 1479C756.58 1445.21 727.968 1398.92 734.3 1355C736.007 1343.16 743.027 1332.4 748.41 1322C773.742 1273.04 824.123 1245.02 853.864 1199C867.858 1177.35 882.954 1154.96 876.986 1128C872.874 1109.42 859.696 1098.36 844 1089.14C805.481 1066.51 741.029 1074.61 726.884 1021C717.716 986.249 740.758 949.352 758.316 921C794.845 862.015 840.351 807.418 890 758.985C915.209 734.394 946.232 709.216 983 708.043C1013.7 707.064 1029.78 735.334 1038.66 761C1047.44 786.396 1046 815.511 1046 842C1046 876.344 1047.25 910.83 1043.83 945C1039.67 986.617 1028.99 1027.32 1019.65 1068C1007.06 1122.88 994.003 1178.51 984.755 1234C973.232 1303.14 974.22 1373.54 980.83 1443C982.661 1462.24 981.253 1481.82 983.171 1501C984.764 1516.94 988.968 1532.44 992.338 1548C995.029 1560.42 996.361 1576.31 1003.52 1587C1010.13 1596.86 1021.76 1601.13 1032 1606.25C1059.36 1619.93 1094.22 1628 1125 1628M531 710C525.143 716.205 522.116 715.885 514 716M520 715L527 713M65 742L65 743M66 745L66 746M68 750L68 751M72 760L76 766M357 918C366.243 921.888 373.347 929.287 383 932.76C397.519 937.983 413.912 938.587 428 944.425C436.546 947.967 447.286 959.624 456 960.252C460.77 960.596 465.794 956.679 470 954.873C482.451 949.526 494.553 943.994 505.96 936.532C512.802 932.057 516.08 923.532 520.587 917C535.344 895.615 545.468 866.409 566 850.196C573.017 844.655 590.636 831.357 600.683 837.117C605.507 839.883 602.728 850.124 601.034 854C594.692 868.512 579.937 880.063 569 891M170 838L172 840M199 854L206 866M197 857L201 860M207 862L220 869M373 1197L370 1198C385.945 1172.64 412.735 1154.83 437 1138.34C447.687 1131.09 462.602 1122.18 476 1122.18C490.499 1122.18 506.429 1133.29 518 1141C549.392 1161.92 585.547 1188.79 604.716 1222C624.758 1256.73 632.079 1295.58 635.83 1335C636.714 1344.28 635.272 1353.72 636.17 1363C639.704 1399.52 650.448 1437.19 648.625 1474C645.986 1527.31 614.166 1573.35 578.004 1610C555.267 1633.05 532.709 1654.59 508 1675.44C494.312 1686.99 481.762 1699.78 465 1707.12C454.411 1711.76 443.079 1715.15 432 1718.41C429.096 1719.26 422.356 1721.71 420.118 1718.4C418.609 1716.16 420.318 1712.23 421.079 1710C423.388 1703.22 426.738 1688.88 433.213 1685.03C441.082 1680.34 452.511 1681.03 461 1676.12C473.457 1668.93 483.591 1653.38 497 1648.75C505.618 1645.78 521.552 1653.72 528 1659M373 1198C394.452 1191.88 414.423 1184.64 437 1183.09C475.701 1180.44 514.082 1198.31 544 1221.25C557.731 1231.79 582.459 1251.17 583.906 1270C584.556 1278.46 579.617 1284.93 575.769 1292C564.55 1312.62 541.758 1329.93 534.671 1352C531.818 1360.88 531.769 1383.94 518 1378C516.38 1380.8 511.764 1389.21 514.121 1392.34C518.439 1398.08 524.526 1383.66 525 1381M370 1198C355.666 1210.52 343.892 1227.27 333.025 1243C327.061 1251.63 322.149 1261.22 314 1268M315 1265C320.662 1245.44 336.399 1215.95 357 1209M516 1379C502.377 1371.11 479.225 1368.65 464 1372.24C455.781 1374.17 446.394 1381.74 438 1380C444.503 1370.96 455.553 1364.13 464 1356.87C493.203 1331.78 527.785 1309.79 565 1299M541 1311L515.912 1329.26L510 1360C505.764 1357.36 496.125 1352.46 494.256 1347.69C491.902 1341.68 509.466 1332.34 514 1331M218 1329C252.068 1309.61 287.935 1330.37 314 1353.83C367.261 1401.77 367.144 1471.88 370.039 1538C370.479 1548.03 372.794 1558.01 373 1568C383.833 1565.21 391.223 1556.35 403 1555.17C405.826 1554.89 411.983 1553.95 413.957 1556.6C418.323 1562.46 403.624 1573.5 409.423 1577.97C411.477 1579.56 415.525 1579.27 418 1580M520 1327L538 1340M301 1470L283 1488C271.064 1487.23 257.249 1480.29 247 1474.42C220.439 1459.22 193.252 1437.7 184.745 1407C177.284 1380.08 185.837 1341.84 215 1331M540 1331L537 1338M518 1377L533 1356M438 1380L429 1385M527 1381C543.294 1385.62 564.113 1390.85 578 1400.79C587.933 1407.9 595.629 1418.33 602.873 1428C610.478 1438.16 618.544 1449.76 618.871 1463C619.066 1470.9 615.164 1478.8 612.424 1486C604.289 1507.39 591.286 1523.99 576.286 1541C541.124 1580.88 501.059 1625.37 455 1652.6C434.562 1664.69 410.266 1675.97 386 1675.96C361.516 1675.95 327.199 1655.38 326.264 1628C325.642 1609.79 338.07 1591.06 330.406 1573C320.492 1549.64 299.028 1550.27 281 1538C286.612 1534.16 292.752 1532.06 297.91 1527.41C310.231 1516.31 318.249 1501.52 327.463 1488C331.063 1482.72 341.22 1470.08 332.486 1464.03C327.992 1460.92 322.628 1466.16 321.005 1470C317.384 1478.57 316.689 1486.77 322 1494M303 1470L316 1487M278 1488L263 1505L282.91 1501.28L295 1508C296.401 1501.43 293.468 1498.15 287 1500M283 1488C290.178 1492.86 310.49 1499.2 316 1490M293 1493L293 1498M276 1494L281 1500M301 1495L295 1498M324 1495C337 1508 349.106 1519.23 355.459 1537C357.841 1543.66 360.681 1550.87 361.1 1558C361.31 1561.59 359.535 1568.34 361.988 1571.34C363.952 1573.74 369.74 1569.79 372 1569M248 1515L262 1506M277 1539L281 1538M376 1568L406 1578M362 1573C362 1596.62 363.085 1629.6 352 1651M366 1574C375.812 1576.36 391.251 1579.85 401 1577M403 1578L391.667 1599L356 1646M1125 1640C1095.56 1662.44 1053.56 1672.3 1018 1679.4C1003.67 1682.26 988.673 1686.51 974 1686.87C963.1 1687.14 952.033 1684.87 941 1685C920.552 1685.25 901.523 1687.13 881 1684.83C860.845 1682.58 854.695 1657.38 831 1660.18C799.995 1663.86 777.068 1698.39 760.105 1721C753.87 1729.31 745.239 1737.49 741 1747C760.52 1752.77 784.246 1742.44 804 1741.09C823.67 1739.74 842.9 1749.65 862 1747.83C892.538 1744.92 919.523 1727.94 950 1723.43C961.828 1721.68 973.216 1724.16 985 1723.87C1031.65 1722.72 1078.29 1725 1125 1725M531 1659C538.033 1665.45 534.968 1673.66 532.873 1682C526.339 1708.02 503.733 1714.21 483 1726M1 1751L1 1753M1 1759C6.13794 1761.86 4.01367 1766.45 2 1771" transform="translate(-577.122,-226.816) scale(0.922856,0.32858)"/></svg>