<svg xmlns="http://www.w3.org/2000/svg" xmlns:svg="http://www.w3.org/2000/svg" xmlns:sodipodi="http://sodipodi.sourceforge.net/DTD/sodipodi-0.dtd" xmlns:inkscape="http://www.inkscape.org/namespaces/inkscape" xmlns:xlink="http://www.w3.org/1999/xlink" width="210mm" height="297mm" viewBox="0 0 210 297">
  <sodipodi:namedview/><g inkscape:label="Ebene 1" inkscape:groupmode="layer" id="layer1">
    </g>
<path style="fill:none;stroke:#000000;stroke-linecap:round;stroke-width:5.0" d="M359 544L355 540C376.629 520.26 402.674 505.434 423.999 484.961C456.814 453.457 479.548 410.091 497.861 369C507.963 346.332 517.363 327.407 517.985 302C518.8 268.73 515.878 229.273 500.73 199C492.084 181.721 477.065 165.124 463 152.09C449.221 139.322 431.238 130.183 416 119.154C410.806 115.394 400.958 110.792 398.042 104.96C391.909 92.6904 414.297 78.1613 423 73.9846C446.377 62.7651 484.444 75.4363 490.76 102C494.523 117.823 485.942 132.559 491.025 149C497.867 171.125 512.328 190.109 522.255 211C535.573 239.026 527.287 267.844 524.166 297C521.478 322.104 526.825 347.098 522.385 372C517.547 399.132 503.009 424.617 497.211 452C490.35 484.402 492.23 517.105 491.997 550C491.726 588.296 490 626.686 490 665C490 710.574 490.247 757.152 498.999 802C502.114 817.963 507.51 840.273 490 849.427C481.004 854.131 471.89 848.004 466.39 841C456.277 828.119 452.314 806.892 450.285 791C447.892 772.248 442.972 753.861 441.17 735C439.841 721.091 441.24 706.701 438.112 693C430.578 660.005 415.633 628.853 400.244 599C392.601 584.174 381.165 570.88 371.924 557C368.878 552.425 365.139 545.094 359 546C372.093 575.537 365.334 614.631 363.961 646C363.574 654.826 361.65 664.195 363.518 673C368.032 694.286 372.971 718.734 380.927 739C387.613 756.032 399.093 771.028 403.346 789C411.051 821.562 409.355 853.922 407.09 887C404.678 922.219 401.695 956.028 396.296 991C392.229 1017.35 388.625 1043.02 379.065 1068C376.895 1073.67 376.183 1079.81 373 1085C356.52 1061.83 360.13 1022.06 359.999 995C359.624 917.2 380.218 837.167 358.875 761C353.232 740.862 357.585 723.134 342.696 706.015C330.956 692.516 315.608 695.361 301 702.029C273.84 714.424 253.553 737.794 231 756.565C219.597 766.056 200.459 780.234 215.043 794.96C234.574 814.679 252.412 805.532 272 791.706C295.323 775.244 317.462 756.569 335.181 734C340.013 727.844 342.48 720.349 347 714M327 103C306.642 94.4816 286.14 86.5615 264 95.0648C254.349 98.7717 226.414 119.552 246 126L229 133.45L198 149C197.237 142.489 202.411 136.962 206.127 132C215.285 119.769 226.299 109.525 238 99.7539C250.935 88.9531 266.051 75.312 284 76.0402C297.736 76.5974 314.169 85.8977 323.942 95.1836C327.281 98.3564 328.779 103.155 332.46 105.944C365.299 130.828 401.914 154.092 429.83 185C457.959 216.142 452.334 253.207 448.166 292C440.11 366.976 399.62 453.246 317 466.675C304.46 468.714 285.348 473.036 273 470.101C265.464 468.31 257.018 466.395 250 463.11C244.725 460.641 238.321 455.478 232.129 456.125C228.426 456.512 224.909 461.194 221.999 463.29C214.687 468.558 207.043 472.731 199 476.753C188.68 481.913 177.727 486.964 166 487.406C160.168 487.625 153.819 484.686 148.17 485.474C143.45 486.132 141.098 490.825 136 491M150 100C125.13 122.971 108.982 155.241 95.7191 186C92.0806 194.438 83.0246 212.366 87.6034 221.682C89.2221 224.976 102.213 227.157 106 229.464C119.158 237.479 128.761 250.329 129.91 266C131.641 289.62 122.783 311.075 118.921 334C117.471 342.605 114.682 355.649 121.394 362.772C127.31 369.049 135.903 364.539 142 361.138C163.215 349.304 184.577 342.02 209 349.17C218.673 352.002 232.458 362.278 229.302 374C226.531 384.289 218.718 391.33 215 401C223.047 401.12 226.836 391.96 227 385M331 106C324.214 112.194 313.149 120.676 304 122.698C297.047 124.234 290.027 120.832 283 121.015C271.247 121.321 257.688 124.589 246 127M274 123C279.576 125.976 287.424 125.976 293 123M307 123C328.448 136.331 357.388 142.66 366.113 170C369.127 179.444 371.527 190.22 362.906 197.61C349.272 209.297 326.816 204.177 313.234 214.843C309.518 217.761 308.567 224.987 305.895 229C298.844 239.592 289.938 243.958 278 246.576C265.301 249.36 247.329 249.734 236 242.451C231.277 239.415 225.846 235.203 226.344 229C227.988 208.528 243.922 207.569 259 201.255C267.602 197.654 283.647 197.424 287.852 208.005C290.079 213.61 287.468 218.618 286 224L309 216M196 149L195 151M234 454C250.2 440.818 263.777 425.833 277.272 410C301.841 381.173 322.55 350.23 305.485 312C302.077 304.364 295.794 299.181 290.424 293C283.885 285.472 277.147 276.623 269 270.789C250.764 257.729 227.327 257.025 206 256.992C201.93 256.986 187.912 256.683 187.927 250.891C187.948 242.559 196.798 232.124 201.666 226C218.241 205.151 241.952 185.661 269 181.87C288.714 179.106 310.942 193.091 311 214M280 202L279 226L286 224M254 205C249.934 210.317 243.341 213.848 242.214 221C238.564 244.147 277.228 247.016 282 227M944 206L940 209M94 318C92.6244 307.844 78.4945 298.524 69.3935 307.318C64.1317 312.402 63.7677 321.567 61 328C36.9249 308.085 37.8484 277.809 50.7531 252C57.9691 237.568 68.8096 224.75 86 224C86.9189 235.644 88.8258 246.165 93.4282 257C99.0901 270.329 106.724 279.79 105.96 295C105.49 304.351 99.0498 312.047 94.8897 320C91.6469 326.199 91.131 333.531 88.385 340C84.814 348.413 79.1939 355.765 77.7052 365C75.0663 381.37 84.3011 401.934 91.6813 416C100.436 432.685 107.344 450.799 120.174 464.996C127.598 473.212 137.181 478.544 146 485M279 226L263 231M52 319C63.4792 303.389 88.2505 280.799 103 305M103 311C102.452 323.754 98.4003 336.284 97.1698 349C93.9502 382.27 105.655 436.11 144 445.1C158.775 448.564 183.473 426.886 170.686 412.185C159.125 398.893 153.415 410.83 141 413.482C131.087 415.6 122.386 411.279 115 405C125.911 396.653 144.565 396.759 156 404M53 320C50.3425 323.766 44.8764 332.792 48.0424 337.487C51.4726 342.574 71.5598 344.164 77 343L62 328M73 336L91 328M77 343L85 346M158 404C173.314 388.676 190.822 355.568 217.999 370.417C221.762 372.474 224.337 375.74 227 379M773 387L774 399L773 399L772 400L771 401M854 391L860 391M857 392L859 394M822 393L824 395M774 394L775 395M779 407L783 410M863 450L864 450M150 485C152.924 479.355 160.409 475.334 166 472.517C179.652 465.638 194.071 459.314 209 455.881C215.7 454.341 222.674 452.624 229 456M140 492C152.938 503.036 160.871 513.696 168.395 529C174.939 542.311 179.197 557.316 190.004 567.985C229.691 607.165 292.099 572.831 332 552.752C339.744 548.855 346.941 543.055 355 540M998 516L1000 516M992 519L1003 525M1026 539L1028 539M966 583L968 584M771 1482L765.5 1450L754.305 1408L745.561 1330L733.2 1279L720.576 1205L703.438 1146L690.305 1097L672.742 1053L664 1014C682.64 1006.97 702.962 1002.99 722 996.886C730.023 994.312 740.122 992.329 745.218 984.7C748.08 980.416 744.865 970.905 744.286 966C742.357 949.672 740.726 933.331 738.424 917C731.689 869.211 730.355 819.858 713.695 774C706.312 753.678 696.832 732.435 678 720.101C664.029 710.951 648.023 704.816 633 697.68C616.382 689.786 600.558 681.453 582 679.286C575.979 678.582 567.569 679.167 562 681.645C558.405 683.245 554.78 687.145 550.911 687.779C544.515 688.825 524.11 676.399 521 671C511.51 670.888 499.244 660.621 502.568 650C504.807 642.845 513.718 636.755 520 633.353C534.009 625.766 525.558 644.207 533.073 644.4C537.266 644.507 541.323 638.625 544 636.015C549.868 630.292 557.432 623.474 566 622.561C573.265 621.786 582.009 628.411 586.985 633.093C600.291 645.615 611.571 659.539 626 671M615 628L612 634L622 632M611 631L612 631M634 631L637 634L627 636M619 633L622 635M616 636L616 637M536 644C561.439 658.687 590.239 665.726 619 668M533 646L522 668L550 664.169L579 664M594 667C602.765 672.858 615.145 673.747 625 677.615C642.176 684.356 660.04 694.98 675 705.746C681.691 710.562 700.048 722.623 690 731M523 669L521 671M520 675C520.287 688.818 529.346 698.269 535.346 710C541.838 722.691 545.418 738.762 546.482 753C548.804 784.065 544.398 816.197 541.17 847C539.583 862.138 539.01 879.974 532.688 894C520.67 920.662 496.995 940.792 475 959.081C448.897 980.786 425.204 1000.98 395 1017M544 733C558.71 739.819 568.584 752.087 586 753.829C597.447 754.975 609.499 754.058 621 753.999C625.346 753.977 630.797 752.262 633.815 756.232C669.475 803.148 646.89 868.358 620.85 914C606.516 939.123 588.866 960.854 570.435 983C545.99 1012.37 519.912 1042.55 486 1061.33C448.745 1081.97 397.208 1091 355 1091C335.763 1091 316.088 1088.3 297 1089.04C283.678 1089.56 268.522 1092.25 257 1083.47C234.271 1066.15 235.509 1038.83 231.246 1013C226.423 983.77 216.49 955.471 208.576 927C203.42 908.453 201.265 889.727 197.486 871C190.023 834.011 178.66 795.981 202.205 762C220.884 735.043 253.002 719.768 281 704.138C293.609 697.099 305.563 687.945 319 682.475C324.899 680.074 333.718 677.685 340 679.653C353.664 683.933 353.877 701.226 347 711M554 688C574.629 700.822 594.857 712.07 612.985 728.925C619.716 735.183 629.609 743.474 631 753M550 689C554.024 697.452 564.297 703.63 571 710.039C584.213 722.674 598.186 736.491 608 752M549 692L540 716M921 707L921 711M918 712L918 713M932 716L926 720M690 731C680.065 740.508 667.759 749.547 654 752.482C647.729 753.82 641.293 752.502 635 754M611 755L626.576 791L640 864M777 792L781 792M640 873C649.486 890.113 645.842 915.16 648.289 934C651.668 960.015 663.459 985.792 664 1012M612 945C613.726 951.63 617.884 957.175 619.497 964C622.931 978.536 619.741 1002.05 634.105 1011.72C642.761 1017.54 654.382 1014.41 664 1014M613 952C613.058 959.04 614.537 965.923 613.829 973C612.698 984.32 608.569 994.421 610.615 1006C612.568 1017.05 618.406 1025.78 622.547 1036C628.147 1049.82 631.724 1065.24 633.711 1080C647.409 1181.68 660 1284.26 660 1387C660 1420.93 661.401 1454.98 660.996 1489C660.901 1496.99 659.519 1505.09 658.425 1513C658.075 1515.53 658.572 1520.15 655.682 1521.35C649.876 1523.77 639.077 1514.88 635 1511.54C618.484 1498 602.223 1489.57 582 1482.51C546.94 1470.26 511.701 1456.04 479 1438.31C460.436 1428.24 441.715 1416.47 430.464 1398C395.594 1340.76 413.73 1269.16 390.95 1208C382.76 1186.01 369.863 1163.52 363.924 1141C360.639 1128.55 362.685 1115.26 359.087 1103C353.881 1085.25 345.555 1059.5 360 1045M707 1014C711.977 1021.08 710.664 1029.02 713.13 1037C720.636 1061.29 725.051 1084.92 729.576 1110C731.093 1118.41 737.411 1135.2 731 1142C734.517 1153.89 732.998 1167.69 734.17 1180C736.925 1208.93 738.413 1238.05 741.17 1267C742.703 1283.1 748.629 1305.34 744 1321M364 1041L391 1021M712 1040C712.096 1074.75 726.454 1106.24 731 1140M747 1098L751 1097M735 1142C748.525 1214.85 764.452 1286.55 784.255 1358C789.892 1378.34 792.873 1399.52 798.265 1420C799.952 1426.4 800.451 1433.86 803.51 1439.81C809.336 1451.16 830.386 1452.63 840 1459.9C865.223 1478.96 877.257 1508.11 874.169 1539C873.509 1545.6 873.903 1552.97 871 1559C847.113 1545.19 845.855 1508.6 821 1497C818.2 1506.47 821.596 1518.62 823.87 1528C828.882 1548.67 837.7 1569.79 839.829 1591C840.371 1596.4 843.181 1607.95 839.972 1612.68C837.313 1616.6 825.721 1611.18 825.955 1617.15C826.395 1628.36 838.606 1645.6 847 1652C849.451 1643.71 848.453 1632.22 846 1624M754 1414C754.368 1431.84 758.19 1456.35 767 1472M779 1578C781.364 1590.73 781.028 1604.11 781.911 1617C782.285 1622.47 782.929 1628.81 779 1633C773.09 1617.22 771.263 1599.94 765.089 1584C756.199 1561.05 742.8 1539.09 737.349 1515C734.995 1504.6 734.6 1495.46 736.804 1485C737.383 1482.25 738.466 1474.31 742.95 1476.18C753.692 1480.65 750.608 1500.44 754.769 1508.99C760.977 1521.73 778.569 1521.9 784.772 1536C794.617 1558.37 779.334 1585.35 802 1603L799 1569C810.22 1573.36 812.7 1588.96 817.309 1599C819.601 1603.99 822.432 1608.45 823 1614L807 1609L813.985 1636L809 1673M820 1496L821 1497M424 1524L425 1524M781 1602L789.665 1621L807 1665M804 1604L806 1608M823 1614L825 1616M780 1635L780 1640M1 1782L4 1779C4.79418 1785.32 -0.534362 1792.27 9 1793" transform="translate(-577.122,-226.816) scale(0.970198,0.330436)"/></svg>