<svg xmlns="http://www.w3.org/2000/svg" xmlns:svg="http://www.w3.org/2000/svg" xmlns:sodipodi="http://sodipodi.sourceforge.net/DTD/sodipodi-0.dtd" xmlns:inkscape="http://www.inkscape.org/namespaces/inkscape" xmlns:xlink="http://www.w3.org/1999/xlink" width="210mm" height="297mm" viewBox="0 0 210 297">
  <sodipodi:namedview/><g inkscape:label="Ebene 1" inkscape:groupmode="layer" id="layer1">
    </g>
<path style="fill:none;stroke:#000000;stroke-linecap:round;stroke-width:5.0" d="M255 63L254 66C255.294 58.4441 266.167 52.7681 272 48.3743C288.984 35.5814 314.891 16.2521 337 29L309 42.9506L239 87M254 81C260.268 83.5358 267.521 80.2041 274 79.2855C296.436 76.1046 315.389 67.0032 336 58.1504C341.415 55.8245 358.759 51.1932 360.248 44.895C361.816 38.2673 348.992 33.897 346 29C366.173 23.0371 387.277 40.2305 403 50.4954C436.257 72.2073 459.804 109.484 474.4 146C480.02 160.062 485.378 173.804 486.83 189C487.833 199.497 484.892 208.771 484 219C505.061 210.561 507.222 173.004 506.996 154C506.91 146.756 504.901 133.951 497.74 130.001C492.889 127.326 475.351 132.189 470 134M337 29L346 29M348 33C342.579 36.5781 335.129 37.1329 329 35M358 38C368.184 35.5114 378.397 44.5123 386 50.0764C395.322 56.8986 404.126 63.3379 409.481 74C417.755 90.4712 413.747 116.966 405.73 133C390.58 163.299 345.876 175.755 314 174.985C306.698 174.809 300.146 171.2 293 171M257 65C271.31 56.6399 289.419 45.4855 306 43M495 127C489.112 121.856 475.922 113.341 474.982 105C474.225 98.2909 480.788 90.0793 484.428 85C494.169 71.4076 506.932 59.1072 521 50.0154C526.526 46.4442 534.21 42.4036 541 43.9675C547.898 45.5564 552.834 51.5679 556.844 57C568.908 73.3435 575.802 87.6228 563.481 106C559.207 112.374 546.158 123.755 546.596 131.896C546.782 135.369 551.398 137.273 554 138.691C562.116 143.114 570.351 147.531 578 152.746C581.467 155.11 584.5 157.72 587.112 161.015C604.485 182.922 583.834 198.164 568 214C581.081 229.908 579.875 248.136 574.845 267C572.515 275.738 568.38 284.758 569.094 294C569.746 302.444 575.651 310.023 579.939 317C588.466 330.874 599.383 345.307 604.226 361C607.58 371.868 608 383.712 608 395C608 399.286 606.271 407.871 608.313 411.643C609.793 414.375 616.295 413.396 619 413.716C627.726 414.747 638.608 416.34 646 421.512C660.441 431.618 676.574 438.571 691 448.721C713.796 464.76 735.605 485.124 756 504.089C776.454 523.11 792.979 545.494 795.829 574C797.284 588.551 792.207 603.43 787.667 617C775.297 653.967 751.708 692.237 722 717.7C698.998 737.415 670.724 746.989 645 762C653.126 776.24 635.508 799.217 629.312 813C619.693 834.398 621.778 851.682 624 874L639 875M176 53C157.803 84.5176 128.19 111.881 127.051 151C126.622 165.731 131.655 179.659 137.29 193C140.278 200.073 146.1 211.056 144.111 218.999C141.311 230.182 129.41 224.847 123.499 229.643C118.849 233.416 120.101 241.436 115.527 245.522C106.261 253.8 106.889 227.231 106 224C115.252 219.331 126.567 215.215 137 215M253 65L216 92M274 148C265.189 153.416 245.432 164.038 235 162C249.903 140.844 278.185 126.845 303 122.001C311.298 120.381 324.394 118.941 332 123L313 129L335 147C336.864 142.816 338.132 136.343 342.213 133.697C345.624 131.485 354.364 134.436 354.364 139.055C354.364 143.896 347.304 147.972 344 150.599C329.978 161.75 317.482 162.641 301 166C299.268 158.431 287.667 142.995 291.212 135.225C293.752 129.659 306.712 128.683 312 128M332 123C354.135 123 374.714 131.076 396 136M501 130C522.268 129.086 539.624 133.731 552.702 152C558.056 159.479 561.676 170.342 556.258 178.999C550.731 187.833 539.231 192.334 531 198.144C513.6 210.427 497.13 222.922 483.054 239C476.139 246.899 465.739 262.684 468.333 273.996C470.229 282.269 485.89 286.763 493 288.974C505.291 292.798 519.221 291.551 531 295.951C539.141 298.993 545.166 305.434 552 310.522C557.033 314.268 565.536 318.227 566.771 325.015C568.28 333.314 564.427 343.561 561.138 351C551.28 373.298 531.453 390.984 514.17 407.576C464.835 454.937 421.777 502.996 356 527.053C337.624 533.774 317.1 543.184 297 540.714C291.796 540.074 286.788 538.847 282 536.688C251.784 523.069 256.195 489.508 239.525 466.001C228.323 450.203 206.844 442.679 193.035 428.911C184.693 420.593 184.597 409.19 178.061 400C175.706 396.689 170.189 392.587 172.086 388C174.676 381.739 182.701 378.38 188 374.922C196.828 369.161 206.161 361.495 217 360.184C227.975 358.857 238.26 364.125 249 364.787C254.823 365.146 260.665 362.394 266 360.425C269.408 359.167 274.796 358.912 277.012 355.736C279.867 351.644 280.949 343.874 281.704 339C282.493 333.903 282.905 329.115 282.285 324C281.458 317.186 280.101 311.07 276.64 305C255.801 268.444 205.366 266.628 171 283.809C160.383 289.116 149.354 297.089 140.001 304.365C135.361 307.974 131.815 311.374 137 316L136 309M312 131C311.554 141.377 311.167 153.82 306 163M483 220C474.296 234.269 443.239 233.566 431.015 224.696C418 215.252 406.658 187.894 412.108 172C415.306 162.675 424.29 154.495 432 148.761C443.001 140.579 454.045 137.352 467 134M128 147C159.046 143.076 182.71 165.9 178.816 198C176.485 217.205 160.219 235.718 150.872 252C142.586 266.434 138.847 282.861 131 297C125.064 280.79 136.664 263.174 137 247L125 256L117 246M336 147L342 152M122 260L126 262L127 261L124 256C116.781 263.417 102.538 252.312 94 249.86C91.1889 249.053 84.5162 248.486 83.9066 244.853C82.0497 233.784 103.377 230.081 104.717 221.867C105.732 215.642 99.8211 206.302 98.6119 200C94.4146 178.125 101.436 151.832 127 148M264 155C261.082 161.938 245.048 177.495 249.212 185.681C251.275 189.736 257.903 186.668 261 185.895C272.899 182.925 284.749 180.194 297 179.174C322.082 177.085 351.411 190.898 375 198.117C385.334 201.279 396.465 204.227 402.532 214.001C422.803 246.659 411.876 285.33 399.184 318C393.025 333.851 388.264 351.095 379.961 366C372.69 379.05 362.374 389.903 353.71 402C340.9 419.886 327.892 437.273 308 447.68C296.024 453.945 283.025 454.953 270 456.125C258.137 457.193 249.288 459.97 237 459M230 165L234 163M301 166L296 170M568 215C564.193 220.648 560.924 235.45 555.697 238.821C549.842 242.597 529.017 238.055 530.737 228.999C533.208 215.99 557.543 200.272 567 213M145 223L138 246M479 226C475.796 240.005 461.981 253.01 453.285 264C448.884 269.563 445.013 275.351 442.461 282C441.071 285.62 440.946 290.58 438.411 293.61C431.619 301.726 411.895 310.378 402 314M107 229L117 244M119 260C103.931 275.397 106.456 294.308 109.271 314C114.859 353.095 126.215 391.375 159 415.623C167.795 422.127 187.905 438.14 199 437M131 298L133 308M129 304C129.003 329.901 142.654 349.037 157.627 369C166.229 380.471 175.932 392.433 189 399.03C218.986 414.168 243.383 405.641 262.421 379C266.788 372.889 272.295 366.432 274 359M137 316C147.486 325.237 165.716 348.641 182 343C175.9 329.928 157.978 320.609 144 320M273 455C292.466 439.705 312.077 431.528 314.829 404C316.149 390.799 314.598 375.178 313.049 362C312.624 358.379 308.072 350.472 309.878 347.43C312.834 342.449 327.72 341.384 333 340.207C346.977 337.09 361.716 333.955 375 328.548C382.669 325.426 389.976 319.836 398 318M222 449C229.676 449.331 240.802 455.466 248 453.066C256.791 450.135 265.633 437.588 271.91 431.015C284.516 417.814 301.414 405.832 302.816 386C303.174 380.932 301.057 375.917 300.069 371C298.424 362.805 295.377 359.083 289 354L307 348M278 356L289 354M592 415L607 414C604.793 439.307 589.33 457.761 579.312 480C566.5 508.44 556.669 546.699 558.039 578C559.152 603.401 560.942 634.19 575.598 656C579.047 661.133 587.016 673.947 593.906 674.319C600.346 674.668 602.096 658.452 602.996 654C607.102 633.705 606.614 606.849 600.492 587C587.734 545.64 548.7 539.69 511 538.039C496.848 537.42 465.155 537.633 457.453 522.985C449.933 508.685 460.536 492.865 463 479C454.41 480.148 447.457 488.239 442.721 495C430.872 511.92 427.429 533.297 422.764 553C418.569 570.719 410.258 587.431 405.425 605C395.523 640.998 391.108 675.98 395.714 713C398.574 735.986 408.961 766.005 434 774C436.408 758.808 424.051 745.371 421.465 731C415.747 699.231 433.768 671.336 455.001 650C462.411 642.554 469.239 634.689 476.428 627.059C479.068 624.257 482.289 622.195 485.606 625.323C493.391 632.661 485.826 643.216 482.811 651C475.421 670.078 463.973 696.189 486 708.713C520.991 728.607 564.15 718.575 601 729.439C620.717 735.252 629.885 750.427 645 762M649 422C667.9 422.864 689.842 435.996 705 446.456C736.582 468.25 769.592 491.779 789.127 526C793.646 533.916 797.661 543.124 799.765 552C801.334 558.614 801.15 566.916 804.438 572.911C814.544 591.333 837.353 606.03 843.454 626.089C845.973 634.372 842.069 644.764 841 653L847 652L844 644M251 453L260 457M464 478L463 479M798 543C801.382 536.907 802.927 529.505 805.604 523C814.224 502.056 838.774 469.286 863 486.637C867.266 489.693 870.947 493.835 874.1 498C889.232 517.987 875.92 541.653 866.247 561C862.152 569.191 856.108 578.438 858.195 588C865.664 622.214 896.708 648.74 904.764 683C912.869 717.469 888.195 745.629 889.015 779C889.426 795.744 897.882 810.362 902.562 826C909.694 849.835 914.872 875.134 915.961 900C917.656 938.709 904.755 999.636 856.004 1002.81C839.942 1003.85 849.525 973.792 851.21 966C857.958 934.784 873.269 909.162 865.985 876C862.699 861.041 853.457 845.046 836 848C839.24 852.92 844.825 858.508 842.396 864.985C840.508 870.018 834.663 871.57 830 872.848C816.496 876.55 802.687 879.829 789 883.255C779.612 885.604 769.513 887.08 760 884.761C755.245 883.602 748.8 877.962 744 879.159C730.671 882.483 717.597 894.281 704 898.921C679.403 907.315 641.244 897.144 626 876M804 576C804 597.402 811.485 618.421 824 636C805.675 652.624 811.693 672.88 822.869 691C826.187 696.38 837.04 706.805 834.505 713.866C833.041 717.944 826.598 718.692 823 719.629C811.898 722.52 802.046 724.428 792 730M841 623L824 635M823 637C827.61 643.047 831.993 659.51 841 653M847 652C860.528 651.371 852.088 661.06 849 668M847 654L849 665M837 657C836.516 671.923 819.593 663.413 832 656M836 664C840.205 669.457 841.478 675.723 844.014 682C850.184 697.276 856.818 715.449 857.975 732C859.394 752.303 858.593 772.59 858.903 793C859.055 803.045 863.707 808.168 857.147 818C839.028 845.155 790.629 837.819 764 831.884C752.021 829.215 740.863 827.24 733.688 816C726.026 803.996 736.543 788.254 742.811 778C759.609 750.521 777.938 728.502 802.896 708.135C810.112 702.247 811.093 694.68 821 692M831 703L803 722M643 762C628.15 771.405 608.124 775.556 591 778.435C555.08 784.475 518.44 784.43 482 783.996C472.309 783.881 461.458 783.491 452 781.255C448.209 780.358 441.065 776.567 437.318 777.789C433.178 779.138 434.106 793.234 433.334 797C429.206 817.138 424.317 836.458 422.91 857C422.116 868.606 421.299 880.375 421.015 892C420.902 896.587 422.394 903.534 420.548 907.787C419.149 911.008 414.682 912.641 412.286 915.105C406.917 920.628 402.87 927.15 399.435 934C395.272 942.302 391.001 951.628 390.174 961C387.645 989.696 414.468 1010.94 434 1027C428.592 1031.37 415.774 1033.74 413.662 1041.02C410.831 1050.77 426.037 1051.09 430.7 1054.6C439.672 1061.35 445.868 1077.57 448.964 1088C454.07 1105.2 450.435 1124.34 456.926 1141C475.138 1187.74 528.241 1217.78 576 1226C576.09 1216.63 569.745 1200.1 562.517 1193.87C558.619 1190.51 551.537 1190.22 547 1187.63C541.384 1184.44 537.903 1178.76 532.66 1175.39C526.245 1171.26 518.516 1170.3 512 1166M435 775L435 776M751 818L780 794.286L797 783.683L812 789.551L839 781.394L858 795M757 814C767.712 816.29 783.543 808.331 794 805.424C813.534 799.995 833.483 800.051 853 795M745 878C769.273 855.843 803.205 834.904 836 848M832 849C829.044 859.412 824.106 865.914 816 873M739 874L744 878M685 1090C689.149 1096.29 688 1103.74 688 1111C688 1127.54 687.42 1144.78 683.883 1161C682.304 1168.24 682.184 1176.1 676 1181C672.31 1168.16 679.782 1154.44 668.895 1143.04C659.007 1132.69 637.366 1134.32 631 1121C649.251 1114.77 671.919 1105.42 684.455 1089.83C706.629 1062.25 709.766 1023.94 712.089 990C713.121 974.935 714.665 957.213 708.084 943C701.45 928.672 679.481 912.746 665 906.974C655.369 903.136 639.962 920.203 631 923.519C624.209 926.032 617.923 922.406 611 923.615C592.16 926.906 561.292 940.762 543 931C547.659 923.962 553.943 918.733 560 912.961C576.07 897.649 599.483 875.21 623 875M611 879C602.391 886.128 588.758 892.702 586.358 905C585.314 910.352 591.607 916.897 596.775 913.242C601 910.255 601.455 903.527 603 899C613.186 902.906 631.855 908.735 625 923M842 883C842.009 898.298 837.588 905.441 831.7 919C824.122 936.449 817.335 957.923 816.09 977C814.297 1004.47 842.514 1026.3 852.572 1050C859.289 1065.83 852.087 1079.87 852.455 1096C852.858 1113.64 864.161 1129.11 872.576 1144C876.109 1150.25 878.866 1157.92 884 1163C887.212 1152.13 889.733 1128.61 885.045 1118C879.74 1105.99 867.68 1095.69 860 1085M422 908C436.765 906.144 441.84 916.042 449.576 927C465.143 949.052 473.397 978.137 470.83 1005C469.899 1014.75 464.565 1034.72 472.419 1042.58C479.935 1050.1 493.031 1045.04 501 1041.22C523.838 1030.25 550.394 1014.29 576 1011.18C579.262 1010.79 582.769 1010.88 586 1011.46C610.956 1015.96 601.898 1040.32 592.522 1056C586.991 1065.25 583.108 1074.94 577 1084M422 911C422.53 923.316 425.701 938.077 431.489 949C438.222 961.705 448.358 972.824 452.076 987C458.318 1010.81 453.102 1036.64 458.884 1061C465.581 1089.22 477.705 1119.31 496.011 1141.96C504.576 1152.56 516.69 1159.57 525 1170M792 1025L799 1030C798.484 1023.18 795.033 1022.19 789 1024C776.107 999.699 758.319 981.654 742 960L761 956.332L789 946.127L830 920M634 925C637.133 925.907 642.2 926.649 644.212 929.499C646.434 932.646 643.514 939.437 643.17 943C642.494 949.987 643.594 957.591 646.518 964C652.949 978.092 668.947 985.33 674.441 1000C684.555 1027 677.299 1057.48 686 1085M623 926L602 938M735 954L742 960M443 985C448.411 1001.26 443.747 1012.31 434 1026L446 1031M442 988L430.028 998.563L423 1017M422 993L407 1001M411 1000L409 1004M406 1001L387 1021L406 1016.13L422 1017M384 1023L386 1022M577 1227C581.208 1235.85 585.957 1245.74 593.174 1252.56C614.604 1272.82 646.875 1268.38 670 1253.77C682.437 1245.92 691.355 1233.54 700.13 1222C713.027 1205.04 726.02 1187.77 736.231 1169C741.116 1160.02 748.662 1149.87 751.393 1140.01C753.167 1133.61 743.23 1125.07 740.826 1119C735.482 1105.51 733.019 1086.96 737.348 1073C744.584 1049.67 762.781 1029.01 787 1024M800 1031L801 1034M500 1095L509 1098C498.354 1103.1 479.306 1083.02 474 1075C478.468 1072.84 483.414 1072.58 488 1070.67C516.619 1058.71 558.649 1045.09 588 1061M489 1089L516 1081.3L553 1064.45L576 1058M591 1062C603.991 1069.51 608.424 1082.09 616 1094L619 1083M661 1624C650.683 1619.87 641.602 1612.9 631 1609.3C621.501 1606.07 610.839 1606.5 601 1605.13C594.637 1604.25 579.988 1604.21 575.854 1598.78C570.827 1592.17 568.853 1580.94 570.749 1573C571.785 1568.66 576.381 1560.43 574.071 1556.21C568.926 1546.81 536.12 1542.72 542.519 1529C553.032 1506.47 575.735 1494.86 595 1481.14C604.474 1474.4 615.986 1468.99 619.56 1457C623.95 1442.27 613.162 1428.48 605.515 1417C602.069 1411.83 596.702 1404.6 597.472 1398C600.632 1370.94 627.933 1352.56 636.76 1328C642.898 1310.92 630.975 1298.95 632 1283C636.871 1284.89 640.739 1290.11 646 1290.68C650.698 1291.19 655.346 1288.47 660 1288.09C678.116 1286.64 688.186 1290.44 700 1304C702.929 1298.72 703.281 1292.55 705.677 1287C710.229 1276.46 717.223 1266.85 724.463 1258C735.511 1244.5 755.236 1231.05 761.907 1215C767.048 1202.63 767.772 1188.85 771.289 1176C772.58 1171.28 777.071 1166.7 777.473 1162C777.881 1157.23 773.996 1151.83 773.3 1147C771.799 1136.59 773.763 1123.91 777.076 1114C783.446 1094.94 795.297 1068.7 820 1076C815.226 1088.22 799.669 1097.34 791.761 1108C779.541 1124.47 785.149 1157.02 802 1169L808.499 1153.33L826.7 1139.8L842 1126C843.053 1129.91 842.117 1131.51 839 1134M616 1094L619 1121L631 1121M620 1094L628 1120M510 1099L523 1100M615 1102C613.86 1107.53 606.697 1128.03 619 1121M865 1115L861 1120M859 1119L846 1130L852 1138C843.957 1147.45 831.307 1160.66 819 1164M887 1120C899.269 1124.64 913.13 1131.28 922 1141M533 1175C545.235 1161.6 555.316 1147.41 571 1137.44C582.572 1130.09 596.872 1126.4 610 1123M617 1123C621.853 1126.53 628.4 1128.74 634 1126M617 1125C615.949 1147.94 590.245 1175.06 568 1178.56C556.368 1180.39 546.283 1176.52 535 1176M861 1129L843 1159C852.425 1159.62 856.631 1150.07 857 1142M844 1130L846 1130M841 1133L848 1136M652 1136C653.996 1142.59 648.249 1149.9 645.8 1156C638.934 1173.11 630.792 1198.97 610 1203.48C602.387 1205.13 594.37 1202.67 587 1200.87C584.141 1200.17 579.164 1197.75 576.322 1199.21C573.098 1200.87 574.706 1208.75 573 1212M852 1138L856 1140M920 1140C911.827 1144.53 896.089 1145.57 892.176 1156.09C890.556 1160.44 901.483 1173.43 903.752 1178C908.299 1187.16 907.309 1194.88 909.727 1204C911.264 1209.8 915.861 1213.8 918.443 1219C922.283 1226.73 922.975 1235.38 929.105 1241.98C946.951 1261.22 972.956 1265.72 969.83 1298C968.154 1315.31 955 1329.32 939 1335.29C929.49 1338.84 918.717 1339.59 910 1345C914.54 1349.6 921.041 1351.45 925.917 1355.81C929.362 1358.88 930.735 1363.3 933.39 1367C936.432 1371.24 940.947 1375.43 938.567 1381C933.027 1393.98 914.258 1402.14 901 1399.33C896.953 1398.47 880.352 1389.25 878.546 1394.19C877.482 1397.1 879.805 1401.2 880.522 1404C882.474 1411.63 884.881 1420.21 885.816 1428C886.975 1437.66 883.367 1447.34 883.129 1457C882.946 1464.38 885.422 1471.52 884.911 1479C884.497 1485.04 881.8 1494.2 883.55 1500C886.772 1510.68 908.778 1523.24 900.852 1535.99C891.663 1550.76 871.171 1554.46 857.278 1562.5C854.369 1564.18 853.477 1567.97 850.867 1570.12C843.64 1576.09 833.216 1579.62 824 1580.71C813.758 1581.93 799.246 1575.11 790 1578.92C774.135 1585.46 769.566 1608.3 778.768 1622C785.322 1631.76 798.181 1639.1 808 1645.19C818.573 1651.75 829.27 1659.67 841 1664M843 1159C837.073 1164.81 831.74 1167.19 824 1163M885 1164C886.868 1176.47 893.989 1188.05 890 1201M836 1166C834.954 1171.89 829.888 1178.82 831.333 1184.91C832.6 1190.25 839.81 1195.46 842.961 1200C849.768 1209.8 852.693 1222.26 850.714 1234C847.424 1253.52 832.959 1268.24 819.715 1281.83C813.045 1288.68 802.601 1297.48 799.893 1307C796.622 1318.5 811.308 1327.64 819 1332.88C837.201 1345.27 857.806 1353.05 880 1350.83C890.188 1349.81 899.731 1345.09 910 1345M676 1181C674.535 1215.04 656.025 1249.96 617 1240.5C609.127 1238.59 596.993 1234.08 590.039 1229.91C585.428 1227.15 582.988 1222.33 578 1220M609 1236C622.958 1231.87 635.239 1229.72 647 1219.7C656.071 1211.97 663.525 1197.12 674 1192M565 1195L574 1198M915 1215C907.463 1224.86 898.681 1226.52 888 1231.31C883.168 1233.48 878.628 1236.87 874 1233L892 1221.79L909 1207M870 1218L875 1232M580 1229L586 1229M627 1276L632 1283M700 1304L700.741 1323L698.691 1337.66L704 1338C711.299 1348.71 715.416 1361.88 722.694 1373C726.13 1378.25 729.973 1383.34 734.171 1388C737.806 1392.04 742.948 1399.39 748.089 1401.4C765.816 1408.32 772.809 1383.21 771.91 1371C769.516 1338.52 730.742 1325.96 705 1338L701 1326M842 1356L865.907 1378L879 1390M930 1359C936.228 1360.25 941.13 1365.12 946 1369C958.779 1379.2 972.8 1393.69 977.076 1410C979.29 1418.45 977.551 1427.72 980 1436C984.319 1432.83 987.579 1428.48 992.001 1425.39C993.853 1424.1 995.802 1423.21 998 1422.69C1022.97 1416.74 1007.68 1455.44 1025 1456M876 1390L876 1393M847 1511C833.232 1512.2 821.653 1514.14 808 1509.64C779.977 1500.41 769.394 1469.04 772.715 1442C773.646 1434.42 774.146 1425.21 779.532 1419.21C784.829 1413.32 793.68 1412.26 801 1410.8C825.266 1405.95 852.926 1415.13 863.687 1439C869.414 1451.7 870.434 1470.16 864.198 1482.94C858.485 1494.65 849.354 1504.76 845.707 1518C842.222 1530.65 843.741 1554.03 855 1563M630 1414C646.086 1418.52 661.879 1422.04 678 1416M652 1420L659 1441M666 1420C675.853 1428.1 691.147 1440.47 704 1442.56C712.843 1444 724.7 1434.21 731.775 1440.43C736.051 1444.2 735.019 1449.92 735.001 1455C734.951 1468.73 731.087 1482.88 721.556 1493.17C703.383 1512.78 670.261 1519.54 646 1528.58C639.881 1530.86 630.513 1530.96 625.34 1534.85C619.466 1539.27 618.053 1550.8 614 1557C624.999 1559.03 625 1545.5 625 1538M857 1485C850.686 1484.5 844.363 1482.68 838 1483.09C821.929 1484.14 805.61 1490.63 791.015 1480.25C777.336 1470.51 778.587 1441.92 790.499 1430.65C794.316 1427.04 802.052 1427.19 807 1426.42C821.908 1424.11 836.556 1421.28 847.61 1435.01C860.716 1451.3 855.009 1468.99 859 1487M658 1436L662 1430C667.706 1434.83 672.982 1433.64 680 1433M981 1436C974.184 1448.77 986.722 1468.07 994.414 1478C997.892 1482.49 1006.8 1489.05 1012.39 1483.4C1017.9 1477.83 1016.62 1463.19 1017 1456M716 1443C719.207 1445.29 723.007 1447.08 725.606 1450.1C733.461 1459.25 726.835 1469 729 1479M979 1449C967.685 1470.09 980.217 1506.01 997.17 1520.47C1005.87 1527.89 1018.26 1529.2 1024.25 1540C1029.34 1549.2 1023.22 1555.76 1023 1565M992 1472L1016 1458M1005 1466L1013 1477M1018 1469C1021.26 1472.15 1031.22 1473.97 1032.79 1476.6C1036.27 1482.47 1024.79 1491.45 1028.14 1499C1032.97 1509.88 1044.87 1516.61 1051.7 1526C1062.35 1540.64 1069.94 1562.16 1072.7 1580C1076.08 1601.81 1074.88 1625.69 1069.27 1647C1063.87 1667.45 1052.88 1692.63 1055.17 1714C1057.44 1735.11 1074.85 1748.42 1082 1767M1004 1486C1010.48 1500.54 1025.37 1513.12 1033.94 1527C1045.35 1545.5 1053.07 1574.45 1055.07 1596C1056.15 1607.57 1061.36 1627.09 1049.79 1635.25C1043.52 1639.68 1034.53 1632.77 1028 1632.08C1013.28 1630.51 1000.14 1634.75 986 1638.64C971.736 1642.56 962.128 1657.95 947 1658M864 1487L882 1499M726 1491C725.925 1500.01 725.082 1514.19 720.146 1521.96C716.431 1527.81 709.088 1531.59 704 1536.17C696.22 1543.17 689.371 1551.51 683.29 1560C678.962 1566.04 669.981 1585.28 661.985 1585.68C656.205 1585.96 649.535 1582.61 644 1581.15C628.239 1577 613.175 1572.74 598 1566.68C590.583 1563.72 583.942 1558.42 576 1557M884 1502C880.111 1508.74 879.092 1516.93 875.677 1524C870.07 1535.61 860.226 1545.48 850 1553M625 1524L624 1533M614 1558C598.759 1565.02 569.196 1547.92 560 1536C563.36 1534.05 574.633 1528.01 578.012 1531.64C582.667 1536.64 579.391 1547.07 589 1548.27C599.493 1549.57 611.021 1536.96 622 1536M790 1578C786.878 1575.91 778.487 1574.19 777.921 1569.9C777.391 1565.87 783.275 1562.28 786 1560.29C795.721 1553.18 807.814 1548.2 820 1549.09C829.082 1549.76 837.884 1554.9 847 1554M1056 1612C1051.14 1609.48 1049.12 1603.91 1044 1601.59C1038.96 1599.3 1035.8 1603.17 1031.04 1602.77C1026.3 1602.36 1023.14 1596.59 1018 1595.78C1007.64 1594.14 992.791 1604.67 985.17 1610.71C973.073 1620.3 963.794 1635.65 950.911 1643.93C947.398 1646.18 938.518 1650.44 934.618 1647.05C932.136 1644.89 934.138 1640.48 935.015 1638C937.869 1629.94 943.692 1623.47 949.08 1617C960.54 1603.24 976.101 1590.71 984.928 1575C988.397 1568.83 977.877 1562.2 982.376 1557.7C986.013 1554.07 993.248 1553.6 998 1552.69C1009.13 1550.54 1016.9 1547.12 1024 1558M608 1560L603 1568M798 1577C812.698 1568.52 835.498 1568.68 852 1564M578 1602L584.275 1615.97L605 1619.29L657 1624M584 1617C584.171 1637.41 602.129 1637 618 1637M1057 1630C1057 1644.54 1049.19 1675.89 1034 1681.85C1027.02 1684.59 1019.62 1681.71 1013 1679.3C1000.51 1674.77 988.461 1669.07 976 1664.42C969.245 1661.91 962.034 1661.11 956 1657M599 1637C599.001 1647.23 599.433 1660.05 604.995 1669C615.17 1685.37 643.166 1690.7 661 1691C706.925 1691.77 749.123 1684.61 793 1670.75C806.672 1666.42 823.308 1668.36 836 1663" transform="translate(-577.122,-226.816) scale(0.92815,0.334074)"/></svg>