<svg xmlns="http://www.w3.org/2000/svg" xmlns:svg="http://www.w3.org/2000/svg" xmlns:sodipodi="http://sodipodi.sourceforge.net/DTD/sodipodi-0.dtd" xmlns:inkscape="http://www.inkscape.org/namespaces/inkscape" xmlns:xlink="http://www.w3.org/1999/xlink" width="210mm" height="297mm" viewBox="0 0 210 297">
  <sodipodi:namedview/><g inkscape:label="Ebene 1" inkscape:groupmode="layer" id="layer1">
    </g>
<path style="fill:none;stroke:#000000;stroke-linecap:round;stroke-width:5.0" d="M391 12C426.325 52.4659 460.597 96.5514 480.55 147C494.95 183.408 499.964 224.261 499.015 263C498.417 287.389 496.325 316.056 487.385 339C476.508 366.915 457.058 390.112 442.424 416C436.18 427.046 435.355 440.595 429.097 451C423.801 459.806 417.793 469.382 410.896 477C406.679 481.658 399.21 486.815 397.161 492.981C394.82 500.03 415.152 505.727 420 507.14C429.931 510.036 439.338 514.319 449 517.95C452.034 519.09 457.391 520.318 458.122 524.105C459.487 531.18 446.214 543.111 442.08 547.996C437.195 553.77 429.393 561.779 421 560.584C364.906 552.602 365.25 480.646 359.711 438C358.357 427.579 355.169 417.22 352.765 407C351.901 403.322 349.481 397.84 351.198 394.134C354.032 388.013 368.171 386.831 374 385.373C400.05 378.861 430.562 383.383 452 401M670 86C714.839 93.7208 744.152 143.887 768.895 177C795.296 212.331 822.329 253.453 833.101 297C843.197 337.812 840.086 379.952 829.505 420C820.019 455.902 797.486 492.623 779.694 525C757.401 565.571 727.792 602.342 699.765 639C688.592 653.615 667.875 671.114 669.897 692C670.469 697.904 678.153 703.372 681.51 708C687.693 716.523 692.142 727.257 696 737M796 215C808.576 203.424 824.362 191.059 841 186.144C844.329 185.161 857.535 179.441 858.508 185.152C859.674 191.987 852.629 198.842 848 202.671C834.869 213.535 817.31 217.542 804 228M795 215C784.337 223.654 774.046 232.615 764 241.975C759.6 246.075 753.585 249.629 753 256L755 254M756 255L801 229M752 255L729.055 275.015L718 288C718.71 283.404 720.829 280.969 725 279M722 281L724 283M721 287C729.178 293.664 735.557 302.04 744 308.475C768.507 327.155 795.594 341.738 813.251 368C822.437 381.663 825.178 395.756 830 411M717 289L699 322C714.304 325.644 731.289 319.327 746 326.328C758.419 332.238 761.189 354.281 752.762 365C737.595 384.291 719.273 400.727 702 418C693.242 426.758 682.595 435.769 677 447C682.348 447.794 687.55 445.15 693 445.015C706.801 444.671 720.21 445.364 734 443.714C744.718 442.433 759.216 441.388 767.852 449.39C773.197 454.344 770.456 462.684 770.025 469C768.954 484.674 763.233 501.12 758.329 516C756.386 521.897 754.001 529.191 747.96 532.03C732.519 539.288 712.436 521.595 699 516C692.275 535.86 687.207 556.203 679.947 576C674.908 589.74 667.113 602.604 664.015 617C660.966 631.167 669.161 649.323 686 640M859 670C869.128 667.755 884.571 670.48 895 671.714C906.378 673.061 918.03 673.816 929 677.522C951.974 685.284 959.26 703.85 958.996 726C958.635 756.409 944.114 786.964 951 817C940.678 815.159 931.192 807.268 923 801.127C903.412 786.442 885.298 765.56 861 758.746C852.256 756.294 840.934 754.194 832.001 756.789C829.052 757.646 822.786 760.573 824.998 764.69C826.614 767.698 832.065 767.83 835 767.961C843.997 768.362 853.355 768.7 862 771.52C874.1 775.468 882.98 783.433 893 790.845C905.358 799.987 919.277 808.495 926 823C910.152 828.234 886.943 820.012 872 814.424C837.316 801.456 805.859 788.575 777 764.923C769.052 758.409 761.09 753.464 755 745C764.06 740.452 774.66 738.968 784 734.691C811.799 721.963 844.791 697.835 859 670C842.756 667.755 815.345 673.246 804.819 656.996C800.726 650.677 802.502 643.832 804.014 637C807.543 621.05 815.479 606.27 823.114 592C854.624 533.109 900.351 484.467 933.858 427C947.697 403.265 959.764 377.667 966.63 351C968.08 345.367 970.593 326.167 977.059 325.152C985.997 323.748 996.921 328.289 1006 328.911C1043.76 331.497 1075.18 335.266 1108 356.053C1120.36 363.881 1139.64 375.648 1139.98 392C1140.4 411.648 1123.19 428.578 1111.8 443C1082.54 480.062 1036.98 502.211 991.015 509.734C979.951 511.544 970.976 517.425 959 515.7C949.669 514.355 944.101 508.71 936 505M1 358C24.2543 348.332 43.3638 342.862 68 351.001C71.6284 352.199 93.399 358.521 89.2485 364.505C85.4746 369.945 69.1616 371.822 63 373.579C42.7753 379.345 19.5617 384.996 2 397M454 400C462.753 407.198 474.591 410.372 481.351 420.001C496.367 441.387 486.947 475.698 484 499C489.003 499.943 500.703 500.922 502.172 507.21C503.437 512.622 494.678 523.193 493.232 529C486.214 557.182 456.44 573.682 448.441 601C444.913 613.048 457.518 621.518 465 629C477.283 641.283 494.79 662.89 491.667 682C489.268 696.685 473.978 709.438 463 717.986C440.823 735.255 414.078 747.753 390 762.2C380.47 767.918 367.222 773.513 360 782L378 776.799L413 761.684L432 753M829 422C832.41 428.389 830.419 435.113 830.036 442C828.858 463.142 822.901 484.087 816.079 504C801.914 545.345 782.232 580.884 757.656 617C746.272 633.729 722.829 654.849 721.093 676C718.574 706.7 736.066 723.311 755 745M677 447L674 450M1 488C12.6724 484.084 23.677 477.718 35 472.873C61.2725 461.63 91.634 453.252 120 449.845C131.593 448.452 143.707 446.128 155 450.467C169.706 456.117 177.808 468.435 184.36 482C187.919 489.371 190.645 496.751 191 505C165.834 502.422 145.262 480.694 121 475.518C109.348 473.032 96.188 476.426 85 479.579C55.8541 487.794 23.808 503.597 3 526M671 503C675.579 504.319 679.603 506.753 684 508.548C695.282 513.154 703.403 506.993 694.664 496C689.106 489.01 682.743 483.75 675 479.336C668.227 475.475 659.586 472.355 656 465L688.941 461.772L697.059 456.663L722 465M707 460C702.55 462.375 697.762 462.657 693 461M695 463L706 495C710.328 490.633 706.547 486.384 706.971 481C707.273 477.176 709.501 473.832 710 470M707 463L710 463M649 464L656 465M709 475C717.052 482.612 727.038 482.264 736 476M729 482C723.883 486.897 714.396 498.832 707 495M8 524C48.0661 508.545 93.8521 505.363 131 483M140 485C138.484 493.806 133.143 498.675 129.266 506.089C119.878 524.045 114.759 540.241 100 555M425 488C436.576 490.388 447.962 492.639 456.815 501.213C476.862 520.63 455.643 559.345 443 577M447 491L483 500M708 499L701 507M861 667C873.594 651.077 887.024 630.91 892.104 611C895.897 596.134 893.628 574.326 903.529 562.039C914.582 548.324 941.924 542.644 958 536.576C1011 516.572 1069.39 499.844 1126 500M483 500C482.184 517.853 467.211 546.358 456 560M939 505L985 509M191 505L193 507M1011 506C1021.35 511.517 1043.19 505.507 1055 505M95 538C99.3847 528.169 117.661 508.902 128 506M699 511L698 515M695 512L698 515M26 596L24 599C26.3357 585.917 66.0911 583.436 45.9961 569.043C44.1068 567.69 42.1011 566.402 40 565.402C36.0736 563.533 31.8194 563.117 28 561L35 535C41.2364 536.427 46.318 541.264 53 540.89C66.5262 540.134 81.4284 522.354 91 514L95 535M26 598C36.9599 594.012 46.8465 587.518 58 583.745C95.8497 570.942 136.057 560.594 169 537C170.93 544.638 167.455 553.741 164.996 561C157.447 583.287 133.903 603.157 114 614.573C105.545 619.422 96.0176 622.471 88 628C100.289 634.592 119.785 631.686 130.562 641.703C134.552 645.411 131.069 651.814 129.667 656C125.225 669.26 115.338 678.967 105 688C101.274 675.03 108.392 661.89 97.7863 650.043C86.8856 637.867 63.4818 640.435 49 642.921C40.7401 644.338 33.1699 649.963 26 643C31.2953 641.435 37.0897 641.38 42 644M1 549C2.43476 555.833 13.4413 571.041 21.892 569.172C24.9272 568.501 26.4834 564.343 28 562M12 562L25 562M16 618C11.6173 621.287 -3.35213 625.389 2.1983 614.089C5.34593 607.682 15.9684 602.361 22 599M3 622C8.08297 614.698 19.0682 602.142 29 604L19 615M2 623C2.73872 638.565 11.1921 641.709 26 643M7 624L4 627M11 625L88 628M81 629L58 641M5 635L13 640M685 643L681 658M130 669C126.292 675.364 126.645 681.995 125.115 689C120.887 708.362 113.482 730.985 122.493 750C127.465 760.491 140.177 768.757 143.967 779C146.999 787.196 127.872 796.76 133.071 805.581C137.356 812.851 161.414 808.751 169 810.015C176.781 811.313 180.521 819.686 187.17 821.022C197.351 823.067 213.55 814.693 223.09 812.313C239.058 808.331 258.226 812.459 272.996 803.157C287.425 794.069 283.12 773.162 284.09 759C284.483 753.259 286.772 746.119 282.566 741.213C275.731 733.239 259.828 731.47 250 731.039C227.346 730.047 199.872 727.672 181 742.518C171.776 749.774 163.849 759.194 156.156 768C152.766 771.881 150.513 777.546 146 780M145 669L145 671M710 753L716 757C710.884 760.914 698.7 766.45 692.089 764.718C687.561 763.532 682.791 758.366 679 755.637C667.756 747.54 657.467 738.483 647 729.424C642.094 725.179 625.76 715.993 625.737 708.996C625.721 704.269 631.422 698.362 634.3 695C646.347 680.925 659.249 677.058 675 669M96 772C86.2882 745.953 92.6441 722.463 106.15 699C110.86 690.816 117.491 679.543 126 675M151 691L152 692M152 697L152 700M150 712L150 713M147 726L147 728M146 731L146 735M753 744L721 758L766 787M145 753C144.61 762.087 144.244 768.297 150 776M427 758C425.564 765.42 419.646 771.07 415.285 777C409.706 784.588 405.444 792.601 401.247 801C399.578 804.339 397.316 815.019 394.4 816.799C391.1 818.813 383.52 815.102 380 814.463C368.505 812.376 356.686 810.999 345 811C306.278 811.003 268.135 825.775 230 831C218.016 832.642 196.214 835.805 189 823M717 758L721 758M689 764C685.318 765.965 674.057 764.323 672.171 767.603C670.416 770.657 675.328 778.751 674.671 783C672.806 795.05 664.988 807.463 657.761 817C645.561 833.1 622.558 833.366 609.529 847.329C603.735 853.538 602.329 864.16 599.748 872C598.909 874.55 597.115 878.834 598.502 881.44C601.075 886.271 615.826 890.961 621 891.7C633.469 893.481 643.817 884.955 653 877.887C663.512 869.797 674.713 862.818 685 854.386C693.716 847.241 701.764 837.706 714 841.17C735.281 847.194 754.424 861.942 773 873.388C800.603 890.397 828.962 906.303 857 922.576C868.206 929.079 879.442 935.391 891 941.248C893.708 942.62 900.819 945.526 899.539 949.686C898.466 953.169 890.76 951.962 888 952.514C876.249 954.862 863.393 956.538 852 960C871.056 987.985 850.542 1019.52 831.271 1042C796.538 1082.51 752.878 1096.64 701 1093.09C686.564 1092.1 672.064 1091.95 658 1088M697 766C708.297 773.974 723.905 776.791 737 780.72C745.102 783.151 753.429 786.378 762 786M149 780L156 788M360 782C351.593 788.908 339.469 794.985 329 798M102 786L110 799M113 803L120 809M124 812C144.931 821.019 160.926 824.577 184 822M951 817L959 823M1 850C21.4314 854.74 32.6474 876.079 40 894M597 884L604 943C597.156 939.636 594.985 931.506 591.909 925C583.796 907.838 580.712 890.907 575 873C583.575 870.648 589.397 877.483 597 880M41 897C47.0152 909.709 51.8862 923.907 53 938M244 998C231.219 1002.75 215.511 1012.09 202 1013.68C198.081 1014.15 187.874 1011.44 188.631 1005.96C189.182 1001.98 194.975 998.179 198 996.09C207.234 989.715 217.149 984.129 227 978.769C254.453 963.832 281.224 948.857 310 936.579C325.077 930.145 341.29 923.079 358 923.079C364.904 923.079 373.898 924.4 380 927.708C388.491 932.312 395.541 939.619 406 938.903C420.891 937.883 430.279 924.914 442 917.591C445.934 915.133 453.989 910.305 458.856 912.328C463.008 914.053 462.952 920.28 462.996 924C463.132 935.383 462.991 946.66 463 958C463.007 967.661 464.682 977.509 466.46 987C467.221 991.062 469.83 996.809 468.357 1000.9C466.173 1006.95 453.348 1008.62 448 1010.85C426.523 1019.79 402.939 1023.52 381 1031.41C347.763 1043.37 311.467 1048.03 279 1062M1 915C6.9308 961.928 31.2684 1013.01 71 1041C74.0753 1034.73 71.7131 1025.72 70.5864 1019C67.6139 1001.28 60.4288 983.954 59 966M54 941L55 947M605 944L607 951M56 951L56 953M57 955L58 964M778 961C770.907 964.786 761.832 963.696 754 964.039C739.355 964.682 724.607 967.718 710 969.075C703.223 969.704 696.03 970.725 690 967C696.794 963.234 706.337 962.716 714 961.579C737.638 958.07 759.612 960.654 783 961.957C806.001 963.238 829.041 960 852 960M679 969L690 967M71 1041C84.2213 1056.26 102.645 1070.03 121 1078.31C124.42 1079.85 134.849 1086.71 138.397 1084.76C141.925 1082.82 141.775 1066.1 142.662 1062C146.514 1044.21 155.449 1026.46 163.084 1010C164.872 1006.15 168.84 995.207 174.036 995.207C178.611 995.207 184.016 1003.99 187 1007C172.621 1023.87 164.022 1045.91 159 1067C166.826 1068.14 176.446 1061.29 183 1057.4C203.348 1045.29 232.221 1023.82 241 1001M454 1022C446.942 1046.5 435.494 1069.68 430.4 1095C428.993 1101.99 430.759 1120.65 425.682 1125.24C412.724 1136.95 394.595 1136.06 379 1139.85C365.194 1143.2 352.037 1149.09 338 1152C330.353 1153.59 323.788 1153.91 316 1153.55C314.217 1153.46 309.399 1154.36 308.921 1151.76C308.089 1147.24 324.093 1141.4 327 1138C320.413 1136.59 312.702 1139.91 306 1140.71C294.938 1142.04 280.91 1141.09 271 1135.88C251.153 1125.44 238.244 1107.69 221.985 1092.95C217.71 1089.07 205.636 1082.66 205.636 1076.13C205.636 1070.85 217.34 1070.16 221 1070M1 1042C5.01442 1062.63 17.9656 1082.94 26.6914 1102C39.6448 1130.29 53.1528 1164.32 58.5363 1195C66.7102 1241.58 62.0072 1295.44 49.8449 1341C45.0315 1359.03 35.2934 1375.92 31 1394L62 1399M328 1138C350.092 1125.11 370.686 1110.54 392 1096.33C402.555 1089.3 415.235 1083.25 424.867 1075.08C433.887 1067.42 432.654 1051.45 444 1045M73 1046L71.7145 1138L75.2099 1161L95 1186M271 1063L274 1063M263 1065L264 1065M1105 1066C1090.55 1086.07 1098.66 1116.89 1080.91 1136C1071.8 1145.8 1059.01 1151.38 1048 1158.67C1024.27 1174.37 1000.25 1190.34 974 1201.57C946.101 1213.51 912.546 1221.75 887 1238C892.589 1248.42 892 1263.45 892 1275C892 1298.07 891.772 1321.03 890.089 1344C885.486 1406.79 878.103 1469.32 871.831 1532C869.963 1550.67 868.613 1569.35 866.83 1588C865.826 1598.51 863.232 1610.55 865 1621C868.844 1618.04 868.493 1612.64 869.083 1608C870.274 1598.64 871.752 1589.3 873.389 1580C873.956 1576.78 877.205 1567.8 872 1569L871 1569L870 1569L869 1569M234 1068L243 1067M888 1235C883.922 1220.01 901.72 1213.27 913 1205.67C930.889 1193.61 949.105 1181.92 969 1173.43C981.816 1167.96 996.747 1165.08 1008.94 1158.43C1014.41 1155.44 1010.82 1150.5 1007.7 1147.09C999.044 1137.66 991.31 1133.02 997.338 1119C1015.89 1075.84 1060.32 1069 1102 1069M632 1081C646.099 1088.57 643.654 1107.89 645.166 1122C647.436 1143.19 654.59 1161.47 666.856 1179C671.713 1185.94 682.799 1199.36 680 1208L660 1190.46L621 1159M887 1121C870.567 1133.71 849.901 1141.56 832 1152.01C789.828 1176.63 744.856 1204.9 708 1237L761 1298C786.457 1282.67 814.262 1270.69 841 1257.74C855.221 1250.86 871.219 1240.36 887 1238M886 1124C883.208 1159.37 858.828 1185.12 836.339 1210.29C819.137 1229.53 801.912 1249.29 783 1266.91C769.965 1279.05 752.515 1290.87 743 1306L766 1304M340 1133C349.819 1133.08 367.452 1135.44 376 1140M405 1136C409.26 1139.07 418.072 1138.19 420.972 1142.43C424.106 1147.02 420.673 1155.06 420.171 1160C417.219 1189.03 385.851 1198.24 363 1208.54C344.194 1217.02 324.325 1225.46 304 1229.55C287.523 1232.87 270.705 1231.92 254 1232C239.704 1232.07 225.372 1233.89 211 1232.91C192.212 1231.62 174.455 1227.72 156 1225M104 1195L106 1197M116 1206L121 1208M681 1208C686.662 1214.96 692.69 1221.62 699 1228C701.168 1230.19 705.651 1233.47 705.23 1237C704.684 1241.57 697.227 1245.58 694 1248.25C683.64 1256.81 673.807 1265.84 664.001 1275.02C639.204 1298.24 617.156 1324.56 598.657 1353C591.043 1364.7 581.167 1378.74 580 1393L603 1382.86L645 1356.86L743 1307M151 1223L152 1223M760 1297L745 1304M762 1298L764 1303M31 1394L2 1398M29 1396C24.3775 1412.05 6.3208 1426.42 11.3032 1443.98C13.2707 1450.92 24.7489 1454.23 31 1455.76C48.2041 1459.96 78.7974 1464.25 94 1453C73.1898 1438.78 39.435 1433.04 15 1428M68 1402C80.4725 1405.45 89.9818 1414.91 98.9498 1423.72C102.511 1427.22 107.585 1431.6 107.762 1437C107.969 1443.33 102.31 1448.24 99 1453C131.32 1475.81 174.97 1484.81 211 1500.42C251.28 1517.88 287.314 1542.92 328 1559M2 1423L12 1428M95 1454L98 1454M390 1624C403.346 1622.95 416.579 1619.59 430 1619.22C433.789 1619.12 437.175 1621.04 441 1620.81C458.673 1619.77 475.635 1616.31 493 1614.12C499.751 1613.28 507.47 1614.18 514 1612.51C541.791 1605.36 570.246 1598.16 597 1587.55C649.62 1566.69 699.745 1540.26 752 1518.6C783.199 1505.67 813.92 1491.35 846 1480.67C858.749 1476.42 875.266 1470.62 887.891 1478.42C894.923 1482.76 891.174 1494.44 889.789 1501C886.962 1514.39 883.191 1527.6 880.45 1541C878.648 1549.81 878.276 1559.62 875 1568M4 1519C13.3396 1531.86 20.8086 1549 21.9105 1565C22.4476 1572.8 20.0256 1581.45 21.2693 1588.99C22.7022 1597.67 29.387 1605.89 31.331 1615C36.0565 1637.15 31.7129 1659.6 25.848 1681C23.0865 1691.07 19.1698 1703.08 11 1710C5.09 1698.9 6.29454 1689.03 6.96451 1677C8.4928 1649.55 17.5469 1622.32 21 1595M877 1566C898.086 1563.89 921.358 1551.98 942 1546.29C952.049 1543.53 966.208 1540.29 976 1545M2 1560L19 1585M516 1612C523.034 1615.76 531.31 1614.44 539 1615.17C558.188 1617 577.723 1618.54 597 1619.01C660.329 1620.57 723.446 1610.82 785 1595.63C812.13 1588.93 839.57 1575.05 867 1571M433 1619C447.238 1610.79 472.892 1613 489 1613M865 1621L861 1695M1142 1715C1140.22 1714.81 1138.68 1714.73 1137.1 1713.76C1125.61 1706.73 1146.77 1694.37 1147.54 1700.16C1148.16 1704.91 1142.55 1709.96 1142 1715M1142 1715C1143.93 1716.47 1146.41 1717.88 1147.4 1720.21C1151.11 1728.97 1140.75 1734.15 1140.04 1723C1139.9 1720.68 1140 1718.32 1140 1716" transform="translate(-577.122,-226.816) scale(0.891774,0.330569)"/></svg>