<svg xmlns="http://www.w3.org/2000/svg" xmlns:svg="http://www.w3.org/2000/svg" xmlns:sodipodi="http://sodipodi.sourceforge.net/DTD/sodipodi-0.dtd" xmlns:inkscape="http://www.inkscape.org/namespaces/inkscape" xmlns:xlink="http://www.w3.org/1999/xlink" width="210mm" height="297mm" viewBox="0 0 210 297">
  <sodipodi:namedview/><g inkscape:label="Ebene 1" inkscape:groupmode="layer" id="layer1">
    </g>
<path style="fill:none;stroke:#000000;stroke-linecap:round;stroke-width:5.0" d="M459 158C462.05 153.022 461.462 144.525 466.394 140.939C475.528 134.297 485.909 147.775 488.731 155C494.523 169.827 489.815 195.102 481 208C470.997 189.236 465.839 167.828 453.936 150C450.296 144.547 438.801 134.548 439.739 127.999C442.264 110.377 472.465 100.866 487 107.824C510.218 118.939 525.589 145.361 529.916 170C536.613 208.138 502.306 241.999 494.669 278C484.519 325.847 498.656 376.394 508.789 423C513.075 442.718 514.918 466.908 524 485M745 193C763.49 176.859 783.7 163.002 805 150.851C810.663 147.62 817.417 146.164 822.871 142.865C828.637 139.377 832.76 133.695 839 130.398C894.759 100.937 966.985 96.3553 1020 134M414 110C418.813 121.757 424.147 139.707 418 152C409.853 168.294 385.796 176.943 371 186C369.709 182.186 366.644 172.248 369.117 168.603C371.383 165.262 379.46 165.999 382.91 162.853C399.351 147.863 407.923 134.079 413 113M877 206C874.334 206.059 871.667 206.206 869 206.112C842.078 205.162 881.853 177.486 879.578 165.148C878.03 156.755 860.862 164.756 856.373 161.883C852.832 159.617 857.406 154.836 859.094 153.004C865.07 146.521 872.857 140.376 881 136.879C904.574 126.755 932.674 131.78 957 135.754C1022.55 146.464 1084.21 173.705 1124.55 229C1135.55 244.073 1144.63 258.808 1151.88 276C1154.57 282.391 1158.63 287.902 1159 295M1025 137L1028 139M1031 142L1034 145M459 164C458.926 172.945 458.508 185.181 454 193C458.234 195.444 467.145 195.515 469.972 199.513C473.431 204.403 468.771 216.773 467.36 222C462.797 238.893 456.785 255.416 451.776 272C449.574 279.292 442.963 285.121 447 293L430 325C420.545 317.802 412.601 310.946 401 307.348C391.538 304.414 379.889 305.805 372.055 298.775C364.662 292.142 364.612 280.208 365.065 271C365.271 266.801 367.473 260.903 364.512 257.278C358.714 250.176 350.003 253.3 343 251C349.71 244.977 360.899 241.786 366.4 234.737C372.603 226.789 371.739 209.263 370 200M370 186C355.634 197.893 336.515 202.673 322 214.468C290.773 239.844 276 283.918 276 323C259.512 324.301 239.519 320.87 224 328.136C212.468 333.535 201.464 347.933 194 358M1072 186L1076 190M369 234C387.912 222.383 405.858 208.25 426 198.782C433.816 195.108 444.261 190.3 453 192M371 194L371 195M456 195L454.536 229L446 262L453 259M742 196L735 203M973 218C957.518 226.582 927.161 228.468 910 224.996C905.883 224.163 892.849 223.018 891.997 217.866C890.976 211.696 900.94 204.946 905 201.823C922.451 188.402 938.461 200.501 954 208.68C960.26 211.975 967.135 213.991 973 218M943 198L957 199M964 199L968 200M971 200C981.2 200.805 993.475 202.006 1002 208L973 218M906 201L914 202M924 201L925 201M1085 201L1087 203M733 204L706 237M879 206L897 204M1017 213L1009 208C1030.45 196.74 1060.08 207.687 1080 217.587C1086.32 220.73 1102.62 234.476 1109 232L1107 229M1089 206L1092 209M1002 208L1009 208M481 209L468 242M783 558C777.829 517.084 771.815 477.029 761.522 437C757.3 420.582 748.736 405.655 745.286 389C735.019 339.448 743.811 287.543 777.95 249C789.268 236.222 803.859 214.97 821 209.8C830.834 206.834 844.382 210.695 846.721 222C847.66 226.537 843.879 243.837 850 242L850 242M1093 211L1095 213M1023 216L1027 217M979 217C991.112 226.703 1009.43 224.76 1024 226.17C1035.76 227.308 1046.91 231.249 1058 235M1098 217L1102 222M1035 219L1050 223M1053 224L1061 227M867 231C886.263 219.187 903.24 232.268 917.985 244.335C922.346 247.903 935.017 257.593 929.968 264.592C925.704 270.503 907.508 259.854 903 257.602C897.743 254.975 892.678 252.611 888 248.985C880.731 243.351 873.644 237.359 867 231M1064 228L1066 229M1068 230L1082 236M1109 234C1138.81 263.895 1145.37 306.898 1159 345M1086 239L1089 239M704 241C691.907 259.897 685.424 285.274 687.09 308C687.757 317.093 690.821 325.952 691.833 335C695.923 371.557 708.723 405.238 719.806 440C729.227 469.553 736.838 500.142 745.255 530C752.088 554.238 757.241 578.845 764.438 603C774.906 638.131 786.892 674.994 785.985 712C784.884 756.961 762.227 797.333 747.695 839C743.017 852.414 738.532 867.13 735.666 881C734.379 887.23 735.124 894.027 733 900M1071 242L1072 242M1094 242L1098 243M363 243L360 254M848 244C831.426 268.964 817.176 301.696 815.089 332C813.943 348.656 814.309 366.319 815.039 383C815.384 390.861 817.629 399.147 816.826 407C815.834 416.693 810.714 425.487 809.175 435C806.922 448.935 822.649 464.908 830.407 475C833.496 479.02 837.894 486.767 844 485.124C857.807 481.407 865.96 466.039 874.326 456C881.814 447.014 890.073 439.5 895.677 429C904.02 413.366 906.231 398.021 909.665 381C912.756 365.683 917.201 350.57 918.95 335C920.823 318.322 924.036 302.418 927.399 286C928.154 282.312 928.618 270.985 932.318 269.238C937.092 266.984 947.031 275.024 951 277.281C970.978 288.64 983.999 305.025 1000 321C1014.03 335.011 1030.59 348.776 1037 368C1043.53 387.595 1045.89 409.478 1047.83 430C1048.38 435.823 1046.84 441.206 1048 447M1101 245L1106 246M1080 247L1090 254M1108 247L1112 248M502 248L505 248M277 324C293.941 318.992 319.212 322.049 337 322C336.975 312.754 337.133 300.229 332.467 292C328.231 284.531 320.846 283.056 315.603 277.312C310.067 271.247 317.624 258.229 323.015 254.738C328.899 250.929 336.564 253.727 343 251M348 254L356 255M365 257L336 262C344.338 273.238 352.544 266 365 266M1095 258L1096 258M367 259L370 259M445 263C442.854 276.357 423.481 270.723 416 265C424.046 256.483 434.933 262.792 445 263M1111 274L1116 281M452 276L447 292M808 435C783.144 395.926 780.966 350.861 804.19 311C810.021 300.991 816.385 289.829 826 283M1118 283L1122 290M444 292L444 293M1124 296L1126 307M1072 351C1059.37 348.712 1051.14 335.663 1042.71 327.185C1039.51 323.961 1032.8 321.644 1034.76 316C1037.22 308.926 1045.67 307.202 1052 305.627C1071.23 300.84 1081.2 303.44 1092.56 321C1100.54 333.335 1099.54 345.822 1104 359C1121.29 345.824 1131.08 331.96 1127 310M1072 346C1063.2 335.412 1055.36 331.166 1050 318C1066.06 312.92 1085.3 316.07 1091.77 333C1093.33 337.08 1099.36 353.713 1094.4 356.799C1090.81 359.027 1080.13 353.781 1076 353M338 323C352.199 318.803 373.107 325.087 387 329M338 323L338 327M277 324L290.497 372L292.577 384L290.092 394L298.961 411L310 441M430 325C431.476 329.604 435.629 332.667 437.861 337C441.252 343.583 442.973 353.61 442.74 361C442.548 367.064 440.057 372.911 436.935 378C435.608 380.163 432.182 383.786 433.306 386.57C436.549 394.609 454.961 385.356 457.292 391.357C460.87 400.566 447.1 410.81 456.279 420.866C463.828 429.139 480.158 424.333 490 428.066C504.181 433.444 507.553 445.292 515 457M339 334C341.023 327.844 351.318 327.173 357 326M430 328L428 331M302 340C314.09 337.505 325.81 330.896 337.83 338.264C345.708 343.092 353.116 351.761 354.559 361C355.345 366.027 352.452 372.418 355.603 376.816C359.19 381.821 366.583 384.758 372 387.229C390.203 395.533 413.589 399.702 431 388M314 338L318 338M1038 343C1038.31 380.728 1063.48 415.491 1086.32 443.089C1092.3 450.311 1097.24 458.318 1104 464.91C1113.91 474.565 1126.21 481.417 1135.95 491.089C1144.53 499.61 1150.83 510.121 1159 519M1157 343L1159 365M342 344C343.358 353.196 347.81 363.104 354 370M1077 350L1078 350M1042 357L1049 362M191 362C172.182 381.214 157.163 406.777 142 429C144.917 430.024 148.133 429.823 150.981 431.012C164.586 436.694 146.877 449.453 149.371 456.892C150.957 461.622 160.748 465.105 165 466.796C167.579 467.822 173.602 471.132 175.971 468.356C178.658 465.209 175.175 459.89 181.034 459.188C188.281 458.319 196.621 460.429 204 460.429C213.673 460.429 223.288 459.046 233 458.999C236.855 458.981 251.683 453.85 253.883 456.694C257.661 461.579 251.125 477.949 251 484M1054 364L1066.87 373.185L1068.04 390L1082 416M1005 418C984.825 412.317 968.055 410.016 949 420C947.561 412.55 954.288 404.767 958.428 399C971.131 381.305 986.169 376 1007 376C1012.83 376 1020.4 375.118 1025.87 377.589C1029.6 379.277 1029.75 383.653 1031.13 387C1033.81 393.485 1038.1 399.466 1041 406M192 387L177 459M880 432L886 408L885 407L876 408C900.174 379.875 934.981 425.513 928.806 450.867C927.89 454.632 921.537 457.013 919 460C913.451 457.281 907.127 462.099 902 464.785C888.96 471.615 876.337 479.871 864 487.835C860.176 490.304 853.08 493.211 850.832 497.322C848.917 500.823 853.437 503.682 856.004 505.084C862.986 508.899 869.967 508.038 877 505M876 408L856.326 422.213L828 465M1040 414C1031.4 428 1009.59 452.496 991 447C995.325 436.814 1013.88 425.807 1025 429M1008 419L1012 419M1015 421L1020 422M828 462C829.111 448.401 840.514 425.923 855 423M1034 428L1046 441M967 441C968.731 462.932 974.146 481.012 990 497L987 500C980.931 493.88 975.318 487.793 974 479M82 444L102 447C89.1178 453.208 64.0772 449.897 51 445C56.1604 441.09 63.9834 443.525 70 444M102 447L131 444M1011 444C1013.09 445.973 1015.77 449.258 1019 448.964C1024.71 448.444 1029.65 440.411 1030 451M50 446C58.4247 471.891 71.8223 496.406 74 524M315 446L315 447M69 450L83.2616 469L81 506M811 450C810.932 474.75 798.58 504.681 806.854 528.999C809.765 537.553 820.831 545.358 826.83 552C837.981 564.346 844.019 575.028 848.444 591C857.854 624.96 853.587 662.914 866 696C874.203 693.694 882.611 692.081 891 690.615C893.203 690.23 898.374 688.987 899.748 691.603C901.131 694.238 897.379 698.844 896.15 701C891.605 708.974 886.813 716.915 882.49 725C869.325 749.62 855.541 774.369 842.028 798.286C836.452 808.154 839.784 822.014 831.387 831.79C822.041 842.672 800.504 846.221 788 853.17C768.584 863.96 751.583 881.417 736 897M1086 450L1086 451M930 452L933 452M1158 452L1158 454M1087 454L1087 455M930 455C932.464 474.48 942.971 493.374 942.971 513C942.971 524.353 932.77 540.805 938 551C944.117 546.162 957.805 534.544 966 538L966 535M150 458C157.627 454.33 167.914 456.499 176 458M917 457L920 456M1029 456L1029 457M148 457L135 465L141 465M1159 457L1159 458M1088 459L1088 509M156 462L168 460M918 460C907.665 467.885 886.14 484.074 873 484M172 461L176 461M181 462L222 476C210.471 482.153 186.41 476.958 176 470M1027 462L1027 464M444 463C443.348 478.142 436.161 493.414 446 507M132 464L134 464M139 468L172 493L176 472M1025 468L1025 470M222 476L244 470M1024 473L1020 484M970 643C949.151 638.536 928.06 612.395 921 593C927.021 590.885 944.258 585.941 949.711 589.746C958.157 595.64 959.522 609.067 970 612.656C990.797 619.78 1020.11 607.208 1038 597.201C1051.48 589.655 1042.72 573.899 1045.15 563C1047.39 552.947 1056.97 544.034 1054.61 533C1052.34 522.425 1042.12 513.326 1044.52 502C1045.72 496.322 1055.88 471.006 1064.44 480.322C1070.97 487.431 1069 506.983 1069 516C1069 525.727 1069.11 535.327 1068.17 545C1066.78 559.319 1063.95 575.717 1066 590L1056 597M929 480L920 490L927 482M924 484L926 486M874 486L881 497L884 487M250 487L249 494M885 489C896.213 487.892 895.173 491.404 896 502C904.84 499.587 913.182 496.218 920 490M899 488L897 491M1017 490L1017 491M173 494L165 559M430 494L440 497M1015 494L1015 495M1013 498L1010 504M248 499L248 501M991 499L988 500M443 500C452.88 501.542 454.97 514.425 463.001 515.033C468.11 515.42 475.915 508.486 481 506.699C494.417 501.984 511.87 503.976 523.995 511.352C531.236 515.756 534.794 525.871 538.873 533C547.778 548.565 556.362 564.115 564.78 580C568.616 587.238 575.803 596.515 571.543 604.999C567.648 612.759 557.944 617.401 551 622.004C534.648 632.842 518.652 645.338 501 654M440 501C439.871 516.616 432.57 536.98 437 552L464 516M895 502C885.566 510.762 877.498 517.411 864 518M992 502C1007.84 518.41 979.413 530.08 969 536M880 504L881 504M995 504L1017 520M247 505L247 509M843 518L888 508M904 508L902 510M1008 508L1005 512M899 514L885 530M1087 514L1086 531M245 516L245 520M465 516L513 545M83 519L89 563M1003 519L1003 520M1014 520C1009.8 522.859 1004.14 522.898 1000.3 525.892C989.497 534.31 979.3 544.125 967 551.127C963.209 553.285 956.661 557.502 952.163 557.292C948.338 557.115 950.219 552.064 951.11 550.001C953.79 543.791 959.836 541.677 965 538M986 530L998 527M76 528L79 547M244 535L242 584M1086 535C1083.05 550.866 1084.12 567.234 1080.1 583C1077.06 594.948 1069.75 607.152 1064.11 618C1062.08 621.892 1059.29 625.695 1054.98 627.06C1049.74 628.722 1040.97 627.235 1039.19 634.094C1037.38 641.053 1041.07 651.834 1041.83 659C1043.45 674.133 1043.63 689.772 1042.96 705C1040.43 762.783 1031 820.021 1031 878M879 536C875.669 539.188 867.595 543.547 866.346 548.075C864.532 554.65 879.765 558.335 884 559.576C895.337 562.896 908.154 564.194 919 568.627C923.133 570.316 928.755 573.111 929.627 578.004C930.368 582.16 926.84 586.526 925 590M80 551L80 554M437 552C431.388 563.065 456.687 557.746 463 558.576C487.134 561.745 508.893 567.402 531 577.881C535.504 580.016 549.838 584.473 551.654 589.314C552.564 591.74 548.438 593.962 546.995 595.194C541.788 599.641 536.579 603.879 531 607.859C515.566 618.867 498.519 627.641 482 636.862C472.003 642.443 462.604 649.605 452 654M81 556L84 571M434 559L433 562M324 596C356.66 578.607 393.502 569.184 429 560M782 562C784.299 574.385 782.707 587.449 783.015 600C783.707 628.269 784.042 659.079 788.439 687C796.477 738.046 818 785.802 818 838M952 588L979 579.247L1004 574.453L1032 562M980 577C993.535 567.167 1006.48 563.341 1023 563M164 564C162.038 579.522 155.645 599.525 157.699 615C159.137 625.838 170.785 636.523 169.473 647.981C168.837 653.534 156.481 660.202 152.924 665C143.897 677.176 146.358 685.976 149 700M90 569L90 581M906 574L921 594M84 575L84 579M85 581L86 594M91 585L91 587M242 589C248.579 612.12 282.581 601.645 301 602.129C308.274 602.32 315.912 604.677 323 606.21C353.027 612.702 381.323 626.002 407 642.541C420.096 650.976 438.844 668.327 455 669.165C468.41 669.861 478.849 662.449 491 658.82C500.035 656.122 511.553 656.996 521 657C527.113 657.002 541.732 657.607 544.864 664.225C546.663 668.025 542.076 673.218 539.96 676C532.544 685.75 523.48 695.139 515 704M91 590L92 599M1067 591C1060.63 604.838 1044.89 611.64 1041 628M313 599L315 598M1066 598L1066 609M87 602L88 608M253 603C245.614 607.525 235.388 607.287 227 609.235C208.946 613.428 193.029 622.223 183.9 639C180.045 646.086 183.585 649.614 182.13 655.925C180.611 662.517 177.562 666.632 179 674M93 606L93 609M88 612L89 627M94 615L94 616M1049 616L1047 628M96 629L97 638M90 631L90 635M1038 636C1030.08 639.53 1022.55 647.516 1018.23 655C1016.48 658.026 1016.76 662.955 1014.26 665.382C1008.72 670.765 987.311 659.085 983 655C994.409 643.081 1005.76 636.666 1022 633.336C1027.72 632.162 1033.6 630.23 1039 633M1074 643C1074.28 656.68 1076.76 675.707 1083 688C1086.87 695.643 1094.02 701.997 1100 708C1115.87 723.944 1136.82 743.612 1159 750M97 644L97 648M966 644L977 651L973 645M91 647L91 649M1018 648L1001 660M147 672L145 650L159 659M159 659C168.13 667.442 175.516 663.798 171 652L179 652M977 651L983 656C979.042 662.223 976.2 669.54 977 677C983.376 673.97 992.75 669.901 989 662M179 652L179 658M455 654L487 660M91 657L91 661M97 658L97 660M175 664L178 662M175 664L178 670M91 667L91 676M473 667C485.122 676.524 506.003 678.256 511.853 695C513.554 699.871 508.567 703.735 507.045 708C503.534 717.837 503.925 728.782 502 739M420 683C419.001 695.66 419.163 708.658 422.9 721C425.044 728.08 431.652 737.792 430 745C413.765 727.321 391.52 700.442 407 676L418.946 681.607L428.019 673.994L445 668M465 669C469.387 671.999 474.952 673.411 478.005 678.043C483.751 686.758 482.763 698.221 482.09 708C480.963 724.36 482.623 742.607 476 758C482.742 758.984 482.232 751.784 484.349 747C488.458 737.716 495.391 728.638 502 721M992 670C988.939 686.426 989.351 707.797 982.442 723C979.068 730.426 964.791 735.943 963.617 743.04C962.863 747.592 969.898 753.263 971.925 757C975.893 764.315 976.249 774.942 979 783C996.1 772.534 1019.13 756.543 1039 753M457 671L466 680C461.805 680.964 458.196 679.993 454 680.209C444.581 680.694 430.654 685.247 422 681M91 679C91 699.76 89.7494 720.259 89.9961 741C90.0792 747.981 87.5138 760.64 91.0278 766.816C96.9307 777.189 120.259 784.073 131 787.667C158.432 796.844 185.401 798.292 214 797.039C233.126 796.202 252.965 794.386 269 783M467 681L475 686M145 683C127.551 713.227 140.962 750.729 175 760.791C195.458 766.838 219.868 762.255 240 757M1082 697L1083 697M1083 699L1083 702M459 924C462.836 918.91 470.42 906.325 477.96 907.427C484.59 908.396 488.738 921.683 490.999 927C491.806 928.896 493.936 932.302 492.759 934.393C490.662 938.118 479.034 933.345 476 932.431C464.757 929.045 454.887 925.073 443 924.194C434.325 923.554 428.011 927.967 420.259 921.362C375.895 883.56 354.263 817.78 334.192 765C329.161 751.771 324.997 735.269 325.591 721C325.823 715.422 325.635 708.93 331 706L340.69 721.039L352 749M153 707C160.114 716.232 172.153 719.434 182 725.043C190.209 729.719 196.031 739.818 205 742.671C217.082 746.513 229.914 742.479 242 741.166C269.667 738.159 297.425 737.014 324 728M507 712C516.852 708.926 525.026 712.523 535 712.961C550.78 713.653 565.748 711.956 581 708L575.174 744L572.566 755.44L546 765L562.884 824L572 867M1083 710L1083 712M521 713C532.334 736.808 551.243 736.519 574 742M118 724L119 725M1089 727L1098 736M129 735L130 735M577 744L581 743M959 743L962 743M431 745L445 761M500 745L488 778C497.862 781.222 509.992 773.124 521 775.196C523.35 775.638 527.371 775.519 528.968 777.603C531.071 780.345 528.959 785.139 528.14 788C525.482 797.284 522.319 806.552 520.286 816C512.958 850.036 522.041 885.564 520 920M494 772L574 746M1121 750L1127 753M353 752L365 765M1126 753C1116.99 758.595 1105.17 759.471 1095 761.996C1090.9 763.013 1085.03 762.203 1084 767L1087 769M572 762L576.871 803L576.174 890L584 972M368 768L370 770M1092 771L1115 783M376 774L389 781M490 781L486 793M393 782L395 784M978 782C960.747 795.296 934.372 795.815 915 806.12C872.613 828.668 835.067 893.847 862 940C892.519 902.493 927.279 869.4 958.718 833C968.287 821.921 986.519 799.625 979 784M236 785L265 785M217 787L221 786M1122 787L1130 790M412 793C423.886 799.166 428.894 811.164 429 824M1138 795L1139 796M120 810L119 799L130 802M485 799L478 821M1145 801L1156 812M283 808C271.176 819.95 247.077 815.7 232 815.039C212.229 814.174 193.134 818.983 175 826.72C169.174 829.206 150.746 839.464 149 829M284 811L285 826M305 825L303.209 856L315 926M477 825L477 828M286 829L286 832M121 830L121 832M475 832L474 835M429 838L429 839M149 839L143.826 883L137 967M122 841L122 842M473 841L471 844M288 844L288 845M362 844L362 846M819 844L817.714 874L806 939M470 848L469 853M363 849L363 851M289 852L289 853M365 859L365 861M465 863L465 864M301 865L301 886M367 868L367 871M126 873L126 878M368 873L369 882M425 875L424 877M460 876L460 879M370 885L371 891M372 894L373 901M301 900L301 902M451 900L450 902M419 907L419 910M375 908L376 914M379 924L388 956C384.163 953.24 381.457 949.835 378.71 946C376.638 943.108 374.439 940.229 372.912 937C360.864 911.525 403.788 918.98 417 922M300 921L305 1023M521 922C521.261 934.623 524.121 948.478 529.312 960C535.055 972.75 544.268 984.188 541.671 999C538.927 1014.65 523.597 1027.36 511.424 1035.84C482.957 1055.68 452.46 1055.03 419 1053.09C407.686 1052.43 396.197 1054.08 385 1052M432 927C439.868 933.688 450.368 939.035 456 927M316 931L319 962M415 934L415 936M494 937L498 944C474.726 960.569 458.858 977.813 442 1001L422 988C422.67 1002.67 438.618 1024.62 430.972 1038.96C426.3 1047.72 413.237 1041.81 407 1038.07C386.813 1025.96 381.459 1005.45 370 987M433 939L432 941M497 939C499.632 940.536 499.83 941.089 499 944M862 941C848.838 948.877 840.695 970.342 830.7 982C824.972 988.68 815.93 994.103 812 1002C822.337 1005.06 832.99 1002.54 843 1008.22C850.508 1012.49 854.559 1023.1 863.018 1025.43C879.485 1029.97 900.032 1027 917 1027M414 941L414 946M863 942C870.955 965.369 889.851 989.847 891 1015M805 943L797 984L792 1000L806 1009L811 1003M498 947C503.475 976.491 477.309 987.401 457 1002M417 951L421 952M425 956C427.489 952.858 430.949 955.628 434 957.259C441.965 961.517 446.646 968.035 452 975M388 956C396.007 964.007 406.893 978.89 418 982C416.548 974.472 412.739 970.091 405 970M414 956L414 970M658 962L695 974.542L757 991.425L789 998C784.963 989.552 772.447 986.948 764 984.779C742.154 979.17 719.731 978.354 698 973M418 982L421 987M136 984L136 988M951 991C963.503 993.866 976.936 998.172 988 1004.77C997.369 1010.36 1005.42 1018.65 1015 1023.74C1022.44 1027.69 1036.58 1029.63 1045 1030M136 992L135 1012M790 999L791 999M442 1001L439 1012C446.583 1010.35 450.197 1006.13 443 1001M794 1002C789.498 1010.08 784.744 1027.97 787 1037C793.549 1030.54 800.213 1017.75 803 1009M455 1003L454 1004M798 1004L805 1004M990 1003C1021.53 1011.88 1053.76 1014.82 1085 1025.33C1098.11 1029.74 1112.29 1033.9 1123 1043C1108.77 1057.12 1090.3 1075.63 1087.64 1096.87C1087.15 1100.82 1093.92 1107.32 1095.43 1111.42C1097.53 1117.17 1097.5 1122.68 1101.19 1127.91C1113.45 1145.29 1139.18 1149.95 1159 1150M449 1006L482 1022.74L511 1035M1159 1006L1159 1032M806 1009C817.759 1017.37 843.396 1028.27 858 1024M485 1012L486 1013M1148 1018L1143 1023M322 1019L323 1025M891 1019L891 1022M1117 1029L1144 1021M927 1026L969 1025M971 1024L996 1024M1000 1024L1012 1023M1141 1025L1126.2 1040.81L1134 1045.42L1159 1052M856 1026C855.461 1032.13 851.052 1038.8 852.473 1045C855.01 1056.06 873.172 1068 880.911 1076.04C883.342 1078.57 885.773 1084.06 889.26 1085.11C895.304 1086.93 903.759 1084.34 910 1084.34C925.38 1084.34 941.044 1086 956 1089.75C970.977 1093.49 986.034 1096.93 1001 1100.73C1006.23 1102.06 1016.77 1106.14 1021.91 1105.07C1026.87 1104.03 1030.18 1096.54 1033.21 1093C1042.51 1082.14 1052.9 1073.02 1063 1063M1019 1027L1042 1048M865 1028C875.726 1038.64 886.32 1042.1 901 1044M323 1030C323.35 1038.02 326.468 1063.68 336.04 1065.64C341.672 1066.79 349.071 1061.76 354 1059.54C362.701 1055.62 371.4 1053.08 381 1053M1112 1031L1113 1031M1051 1033L1058 1035M892 1034L891 1041M515 1035L521 1038M788 1037L784 1047M886 1092L886 1086C875.01 1088.04 855.864 1090 846.001 1083.86C830.547 1074.22 837.519 1048.72 852 1041M1093 1041L1095 1041M905 1045L965 1051M1085 1047L1089 1045M891 1050L889 1066M1078 1051L1080 1050M968 1051L1037 1052M1040 1052C1048.35 1051.8 1052.44 1057.44 1058 1063M1050 1053L1088 1056.57L1106 1060M1069 1059L1068 1060M1111 1059L1159 1060M1136 1064L1138 1064M1061 1066L1087 1097M1145 1068L1146 1068M1152 1071L1158 1073M1159 1085L1159 1086M1086 1101L1065 1133M1024 1105C1038.71 1113.52 1061.41 1112.69 1078 1114M1021 1106L1006.24 1126L980 1160M209 1130C217.465 1127.2 224.66 1120.86 233 1117.45C254.434 1108.7 288.212 1104.04 308 1117.73C315.199 1122.7 323.97 1116.87 323 1129M1094 1110L1082 1113M1097 1112L1102 1113M1107 1116L1109 1116M1123 1120L1149 1118M1152 1118L1154 1118M309 1119L280 1131.17L257 1143.64L245.09 1142.29L232.583 1152.42L231 1166M310 1196L320.126 1183.96L321 1173C311.839 1165.93 307.389 1157.56 305.468 1146C304.977 1143.04 306.381 1132.44 311.607 1134.35C315.975 1135.94 317.178 1152.71 319 1157C327.427 1153.68 326.626 1163.79 328.101 1170C329.421 1175.55 327.989 1181.65 329.994 1187C334.233 1198.3 344.833 1208.2 338 1221C334.48 1216.33 329.277 1204.43 322.996 1203.65C319.775 1203.25 316.171 1205.44 313 1206L316 1200L307 1199M199 1138C212.706 1126.41 224.635 1141.87 232 1152M1062 1136L1060 1138M225 1137L246 1138M1058 1142L1056 1144M189 1147L188 1148M1053 1148L1048 1155M182 1157L181 1159M226 1174L217 1181C215.995 1174.57 225.328 1161.53 230 1157M319 1157L321 1163M199 1158C200.386 1174.95 202.012 1202.19 219 1211C222.081 1199.79 214.122 1192.81 206 1187M1044 1160L1040 1165M1081 1161L1080 1162M978 1164C975.378 1170.09 965.858 1180.74 967.66 1187.74C968.925 1192.65 981.621 1197.5 986 1199L982 1194M178 1165L189.732 1203L183 1232C191.952 1229.95 212.858 1221.19 200 1211L201 1223M232 1193C242.535 1190.49 249.287 1197.8 259 1197.24C264.373 1196.93 268.824 1193.22 272.981 1190.19C277.628 1186.81 281.149 1183.12 280 1177L274 1180C269.49 1171 274.472 1169.37 283 1169M1038 1169L1031 1177M211 1171L217 1176M255 1174L271 1171M206 1173L208 1172M317 1176L306 1184C303.002 1177.61 311.722 1172.35 317 1176M249 1179L252 1178M256 1179L270 1185M1028 1181C1022.05 1189.31 1003.6 1206.31 1005.3 1217C1006.87 1226.88 1020.44 1233.96 1017.42 1245C1015.54 1251.91 1007.7 1257.88 1003.87 1264C993.585 1280.46 982.679 1297.71 973.694 1315C966.697 1328.47 971.371 1343.65 967.343 1357C964.349 1366.93 951.493 1375.74 945.239 1384C937.416 1394.33 934.816 1408.88 924.829 1417.47C908.236 1431.74 887.892 1422.02 869 1425.33C857.073 1427.42 847.639 1438.21 837 1443.44C832.432 1445.69 821.469 1445.04 817.697 1441.07C812.964 1436.08 825.676 1421.11 827.111 1416C835.04 1387.78 840.365 1355.99 866 1338C878.028 1357.28 849.936 1384.62 835 1396M216 1182C218.598 1187.33 224.061 1192.08 230 1193M952 1184L966 1187M1053 1187L1053 1188M278 1188L299 1204M966 1190C966.9 1193.37 967.963 1193.48 971 1192M957 1192L982 1209L986 1199M966 1193L963 1196M981 1210C981.045 1225.7 994.175 1226.61 1004 1217L988 1200C996.872 1192.42 1004.47 1195.69 1006 1207M963 1199C958.413 1212.47 955.299 1218.72 941 1222M302 1206C306.809 1208.52 308.444 1209.74 313 1206M1033 1206L1032 1207M983 1208L992 1221M219 1211L231 1213M310 1211C313.382 1218.25 334.176 1234.42 338 1221M221 1213C222.536 1215.63 223.089 1215.83 226 1215M1020 1218L1019 1219M938 1223L939 1223M202 1225L208 1241C211.917 1238.84 216.336 1235.21 221 1235.14C226.058 1235.07 233.498 1241.47 230.928 1246.91C227.715 1253.72 218.352 1255.83 212 1258C217.766 1276.03 211.338 1291.94 202 1308M934 1225C922.9 1229.69 907.933 1229.9 896 1230M995 1225C1000.7 1235.48 1006.49 1245.2 1000 1257M1009 1226L1005 1230M995 1227L986 1243M334 1228C327.642 1234.21 320.691 1236.84 313 1240.89C296.527 1249.57 278.246 1259.21 259 1258.94C254.185 1258.87 241.686 1252.1 251 1249M830 1400C798.03 1409.23 787.693 1463.28 747.152 1453.55C741.113 1452.1 749.934 1435.7 751.399 1432C758.404 1414.33 765.861 1381.68 786 1375C786.044 1380.36 787.2 1384.91 788.809 1390C792.725 1402.38 804.399 1411.02 816.471 1400.44C819.737 1397.57 821.285 1392.73 823.309 1389C825.952 1384.12 832.231 1377.59 827.678 1372.19C818.18 1360.9 805.185 1367.79 794 1365L818.015 1311.01L860 1278C837.242 1263.87 810.313 1261.89 784 1263.04C774.894 1263.44 753.692 1265 747.752 1255.7C745.356 1251.95 751.562 1250.69 754 1250.3C762.953 1248.85 772.019 1247.84 781 1246.58C806.001 1243.05 831.042 1239.96 856 1236.24C868.167 1234.42 880.733 1230.25 893 1230M1000 1233L997 1236M993 1239L988 1241M208 1241L213 1257M278 1261L280 1261M283 1264C290.4 1269.32 295.083 1274.78 299 1283C302.871 1281.17 308.361 1275.92 312.856 1278.22C318.595 1281.16 320.018 1294.52 323.036 1300C332.923 1317.94 353.29 1330.92 372 1320L353 1312M383 1314C372.2 1313.65 378.34 1304.67 382.194 1299C389.642 1288.05 401.745 1275.99 414 1270.42C422.706 1266.46 431.123 1271.24 438 1276.37C451.279 1286.28 464.459 1296.06 475 1309C479.157 1305.54 487.275 1300.5 493 1301.41C497.116 1302.07 498.696 1305.1 503 1304L497 1300M332 1418C345.078 1422.26 357.5 1430.31 371 1432.41C374.711 1432.99 385.644 1431.24 387.879 1434.6C389.575 1437.16 387.061 1442.41 386.28 1445C383.261 1455.02 378.682 1464.4 374.579 1474C369.082 1486.86 366.085 1500.12 356.699 1511C340.821 1529.4 316.976 1534.2 295 1541.52C285.947 1544.53 276.7 1549.44 267 1549.9C258.136 1550.31 250.22 1543.68 245.156 1536.99C234.642 1523.09 226.306 1507.62 218.742 1492C202.523 1458.5 188.409 1430.25 191.09 1392C191.816 1381.64 197.624 1372.91 198.875 1363C201.9 1339.02 206.52 1311.6 222.043 1292.07C228.482 1283.97 244.727 1290.6 253 1292.2C264.315 1294.38 275.771 1295.54 287 1298.24C292.639 1299.59 299.112 1303.13 304.999 1301.34C310.517 1299.67 314.139 1293.94 318 1290M465 1318L459 1325C453.7 1318.56 449.579 1309.6 441 1306.74C435.287 1304.84 428.928 1308.82 424 1311.24C416.071 1315.14 397.347 1324.61 389 1323C395.918 1313.92 408.924 1298.4 420 1294.59C437.242 1288.65 456.726 1305.98 466 1318L475 1310M328 1298L341 1306M500 1301L498 1303M503 1303C518.291 1316.04 537.777 1329.48 545.521 1349C547.691 1354.47 547.505 1361.19 548.41 1367C550.512 1380.49 542.813 1385.55 533 1393.34C530.747 1395.12 524.841 1401.38 521.603 1399.74C518.991 1398.42 519.564 1390.64 517.991 1388C513.649 1380.7 506.175 1374.69 500 1369M481 1306L478 1308M502 1307C504.969 1312.58 512.321 1321.23 507.397 1327.67C504.501 1331.46 498.832 1333.27 495 1336L505 1354M344 1308L350 1310M476 1311L494 1335M200 1315C195.315 1331.66 193.678 1349.15 189.765 1366C185.327 1385.11 178.217 1408.2 180.304 1428C183.405 1457.42 198.4 1478.94 211.971 1504C215.581 1510.67 216.26 1518.5 220.094 1525C229.221 1540.48 244.994 1549.3 260 1558M467 1318L472 1323M389 1324L368 1346M225 1393C219.309 1383.71 223.316 1372.1 227.755 1363C237.368 1343.31 249.853 1328.65 273 1326.17C304.322 1322.82 336.461 1344.06 366 1352.25C407.053 1363.65 455.866 1355.54 493 1336M459 1326L474 1341M481 1345L498 1365M794 1366L786 1375M196 1372C198.899 1377.43 197.147 1383.28 199.108 1389C203.948 1403.12 218.303 1408.92 232 1410M202 1373L207 1387M209 1389L212 1393M215 1396L220 1400M223 1401L225 1402M229 1405L232 1406M238 1409L283 1412.45L305 1411.46L359 1431M279 1409L280 1409M445 1469L421 1437C440.032 1426.44 457.487 1415.11 479 1409M607 1508C618.521 1508.19 631.253 1519.54 641 1525.15C652.243 1531.62 662.74 1537.04 675 1541.34C678.25 1542.48 685.541 1544.43 686.654 1548.21C689.892 1559.22 668.034 1561.92 662 1561.89C649.314 1561.81 637.479 1557.49 625 1558.04C619.468 1558.28 610.243 1561.11 605.427 1557.01C602.145 1554.22 607.612 1549.89 604.624 1546.39C600.938 1542.07 588.474 1542.68 588.188 1535.99C587.761 1526.06 601.375 1514.91 607 1508C596.711 1501.6 584.729 1501.21 573 1502.09C567.771 1502.48 562.204 1505.24 557 1503.26C549.713 1500.48 545.202 1491.48 541.781 1485C534.194 1470.63 530.617 1455.71 527.116 1440C525.491 1432.71 522.24 1424.48 523 1417C532.356 1421.86 532.718 1439.29 537.93 1448C548.868 1466.27 567.383 1480.73 582 1496M420 1436C409.292 1430.05 437.269 1423.8 442 1423M390 1433L416 1431M449 1473L457 1482M460 1487C471.289 1500.06 481.35 1515.14 491.762 1529C496.804 1535.71 500.369 1543.54 508 1547.91C522.85 1556.42 543.272 1544.76 559 1545.26C573.708 1545.73 587.31 1555.79 602 1557M611 1506C626.545 1492.56 655.007 1482.52 668.906 1503C673.618 1509.94 671.162 1522.36 676.318 1527.44C682.71 1533.75 694.467 1537.58 702 1543.16C705.331 1545.62 710.464 1549.12 709.623 1553.96C707.698 1565.04 687.191 1561.15 680 1561M566 1492L567 1497M587 1503L592 1524M571 1508L572 1510M581 1526L587 1536M590 1532L590 1540M125 1546C131.285 1536.14 137.104 1534.95 148 1537M182 1539L206 1543M161 1543L172 1541M592 1542L594 1549M1001 1547L1048 1544M139 1546L144 1546M775 1546C795.416 1558.92 816.438 1568.94 838 1579.75C842.602 1582.06 857.793 1587.68 857.793 1593.91C857.793 1598 849.832 1598.79 847 1599.42C834.692 1602.2 823.56 1603.97 811 1605.17C758.698 1610.15 707.572 1614.09 655 1613M781 1547L855 1551.58L915 1550M991 1547L995 1547M921 1549L949 1549M954 1549L963 1548M966 1548L987 1548M120 1555L117 1560M156 1557L162 1563M600 1558C599.37 1568.94 607.639 1577.71 619 1578.61C633.533 1579.76 659.584 1571.8 671 1563M348 1604C352.42 1604 358.911 1605.18 362.895 1602.97C371.6 1598.15 376.414 1581.43 368.674 1574.42C360.09 1566.64 346.033 1569.57 337 1563C346.921 1557.7 361.094 1560.32 372 1560.05C401.284 1559.33 430.662 1560.99 460 1561C467.99 1561 492.732 1561.83 495.248 1572.05C496.955 1578.98 477.436 1584.24 473 1587M264 1563L242 1569M328 1563L337 1563M116 1565L117 1593M233 1570L235 1570M227 1571L229 1571M466 1591L469 1589M462 1593L460 1594M440 1605L455 1597M119 1598L129 1606M338 1605L339 1605M332 1606L333 1606M419 1615L437 1607M538 1610C575.36 1610 613.891 1606.11 651 1613M502 1612L534 1610M291 1612L302 1612M274 1613L275 1613M479 1615L497 1614M440 1619C450.914 1620.94 464.293 1618.64 475 1616M404 1620L438 1619M1 1708C5.24383 1704.87 11.045 1699 10.3812 1693.1C9.8671 1688.54 4.14678 1689 2.02778 1685.7C-4.5674 1675.41 10.5564 1673.05 17 1673" transform="translate(-577.122,-226.816) scale(0.880451,0.332717)"/></svg>