<svg xmlns="http://www.w3.org/2000/svg" xmlns:svg="http://www.w3.org/2000/svg" xmlns:sodipodi="http://sodipodi.sourceforge.net/DTD/sodipodi-0.dtd" xmlns:inkscape="http://www.inkscape.org/namespaces/inkscape" xmlns:xlink="http://www.w3.org/1999/xlink" width="210mm" height="297mm" viewBox="0 0 210 297">
  <sodipodi:namedview/><g inkscape:label="Ebene 1" inkscape:groupmode="layer" id="layer1">
    </g>
<path style="fill:none;stroke:#000000;stroke-linecap:round;stroke-width:5.0" d="M773 250C765.556 239.921 761.172 232.344 759.714 220C759.322 216.677 757.807 211.545 760.603 208.854C766.525 203.156 777.064 206.75 783.999 206.955C787.581 207.061 791.083 206.344 790.601 201.981C790.029 196.805 785.6 191.338 782.939 187C775.713 175.219 768.74 162.884 757.996 153.924C754.099 150.674 739.745 145.182 738.346 140.729C736.92 136.194 747.109 131.348 750 129.291C764.96 118.649 781.168 123.431 797 131.539C826.343 146.567 845.267 175.651 857.873 205C860.451 211.002 864.575 216.701 866.363 223C867.654 227.55 866.091 232.443 867.318 236.942C868.683 241.95 876.356 241.751 877.083 247.04C877.549 250.438 873.586 254.154 872.123 257C867.853 265.308 862.536 275.44 864.68 285C876.957 339.743 905.85 388.704 916.261 444C918.815 457.569 925.222 472.023 923.829 486C922.661 497.731 918.976 509.512 916.424 521C911.167 544.67 906.044 570.611 894.138 592C875.439 625.591 845.892 655.757 840.3 695C838.311 708.96 839.877 723.894 838.911 738C835.968 780.972 833.207 823.597 825 866C820.599 888.736 819.519 912.694 804 931M759 207C758.32 201.623 752.195 181.383 758.549 178.256C761.391 176.858 763.715 181.037 764.647 183.015C767.589 189.255 770.315 198.162 771 205M256 346C228.373 294.125 280.749 249.901 321 225.8C366.011 198.85 421.251 179.166 474 190.339C485.811 192.84 503.538 193.834 512.787 202.39C517.06 206.344 518.723 212.901 521.248 218C529.443 234.549 532.708 251.592 538 269C545.426 265.537 552.276 257.216 556 250L545 249M773 207C774.049 212.651 773.053 219.347 777.228 223.815C781.234 228.102 791.269 229.9 793.544 235.224C796.325 241.732 791.834 254.724 792.015 262C792.586 284.979 809.805 302.72 833 297.93C850.217 294.374 860.45 271.023 863.449 256C864.154 252.467 867.717 242.801 864.382 240.027C860.634 236.909 848.776 237.132 844 237.015C827.236 236.604 811.108 240.042 795 235M803 240C815.875 255.621 828.08 275.882 829 297M557 249C586.328 256.064 614.268 270.144 627.833 299C630.241 304.124 634.043 310.278 634.502 316C636.206 337.274 622.48 356.247 623.015 378C623.705 406.096 646.862 431.146 630.467 460C624.768 470.029 613.908 475.958 607 485C610.775 485.738 617.343 481.847 620.254 484.644C623.745 487.998 620.621 498.934 619.51 503C614.058 522.952 592.778 525.659 582.898 507C580.311 502.115 578.058 493.493 579.314 488C580.697 481.955 585.268 479.379 582 473L578 484M397 333C375.09 321.126 357.182 330.731 344.953 350C341.758 355.034 337.8 359.987 337 366C351.095 362.688 364.639 349.487 378 343.309C397.116 334.471 419.78 332 438 321.964C446.428 317.322 453.297 308.098 452.5 298C451.116 280.458 424.386 268.473 412 260C421.924 254.277 434.103 255.602 445 255.871C464.526 256.353 482.648 254.527 502 259.478C511.133 261.815 528.827 276.009 537 272L537 271L538 270L539 269M386 262L350 275.37L289 316C287.257 306.68 301.006 294.239 307.039 288.004C336.185 257.886 374.22 261.623 412 260M533 276L531 281C537.97 282.703 544.091 277.669 551 277.228C556.594 276.87 562.902 280.813 566.981 284.329C573.095 289.599 572.997 297.485 573 305C573.006 320.942 571.685 351.527 554.996 359.811C530.619 371.911 498.906 356.525 475 350M831 299C833.06 312.998 840.987 324.939 842.714 339C845.686 363.204 842.034 388.559 850.544 412C854.172 421.994 859.993 430.869 863.495 441C869.152 457.365 871.827 474.576 877.356 491C881.13 502.214 888.956 517.101 889.073 529C889.136 535.288 879.122 544.606 875.811 550C864.42 568.555 852.407 587.185 843.309 607C826.292 644.059 808.423 682.285 795.515 721C785.471 751.127 776.251 786.66 747 804.071C736.653 810.23 721 813.728 709 812.911C702.029 812.436 693.763 809.553 687 811C695.515 827.413 714.249 826.952 729 834.131C745.273 842.051 757.682 854.909 775 861.533C783.074 864.622 802.099 864.13 806.971 872.228C810.114 877.45 805.478 886.677 804.235 892C800.632 907.434 799.035 923.302 797.155 939C792.964 974.007 777.399 1006.76 769.5 1041C761.659 1074.99 760.714 1110.39 761 1145C757.509 1145 748.211 1143.85 746.176 1147.57C743.367 1152.71 758.73 1158.06 762 1159L762 1146C775.764 1147.41 782.648 1159.48 787.573 1171C798.225 1195.91 800.826 1231.1 800.999 1258C801.064 1268.01 804.458 1280.68 800 1290L783 1276L782 1277C795.711 1317.49 805.747 1359.29 809.83 1402C812.164 1426.4 811.647 1451.99 815.643 1476C816.823 1483.09 823.519 1487.82 824.568 1494.04C825.436 1499.19 823.289 1504.61 824.482 1509.96C829.764 1533.66 837.89 1558.06 843.873 1582C846.406 1592.13 851.606 1605.55 849.485 1616C844.465 1640.73 821.143 1644.92 807 1663L838 1659C838 1684.85 847.599 1707.73 834 1732C824.107 1725.32 800.11 1742.61 790 1748C781.165 1727.06 784.294 1700.03 777.61 1678C775.829 1672.13 771.742 1666.81 769.532 1661C753.242 1618.17 731.647 1579.68 708.872 1540C698.633 1522.16 687.191 1495.93 671 1483C669.772 1493.46 681.28 1499.97 683.683 1509.09C688.865 1528.76 681.813 1550.06 693.075 1569C699.309 1579.48 716.209 1584.23 719.577 1596C722.788 1607.22 718.084 1622.21 715 1633C712.431 1641.99 710.67 1650.87 705.792 1659C687.156 1690.06 650.377 1711.62 625 1737C622.31 1731.09 624.227 1723.34 624.83 1717C625.96 1705.14 627.041 1693.72 629.4 1682C630.392 1677.07 634.449 1664.99 630.972 1660.6C626.321 1654.74 608.917 1665.32 603 1665.78C596.741 1666.26 590.214 1663.77 584 1663.17C569.722 1661.78 548.869 1663.05 537 1654C544.034 1650.34 555.904 1651.63 564 1650.07C586.079 1645.8 617.771 1633.43 640 1640C644.657 1630.32 643.1 1615.69 644.169 1605C647.225 1574.44 647.259 1543.59 650.17 1513C651.492 1499.11 659.653 1478.28 656 1465C652.073 1469.87 650.268 1475.76 646.91 1481C635.601 1498.65 623.601 1517.14 611.215 1533.96C604.614 1542.92 596.26 1550.63 590.1 1560C580.205 1575.05 572.467 1591.56 563.2 1607C554.856 1620.91 544.53 1635.27 540 1651M288 315L282 322M246 409L253 395C258.518 401.714 270.628 420.073 270.431 428.961C270.314 434.201 255.369 447.391 250.059 445.137C242.22 441.811 251.745 426.75 250.761 420C249.445 410.98 239.589 408.34 236.043 400.985C232.8 394.258 241.93 382.788 246 378L252 389C256.564 383.346 259.125 376.036 260.84 369C261.33 366.987 262.314 362.29 258.848 362.346C253.315 362.434 249.584 371.679 246 375C240.26 364.063 240.961 351.886 239.83 340C239.193 333.307 237.128 325.517 239 319L246 325M409 333L418 336M413 336C399.259 348.543 381.588 355.226 368 367.964C365.614 370.201 357.259 373.505 356.346 376.313C355.404 379.207 359.277 382.25 361.005 383.996C368.55 391.619 373.358 393.189 382.981 387.586C391.763 382.473 387.21 371.861 390 364M527 365C534.086 378.986 550.178 383.795 553.986 401C562.26 438.382 551.324 476.871 512 492.384C494.219 499.399 469.93 499.108 451 499.135C438.854 499.152 426.699 490.037 415.058 490.934C408.923 491.406 406.332 505.676 399.996 508.817C388.071 514.73 369.475 508.82 357.09 512.634C350.174 514.764 346.652 523.798 339 526.058C326.369 529.788 315.466 515.598 302 519C305.788 526.547 312.537 528.818 320 532M337 366L305 397M370 389L372 376L380 380L388 367M351 374L355 376M246 375L246 378M465 380C442.992 402.101 409.269 427.184 376 415.556C368.232 412.84 360 409.132 353 404.806C349.528 402.66 346.636 397.775 343 397L342 397L341 396L340 396M252 389L253 394M457 389L444.258 415L423.388 464L414 490M254 396C268.465 383.508 269.843 403.169 272.239 413C273.202 416.95 275.888 420.88 275.871 425C275.857 428.462 273.782 431.396 274.027 434.961C274.339 439.499 277.616 443.477 278.55 448C280.264 456.299 280 464.574 280 473C280 483.847 275.788 496.016 279.56 506.714C289.116 533.814 312.298 558.818 331.985 579C339.825 587.036 347.278 601.703 357.455 606.806C375.773 615.991 380.481 583.498 396 579.438C401.416 578.021 407.765 580.802 413 581.989C428.277 585.455 451.553 596.304 467 593C458.472 575.551 432.427 575.01 416 572.579C409.183 571.57 401.901 569.918 395 570.054C388.175 570.188 381.919 572.84 375 571.532C364.643 569.575 361.705 559.241 353 555L355.833 578L355 602M369 392C362.077 397.545 355.35 397.055 347 396M278 427C291.865 418.947 296.904 432.519 299.547 445C302.966 461.144 298.572 479.766 296.834 496C295.944 504.313 293.997 512.996 301 519M274 439C268.09 446.114 264.654 448.402 272 456M257 445L265 451M265 452L261 469C271.654 466.803 273.358 480.187 278 487M584 467L587 471C587.158 468.334 585.53 464.592 587.461 462.333C590.132 459.211 595.009 461.159 595.356 465.044C595.981 472.034 589.206 479.634 587 486L607 485M378 465C377.998 484.83 365.497 494.175 358 511M570 466C571.454 472.236 571.008 477.355 576 482M573 470L580 474M582 473L584 470M587 472L584 475M581 484L586 487M394 485L411 491M608 486C607.912 490.262 607.928 496.219 605.258 499.775C601.96 504.169 591.703 506.521 587.938 501.58C585.065 497.808 586 491.438 586 487M355 513C347.212 508.487 339.55 508.688 331 507.245C328.148 506.764 323.354 506.243 322.346 502.885C321.112 498.776 327.191 497.339 330 497.094C337.085 496.476 344.112 499.746 351 498.529C358.629 497.181 364.021 491.684 371 489M450 501C459.533 507.377 474.681 509.079 480.821 520.17C485.705 528.993 479.225 541.504 481.533 551C483.066 557.306 488.389 560.69 492.561 565.17C499.177 572.275 503.338 581.023 511.001 587.192C527.041 600.107 546.384 603.146 563 615C568.432 618.875 576.011 623.269 578.057 630.004C583.244 647.076 569.755 668.152 559.881 681C534.499 714.03 497.153 746.549 453 747.957C432.186 748.621 414.028 736.944 407.101 717C403.143 705.604 406.328 684.351 390 683M278 509C278.352 551.512 313.047 587.772 344 612.116C349.436 616.391 357.676 620.666 361.795 626.034C363.625 628.42 366.427 634.793 370.001 634.793C375.044 634.794 379.002 625.276 385 624.224C419.477 618.176 454.695 615.619 489 609M581 509C581.001 521.404 585.581 526.79 597 531.663C604.385 534.814 613.945 535.033 614.894 545C616.267 559.416 610.373 575.356 610.015 590C609.015 630.791 612.128 671.408 614.911 712C616.349 732.984 615.563 758.981 622 779M349 551L353 555M200 637C199.668 620.891 190.309 601.904 195 586C207.873 596.358 220.05 599.885 235 606.231C239.462 608.125 246.82 611.391 247.338 617C247.976 623.919 235.899 628.285 231 630.752C226.395 633.071 221.783 635.096 217 637M84 588C97.654 599.456 129.132 609.021 132.522 630C134.075 639.612 116.061 649.806 108.43 643.296C103.552 639.134 102.641 628.808 100.664 623C97.0781 612.467 90.4001 602.333 86 592M467 592L478 596M166 604C166.189 613.141 169.183 621.903 169.914 631C170.266 635.368 169.843 640.664 174 643L176 640M101 607L99 619M357 608L358 621M485 611C473.622 633.606 443.455 654.523 419 659.486C409.432 661.428 399.056 657.348 390 660L399 683C409.43 679.917 421.182 683.346 431 687.051C434.155 688.242 440.541 690.044 441.079 694.079C441.609 698.052 435.902 700.399 433 701.535C422.895 705.49 414.549 702.317 406 697M110 643L117 639M109 645L110 652M373 651L390 660M143 714C164.15 708.964 187.439 712.22 209 708.196C219.239 706.285 234.353 701.852 244 707L232 714M190 720L194 757M638 822C623.123 822.01 608.973 824.435 594 822.826C580.507 821.377 567.163 816.768 554 813.654C547.835 812.196 533.307 812.701 528.603 808.972C524.658 805.844 528.126 794.223 528.729 790C531.57 770.114 518.14 760.809 514.569 743.001C513.626 738.301 518.242 735.164 522 733.533C537.305 726.891 551.591 739.906 564 746.826C570.073 750.213 577.482 752.471 584 754.934C590.321 757.324 599.744 755.346 605 758.607C611.184 762.443 615.158 769.727 620 775M148 768C171.335 769.002 194.156 764.119 217 759.335C229.794 756.655 242.857 752.036 256 752M1121 762L1130 754M902 796C904.548 805.759 912.232 807.506 919.985 801.467C930.514 793.266 938.422 773.795 953 771.591C958.854 770.706 962.663 777.148 965.92 780.996C972.758 789.076 982.363 802.737 994 802.656C1013.96 802.516 1024.31 778.597 1039 768.699C1048.43 762.346 1063.56 764.486 1074 767M662 795L687 812M519 808L526 810M520 809L523 816L526 810M1039 815C1024.33 829.706 1003.63 859.492 979 855.671C968.644 854.064 958.369 837.867 949 839.161C936.515 840.884 929.594 869.991 913.016 854.893C910.738 852.818 908.859 850.44 907 848M523 816C521.225 822.8 506.615 833.958 509.175 841.011C514.451 855.548 539.611 860.17 533.789 880C527.322 902.029 513.079 930.597 499.39 949C489.928 961.721 479.097 972.525 470.345 986C467.067 991.047 461.794 997.836 461.303 1004C460.454 1014.67 467.348 1028.05 470.667 1038C472.844 1044.53 472.933 1052.52 477 1058C485.792 1049.73 493.888 1041.26 505 1035.99C508.517 1034.32 518.807 1034.6 520.303 1030.68C521.856 1026.62 517.686 1018.76 516.139 1015C512.201 1005.44 507.25 994.649 509.379 984C511.966 971.059 521.625 961.752 526.576 950C539.214 920.002 548.23 882.806 537.667 851C534.058 840.133 530.025 829.391 521 822M528 825C548.617 828.088 566.717 837.008 588 837C597.058 836.997 610.523 833.758 615 825M508 836L513 830M508 841C496.481 852.551 486.857 865.679 475 876.96C462.497 888.855 449.795 897.598 440.876 913C431.712 928.825 425.293 953.706 428.72 972C431.87 988.819 443.452 1007.84 452.073 1022C458.407 1032.41 463.465 1043.08 472 1052M898 905C912.146 905.463 909.594 930.203 924.001 932.771C940.146 935.648 943.58 915.065 957 914.055C964.223 913.511 971.964 914.033 977.907 918.638C985.625 924.619 987.752 933.962 999 934.892C1017.78 936.445 1023.18 917.623 1038 911.693C1046.59 908.254 1060.04 914.849 1070 913M521 1031L524 1034M1099 1053C1089.74 1065.14 1083.92 1078.92 1072.99 1090C1069.63 1093.4 1064.41 1099.36 1059 1098.57C1052.05 1097.57 1043.99 1085.29 1040 1080M480 1122C477.71 1114.66 482.094 1104.29 486 1098C491.52 1106.59 496.846 1114.79 508 1116C507.521 1106.76 500.64 1098.77 496.125 1091C494.419 1088.06 491.059 1084.67 491.708 1081C494.308 1066.29 517.515 1050.93 531.907 1058.07C536.566 1060.38 539.75 1067.19 543.171 1071C551.241 1079.98 560.047 1088.73 569 1096.83C588.151 1114.16 609.619 1127.87 629.999 1143.65C645.127 1155.36 658.631 1168.8 675 1178.93C684.707 1184.94 697.041 1186.63 708 1189.37C720.581 1192.52 733.163 1197.26 746 1199.13C750.676 1199.81 763.51 1204.54 767.396 1201.23C770.383 1198.68 768.041 1193.11 767.46 1190C765.6 1180.05 765.668 1168.38 762 1159M477 1058L491 1081M477 1063C466.693 1079.17 464.442 1103.9 478 1119M476 1065C480.558 1073.21 485.383 1088.7 486 1098M375 1107L379 1113C382.628 1107.9 384.948 1102.01 388.705 1097C391.259 1093.59 394.288 1090.53 397.196 1087.42C404.477 1079.66 415.404 1074.27 411.079 1090C408.484 1099.44 402.962 1107.7 398.001 1116C396.179 1119.05 392.831 1123.23 394.216 1127C396.398 1132.94 403.973 1136.42 409 1139.45C420.716 1146.52 432.069 1152.7 443 1161M491 1084L486 1092M998 1147C1002.34 1125.94 1006.19 1104.78 1015 1085C1022.81 1089.55 1023.64 1111.51 1024 1120L1012 1120M1071 1092C1074.25 1097.55 1071.52 1104.66 1072 1111C1072.89 1122.65 1076.22 1137.39 1083 1147M223 1093C225.097 1107.26 234.262 1124.42 225.146 1138C221.203 1143.87 214.367 1148.45 209 1153C203.883 1139.34 202.151 1120.56 201 1106M334 1098C334.201 1107 332.629 1122.82 338.013 1130.58C343.964 1139.16 358.571 1134.24 360 1125M947 1099C961.84 1104.16 972.314 1112.51 983.999 1122.84C987.536 1125.97 994.869 1131.24 993.15 1136.9C990.444 1145.8 957.33 1157.56 970.975 1143.04C972.275 1141.66 973.659 1140.34 975 1139M175 1139C173.577 1144.22 167.169 1155.78 171.604 1160.59C178.968 1168.58 196.518 1151.7 196.387 1144C196.189 1132.46 187.623 1127.99 178 1124.32C174.474 1122.97 164.944 1120.03 165.631 1114.99C166.638 1107.59 181.07 1102.3 187 1100L188 1105M250.418 1101.07C256.078 1097.75 261.008 1108.27 262.687 1112C266.873 1121.29 266.005 1136.02 264.572 1146C264.108 1149.23 263.842 1154.31 260.737 1156.25C256.146 1159.11 253.274 1149.99 252.515 1147C249.613 1135.58 249.759 1123.5 247.521 1112C246.869 1108.65 247.019 1103.06 250.418 1101.07M948 1100C953.054 1121.84 957 1140.32 957 1163M326 1105L334 1106M335 1104L357 1106M316 1108C316.107 1120.91 322.518 1132.81 321.961 1146C321.825 1149.21 321.443 1159.02 316.071 1157.5C307.561 1155.1 306.31 1135.21 297.093 1135.21C287.85 1135.21 293.146 1158.6 286.583 1161.82C282.242 1163.96 280.182 1155.61 279.344 1153C275.848 1142.1 273.032 1129.45 273 1118M842 1109C853.656 1115.63 869.804 1116.72 883 1116.98C891.107 1117.14 897.397 1115.01 905 1119M379 1113C379.049 1126.93 392.658 1146.43 386 1160C377.476 1150.19 375.691 1134.44 378 1122M1039 1113L1025 1121M251 1119L255 1119M498 1119C506.011 1125.52 516.939 1132.96 522.201 1142C525.947 1148.44 526.023 1158.75 528.344 1166C535.725 1189.04 541.428 1207.74 543.089 1232C546.776 1285.84 538.764 1340.34 535.089 1394C532.285 1434.95 534.753 1476.07 532.961 1517C531.968 1539.67 535.934 1565.8 532.161 1588C529.784 1601.99 528.401 1615.99 526.08 1630C525.246 1635.04 522.078 1643.79 523.773 1648.72C525.099 1652.58 533.604 1653.5 537 1655M1025 1121L1029 1147M868 1122L871 1172M230 1129L238 1159L240 1151M338 1132C338.293 1138.73 339.655 1158.98 345.51 1163.11C350.291 1166.48 368.112 1159.39 373 1157M906.303 1134.03C911.66 1130.69 920.58 1138.6 922.82 1143.01C926.35 1149.97 919.484 1163.64 912.985 1166.88C908.301 1169.22 905.224 1164.93 903.714 1161C901.42 1155.03 899.734 1138.13 906.303 1134.03M525 1143C539.565 1151.78 549.964 1170.04 562.001 1182C578.854 1198.73 598.344 1210.35 619 1221.69C634.753 1230.33 653.591 1238.04 671 1242.52C690.861 1247.64 713.589 1250.91 731 1262C718.133 1273.08 724.657 1304.25 729.044 1319C730.506 1323.92 733.138 1328.3 737.04 1331.67C748.131 1341.25 763.578 1342.12 771.637 1356C784.602 1378.34 784.219 1407.78 790 1432M765 1161C780.372 1168.51 776.175 1173.53 774.289 1188C773.664 1192.8 775.992 1202.51 769 1202M771 1204L781 1276M5 1243L6 1263M2 1244L1 1250M1 1259C1.84032 1263.51 1.69526 1267.63 6 1270M787 1404C790.018 1393.79 787.16 1381.41 786.17 1371C784.229 1350.61 783.358 1330.38 780.576 1310C779.634 1303.1 773.872 1280.98 780 1277M7 1278L1 1280M11 1332L12 1351M3 1335C3 1340.58 1.86751 1347.8 4.43364 1352.96C6.5577 1357.22 10.5488 1358.07 13 1354M12 1357L13 1362M10 1368L13 1367M16 1421L16 1432M6 1427C6.71396 1430.85 6.06865 1436.44 8.02778 1439.81C11.1629 1445.21 17.0502 1444.3 19 1439M8 1441L4 1449M800 1449L814 1474M12 1458L19 1457M6 1460L7 1460M665 1473L670 1483M820 1490L823 1499M21 1511L25 1509M824 1515C822.859 1529.83 815.389 1542.97 811.026 1557C803.93 1579.81 798.619 1603.15 791.656 1626C788.631 1635.93 786.532 1646.14 783.33 1656C782.33 1659.08 779.517 1664.49 781.201 1667.68C784.479 1673.9 801.528 1665.72 806 1664M5 1516C14.7469 1517.55 9.46201 1530.92 21 1531M23 1525L24 1525M823 1525C828.94 1534.7 827.27 1550.83 828.089 1562C829.884 1586.49 835.984 1611.49 836 1636M12 1530C9.65757 1535.28 -0.999548 1541.57 7 1546M25 1544L19 1545M12 1546L13 1546M3 1550L7 1550M28 1601L31 1598M5 1610C13.715 1605.96 16.6485 1605.88 21 1615L28 1612M23 1614L32 1618M20 1616C17.7141 1624.27 11.2742 1629.8 4 1634M20 1637L21 1637M837 1642L839 1658M517 1649L522 1651M522 1651L515 1694C524.649 1686.88 534.773 1667.98 536 1656M839 1658C849.422 1661.09 846.392 1686.96 843 1695M781 1669L777 1675M778 1674L797.616 1698L827 1728M515 1694L514 1700M11 1700C9.39772 1700.02 1.90039 1699.94 4.17593 1703.57C6.90063 1707.9 20.5366 1696.84 24.8519 1697.16C30.1531 1697.56 26.5407 1705.63 25.1998 1707.96C20.9464 1715.33 11.7248 1715.1 5 1719M828 1728L837 1722M625 1737L624 1743M789 1748L787 1750M52 1754C43.7348 1765.64 58.5722 1757.96 62.6829 1758.94C65.2818 1759.56 65.4737 1763.9 66 1766M15 1765C20.7831 1761.63 34.6202 1753.98 34 1766" transform="translate(-577.122,-226.816) scale(0.907897,0.326615)"/></svg>