<svg xmlns="http://www.w3.org/2000/svg" xmlns:svg="http://www.w3.org/2000/svg" xmlns:sodipodi="http://sodipodi.sourceforge.net/DTD/sodipodi-0.dtd" xmlns:inkscape="http://www.inkscape.org/namespaces/inkscape" xmlns:xlink="http://www.w3.org/1999/xlink" width="210mm" height="297mm" viewBox="0 0 210 297">
  <sodipodi:namedview/><g inkscape:label="Ebene 1" inkscape:groupmode="layer" id="layer1">
    </g>
<path style="fill:none;stroke:#000000;stroke-linecap:round;stroke-width:5.0" d="M561 91L561 92M606 91L608 91M652 91L653 91M697 91L698 91M744 91L744 92M37 92L38 92M469 92L469 93M788 92L790 92M131 93L133 93M374 93L374 94M421 93L422 93M879 93L880 93M1014 93L1016 93M227 94L230 94M325 94L326 94M818 103C801.675 130.969 785.989 159.639 774.576 190C769.934 202.349 764.11 216.702 764 230C770.001 228.574 774.61 221.897 781 222.253C790.383 222.776 792.326 237.19 794.811 244C802.786 265.86 795.552 286.876 792.576 309C791.778 314.929 787.853 330.509 793.6 334.972C799.536 339.583 815.888 332.371 822 330.333C846.014 322.329 868.694 313.506 894 310C898.788 309.337 916.156 304.74 918.288 311.279C920.142 316.965 909.286 327.438 906.471 332C902.49 338.45 897.976 344.557 894 351M181 141C184.178 144.882 194.18 139.266 199 139.039C215.491 138.264 230.792 138.942 246 146M606 138L608 138M697 138L699 138M37 139L39 139M85 139L85 140M788 139L789 139M834 139L836 139M1015 139L1016 139M63 140C53.544 158.447 45.5616 177.73 35.75 196C32.2195 202.574 23.6161 214.214 24.1944 221.972C24.4872 225.899 39.4085 223.449 42.7222 230C45.6274 235.743 45.287 243.737 46.3889 250C49.3358 266.751 53.4454 283.755 50.6111 301C47.5423 319.672 44.8978 338.397 41.1944 357C40.3892 361.045 36.1114 372.931 41 374M131 140L133 140M421 140L423 140M879 140L880 140M924 140L926 140M970 140L972 140M278 141L279 141M325 141L327 141M140 178L151 164.083L181 144M562 185C559.854 191.797 548.08 192.417 542 191.108C539.811 190.637 534.207 189.911 534.207 186.812C534.207 183.738 538.82 181.448 541 180.054C549.142 174.846 557.282 168.972 566 164.784C609.36 143.954 652.706 162.401 690 186M144 178C171.966 177.923 196.675 160.729 225 168.154C259.992 177.328 297.393 215.4 291.7 255C289.41 270.926 276.469 288.923 265.075 299.7C248.626 315.258 230.133 326.001 207 326C197.728 325.999 188.57 325.278 182 318L203 313.03L216.274 300.328L226 301.627L252 310M562 188C583.303 186.14 600.616 171.878 623 180.093C654.361 191.604 669.997 222.687 675.465 253C676.79 260.349 681.995 266.794 682.867 274C684.836 290.282 672.944 306.145 662 316C679.381 330.815 700.353 340.503 709.546 363C719.566 387.519 710.94 409.615 699.424 432C681.615 466.616 662.3 501.788 637.535 532C614.549 560.042 583.585 596.369 543 580.2C536.275 577.521 529.777 575.705 525 570C536.838 566.403 554.632 567.018 563.397 556.53C570.553 547.968 560.773 534.402 552 532.387C532.398 527.883 514.664 532.63 497 541M653 184L653 185M699 184L699 185M607 185L608 185M743 185L744 185M789 185L789 186M85 186L85 187M468 186L470 186M834 186L836 186M1015 186L1016 186M132 187L134 187M375 187L375 188M422 187L423 187M925 187L926 187M970 187L971 187M181 188L182 188M230 188L231 188M278 188L279 188M326 188L328 188M426 334L430 341C427.86 342.028 424.729 343.459 423.137 340.562C421.313 337.245 425.949 334.396 424.883 330.911C422.437 322.914 415.781 314.058 411.305 307C391.705 276.096 393.818 209.487 442 208.259C471.833 207.499 483 237.393 483 262C483 288.866 478.848 313.721 473.551 340C470.907 353.115 464.912 369.638 468.724 383C471.077 391.25 485.458 405.313 494 406.768C501.704 408.079 511.346 405.139 519 403.996C529.364 402.449 539.605 398.78 549 394.259C555.7 391.034 563.214 393.348 569 390.526C576.302 386.966 580.821 378.982 587 374M23 225C14.5838 241.652 12.1045 260.756 15.4244 279C17.3867 289.784 22.4529 298.658 21.9606 310C20.7592 337.682 8.79269 362.53 10.0394 391C11.2245 418.066 21.7071 444.641 32.6883 469C45.7298 497.929 60.4343 525.454 78 552M2 244C4.8018 237.992 12.8082 228.593 20 231M653 231L653 232M699 231L700 231M763 231L750 245.001L727.421 273L719.172 288.303L729 287.601L760 283M517 232L517 233M561 232L563 232M608 232L609 232M743 232L744 232M86 233L86 234M470 233L471 233M834 233L835 233M880 233L881 233M1015 233L1016 233M38 234L39 234M422 234L423 234M181 235L183 235M230 235L231 235M279 235L279 236M326 235L328 235M763 238C764.25 253.834 771.377 268.012 770.985 284C770.519 303.032 762.983 321.951 761.17 341C758.129 372.951 764.671 402.044 775.078 432C780.943 448.883 792.666 463.3 802.485 478C823.913 510.083 845.501 539.724 870.572 569C884.936 585.773 899.004 606.935 923 609.816C934.485 611.194 946.109 608.373 957 605.025C968.695 601.429 980.898 598.069 991 590.83C1006.41 579.789 1015.97 563.553 1026.18 548C1035.1 534.408 1045.11 521.221 1053 507M563 278L563 279M608 278L609 278M652 278L654 278M698 278L700 278M743 278L745 278M790 278L790 279M517 279L518 279M834 279L836 279M1015 279L1016 279M40 280L40 281M137 290C149.808 288.989 163.163 286.137 176 286.308C180.957 286.374 184.959 290.935 189.941 290.381C193.641 289.97 193.464 286.821 193 284L232 280M470 280L471 280M925 280L926 280M970 280L972 280M133 281L135 281M376 281L376 282M327 282L328 282M180 286L192 283M579 294L651 289M744 288C742.648 295.264 747.722 300.606 752 306M630 290L630 300L605 292M194 291L213 299M195 293C195.222 297.783 196.227 300.932 200 304L204 295M636 303C638.589 299.066 641.331 301.047 644 304C639.619 305.301 634.441 304.011 631 301M645 306C647.629 309.853 655.068 310.379 656.387 315.142C657.349 318.613 652.357 320.662 649.999 321.891C642.783 325.652 634.204 329.322 626 329.91C623.509 330.088 614.964 330.584 616.346 325.931C619.332 315.876 637.953 316.699 644 309M257 309C263.141 313.104 270.651 314.377 277 318.323C295.625 329.9 312.036 344.04 328 358.911C336.246 366.591 345.802 374.399 350.471 385C357.103 400.057 354.66 421.84 354.66 438C354.66 468.854 350.986 502.65 340.921 532C338.866 537.995 325.869 557.999 331 562M658 316L662 316M698 325L700 325M744 325L746 325M516 326L518 326M880 326L880 327M1015 326L1016 326M40 327L40 328M470 327L471 327M927 470C908.037 471.497 884.379 478.945 871.573 494.301C863.302 504.218 886.869 517.339 895 518.667C903.341 520.03 911.436 514.563 918 510.204C932.876 500.326 947.327 489.666 959.996 476.996C965.043 471.949 974.703 463.143 973.162 455C970.968 443.408 958.843 443.598 951.089 439.016C946.53 436.322 941.963 431.569 938 428C944.118 423.911 951.743 423.036 959 423.001C961.921 422.987 968.056 424.102 970.093 421.397C972.171 418.636 968.968 414.233 967.426 412.001C962.216 404.46 954.499 399.302 946 396.066C938.207 393.098 929.896 392.471 922 389.971C911.597 386.678 901.794 381.683 891 379.612C873.939 376.338 853.376 374.523 838 366C849.538 349.621 866.336 337.745 885 331.974C892.143 329.766 899.625 326.206 907 329M924 327L926 327M970 327L971 327M86 328L88 328M134 328L135 328M377 328L377 329M422 328C413.484 332.646 408.19 338.248 421 342M182 329L184 329M327 329L329 329M426 330L437 330M1 330C3.75074 339.222 8.55802 335.386 16 335M411 338L401 333L412 331M386 333L401 333M7 339L12 347M431 342L439 340C445.257 361.838 414.618 351.772 406 356C413.58 365.948 423.604 373.22 426.471 386C430.104 402.193 420.822 419.601 421.259 436C422.071 466.419 437.048 493.9 456.084 517C462.623 524.935 470.338 534.909 480 539C480.067 527.087 468.321 517.562 472 505L481 512C485.211 504.094 487.318 494.539 494.104 488.214C511.063 472.406 539.587 486.5 559 487.015C569.271 487.287 580.998 492.53 590 497.263C592.88 498.777 598.615 501.761 596.963 505.896C594.87 511.134 584.729 512.933 580 514.576C564.261 520.044 542.166 519.381 529 530M416 342L420 348L421 342M791 345C793.848 353.752 797.483 368.383 808 370.69C818.067 372.898 825.366 363.852 835 372M1 347L12 347M584 374C574.8 372.561 563.073 377.123 554 379.115C535.302 383.221 514.943 388.183 496 383.985C489.165 382.47 464.957 366.02 477 359M2 360L8 370M471 361L473 361M833 369L837 367M2 374L8 370M833 370C825.199 376.751 818.521 383.55 811 373M654 371L654 372M699 371L701 371M745 371L746 371M791 371L791 372M518 372L518 373M562 372L563 372M880 373L882 373M925 373L926 373M970 373L971 373M87 374L88 374M469 374L472 374M37 375C34.6371 393.599 22.2469 424.148 41 438C44.2587 430.834 40.8735 418.751 40 411M134 375L136 375M184 375L184 376M376 375L377 375M231 376L233 376M279 376L281 376M327 376L329 376M41 412C45.4839 415.728 49.4636 422.361 55 424.397C69.5875 429.76 87.3094 409.024 100 404.548C118.27 398.104 145.96 397.565 163.98 405.018C173.277 408.863 162.755 420.517 158.816 425C148.215 437.062 129.54 454.43 113 457M653 418L655 418M699 418L700 418M746 418L747 418M790 418L792 418M518 419L518 420M562 419L565 419M836 419L837 419M1015 419L1016 419M472 420L472 421M925 420L926 420M87 421L89 421M972 422C982.925 422.628 993.012 420.606 1004 422.808C1022.14 426.444 1038.54 439.284 1053 450M135 422L137 422M329 422L329 423M232 423L233 423M973 423C972.979 430.587 972.26 437.141 965 441M923 428C909.961 438.713 890.558 444.277 875 450.45C864.774 454.507 855.405 459.909 845 463.56C836.099 466.684 819.805 468.102 821.618 454.152C822.002 451.195 824.764 451.518 827.005 452.059C834.743 453.925 842.035 456.098 850 453.985C871.383 448.311 889.1 433.403 910 427.924C918.853 425.604 928.974 427.814 938 428M1 430C1.13877 480.29 36.4656 531.315 63 572C70.9651 584.213 82.789 609.374 98 613L92 588C95.7816 589.952 102.599 598.736 106.737 598.079C111.062 597.393 113.902 582.535 116.557 579.004C124.066 569.016 140.298 566.995 152 569.681C166.154 572.929 181.535 585.07 193 593.665C195.917 595.852 204.79 601.101 202.168 605.721C199.575 610.293 186.774 610.941 182 612.29C161.472 618.091 142.516 624 121 624M903 474C894.445 469.435 871.408 476.122 866.176 465.665C864.366 462.048 882.889 459.734 886 458.576C898.081 454.077 907.923 444.35 920 440.623C929.034 437.834 939.888 441.299 948 438M42 439C45.6688 445.724 57.8651 447.646 65 447.961C83.4172 448.773 114.839 429.667 131 445M44 443L58 514M816 446L822 451M857 460L865 463M655 464L655 465M701 464L701 465M746 464L747 464M564 465L565 465M1016 465L1017 465M517 466L519 466M880 466L882 466M42 467L42 468M472 467L473 467M136 468L137 468M184 469L186 469M232 469L234 469M281 469L282 469M329 469L330 469M747 510L747 511M610 511L611 511M700 511L702 511M791 511L793 511M837 511L838 511M519 512L519 513M927 512L928 512M972 512L973 512M43 514L43 515M90 514L90 515M425 514L426 514M137 515L138 515M186 515L186 516M330 515L330 516M378 515L379 515M233 516L234 516M282 516L283 516M480 539C493.617 553.671 505.91 562.304 524 570M701 557L703 557M747 557L748 557M837 558L838 558M882 558L884 558M518 559L520 559M472 560L473 560M89 561L91 561M328 561C310.335 582.483 301.049 610.427 281.907 630.996C262.024 652.361 227.525 662.392 200 669.374C192.002 671.403 181.357 676.628 173 675.272C168.396 674.524 164.631 670.651 161 668.011C151.418 661.043 139.383 653.273 132 644C145.483 637.519 162.021 646.889 176 641.37C191.899 635.093 189.463 624.686 173 623.076C167.434 622.531 161.34 622.578 156 621M185 562L187 562M233 562L235 562M282 562L283 562M702 603L703 603M748 603L749 603M566 604L566 605M611 604L612 604M656 604L657 604M838 604L840 604M1018 604L1019 604M520 605L520 606M928 605L930 605M472 606L474 606M425 607L427 607M138 608L139 608M330 608L332 608M378 608L379 608M98 613L102 617M126 643L131 644M704 649L704 650M613 650L613 651M657 650L659 650M749 650L750 650M794 650L795 650M840 650L841 650M1021 650L1020 651M566 651L567 651M929 651L931 651M974 651L976 651M519 652L521 652M1 653L1 654M427 653L427 654M473 653L474 653M91 654L92 654M379 654L380 654M186 655L188 655M283 655L284 655M330 655L332 655M658 696L660 696M704 696L705 696M750 696L751 696M794 696L796 696M1021 696L1022 696M566 697L568 697M930 697L932 697M975 697L977 697M520 698L522 698M1 699L1 700M473 699L475 699M91 700L93 700M380 700L380 701M426 700L427 700M235 701L237 701M283 701L285 701M332 701L333 701M769 1007C770.841 999.266 771.096 989.799 765 984C760.2 994.422 771.531 1007.67 763.941 1016C755.464 1025.3 744.122 1029.16 733 1034.23C704.029 1047.45 676.917 1055.13 645 1049.39C636.402 1047.84 616.463 1048.65 611.438 1040.94C605.593 1031.98 608 1018.19 608 1008C608 983.073 612.166 951.486 597 930L586 943C581.519 931.124 584.708 914.593 578.836 904.043C575.406 897.883 568.002 899.052 563.379 894.606C554.808 886.362 549.925 873.95 541.83 865C536.636 859.257 514.917 845.771 517.002 837C518.271 831.664 524.211 827.129 527.487 823C535.491 812.911 543.903 803.219 551.765 793C572.012 766.683 594.121 742.22 625 728.312C633.944 724.283 643.656 723.236 653 720.573C663.452 717.593 674.027 714.283 685 714.015C703.195 713.569 718.51 721.627 736 722.91C751 724.01 765.924 721.146 781 723.3C796.685 725.541 808.32 733.01 821 741.795C831.063 748.767 843.287 752.085 853 759.529C874.353 775.892 890.997 808.077 891 835L887 835M705 742L706 742M796 742L796 743M568 743L568 744M613 743L615 743M840 743L842 743M885 743L887 743M931 743L933 743M977 743L978 743M1021 743L1023 743M522 744L522 745M474 745L476 745M1 746L2 746M45 746L47 746M427 746L428 746M140 747L141 747M188 747L189 747M237 747L237 748M332 747L333 747M797 788L797 789M613 789L615 789M659 789L660 789M841 789L843 789M886 789L888 789M933 789L933 790M978 789L978 790M1022 789L1024 789M567 790L569 790M1 792L2 792M46 792L48 792M93 792L94 792M427 792L429 792M140 793L142 793M188 793L190 793M332 793L334 793M238 794L239 794M285 794L286 794M706 834L706 835M751 834L751 835M797 834L797 835M615 835L615 836M842 835L843 835M979 835L979 836M1023 835L1025 835M568 836L570 836M892 836L880.059 917L875.661 974L871.825 991.683L860 996.309L830 1011M477 837L477 838M2 838L3 838M48 838L49 838M94 838L95 838M428 838L430 838M141 839L143 839M334 839L334 840M381 839L382 839M237 840L239 840M286 840L287 840M661 956L690 944C675.343 936.178 654.869 948.167 641.043 935.786C626.127 922.429 628.587 893.168 643 881.804C667.775 862.271 705.531 847.998 737 848C748.395 848.001 771.125 848.774 776.782 861.004C780.383 868.79 775.6 884.321 773 892M880 926C870.615 925.571 863.056 919.838 854 918.326C840.165 916.015 824.98 919 811 919C804.239 919 794.093 919.945 790.179 912.895C777.759 890.525 811.231 878.077 827 878.001C842.954 877.924 864.262 880.035 873.867 895.004C877.616 900.847 876.756 908.014 880 914M661 881L662 881M706 881L708 881M751 881L753 881M797 881L798 883M569 882L570 882M934 882L935 882M979 882L981 882M523 883L524 883M3 884L4 884M48 884L49 884M430 884L430 885M476 884L478 884M142 885L143 885M190 885L191 885M239 885L239 886M334 885L335 885M381 885L383 885M286 886L287 886M62 920C84.2486 935.996 102.796 956.184 124 973.389C140.921 987.118 161.51 998.713 174 1017M661 927L662 927M706 927L708 927M752 927L754 927M797 927L799 927M570 928L570 929M615 928L616 928M888 928L890 928M934 928L936 928M980 928L981 928M1025 928L1026 928M523 929L525 929M4 930L5 930M48 930L50 930M477 930L478 930M143 931L144 931M240 931L240 932M335 931L336 931M382 931L383 931M287 932L288 932M736 951C741.506 950.916 751.032 962.306 750.814 968C750.469 977.014 743.614 978.274 738.515 971.995C736.687 969.745 735.113 967.291 733.335 965C730.767 961.691 728.099 958.635 726 955L735 951L708 942L736 940M86 941C89.0683 949.093 98.8012 966.558 108 959M90 942L88 944M586 943C586.108 953.43 589.791 963.074 595 972C601.328 965.798 594.626 955.238 588 952M726 955C713.828 953.462 700.801 957.757 695 945L707 942M690 944L694 944M758 945L758 947M741 951C747.07 949.685 765.27 951.099 766.512 959.018C767.787 967.155 761.16 975.224 765 983M156 999C163.255 985.969 173.559 975.195 182.025 963C183.923 960.265 188.342 952.168 192.683 954.176C197.574 956.439 194.238 969.012 193.718 973C191.757 988.059 187.238 1002.15 184.46 1017C183.574 1021.74 184.663 1030.66 181.972 1034.57C179.363 1038.36 172.732 1036.89 169 1036.2C160.663 1034.64 152.248 1033.1 144 1031.11C141.032 1030.4 136.486 1028.15 133.495 1029.56C128.62 1031.86 124.302 1040.87 120.855 1045C109.382 1058.74 98.7251 1077.86 83.9853 1088.31C72.652 1096.35 53.4035 1101.51 50.3796 1117C48.076 1128.8 60.5742 1139.26 69 1145.29C94.0568 1163.24 128.724 1152.25 158 1153.01C178.871 1153.56 177.73 1176.68 169 1190M667 954C674.129 957.785 688.235 954.849 696 953M99 961C95.5013 965.586 91.2228 972.939 97 977M225 965C229.659 969.45 236.666 969.175 241.891 972.843C248.344 977.372 250.938 992.587 251 1000C242.014 993.67 228.233 979.356 227 968M752 967L761 977M595 972L588.219 996.911L594.895 1006L600.91 1024L596.225 1049L598 1067M708 973L709 973M845 973L845 974M615 974L617 974M662 974L663 974M889 974L891 974M981 974L982 974M1026 974L1027 974M93 975C89.7704 979.576 81.4906 992.242 82.8164 997.946C84.8382 1006.64 98.8411 1005.77 105 1007.7C109.208 1009.02 112.535 1011.33 117 1012M525 975L525 976M570 975L578 979C578.611 984.963 581.544 993.073 587 996M478 976L479 976M143 977L145 977M336 977L336 978M383 977L384 977M430 977L432 977M287 978L289 978M567 978L569 978M579 978L592 978M156 999L136 1027M587 1000L593.102 1029L597 1046M252 1001C255.153 1006.92 262.99 1009.22 269 1011.41C286.481 1017.79 303.606 1017.56 322 1018.01C356.179 1018.85 401.649 1045.86 410 1081C403.744 1079.79 398.957 1075.26 393 1073.09C380.333 1068.47 365.26 1067.1 352 1069.46C345.014 1070.71 337.623 1072.17 331.005 1074.75C329.081 1075.5 325.432 1076.96 326.346 1079.7C327.292 1082.54 332.677 1084.4 335 1086C328.388 1094.09 324.835 1101.29 328 1112C341.33 1102.54 348.772 1108.96 363 1111.62C368.703 1112.68 374.185 1110.09 379.91 1112.14C388.039 1115.06 395.187 1132.89 393.787 1141C383.439 1200.92 338.762 1241.44 298 1282C281.006 1298.91 254.053 1324.32 229 1326.83C220.089 1327.72 203.277 1326.23 196.043 1320.57C190.655 1316.36 189.082 1307.36 181.996 1305.43C168.799 1301.84 154.79 1317.68 143 1314.3C138.293 1312.95 134.344 1307.34 131 1304M252 1005C251.249 1014.52 250.098 1020.79 256.159 1029C258.929 1032.75 269.419 1038.26 268.979 1043.04C268.511 1048.13 262.125 1052.58 258.729 1055.8C250.632 1063.49 242.863 1072.09 236.13 1081C227.034 1093.03 221.849 1105.96 214.687 1119C211.039 1125.64 205.063 1131.01 202.105 1138C199.567 1144 203.333 1150.71 200.138 1155.96C194.45 1165.31 183.478 1173.88 176 1182M98 1008L99.9383 1020.31L108 1021.77L131 1028M768 1013L771 1017M709 1019L709 1020M754 1019L754 1020M616 1020L618 1020M663 1020L664 1020M845 1020L846 1020M890 1020L892 1020M1027 1020L1027 1021M337 1021L337 1023M526 1021L526 1022M937 1021L938 1021M5 1022L6 1022M50 1022L51 1022M478 1022L480 1022M144 1023L145 1023M192 1023L193 1023M384 1023L385 1023M431 1023L433 1023M240 1024L241 1024M288 1024L289 1024M686 1152C679.386 1153.23 660.555 1158.75 658.345 1166.21C657.238 1169.94 664.828 1179.13 666.396 1183C672.423 1197.88 674.868 1228.66 698 1224.06C725.681 1218.56 750.458 1186.7 767.197 1166C771.85 1160.25 782.865 1152.23 784.655 1145C786.708 1136.72 764.282 1132.11 768.172 1122.09C771.13 1114.48 791.34 1108.2 798 1102.99C813.549 1090.8 823.569 1073.38 835.576 1058C840.964 1051.1 846.918 1041.77 855 1038C857.175 1050.91 850.732 1067.23 848.424 1080C842.645 1111.97 836.355 1143.81 831.87 1176C830.302 1187.25 823.854 1206.15 827.728 1217C830.939 1225.99 839.162 1234.39 843.68 1243C850.83 1256.63 855.815 1271.45 860.667 1286C862.114 1290.34 869.898 1306.32 866.868 1310.29C863.464 1314.75 848.45 1301.18 846 1298.91C832.563 1286.48 818.533 1264.13 801 1258.5C798.003 1257.53 788.361 1252.22 785.697 1254.14C782.787 1256.23 787.736 1265.5 788.703 1268C794.353 1282.59 796.872 1297.92 800.732 1313C811.596 1355.47 817.681 1400.4 821.83 1444C822.984 1456.13 823.851 1468.83 823.996 1481C824.092 1489.06 822.705 1498.24 825 1506C836.543 1497.24 847.524 1488.19 861 1482.43C877.371 1475.43 896.168 1472.71 908.816 1458.96C917.127 1449.93 919.419 1437.48 922.37 1426C925.164 1415.13 930.717 1402.14 930.946 1391C931.171 1380.07 925.267 1366.36 921.833 1356C916.9 1341.12 906.221 1322.5 889 1320M607 1045L611 1045M596 1058C582.96 1077.74 601.373 1090.56 614.999 1101.45C625.891 1110.16 630.973 1117.28 646 1118.83C655.484 1119.8 660.481 1112.32 669 1111.26C675.116 1110.5 683.977 1115.51 686.623 1121.07C689.136 1126.36 681.575 1128.13 678 1129.33C669.37 1132.24 660.751 1135.33 652 1137.86C649.585 1138.56 644.552 1139.2 643.997 1142.28C640.715 1160.48 668.724 1150.14 676 1154M709 1065L709 1066M755 1065L755 1066M801 1065L801 1066M618 1066L618 1067M663 1066L664 1066M845 1066L846 1066M891 1066L892 1066M571 1067L573 1067M937 1067L938 1067M982 1067L983 1067M6 1068L7 1068M52 1068L52 1069M525 1068L527 1068M145 1069L146 1069M432 1069L433 1069M193 1070L194 1070M289 1070L290 1070M273 1105C284.114 1112.56 294.698 1118.25 308 1121C313.665 1106.51 308.187 1096.66 301 1084L325 1078M286 1079L300 1083M336 1086C351.096 1089.41 362.237 1094.97 376 1102.22C381.885 1105.32 388.391 1107.03 393 1112L387 1116M393 1112L395 1112M755 1112L756 1112M800 1112L802 1112M846 1112L847 1112M572 1113L574 1113M937 1113L939 1113M982 1113L984 1113M1028 1113L1029 1113M526 1114L528 1114M98 1115L99 1115M146 1115L147 1115M338 1115L338 1116M384 1115C362.987 1129.04 332.163 1126.78 309 1122M432 1115L434 1115M479 1115L481 1115M242 1116L243 1116M629 1117C630.232 1123.39 636.597 1138.9 643 1141M633 1141L638 1141M710 1158L712 1158M756 1158L757 1158M801 1158L803 1158M893 1158L893 1159M619 1159L620 1159M938 1159L939 1159M983 1159L984 1159M1028 1159L1030 1159M8 1160L8 1161M53 1160L54 1160M482 1160L482 1161M527 1160L529 1160M433 1161L435 1161M242 1162L244 1162M290 1162L292 1162M339 1162L340 1162M666 1204L667 1205M712 1204L713 1204M757 1204L758 1204M802 1204L803 1204M621 1205L621 1206M848 1205L849 1205M893 1205L895 1205M984 1205L985 1205M1029 1205L1030 1205M575 1206L576 1206M53 1207L54 1207M100 1207L101 1207M435 1207L435 1208M481 1207L483 1207M195 1208L196 1208M243 1208L245 1208M291 1208L293 1208M339 1208L341 1208M387 1208L388 1208M14 1231C22.096 1232.44 28.2961 1237.35 34 1243L11 1242M29 1236C37.7731 1236.18 46.3059 1238.3 55 1238.91C62.7556 1239.45 70.3325 1237.14 78 1237.61C92.1255 1238.47 107.775 1243.8 121 1248.56C127.929 1251.06 135.87 1251.81 142 1256.11C151.385 1262.69 179.81 1291.6 160 1302C158.105 1295.76 159.82 1286.08 154.772 1281.4C150.011 1276.98 143.67 1279.55 138 1279.91C124.481 1280.77 106.773 1276.23 94 1280L118 1295M35 1245L52 1254.25L94 1281M714 1250L714 1251M804 1250L804 1251M667 1251L668 1251M783 1251L785 1253M894 1251L895 1251M939 1251L940 1251M985 1251L985 1252M1029 1251L1030 1251M9 1252L9 1253M43 1252C43.7003 1267.33 50.693 1291.93 64.0008 1300.86C73.9472 1307.54 91.3933 1309.98 103 1313.75C113.721 1317.22 119.995 1323.71 132 1322M530 1252L530 1253M575 1252L577 1252M100 1253L101 1253M148 1253L150 1253M482 1253L484 1253M196 1254L197 1254M244 1254L245 1254M292 1254L293 1254M340 1254L341 1254M388 1254L389 1254M64 1356C64 1333.71 58.2268 1315.85 45 1298L58 1296M805 1296L805 1297M713 1297L715 1297M759 1297L760 1297M849 1297L850 1297M894 1297L895 1297M939 1297L941 1297M984 1297L986 1297M1030 1297L1031 1297M43 1298L45 1298M578 1298L578 1299M623 1298L624 1298M9 1299L10 1299M101 1299L102 1299M150 1299L150 1300M530 1299L531 1299M197 1300L198 1300M245 1300L246 1300M293 1300L294 1300M341 1300L342 1300M388 1300L390 1300M436 1300L437 1300M484 1300L485 1300M70 1304C75.6169 1314.99 104.489 1326.65 116 1321M892 1320C920.082 1303.8 956.362 1330.02 972.88 1351C985.08 1366.5 989.585 1387.98 992.753 1407C1000.18 1451.56 996 1497.11 996 1542C996 1558.91 994.584 1576.18 996.281 1593C996.832 1598.46 992.825 1603.77 997 1608L998 1601M714 1343L716 1343M759 1343L761 1343M850 1343L851 1343M895 1343L896 1343M578 1344L578 1345M623 1344L625 1344M669 1344L670 1344M1030 1344L1032 1344M10 1345L11 1345M55 1345L56 1345M531 1345L532 1345M101 1346L104 1346M150 1346L151 1346M197 1346L199 1346M246 1346L247 1346M293 1346L295 1346M342 1346L343 1346M389 1346L390 1346M437 1346L438 1346M484 1346L485 1346M716 1389L717 1389M760 1389L762 1389M805 1389L807 1389M851 1389L852 1389M896 1389L897 1389M942 1389L942 1390M625 1390L625 1391M669 1390L671 1390M11 1391L12 1391M57 1391L57 1392M533 1391L533 1392M579 1391L580 1391M103 1392L104 1392M150 1392L152 1392M391 1392L391 1393M439 1392L439 1393M486 1392L486 1393M247 1393L248 1393M306 1404C325.637 1411.25 327.186 1434.58 320.91 1452C319.539 1455.8 312.104 1462.48 312.631 1465.95C313.442 1471.29 326.71 1477.35 331 1480C339.402 1466.35 343.745 1440.59 339.057 1425C336.777 1417.42 325.029 1408.08 317 1409M807 1435L808 1435M987 1435L987 1436M1032 1435L1032 1436M670 1436L672 1436M717 1436L718 1436M897 1436L898 1436M625 1437L626 1437M57 1438L58 1438M103 1438L105 1438M151 1438L153 1438M392 1438L392 1439M440 1438L440 1439M487 1438L487 1439M532 1438L534 1438M301 1462L311 1465M332 1481C338.445 1492.72 330.211 1504.43 324.742 1515C313.004 1537.68 298.554 1557.17 298 1584M807 1481L808 1481M852 1481L853 1481M897 1481L898 1481M332 1482C323.364 1494.53 315.94 1506.18 305.92 1518C302.469 1522.07 295.803 1525.34 298 1531M671 1482L673 1482M717 1482L718 1482M762 1482L763 1482M942 1482L943 1482M1032 1482L1034 1482M581 1483L581 1484M626 1483L627 1483M12 1484L13 1484M58 1484L59 1484M105 1484L106 1484M201 1484L201 1485M488 1484L488 1485M534 1484L535 1484M248 1485L250 1485M296 1485L298 1485M344 1485L346 1485M392 1485L393 1485M440 1485L441 1485M824 1507C821.264 1512.3 816.732 1516.39 814.478 1522C809.337 1534.8 810.31 1550.62 812 1564M823 1513C823 1530.93 821.343 1551.09 815 1568M854 1527L854 1528M898 1527L900 1528M944 1527L944 1528M673 1528L673 1529M718 1528L719 1528M763 1528L764 1528M1033 1528L1035 1528M296 1529C289.089 1537.35 281.613 1546.75 281.104 1558C280.657 1567.9 284.878 1577.99 284.996 1588C285.171 1602.82 282.76 1617.26 285.424 1632C288.042 1646.49 296.416 1670.1 289 1684C280.894 1673.09 279.094 1657.81 275.575 1645C267.756 1616.54 259.881 1588.54 258 1559M626 1529L628 1529M154 1530L154 1531M581 1530L582 1530M12 1531L14 1531M201 1531L202 1531M249 1531L250 1531M345 1531L347 1531M392 1531L394 1531M487 1531L489 1531M119 1571C133.099 1568.52 147.6 1566.51 162 1566.13C178.729 1565.69 194.8 1568.69 211 1562.95C219.135 1560.06 227.469 1558.14 236 1556.87C238.108 1556.55 242.511 1554.86 244.248 1556.78C246.313 1559.05 242.402 1562.54 240.98 1563.96C236.586 1568.36 224.565 1572.09 224.257 1579C223.704 1591.39 240.214 1584.14 244.052 1591.28C245.617 1594.19 242.723 1596.98 240.988 1599C235.317 1605.59 233.078 1613.02 230 1621M258 1565L246 1591M127 1571C154.182 1587.67 192.724 1591.13 212.641 1619.04C221.922 1632.05 224.083 1648.66 227.199 1664C229.442 1675.04 234.88 1692.79 229 1703M814 1571L814 1572M673 1574L673 1575M718 1574L719 1574M763 1574L765 1574M809 1574L810 1574M854 1574L855 1574M899 1574L901 1574M944 1574L945 1574M988 1574L990 1574M1035 1574L1035 1575M627 1575L628 1575M582 1576L583 1576M154 1577L155 1577M202 1577L203 1577M346 1577L347 1577M393 1577L395 1577M441 1577L442 1577M488 1577L490 1577M296 1592L294 1619M235 1802C223.9 1804.41 230.231 1819.46 227.517 1827C223.39 1838.47 209.656 1848 198 1850.48C172.711 1855.88 169.163 1826.26 154.985 1813.1C128.286 1788.33 79.7714 1798.29 73.3002 1753C71.1091 1737.66 74.8234 1719.1 80.8727 1705C84.0386 1697.62 92.19 1686.3 87.821 1678.04C85.325 1673.33 79.1114 1671.04 75 1667.96C58.9284 1655.96 40.277 1650.81 23 1641C18.4551 1638.42 0.803134 1632.87 4.2963 1626C8.08317 1618.54 17.7743 1614.67 25 1611.58C42.0428 1604.28 61.7281 1597.63 77.8264 1611.53C98.6942 1629.54 102.77 1668.59 99.4244 1694C98.31 1702.46 97.6939 1710.59 93 1718M996 1608L993 1620M719 1620L720 1620M764 1620L766 1620M810 1620L812 1620M855 1620L857 1620M901 1620L902 1620M629 1621L629 1622M674 1621L675 1621M1035 1621L1036 1621M15 1623L15 1624M61 1623L61 1624M107 1623L108 1623M155 1623L156 1623M202 1623L204 1623M251 1623L252 1623M395 1623L395 1624M536 1623L537 1623M490 1624L491 1624M294 1625L292 1641M857 1666L857 1667M902 1666L902 1667M674 1667L676 1667M946 1667L948 1667M991 1667L992 1667M1036 1667L1037 1667M204 1668L204 1669M107 1669L109 1669M155 1669L157 1669M251 1669L253 1669M348 1669L349 1669M444 1669L444 1670M491 1669L491 1670M536 1669L538 1669M15 1670L16 1670M289 1684C289.061 1693.64 291.555 1702.2 290.282 1712C289.887 1715.04 290.212 1719.92 287.436 1721.97C283.749 1724.69 277.638 1721.65 274 1720.32C264.929 1717.01 254.79 1711.86 245 1713.62C218.907 1718.33 207.866 1737.91 188.985 1753.18C182.398 1758.51 173.319 1761.66 167.329 1767.39C165.69 1768.96 161.831 1773.75 164.647 1775.88C167.932 1778.37 177.994 1775.06 182 1775C198.715 1774.78 217.364 1769.32 233 1778C226.757 1785.88 230.75 1792.57 229 1802M255 1713L281.686 1707.51L289 1693M263 1708C266.655 1700.56 276.207 1697.68 284 1697M767 1712L767 1713M675 1713L677 1713M812 1713L813 1713M902 1713L903 1713M947 1713L948 1713M992 1713L993 1713M1038 1713L1038 1714M629 1714L631 1714M109 1715L109 1716M156 1715L158 1715M204 1715L206 1715M301 1715L301 1716M349 1715L349 1716M538 1715L538 1716M584 1715L585 1715M15 1716L16 1716M396 1716L397 1716M443 1716L445 1716M491 1716L492 1716M677 1759L677 1760M722 1759L723 1759M767 1759L768 1759M812 1759L814 1759M858 1759L859 1759M1039 1759L1039 1760M206 1760L206 1761M110 1761L111 1761M253 1761L254 1761M301 1761L302 1761M349 1761L350 1761M397 1761L398 1761M539 1761L539 1762M584 1761L586 1761M16 1762L17 1762M62 1762L63 1762M239 1777L249 1770C249.834 1780.76 240.275 1777.9 233 1778M224 1805L228 1803M678 1805L678 1806M723 1805L723 1806M768 1805L769 1805M814 1805L815 1805M858 1805L860 1805M903 1805L905 1805M949 1805L950 1805M159 1806L159 1807M205 1806L207 1806M110 1807L111 1807M254 1807L255 1807M301 1807L303 1807M350 1807L351 1807M446 1807L446 1808M493 1807L493 1808M539 1807L540 1807M586 1807L587 1807M16 1808L18 1808" transform="translate(-577.122,-226.816) scale(1.29676,0.404918)"/></svg>