<svg xmlns="http://www.w3.org/2000/svg" xmlns:svg="http://www.w3.org/2000/svg" xmlns:sodipodi="http://sodipodi.sourceforge.net/DTD/sodipodi-0.dtd" xmlns:inkscape="http://www.inkscape.org/namespaces/inkscape" xmlns:xlink="http://www.w3.org/1999/xlink" width="210mm" height="297mm" viewBox="0 0 210 297">
  <sodipodi:namedview/><g inkscape:label="Ebene 1" inkscape:groupmode="layer" id="layer1">
    </g>
<path style="fill:none;stroke:#000000;stroke-linecap:round;stroke-width:5.0" d="M558 123C534.891 203.837 497.017 279.273 467.576 358C460.091 378.015 453.314 398.239 448.258 419C446.496 426.233 443.449 437.746 447.434 444.772C451.382 451.733 463.656 446.253 469 444.189C489.905 436.116 509.466 424.212 530 415.14C587.61 389.686 649.797 381.171 712 376.911C734.86 375.345 765.383 372.56 787 381.88C804.48 389.417 799.816 401.157 788 411.271C770.658 426.115 749.746 437.794 730 449.128C673.165 481.752 612.962 504.48 553 530.281C531.991 539.32 511.625 549.323 490 557.319C480.925 560.674 471.742 565.204 462 566M510 721C513.47 733.049 518.567 748.966 524.139 760C526.167 764.017 533.266 770.941 530.867 775.837C527.492 782.727 508.792 773.583 504 771.576C475.796 759.759 459.048 742.348 444.001 716C418.893 672.038 413.358 615.233 400.152 567C391.334 534.794 377.768 500.792 349 481.224C339.96 475.075 326.861 471.583 316 471.104C310.422 470.859 305.523 472.632 300 471C314.028 444.666 332.95 420.245 350.218 396C391.079 338.632 435.099 283.136 478.996 228C495.701 207.018 512.752 186.252 529.119 165C535.57 156.624 542.757 142.121 552 137M119 354C117.173 387.097 105.447 419.358 96.4275 451C89.3431 475.854 84.7351 501.681 79.6003 527C77.9352 535.21 73.3166 545.589 74.3642 554C75.8551 565.97 91.1674 580.368 98.8333 589C101.433 591.927 104.306 597.507 108.09 598.963C112.283 600.577 116.004 594.595 118.285 592C126.757 582.358 134.711 572.31 142.37 562C163.788 533.171 184.567 503.287 198.576 470C204.728 455.381 204.791 436.44 212 423C217.21 430.039 217.773 439.606 219.449 448C222.768 464.616 225.539 481.146 227.17 498C232.926 557.477 236.005 618.203 231.91 678C230.535 698.08 228.638 718.058 225.701 738C224.783 744.229 220.867 757.057 223.987 762.826C227.427 769.187 237.949 775.798 244 779.575C264.322 792.259 287.249 798.532 311 800.83C320.714 801.77 333.213 798.311 342 803C333.326 807.653 320.683 806.963 311 808.05C287.104 810.733 241.828 811.347 227.049 787.985C222.486 780.772 223 773.166 223 765M115 358L118 356M202 379C207.495 391.77 211.711 409.089 212 423M290 476L300 472M688 517C684.957 534.903 673.865 546.167 659 556C654.338 548.012 650.84 539.522 645.36 532C643.433 529.356 638.548 524.869 639.033 521.279C639.651 516.705 653.485 517.303 657 516.714C669.524 514.618 681.534 509.018 693 503.769C699.712 500.697 705.442 496.346 713 496M542 537C554.046 540.036 572.087 530.716 584 527.884C604.093 523.108 624.263 518.108 644 511.974C662.552 506.209 681.443 498.557 701 497M934 803C948.877 776.834 954.866 744.627 963.17 716.015C969.579 693.931 974.464 670.194 976.089 647C977.816 622.365 981.199 590.817 962.711 571.09C947.175 554.513 924.64 555.907 904 555.999C855.197 556.216 804.044 563.952 756 572.614C737.094 576.023 717.754 578.661 699 582.661C695.036 583.507 682.057 588.681 678.912 585.307C669.791 575.522 690.556 566.829 696 563.603C721.781 548.326 747.264 525.761 775 515M683 537L681 551L734 530.28L760 521M676 584C672.54 579.463 661.404 566.225 663.418 560.213C665.044 555.359 675.616 553.039 680 552L679 571M659 556L662 561M556 611L595 592.753L658 559M673 577L677 576M671 578L637 598C646.718 600.666 670.104 592.041 678 586M143 643C136.218 635.231 129.965 627.005 123.486 618.985C121.831 616.937 117.333 613.362 118.346 610.318C119.734 606.142 136.98 605.491 141 604.739C161.08 600.983 180.529 595.345 201 593.911C205.125 593.621 217.248 590.019 220.248 593.564C223.121 596.958 210.261 603.389 208 604.857C192.442 614.957 176.295 623.647 160 632.46C156.169 634.532 145.769 637.794 144.331 642.213C143.227 645.604 147.757 650.472 148.33 654C149.467 660.993 145.887 679.581 140.437 684.473C137.646 686.978 129.619 685.006 126 685C110.721 684.974 94.7568 682.906 80 679M617 606L636 599M99 611L109 602L117 611M106 610L112 609M142 642L81 679M921 832L873.969 926L791.306 1084L744.427 1167L716 1212C678.506 1181.21 692.473 1120.78 704.279 1081C737.173 970.176 805.372 867.858 872.424 775C890.182 750.408 908.019 723.937 928.961 702C934.203 696.509 943.008 682.122 950.996 681.06C958.314 680.087 962.336 694.896 964 700M143 686C146.58 686.03 151.709 685.692 154.397 688.564C156.734 691.062 156.521 696.752 156.83 700C157.762 709.786 158.26 719.329 160.425 729C161.464 733.642 163.663 746.12 170.043 745.893C175.769 745.69 182.345 739.97 187 737.05C191.548 734.197 196.494 731.905 199 727L163 732M139 687C136.585 701.024 127.466 714.978 121.873 728C119.378 733.809 115.415 740.655 117 747L160 734M967 712C975.921 759.351 974.186 807.184 973.015 855C971.417 920.204 969.241 984.184 960.718 1049C955.3 1090.21 943.78 1132.54 942 1174C949.083 1174 968.273 1171.86 972.958 1178.56C976.352 1183.42 969.413 1194.59 967.244 1199C958.073 1217.65 946.657 1235.04 934.655 1252C905.285 1293.49 873.903 1334.05 843.478 1375C821.656 1404.37 799.778 1437 774 1463C829.296 1519.47 811.395 1610.57 849 1675C857.351 1663.71 857.957 1643.58 860.321 1630C865.026 1602.97 870.085 1576.14 874.275 1549C888.682 1455.68 912.397 1363.59 925 1270M200 726L216 720M200 731L221 760M202 738C203.004 750.275 208.753 762.294 212.279 774C219.756 798.827 226.921 823.599 232.339 849C240.508 887.303 245.222 925.962 247.91 965C248.784 977.677 250.038 990.328 250.91 1003C251.301 1008.67 250.025 1016.7 252.106 1021.95C254.527 1028.04 262.436 1034.43 267 1039C278.041 1050.06 288.676 1063.67 302 1072C303.675 1063.85 296.364 1051.22 294.151 1043C287.061 1016.67 274.423 988.09 273 961M754 740C734.45 756.185 709.236 767.572 688 781.667C654.174 804.12 623.426 829.346 593 856C578.514 838.962 562.95 823.045 549.554 805.015C543.448 796.797 536.885 790.61 535 780L594 778.572L757 739M116 746L109 761C128.544 771.888 152.391 776.3 173 785.15C183.067 789.474 194.519 794.31 200.532 804.001C220.467 836.134 191.158 873.796 190.259 907C189.959 918.098 194.133 928.797 197.95 939C208.914 968.309 228.939 996.134 250 1019M252 1026L256.159 1072L257 1100C248.662 1096.75 245.97 1085.62 242.258 1078C232.673 1058.32 222.81 1038.92 213.691 1019C184.757 955.799 148.889 895.316 122.603 831C116.846 816.912 108.541 802.78 104.761 788C102.949 780.916 110.715 766.603 107.096 761.563C105.226 758.958 99.7217 757.853 97 756L112 750M524 752C527.129 756.061 529.258 759.852 528 765M91 756L97 756M532 777L535 780M342 803C360.312 800.686 378.668 799.996 397 797.715C425.949 794.113 455.897 788.751 485 790M543 800L551.116 835L563 883C574.305 878.62 584.485 864.51 593 856M931 809L929 816M927 817L924 828M593 858C595.849 876.231 569.576 899.513 558.711 912C553.984 917.432 542.052 924.316 547 932L493.015 972.235L457 1003.57L393 1047M537 937L543 930M274 963C282.049 966.899 288.084 975.986 295 981.714C310.949 994.922 339.395 1012.05 361 1007.9C378.915 1004.47 391.85 985.8 406 975.489C434.051 955.048 466.465 942.92 500 935.576C510.95 933.177 527.08 928.802 538 932M419 1027C421.965 1020.92 428.867 1017.16 434 1012.92C443.628 1004.96 454.121 998.196 464 990.576C470.923 985.235 479.253 977.691 488 976M302 1072L305 1075M237 1091L249 1095M258 1101C266.626 1098.9 282.563 1107.61 291 1110.81C305.603 1116.34 321.12 1119.44 336 1124.19C344.14 1126.8 353.692 1131.71 362 1132.86C372.416 1134.3 381.056 1130.43 391 1128.45C405.139 1125.63 419.74 1123.48 434 1121.27C488.771 1112.82 551.066 1112.52 599 1144.08C623.195 1160.01 641.133 1182.95 655.138 1208C661.74 1219.81 667.665 1243.32 680.09 1250.29C684.669 1252.85 689.166 1246.82 692 1244C701.722 1234.31 708.734 1222.83 717 1212C732.441 1225.86 755.726 1225.41 775 1222.42C813.913 1216.39 851.509 1203.38 888 1188.8C902 1183.21 925.792 1171.72 941 1175M258 1101C259.598 1108.83 270.237 1113.48 275.91 1118.7C289.332 1131.05 301.397 1145.57 312.5 1160C345.425 1202.8 365.586 1247.77 372.576 1301C375.007 1319.52 374.145 1340.81 369.625 1359C368.46 1363.69 363.012 1376.23 368.318 1379.68C371.362 1381.66 376.493 1381.23 380 1381.73C391.101 1383.31 401.793 1384 413 1384C481.551 1384 524.437 1330.45 583 1304.18C600.99 1296.11 620.114 1296.02 635.996 1308.67C639.733 1311.64 647.999 1318.6 647.605 1323.96C647.149 1330.16 635.445 1330.55 631 1331.45C612.61 1335.16 594.789 1340.06 577 1346C528.33 1362.24 479.863 1381.81 434 1404.75C414.121 1414.7 390.559 1423.9 374 1439L318 1388.83L293 1364M358 1132C352.126 1136.23 342.189 1136.94 335 1137M378 1133L406 1144M940 1176L936.424 1205L927 1258M297 1364L365 1380M365 1380L358 1421M719 1387L693 1398.26L649 1424.45L536 1500.32L501.715 1520.08L481 1529C507.455 1543.11 533.949 1558.84 553.701 1582C562.861 1592.74 569.549 1605.07 578.258 1616C581.001 1619.44 583.787 1625.04 588.015 1626.8C598.39 1631.13 612.219 1619.74 622 1618L606.665 1678L601.098 1715L605.531 1728L589 1764M713 1393C700.286 1405.71 686.044 1416.74 672.985 1429.09C629.331 1470.36 569.834 1530.32 504 1522M494 1521C487.048 1515.39 477.682 1512.9 470 1508.19C453.431 1498.03 433.391 1482.97 421 1468C431.872 1459.07 446.299 1454.4 459 1448.69C496.613 1431.79 536.074 1419.48 577 1416.81C588.862 1416.04 598.91 1410.01 611 1410M570 1415C576.135 1411.24 585.488 1409.53 592 1413M402 1457L382 1442C394.143 1436.16 416.35 1438.85 430 1437.91C457.54 1436.01 484.682 1429.53 512 1426M375 1438L382 1443M623 1617C628.709 1605.41 631.664 1592.06 636.45 1580C651.972 1540.88 671.173 1499.53 702 1470.04C720.065 1452.76 755.266 1438.03 774 1464M774 1464C760.021 1479.19 748.34 1496.47 734.714 1512C715.4 1534.02 694.418 1555.14 673 1575.09C658.89 1588.23 644.154 1603.85 627 1613M420 1468L421 1468M465 1528L481 1528M1055 1711L1055 1741M1070.02 1718.84C1077.47 1717.47 1081.4 1730.42 1073.94 1732.17C1067.52 1733.68 1061.62 1720.39 1070.02 1718.84M1039 1722L1038 1745M1078 1733C1076.78 1739.58 1079.84 1749.05 1077.4 1754.87C1075.46 1759.47 1068.22 1759.26 1067.5 1753.96C1066.67 1747.74 1072.44 1740.46 1073 1734M1073 1738L1076 1738" transform="translate(-577.122,-226.816) scale(0.902831,0.326095)"/></svg>