<svg xmlns="http://www.w3.org/2000/svg" xmlns:svg="http://www.w3.org/2000/svg" xmlns:sodipodi="http://sodipodi.sourceforge.net/DTD/sodipodi-0.dtd" xmlns:inkscape="http://www.inkscape.org/namespaces/inkscape" xmlns:xlink="http://www.w3.org/1999/xlink" width="210mm" height="297mm" viewBox="0 0 210 297">
  <sodipodi:namedview/><g inkscape:label="Ebene 1" inkscape:groupmode="layer" id="layer1">
    </g>
<path style="fill:none;stroke:#000000;stroke-linecap:round;stroke-width:5.0" d="M638 65C652.51 53.9299 683.738 54.093 700 61C693.497 67.1396 680.281 62.9995 672 63C654.052 63.0011 633.927 64.5183 618 73M701 61C715.601 69.9844 735.761 67.1576 749.621 78.9661C756.211 84.5806 761.17 94.0604 766.375 101C776.793 114.891 791.481 131.002 783.121 149.907C779.789 157.441 767.848 160.489 761 163.745C743.788 171.928 725.347 180.737 707 185.96C702.367 187.279 697.593 186.642 693 188C696.549 197.046 705.382 204.152 711.079 212C724.693 230.753 730.72 250.121 726 273C744.552 276.126 757.857 261.331 771 251.235C780.503 243.936 793.014 238.101 798.623 227C804.752 214.867 807 200.421 807 187C807 150.975 806.401 108.341 772 87.8225C765.932 84.2029 759.107 80.6244 752 80M702 63L700 65M477 150L481 163C484.739 160.818 495.351 157.9 496.079 153.039C497.37 144.411 478.56 148.727 475 149C474.683 133.724 463.968 111.172 477.214 98.2632C498.237 77.775 568.428 91.2175 552.045 130C543.926 149.218 515.309 169.215 496 175.899C481.498 180.919 465.217 183.045 453.059 193.518C446.767 198.937 446.07 216.884 450.938 223.61C453.59 227.273 459.099 228.243 463 230M717 141C705.263 141 693.651 142.104 682.001 140.945C677.704 140.518 672.252 136.325 673.789 131.279C675.194 126.665 686.884 124.425 691 124.086C708.482 122.645 721.217 125.014 738 129M581 151C595.406 148.521 606.587 140.052 620 134.965C638.748 127.855 660.989 124.013 681 124M677 140C669.876 143.802 660.83 141.329 653 143.015C644.429 144.859 636.973 150.417 629 152.267C621.35 154.042 604.676 150.849 598 147M449 206C464.587 209.702 478.536 219.378 494 223.964C509.443 228.543 544.449 222.861 542.906 248C542.692 251.488 541.595 254.741 540.413 258C538.71 262.693 537.247 267.548 535 272C524.638 264.373 518.255 253.3 506 247.796C486.698 239.126 473.072 249.485 455 253.941C449.934 255.191 445.623 250.248 441 252.619C433.524 256.453 430.056 264.99 423 269C421.629 262.672 423.39 255.555 422.91 249C422.409 242.176 419.658 235.86 421.955 229C427.914 211.207 443.358 197.664 453.146 182C456.691 176.327 454.048 170.499 458 165L450 160C455.367 153.897 466.37 152.165 474 150M631 152L668 170.667L693 188M603 236C618.984 255.694 634.828 271.38 657 284.128C683.84 299.56 725.589 313.593 734.639 347.996C736.388 354.644 717.444 365.556 713 370C693.415 389.585 677.662 414.488 672.751 442C671.249 450.416 667.134 466.699 677.999 471.079C682.931 473.067 688.504 461.305 690.655 458C702.332 440.059 721.943 435.24 735.674 419.911C746.517 407.805 746.378 388.126 743.75 373C742.751 367.252 736.082 354.019 740.333 349.39C751.806 336.899 773.989 334.353 789 329.48C810 322.662 830.269 307.38 844.714 291C850.217 284.761 855.938 279.213 858.254 271C866.778 240.774 853.133 218.7 843.794 191C840.931 182.507 827.027 168.258 837.109 160.702C843.463 155.94 853.44 155.7 861 154.718C883.781 151.76 927.123 149.978 927.985 183C928.429 199.98 922.528 215.437 912.391 229C908.188 234.624 901.978 238.704 898.674 245C890.14 261.259 888.987 282.643 882.782 300C877.109 315.871 868.481 330.294 855.961 341.816C846.874 350.177 835.917 355.18 828.001 365C801.49 397.886 782.055 437.147 751.911 466.907C728.29 490.225 697.181 504.791 674.089 529.015C655.423 548.596 653.598 572.411 643.138 596C638.686 606.04 629.125 613.454 626 624C636.024 620.28 644.21 615.066 655 613.184C660.877 612.16 668.548 614.95 673.91 611.901C681.94 607.335 687.778 590.307 684 582L655 611M629 154C630.792 160.038 637.933 162.127 643 165.203C656.658 173.495 669.677 182.005 685 187M458 165L480 163M450 215C455.463 217.549 459.594 222.087 461 228M621 254C652.567 273.073 687.803 275 724 275C723.257 289.481 712.706 299.744 707 312M424 269C407.954 289.806 413.623 315.245 431 333M536 273L536 275M726 273L724 275M420 314C425.594 296.499 439.785 285.014 459 288.225C467.06 289.572 474.339 296.554 482 299.466C492.374 303.409 503.687 304.775 514 308.826C527.692 314.206 540.061 322.745 554 327.76C581.463 337.64 615.168 337.086 644 339.83C661.382 341.484 688.151 328.334 703.981 338.738C708.036 341.404 709.411 346.146 712 350M413 304C405.179 318.109 411.416 340.096 414.196 355C415.218 360.48 414.801 365.789 417 371L422 356M704 312L671 335M660 341C634.707 361.006 601.12 381.702 570 390.573C546.071 397.393 520.591 397.828 496 400.17C471.668 402.487 447.282 405.12 423 402C426.032 412.208 434.011 416.791 441.91 422.519C446.727 426.011 449.241 430.76 455.001 433.288C470.53 440.105 490.974 432.457 506 427.656C556.241 411.604 599.136 384.351 646 360.752C665.244 351.062 686.325 334.679 708 347M736 350L738 352M417 371C418.313 381.22 416.999 393.184 423 402M429 379L434 403M419 380L429 387M436 405L440 420M449 431C450.501 435.696 452.678 440.063 458 438L457 435M459 439L461 440L458 443L457 441M462 442C461.172 456.004 467.759 469.615 471.105 483C477.595 508.969 473.715 535.485 501 550.651C522.995 562.878 552.255 556.475 571.957 573.376C582.643 582.543 580.478 598.4 586.438 610C591.134 619.14 601.032 624.647 607.829 632.015C613.576 638.244 617.348 646.795 624 652L649 616M458 444L461 445M666 788C667.307 777.711 669.7 762.034 680 757C679.286 770.917 669.119 782.197 665.21 795.004C653.007 834.987 638.633 887.749 607.996 917.985C595.576 930.243 578.8 937.125 565 947.654C535.662 970.041 509.56 999.454 495.452 1034C474.849 1084.45 470.694 1143.11 472.015 1197C472.579 1220.02 488.624 1251.92 478 1274C468.882 1259.18 465.474 1237.59 459.999 1221C441.296 1164.33 431.845 1104.13 418.5 1046C405.937 991.273 383.164 940.585 367.424 887C352.169 835.062 344.6 777.916 346.961 724C347.498 711.721 348.909 699.261 348.995 687C349.055 678.611 346.946 670.389 348.666 662C353.82 636.855 368.451 614.203 378.576 591C385.473 575.194 393.859 564.124 409 555.576C413.007 553.313 418.966 549.142 423.836 549.644C429.186 550.194 422.763 558.109 421.615 560C415.07 570.782 407.989 582.423 403 594C412.535 598.109 422.613 601.064 431 607.529C458.547 628.764 469.263 664.367 482 695M455 634C471.735 614.646 486.83 598.58 509 585.062C514.979 581.416 525.786 573.821 533 574.329C540.058 574.827 549.438 582.094 555 586.159C579.472 604.042 589.308 634.136 600 661C604.965 659.519 620.178 655.208 624.74 656.63C629.682 658.171 636.092 669.224 640 672.961C655.374 687.662 679.183 703.856 684.582 726C686.76 734.934 683.721 744.175 683 753C696.347 751.038 709.378 747.68 723 748.015C726.775 748.107 735.412 751.754 738.411 749.292C740.703 747.412 740.909 742.708 741.385 740C742.988 730.89 743.999 721.243 744 712C744.001 699.958 744.738 687.512 740.441 676C735.028 661.498 722.875 650.442 713 639C706.513 631.483 699.134 621.363 690.83 615.857C686.46 612.959 680.623 613.505 676 611M618 659C615.248 673.272 601.882 689.729 595.247 703C577.26 738.973 557.253 775.431 545.435 814C521.509 892.089 503.729 972.086 482.884 1051C477.368 1071.89 474.13 1092.93 469.661 1114C468.073 1121.49 468.646 1130.2 465 1137C459.328 1127.78 457.513 1114.55 455.4 1104C451.987 1086.97 448.239 1070.01 444.715 1053C431.272 988.134 424.607 920.969 420.09 855C418.265 828.356 422.171 800.421 418.575 774C417.008 762.488 412.205 752.565 402.985 745.12C395.031 738.698 381.585 736.305 375.563 727.957C372.593 723.839 371.943 717.85 370.885 713C364.613 684.234 378.833 648.604 388.696 622.001C389.761 619.128 392.381 615.926 392.465 612.83C392.694 604.406 386.228 591.387 402 595M401 595L393 610M393 615L409 642M671 615C657.069 629.047 647.618 648.32 628 655M626 624L619 630M623 652L623 655M583 662L598 661M738 751L734 782C740.485 774.166 750.565 761.425 741 753M682 754L680 757M734 782C726.198 793.415 725.22 808.92 721.28 822C713.664 847.289 705.042 870.166 688.195 891C682.271 898.326 668.998 916.224 658.078 915.492C653.475 915.183 656.53 910.177 657.61 908C661.429 900.302 665.208 892.563 669.309 885C685.049 855.965 703.941 823.436 725 798M663 810C662.978 842.745 661.224 879.213 653 911M654 915C648.193 924.354 646.133 937.433 643.09 948C638.056 965.484 631.242 983.931 622.677 1000C588.938 1063.29 554.452 1123.64 531.667 1192C521.904 1221.29 513.208 1250.06 511.09 1281C508.65 1316.62 511.031 1352.88 517.805 1388C522.91 1414.47 532.919 1443.04 533.545 1470C534.746 1521.74 523.029 1573.25 523.029 1625C523.029 1669.42 535.097 1712.19 545 1755M465 1137L465 1141M478 1274L479 1282M2 1722L2 1724M14 1725L34.9576 1723.64L34 1739L52 1734M1 1734C8.06379 1738.02 7.87135 1749.99 1 1754M34 1739L22 1740M32 1741L31 1753" transform="translate(-577.122,-226.816) scale(0.915315,0.328448)"/></svg>