<svg xmlns="http://www.w3.org/2000/svg" xmlns:svg="http://www.w3.org/2000/svg" xmlns:sodipodi="http://sodipodi.sourceforge.net/DTD/sodipodi-0.dtd" xmlns:inkscape="http://www.inkscape.org/namespaces/inkscape" xmlns:xlink="http://www.w3.org/1999/xlink" width="210mm" height="297mm" viewBox="0 0 210 297">
  <sodipodi:namedview/><g inkscape:label="Ebene 1" inkscape:groupmode="layer" id="layer1">
    </g>
<path style="fill:none;stroke:#000000;stroke-linecap:round;stroke-width:5.0" d="M86 108C88.8824 112.939 92.2107 118.172 91 124C83.055 118.403 68.5798 108.498 64 100C71.008 98.8729 78.5677 102.9 85 105.424C98.9977 110.916 118.768 113.271 122.166 131C124.422 142.768 112.816 151.712 113.898 162.961C114.402 168.203 122.892 178.279 126 183C138.276 171.617 142.649 150.622 152.759 137C169.011 115.104 190.557 100.554 210 82L183 63C194.771 56.1143 209.44 52.6891 222 47.1396C237.941 40.0964 253.536 31.4385 270 25.6953C301.174 14.8206 344.056 9.02161 377 12.1698C389.724 13.3857 401.657 18.1652 414 21.2546C442.151 28.3013 477.791 34.8103 487.211 68C490.044 77.9797 486.124 88.9072 486.004 99C485.677 126.444 487.269 156.368 479.279 183C474.11 200.226 456.49 221.576 466 238M376 188C379.894 185.267 381.638 180.165 383.756 176C386.265 171.067 394.789 160.954 393.208 155.21C392.253 151.738 386.802 149.685 384 148C377.214 143.92 358.233 134.534 356.997 125.999C356.502 122.581 359.731 118.919 361.111 116C365.212 107.329 374.133 92.8418 370.353 83C360.607 57.6296 327.21 57 305 57C296.114 57 287.062 55.9055 279 60.348C260.646 70.4619 247.534 88.4261 233 103L211 82C231.237 64.7404 257.157 54.6698 282 46.1382C302.408 39.1296 325.472 29.4797 347 27.1736C384.825 23.1215 422.663 45.6387 447.536 72.2855C459.496 85.0979 470.106 102.365 475.645 119C478.684 128.127 477.898 138.68 483 147M157 45L182 63M140 81L99 53C105.347 49.6134 113.275 51.7041 120 53.375C133.004 56.6058 145.579 60.8269 159 62.0748C164.798 62.6139 169.841 64.304 175 61M92 53L99 53M176 62C180.215 76.7738 182.002 87.6477 182 103M82 103L68 80C75.732 75.8738 88.7296 78.8895 97 80.8982C115.951 85.5011 134.352 93.2109 152 101.36C159.559 104.85 167.27 106.884 174 112M66 80L68 80M53 96L64 101M655 897C664.418 885.625 668.887 872.84 675.27 860C688.028 834.336 699.08 807.877 701.83 779C703.73 759.047 699.441 739.74 698.089 720C695.142 676.965 693.005 633.036 697.17 590C699.895 561.834 710.051 533.412 716.895 506C720.75 490.558 725.874 474.079 723.572 458C722.519 450.648 721.869 442.195 717.362 436.015C710.505 426.612 698.38 421.925 690.326 413.575C675.33 398.029 661.002 366.711 665.095 345C668.651 326.137 675.599 308.007 678.561 289C680.509 276.504 678.464 262.057 681.786 250C689.591 221.664 703.761 192.117 718.8 167C729.046 149.889 747.396 109.99 770.999 130.951C773.845 133.478 776.332 135.576 778 139C793.603 131.853 803.675 113.772 823 116.185C838.722 118.148 852.432 137.144 859.219 150C881.812 192.797 867.652 245.97 836.246 280.946C833.347 284.174 826.645 291.226 822 290.982C818.401 290.794 815.887 287.766 812 288.09C805.673 288.616 797.817 291.496 792 294L811 320C816.055 307.3 818.36 309.085 828 317C824.383 319.994 810.663 331.56 806.028 325.512C804.099 322.996 805 317.982 805 315M92 125L98 135M117 308L116 313C109.829 307.692 108.799 297.758 108.075 290C106.223 270.153 111.128 244.514 118.604 226C121.288 219.353 126.798 201.903 136 202.542C156.902 203.993 161.836 236.435 159.41 252C156.082 273.349 147.895 294.751 138.247 314C134.325 321.826 129.758 331.752 122.826 337.366C115.802 343.055 107.096 342.259 99 345C107.172 356.362 133.618 379.696 148.999 370.911C162.068 363.446 162.444 347.037 168.373 335C174.698 322.16 185.857 312.75 192.191 300C203.143 277.954 188.935 253.472 191.17 230C195.949 179.807 240.024 122.133 295 145.012C302.016 147.932 309.186 151.344 315 156.301C338.866 176.649 358.81 218.161 354.271 250C352.851 259.957 351.241 271.051 344.532 278.961C334.338 290.981 319.212 301.332 305 308.015C299.865 310.43 292.631 308.294 288.514 312.234C274.986 325.177 270.226 343.884 258.482 357.957C248.283 370.18 228.774 380.075 214 385.309C198.451 390.816 186.947 389.524 171 389.129C164.952 388.979 159.072 391.383 153 390.71C146.784 390.02 140.003 389.306 134 387.561C131.598 386.863 127.894 384.755 125.603 386.708C122.547 389.312 124.657 395.806 125.478 399C128.543 410.917 136.643 422.712 148 428L145 414M778 139C752.764 160.977 727.101 181.265 707.72 209C699.806 220.324 690.318 233.897 697.709 247.961C702.261 256.622 713.542 258.735 721 264C731.054 234.359 731.853 204.152 753.301 179C760.202 170.907 768.72 165.07 778 160.029C781.771 157.98 788.656 156.8 791.338 153.351C794.995 148.647 783.863 141.637 781 139M379 189C392.751 188.55 392.543 165.468 405.039 163.921C409.977 163.31 417.357 172.467 421 175.339C439.692 190.074 448.096 207.123 461 226M126 184L125 187M155 446C176.039 460.206 175.036 495.546 201 502.239C238.238 511.839 270.414 487.314 297 465.08C315.332 449.749 333.463 434.692 350.925 418.439C360.357 409.66 371.751 400.721 379.007 390C383.67 383.109 385.047 373.655 388.284 366C395.907 347.971 404.79 330.199 409.112 311C415.047 284.636 393.74 270.831 387.043 248C383.946 237.443 387.672 224.779 391.873 215C394.184 209.618 397.412 203.133 402.093 199.434C414.905 189.309 438.562 209.841 441.581 222C444.964 235.625 433.031 247.647 433.079 261C433.116 271.176 441.523 278.575 444.073 288C449.353 307.522 434.564 322.612 421 334M920 423L885 436.306L870 441C876.211 446.824 888.179 445.217 896 444.13C915.724 441.39 934.312 439.227 938.656 415C940.022 407.382 935.225 397.524 933.664 390C933.216 387.839 933.34 383.582 930.682 382.816C926.373 381.576 919.165 387.318 915 388.56C906.087 391.219 898.061 390.018 889 390C875.037 389.972 856.828 382.405 860.519 365C862.588 355.247 872.029 349.283 881 346.36C883.806 345.445 891.128 343.42 892.67 347.434C894.841 353.088 877.614 370.145 886.603 375.867C891.283 378.846 902.752 368.744 907 366.908C911.362 365.024 915.558 366.451 920 365.387C932.587 362.372 940.051 357.512 948.911 348C951.413 345.313 956.568 340.966 957.079 337.148C957.468 334.249 953.988 334.083 951.995 334.398C938.871 336.474 933.367 333.442 924.924 322C906.318 296.783 904.647 266.974 905.004 237C905.14 225.53 910.845 205.601 923 201.384C934.206 197.496 947.183 213.57 949.475 223C956.651 252.526 944.165 273.076 935 300M467 215C469.463 220.424 467.772 229.806 465 235M461 230C451.849 241.995 451.643 261.859 454.823 276C455.896 280.772 459.68 285.022 459.682 290C459.685 297.798 450.625 309.737 446.279 316C440.741 323.983 435.049 335.792 424 335M722 262L761 275.814L792 294M721 264C720.867 280.092 715.001 296.841 709.999 312C708.079 317.82 703.291 327.992 706.832 333.907C711.296 341.365 720.543 341 728 341C742.367 341 758.189 341.147 772 345.649C783.426 349.373 784.936 363.408 791 372L800.974 345L801.958 334.589L785 324M289 311C275.441 303.145 258.278 300.403 244 293.247C240.138 291.311 231.85 288.308 230.346 283.809C228.883 279.433 248.677 275.069 252 274.154C273.635 268.194 299.183 283.095 317 294M275 275C272.23 277.301 267.374 279.622 265.907 283.043C264.147 287.146 271.012 294.742 274.961 295.23C279.459 295.786 281.675 288.664 286.001 287.831C300.363 285.066 294.48 302.035 292 308M786 287C793.769 285.397 802.63 283.067 810 287M835 285L839 287C829.301 299.359 811.478 296.979 798 301M818 288L828 287M780 287L760 295.259L735 309M789 293C780.448 298.31 756.801 306.449 747 304M828 317L842 311M787 324L804 328C804.82 338.525 823.909 335.526 831 333M829 335C824.351 347 806.111 364.408 794 369M112 369L126 385M791 372C790.884 385.796 784.077 399.239 782.289 413C778.706 440.589 787.542 480.367 808 499.961C830.548 521.556 857.178 524.959 886 532.37C894.541 534.567 910.989 540.265 918.722 533.486C930.914 522.798 926.232 497.859 929.394 484C932.035 472.425 941.952 467.37 938 454C919.196 465.203 890.251 465.77 869 462.7C850.589 460.04 855.946 446.328 870 441M146 415C149.807 415.677 154.122 418.642 158 417.944C169.125 415.939 174.544 410.519 187 413.525C199.54 416.552 207.426 427.071 218 433M149 429L153 434M215 432L178 438.536L168.238 441.603L168 451L167 450L166 450L165 450M936 432L938 454M880 438L877 443M170 450L181 456M471 640C462.332 609.911 430.117 581.474 405.999 563.478C397.924 557.453 387.232 554.029 380.228 546.7C375.691 541.951 376.559 533.961 377.819 528C381.176 512.114 390.625 497.4 402.015 486.015C414.959 473.075 436.224 459.583 455 468.543C468.382 474.929 478.129 490.485 485.123 503C490.022 511.765 495.096 530.684 486.786 538.66C478.134 546.965 460.363 550.092 459.306 565C458.825 571.787 464.321 578.804 468.001 584C474.182 592.729 480.265 601.848 483.91 612C490.895 631.455 497.276 667.918 486.583 686.985C478.609 701.201 443.876 699.881 432.015 691.891C426.229 687.993 424.114 681.32 420 676C399.155 713.605 431.144 758.276 433.91 796C435.94 823.697 437.825 855.927 429.791 883C416.579 927.521 376.716 965.65 342 994.321C323.144 1009.89 302.02 1026.29 280 1037.19C271.953 1041.17 258.241 1044.4 250 1040C265.23 1029.62 283.172 1028.4 298 1015.7C316.169 1000.13 329.14 980.717 343.665 962C383.269 910.967 413.587 854.336 419.83 789C421.165 775.034 419.287 760.911 419 747M832 524C806.234 548.057 756.274 581.547 785.76 621C790.278 627.046 796.184 632.74 802 637.536C821.781 653.847 844.603 666.54 861.711 686.004C865.692 690.533 876.057 702.408 874.289 708.985C872.698 714.901 862.903 719.33 858 722.127C842.064 731.219 824.78 737.808 809 747.201C774.867 767.517 743.678 788.084 716.039 817C700.625 833.127 689.324 852.942 674 869M167 637C157.712 625.908 175.429 610.571 183 603C201.387 584.613 225.175 571.768 249 561.579C256.845 558.223 267.292 552.965 276 553.195C295.319 553.707 299.53 588.754 284.91 597.776C267.738 608.374 250.526 613.46 232.037 620.633C228.75 621.909 228.128 625.764 224.892 626.602C203.316 632.189 181.546 631.915 161 641M177 665C198.051 685.631 231.442 670.781 251 655.575C255.72 651.905 258.487 646.731 263.058 643.15C268.062 639.229 275.717 635.871 281.285 632.693C285.419 630.334 291.337 634.923 295 636.753C303.182 640.841 311.593 644.418 319.996 648.015C323.074 649.332 326.52 652.307 330.039 651.36C351.588 645.566 351.422 625.028 363.815 611.333C366.979 607.836 372.768 611.412 377 608.797C392.192 599.408 405.934 584.872 425 584M289 598C298.431 597.256 307.976 596.557 315.999 602.684C318.506 604.599 326.528 611.597 320.762 614.397C314.8 617.293 303.568 616.99 297 617C280.422 617.027 252.815 615.243 238.153 624.303C233.736 627.033 236.913 631.811 239.094 634.996C243.5 641.431 250.147 645.527 258 644M187 632L209 620.691L253 604.374L277 601M20 650C26.68 648.126 31.6912 641.751 37 637.461C44.8234 631.138 53.7594 626.481 62 620.78C66.1073 617.938 72.4092 609.684 77.9606 612.8C84.7083 616.587 88.7882 627.155 91.4205 634C100.154 656.709 96.7249 686.948 89.9645 710C87.6547 717.876 77.0236 739.093 82.0285 746.682C85.6513 752.175 97.9832 748.498 103 747.349C115.723 744.434 128.156 739.89 141 737.615C145.934 736.741 153.19 735.44 157.74 738.15C174.817 748.325 158.64 764.266 151 773M223 625L226 622M229 625L236 628M236 628C251.734 625.079 264.774 628.296 280 631M229 628L235 628M234 630C231.105 640.586 225.391 651.897 218 660C210.288 652.448 198.226 644.185 196 633M276 630L268 639M26 650C35.3805 651.211 49.191 651.842 56 659C38.8234 676.188 28.1079 699.542 1 699M326 652C316.972 658.962 304.699 662.942 294 666.656C263.681 677.181 212.229 696.998 184 673M332 652L362 669.464L415 726M56 659C62.6079 660.146 61.1177 668.682 60.9853 674C60.4172 696.832 39.0472 694.904 27 707C30.1823 709.88 32.9431 715.861 37.0934 717.127C52.4682 721.814 67.6204 697.504 69.6566 684C70.6735 677.256 68.1646 662.256 61 660M420 675L420 676M2 707C11.0442 715.507 24.7041 727.875 30 739L50 732M17 708L27 707M164 741C186.348 733.854 208.905 734.749 232 736.036C248.123 736.933 262.26 743.656 277 749.551C292.894 755.907 308.971 760.684 320.816 774.004C328.618 782.778 330.955 793.655 332.166 805C336.424 844.888 307.305 876.695 281 903C274.095 909.905 267.419 917.215 260 923.572C250.568 931.652 239.995 938.489 229 944.255C208.207 955.161 183.719 970.603 159 964.239C141.486 959.73 134.717 944.375 125 931M30 739C27.5075 740.697 19.4325 742.217 18.2562 744.599C16.4952 748.166 23.6248 753.665 25.5355 756C32.9673 765.081 38.2529 775.601 41 787C53.0877 837.157 63.0668 896.882 96.311 938C106.188 950.216 116.291 962.291 128 972.829C133.349 977.644 142.826 981.887 145 989L151 991C141.428 1007.87 137.721 1036.46 161 1045.72C173.969 1050.88 191.501 1048.57 205 1047.05C214.925 1045.94 231.712 1046.66 239 1039C226.481 1032.71 211.886 1030.25 199 1024.49C182.6 1017.15 165.173 1003.1 152 991M160 741C140.1 754.558 110.926 759.412 88 765.745C84.2702 766.776 64.6588 768.723 64.7515 772.148C64.951 779.512 77.1059 783.509 83 783.737C104.179 784.554 116.256 767.781 134 760.363C142.713 756.721 155.696 757.211 152 769M12 742L17 744M92 897L80 858C84.5622 857.835 89.6824 860.557 94 858.657C102.915 854.732 108.494 845.401 119 844.416C128.618 843.514 139.971 850.05 148 854.576C167.309 865.459 185.806 876.226 197 896M157 919C140.708 925.229 127.39 918.875 114 909.659C110.516 907.261 100.047 901.583 102.176 896.185C105.113 888.738 119.628 889.002 126 889C149.366 888.991 171.174 889.551 194 895M149 922C145.168 929.303 133.627 928.936 127 933M94 959C92.4229 972.569 98.0214 992.039 102.217 1005C103.515 1009.01 106.472 1017.15 112.004 1016.03C123.888 1013.62 132.403 995.1 144 990M93 963C86.5298 971.458 85.0167 983.595 85 994C84.9819 1005.26 83.6945 1017.46 88.5185 1028C97.8931 1048.49 130.827 1060.58 151 1066.29C178.101 1073.96 206.809 1068.58 234 1064.08C275.44 1057.22 316.306 1047 357 1036.52C373.168 1032.36 388.562 1026.86 405 1024M396 1028C389.544 1037.17 380.582 1044.37 373.464 1053C360.955 1068.17 349.942 1086.03 340.012 1103C280.853 1204.11 245.729 1326.37 243 1443M240 1040L250 1040M45 1481C48.8524 1455.3 71.4974 1431.67 87.8441 1413C113.828 1383.32 140.615 1351.71 159.688 1317C178.125 1283.45 196.705 1247.01 203.576 1209C207.192 1188.99 208.905 1169.09 211.576 1149C212.667 1140.79 210.823 1132.54 215 1125C219.905 1128.76 222.84 1134.08 226.478 1139C232.276 1146.84 239.256 1155.55 242.204 1165C247.369 1181.56 241.249 1202.07 240.09 1219C236.336 1273.81 224.254 1326.92 230.845 1382C232.855 1398.8 233.429 1423.68 243 1438M1118 1754L1114 1760" transform="translate(-577.122,-226.816) scale(0.928742,0.326876)"/></svg>