<svg xmlns="http://www.w3.org/2000/svg" xmlns:svg="http://www.w3.org/2000/svg" xmlns:sodipodi="http://sodipodi.sourceforge.net/DTD/sodipodi-0.dtd" xmlns:inkscape="http://www.inkscape.org/namespaces/inkscape" xmlns:xlink="http://www.w3.org/1999/xlink" width="210mm" height="297mm" viewBox="0 0 210 297">
  <sodipodi:namedview/><g inkscape:label="Ebene 1" inkscape:groupmode="layer" id="layer1">
    </g>
<path style="fill:none;stroke:#000000;stroke-linecap:round;stroke-width:5.0" d="M764 346C776.627 353.446 789.995 359.732 802 368.026C811.732 374.749 819.673 383.67 828 392C854.195 418.205 882.37 454.824 875.674 495C871.936 517.429 841.624 528.175 841.278 552C840.863 580.549 870.276 601.019 879.728 626C885.191 640.44 876.173 657.814 883 672C886.032 666.348 886.196 659.264 887.449 653C889 645.249 892.105 636.974 891.87 629C891.42 613.718 881.467 595.428 874.753 582C871.106 574.705 867.142 566.928 860.96 561.439C857.573 558.432 851.46 555.405 853.053 549.999C854.56 544.886 859.332 540.611 863.001 537.015C867.364 532.737 874.547 524.252 881 523.632C886.421 523.111 891.211 528.466 895 531.54C907.247 541.477 914.237 551.808 918.573 567C931.771 613.252 903.689 657.842 900 703C906.657 699.837 912.064 692.807 919 690.603C929.88 687.147 939.924 699.168 942.652 708C949.537 730.289 930.615 750.069 927.081 771C923.594 791.653 929.114 812.421 924.576 833C922.884 840.67 920.221 850.917 911.999 853.968C907.101 855.785 899.833 854.028 895.498 857.027C892.531 859.08 891.181 864.107 889.073 867C882.834 875.561 874.435 886.24 870.539 896.089C867.597 903.525 871.203 913.293 870.957 921C870.325 940.814 869.039 962.809 863.849 982C855.586 1012.55 835.227 1035.15 815.594 1059.09C805.732 1071.12 796.947 1084.1 787 1096C783.053 1094.93 780.313 1098.27 784 1101C781.282 1110.24 774.124 1118.75 769.201 1127C760.313 1141.89 748.161 1159.21 734 1169.57C698.384 1195.63 651.239 1204.15 608 1206.04C582.009 1207.18 550.536 1204.77 528 1190.14C509.355 1178.02 492.857 1155.84 483.258 1136C475.591 1120.15 470.883 1103.16 460 1089L480 1086.73L507 1076.71L521 1074C512.942 1064.29 493.776 1070.84 489 1081M786 361C803.855 384.691 821.37 408.037 835.862 434C843.061 446.898 850.676 459.89 851.914 475C853.298 491.879 850.496 502.3 840.24 516C837.686 519.412 832.047 527.65 827 525.248C811.82 518.026 805.432 497.819 798.742 484C785.506 456.665 767.592 433.12 743 415.015C736.671 410.355 726.088 401.017 718 400.46C706.708 399.681 691.695 408.661 681 411.974C646.675 422.61 614.503 442.157 582 457.323C570.494 462.692 560.467 468.853 548 472.076C529.536 476.85 499.531 472.474 482 465.535C474.061 462.393 468.158 455.6 460 453C459.926 458.054 461.839 462.988 460.146 468C452.39 490.959 427.656 477.018 415.669 491.09C398.721 510.987 391.268 539.725 382.997 564C379.516 574.217 373.513 585.389 372 596M397 456L403 439C390.325 435.947 381.495 458.067 376.781 467C363.076 492.974 354.62 527.056 357.871 556C358.678 563.185 358.119 570.174 361 577C365.34 571.135 365.614 563.943 367.235 557C370.035 545.01 372.931 532.84 376.29 521C378.13 514.517 381.647 507.18 378 501C392.605 481.336 392.384 445.147 420 435.427C424.211 433.945 428.66 434.926 433 434.997C437.769 435.075 443.629 435.117 447.985 437.317C454.276 440.494 454.16 447.733 459 452M372 593C365.902 581.747 369.95 565.532 373.671 554C382.201 527.561 392.889 502.424 404.004 477C407.739 468.457 416.26 448.873 424.329 444.028C431.38 439.795 446.879 446.94 454 449M380 499L380 503M377 503L358 553M361 577C361 594.416 360.74 617.324 369 633M390 759C382.711 745.167 386.873 728.611 389.611 714C391.249 705.259 393.906 696.699 395.532 688C396.256 684.132 395.211 679.594 397.028 676.004C398.943 672.22 402.947 669.879 405.83 666.911C411.272 661.308 416.017 654.777 423 650.904C431.456 646.213 442.111 644.692 451 640.688C459.149 637.018 467.93 630.837 477 630.093C495.608 628.568 505.493 639.089 521 646C516.639 627.655 489.544 613.671 472 618.595C463.785 620.901 454.341 629.857 446 629C452.091 620.353 468.181 602.147 479 600.229C487.289 598.76 497.077 604.199 504 608.15C521.035 617.874 531.648 631.519 541.453 648C545.468 654.749 550.591 661.097 552 669L537 661L536 662L540 662M365 604C386.17 629.831 365.245 649.759 364 677M653 751C659.216 743.367 675.58 734.782 678.759 725.961C680.25 721.82 675.473 716.953 674.532 713C673.209 707.437 674.953 701.506 673.362 696C669.838 683.807 658.671 681.783 649 677C662.955 654.655 678.365 643.225 701 631.114C715.813 623.188 735.082 616.423 752 622.105C764.898 626.437 774.374 637.943 784 646.911C792.673 654.99 802.474 661.796 811 670.011C815.669 674.51 826.232 680.78 826.497 688C826.76 695.167 816.597 704.305 812 709C798.55 691.373 790.018 671.924 775.425 655C769.62 648.267 763.83 638.988 754 638.471C714.46 636.391 687.76 668.087 661 692.169C653.503 698.916 634.767 710.922 633.904 722C633.254 730.334 646.531 745.4 652 751C644.466 761.363 641.933 773.459 635.289 784C627.047 797.077 613.256 807.289 601 816.37C596.166 819.952 581.57 831.344 575.152 828.018C569.245 824.956 575.945 809.925 577 805C580.416 789.054 584.35 773.144 586.728 757C588.044 748.072 587.368 738.661 590 730C595.368 739.685 592.812 752.451 592.089 763C590.769 782.286 590 801.644 590 821M446 629C439.607 634.871 428.459 640.311 426 649M476 1085C466.789 1069.38 454.892 1059.6 443.299 1046C428.696 1028.87 416.752 1010.37 407.12 990C402.75 980.757 400.946 970.7 397.975 961C392.438 942.918 385.619 922.888 384.093 904C383.169 892.552 387.636 881.189 386.292 870C385.032 859.519 380.237 850.049 377.49 840C374.982 830.826 374.519 820.435 373.289 811C370.309 788.122 364.699 765.841 361.428 743C359.952 732.687 361.596 722.278 359.1 712C356.746 702.304 353.189 692.077 349.047 683C346.525 677.473 341.995 672.114 341.188 666C338.553 646.021 356.626 639.162 369 654M521 646L537 661M583 650C595.131 656.655 591 679.457 591 691C591 696.003 591.399 700.505 589 705C586.486 699.777 586.689 693.703 585.869 688C584.229 676.591 579.68 661.232 583 650M538 664C544.797 678.539 562.56 688.667 565.57 706C566.971 714.066 564.977 731.209 560.348 738C556.297 743.943 549.8 748.361 545.937 754.209C542.479 759.444 543.12 765.286 536.985 768.911C529.072 773.587 517.813 772.199 509 774.235C500.61 776.174 490.662 780.235 482 778.319C463.053 774.13 455.376 757.894 440 749M552 669L558 674M883 672C882.655 688.704 873.728 702.97 870.45 719C868.669 727.707 867.732 741.138 860.491 747.498C856.855 750.691 841.478 748.603 836 749.615C815.399 753.422 801.626 766.872 780 766C783.325 758.294 788.443 751.307 792.572 744C793.7 742.003 796.423 738.12 794.292 735.953C791.758 733.377 787.575 735.375 785.424 737.279C778.477 743.43 771.6 750.875 762 752.675C738.037 757.17 715.193 738.331 694 731C699.86 715.874 716.777 711.041 731 708.791C754.945 705.004 785.83 699.075 796 729C806.778 726.043 820.7 722.234 812 710L804 724M883 689L883 719L899 704M589 705L590 730M459 724C463.599 717.747 468.437 709.982 476 707.005C482.207 704.562 489.747 706.293 496 707.551C511.147 710.599 529.215 714.228 540 726M770 706C768.082 715.914 757.511 722.847 749.996 728.687C746.919 731.078 741.695 731.827 740.372 736.014C738.095 743.22 748.743 740.297 752 740.09C757.009 739.772 761.435 743.592 766 743.023C772.823 742.173 777.676 735.838 785 736M897 710L890 730C901.192 727.349 915.803 721.275 927 726M728 711C724.597 713.973 720.092 716.857 718.029 721.001C714.33 728.426 718.316 731.963 708 734M759 711L759 719M492 759C487.096 750.974 476.133 727.875 481.198 718.418C483.093 714.879 490.408 713.419 494 712.67C501.925 711.018 509.377 716.824 517 715M521 715L518 717M730 716C731.643 719.708 735.569 726.919 732.382 730.643C726.519 737.493 719.001 728.762 720 742M528 717L520 717M883 719L872 735L878 736L878 752C883.408 748.92 886.386 738.995 887 733L878 736M496 728L495 721L500 723L489 750M761 721L763 726M495 736C496.679 738.19 498.163 742.486 500.509 743.929C505.462 746.977 515.912 737.638 518.372 733.911C520.343 730.924 520.134 720.323 526.682 724.337C530.248 726.523 527.784 731.842 527.296 735C526.016 743.293 525.098 762.708 515.957 766.401C504.3 771.108 493.024 765.124 482 762.159C476.682 760.729 471.212 761.04 466 759.085C459.618 756.691 452.923 751.598 446 752M909 727L883 747M880 728L879 733M796 729L790 734M800 730L796 736M890 730L887 733M718 731L720 733M734 731L739 737M698 733C700.71 738.762 706.369 741.256 710.331 746.04C714.341 750.882 716.526 757.406 721.108 761.674C737.114 776.582 762.072 780.482 780 767M736 734L724 744M801 734L805 736M861 748C869.102 757.716 851.105 766.017 845 773M654 750C674.194 767.212 699.547 777.725 724 787.189C730.936 789.873 742.607 796.97 750 796.393C759.296 795.667 770.863 780.22 773 772M859 751L852 763M878 752C880.134 765.786 891.588 755.35 899.996 758.279C908.259 761.156 915.715 774.615 916.631 783C917.898 794.593 902.251 801.338 895.464 807.931C893.401 809.933 888.605 813.579 889.033 816.85C889.837 822.985 904.559 822.337 909 824L897.843 833.546L892 844C886.893 837.3 887.17 827.231 887 819M878 756C865.599 769.587 859.23 784.026 866.336 802C870.239 811.87 880.682 822.938 877.374 834.96C876.175 839.32 870.751 840.859 867.455 843.191C859.433 848.869 851.571 855.137 844 861.435C823.283 878.67 805.085 899.517 797.745 926C791.408 948.867 796.314 982.405 805.862 1004C810.382 1014.22 823.457 1025.51 823.837 1037C824.042 1043.21 818.692 1049.12 817 1055M886 761C890.943 764.782 897.247 766.074 901.895 770.329C908.267 776.161 908.523 785.074 910 793M789 763L787 765M397 765L426 771M432 771L434 771M436 772L439 772M441 773L448 775M451 775L451 776M454 777L455 777M89 1067C83.351 1065.69 79.9252 1063.44 76.1451 1059C72.4816 1054.69 66.6797 1048.75 65.7276 1043C62.9244 1026.06 76.4873 1008.4 71.4275 991.004C69.242 983.488 53.1139 977.225 46 975.532C42.8893 974.792 37.329 976.087 35.5995 972.682C30.4996 962.642 34.261 946.111 31.9961 935C24.68 899.107 19.099 862.433 9.42515 827C6.79749 817.376 10.9629 800.722 22.0039 797.518C29.2066 795.427 37.2932 802.373 41.9599 807.04C57.041 822.121 57.5017 845.191 58.9244 865C59.479 872.722 63.4057 880.462 65.2515 888C70.7471 910.444 77.3635 933.85 79.2153 957C81.9509 991.199 84.2209 1024.87 88.8688 1059C90.5688 1071.48 87.3149 1085.39 93 1097C99.1127 1088.31 100.67 1077.36 92 1070M478 806C477.196 812.364 472.113 826.408 475.032 831.945C478.099 837.763 487.236 838.537 493 839.075C509.229 840.59 524.826 839.474 541 837.831C545.504 837.373 566.65 830.627 568.745 835.333C570.695 839.714 558.576 855.952 555.921 860C544.646 877.191 532.726 893.645 523.395 912C520.44 917.814 514.31 924.282 515 931L540.442 916.867L549 902L556 913C571.873 894.657 579.868 869.349 570 846C562.664 853.732 564.215 869.243 560.312 879C557.057 887.137 549.937 892.857 549 902M591 825C590.57 835.018 585.571 844.109 585.105 854C584.692 862.754 589.297 872.056 589.911 881C590.336 887.206 587.591 898.725 592.514 903.527C596.894 907.8 608.399 904.609 613 902.096C619.858 898.349 625.519 893.137 633 890.443C640.911 887.594 649.788 888.047 658 886.676C664.514 885.588 670.537 882.66 677 881.464C681.984 880.541 694.436 878.985 692.829 887.961C691.831 893.534 683.226 899.778 679 903C677.437 900.852 675.435 896.237 672.765 895.346C670.484 894.584 658.453 905.317 658.497 907.894C658.557 911.407 676.032 913.879 679 913M574 828L570 834M863 828C865.438 832.85 866.568 836.683 865 842M862 830L865 842M570 841L570 846M892 844L895 856M866 847L870 893M867 850C875.468 854.758 880.999 864.646 881 874M695 854C698.035 865.833 700.327 873.161 694 885M694 858L696 875M59 869C54.6741 870.967 51.1191 870.232 47 868L58 863M872 883L880 879M868 900L864 903C862.487 897.01 864.326 890.082 869 886M694 892C691.894 901.473 688.888 906.244 683 914M66 895C63.2029 898.367 50.3418 910.922 54.6474 915.357C56.748 917.521 67.5995 917.424 71 918M690 906C688.094 902.026 688.718 899.908 692 897M551 902L555 902M565 903C569.633 908.344 570.827 916.043 577.015 920.005C593.747 930.719 612.684 926.841 631 926.039C647 925.339 663.852 926.804 677 916M687 905L687 907M566 906L563 920L572 927M630 922L657 907M552 909L543 914M556 914C550.134 917.059 543.221 925.832 544.048 933C544.401 936.064 547.366 938.007 547.826 941C548.983 948.53 540.174 952.21 552 956L543 936M556 914L563 920M539 921L543 931M514 930L511 933M100 996C102.374 1000.44 102.135 1005.47 104.494 1010C109.265 1019.15 128.494 1035.23 123 1046C115.422 1042.04 103.023 1038.84 97.858 1031.67C95.0949 1027.84 96.2127 1022.41 95.9105 1018C95.0058 1004.79 100.281 987.011 106.556 975.039C108.492 971.347 111.606 969.023 113 965C103.319 959.661 117.088 934.686 126.021 936.091C132.362 937.089 138.234 948.092 141.484 953C150.99 967.355 152.136 982.848 159.174 998C163.123 1006.5 170.499 1014.37 171 1024L154 1016C147.47 1027.19 140.196 1048.73 124 1046C120.342 1057.47 116.98 1069.35 113.884 1081C112.786 1085.13 110.118 1090.52 111.282 1094.83C112.458 1099.19 117.436 1103.44 120.13 1107C126.375 1115.25 133.744 1124.8 136.334 1135C141.603 1155.74 138.122 1178.68 145 1199C150.152 1194.82 158.587 1176.97 155.022 1170.26C152.823 1166.12 145.157 1161.85 141 1160M132 936C143.123 940.885 157.884 957.033 151 970M628 999L640 976L616 968C634.782 958.101 669.188 936.037 689.999 950.649C700.292 957.876 704.749 970.907 711.519 981C716.397 988.272 724.295 995.189 726 1004C702.024 997.458 678.522 1001.59 654 1000.99C646.719 1000.81 633.033 996.835 626.379 1000.2C623.139 1001.83 621.007 1007.03 619.203 1010C613.461 1019.46 608.785 1028.26 606 1039C611.7 1040.31 617.239 1038.16 623 1038.01C632.743 1037.78 643.826 1039.65 653 1042.96C669.21 1048.81 681.123 1064.67 697 1071.81C710.366 1077.83 731.538 1076.2 746 1076M108 957C100.424 966.392 87.921 996.929 95 1008M553 957C551.496 962.916 541.597 967.229 537.089 971.424C527.388 980.455 513.403 996.302 512 1010L527 998.156L553 984.45L604 969L585 965.385L554 959M113 965C115.818 962.715 119.216 958.886 123 958.451C132.366 957.374 143.792 972.557 143.792 981C143.791 987.07 137.561 992.93 139.619 999C141.683 1005.09 149.312 1010.82 154 1015M117 962C121.811 965.5 125.965 966.518 131 963M108 965L108 970M604 969L616 968M36 975L32.2022 1001.7L42.5363 1012L65 1042M153 989C153.005 997.145 156.967 1006.57 153 1014M68 1128C75.3649 1136.95 80.5462 1144.02 79.9599 1156C79.7446 1160.4 76.6663 1172.4 70.1435 1167.51C56.5491 1157.32 64.8236 1139.42 66.5015 1127C67.8137 1117.29 68.5025 1103.66 66.3202 1094C61.3193 1071.87 35.9738 1064.7 20.9853 1050.04C17.2797 1046.41 5.82738 1040.61 5.78858 1034.96C5.74126 1028.07 14.0767 1019.29 17.8596 1014C21.5634 1008.82 24.7604 1002.22 31 1000M525 1066C528.78 1063.68 547.727 1049.29 533.941 1045.9C528.349 1044.53 522.722 1049.71 517 1049C521.487 1041.06 531.702 1036.29 539 1031.14C563.977 1013.55 594.303 1000 625 1000M726 1004L743 1024M31 1005L31 1013M511 1011L509 1017M849 1021C848.285 1037.4 841.993 1053.77 839.439 1070C834.746 1099.82 831.964 1130.02 829.911 1160C828.832 1175.75 824.044 1202.54 831 1217C837.984 1205.76 842.649 1192.01 848.386 1180C852.55 1171.28 858.512 1162.82 859.826 1153C860.698 1146.49 859.535 1130.36 852 1129L852 1130L853 1131L855 1130M171 1024C182.281 1036.58 178.842 1054.74 177.129 1070C175.749 1082.29 178.816 1094.65 177.91 1107C177.191 1116.8 172.287 1126.21 170.757 1136C169.336 1145.09 168.39 1169.15 157 1171M96 1033C91.9375 1050.06 98.9647 1077.54 110 1091M5 1037C3.49861 1044.75 17.9773 1055.51 23.0895 1061C39.5309 1078.65 57.4142 1095.92 64 1120M425 1037C432.137 1055.01 446.529 1074.25 460 1088M539 1056C562.22 1052 581.506 1038 606 1038M2 1039L3 1039M612 1041C598.7 1056.52 579.942 1051.59 563 1054.62C548.669 1057.17 535.627 1065.69 524 1074C531.694 1076.3 539.652 1076.14 547 1079.99C561.493 1087.57 571.668 1099.31 588 1104.28C611.504 1111.44 640.216 1114.07 664 1107.09C683.375 1101.4 700.776 1090.93 719 1082.64C725.722 1079.59 733.649 1080.39 740 1077M515 1050L516 1050M179 1066C182.686 1071.12 181.93 1076.95 182.92 1083C185.825 1100.75 182.314 1127.86 172 1143M82 1067L89 1080M521 1074L524 1074M784 1094L792 1088M93 1097C91.8568 1101.4 86.9748 1105.46 87.0826 1110C87.2764 1118.17 96.6733 1119.84 91.25 1128.98C90.116 1130.89 88.5533 1133.41 85.9614 1133.08C74.0637 1131.56 70.9734 1101.44 87 1106M787 1097L784 1101M110 1098C107.366 1118.84 115.343 1146.79 137 1155M1 1099C21.677 1103.8 26.5493 1130.08 29 1148C22.2007 1147.46 14.2743 1147.56 8.00463 1144.65C5.9645 1143.7 1.70714 1141.45 3.75154 1138.64C7.60563 1133.33 20.4958 1138.95 26 1139M781 1100L752.039 1127.09L731 1148M93 1102L93 1107L89 1105M94 1108L93 1120M838 1113L853 1128M462 1119C460.074 1126.04 455.817 1132.14 453.648 1139C450.596 1148.65 449.896 1159.9 446.656 1170C436.499 1201.67 424.186 1231.72 428.285 1266C432.664 1302.61 457.938 1339.72 480.805 1368C493.582 1383.8 507.829 1397.93 517.688 1416C526.048 1431.32 536.327 1455.42 537.505 1473C538.57 1488.88 532.813 1508.77 537 1524C544.697 1518.58 553.853 1507.97 561 1521L555 1523C556.44 1526.72 559.995 1530.05 560.592 1534C562.146 1544.28 542.886 1548.74 536 1552L534 1533L520 1561M95 1127L95 1137M854 1133L856 1137M455 1139L454 1142M98 1273C101.995 1265.13 94.8107 1246.07 89.892 1239.04C84.6224 1231.51 72.1348 1230.06 65.0147 1223.79C47.9026 1208.71 46.521 1192.57 41.7785 1172C39.1671 1160.67 42.034 1144.73 54 1140C56.323 1149.51 45.0146 1159.54 58.9992 1164.25C61.2848 1165.02 63.6436 1165.51 66 1166M452 1141C442.617 1154.19 439.244 1173.89 433.2 1189C412.782 1240.04 397.871 1289.33 412.244 1344C414.415 1352.26 412.61 1362.45 417.09 1369.96C429.705 1391.12 462.603 1391.96 478 1411M3 1142C-1.80828 1151.37 3.08789 1167.36 8 1176C17.2491 1167.51 28.4431 1158.7 40 1168M94 1142L95 1146M862 1147C888.63 1188.47 870.053 1236.81 852.281 1278C844.12 1296.91 834.715 1315.86 819 1329.71C806.129 1341.06 786.227 1353.94 769 1357C771.654 1351.8 782.337 1343.9 781.883 1338.13C781.47 1332.9 769.703 1332.8 766 1332.27C747.237 1329.57 731.248 1334.84 714 1342.01C680.272 1356.04 650.033 1377.51 620 1398.03C610.642 1404.42 602.991 1413.06 593 1418.48C588.938 1420.69 582.721 1423.68 578 1422.55C568.884 1420.37 563.461 1410.03 553 1410.2C534.816 1410.49 534.115 1429.6 528 1441M29 1148C33.3421 1153.14 32.2696 1156.72 32 1163M31 1164C30.7091 1176.38 19.4625 1184.35 9 1176M73 1170C69.7061 1181.63 53.1088 1178.88 44 1177M8 1176L2 1182M145 1199C144.899 1207.67 139.383 1214.8 134.997 1222C125.093 1238.25 114.935 1254.95 102 1269M146 1208C148.965 1220.6 141.088 1234.41 133.471 1243.99C127.753 1251.18 119.824 1252.25 123 1263L129 1261L122 1270L122 1264M830 1218L826 1250M80 1233C76.9465 1250.96 67.0188 1268.59 59.4745 1285C56.0333 1292.48 52.702 1300.62 45 1304.72C32.3462 1311.46 14.6008 1307.58 1 1307M129 1261L146 1250M132 1372C137.335 1349.6 137 1323.92 137 1301C137 1291.42 134.317 1279.08 137 1270C152.833 1278.39 155.529 1303.2 153.271 1319C150.311 1339.72 141.732 1356.95 132.989 1375.26C130.63 1380.2 130.869 1386.04 128.574 1391C121.199 1406.96 112.705 1424.69 104 1440C91.1179 1433.53 82.2512 1439.91 70 1443.56C66.43 1444.63 56.7917 1447.91 53.6034 1445.23C50.7213 1442.8 51.8929 1435.35 52.0394 1432C52.5071 1421.32 56.9073 1407.46 52.4113 1397.17C48.4829 1388.18 31.6459 1384.19 23 1382.45C19.4615 1381.74 10.8097 1382.1 9.49769 1377.85C8.52029 1374.68 11.4841 1369.78 12.7809 1367C16.8878 1358.19 21.2288 1349.76 27.1304 1342C37.1256 1328.85 49.2468 1312.96 62.0039 1302.47C71.4115 1294.73 82.7818 1289.56 93 1283.06C101.451 1277.69 110.081 1269.28 120 1267M2 1279L4 1284M709 1391L768 1358M753 1367C748.982 1374.34 735.218 1380.75 727 1381M1 1538L38 1535.23L64 1521.26L116 1497.01L146 1484.89L156.356 1476.96L153.081 1459L134 1400C142.357 1401.23 151.203 1404.78 159 1408.01C164.934 1410.47 170.635 1413.47 176 1417C180.658 1420.07 185.952 1423.06 189.775 1427.17C196.368 1434.27 194.504 1444.58 189.76 1452C181.288 1465.26 165.356 1475.58 159.154 1490C155.511 1498.47 159.998 1520.03 164 1528C183.027 1513.5 197.641 1492.57 214.985 1476.09C245.33 1447.26 278.52 1421.63 313 1397.98C338.61 1380.41 365.902 1361.1 397 1377.24C414.468 1386.3 422.2 1402.97 428.707 1420C432.766 1430.63 440.451 1438.39 442.88 1450C447.533 1472.25 440 1496.48 440 1519C440 1532.83 436.186 1554.44 443.558 1566.85C445.915 1570.82 464.147 1573.84 469 1573.98C490.31 1574.62 514.08 1571 534 1581C536.789 1573.55 538.127 1559.45 535 1552M129 1395L134 1400M128 1398L121.575 1429L116.772 1438.97L105 1439M483 1415C494.219 1430.92 518.276 1439.91 526.821 1457C532.891 1469.14 519.465 1487.1 536 1495M104 1441C101.969 1445.34 101.148 1453.12 97.5671 1456.27C89.4256 1463.44 66.4456 1465.37 56 1464.96C50.8103 1464.76 41.0911 1460.47 36.4591 1462.56C32.4192 1464.39 29.1907 1471.53 26.6289 1475C17.419 1487.48 9.81734 1501.62 2 1515M1 1460L51 1447L39 1460M1 1452L11 1456M20 1456L34 1461M539 1498C546.761 1502.58 555.48 1506.7 561.955 1513.09C565.229 1516.33 567.694 1520.56 562 1522M564 1523C566.235 1530.16 567.519 1536.83 561 1542M537 1524L535 1532M537 1527C541.683 1533.05 544.45 1539.04 552 1542M164 1529C143.5 1545.69 127.906 1567.95 104 1580M164 1531L166 1543M1 1591C9.36617 1589.09 16.1235 1582.76 24 1579.46C44.0572 1571.08 64.7639 1564.87 85 1557.19C90.6672 1555.03 108.769 1543.6 113.879 1551.59C117.141 1556.69 107.557 1572.55 106 1578M524 1557L534 1553M463 1756L463 1759" transform="translate(-577.122,-226.816) scale(0.906202,0.316886)"/></svg>