<svg xmlns="http://www.w3.org/2000/svg" xmlns:svg="http://www.w3.org/2000/svg" xmlns:sodipodi="http://sodipodi.sourceforge.net/DTD/sodipodi-0.dtd" xmlns:inkscape="http://www.inkscape.org/namespaces/inkscape" xmlns:xlink="http://www.w3.org/1999/xlink" width="210mm" height="297mm" viewBox="0 0 210 297">
  <sodipodi:namedview/><g inkscape:label="Ebene 1" inkscape:groupmode="layer" id="layer1">
    </g>
<path style="fill:none;stroke:#000000;stroke-linecap:round;stroke-width:5.0" d="M349 305C333.776 287.138 322.843 259.074 303 246C306.096 238.818 294.574 228.755 290.67 223.001C275.536 200.698 264.528 176.079 240 163C255.211 130.845 293.86 96.3431 328 85.885C351.978 78.5398 378.085 85.6273 386.226 112C390.407 125.544 390.048 140.078 389.09 154C386.695 188.775 378.001 221.997 367 255C363.435 265.695 359.92 276.507 355.797 287C353.771 292.157 349.53 299.378 349.682 305C349.802 309.446 354.405 313.552 356.795 317C361.566 323.885 365.795 331.426 369.37 339C375.666 352.338 373.138 366.592 378.084 379.999C380.156 385.616 385.139 389.243 388.572 394.001C393.114 400.295 395.874 406.983 399 414C409.989 406.091 417.517 390.465 424.4 379C441.525 350.472 459.339 320.436 464.561 287C466.58 274.071 465.298 243.885 450.985 237.546C436.772 231.252 437 249.623 437 258C437 283.51 439.071 311.108 445 336M76 503C81.5164 510.266 87.9713 519.031 96 523.634C108.198 530.627 124.609 527.453 138 528.039C147.062 528.436 157.129 530.905 166 527.74C178.623 523.236 187.72 508.022 193.999 497C195.893 493.675 200.146 487.289 197.882 483.318C196.133 480.25 191.793 481.303 189 481.754C180.732 483.088 172.153 484.344 164 486.235C137.154 492.462 99.4867 519.754 73.0432 499.431C56.8514 486.987 54.9184 463.403 57.4105 445C62.6963 405.966 74.7055 368.847 72.9606 329C72.0882 309.076 64.8083 272.068 40 272C40.3535 254.875 49.2937 238.026 56.7523 223C67.8478 200.648 79.0224 178.253 92.1921 157C98.7965 146.342 106.155 133.944 116 126M284 215C275.808 218.299 266.925 207.007 261 202.339C246.441 190.867 232.445 181.084 213 183.174C188.793 185.774 172.473 205.543 154 218.839C148.476 222.816 141.291 223.664 135 226.201C126.746 229.529 118.689 235.12 110 237C113.22 226.133 123.256 215.953 131.015 208C154.54 183.884 203.006 147.179 239 164M238 164L229 183M226 184L201 243C207.17 243.407 213.126 240.104 219 238.427C229.443 235.447 240.178 233.204 251 232.17C271.556 230.205 284.956 237.412 303 245M160 215L178 212.373L210 207M251 209L270 210M147 223C145.235 229.288 139.478 233.222 135.286 238C125.598 249.045 112.363 263.504 112 279C141.784 275.949 168.019 249.634 198 247C195.842 271.753 167.208 318.837 203 332.532C207.225 334.148 211.554 334 216 334M110 237L104 246M201 243L199 246M306 245L306 247M312 258C315.417 272.762 319.706 284.559 316.55 300C315.439 305.434 307.412 320.578 310.212 325.411C311.658 327.907 316.541 327.761 319 328.134C325.452 329.113 331.511 331.509 337 335L348 308M40 272C35.6758 284.425 41.3156 298.18 44.9745 310C50.4006 327.529 56.6095 349.614 54.8302 368C53.3815 382.97 40.9609 405.608 47 420L50 420M46 420L42 433C20.2739 398.88 7.51046 354.472 14.615 314C17.0168 300.317 22.6 278.323 38 274M279 331C287.468 326.457 298.621 327 308 327L304 345C295.04 340.231 286.205 333.194 276 331.274C248.657 326.13 213.361 343.257 193 360C212.212 374.697 241.177 363.156 262 375.475C267.894 378.963 273.366 383.443 279 387.348C284.741 391.328 299.835 405.766 295.781 413.895C292.744 419.985 281.905 422.367 276 424.333C261.601 429.129 247.856 429.408 233 431.022C223.237 432.083 213.968 434.917 204 435M218 335L231 335M338 335L317.405 378L292 401M338 335L375 375M446 346C446.88 388.647 454.938 431.241 455.985 474C457.734 545.373 447.362 618.679 435.565 689C423.833 758.933 404.816 827.55 391.196 897C387.045 918.168 375.981 940.536 375 962C398.344 955.275 424.145 939.238 445 926.799C451.365 923.003 462.827 918.181 465.917 910.996C468.706 904.514 457.901 895.902 454 892C440.551 878.55 420.527 853.776 401 850M189 360L193 360M290 400L243 422L241 420C242.383 417.357 244.742 414.182 244.353 411.04C243.869 407.136 236.449 401.236 232.603 404.046C230.177 405.819 230.342 412.211 229 415C226.105 412.136 224.576 408.622 222.752 405C220.689 400.903 214.842 393.982 215.932 389.144C216.814 385.232 222.866 385.08 226 384.59C236.865 382.893 248.023 383 259 383M172 411L157 400L196 389.119L215 387M380 387L393 421L399 416C405.568 426.721 401.188 441.723 398.151 453C391.219 478.745 380.99 504.109 375 530C387.248 529.474 412.892 524.656 414.809 544C415.465 550.625 410.364 559.344 407.36 565C398.722 581.263 388.253 596.453 377.011 611C344.056 653.642 313.292 700.025 276.039 739C262.122 753.561 248.751 770.508 231 780.663C201.132 797.749 162.418 798.165 146.44 762C142.444 752.956 140.357 742.716 138.754 733C138.081 728.924 138.544 721.909 136.115 718.495C133.562 714.907 127.442 712.581 124 709.714C116.579 703.535 110.886 696.269 105.922 688C90.2435 661.882 85.0703 631.25 70.1273 605C59.7974 586.854 41.0014 571.263 35.0432 551C28.5356 528.869 33.902 502.853 30.8117 480C29.9 473.258 20.2064 468.45 20.2068 462.925C20.2071 458.18 27.6999 455.99 29.3966 451.829C31.7968 445.945 28.2649 437.171 28 431L39 433M155 400L157 400M399 414L399 416M175 415L178 416M230 416L230 419M241 420L233 429M186 421L209 426.911L234 426M38 423L44 422M392 422C390.561 433.385 389.116 445.659 381.61 454.985C370.79 468.429 350.63 471.132 336 478.194C322.626 484.651 309.871 494.293 295 497.957C279.982 501.657 265.591 499.313 251 506.608C224.699 519.759 208.254 547.51 187.714 567.572C179.47 575.623 169.612 578.673 160.71 584.891C151.529 591.304 133.296 607.372 121.09 605.509C117.04 604.89 114.899 600.082 111.829 597.803C106.53 593.869 99.9163 590.9 94 588M36 423C25.5417 428.69 13.2845 426.485 2 426M27 427L27 430L21 428M339 476L354 460L390 426M44 434C44.5779 451.11 42.7796 468.131 46.8981 485C52.5928 508.325 68.5081 529.322 81.456 549C88.0523 559.025 92.9378 570.914 102 579M45 439L57 439M51 440L44 444M31 453L43 445M324 487L304.285 508.004L256.116 565L239 591C251.08 590.113 265.352 578.399 276 572.781C294.617 562.958 313.824 554.337 333 545.694C345.21 540.191 359.53 533.1 373 532C370.981 551.734 357.044 574.963 347.424 592C339.946 605.245 331.397 617.938 322.113 630C314.086 640.427 305.24 649.656 296.004 659C258.392 697.05 195.918 751.36 139 719M71 500L79 543M375 530L373 532M173 582L196.09 604.004L217 625M115 598L159 583M239 591L228 600M182 626C172.701 626.399 163.984 629.209 155 631.346C142.059 634.423 137.604 637.177 126.996 628.468C125.219 627.008 114.96 621.324 118.712 618.066C121.58 615.577 134.003 618.136 138 617.961C152.916 617.307 173.632 609.094 183.267 623.714C185.041 626.406 187.919 629.448 187.493 632.945C187.012 636.89 182.124 638.186 179 639.388C170.389 642.701 160.27 650.367 151 648.981C147.037 648.389 138.278 643.062 134.938 646.618C131.297 650.495 133 660.143 133 665C133 682.475 136 699.634 136 717M187 627L210 625M431 873C423.043 875.352 413.309 874.517 405 875.089C382.457 876.642 361.139 876.957 339 871.116C331.612 869.167 311.893 861.286 313.036 851.109C313.72 845.022 330.344 843.54 335 842.869C356.112 839.825 381.654 834.192 400 849M439 873C454.531 872.957 470.566 870.783 486 869.05C491.221 868.464 499.318 865.916 502.914 871.148C510.542 882.245 503.244 898.463 500.373 910C492.657 941.01 484.89 971.987 477.127 1003C458.846 1076.03 430.313 1146.52 404.228 1217C381.289 1278.98 361.579 1342.51 338 1404M174 1312C174.794 1216.11 193.821 1123.7 220.291 1032C226.604 1010.13 233.08 988.348 237.551 966C238.566 960.923 238.721 945.978 243.514 943.121C247.544 940.719 258.982 946.781 264 947C263.314 938.319 253.37 922.017 258.028 914.329C261.473 908.642 272.254 905.12 278 902.247C298.435 892.029 341.962 877.708 349.606 912C352.591 925.39 340.376 939.108 333.151 949C318.067 969.652 300.76 988.524 282 1005.91C273.648 1013.65 259.02 1020.58 253.752 1030.96C251.574 1035.25 257.047 1035.89 260 1035.98C267.663 1036.23 277.527 1036.17 284.892 1033.86C290.622 1032.06 294.632 1019.77 298.04 1015C305.535 1004.52 316.037 996.906 326 989C315.575 972.38 302.283 960.204 284 952.865C280.363 951.405 269.155 946.736 265.603 949.118C261.149 952.105 260.852 971.501 258.996 977C250.057 1003.49 239.337 1029.17 231.28 1056C203.581 1148.22 207.494 1246.94 200.91 1342C199.227 1366.3 194.369 1391.12 189.6 1415C187.544 1425.3 181.771 1439.68 184 1450C189.005 1445.39 190.165 1437.37 192 1431C195.743 1418.01 199.243 1404.76 203.695 1392C218.004 1350.98 237.656 1311.16 260 1274C268.5 1259.86 277.062 1246.3 288.17 1234C290.896 1230.98 296.995 1222.58 301.852 1224.41C308.669 1226.97 303.03 1249.47 302 1255M375 962L366.165 992L348.567 1045L349 1068L345 1060C338.661 1070.2 336.21 1082.95 331.576 1094C319.761 1122.18 309.059 1150.14 294.306 1177C287.12 1190.08 280.013 1205.65 268 1215C264.008 1201.5 265.933 1185.83 265.999 1172C266.174 1135.76 270.928 1095.51 278.285 1060C280.062 1051.43 284.525 1043.57 286 1035M348 1043L334.138 1005L327.994 990.043L338 981.719L372 965M288 1033C309.782 1033 333.342 1031.25 345 1053L346 1052L347 1051L348 1050M345 1053L345 1060M349 1068C349 1094.03 333.14 1118.36 325.72 1143C320.058 1161.8 316.13 1180.97 311.373 1200C309.338 1208.14 308.691 1217.46 305 1225M348 1083C352.179 1090.83 350.9 1102.29 351.004 1111C351.167 1124.68 353 1138.24 353 1152C353 1184.45 349.988 1216.59 350 1249C350.009 1271.96 353.238 1294.97 352.406 1318C351.956 1330.44 350.835 1342.73 348.54 1355C347.189 1362.22 344.012 1370.77 346 1378M174 1317L173 1330M173 1335L171 1364M170 1369C166.238 1398.77 166.771 1429.1 163.83 1459C158.109 1517.15 144.974 1576.28 131 1633M184 1450L165.424 1538L159 1586M1054 1713.09C1056.02 1712.18 1058.13 1712.78 1058.5 1715.15C1059.23 1719.86 1055.09 1724.29 1055.08 1728.95C1055.06 1734.31 1068.2 1744.11 1055.98 1748.82C1048.33 1751.77 1052.52 1737.05 1051.36 1734.31C1050.21 1731.62 1046.52 1732.03 1045.12 1729.57C1042.48 1724.9 1049.96 1714.89 1054 1713.09M1017 1723C1018.32 1722.13 1019.63 1721.16 1021.04 1720.43C1034.99 1713.24 1018.71 1742.18 1028.22 1745.29C1031.59 1746.39 1036 1743.25 1039 1742M1054 1731L1052 1733M70 1799L71 1799" transform="translate(-577.122,-226.816) scale(0.949946,0.330569)"/></svg>