<svg xmlns="http://www.w3.org/2000/svg" xmlns:svg="http://www.w3.org/2000/svg" xmlns:sodipodi="http://sodipodi.sourceforge.net/DTD/sodipodi-0.dtd" xmlns:inkscape="http://www.inkscape.org/namespaces/inkscape" xmlns:xlink="http://www.w3.org/1999/xlink" width="210mm" height="297mm" viewBox="0 0 210 297">
  <sodipodi:namedview/><g inkscape:label="Ebene 1" inkscape:groupmode="layer" id="layer1">
    </g>
<path style="fill:none;stroke:#000000;stroke-linecap:round;stroke-width:5.0" d="M334 295C341.214 296.081 346.507 300.578 353 303.536C363.578 308.356 376.263 311.804 388 310.826C420.467 308.121 452.876 287.972 479 269.976C488.306 263.566 500.926 259.602 506.467 249C512.918 236.656 512.17 221.431 513.089 208C513.662 199.633 515.13 191.208 512.401 183C508.697 171.856 498.844 161.508 492.144 152C487.803 145.839 484.713 138.749 479.79 133C467.474 118.616 448.278 106.035 430 100.782C419.023 97.6267 404.92 98.4985 395 93C412.987 78.4312 437.684 63.7092 462 67.3009C473.396 68.9843 483.328 77.249 492 84.1998C514.859 102.523 535.007 129.506 545.572 157C556.515 185.479 548.085 215.863 546.089 245C544.517 267.955 546.51 289.583 539.564 312C528.195 348.692 496.397 364.312 469 387.439C455.446 398.881 444.602 413.756 435.745 429C418.384 458.879 416.745 489.498 407.848 522C404.581 533.935 396.935 544.074 383 541.671C368.277 539.132 351.366 528.992 339 520.922C335.98 518.951 326.285 514.587 327.636 510.049C332.217 494.659 368.539 493.561 361.768 473C360.532 469.249 359.098 465.469 357.201 462C354.971 457.926 352.101 454.191 348 452C346.586 456.773 347.079 461.67 344.146 465.985C332.183 483.583 306.986 477.319 290 481C295.395 492.557 300.44 504.121 301.834 517C303.209 529.702 298.3 542.484 300.213 555C302.792 571.871 320.387 585.217 335 591.134C376.918 608.109 417.072 566.304 445 541.169C453.521 533.5 461.717 525.627 469.285 517C477.31 507.851 485.338 498.76 492.626 489C494.85 486.021 499.835 481.127 499.119 477.04C497.947 470.347 487.46 467.968 482 468.005C466.88 468.106 444.904 475.411 434 486M327 88C348.412 90.3917 373.534 95.6539 395 93M330 89C346.528 103.096 369.601 109.117 388 94M270 414C261.492 413.046 249.888 402.151 244.344 395.83C241.457 392.539 239.902 386.716 244.351 383.752C247.325 381.77 249.419 386.096 250.924 387.961C254.219 392.048 258.588 394.711 264 393.606C271.129 392.149 274.97 386.085 280.09 381.619C286.377 376.134 294.463 371.656 302 368.12C306.872 365.834 315.059 362.659 319.566 367.318C328.735 376.796 310.176 387.216 311 396C321.113 391.216 352.332 373.454 346.771 360C341.304 346.772 318.703 331.773 304 333.304C293.01 334.449 282.718 345.474 273.213 334.956C257.482 317.549 266.838 294.918 268.829 275C273.366 229.633 265.803 173.274 304 139.174C333.718 112.642 392.005 124.727 418.985 151.04C431.053 162.809 436.119 178.242 443.258 193C449.219 205.32 456.408 217.313 461.547 230C462.941 233.44 466.264 239.999 463.958 243.569C461.913 246.735 457.124 246.247 454 245.536C445.104 243.51 436.066 240.273 427 239.184C419.725 238.311 412.285 239.609 405 238.826C397.111 237.979 390.031 233.51 382 233.26C367.465 232.808 349.399 238.289 336 243.601C326.671 247.299 311.13 252.488 308.827 264C306.882 273.728 318.3 272.041 324 270.625C336.706 267.468 348.589 255.031 361 253.502C364.377 253.086 367.766 255.269 371 256M175 306C184.348 304.222 203.49 305.669 210.393 297.442C214.617 292.408 207.534 279.086 205.308 274C198.931 259.431 190.638 242.187 191.015 226C191.134 220.871 192.077 212.062 196.394 208.607C200.252 205.52 205.792 208.854 208.996 211.39C216.985 217.715 221.727 227.471 226.91 236C232.792 245.678 234.15 256.102 236.511 267C242.63 295.249 244.71 324.224 247 353M367 255C362.643 257.912 358.876 259.39 354 257M345 262C350.342 269.481 355.404 286.482 367 284.667C375.398 283.352 388.227 266.393 395.664 269.647C401.156 272.049 389.897 283.012 387.961 284.985C374.451 298.75 360.943 293.331 345 298M210 283C216.114 282.983 224.607 281.009 229.683 285.564C238.708 293.663 231.224 314.054 222.996 319.525C213.414 325.898 199.154 319.581 189 325C197.594 330.466 205.11 332.957 210.91 342C222.391 359.901 226.934 381.323 240.576 398C246.506 405.249 252.109 411.987 262 413M180 303C186.464 295.009 197.6 288.056 207 284M185 325L189 325M437 482C440.313 469.981 447.826 459.819 453.691 449C462.817 432.167 471.533 414.881 483.751 400C488.155 394.635 493.944 380.855 500.322 378.176C505.8 375.874 512.12 390.213 513.652 394C520.724 411.481 529.695 432.799 525.101 452C517.618 483.276 506.451 513.808 498.478 545C489.609 579.701 485.075 611.857 467.691 644C450.45 675.879 426.176 703.586 409.969 736C397.331 761.277 390.92 787.305 386.561 815C384.129 830.45 379.506 852.796 384 868C399.895 855.679 413.52 840.665 430 828.91C459.961 807.539 492.304 790.142 520 765.714C535.553 751.996 551.975 729.968 539.073 709.004C527.722 690.559 498.413 695.055 482 685C526.484 655.241 612.761 683.547 615.964 741C616.867 757.184 619.664 773.786 618.961 790C617.287 828.56 604.653 867.447 587.892 902C576.742 924.986 566.41 948.37 554.529 971C542.562 993.793 528.816 1015.29 529.005 1042C529.106 1056.29 529.913 1072.38 537.352 1085C548.457 1103.84 570.367 1117.99 578.546 1138C595.668 1179.89 578.03 1224.54 562.935 1264C556.669 1280.38 548.353 1295.91 541.46 1312C529.668 1339.53 517.947 1368.12 500.971 1393C492.632 1405.23 481.549 1415.69 471 1425.99C466.975 1429.91 459.414 1434.14 458.194 1440C456.679 1447.28 462.743 1459.06 465 1466M341 445C333.686 445.373 327.141 443.332 320 446.363C304.719 452.849 282.844 482.391 265.3 462.96C261.74 459.017 258.814 454.486 256 450C264.527 447.869 272.868 453.324 282 450.351C289.908 447.776 292.385 439.106 299.015 434.894C309.107 428.48 337.064 432.414 341 445M254 446L256 449M342 446L347 451M281 476L290 482M464 685L481 685M381 706C368.956 715.189 351.308 719.469 338 727.449C330.396 732.009 320.076 739.919 311 740C312.574 731.124 305.07 715.636 309.067 708.213C312.06 702.654 322.444 701.087 328 700.001C350.039 695.691 368.315 703.917 389 708M312 741C293.852 754.479 267.843 751.358 249 763.443C236.415 771.514 230.527 787.429 226 801C224.595 805.212 220.85 812.563 223.693 816.775C226.867 821.479 235.995 823.89 241 826.091C255.39 832.418 270.127 840.01 285 845L303.474 776L310 744M285 845C303.202 857.552 325.339 865.021 339.482 883C346.049 891.347 348.871 901.126 352 911L371.793 884L383 869M286 846C273.786 867.078 270 895.634 263.846 919C251.358 966.413 238.282 1015.36 232 1064M383 875C385.088 923.618 396.895 966.506 422.807 1008C430.859 1020.89 439.587 1033 448.888 1045C452.287 1049.39 458.219 1053.15 456 1059M351 912C349.991 922.069 343.445 930.492 340.633 940C333.797 963.118 326.472 1000.47 337.996 1023C345.398 1037.47 361.005 1046.47 376 1051M334 947C308.27 981.141 273.742 999.946 242 1027M197 1170C188.592 1155.21 181.179 1134.13 181.179 1117C181.179 1082.59 208.135 1047.61 237 1031M378 1052L382 1053M386 1055L407 1060M409 1060L411 1060M414 1061L426 1062M447 1061L450 1061M429 1062L435 1062M439 1062L444 1062M230 1072L222.17 1116L219.83 1167L213.918 1202L226.752 1229L256 1286M447 1311C445.575 1292.94 442.436 1274.15 444.17 1256C446.626 1230.3 457.025 1207.36 469.312 1185C472.134 1179.86 476.234 1170.95 482.015 1168.75C491.083 1165.29 509.577 1173.2 508.775 1184C507.887 1195.95 494.415 1208.04 488.4 1218C475.564 1239.27 465.93 1261.35 458.344 1285C447.862 1317.68 444.412 1350.93 441.17 1385C440.342 1393.7 440.493 1403.28 441.09 1412C441.382 1416.27 443.203 1421.71 441.397 1425.85C439.549 1430.08 432.795 1429.07 429 1429.58C417.093 1431.16 406.193 1434.71 395 1439.04C390.228 1440.88 380.014 1442.56 383 1449M198 1173L205 1185M206 1189L210 1195M214 1205C203.494 1223.2 200.995 1243.57 196.999 1264C195.583 1271.24 191.955 1281.83 194.858 1289C197.258 1294.93 203.288 1298.46 207.91 1302.45C214.529 1308.17 220.944 1315.31 226.56 1322C246.289 1345.5 259.227 1377.06 259.985 1408C260.558 1431.38 259.63 1454.82 256.576 1478C255.991 1482.44 251.637 1499.09 256.318 1501.4C265.523 1505.94 280.335 1499.69 289 1496.75C309.792 1489.69 329.581 1474.31 348 1462.34C357.248 1456.34 369.084 1448.1 380 1446M257 1289L271 1308M273 1311C290.802 1329.18 306.719 1344.58 319 1367M449 1341L453.83 1410L456 1438M323 1373L325 1377M326 1379L328 1382M329 1385L331 1388M336 1396L347 1411M353 1419L354 1420M456 1438L446 1446L443 1429L449 1430M362 1430L363 1431M365 1432L365 1433M386 1451C409.02 1464.95 422.645 1456.27 445 1447L453.475 1492L486 1594" transform="translate(-577.122,-226.816) scale(0.899485,0.326615)"/></svg>