<svg xmlns="http://www.w3.org/2000/svg" xmlns:svg="http://www.w3.org/2000/svg" xmlns:sodipodi="http://sodipodi.sourceforge.net/DTD/sodipodi-0.dtd" xmlns:inkscape="http://www.inkscape.org/namespaces/inkscape" xmlns:xlink="http://www.w3.org/1999/xlink" width="210mm" height="297mm" viewBox="0 0 210 297">
  <sodipodi:namedview/><g inkscape:label="Ebene 1" inkscape:groupmode="layer" id="layer1">
    </g>
<path style="fill:none;stroke:#000000;stroke-linecap:round;stroke-width:5.0" d="M268 161C284.669 160.989 300.988 150.951 316 144.309C343.556 132.117 370.504 120.333 400 113.594C414.657 110.246 431.06 112 446 112C507.203 112 574.196 128.927 612.406 180C634.816 209.954 640.067 244.127 649.909 279C656.518 302.418 662.773 325.845 666.13 350C667.548 360.195 668.939 374.058 666 384L686 394M396 128L444 124M446 125L456 126M458 126L467 128M271 243L252 226C254.896 225.406 258.298 226.348 261 225.049C267.415 221.964 273.015 213.985 278 209C289.507 197.493 301.243 186.277 313 175.039C334.595 154.398 365.639 138.244 394 129M469 129L480 131M482 132L514 142M517 144C538.801 150.591 558.929 161.931 575 178M352 150L377 149M379 149L388 149M391 150L398 150M290 157C304.636 160.171 326.557 154.449 341 151M403 151L412 152M414 153C432.912 154.495 467.312 160.969 479.363 177.039C487.281 187.599 489.085 206.241 491.386 219C492.803 226.863 493.591 235.014 492.83 243C492.477 246.708 490.504 252.343 492.773 255.722C495.667 260.031 504.496 261.557 509 263.809C519.853 269.235 529.588 276.413 539 284M177 172L180 172M169 174L175 173M182 173L196 178M166 174L167 174M159 176L161 176M153 178L156 178M79 217C102.084 204.854 125.681 186.911 151 180M198 180L202 185M578 181L594 202M203 188C211.073 207.132 198.023 224.501 185 237M595 205L606 225M1 269C25.4364 250.886 49.3206 233.795 76 219M249 225L252 226M264 226C289.06 228.185 307.46 251.893 331 253M607 227L611 251M259 228C227.725 259.275 199.833 293.705 172 328L163.867 307.121L142 312M886 310C880.836 303.894 882.824 299.29 882.646 292C882.333 279.228 883.98 266.859 884 254C884.004 251.274 881.64 233.713 888.475 238.662C893.811 242.526 895.229 252.136 897.025 258C901.483 272.557 904.366 287.991 906.919 303C907.929 308.942 907.904 319.815 911.718 324.606C915.513 329.372 924.6 328.172 930 330L919 362L912 326M178 245L176 247M275 246C287.413 249.591 306.578 257.629 319 251M372 251L419 248M421 248L422 248M425 248L429 248M431 248C451.178 248 471.758 250.847 491 257M174 249L170 253M334 252L370 252M612 254L604.004 321L604 342M323 255L334.259 266.397L369 269.089L380 269L379 266M490 257C489.772 284.134 472.147 311.021 465.594 337C464.055 343.103 461.964 349.724 461.439 356C461.065 360.472 462.052 366.789 459.682 370.772C454.927 378.762 439.138 371.459 434.995 380.083C431.426 387.51 432.961 397.081 431.535 405C427.724 426.17 424 446.282 424 468M163 260L166 258M160 264L158 266M294 274L331 267M156 268L145 280M335 269C344.61 281.118 352.568 295.474 357.946 310C361.357 319.214 364.038 334.051 371 341C379.74 318.173 380.05 296.064 380 272M273 283L291 276M65 462C68.724 474.202 79.8285 478.054 91 472C72.6575 449.901 60.3966 423.005 46.6944 398C37.9333 382.011 27.6365 364.89 28.0154 346C28.3707 328.29 40.9897 306.991 52.2894 294C56.7701 288.848 63.2868 281.125 71 282.247C78.1939 283.293 82.1406 291.732 86 297M143 282L135 291M235 299L270 285M541 286C556.532 297.544 571.285 311.374 585 325.001C588.815 328.792 598.263 334.514 599.32 340.001C600.958 348.504 586.501 358.096 581 362.238C569.126 371.18 556.742 381.18 548.815 394C541.593 405.678 538.529 418.255 528.826 428.996C521.212 437.426 511.936 445.969 503 452.985C498.721 456.345 492.911 459.048 493 465C500.501 460.22 510.693 453.654 520 454.214C534.598 455.092 542.97 475.325 540.335 488C535.386 511.806 519.279 522.724 503 539C501.214 534.394 500.504 530.698 495 533M133 294L132 295M1034 364C1029.79 362.756 1022.24 360.952 1018 362.151C1011.63 363.949 1006.68 371.079 1000 368C1011.8 357.94 1028.79 352.5 1036.57 338C1039.31 332.887 1038.64 325.64 1040 320C1030.49 318.019 1026.1 324.786 1023.89 333C1023.14 335.767 1022.65 341.445 1019.58 342.744C1016.91 343.875 1004.94 335.288 1001 334L1028 313.575L1045 297M130 298L127 301M87 299L88 300M1000 335C989.435 335.864 977.456 340.551 968 345.248C962.384 348.037 956.46 352.938 950 352C966.005 330.993 987.613 326.006 1010 314.626C1019.64 309.726 1030.35 300.922 1041 299M233 300L230 301M89 302L90 303M205 318L228 303M125 304L122 306M91 305L93 308M121 308L115 316M109 324C113.247 317.207 132.034 313.7 140 313M99 314L100 315M890 314L909 324M104 317L110 318M198 323L201 321M440 427C438.51 424.78 435.558 421.897 435.921 419C436.358 415.503 440.608 412.322 443 410.089C450.083 403.478 456.995 396.738 464 390.039C484.497 370.44 507.748 354.041 530 336.603C534.936 332.735 548.928 319.902 555.811 323.132C560.288 325.233 560.668 331.814 561.424 336C563.478 347.357 565.863 358.658 568 370M196 325L182 338M107 327L105 329M102 333L95 343M1008 333L1008 335M1007 336L1001 365M181 340L172 349M370 341C367.345 362.291 347.236 381.004 332 394C330.708 387.429 338.949 376.954 346 379M606 344L658 380M993 344L1004 350M93 346L89 353M370 346C375.046 354.708 376.263 365.942 382.708 373.907C399.411 394.546 427.014 371.213 443 363M171 351L168 355M88 356L79 376M165 358L161 362M919 362C919.133 376.831 922.118 392.805 928.892 406C931.337 410.763 933.58 418.387 940.001 418.747C947.395 419.161 956.001 410.559 961 406C974.65 393.551 989.797 382.939 1003 370M1022 362C1018.63 369.232 1012.59 374.309 1005 370M1016 363L1019 366M133 367L129 375M439 367L437 376M984 367L986 367M988 368L1000 368M919 369C916.94 371.99 915.604 375.072 920 376M26 370C25.9987 382.068 23.3098 393.953 23.0147 406C22.3353 433.732 23.9218 461.326 24.2901 489C24.497 504.545 21.4948 527.939 29 542L43 527M155 371L154 373M917 376L913 384L903 372L915 373M898 372L903 372M132 374L132 385M569 375C569 392.642 571.093 410.32 569.94 428C567.558 464.533 559.363 501.579 550.125 537C547.817 545.851 545.272 557.6 537.935 563.782C534.136 566.984 529.5 565.751 525 565.31C515.623 564.391 500.972 567.58 493.218 561.088C487.484 556.288 498.894 541.55 501 543M1033 376L1032 379M151 377L151 378M419 380L436 377M78 378L75 384M127 379L125 383M267 395C261.701 391.919 251.382 386.469 245.043 388.643C239.642 390.495 237.031 399.438 234.421 404C227.423 416.235 219.783 428.211 213.836 441C211.339 446.371 207.535 451.989 209 458C240.405 438.04 264.203 407.852 298 390.756C307.58 385.91 326.71 376.516 337 382M349 380C352.748 384.293 358.169 389.221 359.402 395C361.745 405.983 347.51 419.648 340 425.62C333.197 431.03 323.099 433.479 315 436.434C303.446 440.651 292.407 446.038 281 450.6C271.355 454.458 260.647 461.631 250.004 461.771C244.028 461.849 242.635 455.469 238 453M661 381L665 384M1031 381L1021 421M409 383C401.056 388.82 392.501 393.883 385 400.3C368.365 414.532 347.094 442.401 322 435M667 385C666.917 415.08 659.762 443.612 654.463 473C647.377 512.302 639.819 552.147 637.089 592C635.613 613.556 636.263 635.622 639.427 657C641.184 668.865 647.436 685.351 644 697L638 677M914 385L922 395M74 387L74 389M913 387C904.612 409.498 897.039 436.865 897 461C896.987 468.864 895.954 477.611 899.214 485C906.97 502.585 925.793 515.802 939 529M330 393L311 411.241L304 416M72 394L71 397M132 395L132 426M269 396L275 398M690 396L694 398M70 399L68 409M118 399L118 400M696 399L705 404M320 402L321 400M285 401L311 403M313 402L319 401M707 405L711 408M713 409L714 409M67 411L67 413M287 411L295 421L303 417M113 413L112 414M719 413L727 419M66 415L66 418M111 418L110 419M293 419C285.51 423.65 278.399 423.062 270 422M304 419C301.276 423.539 298.264 427.428 295 421M65 420L65 423M264 421C269.991 428.766 276.476 437.497 286 441L287 426M109 422L109 423M1020 423C1012.54 455.247 982.51 469.715 954 482M132 429L132 442M443 430L449 444M63 438L63 442M63 444L63 453M132 445L132 450M449 447L450 452M133 453C133.003 475.946 134.957 499.08 135.961 522C136.751 540.052 135.119 558.082 138.08 576C139.483 584.489 139.073 608.625 147 613M243 454L267 455M450 454L450 459M64 455L64 460M959 460L965 457M971 457L996 459M956 462C946.688 473.434 941.091 475.008 927 475M1006 462L1013 464M451 464L451 465M492 464L485 469M424 470L424 475M451 470L451 472M1011 470L1011 471M1010 473L990 504M92 474L106 478M451 475L451 499M95 476L107 493L82 505M930 479L935 484M167 483L168 486M944 487L952 484M940 487L942 487M100 488L99 490M592 491C579.457 513.278 577.9 542.826 589.444 566C594.421 575.992 603.703 582.497 608.124 593C614.291 607.652 614.133 623.034 617.595 638C620.724 651.524 627.399 666.22 628 680M775 492L775 493M547 760C539.16 753.692 539.814 738.493 537.37 729C530.642 702.868 523 678.289 523 651C523 644.92 520.556 633.383 523.002 628C526.53 620.235 535.83 613.002 540.985 606C549.116 594.956 554.131 581.946 558.484 569C564.949 549.772 566.319 532.226 576.231 514C579.476 508.033 582.893 499.35 589 496M776 496L776 497M947 497L949 498M777 499L777 501M171 500L173 508M953 500L954 501M94 501L93 502M451 501L451 506M778 503L778 505M958 503L962 505M92 504L92 505M79 507L76 508M965 507L966 507M984 507L986 507M779 508L779 511M968 508L974 508M976 508L982 508M451 509C451 517.752 450.728 527.025 458 533M46 525L74 510M173 510L169 541M88 513L87 515M780 513L780 516M22 516L20 537M781 519L781 523M84 521L84 522M83 524L83 525M782 526L782 527M82 527L81 529M425 530L425 531M782 530L782 531M80 532L79 534M943 532C968.296 553.561 999.496 551.518 1027 567M425 534L425 535M783 535L783 539M425 538C422.16 560.474 416.17 583.23 388 578M318 539L305 546M20 540L19 553L28 543M503 540L502 541M166 542L162 568M75 544L74 546M313 544L303 556C296.048 550.696 288.371 551 280 551M28 546L37.7145 621L41 653L46 629M502 546L502 551M176 547L179 548M73 548L69 558M181 549L182 549M185 550L192 552M264 553L278 552M784 552L784 554M194 553L196 553M502 553L501 559M18 554L17 561M198 554L203 555M252 555L262 554M205 556L211 556M237 557L250 556M289 556L290 556M213 557L217 557M303 557L245 623M231 558L234 558M67 561L66 565M311 667C285.813 667 257.618 658.71 233 668.613C215.463 675.667 202.261 692.427 188.985 704.951C179.99 713.438 178.578 700.947 170.148 701.192C164.954 701.343 166.645 711.481 168.448 713.985C187.154 739.97 208.52 719.222 231 714.289C250.097 710.099 264.673 700.419 281 690.053C306.376 673.942 330.166 655.505 354 637.235C367.783 626.67 385.838 618.426 396 604C379.728 593.032 361.326 585.812 344 576.745C339.76 574.526 327.9 569.778 330 564M332 564L386 577M785 565L785 583M1029 568C1036.46 570.183 1044.68 566.808 1052 565M1056 565L1058 566M500 566L499 574M1061 566L1062 568M64 569L63 572M1065 569L1066 570M161 571L155 585M62 575L60 582M263 577L264 577M498 577L498 582M497 584L497 590M58 586L57 591M155 587L151 598M785 591L785 592M56 593L55 597M1082 593L1082 594M1 596C15.9293 618.634 21.2306 643.705 32 668M54 599L54 601M496 599L496 600M150 601L149 605M495 602L495 606M53 603L52 606M785 604L785 622M91 607C99.4948 619.348 112.137 629.785 125 637.397C130.581 640.699 140.195 647.549 141 637M148 607L148 610M97 609L99 610M495 609L495 610M102 611L103 611M50 614L50 615M145 615C145 630.177 140.323 626.499 128 623M49 618L49 619M494 619L494 620M48 621L48 624M520 630L512 637C511.339 631.26 515.302 627.055 519 623L522 627M206 628L211 624M494 624L493 625M47 626L47 627M785 626L785 628M204 629L203 631M784 630L784 631M142 633L142 635M784 633L784 637M200 634C187.349 643.604 173.514 657.208 156 653.62C150.044 652.4 145.687 647.758 140 646L140 647L139 648L139 649M222 857C229.882 858.062 237.198 861.434 245 862.905C251.661 864.161 258.403 863.183 265 864.329C275.346 866.126 284.135 869.565 295 867.532C316.155 863.575 331.376 848.79 347 835.428C371.814 814.206 395.804 792.308 415.161 765.911C421.495 757.273 426.287 745.481 431.561 736C443.981 713.669 451.056 688.265 458.659 664C461.834 653.866 465.554 639.569 476.999 636.063C483.545 634.058 487.9 641.963 487.032 648C486.245 653.477 480.384 657.349 479.275 663C475.321 683.147 473.733 703.906 469.113 724C464.303 744.916 441.793 762.013 428.275 778C420.68 786.982 413.384 796.473 408.03 807C405.239 812.488 404.546 818.783 401.125 824C392.112 837.748 375.561 851.341 362 860.482C334.626 878.933 291.265 882 259 882C241.208 882 223.626 877.437 222 857M492 637L492 643M784 639L784 642M492 645L492 647M934 762C934 756.855 931.956 747.585 933.949 743C938.015 733.648 951.551 725.533 959 718.866C982.336 697.978 1006.68 680.635 1034 665.417C1044.96 659.31 1057.08 655.271 1069 651.514C1072.16 650.518 1078.77 648.247 1081.44 651.477C1084.97 655.745 1073.53 664.468 1071 667C1055.2 682.796 1047.11 694.653 1044.87 717C1044.53 720.31 1040.52 733.386 1044 734L1045 734L1046 734M783 651L783 659M41 653L40 661M138 655L138 657M491 655L491 658M138 659L137 663M782 663L782 675M318 665L359 670C335.166 693.636 308.552 714.219 284 737.089C266.029 753.83 250.647 771.945 224 770.956C210.086 770.44 196.826 758.32 185 752M137 667L137 668M32 670L32 671M137 670L137 679M33 673L33 675M34 677L34 680M781 677L775 749M491 679L491 680M492 682L492 686M628 682L637 713L639 689M35 683L36 695M137 683L139 694M493 691L493 692M494 696C501.396 718.731 517.365 745.859 541 755M140 698L142 709M644 698C650.044 709.518 649.089 726.188 650.87 739C651.666 744.732 653.266 749.9 650 755C645.647 747.825 637.285 737.752 639 729L642 740M37 701L37 706M649 708C658.935 719.371 670.139 727.493 685 731.102C700.089 734.766 716.335 733.313 729.996 742.133C739.884 748.516 746.183 762.409 750.399 773C752.274 777.71 756.309 784.013 756.871 788.961C757.307 792.792 752.222 797.066 750.191 800.001C744.103 808.8 740.349 823.018 730.999 828.648C694.9 850.384 657.808 873.569 638.12 913C628.309 932.651 626.1 956.596 630.515 978C634.822 998.882 650.435 1004.22 667.895 991.15C673.196 987.18 675.026 979.781 677.615 974C684.694 958.194 689.23 941.026 698 926C723.11 961.27 713.612 999.784 695.255 1035C669.878 1083.68 636.415 1127.33 609.424 1175C602.174 1187.81 594.75 1201.21 589.533 1215C584.697 1227.78 582.169 1241.78 576 1254C561.014 1246.54 552.355 1225.95 550 1210M142 711L146 722M38 712L38 714M637 714L639 728M38 716L38 719M147 724L148 728M150 732L155 743M1042 735C1039.12 744.117 1049.34 754.446 1057 746C1063.56 755.896 1061 770.628 1061 782C1061 813.09 1063.94 849.092 1050.69 878C1045.13 890.135 1031.67 897.577 1027 909L1028 910L1030 910M1019 766L1036 767L1041 743C1032.39 747.617 1031.35 757.975 1021 748L1040 737M984 772C991.933 756.708 1011.66 742.417 1029 741M967 758L976 744M157 745L159 749M935 766L941 786L958 748L968 753M39 749L39 750M161 752L184 776M39 753L39 757M652 753L654 759M774 754L774 760M590 785L626 803L643.742 768L651 755M651 755L653 757M288 759C279.769 762.537 263.473 766.451 255 763M543 759L539.536 804L532 839L578 814.452L609 804.004L624 801M966 760L966 762M205 762L218 763M286 761C285.119 764.854 284.906 770.425 282.973 773.826C277.781 782.958 261.258 784.999 252 785M220 763L253 763M550 762L558 767M773 763L773 767M995 771L1017 766M965 768L965 769M560 769C571.479 776.185 575.219 788.047 591 787M991 771L993 771M563 772L544 787M772 773L772 776M569 774L587 784M40 775L40 777M966 775L966 776M966 778L966 780M40 779L40 783M186 779L203 803M447 785L449 789M221 856L226 809L227.607 790.703L244 786M41 787L41 796M447 789C447.098 800.689 450.376 818.278 457 828C463.784 817.518 455.256 801.972 450 792M931 852C921.175 842.378 910.145 834.097 897 829.674C893.229 828.405 880.993 827.526 879.357 823.683C878.002 820.5 881.463 816.37 883.156 814C887.98 807.245 900.271 791.193 909 790.06C912.933 789.55 924.801 799.305 927.721 802.329C938.163 813.144 930.096 838.491 933.152 852C935.41 861.982 950.949 874.633 958 882L976.605 846L985.663 831L988 804L966 803L967 792M263 989C273.087 978.913 284.171 966.549 297 960L302 973L362 942.259L436 909.41L467 889.555L477.335 879.911L473.424 870L461 847L540 791M758 792C767.239 805.953 757.25 816.239 750.178 828C737.153 849.664 724.106 870.858 711.861 893C706.668 902.39 704.265 913.193 698 922C686.581 905.226 689.695 881.179 678 864M770 792L770 794M42 798L43 802M763 801C775.013 810.784 777.859 822.967 786.303 835C798.584 852.5 809.901 870.607 816.714 891C826.942 921.611 826.253 949.462 824.089 981C822.468 1004.63 821.713 1027.74 816.576 1051C807.651 1091.41 792.869 1130.2 785.463 1171C778.644 1208.56 775.544 1254.16 781.439 1292C784.755 1313.29 796.463 1334.68 796.985 1356C797.627 1382.21 791.491 1408.94 784.428 1434C775.255 1466.55 764.781 1497.29 746.636 1526C737.921 1539.79 725.143 1550.97 714.4 1563.17C706.324 1572.34 705.035 1584.08 706.17 1596C706.589 1600.41 709.325 1610.08 703.852 1612.39C700.18 1613.94 694.742 1612.04 691 1611.41C678.433 1609.3 660.943 1597.33 649 1599C655.247 1606.09 662.627 1611.66 668.83 1619C671.853 1622.58 673.657 1628.11 678.055 1630.19C683.868 1632.94 695.06 1623.55 696.932 1625.71C698.66 1627.71 696.735 1631.88 696.14 1634C694.143 1641.11 694.283 1647.73 693.614 1655C692.483 1667.3 696.122 1679.08 688.161 1689.96C681.24 1699.41 667.585 1699.97 657 1701.28C639.523 1703.46 623.887 1710.38 607 1714C609.123 1696.96 619.744 1681.48 621.711 1664C622.038 1661.09 620.948 1649.04 626 1650M626 803C624.115 809.594 621.438 819.401 617.437 824.957C613.706 830.138 606.81 833.17 602 837.3C595.674 842.731 590.335 849.542 585.095 856C566.974 878.333 550.282 908.742 541 936M628 803L645 808C646.186 815.417 654.541 818.43 661 820.414C672.279 823.877 692.008 826.783 701 834M964 803L966 803M646 809L652 811M640 810L643 810M767 810L766 819M155 843C160.843 832.506 169.836 817.206 181 812C185.217 824.413 176.929 848.712 173 861M656 812L661 813M663 814L665 814M46 815L46 816M1007 815L1008 815M669 816L671 816M987 830L1003 816M1011 816L1013 817M674 818C683.084 820.153 692.183 823.538 699 830M656 819C659.089 830.345 679.022 846.099 675.443 858.985C673.804 864.888 663.49 870.567 659 874.424C645.847 885.724 633.661 897.92 622.282 911C587.04 951.505 553.763 999.466 537 1051M765 821L765 823M764 825L764 829M1013 826L993 866L986 833M457 828C457.173 838.102 451.743 843.448 447 852M763 831L763 833M51 833L51 834M191 836C192.577 846.718 200.901 854.739 212 855M762 836L762 838M52 837L53 843M459 838L461 845M713 839L741 842M531 840C519.829 872.564 514.625 910.692 515.961 945C516.516 959.232 516.207 975.448 524 988L539 940M761 841L760 845M744 842C749.585 843.936 759.028 846.979 758 854M495 867L529 843M53 845L53 855M153 846L148 854M678 862C679.768 854.888 691.457 848.48 698 846M194 847C201.871 875.778 226.964 896.805 257 898.911C268.129 899.69 277.919 895.589 289 895M447 856L461 847M761 851C783.196 870.391 782.7 895.404 780.308 923C775.421 979.383 748.635 1028.38 734 1082M445 853L443 856M147 856L146 857M216 856L218 856M933 857L934 885C941.341 884.685 951.021 885.434 957 881M445 858L431 867M757 858L757 860M145 859L144 860M52 860L52 864M143 862L141 865M1083 862C1079.51 875.825 1068.41 888.58 1060.29 900C1047.58 917.864 1036.34 936.808 1022.71 954C1015.65 962.917 1008.83 975.415 998 980C994.709 974.29 982.966 968.859 981.461 963.765C980.433 960.286 986.847 956.154 989 954.282C997.626 946.778 1009.05 935.495 1020 932M756 863L756 864M172 864L153 919M755 866L755 868M140 867L137 873M51 868L51 869M422 872L428 869M490 871L492 870M411 879L420 874M400 957C421.989 939.547 443.945 922.174 466 904.789C474.597 898.013 487.499 892.199 479 881L487 874M753 874L751 883M136 875L133 880M132 882L131 884M958 882C955.866 892.728 943.407 901.567 943.63 913C943.765 919.901 951.465 922.717 957 924.01C969.937 927.033 975.687 930.08 989 927C987.65 932.761 980.108 956.76 972.961 956.473C962.427 956.051 958.77 940.23 955 933M403 885L406 883M750 885L749 890M130 886L126 893M420 886L418 889M934 887L934 894L927 888L933 886M397 889L400 887M922 887L927 888M394 890L382 898M48 891L48 892M416 891L415 893M748 892L747 897M287 896L272 900M124 897L124 898M95 898L99 898M87 901L92 899M102 899C117.876 901.478 118.457 915.163 114.329 928C106.481 952.411 90.5098 973.992 83 998M746 899L745 903M266 900C271.683 914.67 285.121 926.895 291.647 942C294.024 947.5 297.802 954.036 296 960M379 900L371 907M408 901L408 902M78 906L83 903M944 914L964 903.357L989 905.16L1023 909L989 927M120 904L120 905M744 905L744 907M76 908L69 913M1024 909L1026 908M1029 910C1016.77 920.426 997.019 929.948 990 945L1011 935M364 912L358 916M400 912L400 913M742 912L742 914M936 929L943 915M741 916L741 917M397 917L396 918M740 919L738 927M112 920L110 926M152 921L145 937M299 958C313.441 944.819 333.035 931.749 350 922M698 922L698 926M737 929L736 934M108 930L107 931M936 931C926.494 953.093 929.561 985.273 951 999.323C958.16 1004.02 967.006 1004.76 975 1007.21C988.118 1011.22 1002.3 1016.69 1012.96 1025.52C1018.6 1030.19 1019.92 1037.22 1024 1043L1083 1010M106 933L105 935M735 936L734 940M104 937L103 939M959 937L960 939M382 938L381 940M144 939C142.294 948.913 135.237 959.636 136.565 970C137.587 977.976 146.348 985.644 149.688 993C155.171 1005.08 157.118 1019.01 159.246 1032C166.373 1075.52 165.008 1117.27 160.83 1161C158.661 1183.7 157.466 1206.28 155.91 1229C155.348 1237.22 152.318 1249.5 156 1257C159.256 1249.69 166.825 1237.2 166.306 1229.1C165.639 1218.7 148.664 1224.29 144 1227M379 942L377 944M733 942L730 954M982 949L989 946M100 947L98 951M376 947L374 949M372 951L371 953M96 955L96 956M729 956L729 958M368 957L366 959M95 959L94 961M309 1011C288.593 1024.77 269.541 1038.53 247 1048.69C242.712 1050.63 229.137 1058.74 224.694 1054.96C219.924 1050.9 231.393 1033.13 233.389 1029C238.636 1018.15 247.574 1012.3 257 1005.13C271.399 994.177 286.009 984.113 301 974L316 1028L338.213 996.383L361 983.656L397 960M728 960L728 961M365 961L363 963M93 963L92 966M727 963L727 964M360 967L358 969M726 967L719 994M91 970L90 971M356 972L353 976M89 973L85 990M351 979L350 980M348 982L348 983M345 986L344 987M260 992L243 1015M718 997L716 1007M312 1010L336 998M715 1009L715 1011M714 1013C711.054 1049.06 699.972 1085.05 695.289 1121C690.667 1156.48 693.36 1191.52 693.157 1227C693.023 1250.33 686.24 1277.13 693 1300M167 1083C185.494 1060.29 209.845 1040.43 234 1024M536 1053L536 1054M534 1059L533 1062M732 1086L704.735 1171L694 1223M92 1254C97.1954 1213.11 110.551 1173.64 129.142 1137C138.005 1119.53 149.015 1099.97 164 1087M534 1087L534 1089M534 1092L534 1096M1083 1102C1081.32 1112.81 1075.73 1124.95 1079 1136L1083 1131M535 1103L535 1111M535 1113L536 1116M536 1119L537 1126M537 1129L537 1137M1078 1137L1077.15 1152L1080.84 1162L1082 1180M538 1142L540 1155M1083 1147L1080 1158M540 1158L548 1206M943 1169C948.605 1182.14 946.107 1196.15 954.299 1208.73C957.728 1213.99 968.669 1216.82 973.726 1212.93C981.233 1207.15 987.602 1195.32 994 1188M943 1170C939.122 1175.85 937.943 1183.43 935.467 1190C926.754 1213.13 911.954 1261.34 950 1266C949.596 1256.59 950.297 1245.11 948.671 1236C947.362 1228.67 943.208 1222.75 943.015 1215C942.899 1210.37 940.533 1195.94 948 1199L948 1199M976 1214C973.215 1228.78 976.583 1240.53 989 1250C990.812 1242.81 986.091 1236.22 986.26 1229C986.63 1213.25 997.636 1189.04 1013 1183C1016.99 1192.29 1022.88 1193.33 1032 1195.91C1047.24 1200.22 1066.47 1203.69 1082 1199M955 1211C955.048 1228.36 955.372 1245.58 953.942 1262.99C952.811 1276.74 947.765 1289.5 958 1302L955 1269C971.515 1276.51 975.526 1296.71 977.134 1313C978.269 1324.49 981.026 1336.39 979.866 1348C976.966 1377.02 963.449 1402.31 948.954 1427C941.56 1439.59 933.33 1450.79 923.06 1461.06C921.377 1462.74 914.991 1471.62 913 1470M139 1230L140 1230M135 1233L133 1236M1070 1234C1064.14 1239.98 1055.98 1250.29 1056 1259C1059.88 1256.74 1061.06 1254.39 1060 1250M130 1239L124 1245M122 1246L91 1270L91 1257M1061 1255C1064.61 1256.41 1071.11 1257.76 1073.3 1261.15C1077.58 1267.74 1066.83 1280.52 1062 1284C1057.73 1276.89 1058.53 1266.91 1060 1259M154 1257L156 1258M1055 1259L1051 1266L1067 1268M155 1260C151.088 1271.56 150.603 1284.94 148.869 1297C145.784 1318.46 140.989 1342.4 145 1364M950 1266L952 1268M1050 1267C1041.82 1288.22 1032.87 1316.33 1053 1333.7C1057.51 1337.59 1062.86 1340.92 1069 1340.92C1073.92 1340.92 1078.5 1338.73 1083 1337M1066 1268L1060 1277M1058 1283C1055.31 1293.06 1053.06 1302.64 1051.72 1313C1051.42 1315.29 1049.57 1322.48 1053.31 1323.08C1057.13 1323.69 1060.37 1317.46 1062.23 1315C1069.1 1305.94 1075.52 1296.59 1083 1288M1083 1302L1082 1304M960 1303L961 1307M405 1478C409.755 1468.05 416.656 1451.93 427 1447C431.816 1462.12 428.72 1480.47 428.039 1496C426.66 1527.49 425.888 1559 432.285 1590C436.945 1612.58 451.988 1625.27 461.363 1645C469.685 1662.52 472.258 1681.04 478.583 1699C483.455 1712.83 492.166 1725.18 497 1739M875 1512L859 1528C864.443 1531.29 880.563 1528.31 880.669 1519.83C880.722 1515.59 874.812 1510.9 872.282 1508C870.319 1505.75 867.518 1501.17 863.999 1501.63C857.114 1502.54 840.815 1525.03 843.542 1531.89C845.42 1536.62 856.676 1540.87 861 1543.46C865.019 1545.87 870.953 1551.03 875.999 1549.51C886.657 1546.29 889.212 1528.24 887.535 1519C886.852 1515.24 883.705 1510.79 884.338 1507C886.438 1494.43 902.493 1479.24 912 1472M841 1529C828.347 1540.06 812.137 1565.03 819.483 1583C822.29 1589.87 828.943 1593.66 833.714 1599C844.638 1611.25 852.746 1623.12 870 1617C869.472 1620.53 866.111 1626.37 868.071 1629.68C870.838 1634.35 888.784 1635.62 892.301 1631.61C900.301 1622.48 892.599 1615.27 883 1619C880.816 1613.3 878.779 1613.29 873 1614C874.045 1608.23 877.791 1603.55 879.666 1598C886.839 1576.77 895.333 1558.22 905.056 1538C910.797 1526.06 913.775 1512.64 919.565 1501.04C923.492 1493.17 932.717 1484.71 940 1479.98C942.622 1478.27 947.515 1475.65 949.782 1479.32C951.977 1482.88 949.033 1489.31 948.207 1493C945.119 1506.81 936.373 1519.22 934 1533L939 1534C934.273 1561.47 915.545 1586.8 904.721 1612C899.636 1623.84 897.264 1643.19 888.351 1652.68C877.853 1663.87 866.395 1639.59 866 1632C858.849 1630.93 852.228 1627.97 847 1623M565 1540C590.622 1540.53 620.23 1542.64 644 1531.22C652.417 1527.17 661.816 1521.77 669 1515.8C676.11 1509.9 685.637 1499.74 694.996 1497.71C703.59 1495.84 706.617 1511.13 718 1508.05C728.528 1505.2 738.628 1493.81 747 1487.09C749.807 1484.84 755.731 1479.36 759.682 1480.02C764.732 1480.86 759.462 1495.86 759 1499M404 1482C394.906 1496.65 390.872 1516.64 385.576 1533C383.788 1538.52 379.047 1545.14 379.315 1551C380.001 1566.04 392.006 1582.6 399.461 1595C408.744 1610.44 426.289 1632.21 447 1625M869 1505C874.832 1502.58 878.256 1504.11 883 1508M869 1505C862.668 1511.22 854.663 1521.57 846 1524M876 1512L881 1508M464 1512C459.139 1523.6 452.959 1533 452.09 1546C451.626 1552.92 454.656 1559.3 454.585 1566C454.424 1581.23 451.138 1595.8 455.428 1611C457.064 1616.8 459.647 1621.61 465.001 1624.77C469.177 1627.24 474.33 1627.45 477.017 1632.04C481.308 1639.39 474.071 1657.71 473 1666M462 1521C462.08 1529.94 466.544 1547.14 471.013 1554.94C473.073 1558.54 478.383 1558.66 478.964 1563.06C481.012 1578.58 457.908 1602.79 480 1615L484.014 1584L487 1570M744 1528L748 1521M914 1523L913 1532M743 1527L730 1543M739 1532L741 1534M934 1533L921 1561C913.217 1552.95 920.069 1539.38 930 1537M597 1542C628.781 1550.22 660.684 1548 693 1548M489 1568C489.502 1561.63 490.131 1551.39 494.769 1546.51C498.185 1542.92 505.575 1543.64 510 1544.47C523.581 1547.01 535.429 1555.45 548 1560.65C553.935 1563.11 565.934 1560.47 570.298 1564.6C582.326 1575.99 569.908 1592.98 571.248 1606C571.933 1612.65 576.921 1616.99 575 1624C573.312 1623.05 571.681 1621.97 569.975 1621.05C555.522 1613.33 570.716 1635.69 574 1639M695 1548L721 1554M487 1575L486 1576M576 1586L581 1606L609 1582C614.26 1591.24 620.578 1604.22 621.255 1615C621.938 1625.88 616.749 1637.09 622 1648C626.014 1640.48 624.468 1628.21 623 1620M631 1582L649 1599M581 1606C581 1613.44 580.659 1620.61 580 1628C579.229 1636.65 573.597 1665.39 559.43 1653.18C554.169 1648.65 555 1639.18 555 1633C555 1626.12 552.168 1614.64 555.299 1608.38C557.674 1603.62 565.688 1597.17 570 1594M572 1604L579 1604M570 1610L569 1618M873 1614L870 1617M567 1620L565 1625M625 1622C630.733 1630.58 632.753 1639.27 627 1648M450 1627L464 1626M476 1627C501.814 1630.28 521.212 1638.29 538.585 1658.29C547.462 1668.5 549.713 1682.43 557.637 1692.96C564.932 1702.65 579.031 1711.15 590 1716C596.965 1693.97 604.498 1674.92 620 1657M853 1629C855.677 1637.4 862.716 1645.79 871 1649M622 1649L623 1650M872 1652C865.764 1677.3 848.711 1700.07 834.95 1722C829.847 1730.13 824.14 1741.85 814 1744.18C801.503 1747.05 786.975 1742.84 775 1739.43C749.526 1732.16 724.678 1721.05 699 1714.9C681.594 1710.73 664.523 1717 647 1717C638.991 1717 630.033 1717.2 626 1709M621 1679L624 1707M607 1714L593 1729L590 1716M592 1718L603 1718" transform="translate(-577.122,-226.816) scale(1.25432,0.41413)"/></svg>