<svg xmlns="http://www.w3.org/2000/svg" xmlns:svg="http://www.w3.org/2000/svg" xmlns:sodipodi="http://sodipodi.sourceforge.net/DTD/sodipodi-0.dtd" xmlns:inkscape="http://www.inkscape.org/namespaces/inkscape" xmlns:xlink="http://www.w3.org/1999/xlink" width="210mm" height="297mm" viewBox="0 0 210 297">
  <sodipodi:namedview/><g inkscape:label="Ebene 1" inkscape:groupmode="layer" id="layer1">
    </g>
<path style="fill:none;stroke:#000000;stroke-linecap:round;stroke-width:5.0" d="M71 390L90 388C86.4542 381.154 73.962 379.448 72.358 371.957C70.7826 364.599 76.9223 354.034 78.848 347C83.722 329.198 87.6463 310.461 88.9105 292C89.9036 277.498 91.2712 259.225 87.6821 245C86.1271 238.837 76.7405 235.486 76.9552 229C77.2615 219.753 87.719 208.702 92.1497 201C103.36 181.514 113.69 161.594 124.667 142C128.617 134.948 130.964 124.271 137 119L140 124C145.299 120.493 149.033 115.581 154.015 111.76C177.728 93.5704 202.405 75.9279 227 58.9745C236.002 52.7692 252.55 38.2805 264 38.5417C276.863 38.8352 292.322 54.6115 302 61.8734C330.199 83.0322 361.276 108.363 384.424 135C394.475 146.565 405.547 155.24 404.903 172C404.578 180.444 394.32 188.864 389.25 195C375.714 211.384 364.496 229.699 351 246C336.788 225.999 325.759 202.346 307.961 185.09C299.183 176.58 287.815 171.161 277 165.753C271.008 162.756 263.625 156.674 257 155.683C246.74 154.148 229.648 163.103 220 166.565C202.485 172.849 186.756 180.968 170 188.505C155.659 194.955 140.276 198.243 126 205M94 153C82.2173 170.538 77.3414 191.493 69.936 211C66.0208 221.313 59.5838 232.816 59.0401 244C58.2043 261.194 67.141 277.132 65.9105 295C64.1214 320.98 56.5813 347.179 52.8688 373C51.5253 382.345 48.8748 392.512 50.2091 402C53.2542 423.654 72.9591 450.032 86 467C89.0896 460.704 86.6731 451.746 85.5895 445C82.6222 426.526 76.2009 409.158 72 391M173 187C182.842 192.049 199.467 186.657 210 185.289C224.835 183.362 240.767 186.696 255 190.525C260.549 192.018 268.788 194.369 272.397 199.213C275.717 203.67 274.653 212.658 275.17 218C275.933 225.885 275.933 233.115 275.17 241C274.303 249.955 275.531 260.438 273 269C261.727 264.777 249.573 267.455 238 268.845C225.372 270.361 212.523 270.886 200 273.084C189.831 274.869 179.228 278.101 169 275C173.681 262.653 186.157 251.207 200 251.456C208.465 251.609 217.75 255.787 226 254C221.994 245.41 201.437 227.667 191 230.87C180.998 233.939 172.764 244.06 164 249.536C159.395 252.414 143.149 258.987 141.816 264.213C140.909 267.772 144.638 272.849 146 276C150.925 287.388 159.441 299.031 168 308L172 294C174.336 296.197 176.173 300.53 179.133 301.787C184.453 304.046 191.592 296.195 196 294C203.606 324.106 164.778 314.336 149 319C156.008 328.494 168.558 333.666 177 342.004C181.518 346.466 186.65 353.95 193 355.697C202.828 358.401 215.248 355.411 225 353.449C251.234 348.171 277.257 335.949 302 326M396 389C397.359 380.435 404.579 372.585 408.691 365C419.237 345.55 430.575 326.582 440.889 307C444.499 300.146 455.21 285.714 454.468 278.004C453.871 271.79 444.462 268.606 440 265.644C427.793 257.542 415.45 246.927 405.715 235.996C402.459 232.341 393.649 224.88 395.421 219.105C397.107 213.611 409.222 210.203 414 208.15C433.445 199.798 457.7 193.259 479 193.004C483.577 192.949 500.194 188.964 502.958 192.604C504.866 195.119 503.054 200.213 502.586 203C500.873 213.211 497.723 222.945 495.424 233C488.803 261.959 478.581 290.426 470.427 319C466.265 333.586 465.102 351.662 457.468 364.941C450.006 377.92 431.448 362.445 427.684 380C426.011 387.8 428.999 396.994 429 405C429.001 427.119 427.554 448.992 427.015 471C426.75 481.788 429.009 495.817 426 506L417.489 491L395 448M226 253L229 256M172 293L172 294M402 304L397 381M363 488C354.915 483.458 352.266 471.936 348.688 464C341.865 448.864 333.18 434.374 325 420C338.5 411.698 346.244 397.202 354.424 384C362.169 371.502 370.716 359.274 377.114 346C382.906 333.984 390.309 316.251 401 308M145 318L149 319M300 328C298.428 343.344 285.634 360.655 278.306 374C257.011 412.775 231.508 449.19 207.039 486C199.51 497.325 193.178 509.519 185.861 521C183.28 525.05 180.649 532.52 175.896 534.393C170.23 536.626 160.211 533 154 533C136.688 532.999 117.047 532.806 100 530.714C92.5255 529.796 85.3698 526.233 78 526M397 456C412.019 518.909 410.635 586.826 414 651M88 468L95 481M123 522C108.768 514.443 91.6661 508.842 76 504.428C73.1493 503.625 62.1494 500.344 60.7878 504.333C59.7013 507.515 62.5584 512.887 63.3711 516C66.0931 526.426 72.301 547.183 80.6481 554.382C85.0467 558.176 91.6876 552.157 95.4707 558.148C103.186 570.367 108.418 587.452 113.576 601C115.244 605.383 116.693 614.453 122.055 615.643C128.151 616.995 137.295 612.947 143 610.997C161.558 604.652 179.423 596.128 196 585.681C248.89 552.35 296.948 503.296 359 488M85 526C94.5695 520.866 107.441 522.087 118 522M456 529C477.737 553.141 504.463 568.796 530 588.428C558.187 610.097 583.039 635.043 607 661M464 541C472.695 562.198 475.431 583.489 478.424 606C479.484 613.967 483.736 624.168 482.521 632C478.654 656.933 462.957 680.891 450.204 702C432.611 731.119 416.083 760.363 401.258 791C390.563 813.105 380.091 836.026 371.425 859C367.098 870.473 364.25 886.204 357 896C349.652 876.379 352.508 850.757 349.711 830C341.916 772.127 337.096 713.968 330.155 656C326.194 622.914 323.283 585.874 310 555M96 554L109 550M312 555C323.954 558.269 333.755 565.703 344 572.302C361.428 583.527 377.518 594.024 390.076 611C398.857 622.869 403.499 637.094 412 649M144 1553C144.866 1563.97 147.436 1577.87 142 1588C139.017 1578.57 140.364 1568.72 139.886 1559C139.098 1542.99 138.378 1527.05 137.985 1511C137.073 1473.74 133.457 1436.19 130.91 1399C127.114 1343.55 118.887 1288.45 115.09 1233C109.853 1156.53 110.369 1078.72 109.999 1002C109.794 959.449 106.102 916.083 99.5756 874C97.7731 862.378 95.5371 851.114 91.6566 840C90.2309 835.916 85.7791 828.479 86.8164 824.17C87.9711 819.372 95.6465 814.466 98.9606 811C108.247 801.288 116.968 791.084 125.845 781C156.579 746.088 188.76 711.326 225 682C237.096 672.212 252.124 656.548 268 654M267 655C261.691 671.039 247.037 686.682 236.884 700C221.99 719.539 208.526 740.495 196.688 762C191.016 772.304 175.652 792.473 180.858 804.985C185.063 815.089 198.047 811.794 206 809.759C210.629 808.575 215.355 807.84 220 806.629C237.542 802.056 277.327 785.808 275.961 817C275.145 835.635 265.875 854.752 259.424 872C250.263 896.498 242.416 923.012 229.858 946C223.824 957.046 216.667 967.19 210.313 978C208.494 981.095 204.71 986.95 206.928 990.606C210.703 996.828 225.801 995.998 232 996C242.962 996.004 253.154 997.147 264 994.243C277.54 990.618 289.517 982.414 303 978.439C311.992 975.788 330.725 972.504 335.258 984.015C340.491 997.306 328.719 1020.51 324.343 1033C312.769 1066.03 301.053 1099.03 289.308 1132C284.879 1144.43 274.06 1163.34 277.322 1177C279.24 1185.03 292.425 1193.99 299 1198.3C319.02 1211.44 340.797 1217.14 354.644 1238C369.185 1259.91 377.428 1286.06 390.424 1309C404.548 1333.93 424.419 1355.98 434.575 1383C442.725 1404.68 438.744 1430.05 449 1451C455.39 1442.22 455.785 1428.46 457.803 1418C463.95 1386.14 463.877 1353.27 466.09 1321C468.15 1290.95 473.623 1260.97 476.834 1231C482.754 1175.74 489.354 1119.63 499.803 1065C505.343 1036.04 508.867 1004.49 508.08 975C507.816 965.11 509.759 952.572 504 944M534 1138C539.143 1115.57 549.478 1094.51 555.105 1072C566.801 1025.21 572.532 977.632 579.286 930C586.087 882.028 596 832.603 596 784C596 752.97 594.255 722.018 595.015 691C595.215 682.815 595.106 664.143 603 660M357 896L357 900M507 947C512.227 947.9 516.858 950.514 522 951.761C532.542 954.318 546.113 953.422 553.486 963.093C560.682 972.532 555.175 994.126 553.95 1005C550.929 1031.81 544.503 1058.28 540.714 1085C539.141 1096.1 536.112 1108.84 538 1120M449 1451L448 1458M142 1588L141 1607M1127 1713C1122.12 1720.39 1117.53 1729.86 1118.34 1739C1118.64 1742.32 1119.84 1747.5 1124 1747.74C1128.11 1747.99 1133.47 1740.03 1129.39 1737.07C1126.65 1735.07 1121.71 1738.1 1119 1739M1111 1717L1102 1728C1100.76 1722.01 1103.98 1714.01 1111 1717M1111 1720C1110.86 1724.54 1105.86 1741.34 1111 1742M133 1756L133 1757" transform="translate(-577.122,-226.816) scale(0.89893,0.32766)"/></svg>