<svg xmlns="http://www.w3.org/2000/svg" xmlns:svg="http://www.w3.org/2000/svg" xmlns:sodipodi="http://sodipodi.sourceforge.net/DTD/sodipodi-0.dtd" xmlns:inkscape="http://www.inkscape.org/namespaces/inkscape" xmlns:xlink="http://www.w3.org/1999/xlink" width="210mm" height="297mm" viewBox="0 0 210 297">
  <sodipodi:namedview/><g inkscape:label="Ebene 1" inkscape:groupmode="layer" id="layer1">
    </g>
<path style="fill:none;stroke:#000000;stroke-linecap:round;stroke-width:5.0" d="M623 625C640.306 619.033 663.694 620.573 682 618.83C727.053 614.542 773.003 605.858 817 620.667C837.216 627.472 857.611 638.098 865.532 659C869.812 670.291 866.685 684.808 863.779 696C852.626 738.943 814.154 763.353 784 793.003C767.456 809.271 745.193 829.33 720 825.7C683.375 820.422 661.692 781.777 638.907 757C627.742 744.86 614.883 739.672 602 730.243C590.982 722.179 582.322 711.79 572.961 702C568.431 697.263 561.466 692.673 558.303 686.911C552.025 675.47 554.045 655.763 552.83 643C549.199 604.847 552.347 562.863 563.888 526C572.557 498.31 587.771 473.298 591.718 444C595.112 418.802 595.319 395.102 591.424 370C589.571 358.055 586.85 344.899 576 337.703C568.68 332.847 558.338 333.961 550 334.001C543.481 334.032 537.08 335.236 531 337.615C514.275 344.158 514.485 354.308 512.424 370C509.587 391.61 516.503 415.365 518.089 437C518.742 445.913 520.983 456.569 517.015 465C506.875 486.548 490.269 506.908 473 522.911C463.474 531.739 456.258 540.79 448.335 551C445.657 554.451 440.495 558.61 439.482 562.985C438.292 568.124 448.464 572.303 452 574.269C464.942 581.463 499.707 587.227 485.2 608C467.778 632.947 426.833 644.291 399 652.291C372.308 659.963 348.793 669.776 346.326 701C344.402 725.343 354.084 755.425 371.286 772.714C385.264 786.762 397.951 799.407 410.4 815C418.337 824.942 426.201 835.642 425.871 849C424.205 916.461 374.264 960.946 330 1005C318.284 1016.66 307.021 1028.92 293 1037.91C287.439 1041.47 279.823 1045.61 273 1043.85C264.983 1041.79 262.043 1033.22 260.425 1026C256.758 1009.64 261.046 992.243 263.753 976C274.835 909.511 295.761 831.775 262.742 768C243.822 731.458 208.547 709.591 180.285 681.711C164.887 666.519 151.646 646.453 142.258 627C132.038 605.82 129.972 580.092 128.961 557C127.859 531.847 126.935 506.223 128.039 481C128.947 460.276 132.348 439.877 130.91 419C129.48 398.229 121.635 378.314 110.304 361C104.037 351.424 95.7267 343.154 90.3233 333C81.8806 317.135 76.0751 291.976 77.0934 274C78.2267 253.994 91.6246 234.172 105.039 220C112.26 212.372 127.034 200.114 128.396 189C129.027 183.848 124.721 178.142 122.189 174C115.776 163.51 104.558 148.254 109.742 135.015C112.253 128.603 120.829 124.278 126 120.196C142.508 107.165 164.516 89.2103 187 96.2207C196.446 99.166 210.483 117.343 220 114.748C231.579 111.59 238.619 97.8733 247.039 90.439C261.32 77.8311 276.638 71.2084 293 62.1388C308.403 53.6006 323.506 43.9098 341 40.2855C345.675 39.3169 355.491 36.89 359.396 40.7423C364.818 46.092 355.299 59.6063 352.112 64C342.052 77.8662 328.767 89.025 319.039 103C316.091 107.235 310.37 114.363 310.697 119.852C311.089 126.438 325.708 120.507 329 119.626C349.694 114.084 368.476 108.385 390 106.911C439.202 103.541 487.605 98.554 532 125.015C544.606 132.529 554.228 144.084 565 153.83C592.68 178.876 610.362 221.517 582.787 254C569.853 269.236 544.98 280.903 526 286.56C519.442 288.515 509.42 290.753 503 287.543C489.997 281.042 481.548 262.925 472.536 252C457.905 234.262 437.371 214.416 418 202.054C400.913 191.149 369.724 175.897 349 183.559C336.942 188.018 327.577 199.288 319.808 209C314.784 215.28 309.448 222.264 307 230C317.167 228.188 327.057 221.598 337 218.358C350.635 213.914 368.536 214.6 382 219.17C389.071 221.569 410.633 234.394 400.848 243.61C397.341 246.912 385.242 252.797 380.313 251.212C377.068 250.169 376.753 245.486 372.981 244.228C364.199 241.301 348.132 241.659 340 246C342.385 249.121 345.994 251.502 347.822 255.015C349.049 257.373 348.615 261.07 351.318 262.397C355.774 264.584 363.119 262.705 368 263.17C378.866 264.205 390.521 266.834 400 272.454C414.791 281.223 432.157 295.057 440.852 310C455.051 334.404 456.169 372.416 454.961 400C452.195 463.145 402.471 527.107 344 549.05C327.902 555.091 310.497 560.864 293 558.714C264.087 555.161 235.072 529.674 217.468 508C209.504 498.196 205.69 485.618 201.189 474C188.436 441.08 179.735 407.042 186.461 372C190.88 348.977 213.743 321.509 203 297C191.788 302.532 189.232 308.3 199 318M237 384C236.795 374.063 234.167 366.994 226.999 360.015C225.249 358.311 218.73 351.549 216.647 356.333C213.705 363.089 224.116 376.587 229.039 380.084C231.717 381.987 235.823 383.003 237.245 386.224C242.228 397.506 233.298 407.118 230.221 417C227.749 424.936 229.882 431.961 233.796 439C247.093 462.911 280.445 446.323 298.996 465.001C302.659 468.688 308.05 473.433 308.471 479C309.968 498.779 288.114 504.384 274 498.138C251.295 488.09 230.931 462.839 220.359 441C205.275 409.843 198.751 367.174 206.899 333C213.128 306.873 226.736 282.774 230.572 256C233.678 234.316 224.76 212.929 227.115 191C230.251 161.794 252.56 139.19 270.729 118C279.745 107.485 290.142 91.1145 304 87M191 306C171.471 284.603 161.449 247.39 170.667 220C173.817 210.641 178.803 199.271 188 194.442C199.011 188.661 213.372 190.809 225 193M228 196C245.909 199.453 256.986 223.137 254.572 240C250.027 271.735 213.147 307.11 230.1 341C237.464 355.719 249.745 351.62 263 351.039C284.345 350.105 309.024 350.301 330 354.311C344.276 357.04 360.733 373.254 351 388C347.578 382.625 345.511 376.819 339.985 373.109C327.963 365.036 312.829 368.468 300 372.141C279.994 377.87 258.94 385 238 385M350 263L349 287C334.601 280.185 323.475 275.591 312.004 264C309.549 261.519 302.145 256.01 302.203 252.188C302.268 247.922 313.962 247.091 316.981 247.148C323.339 247.269 323.426 256.535 326.353 260.87C331.568 268.596 342.317 266.113 349 262M178 284C180.22 282.174 191.184 273.159 193.867 276.708C195.587 278.982 192.487 283.53 192.256 286C191.871 290.119 194.292 294.014 195 298M207 282L204 296M177 284L159.931 300.015L156.752 307.397L168 309.015L193 315M351 389L341 408M626 623C669.567 569.502 757.205 570.866 819 579.576C838.116 582.27 862.924 581.633 879 593.61C891.503 602.924 897.548 619.037 903.201 633L925.604 688C930.418 699.918 936.368 712.954 936.961 726C938.803 766.59 917.088 806.785 895.692 840C882.11 861.085 868.957 883.357 853.334 903C839.743 920.088 822.713 934.688 808.174 951C797.38 963.11 788.248 976.666 777.795 989C765.162 1003.91 747.607 1013.27 735.326 1028C721.244 1044.89 713.579 1069.19 707.205 1090C695.645 1127.76 698.197 1161.61 703.729 1200C714.034 1271.51 742.627 1339.53 764.505 1408C772.725 1433.73 784.863 1461.97 787 1489" transform="translate(-577.122,-226.816) scale(0.942567,0.339052)"/></svg>