<svg xmlns="http://www.w3.org/2000/svg" xmlns:svg="http://www.w3.org/2000/svg" xmlns:sodipodi="http://sodipodi.sourceforge.net/DTD/sodipodi-0.dtd" xmlns:inkscape="http://www.inkscape.org/namespaces/inkscape" xmlns:xlink="http://www.w3.org/1999/xlink" width="210mm" height="297mm" viewBox="0 0 210 297">
  <sodipodi:namedview/><g inkscape:label="Ebene 1" inkscape:groupmode="layer" id="layer1">
    </g>
<path style="fill:none;stroke:#000000;stroke-linecap:round;stroke-width:5.0" d="M670 753L671.929 742.213L658 733.305L627 710C619.616 735.036 654.691 755.186 676 753.893C689.963 753.045 704.131 741.78 718 738.503C745.311 732.051 772.659 739.298 799 727.413C805.361 724.543 815.127 720.689 819.258 714.816C824.972 706.69 818.727 692.998 821 684C840.691 692.2 859.251 704.527 878 714.691C931.3 743.587 986.552 778.356 1015.68 834C1022.31 846.66 1026.25 861.243 1029.88 875C1060.55 991.103 987.221 1102.08 925.748 1194C900.483 1231.78 874.521 1268.74 841 1299.91C807.626 1330.94 769.246 1358.86 727 1376.77C712.735 1382.82 700.134 1384.59 685 1386.58C680.165 1387.21 671.611 1385.09 667.88 1388.72C661.734 1394.69 657.143 1402.51 651.036 1408.57C621.106 1438.28 589.249 1465.89 558 1494.17C521.792 1526.93 486.964 1560.43 449 1591.26C429.404 1607.17 408.71 1621.69 389 1637.45C378.772 1645.63 367.83 1657.22 355 1661C362.189 1638.29 378.662 1617.79 386.946 1595C406.726 1540.57 410.514 1475.45 397.116 1419C381.849 1354.67 340.507 1304.69 306.229 1250C287.232 1219.69 273.403 1187.17 260.385 1154C253.491 1136.43 245.367 1118.8 242.325 1100C234.949 1054.43 255.878 1005.09 272.861 964C283.748 937.66 298.397 904.893 290.51 876C272.684 810.692 195.309 778.033 186.289 709C181.769 674.402 202.222 640.582 222.127 614C267.105 553.931 342.906 482.07 425 502.745C448.084 508.559 481.708 525.252 486.532 551C489.243 565.467 484.23 578.74 479.192 592C473.213 607.735 464.863 623.65 460.898 640C459.113 647.36 458.824 655.735 466.005 660.258C474.112 665.364 484.491 659.486 492 656.139C494.596 654.982 499.545 653.47 500.748 650.61C504.097 642.647 485.329 630.159 479 630M484 629C496.521 622.332 510.365 618.263 523 611.741C545.826 599.96 568.079 584.389 592 575.062C646.601 553.771 711.583 557.08 762 587.939C774.917 595.845 788.609 603.526 798.816 615.004C807.96 625.288 814.884 642.424 816.718 656C817.867 664.509 816.631 676.632 821 684M387 837L383 838L399.461 864L399.282 877.996L436 910C439.93 905.03 434.431 900.924 430.95 897C421.558 886.415 411.321 876.67 402 866C433.099 834.905 467.708 804.045 487.73 764C496.2 747.061 500.472 728.57 503.586 710C506.6 692.03 511.601 668.138 503 651C525.194 639.411 547.118 633.387 571 626.573C621.148 612.262 678.1 605.071 728 626.427C759.844 640.056 784.733 671.214 818 681M626 706L627 709M668 754C665.622 762.333 662.385 770.172 662.04 779C661.403 795.327 669.251 811.606 675.62 826C680.376 836.747 681.573 846.967 693 853.2C708.226 861.505 725.635 858.006 742 858C766.355 857.991 793.096 859.509 817 854.332C831.956 851.093 845.358 844.494 859 838M675 824L712 819.919L756 807.464L781 807M673 820C679.638 814.101 687.552 813.946 696 812.589C712.442 809.949 728.32 808 745 808M664 818L656 811L670 818M653 811L656 811M843 848C833.456 857.544 821.891 865.915 814.043 877C796.038 902.432 786.173 932.094 769.305 958C747.216 991.924 719.849 1019.83 693.286 1050C677.127 1068.36 661.092 1084.35 642 1099.6C635.569 1104.74 627.606 1113.41 619.961 1116.41C614.647 1118.49 607.767 1121.03 602 1120.97C597.184 1120.91 592.88 1118.44 588 1119.34C575.427 1121.66 560.281 1133.3 547 1131.27C524.677 1127.85 526.121 1096.53 508 1089M440 909L441 911L437 910M442 913L468 938M518 1093L557 1112.55L584 1120M594 1119C599.675 1115.25 607.856 1113.72 614 1117M623 1116C634.398 1122.21 650.295 1121.99 663 1122M633 1120C627.674 1123.94 620.405 1125.21 614 1126.76C611.734 1127.31 607.261 1127.59 606.346 1130.26C605.022 1134.13 613.485 1138.2 615.714 1140.32C625.473 1149.63 634.575 1160.84 649 1152L630 1150M601 1130L605 1130M622 1148C615.512 1151.46 606.285 1150.8 599 1152.08C578.336 1155.72 539.327 1164.79 529.804 1186C526.385 1193.62 530.358 1199.66 534.414 1206C543.613 1220.38 561.903 1226.06 569.2 1242C574.792 1254.21 572.726 1269.96 574.286 1283C577.435 1309.33 582.484 1338.45 602.286 1357.7C608.946 1364.18 617.908 1368.52 626 1372.92C634.649 1377.62 645.211 1382.55 655 1384C655 1363.07 655.314 1341.69 651.92 1321C649.953 1309.01 643.544 1291.8 647 1280C665.993 1287.91 677.959 1302.21 687.297 1320C691.985 1328.93 696.449 1337.75 693.711 1348C689.748 1362.83 676.604 1372.12 672 1386M649 1152C675.195 1147.14 700.562 1150 727 1150M657 1401C651.761 1391.18 655.14 1384.33 666 1387M655 1407L670.83 1521L672 1590M355 1661L348 1669M1108 1721L1107 1740L1109 1737M1123 1722C1120.59 1727.44 1116.05 1737.93 1118.6 1743.85C1122.2 1752.19 1132.21 1742.52 1134 1738L1124 1738M1096 1724L1096 1745M1107 1740L1106 1746" transform="translate(-577.122,-226.816) scale(0.902272,0.327529)"/></svg>