<svg xmlns="http://www.w3.org/2000/svg" xmlns:svg="http://www.w3.org/2000/svg" xmlns:sodipodi="http://sodipodi.sourceforge.net/DTD/sodipodi-0.dtd" xmlns:inkscape="http://www.inkscape.org/namespaces/inkscape" xmlns:xlink="http://www.w3.org/1999/xlink" width="210mm" height="297mm" viewBox="0 0 210 297">
  <sodipodi:namedview/><g inkscape:label="Ebene 1" inkscape:groupmode="layer" id="layer1">
    </g>
<path style="fill:none;stroke:#000000;stroke-linecap:round;stroke-width:5.0" d="M157 157C150.938 164.166 153.112 182.828 165.043 183.759C170.761 184.204 176.181 179.679 181 177.27C188.71 173.416 197.287 171.71 205 168.015C216.126 162.685 225.808 153.878 236 147C239.726 144.485 246.04 141.016 246.65 136.015C247.323 130.498 238.859 128.865 235 127.721C220.926 123.549 207.466 127.462 195 134.312C183.158 140.819 170.244 154.364 157 157C159.995 144.404 177.802 136.192 187 128.154C201.112 115.822 216.043 101.031 235 96.6805C270.98 88.4235 316.901 112.309 340.985 137C349.716 145.951 360.975 158.976 361.96 172C363.875 197.332 347.66 216.953 332.272 235C317.732 252.051 301.954 269.586 279 274.482C271.16 276.154 262.929 274.693 255 275.039C243.543 275.54 232.396 278.129 221 278.911C211.104 279.589 200.659 278.834 191 281.49C185.966 282.874 182.623 286.432 178 288.505C161.702 295.814 149.445 302.033 135 313M106 146C90.5761 170.994 76.928 196.65 63.7531 223C57.4254 235.655 48.4303 250.728 47 265C58.9958 260.496 60.4244 265.203 54.1235 276C48.5814 285.496 41.0625 295.664 34 304C27.6912 293.703 32.0268 280.225 43 275L42 288M104 219C118.68 215.048 134.915 218.041 150 213.255C200.395 197.266 247.241 168.373 301 163.17C322.606 161.079 340.352 167.951 361 171M106 216L135.95 179L151 165M364 173C390.131 183.401 423.891 196.744 443.857 217.166C451.603 225.089 455.873 235.488 461.281 245C467.439 255.833 475.286 267.238 479.452 279C482.289 287.009 481.961 295.683 483.13 304C485.005 317.334 487.988 330.535 488.91 344C489.525 352.971 486.807 362.257 487.6 371C488.117 376.708 492.908 381.842 493.711 388C495.185 399.321 493.031 410.713 493 422C503.048 419.611 509.79 409.14 508.711 399C506.249 375.871 496.243 352.06 496.004 329C495.845 313.677 504.753 301.581 505.907 287C506.738 276.492 501.262 266.468 497.397 257C489.975 238.825 474.09 207.033 450 223M447 223C433.625 234.685 419.032 249.737 415.379 268C412.443 282.679 416.485 301.893 420.721 316C427.669 339.132 445.266 360.766 431.812 386C420.356 407.485 399.734 409.459 382.21 422.815C371.375 431.073 362.936 449.864 354.848 461C350.557 466.909 336.506 480.437 337.113 488C337.423 491.852 342.247 495.208 344.535 498C350.353 505.099 355.167 513.179 359.938 521C378.176 550.894 394.702 592.492 378 627C363.763 617.952 357.802 603.661 347.625 591C335.282 575.644 321.596 563.19 306 551.649C298.848 546.356 292.071 538.642 283 537L297 574C302.331 569.126 304.06 559.975 305 553M269 275C266.596 251.015 236.796 233.905 214 238.529C205.147 240.326 198.406 247.388 191 252C190.268 239.338 209.565 231.215 220 230.171C249.827 227.186 274.36 249.428 295 268M190 251L160 281M299 268C315.642 276.009 343.289 268.263 360 262.971C365.253 261.308 380.321 253.152 385.393 257.042C389.229 259.985 384.736 268.791 383.305 272C376.998 286.142 372.561 300.143 368.291 315C359.364 346.058 358.212 394.121 329 414.348C323.475 418.173 316.198 418.342 310 420.547C296.572 425.325 283.986 430.522 270 433.765C258.529 436.424 245.48 437.184 235 443C246.438 449.603 262.402 450.423 275 454.667C296.706 461.981 318.1 473.794 336 488M46 266L44 274M270 276C270 288.716 269.973 307.913 260.786 317.907C253.741 325.571 242.058 329.545 233 334.297C225.027 338.481 214.331 344.475 205 343.671C189.071 342.3 171.894 328.495 159 320M189 288C186.556 296.531 193.557 304.529 201 308L203 293C211.472 298.787 215.687 291.231 224 288C229.321 302.037 216.583 321.964 202 324.33C192.201 325.92 181.774 322.111 172 325M182 289L188 289M34 304L35 308C41.4407 302.782 45.2538 295.765 53 291.996C70.6875 283.391 80.0751 302.105 81.7145 316C83.271 329.192 80.1226 342.043 78.2855 355C75.5961 373.969 74.0047 393.05 71.4252 412C70.1505 421.364 68.6508 440.379 76.6381 447.396C83.4433 453.374 100.815 437.341 107 434.248C131.295 422.099 155.344 400.397 184 413.313C190.121 416.073 203.564 421.93 203.392 430C203.24 437.122 196.555 446.435 193.796 452.999C190.383 461.116 185.116 471.753 180 479M203 291L203 293M40 298L42 300M41 304C49.3723 317.038 58.4168 331.671 61.5502 347C65.4196 365.93 61.982 385.11 60.1698 404C57.9301 427.345 56.4408 452.577 57.0147 476C57.864 510.667 63.6082 551.753 79.2701 583C93.7782 611.946 123.212 642.645 148 663C149.902 653.153 139.075 636.058 134.92 627C129.848 615.945 127.547 599.814 120.763 590.129C116.302 583.76 107.715 579.234 102 573.911C90.3425 563.052 79.2705 551.271 68 540M16 331C19.5955 325.267 25.77 312.751 32.1836 310.06C38.6642 307.342 47.2583 323.762 46.7431 329C45.5705 340.918 34.82 352.1 32 364C42.7643 363.277 39.4699 372.108 47.213 374.558C50.1535 375.488 55.0089 372.644 58 372M963 360C947.798 375.224 940.723 400.828 934 421C931.495 428.516 927.254 438.04 927.089 446C926.981 451.253 930.897 455.867 931.739 461C932.692 466.804 931.314 474.102 930.911 480C930.118 491.567 931.044 503.494 929.809 515C929.207 520.599 926.095 529.717 927.281 534.996C928.343 539.722 934.028 542.689 937.155 546.043C947.559 557.203 957.345 568.348 951.467 584C935.659 626.091 898.289 655.008 876.629 693.015C873.315 698.83 873.028 704.814 870.921 711C865.58 726.683 860.423 742.567 854.385 758C838.852 797.705 818.964 836.293 795.656 872C778.452 898.355 760.539 924.346 739.714 948C732.807 955.846 714.799 966.998 712.167 977.039C710.394 983.802 712 992.997 712 1000C712 1018.53 712.512 1036.6 714.714 1055C717.516 1078.41 715.68 1101.67 720.45 1125C729.35 1168.54 747 1211.99 747 1257C731.945 1257 712.429 1253.73 698 1258C703.254 1264.87 712.924 1277.09 721.001 1280.39C727.325 1282.97 746.39 1282.11 746.873 1292.04C747.3 1300.82 736.034 1313.45 729.996 1318.82C720.744 1327.04 710.251 1333.8 701 1342.17C687.871 1354.05 676.344 1367.28 662 1377.84C654.241 1383.56 640.521 1396.32 630.004 1392.4C623.288 1389.89 620.235 1381.11 617.95 1375C614.57 1365.97 610.35 1357.29 607.71 1348C605.161 1339.03 604.583 1329.15 595 1324.57C586.409 1320.47 575.392 1324.44 567 1327.16C547.848 1333.38 530.215 1343.03 510 1345.87C504.158 1346.69 496.705 1349.32 491.004 1346.99C481.612 1343.16 479.11 1330.88 477.87 1322C474.835 1300.28 473.321 1278.44 464.573 1258C452.182 1229.05 425.1 1207.34 400 1189.77C388.032 1181.39 374.035 1176.2 364.185 1165C357.229 1157.09 354.15 1147.3 353.17 1137C352.673 1131.78 354.355 1126.8 352 1122C322.593 1140.69 303.574 1180.45 285.142 1209C266.612 1237.7 246.26 1266.42 230.905 1297C206.24 1346.11 184.705 1397.34 160.742 1447C148.056 1473.29 138.304 1500.96 127.396 1528C124.304 1535.66 115.712 1552.42 119 1560L124 1547M40 364L52 361M32 364L16 377M482 402L478 421C468.233 409.45 485.438 404.822 481.667 395.134C478.928 388.094 464.458 389.003 459.434 383.606C455.009 378.853 458.524 371.095 464.015 369.033C470.371 366.647 478.703 369.561 485 371M955 374C970.752 398.767 974.346 439.548 970.714 468C969.108 480.587 964.741 492.495 963 505M487 375L483 394M47 376C44.362 381.638 40.1512 384.442 34 385M43 385C46.1946 386.072 46.941 387.732 45.4228 391.005C39.3972 403.994 34.8825 408.031 36.0856 423C37.4249 439.662 34.5802 456.308 36.1698 473C38.2152 494.479 46.8684 513.667 61 530M866 387C870.062 391.799 871.311 397.311 877.001 401.034C883.457 405.258 898.502 406.375 900.678 415.04C902.607 422.72 898.086 434.422 896.424 442C891.464 464.615 888.475 489.268 907.04 506.829C913.056 512.52 919.926 515.958 927 520M869 389C884.765 389.807 906.832 399.912 914.911 414C919.878 422.66 921.152 434.618 925 444M481 422C484.366 424.224 489.032 426.77 492 423M479 423C466.02 489.934 436.472 551.029 398.344 607C381.07 632.359 363.757 657.244 342 679C319.802 701.198 286.567 739.367 251 732.682C213.084 725.556 203.802 677.461 185.279 651C180.095 643.595 173.297 637.806 167.425 631C164.749 627.898 162.317 623.231 158 623M491 426C490.782 452.297 487.677 478.599 488.019 505C488.326 528.757 492.403 552.247 492.985 576C494.015 618.023 492.656 659.184 498.289 701C502.553 732.659 510.672 765.305 519.421 796C523.339 809.742 532.67 825.89 533 840C522.579 834.594 514.196 823.15 507.12 814C492.883 795.591 478.099 776.117 470.054 754C466.074 743.059 465.673 729.05 459.911 719C456.264 712.639 449.482 708.352 444 703.725C440.044 700.387 436.17 696.668 431 695.379C415.676 691.557 404.903 700.495 391 704.717C380.641 707.862 369.312 700.892 359 701.019C356.292 701.052 349.762 700.933 348.817 704.314C347.939 707.458 351.313 711.503 352.799 714C357.456 721.824 362.133 729.713 365.919 738C377.159 762.606 382 786.09 382 813C392.582 812.136 404.629 806.912 414.956 812.317C427.062 818.654 420.522 836.434 418.015 846C414.048 861.136 415.837 886.203 425.351 898.999C436.973 914.63 456.207 920.497 474 926.026C510.973 937.513 547.644 944.95 586 933.38C595.935 930.383 604.722 922.085 612 914.985C626.747 900.601 635.812 883.853 637.83 863C643.25 806.991 596.427 746.269 537 764C542.895 776.631 557.789 774.767 569 778.951C581.666 783.679 594.707 796.055 602.351 807C608.688 816.073 606.683 831.812 604.349 842C598.984 865.415 593.384 901.511 564 905.7C541.517 908.905 522.471 894.57 504 884.782C479.325 871.707 445.752 863.16 419 875M90 504C85.9937 500.533 74.1925 494.174 74.9213 488C75.8997 479.712 94.0707 471.84 100 466.919C114.992 454.478 131.485 448.199 149 440.231C157.267 436.47 168.705 433.069 176.957 438.854C184.79 444.346 184.573 452.866 187 461M221 441L234 443M926 451C920.786 471.155 917.381 493.278 920 514M930 522C938.461 523.25 947.288 527.141 955 530.781C957.91 532.155 962.446 535.656 965.826 534.582C971.213 532.87 976.269 522.409 979.421 518C989.279 504.212 1000.24 481.27 1016 474M965 504C975.931 493.069 992.644 478.051 1009 477M80 484C90.1863 484.534 111.841 484.865 117.972 495.214C121.042 500.395 118.613 509.573 117.424 515C114.873 526.654 113.723 537.102 114.015 549C114.275 559.615 122.193 577.608 118 587M336 489L305 551M920 517L925 531M272 523L283 537M124 594L137 600C139.653 591.043 137.217 577.012 143.228 569.336C148.107 563.107 155.685 577.51 161.61 574.044C166.659 571.09 169.195 561.624 172.761 557.039C180.938 546.528 196.729 533.197 210 530.289C229.071 526.11 242.136 535.225 257 546.011C260.308 548.411 269.793 553.314 269.793 557.971C269.793 564.285 251.398 571.053 247 575C254.403 586.216 247.519 606.567 235.999 612.597C215.051 623.563 184.892 621 162 621M928 538C923.031 547.262 925.031 560.014 919.272 569C902.873 594.589 881.863 617.656 862.435 641C834.81 674.193 807.788 707.937 778.83 740C759.689 761.193 738.927 780.895 719.83 802C712.56 810.035 701.559 818.506 697.719 829C695.04 836.321 702.654 846.397 705.154 853C707.664 859.627 708.156 867.995 709.385 875C712.243 891.285 710.06 909.57 710.176 926C710.286 941.627 712 957.365 712 973M168 589C180.107 587.935 189.207 576.619 201 573.3C210.198 570.712 223.557 568.951 233 570.439C238.11 571.244 241.995 574.615 247 575M297 574L297 577M916 575L913.096 594L909 606L911 601M178 587C197.823 592.847 222.508 582.027 241 576M909 606C902.663 614.748 899.195 625.129 892.958 634C861.35 678.957 827.071 728.073 809 780L808 778M892 638L878 688M149 663L159 674M811 778L853.789 724L872 701M535 763L537 765M614 764C628.398 766.673 648.122 770.392 660 779.529C676.957 792.573 684.023 813.176 696 830M641 774C654.31 786.251 663.888 797.786 670.319 815C676.685 832.035 685.397 849.255 684.945 868C684.441 888.896 671.659 910.343 660.344 927C650.489 941.509 641.608 956.331 628.83 968.576C607.872 988.66 581.266 1000.53 556 1014C553.105 1006.44 551.201 999.282 545.699 993.015C538.693 985.037 527.075 979.026 518 973.604C495.026 959.879 469.403 947.117 443 941.518C429.019 938.553 407.211 944.072 395.094 935.297C388.53 930.543 388.721 922.271 389.039 915C389.824 897.085 397.409 878.937 417 876M807 781C801.837 792.982 793.205 801.682 785.71 812.004C775.014 826.735 765.366 842.07 756.586 858C751.112 867.934 742.113 883.277 744 895C760.365 880.58 769.057 852.955 779.309 834C783.952 825.414 791.146 815.617 793 806M382 813C380.201 818.168 381.467 823.618 380.7 829C378.942 841.34 376.98 853.801 374.338 866C369.816 886.875 361.92 907.019 357.804 928C353.741 948.712 353.827 968.144 354 989C345.803 989.913 340.339 997.088 335.271 1003C324.802 1015.21 315.218 1028.48 303.985 1040C298.373 1045.75 285.922 1061.57 278.225 1049.81C276.127 1046.61 275.357 1042.54 274 1039C264.882 1043.46 261.473 1057.23 257.72 1066C246.573 1092.05 239.62 1120.14 230.667 1147C205.551 1222.35 182.987 1298.99 151.346 1372C140.816 1396.3 130.246 1420.65 117.692 1444C111.34 1455.82 99.3749 1469.84 97 1483C112.383 1474.66 125.902 1450.88 136.374 1437C157.512 1408.98 177.143 1380.65 195.947 1351C206.512 1334.34 215.197 1315.02 228 1300M330 1008C324.367 1001.82 319.869 994.359 315.924 987C309.053 974.187 303.765 958.726 306.329 944C310.834 918.118 334.705 898.713 344.395 875C348.844 864.112 352.968 852.367 355.985 841C357.053 836.974 355.76 830.882 358.028 827.415C361.286 822.433 374.29 816.104 380 815M534 841L536 844M708 855C716.261 863.658 718.112 873.695 723.374 884C731.525 899.96 742.378 915.378 755 928M756 928C764.878 934.32 780.853 935.457 786.772 945.04C797.615 962.594 788.52 994.006 786.156 1013C779.958 1062.78 772.06 1110.71 777.169 1161C779.896 1187.84 794.481 1214.83 821 1224.3C832.07 1228.26 856.575 1224.98 862.647 1235C872.789 1251.74 875.967 1274.57 882.344 1293C894.795 1328.99 908.201 1365.87 911.83 1404C916.001 1447.83 907.499 1492.55 902.286 1536C901.025 1546.5 900.902 1556.51 902.282 1567C902.745 1570.52 902.672 1575.83 905.514 1578.4C910.234 1582.65 926.329 1580.55 932 1579M330 1009C337.064 1016.01 344.583 1022.01 353 1027.3C356.714 1029.64 362.948 1030.51 364.438 1035.06C367.277 1043.73 364.896 1055.92 365.004 1065C365.314 1091.1 366.579 1129.16 388.039 1147.67C396.423 1154.9 407.538 1155 418 1155C440.961 1155 467.166 1154.07 489 1146.31C524.439 1133.71 552.838 1106.28 581 1082.27C610.641 1057 641.448 1033.32 672 1009.2C685.084 998.864 697.468 986.532 711 977M355 990C360.561 989.915 361.99 995.102 362.7 1000C364.233 1010.58 362.839 1020.51 363 1031M355 990L361 1025M556 1014C568.695 1082.38 501.498 1140.01 436 1114.94C402.198 1102 386.79 1067.46 366 1041M366 1034C408.155 1043.64 447.765 1039.51 490 1031.61C512.137 1027.47 534.45 1023.61 555 1014M343 1129C338.299 1120.52 338.081 1109.42 336.386 1100C333.501 1083.97 328.731 1068.07 326.428 1052C325.773 1047.43 323.619 1030.15 330.144 1028.88C337.395 1027.47 347.323 1040.24 349.25 1046C354.942 1063.02 354 1083.25 354 1101C354 1107.85 355.292 1115.83 352 1122M343 1133C355.97 1195.84 348.356 1261.17 368.029 1323C389.606 1390.82 435.303 1444.03 468.22 1506C484.096 1535.89 501.191 1565.1 517.077 1595C521.091 1602.55 524.543 1610.41 528.529 1618C529.63 1620.1 530.927 1624.82 533.418 1625.66C536.06 1626.54 539.111 1623.13 541 1621.76L562 1606.58C573.961 1597.9 585.409 1588.38 598 1580.61C614.865 1570.2 632.798 1561.76 648 1549M682 1256L652 1251C664.766 1237.81 684.357 1257.68 698 1258M646 1250L652 1250M748 1258C768.412 1252.84 794.762 1265.77 813 1273.58C832.936 1282.11 857.294 1294.45 869.455 1313C882.17 1332.39 882.056 1355.79 884.17 1378C889.038 1429.16 885.766 1484 880.83 1535C879.219 1551.65 878.443 1568.34 876.83 1585C876.01 1593.47 873.56 1603.75 876 1612C889.121 1603.08 917.73 1595.32 925 1581M748 1258L748 1287M749 1290C766.363 1299.47 794.504 1301.63 808.61 1315.53C815.193 1322.01 815.345 1335.4 817 1344C822.244 1371.27 828.96 1401.68 813.536 1427C807.316 1437.21 796.834 1443.94 786 1448.57C781.268 1450.6 770.89 1452.1 767.889 1456.43C765.445 1459.95 767 1467.84 767 1472C750.408 1471.29 734.759 1463.01 718 1463.01C706.168 1463.01 691.169 1470.37 680 1465.08C670.631 1460.65 665.545 1450.63 663.35 1441C662.401 1436.84 661.084 1430.75 666.133 1428.6C673.074 1425.66 683.667 1429 691 1429C709.495 1429.01 733.163 1419.57 751 1426.13C758.823 1429.01 770.876 1447.8 765 1456M645 1548C611.856 1543.54 578.57 1531.03 547 1520.52C531.84 1515.47 518.09 1514.7 510.681 1498C499.422 1472.62 520.412 1455.64 541 1445.25C568.422 1431.4 597.478 1419.02 629 1422.17C639.976 1423.27 650.636 1427.5 661 1431M664 1433C695.432 1446.56 727.918 1469.61 764 1456M769 1473C792.557 1482.02 822.648 1484.48 841.985 1502.17C853.166 1512.41 856.78 1527.84 860.232 1542C867.989 1573.82 872 1608.4 872 1641C896.737 1640.93 928.456 1630.22 952 1640.9C961.873 1645.38 974.719 1664.55 968.022 1675.89C965.477 1680.2 959.345 1680.52 955 1681.82C945.971 1684.53 935.244 1688.19 927 1692.91C901.402 1707.54 886.379 1729.49 878 1757C809.699 1711.83 774.35 1619.98 768.911 1541C767.496 1520.46 762.082 1493.02 768 1473M96 1484C92.1736 1489.79 78.1198 1502.03 78.7269 1509C79.2427 1514.92 90.0344 1522.03 94 1526C97.6044 1519.15 88.6687 1504.45 83 1500M1 1494C16.6567 1491.7 32.8332 1484.65 49 1488.3C57.0217 1490.12 71.9989 1503.52 77 1510M67 1497L83 1500M2 1538C17.1821 1515.68 32.488 1505.19 58 1498M77 1510L64 1523M98 1525L99 1527L95 1526M99 1528L121 1540M116 1534L124 1535M118 1561L113 1569M118 1563C124.045 1575.39 106.015 1593.63 120 1605M117 1605C108.117 1613.59 75.8146 1617.77 65 1612C62.2507 1617.62 52.4458 1639.56 61 1641M56 1615L40 1635L16 1620.26L2 1612C21.8914 1606.12 43.979 1617.52 64 1613M876 1612L873 1616M946 1683C925.672 1683 905.574 1681.15 886 1675.28C881.577 1673.95 870.534 1673.05 868.201 1668.58C865.339 1663.1 870.982 1648.53 871 1642L852 1645C853.02 1634.84 861.854 1620.85 872 1618M38 1634C24.9457 1640.97 12.7519 1631.86 2 1647M41 1634L55 1641M84 1634C80.5386 1659.58 55.1336 1680.1 50 1706M46 1639C34.1587 1647.09 15.5269 1656.34 1 1657M55 1641C53.3845 1659.53 41.35 1683.92 51 1702M810 1674C816.041 1656.58 833.661 1648.34 851 1646C851.892 1656.9 858.121 1663.12 866 1670M866 1670L862 1683M830 1706C850.623 1708.61 874.689 1701.65 895 1697.34C903.77 1695.48 916.229 1691.11 925 1693M1117 1731C1116.78 1741.78 1113.81 1744.25 1126 1744L1126 1754M1127 1732L1127 1743M1127 1743L1131 1743" transform="translate(-577.122,-226.816) scale(0.938316,0.337655)"/></svg>