<svg xmlns="http://www.w3.org/2000/svg" xmlns:svg="http://www.w3.org/2000/svg" xmlns:sodipodi="http://sodipodi.sourceforge.net/DTD/sodipodi-0.dtd" xmlns:inkscape="http://www.inkscape.org/namespaces/inkscape" xmlns:xlink="http://www.w3.org/1999/xlink" width="210mm" height="297mm" viewBox="0 0 210 297">
  <sodipodi:namedview/><g inkscape:label="Ebene 1" inkscape:groupmode="layer" id="layer1">
    </g>
<path style="fill:none;stroke:#000000;stroke-linecap:round;stroke-width:5.0" d="M276 245C224.107 276.903 180.351 326.627 144.127 375C129.048 395.135 109.846 415.85 115.096 443C117.25 454.144 123.805 465.83 128.755 476C130.54 479.666 131.621 484.77 134.43 487.766C141.724 495.548 154.123 497.553 161.471 507.001C172.732 521.478 175.694 539.238 176.91 557C178.901 586.068 173.726 616.257 165.279 644C156.2 673.822 143.223 704.207 144.015 736C144.23 744.652 147.495 754.198 152.819 761C155.778 764.779 161.937 768.583 163.508 773.089C164.949 777.221 163 784.503 163 789C163 800.038 163.57 811.333 166.771 822C170.502 834.435 184.215 843.775 186 856C146.6 831.355 123.412 775.582 119.17 731C118.08 719.547 118.881 707.501 119.039 696C119.097 691.817 120.858 685.912 119.465 682C114.705 668.633 98.8312 654.958 90.7454 643C77.2396 623.026 71.4283 601.733 69.1698 578C66.9463 554.635 71.5365 529.477 77.7454 507C80.4995 497.03 85.5899 485.954 96 481.995C107.815 477.501 119.67 484.05 131 486M609 610C609 568.957 574.837 547.778 540 533.8C505.045 519.775 469.007 511.177 432 504.75C392.321 497.859 352.971 494.539 314 507C312.325 497.167 324.552 487.096 331 481.089C351.298 462.182 376.022 440.806 402 430.542C423.263 422.14 442.058 406.923 463 397.309C513.127 374.295 574.084 364.967 628 378.13C663.626 386.828 693.989 410.724 697.831 449C699.919 469.805 699.168 492.531 690.485 512C679.513 536.603 657.178 558.478 639.089 578C616.69 602.172 595.751 627.657 579.27 656C570.428 671.206 560.865 687.244 558.3 705C550.391 759.742 594.094 794.588 617.019 839C630.388 864.898 631.079 895.17 623.424 923C619.989 935.487 614.413 945.735 606.5 956C589.343 978.258 563.78 992.268 539 1004.26C472.817 1036.28 378.95 1051.66 312 1012.65C298.144 1004.58 287.04 993.333 275.985 982C262.071 967.736 249.263 952.209 243 933C249.153 931.326 254.273 934.999 260 937C272.5 941.367 284.83 946.499 298 948.561C327.083 953.114 354.31 947.617 383 942.92C395.563 940.863 416.244 936.376 427.985 942.769C435.417 946.815 434.9 953.963 437 961C478.322 942.597 526.982 911.981 540.961 866C547.576 844.24 545.398 819.875 540.662 798C537.083 781.467 532.754 765.801 521 753M432 415C440.016 416.671 450.87 411.675 459 410.25C479.361 406.681 499.232 403 520 403C541.015 403 565.103 402.627 582.999 415.634C601.632 429.177 601.834 458.489 581 469.676C563.76 478.933 542.058 480.915 523 483.286C487.698 487.679 452.668 491.859 417 490.985C396.109 490.474 373.177 477.845 383.468 454C387.178 445.406 395.025 439.851 401 433M137 491C140.511 502.313 148.366 511.928 149.816 524C154.131 559.947 138.176 592.987 130.235 627C127.683 637.933 124.948 648.924 123.081 660C121.981 666.528 122.132 674.138 119 680M313 506L311 508M509 741L472 722.344L439 711C449.432 707.916 466.402 714.181 474.005 703.787C479.047 696.895 477.38 687.795 477.039 680C476.895 676.696 476.124 671.166 479.318 669.028C483.753 666.058 493.664 665.926 499 664.789C509.355 662.584 519.012 657.634 529 655.313C532.928 654.401 537.105 655.639 541 654.441C557.576 649.339 574.194 637.239 591 634M522 654C511.201 657.656 498.315 655.737 487 656.015C466.561 656.515 439.194 657.812 420 665C414.574 650.507 432.525 651.498 443 651.039C469.905 649.861 498.776 645.814 525 654M544 655L575 660M577 660C583.062 665.404 592.758 670.265 601 668C596.204 662.509 586.111 660.238 579 661M420 665C420.162 668.529 424.366 676.733 422.264 679.401C418.403 684.301 378.837 684.839 400 696.821C401.979 697.942 403.994 699.006 406 700.077C409.034 701.698 412.1 703.154 415 705L389 703.166L327 695.12L306 689C316.507 680.961 333.218 679.093 346 676.919C369.343 672.949 394.303 665.196 418 665M461 676C452.152 682.048 435.137 691.359 427 681L462 673.934L477 670M425 681L427 681M105 690C100.293 692.128 96.0063 690.14 91 690.015C77.625 689.681 60.0564 690.468 48 684L68 682.911L118 690M44 684L48 684M333 1023C330.809 1039.97 326.02 1057.08 331.52 1074C347.451 1123.01 416.703 1123.05 458 1114.12C501.616 1104.68 542.432 1087.47 582 1067.11C636.915 1038.85 687.277 1001.22 715.564 945C732.634 911.074 740.603 865.776 720.996 831C711.14 813.519 696.049 799.701 685.004 783C678.814 773.64 673.633 764.27 681.637 754.17C690.81 742.595 707.377 735.225 720 728.139C748.219 712.296 777.173 695.196 809 687.654C824.174 684.059 846.768 678.813 858.1 693.04C879.147 719.463 871.985 753.783 861.691 783C840.783 842.347 805.362 897.1 760.996 942C693.684 1010.12 618.076 1083.86 597.015 1181C589.721 1214.64 595.627 1246.39 597.974 1280C598.628 1289.38 613.531 1300.43 608.781 1309.83C602.882 1321.5 580.294 1329.12 569 1334C545.89 1343.98 522.684 1354.79 500 1365.74C491.685 1369.75 480.312 1372.75 473.147 1378.56C467.105 1383.46 465.388 1397.74 463.529 1405C457.045 1430.34 453.893 1455.83 455.039 1482C455.54 1493.43 457.993 1506.21 461.799 1517C481.534 1572.95 561.612 1560.64 606 1550.65C640.78 1542.82 675.304 1530.37 704 1508.5C749.232 1474.02 774.493 1418.81 779.83 1363C780.905 1351.76 780.137 1341.19 780.004 1330C779.499 1287.55 770.584 1233.79 736 1206.19C729.343 1200.88 722.314 1194.22 714 1191.62C692.112 1184.8 665.488 1192.8 644 1197.58C627.18 1201.31 609.505 1206.43 595 1216M122 686L130 695M101 692C93.6983 710.677 110.571 729.446 111.91 749C115.032 794.586 122.443 851.512 150.899 889C166.594 909.677 189.151 925.187 212 937.105C223.888 943.306 237.69 951.708 251 954M120 692L125 693M415 705L438 710M162 734C163.262 740.507 163.536 749.221 166.843 755C179.785 777.613 210.006 786.848 234 789.17C289.255 794.517 346.929 784.337 401 774M513 745L516 747M165 756L164 769M166 773C179.603 781.243 195.106 785.728 209 793.312C219.689 799.148 229.235 809.021 241 812.56C293.663 828.404 351.3 811.52 393 777M186 856L218 885M258 958C292.916 969.165 332.145 977.434 369 974.911C391.828 973.347 412.733 966.289 435 963C432.578 975.003 416.228 982.076 406 986.421C375.488 999.379 334.871 1000.35 310 976M437 961L435 963M327 989C333.003 1001.95 336.173 1006.14 335 1021M597 1282C581.074 1265.74 563.384 1246.03 583.015 1226C585.803 1223.16 588.396 1220.68 592 1219M470 1381C456.758 1383.36 443.765 1393.01 432 1399.22C412.053 1409.75 391.682 1420.52 373 1433.19C358.211 1443.23 344.456 1456.22 329 1465C327.266 1445.56 341.34 1420.83 349.753 1404C378.049 1347.41 424.673 1295.21 476 1258.43C495.349 1244.56 517.601 1232 542 1232C550.76 1232 565.334 1233.64 566.729 1245.01C567.487 1251.2 562.19 1255.24 557.999 1258.75C549.076 1266.23 540.438 1274.06 532.089 1282.17C506.516 1307.01 484.503 1342.21 473 1376M601 1293L605 1312M606 1315C616.437 1392.51 647.794 1488.16 584 1552M328 1466C318.159 1495.78 317.966 1533.99 320.09 1565C321.342 1583.28 325.885 1604.87 323 1623C338.219 1629.55 355.695 1630.97 372 1632.09C423.887 1635.65 472.638 1622.28 519 1599.25C534.26 1591.67 548.641 1582.84 562 1572.2C567.556 1567.77 573.933 1563.58 577 1557M323 1622C313.162 1620.99 301.581 1614.53 294 1608.38C288.208 1603.68 282.546 1598.2 278.36 1592C255.752 1558.52 276.086 1520.6 299.834 1494C307.139 1485.82 315.935 1474.69 326 1470M324 1624C324.114 1637.82 326.821 1651.84 331 1665M1119 1709L1119 1745M1133 1716L1134 1747" transform="translate(-577.122,-226.816) scale(0.884731,0.323264)"/></svg>