<svg xmlns="http://www.w3.org/2000/svg" xmlns:svg="http://www.w3.org/2000/svg" xmlns:sodipodi="http://sodipodi.sourceforge.net/DTD/sodipodi-0.dtd" xmlns:inkscape="http://www.inkscape.org/namespaces/inkscape" xmlns:xlink="http://www.w3.org/1999/xlink" width="210mm" height="297mm" viewBox="0 0 210 297">
  <sodipodi:namedview/><g inkscape:label="Ebene 1" inkscape:groupmode="layer" id="layer1">
    </g>
<path style="fill:none;stroke:#000000;stroke-linecap:round;stroke-width:5.0" d="M265 707C200.972 643.503 164.565 550.126 179.753 459C184.802 428.706 200.471 370.52 240 371.019C251.785 371.167 260.524 378.852 268.166 387.039C284.613 404.659 291.641 431.567 295.001 455C305.367 527.293 312.278 602.141 281.86 671C276.652 682.791 272.927 696.722 265 707C292.965 731.725 302.287 766.601 285 801C307.803 817.707 334.943 838.336 363 845L360 829M714 616C706.697 616 687.386 620.471 681.6 615.972C676.313 611.863 679.459 596.961 678.384 591C676.159 578.656 666.782 566.138 656.999 558.529C642.138 546.969 624.067 538.033 608 528.189C568.364 503.905 529.729 482.454 483 476.715C462.405 474.186 441.71 475.493 421 474.985C416.797 474.882 402.41 474.502 403.312 467.956C404.205 461.479 412.392 455.117 417 451.205C432.656 437.915 452.344 428.388 471 420.14C517.803 399.446 573.514 386.501 623 406.309C631.052 409.532 639.359 413.734 645.946 419.468C649.216 422.314 651.203 426.412 655.018 428.647C658.82 430.874 663.866 430.681 668 432.428C680.42 437.679 692.972 446.598 700.302 458C725.7 497.51 718.293 553.535 724.282 598C733.626 667.362 755.602 731.595 798 788M658 431C660.59 439.995 665.319 448.248 663.674 458C660.502 476.819 631.46 481.714 616 484.246C574.725 491.006 535.868 481.881 496 471.63C482.718 468.214 464.437 466.644 453 459C462.014 448.68 488.005 446.287 501 442.579C537.038 432.294 577.408 422.779 615 422.054C626.48 421.833 637.673 425.075 649 426M932 742C912.776 718.151 889.361 696.463 865 677.884C852.335 668.225 833.345 658.319 830.329 641C827.209 623.082 837.127 603.789 846 589C867.493 553.177 898.292 521.443 930 494.427C945.086 481.574 968.623 462.474 990 471.479C998.237 474.949 1002.4 483.931 1004.97 492C1010.58 509.631 1012.09 527.626 1012 546C1011.74 600.249 992.053 654.452 974.505 705C967.295 725.769 960.207 753.342 947 771L937 751L936 751C932.566 757.843 932.226 765.727 929.974 773C924.899 789.398 918.814 805.619 911.139 821C907.144 829.006 896.093 842.171 897 851L922.348 833.857L936.284 799L947 771M608 650L647 676C633.881 686.684 618.002 705.969 601 710C604.74 687.996 614.389 663.737 603 642L598 646C586.447 637.775 571.596 633.054 558 629.665C551.141 627.956 541.878 628.527 537 623L571 620.911L648 617.039L679 617M667 618C660.221 622.895 651.024 622.015 643 623.13C627.387 625.3 611.627 626.473 596 628.576C588.694 629.558 580.589 629.429 574 633M676 618C679.056 623.817 676.566 630.04 674.656 636C669.545 651.949 659.731 665.31 647 676M495 624C489.516 626.93 483.093 626.662 477 627.089C466.863 627.8 453.402 633.018 444 628C459.871 621.303 481.237 623.227 498 623.961C510.934 624.527 524.013 623.001 537 623M419 632L444 628M443 631L445 630M565 632C554.676 638.821 540.138 639.844 529 646.039C525.776 647.832 519.572 650.354 518.256 654.104C516.709 658.511 523.228 663.266 526 665.714C534.254 673.003 542.462 680.428 551 687.385C553.867 689.721 557.923 693.849 561.996 693.211C567.54 692.344 570.858 685.077 573.721 681C581.586 669.797 590.325 658.989 597 647M600 645L604 647M836 652C843.433 648.864 852.07 649.997 860 650C891.928 650.012 921.116 672.964 931.11 703C936.371 718.81 935.699 733.726 935 750M744 686C772.479 669.201 800.251 659.214 832 651M165 666L223 661M229 662L267 662M260 663L239 676M181 665L198 669.271L235 675M649 676C666.239 693.191 682.112 708.331 696.623 728C702.439 735.885 710.93 747.089 712 757C704.221 755.613 680.753 746.687 680.737 736.999C680.727 731.377 687.996 727.085 691 723M743 686L693 722M266 708C259.306 718.523 244.972 739.348 245.134 752C245.395 772.407 271.24 789.093 285 801M600 711L581 722.247L543 738.573L510 747C526.542 767.933 567.487 746.574 583 734.331C588.922 729.658 594.622 723.614 596 716M712 757L735 766.424L794 786M716 761C720.209 774.3 728.452 786.648 733.135 800C743.705 830.135 750.566 862.16 751.961 894C754.734 957.34 728.896 1015.27 698.281 1069C667.986 1122.17 633.82 1172.9 591.014 1217C561.749 1247.15 533.317 1278.01 497 1299.8C479.251 1310.45 455.567 1319.36 435 1312.14C400.798 1300.12 401.415 1246.11 388.59 1218C381.576 1202.63 368.758 1194.65 359 1182C370.34 1173.87 383.846 1172.52 397 1168.25C411.193 1163.65 425.082 1156.01 440 1154M946 777C957.806 793.413 940.655 822.7 925 830M285 803C278.284 831.355 263.365 858.669 251.309 885C239.848 910.029 229.115 936.707 220.976 963C210.716 996.145 208.333 1032.04 232.3 1060C242.545 1071.95 255.697 1081.56 269 1089.81C286.547 1100.69 305.92 1113.01 325 1121M358 817L359 826M921 838C916.901 852.231 909.152 866.353 903.281 880C883.215 926.64 858.112 971.814 844.424 1021C834.794 1055.61 826.578 1091.19 823.17 1127C813.766 1225.82 833.005 1329.39 852.449 1426C868.462 1505.56 893.027 1583.46 909.199 1663C913.187 1682.61 918.031 1702.06 920.166 1722C920.967 1729.49 923.537 1739.62 919 1746C873.963 1672.43 847.362 1583.18 835.286 1498C830.477 1464.08 827.808 1430.02 824.166 1396C822.314 1378.7 821.659 1358.98 814.088 1343C791.144 1294.57 719.854 1307.62 690.611 1340.17C681.26 1350.58 672.073 1365.67 671.091 1380C670.477 1388.96 674.531 1398.62 677.333 1407C685.318 1430.87 699.726 1452.25 707.645 1476C725.031 1528.15 731.481 1583.56 723.421 1638C718.265 1672.83 704.26 1708.08 676.996 1731.7C646.357 1758.24 609.561 1749.25 573 1753.17C550.499 1755.59 528.247 1766.93 507 1774C505.525 1767.54 510.637 1763.56 514.576 1759C524.642 1747.35 536.22 1737.12 548 1727.25C584.029 1697.06 623.253 1670.02 657.911 1638.3C666.802 1630.16 675.323 1622.05 683.286 1613C685.642 1610.32 690.535 1606.91 691.079 1603.16C691.929 1597.3 679.314 1606.24 678 1607.24C665.349 1616.82 653.49 1628.07 642 1639C611.256 1668.24 578.193 1695.57 545 1722C523.822 1738.86 501.206 1754.85 482 1774M363 845C381.105 858.449 405.561 861.766 424 875.515C428.018 878.511 439.793 885.336 439.793 890.945C439.793 901.267 416.814 895.076 412 893.702C390.683 887.618 374.422 868.752 366 849M896 850C880.312 865.665 854.065 875.805 834 885.218C826.592 888.694 817.361 890.781 811.184 896.38C798.562 907.82 795 926.946 795 943C795 946.889 792.966 959.148 799.059 959.288C806.886 959.468 817.569 944.854 823.015 939.829C840.463 923.731 855.674 903.875 870 885C875.678 877.519 884.819 868.197 887 859M291 1100C289.852 1095.9 286.267 1093.11 285.323 1089C283.686 1081.88 290.041 1079.18 296 1080.38C307.828 1082.76 317.542 1094.8 330 1094.81C340.664 1094.83 351.682 1085.98 361 1081.63C369.795 1077.52 381.491 1076.8 391 1078.46C407.029 1081.28 424.448 1090.53 435.985 1102.02C439.364 1105.38 446.934 1112.33 445.292 1117.83C441.778 1129.58 415.888 1132.88 406 1135C387.486 1138.96 366.473 1138 349.005 1145.88C333.698 1152.78 360.543 1170.85 367 1175M522 1577C479.724 1619.25 435.153 1659.2 396.561 1705C380.826 1723.67 358.768 1748.86 355 1774M695 1598L692 1601M1066 1729C1062.57 1736.23 1058.63 1743.75 1059.05 1752C1059.21 1755.23 1060.73 1760.61 1065.01 1760.08C1071.17 1759.31 1071.91 1749.75 1064 1753M1032 1736L1033 1758M1045 1736L1048 1761" transform="translate(-577.122,-226.816) scale(0.903952,0.323136)"/></svg>