<svg xmlns="http://www.w3.org/2000/svg" xmlns:svg="http://www.w3.org/2000/svg" xmlns:sodipodi="http://sodipodi.sourceforge.net/DTD/sodipodi-0.dtd" xmlns:inkscape="http://www.inkscape.org/namespaces/inkscape" xmlns:xlink="http://www.w3.org/1999/xlink" width="210mm" height="297mm" viewBox="0 0 210 297">
  <sodipodi:namedview/><g inkscape:label="Ebene 1" inkscape:groupmode="layer" id="layer1">
    </g>
<path style="fill:none;stroke:#000000;stroke-linecap:round;stroke-width:5.0" d="M785 232L779 248C769.473 240.557 776.561 235.981 786 233C778.211 221.33 770.408 220.285 759.001 213.952C753.594 210.951 748.808 205.005 744 201C749.39 196.653 754.25 196.005 761 196C765.702 179.248 792.092 168.405 808 171.666C824.588 175.066 831.998 188.474 846 195.544C855.585 200.383 867.947 201.51 878 205.606C893.853 212.065 908.743 227.345 917.127 242C934.554 272.458 948.555 320.901 941.486 356C935.307 386.681 916.107 413.212 915.259 445C914.654 467.684 918.685 496.184 927.862 517C933.598 530.012 946.406 544.19 948.851 558C958.828 614.362 908.713 659.183 872 693M630 364C630.266 331.866 653.427 312.762 677 294.004C686.001 286.841 703.989 276.223 716 278C711.355 284.307 704.032 287.929 698 292.805C688.812 300.231 679.729 309.072 672 318.001C657.57 334.671 643.536 351.789 629.495 368.769C626.599 372.27 618.635 384.73 613.874 384.654C607.396 384.552 608.033 370.168 607.999 366C607.845 346.842 600.242 328.669 606.043 309C616.368 273.994 653.629 242.06 680 218.845C691.806 208.452 704.048 198.335 720 195.464C729.783 193.704 735.22 198.742 744 201M762 197C778.108 200.682 794.147 192.019 810 196.8C824.148 201.067 831.882 216.482 844.005 223.586C855.037 230.05 869.558 232.353 873 247L848 228M849 199C868.431 224.408 897.424 239.148 907.279 272C912.239 288.538 902.465 306.513 907 322C912.97 316.92 927.575 301.573 928.757 294C930.332 283.906 920.888 272.193 916.228 264C908.364 250.173 904.292 235.205 893.7 223.004C887.485 215.845 878.29 212.834 872 206M779 200C793.01 210.797 819.567 218.435 837 221M742 201C737.714 208.31 745.833 211.494 752 209M755 214L760 231C766.804 226.584 765.864 222.926 761 217M768 227C773.219 229.748 772.209 233.785 772 239M759 232L754 258L772 243M786 233C795.897 236.154 804.024 243.287 811.541 249.984C830.55 266.918 849.864 281.874 849.999 310C850.026 315.541 850.66 321.016 848 326C838.587 313.619 839.57 300.789 834.896 287C831.45 276.834 824.694 268.491 820 259M608 358C614.025 347.563 616.342 336.61 624.439 327C650.721 295.806 688.887 281.448 723 261.136C735.451 253.722 744.542 239.212 758 234M762 247L764 251M781 247C790.575 253.089 799.651 255.765 810 250M873 247L888 271M779 248L775 261L765 256C763.226 264.293 769.069 273.219 773.319 280C784.566 297.944 801.776 319.051 824 323L815 304C825.303 308.805 832.363 319.727 840.545 327.21C843.626 330.027 846.686 329.917 848 326M764 254L764 255M752 256L716 278M777 262L808 295C812.416 285.938 797.291 277.087 790 274M810 296L814 303M265 393C255.425 391.678 248.56 384.271 240 380.309C221.605 371.797 201.178 365.493 184.039 354.651C175.53 349.268 169.373 341.494 175.854 332.015C181.404 323.898 189.43 324.72 198 323.688C211.341 322.081 219.509 318.527 233 321.765C281.916 333.503 314.788 387.907 336.83 429C344.378 443.071 348.48 457.95 355.683 472C359.723 479.88 365.763 486.233 360 495L357 477M685 441L671 423C668.669 426.508 662.894 433.488 664.368 437.946C665.673 441.893 678.936 454.43 682.957 455.503C688.259 456.918 688.014 449.021 687.104 446.025C686.573 444.276 685.767 442.651 685 441C691.941 436.95 699.78 433.104 708 434C708 427.513 707.52 420.974 710.518 415C715.52 405.036 724.992 397.721 726.229 386C727.32 375.664 712.071 372.529 719.394 363C730.513 348.533 746.371 338.234 762 329.424C767.301 326.437 775.589 321.061 782 322.358C787.042 323.378 790.364 328.865 792.691 333C798.735 343.74 807.727 357.573 809 370C796.636 369.744 785.514 361.301 773 365C778.102 367.832 790.745 374.348 796 373M908 322L905 333M825 324L838 328M829 326C830.501 331.104 835.091 335.712 835.552 341C836.193 348.354 831.869 357.604 830.758 365C830.186 368.801 831.904 374.333 829.393 377.471C820.235 388.916 798.164 394.968 785 400.204C781.116 401.749 774.155 407.616 770.015 405.978C762.835 403.136 755.625 383.16 755 376L764 377M119 341C127.802 342.185 140.102 344.402 148 348.438C172.338 360.875 189.508 382.852 217 390.417C228.157 393.488 246.262 397.73 257 392M152 348L179 353M770 349C764.521 354.499 760.22 358.137 766 365C761.208 367.71 753.663 369.241 755 376M731 375C740.93 368.576 749.757 359.183 762 357M767 365L772 365M205 364L200 365M768 365L772 365M203 367C210.434 373.494 221.298 381.081 224 391M677 388L655 387C653.768 382.87 652.141 376.28 653.897 372.133C656.175 366.755 663.605 366.4 668 369.009C675.165 373.264 677.977 379.029 678 387L685 386M766 367L765 376M631 370C631.883 376.984 630.94 393.028 636.013 398.339C638.903 401.364 647.442 394.449 651.853 395.913C656.414 397.426 658.375 408.999 661 413C665.9 406.262 674.532 399.555 675 391L655 396M785 370L783 384L784 377M809 370L815 376M777 371L783 372M734 376L753 374M793 375L786 383M764 377C763.77 388.209 768.591 394.644 778 384L766 378M778 384L781 384M783 384C782.144 389.482 779.057 391.537 774 389M610 385L611 390L615 386M655 387L655 394M763 387L761 389M614 388C622.221 396.671 625.586 410.674 637 416L636 400M676 388L676 390M611 391C608.926 395.64 600.869 404.376 603.952 409.661C605.967 413.114 611.689 414.992 615 417C616.836 410.306 613.563 401.739 610 396M228 395C231.183 401.92 226.636 410.036 224.707 417C219.143 437.081 213.768 453.556 202 471C217.34 474.324 231.787 476.697 246 485M639 400C644.33 404.122 655.068 415.874 661 413M670 402C676.541 409.987 673.542 414.173 671 423M255 409C262.148 410.955 270.284 413.202 277 416.324C280.331 417.873 284.148 421.787 287.83 422.123C291.986 422.502 297.314 416.941 302 416.305C314.472 414.611 325.752 423.031 335 430M660 414L671 422M649 416L653 415M638 417L638 419M617 418L625 434M287 423C284.849 431.363 279.066 438.18 277.465 447C271.941 477.42 278.155 507.273 284.453 537C288.044 553.947 300 565.192 300 583L280 580L292 584M290 423C303.988 433.278 325.157 442.688 329 462C312.743 461.302 304.133 462.969 292 475M709 435L713 439M308 436L312 436M314 437L349 459M663 439C655.308 448.528 642.927 473.355 646.511 486C648.502 493.024 655.227 497.921 657.351 505C660.708 516.19 657.954 523.459 667 533L668 526C680.656 526.918 688.508 533.693 702 528C696.384 522.265 682.613 525 675 525M665 442C666.663 445.448 668.116 447.062 672 447M676 449L682 442M733 504L721 486C732.798 474.709 752.155 448.293 769.999 448.062C777.643 447.964 778.888 455.273 781.439 461C784.762 468.461 790.284 476.185 796.04 481.961C812.386 498.362 837.822 497.375 853.957 513.093C862.645 521.557 863.262 535.312 868 546C880.362 541.37 895.125 542.447 908 543C910.532 535.079 924.396 530.084 932 532M329 462L332 466C326.309 468.541 312.162 466.822 306 465M350 465C350.002 480.344 353.104 495.643 352.995 511C352.833 533.992 346.778 556.1 335.502 576C328.082 589.096 320.85 601.722 305 605.497C279.522 611.565 255.645 599.759 232 593C241.872 615.875 263.373 622.955 283 635.319C288.398 638.719 299.631 648.003 305.985 647.82C311.886 647.651 323.145 635.479 327 631C314.195 627.801 288.479 650.36 302 662L304 649M333 468C338.372 481.182 339.672 492.082 327 500C331.33 508.646 328.169 517.651 329.174 527C329.989 534.592 333.842 541.355 330.637 549C326.988 557.703 317.165 564.806 315.142 574C314 579.189 319.812 582.824 324 584M675 472L669 474C670.773 468.178 682.261 473.354 686.787 476.028C696.995 482.058 706.082 501.45 719 485C712.124 480.315 697.238 472.421 689 474M202 472L176 504L180 507L201.001 480.418L215 474M668 475L661 488M719 486L721 486M161 501C165.538 495.257 176.846 490.38 184 489M665 490C675.946 491.406 686.204 495.537 697 496.816C709.355 498.279 717.023 496.325 729 502M674 492L675 510C660.716 504.909 662.021 516.919 668 526M360 495L361 529M327 504L316 507L327 500M291 505C298.604 509.505 307.084 516.899 315 509L299 507M185 511C180.97 512.587 179.414 511.03 181 507C187.432 512.485 194.24 525.591 202.455 527.326C209.102 528.729 217.485 519.397 212.397 513.43C207.671 507.888 196.038 510.562 190 512M676 511L712 515M233 515C228.753 527.124 217.276 537.083 205 528M213 523L232 516M194 523C190.201 525.303 183.411 527.481 184.018 533.015C185.019 542.138 197.788 547.703 203.845 553.299C215.286 563.868 222.479 580.666 232 593M179 526L185 528M187 527C191.761 530.143 195.903 530.719 201 528M702 528L709 529M206 532L200 547M702 591C709.695 587.47 701.829 577.301 701.174 571C700.196 561.578 704.565 549.961 711.326 543.375C720.404 534.531 743.034 529.652 755 534.129C765.797 538.168 774.285 551.517 768.543 563C765.309 569.468 757.511 577.037 750 577.609C738.629 578.474 725.117 572.56 716 583L761 585L766 576M953 532L939 538M669 534C673.331 549.262 678.255 565.22 688 578M912 538C919.587 542.38 930.306 543.821 939 544M944 544C951.359 542.696 955.213 546.154 962 547.945C966.874 549.231 971.6 549.158 976 551.97C1007.4 572.033 994.13 615.695 988.684 645C987.974 648.822 990.327 652.191 989.566 656C988.624 660.721 984.87 663.953 982.781 668.089C977.263 679.014 970.471 692.17 967.676 704C948.989 783.082 940.574 864.282 925.197 944C920.072 970.567 916.78 997.376 912.059 1024C909.703 1037.28 905.171 1056.93 909 1070M829 559C838.634 555.72 855.159 543.662 865.815 548.313C873.153 551.516 875.793 569.95 877.232 577C880.189 591.494 883.621 606.135 883.985 621C884.305 634.035 881.182 647.204 885 660C894.874 645.553 907.704 616.372 901.91 599C897.889 586.945 888.149 578.925 878 572M198 552C198.629 565.742 210.341 574.956 221 582M766 578C771.101 585.728 772.553 603.244 766.687 611C763.682 614.973 752.883 622.979 753.907 628.61C754.603 632.441 764.062 635.614 766.985 637.786C777.304 645.45 784.802 658.136 781 671C774.421 667.498 765.165 657.078 758 656.628C744.471 655.779 736.647 672.802 724 674.548C716.496 675.584 714.582 663.594 706.133 668.343C699.204 672.236 696.711 688.414 687.957 689.066C671.996 690.256 666.922 671.905 681 664.573C687.458 661.209 696.409 666.372 703 668M273 579L280 581M300 583C306.016 586.469 313.77 587.325 320 584M708 587L715 584M707 591L711 605M952 598C982.397 620.42 970.021 660.279 970 692M961 610C961.677 618.508 964.266 625.612 970 632M337 629C353.037 634.077 371.212 651.542 373 669L349 651C347.878 654.202 347.091 657.304 344.772 659.907C330.834 675.542 319.679 662.049 304 666C307.529 680.324 311.657 685.452 321.96 696.015C324.51 698.629 327.727 705.172 332.04 704.534C342.72 702.953 351.637 685.173 361 679.731C367.444 675.986 372.682 681.986 379 682.087C385.532 682.192 390.798 676.541 398 677.094C406.86 677.775 415.094 683.792 419.895 691C423.641 696.625 426.289 701.197 419 704L427 717C442.263 713.831 442.367 738.925 438 748C432.577 744.128 427.412 740.6 421 744C426.639 754.128 434.777 764.045 436 776C400.955 780.684 421.312 830.944 439 844L440 839C447.157 837.816 446.984 829.976 447 824C466.144 827.413 461.888 845.886 450 856L439 844M753 630C744.762 640.958 728.969 656.555 714 657C718.923 646.445 738.766 635.235 750 633M349 636L348 651L321 637M973 637L987 647M705 650L706 666M987 650C985.532 654.603 984.466 657.665 987 662M885 660L887 676M985 660L983 664M302 662L305 665M690 665L673 677M885 665L874 689M374 670L376 673M707 670C707.536 682.48 704.172 704.079 710 715C715.823 710.563 720.856 705.694 723.995 699C726.133 694.442 727.776 685.807 732.275 683.028C737.519 679.787 745.627 684.154 750 687.039C756.171 691.111 763.598 694.883 767.945 701.015C771.693 706.301 772.482 712.693 776 718C764.272 725.806 750.857 714.006 739 712.236C734.501 711.564 729.938 716.154 726 717.801C721.429 719.712 713.356 719.648 709.662 722.849C705.483 726.471 708 740.797 708 746M888 681C891.035 695.667 900.96 708.82 912.039 718.699C917.253 723.348 925.894 726.303 928.932 733.001C932.054 739.885 923.296 752.098 921.654 759C917.306 777.289 931.047 796.423 948 804M710 689C716.24 684.888 722.451 682.161 730 682M379 683L355 723C352.322 719.847 348.324 715.502 348.647 711C349.235 702.807 367.55 688.77 375 687M707 725C702.187 725.721 695.976 727.511 692.703 731.39C688.66 736.181 690.504 741.938 697.001 741.866C703.424 741.794 714.561 738.779 719.791 735.005C723.249 732.511 725.79 725.646 731 727.086C746.969 731.501 756.202 757.323 776.996 745.86C788.989 739.249 786.957 716.746 786.817 705C786.741 698.562 782.689 692.837 790 689C792.72 696.263 791.272 703.511 792.439 711C796.633 737.919 797.772 768.913 788 795C779.853 783.548 776.73 771.495 763 765C762.061 774.182 775.997 782.715 774.017 791.682C772.951 796.508 761.931 791.551 759 791.159C743.123 789.038 734.902 773.523 719 769C713.386 787.994 722.428 814.684 724.714 834C725.718 842.477 723.766 851.188 728 859C734.065 851.624 738.495 842.808 744.039 835C751.758 824.13 761.712 812.943 762 799M708 715C699.752 716.702 693.628 718.735 686 714C691.551 706.713 698.589 696.922 707 693M722 704L744 695.981L772 715M411 703L395 701C402.196 693.652 411.176 702.299 419 704M389 703L394 702M710 715L710 721M370 741L385 737.05L426 718M411 726L421 744M350 815C355.745 809.553 362.822 804.651 371 807C363.441 815.817 344.85 820.189 334 823.078C307.335 830.178 282.151 842.648 256 851.333C247.46 854.169 234.885 861.097 226 860C229.278 853.681 235.089 849.466 239.532 844C249.5 831.739 260.476 818.328 268.907 805C279.831 787.73 276.37 764.692 293.015 750.213C298.619 745.338 306.244 743.694 313 741C317.993 739.009 323.488 736.216 328.999 736.279C340.049 736.406 337.646 755.976 350 758.609C355.695 759.822 361.305 757.083 367 757.019C374.5 756.933 381.053 760.754 387 765C384.246 771.007 389.863 775.328 393.373 780C401.669 791.039 408.428 803.191 417 814M375 743L396 754L388 765L420 784M431 775C422.968 763.599 410.729 761.573 400 754L418 745M396 754L400 754M759 763L762 767M441 785L437 777C444.561 778.196 442.236 783.207 443.559 789C446.062 799.963 442.901 814 447 824M799 783C805.027 800.396 823.985 816.852 835.46 831C840.583 837.317 847.503 843.737 849 852L824 853.801L784 842C791.459 859.287 803.878 877.291 814.355 893C820.241 901.826 828.062 907.713 821 918C843.56 923.685 870.044 892.119 875.992 873C878.205 865.884 875.314 851.87 866 854L874 860M420 787L427.295 810L439 838M799 788C799.902 792.651 805.062 802.827 803.698 806.945C802.361 810.979 796.336 812.48 793 814.313C786.458 817.909 774.178 823.775 769.711 829.75C767.233 833.065 772.183 837.841 770.539 842C766.203 852.97 754.124 861.126 747.171 870.455C744.12 874.548 742.815 881.015 738.725 884.157C733.228 888.379 723.865 886.91 719.434 881.786C717.668 879.746 717.64 875.539 715.4 874.132C711.906 871.937 703.442 879.055 703.768 870.98C704.131 861.979 716.303 861.049 717 870C728.267 867.561 735.729 862.064 747 869M788 795L788 806M371 808L375 808M950 808C957.458 814.012 964.777 820.132 971.999 826.424C976.206 830.09 980.075 834.253 983.049 839C1000.84 867.409 966.68 892.675 964.329 920C963.647 927.918 968.745 935.131 973.4 941C976.247 944.589 980.947 948.97 979.123 954C972.138 973.254 943.761 981.723 937.943 1001C935.629 1008.67 936.46 1017.47 938.887 1025C939.622 1027.28 942.826 1032.9 940.303 1034.93C935.447 1038.83 918.247 1025.61 914 1023M760 811C764.669 821.266 759.602 845.071 757 856M432 819L445 821M339 823C333.235 835.107 317.281 846.648 308.289 857C291.227 876.645 276.48 898.439 261.999 920C254.889 930.586 245.452 937.03 243 950M777 835L784 842M849 852L866 880M728 859L728 865M225 861L219 869M757 863L756 875M876 863C901.463 870.546 882.629 892.614 871.999 905C868.366 909.233 863.722 916.65 858 918.125C854.086 919.134 847.494 915.713 844 914M750 868L754 870M716 871L716 873M839 917L821 929C828.924 941.724 841.302 950.348 850.482 962C860.67 974.93 865.982 991.806 877.515 1003.74C884.75 1011.22 901.989 1018.5 912 1021M1103 1728C1112.92 1728.03 1120.74 1736.7 1109 1743M1113 1743C1125.2 1746.95 1118.27 1771.48 1105 1761M54 1770C69.8284 1760.57 41.2078 1756.61 50 1745M123 1757C123.13 1758.71 123.112 1760.35 124.028 1761.89C131.591 1774.58 145.54 1752.56 129.025 1754.36C127.208 1754.56 125.657 1755.3 124 1756C123.251 1751.38 125.416 1748.78 129 1746M90 1751C91.3399 1750.3 92.5879 1749.54 94.0448 1749.09C111.428 1743.76 87.0879 1774.41 107.955 1768.3C109.509 1767.85 110.674 1766.88 112 1766M27.0154 1750.55C40.2626 1749.92 37.3048 1771.62 25.0193 1771.29C15.5935 1771.03 19.1514 1750.92 27.0154 1750.55M71 1759L85 1760M3 1761L7 1760" transform="translate(-577.122,-226.816) scale(0.900598,0.317623)"/></svg>