<svg xmlns="http://www.w3.org/2000/svg" xmlns:svg="http://www.w3.org/2000/svg" xmlns:sodipodi="http://sodipodi.sourceforge.net/DTD/sodipodi-0.dtd" xmlns:inkscape="http://www.inkscape.org/namespaces/inkscape" xmlns:xlink="http://www.w3.org/1999/xlink" width="210mm" height="297mm" viewBox="0 0 210 297">
  <sodipodi:namedview/><g inkscape:label="Ebene 1" inkscape:groupmode="layer" id="layer1">
    </g>
<path style="fill:none;stroke:#000000;stroke-linecap:round;stroke-width:5.0" d="M481 81C506.211 79.7087 529.21 64.3031 552 55.1296C561.934 51.1309 572.961 50.3213 583 46.9861C616.403 35.8885 647.795 24.6205 683 19.5795C698.879 17.3057 717.136 15.6044 733 18.4645C742.394 20.1581 749.973 24.9718 751 35M586 46C591.941 49.5226 599.327 47.444 606 48.615C621.275 51.2953 633.377 57.2825 643.575 69.1698C664.3 93.3287 659.467 126.627 646.247 153C642.852 159.772 638.411 171.996 631.895 176.201C623.543 181.591 603.81 182.069 594 181.995C589.234 181.959 583.187 181.19 583.529 174.995C584.382 159.576 611.009 144.808 622 136.63C632.705 128.665 643.883 121.356 655 114M589 50C579.983 61.072 568.858 70.1653 559.579 81C557.08 83.9185 550.903 89.2479 551.944 93.6821C553.276 99.3589 569.725 92.1526 573 91.1127C587.806 86.4105 602.399 80.3843 617 75.0532C624.683 72.248 633.188 70.6415 640 66M643 68C648.861 63.6593 656.148 62.6307 663 60.4923C680.213 55.1198 698.135 52.3947 716 50.2855C719.512 49.871 740.598 48.2609 738.654 55.105C736.761 61.7722 724.303 67.3474 719 71.1404C699.922 84.786 677.806 95.8237 660 111M520 493C530.239 493 548.971 492.364 550 506C538.065 506 524.876 504.095 518.055 492.985C514.905 487.855 514.737 481.773 510.775 477C501.038 465.268 488.735 461.747 496.785 445C502.651 432.798 511.798 421.782 518.579 410C549.818 355.73 622.358 293.648 583.576 225C579.218 217.287 574.347 209.68 567.83 203.59C558.831 195.18 548.396 188.8 537 184.201C521.413 177.91 504.762 174.238 488 173.089C443.302 170.028 399.665 178.614 356 187.4C343.344 189.946 318.134 195.499 310.688 180.985C307.139 174.067 310.8 166.485 315.329 161C324.873 149.441 339.098 142.017 352 134.861C398.19 109.242 446.863 86.1071 497 69.3334C508.587 65.4568 520.231 61.8477 532 58.5756C537.456 57.0587 542.648 54.3883 548 57M636 176C650.315 174.868 664.711 171.973 679 170.286C694.754 168.426 712.685 169.704 728 173.63C734.67 175.339 745.605 179.817 737.782 187.786C731.158 194.535 717.747 196.751 709 199.667C682.013 208.662 655.931 221.152 631 234.792C623.952 238.648 609.42 246.783 609.242 256C609.045 266.245 625.49 273.058 633 277C640.014 264.893 641.195 245.462 638 232M631 178L623.322 197L638 229M634 276C641.88 280.368 656.343 281.186 660.257 291.04C664.055 300.603 654.188 317.932 649.573 326C636.451 348.939 615.52 365.211 598.425 385C590.348 394.35 581.299 409.687 570 415L596.753 363L633 278M228 312C207.6 332.402 182.873 336.036 156.17 342.299C139.03 346.32 126.622 349.258 109 344M217 324C211.846 336.253 202.25 347.511 195.452 359C184.942 376.762 175.416 395.829 167.796 415C162.569 428.152 156.772 442.503 158.17 457C159.422 469.99 166.433 478.762 172 490C160.736 492.346 145.342 481.243 138.669 472.985C121.133 451.284 108.019 413.959 108 386L122 393.671L156 387.617L176 395M399 343C413.856 330.702 431.399 327.228 450 330.004C460.562 331.58 471.458 337.628 473.366 349C477.108 371.308 458.597 399.898 450.811 420C447.529 428.472 445.703 438.88 440 446C438.702 438.322 442.435 430.734 441.903 423C441.112 411.511 435.297 402.023 437.465 390C439.069 381.098 449.145 367.478 442.566 359.054C436.255 350.973 425.862 353.619 417 352.907C406.956 352.099 401.425 349.111 396 341C383.245 350.725 368.692 357.837 356 367.79C352.319 370.676 343.921 375.358 344.256 380.906C344.49 384.785 350.15 386.376 353 387.782C360.203 391.333 368.059 397.029 373.747 402.711C376.587 405.548 374.906 408.686 373.887 412C371.467 419.873 371.452 430.253 367 437M437 329C437 336.925 437.845 345.831 434 353M119 346C128.675 339.414 141.81 341 153 341M169 341L200 349M398 341L399 341M203 349C212.644 354.934 228.866 351.169 236.677 358.729C242.872 364.725 227.703 379.462 232.693 387.961C241.297 402.614 269.928 408.95 285 413.653C287.941 414.571 303.638 416.495 301.654 421.776C300.177 425.71 285.721 424.294 282 424.921C262.664 428.178 246.422 437.711 227 441L231 389M234 354C247.736 355.084 267.21 356.802 279.985 361.893C285.504 364.093 287.053 370.684 293.001 372.428C306.517 376.391 321.414 374.399 335 379L335 397C321.248 398.498 309.59 389.166 297 385.439C281.201 380.762 267.11 381.668 251 382M435 355C432.487 368.49 432.703 392.251 422.722 402.674C419.553 405.984 413.379 410.99 409 412.361C406.208 413.235 402.175 411.178 399.988 413.618C395.844 418.242 397.076 427.496 393 433C389.884 424.694 387.854 406.925 377 405M224 356C224.613 363.753 223.684 381.161 231 385M104 366L107 385M335 397C342.944 400.392 362.08 403.687 370 400M337 399L336.397 410.775L326 419.044L307 441C321.439 447.888 340.783 430.524 354.772 439.028C360.232 442.346 358.721 451.662 359.424 457C361.245 470.822 360.519 492.855 367 505C369.441 500.798 378.032 481.045 373.307 477.042C371.073 475.149 365.696 476.884 363 477M381 405C391.895 399.193 394.807 408.46 390 417M338 414C348.524 410.983 359.544 420.824 368 426M338 414L335 437M569 416C561.142 430.097 549.665 442.059 541.394 456C537.311 462.883 531.948 469.624 532 478C539.497 472.716 542.974 467.113 543 458M393 433L392 440M253 438L257 439L236 457L226 450.083L217.225 450.879L212 442C219.361 439.509 225.999 440.035 227 449M305 441L307 441M334 441L328.389 469L327 480M210 442L212 442M254 492L303 480.17L362 478M326 481L314 539C327.77 539.592 339.778 542.596 352 549L359.745 522L366 506M159 939L153 955C124.727 930.284 144.366 893.551 140.826 861C139.706 850.694 134.877 842.448 131.521 833C122.68 808.115 110.914 784.327 98.2292 761C89.7117 745.337 72.0248 725.326 86 708C77.7327 697.946 71.9567 684.613 66.1389 673C52.7343 646.242 38.0811 617.668 46.9097 587C53.8732 562.81 75.5951 538.412 93 521C98.8559 515.142 106.302 509.059 111.054 502.29C114.108 497.94 112.032 491.908 118.043 489.071C121.407 487.483 126.257 489.503 130 489M397 525C393.584 511.914 408.271 507.953 418 502.691C436.949 492.443 454.377 488.092 476 489.039C487.286 489.534 505.826 496.346 516 491M126 490L114 500M112 503C113.674 505.555 114.433 511.073 117.237 512.397C128.72 517.816 156.698 504.576 158.867 525.996C159.464 531.891 145.719 541.861 141.914 546C128.582 560.502 115.87 579.044 124 599M551 507L535.428 579L525.573 645L463.428 823L452.285 878L451 902C439.048 898.434 425.274 902.878 414 897.165C408.788 894.524 398.857 885.089 392.278 888.212C388.162 890.166 387.92 897.258 388.673 901C390.492 910.048 395.861 920.516 406 921.471C420.655 922.851 432.112 912.22 446 911M555 507L568 508M365 511C372.99 525.969 362.997 541.993 361.673 556.911C361.198 562.256 366.107 567.885 365.985 574C365.696 588.414 357.569 602.597 353.003 616C350.898 622.179 350.068 629.573 345 634C341.164 624.909 342.626 611.715 347 603C333.65 593.935 319.222 586.187 303 584L313 540C299.128 536.186 274.871 543.622 263 551L302 585M399 527L406 535M408 537L412 541M417 545L417 547M352 549L361 558M354 551C349.508 559.288 348.33 573.968 351 583L360 561M420 551L421 552M425 558C429.887 575.867 438.835 593.398 440.826 612C443.554 637.475 432.455 670.115 420 692M350 584C349.989 589.313 353.07 600.118 348 603M302 585C299.75 594.815 296.788 612.186 287 617M348 595L346 601M128 603C142.062 616.333 161.428 615.048 179 610.884C196.481 606.742 214.283 603.036 232 600.08C243.596 598.145 253.533 595.82 265 600M517 610L415 711L417 699M283 615L285 616M86 707C128.462 664.566 189.219 658.047 246 664.845C271.167 667.858 303.408 674.962 316.688 699C334.48 731.207 314.511 771.165 306 803L339 778.449L407 719C409.035 729.527 397.545 749.285 393 759M85 709C110.786 739.328 129.89 782.081 130 822M414 711L408 719M159 945C163.113 949.492 174.606 957.64 176.623 945.999C177.499 940.95 171.148 938.469 168.703 934.96C165.039 929.702 164.168 921.254 164.015 915C162.831 866.673 161.495 815.916 167.718 768C169.928 750.99 180.146 714.61 204 719.38C217.825 722.145 223.366 735.776 225.8 748C230.75 772.857 228.653 796.649 222.011 821C220.076 828.094 212.36 853.694 222.214 857.759C227.421 859.908 239.589 850.709 244 848.077C258.64 839.34 272.382 829.083 286 818.873C292.277 814.167 300.188 810.235 305 804M392 761L387 773M385 778L383 783M382 786C363.082 825.924 336.864 860.786 309.197 895C303.76 901.723 283.392 927.959 273.434 916.772C267.197 909.765 272.175 894.813 274.266 887C281.464 860.111 295.705 835.725 303 809M131 836L136 907M153 956C135.281 970.292 116.948 952.959 121.529 933C122.956 926.786 127.599 916.849 135 920M235 936L240 956C233.79 957.022 233.068 953.359 234 948M351 942L352 942M347 943L348 943M333 947L335 947M316 951L331 948M729 995C719.363 959.948 773.445 939.905 798.956 953.836C808.899 959.265 798.542 975.236 808.133 979.65C816.938 983.703 833.329 972.206 843 972M313 952L314 952M240 956C246.254 964.758 251.574 983.336 264 984.747C268.026 985.204 275.552 984.034 278.667 981.272C282.498 977.877 278.861 971.395 281.179 967.044C285.735 958.49 307.169 945.935 311.427 961C312.547 964.963 311.136 969.014 312 973L318 964M154 954L160 958M250 955L256 954M258 954L272 954M274 954L275 954M278 954L287 954M246 956L247 956M164 960C180.611 965.748 192.977 979.069 208 987.663C227.233 998.666 254.522 1001.8 276 997.285C289.979 994.343 308.167 988.331 312 973M850 988L850 989M849 992L848 998M847 1002L846 1003M844 1008L844 1009M844 1012L850 1013M751 1018L752 1018M754 1019C771.615 1024.63 793.514 1028.19 812 1029M868 1023L869 1024M872 1027L873 1029M875 1038L875 1040M876 1046L876 1052M488 1062L472 1068L467 1061C476.579 1055.13 481.725 1060.66 491 1062.84C495.636 1063.92 500.758 1062.54 504.397 1066.64C507.34 1069.95 504.467 1074.97 507.028 1078.27C510.641 1082.93 517.454 1083.09 521.301 1089C536.477 1112.32 522.392 1136.85 508 1157M877 1064L877 1069M492 1065C498.027 1082.8 490.296 1106.22 475 1117L472.566 1080.33L463 1078.43L448.001 1075.6L433.999 1085.61L411 1086C418.494 1092.66 431.186 1094.88 441 1096.13C444.671 1096.59 452.779 1094.99 455.168 1098.56C457.724 1102.38 446.711 1113.77 445.232 1118C443.573 1122.73 447.42 1124.74 448.339 1129.01C450.147 1137.42 445.851 1141.14 452 1149M472 1068L472 1078M858 1073L858 1074M498 1080L505 1080M405 1101L419.104 1115.32L434 1123C425.071 1127.06 406.136 1124.82 402.653 1113.99C400.748 1108.06 404.972 1102.42 403.463 1097C402.15 1092.29 397.906 1088.53 396 1084L410 1086M861 1083C858.979 1108.61 837.843 1149.79 807 1147.91C794.511 1147.14 787.561 1138.71 778 1132M877 1097L877 1099M870 1115L865 1123M665 1145C667.383 1136.69 679.024 1133 686 1129.01C709.502 1115.57 751.741 1110.71 774 1129M529 1126C543.274 1121.99 558.263 1121 573 1121M576 1121L602 1122M604 1122L620 1123M434 1123L444 1123M622 1123L632 1124M634 1125L637 1126M437 1126C439.128 1131.38 441.593 1135.56 447 1138M442 1126L440 1130M864 1126L863 1128M517 1207L492 1252C485.067 1239.99 484.543 1224.42 478.736 1212C472.247 1198.11 461.172 1191.94 461.883 1175C462.283 1165.48 469.915 1155.83 475.849 1149C488.051 1134.95 502.983 1122.09 523 1129M640 1127L643 1127M645 1128L648 1130M651 1132L653 1133M861 1132L858 1137M439 1135L439 1147M551 1262C542.313 1258.95 544.679 1248.5 550 1243L561 1295C569.033 1283.62 570.606 1258.55 563.697 1246.05C561.329 1241.77 551.785 1241.82 551.955 1236.94C552.144 1231.54 556.604 1225.45 557.789 1220C561.655 1202.22 560.939 1179.82 577.015 1167.42C585.709 1160.71 598.081 1165.78 608 1163.24C626.249 1158.56 643.359 1146.8 661 1140M854 1142L847 1152M446 1144C442.52 1159.22 449.875 1165.26 461 1175M845 1154L844 1157M458 1156L467 1159M493 1162L504 1160M841 1163C837.977 1183.54 827.902 1202.59 833 1224M518 1165L519 1165M521 1171C524.04 1179.98 526.364 1198.97 519 1206M464 1178C473.652 1185.69 478.747 1196.76 479 1209M718 1182L721 1182M734 1182L732 1183M727 1188L726 1189M722 1192L724 1191M718 1198C708.228 1209.5 713.427 1218.4 723 1228M514 1221C532.839 1207.45 534.943 1240.24 533.925 1251C530.936 1282.6 517.224 1312.46 509.627 1343C507.766 1350.48 502.964 1370.62 513.05 1374.82C516.418 1376.23 525.134 1364.61 528 1362.31C538.241 1354.11 579.696 1330.89 549 1319C547.968 1322 545.795 1324.92 545.161 1328C543.522 1335.98 548.772 1339.96 537 1340L544 1330M482 1229L480.996 1316L479.314 1348.89L490.996 1356.44L502 1372M726 1231L731 1235M833 1231L833 1233M834 1236C834 1267.35 830.502 1301.17 818 1330M550 1241L550 1243M645 1241L647 1241M649 1241L650 1241M655 1241L657 1241M663 1241L664 1241M667 1241L668 1241M738 1241L751 1258M636 1242L638 1242M674 1242L675 1242M814 1243L811 1245M623 1245L624 1245M808 1246L806 1249M611 1250L615 1249M827 1249L827 1253M804 1252L800 1262M491 1253L492.91 1291L497 1359M603 1254L600 1255M827 1256L827 1263M592 1258L593 1258M745 1260L745 1262M576 1263L584 1261M756 1263L769 1277M554 1264L566 1266M826 1266L825 1273M745 1267L745 1269M797 1270L796 1271M795 1275L793 1290M824 1275L819 1298M770 1281C780.093 1297.26 771 1323.82 771 1342C786.309 1335.56 795.74 1316.53 802 1302M53 1353C39.8772 1336.25 60.293 1323.87 74 1315.6C98.5066 1300.82 123.262 1292 152 1292C160.21 1292 169.307 1290.75 177 1294C172.126 1299.12 162.54 1300.05 156 1302.61C144.208 1307.24 132.492 1313.97 124.515 1324C121.265 1328.08 118.095 1332.49 115.464 1337C111.822 1343.24 105.288 1354.4 108.488 1361.91C110.914 1367.6 118.409 1367.83 123 1370.85C131.777 1376.63 145.811 1386.03 151.393 1395C154.49 1399.98 147.405 1407.91 150.708 1411.23C153.012 1413.54 160.933 1412 164 1412C176.591 1411.98 189.443 1409.4 202 1411.8C236.444 1418.4 263.283 1436.22 294 1451.14C307.074 1457.49 325.065 1459.59 334 1472C313.856 1484.41 286.054 1470.12 276.09 1500C274.693 1504.19 274.036 1508.59 274.005 1513C273.966 1518.44 274.415 1524.18 277 1529C283.032 1520.53 287.653 1510.37 295.59 1503.34C302.643 1497.09 314.526 1492.99 323 1488.75C355.914 1472.3 403.242 1460.92 440 1469.68C447.106 1471.37 451.538 1476.79 458 1479.13C461.665 1480.46 465.569 1476.9 469 1475.92C473.45 1474.64 479.062 1475.89 482.995 1478.23C494.361 1484.97 488.298 1497.89 486.425 1508C485.412 1513.47 486.012 1520.23 479 1520M758 1293C757.332 1300.61 752.869 1306.15 750.018 1313C744.622 1325.96 741.135 1340.25 745 1354M793 1294L793 1296M561 1295C562.072 1305.82 564.738 1314.7 563.94 1326C563.686 1329.59 563.31 1335.83 559 1335M561 1299L550 1319M818 1301L812.286 1330L810.972 1341.57L800.224 1346.42L792 1354M545 1327L539 1318L548 1318M820 1320L820 1321M561 1337L557 1341M550 1347C568.743 1364.78 596.077 1373.51 616 1390.58C628.744 1401.5 638.729 1408.97 625 1423M63 1360L64 1361M70 1364L71 1364M73 1366L74 1366M80 1369L85 1371M89 1372L91 1374M94 1375C110.886 1384.61 124.085 1389.9 132 1409M20 1516C5.5723 1498.44 7.20378 1473.98 17.7315 1455C33.1373 1427.22 65.2796 1405.83 97 1401.3C109.494 1399.52 118.393 1404.37 130 1407M149 1411C143.377 1414.34 135.431 1414.13 129 1415.45C121.14 1417.06 112.806 1420.85 106 1425.07C100.25 1428.63 94.7904 1432.77 90.4637 1438C84.8992 1444.73 77.5881 1453.9 77.1088 1463C76.6331 1472.03 82.9166 1480.88 87.6667 1488C101.019 1508.02 119.028 1524.14 139 1537.33C147.341 1542.84 156.657 1546.67 165 1552.2C167.442 1553.82 172.76 1556.18 173.654 1559.21C174.621 1562.47 170.383 1564.94 167.999 1566.08C160.956 1569.44 151.458 1568.22 144 1567M146 1414C143.01 1434.25 137.445 1452.43 144.699 1473C157.107 1508.18 192.894 1534.8 203.211 1571C212.572 1603.84 159.598 1618.5 164.213 1649C167.604 1671.41 206.66 1666.12 223 1669.88C244.661 1674.86 269.552 1678.58 279.876 1701C283.165 1708.14 280.641 1715.78 283.248 1723C287.074 1733.6 297.681 1736.51 308 1736.96C312.274 1737.15 323.035 1738.36 325.958 1734.4C327.792 1731.92 326.026 1727.63 325.373 1725C323.402 1717.06 323.747 1707.39 320.33 1700C317.488 1693.85 311.172 1684.26 319.214 1678.94C325.088 1675.06 337.365 1678.45 344 1678.91C359.79 1680 376.506 1678.53 392 1682.11C398.302 1683.57 402.12 1688.43 409 1689C410.652 1698.6 419.567 1698.17 427 1698.17C442.598 1698.19 458.752 1697 474 1693.5C494.579 1688.78 510.466 1679.54 529 1670.27C534.133 1667.7 539.996 1666.83 544.995 1664.08C548.861 1661.96 549.497 1658.32 552.584 1655.87C557.284 1652.15 570.99 1648.72 577 1646.84C592.811 1641.88 611.658 1644.39 628 1643.99C642.349 1643.63 655.259 1640.75 669 1637M614 1433L618 1430M608 1437L606 1438M579 1456L580 1456M458 1481C454.473 1483.71 446.528 1487.21 445.731 1492.01C444.78 1497.74 456.682 1508.14 459.766 1513C466.732 1523.97 462.174 1533.57 465.318 1544.94C466.779 1550.23 472.286 1546.45 474.677 1550.28C479.535 1558.06 465.41 1570.33 459 1572M461 1482C464.303 1488.67 469.145 1494.72 471.211 1502C474.824 1514.73 473.854 1534.01 472 1547M370 1533C360.037 1532.99 353.395 1527.21 344 1524.59C340.348 1523.58 334.276 1523.57 331.647 1520.44C327.039 1514.94 339.68 1501.85 345 1501.32C355.478 1500.27 374.207 1515.05 383 1520.53C399.953 1531.1 403.147 1545.25 399.917 1564C399.009 1569.27 394.307 1579.74 396.452 1584.7C398.042 1588.38 404.151 1592.82 406.87 1596C423.573 1615.54 442.2 1621.07 466 1628.66C478.364 1632.6 490.3 1631.92 503 1631.09C507.248 1630.81 513.529 1632.18 516.168 1627.69C518.871 1623.08 507.744 1620.99 505 1619.86C492.189 1614.59 476.461 1610.57 471.461 1596C469.498 1590.28 475.734 1587.48 477.972 1583C479.469 1580 479 1576.25 479 1573C455.854 1575.93 417.598 1577.52 420 1608M302 1503C308.74 1512.49 319.174 1515.76 329 1521M24 1521L29 1523M328 1522C326.434 1528.77 316.091 1551.23 324.228 1555.96C329.826 1559.21 341.362 1552.54 347 1551M33 1526L35 1527M277 1529L283 1537M393 1529L389 1531M379 1533L384 1532M276 1533L278 1537L278 1537M374 1533L376 1533M461 1534L459 1536M276 1537C259.834 1549.47 236.139 1588.42 264 1603M276 1539C278.748 1553.8 273.094 1571.69 282.352 1584.85C285.229 1588.94 291.689 1589.68 296 1591.81C305.352 1596.41 313.457 1602.36 322 1608.23C323.987 1609.59 331.684 1614.83 333.759 1611.36C335.208 1608.93 331.912 1604.16 330.92 1602C327.014 1593.48 323.391 1584.74 320 1576M455 1539C448.707 1543.28 443.012 1549.28 435 1549M357 1546L372 1543.13L400 1546M428 1546L432 1547M282 1547L286 1549M408 1547L410 1547M350 1549L354 1548M290 1551L295 1554M112 1556L116 1557M299 1557L300 1557M323 1571C331.809 1565.68 342.284 1558.72 353 1558.73C367.951 1558.74 382.874 1569.68 398 1571M477 1558L480 1572M305 1561L308 1563M127 1562L128 1562M131 1563L133 1563M140 1566L142 1566M312 1566L317 1573M480 1572L497.682 1570.03L500.715 1583L505.377 1605L516 1623M326 1570L344 1576.58L393 1606C395.62 1601.09 395.565 1595.3 394 1590C384.712 1593.55 376.476 1590.92 373 1581C379.825 1578.93 389.504 1576.54 396 1580M400 1572C419.612 1579.4 436.03 1574.86 456 1574M394 1587L394 1590M270 1605L291 1605M294 1605L298 1605M300 1605L309 1606M394 1605L412.227 1614.59L413.34 1628L422 1642M317 1610L323 1620M425 1615C428.062 1621.58 434.055 1626.95 438.164 1633C449.146 1649.17 454.439 1667.57 476 1669.12C479.143 1669.35 482.931 1670.79 486 1669.68C496.214 1665.97 506.977 1648.58 513 1640L495 1643.01L448 1645M572 1627L552 1624L591 1618.83L610 1617C604.657 1627.3 592.899 1635.36 583 1641M514 1639L526 1636C519.907 1622.16 542.632 1626.31 552 1624M328 1626L331 1628M518 1626L523 1628M569 1628C561.764 1635.93 554.664 1642.89 553 1654M523 1631L519 1637M511 1632L505 1638M351 1644L352 1644M424 1644L440 1659M429 1648L444 1645M497 1645C492.22 1650.6 492.001 1655.9 492 1663M417 1648L424 1648M397 1651L414 1649M379 1651L381 1651M383 1651L389 1651M392 1680C388.595 1676.93 381.995 1673.78 380.89 1669C378.988 1660.75 393.711 1658.94 399 1659.21C414.92 1660.03 427.107 1670.95 442 1672.71C448.049 1673.43 453.73 1667.42 460 1667M444 1661L451 1664M485 1671C483.48 1676.12 479.975 1676.88 475 1677M446 1673L456 1676M442 1674C430.349 1684.18 425.459 1688 410 1688M464 1677L466 1677M399 1686C392.734 1690.51 385.325 1688.59 378 1689.09C370.32 1689.62 363.887 1691.8 357 1695M361 1693C366.516 1695.94 372.89 1694.93 379 1695C389.072 1695.12 399.728 1698.35 409 1693M376 1709L413 1699M420 1700C417.47 1707.81 393.92 1708.04 387 1706M1072 1761C1076.69 1760.52 1086.69 1755.66 1081.38 1749.51C1078.99 1746.74 1074.09 1748.22 1072.07 1745.4C1066.04 1736.99 1077.42 1736.33 1082 1737M1087 1744C1102.88 1741.23 1087.57 1754.97 1090.25 1760.44C1091.79 1763.56 1098.17 1762.98 1101 1763" transform="translate(-577.122,-226.816) scale(0.935303,0.330836)"/></svg>