<svg xmlns="http://www.w3.org/2000/svg" xmlns:svg="http://www.w3.org/2000/svg" xmlns:sodipodi="http://sodipodi.sourceforge.net/DTD/sodipodi-0.dtd" xmlns:inkscape="http://www.inkscape.org/namespaces/inkscape" xmlns:xlink="http://www.w3.org/1999/xlink" width="210mm" height="297mm" viewBox="0 0 210 297">
  <sodipodi:namedview/><g inkscape:label="Ebene 1" inkscape:groupmode="layer" id="layer1">
    </g>
<path style="fill:none;stroke:#000000;stroke-linecap:round;stroke-width:5.0" d="M399 479C425.196 475.617 450.288 468 477 468C485.093 468 495.732 466.121 503 470C484.967 483.907 451.992 498.422 429 498.985C416.229 499.298 402.721 496.168 399.019 482C396.273 471.489 400.001 459.21 402.63 449C409.862 420.91 424.098 394.051 438.427 369C496.579 267.34 587.072 182.587 684 118C715.269 97.1643 748.832 81.3671 785 71C801.268 66.3368 822.295 63.8536 834.674 78.0393C857.039 103.667 849.386 147.389 845.13 178C833.632 260.716 814.141 341.311 797.8 423C792.482 449.586 792.719 480.514 783.899 506C782.199 510.912 768.453 529.56 776.062 531.682C785.683 534.365 797.915 531.967 808 533.428C810.951 533.856 816.775 536.127 819.397 534.096C823.65 530.803 821.694 516.01 822.286 511C825.002 487.979 828.149 461.13 826.834 438.015C826.61 434.07 822.778 431.089 820.696 427.985C815.663 420.483 809.689 411.451 810.104 402C811.137 378.521 827.691 361.114 834.66 340C840.128 323.432 840.789 304.155 844.2 287C849.41 260.797 857.124 235.17 862.4 209C866.242 189.939 871.436 171.22 874.424 152C875.374 145.895 876.984 133.516 882.637 129.752C886.991 126.853 894.002 138.165 896.076 141C905.903 154.428 911.41 175.401 909.83 192C906.454 227.476 884.078 257.796 865.681 287C856.637 301.357 848.755 317.921 838 331M834 345L827 433M597 428C604.605 421.861 618.206 415.003 628 414C627.485 424.031 622.769 441.199 618 450C609.97 444.09 603.237 429.715 593 428L579 411C595.378 406.148 612.685 404.491 629 398.564C688.695 376.877 749.233 346.179 814 346M801 347C788.411 357.084 766.201 358.551 751 363.667C715.285 375.689 676.548 388.698 643.059 406.055C634.739 410.367 645.885 427.008 648.778 433C650.041 435.616 651.616 440.382 655.105 440.546C659.93 440.773 664.781 435.035 668 432.166C677.296 423.88 693.902 398.708 708 401C703.446 410.765 691.909 419.457 684.039 426.714C664.539 444.7 643.55 465.183 618 474.308C605.207 478.877 588.749 476.697 577 483C593.846 493.462 619.638 495.969 639 498.714C646.648 499.799 661.019 498.6 666.671 504.228C672.977 510.51 681.079 533.743 676.485 542C669.216 555.067 646.8 567.543 651.789 585C655.707 598.708 670.49 606.849 683 611.302C685.817 612.304 693.603 615.931 696.338 613.883C701.472 610.037 684.844 601.719 682 601M636 409L631 410L635 402L639 408M569 410L579 411M631 410L629 413M504 470C533.043 457.405 561.472 437.727 592 429M829 438C861.933 473.867 861.078 514.852 844 558L845 559L850 558C851.223 565.828 839.62 571.24 836.263 578C828.433 593.769 823.927 612.629 816.374 629C805.8 651.919 792.072 673.086 781.185 696C775.792 707.352 777.401 720.631 768.671 730.985C760.829 740.285 747.238 745.526 737 751.811C722.271 760.853 708.513 771.703 695 782.448C669.177 802.982 637.149 830.41 603 813M512 468C525.519 476.319 539.609 475.805 549.189 491C569.618 523.4 556.475 569.149 583.439 598.911C597.152 614.046 617.782 624.284 635 634.811C669.243 655.749 705.982 671.069 741 690.312C749.633 695.056 756.709 701.887 765 707M557 478L577 483M401 530L407 534C401.539 537.107 397.436 533.547 392 531.671C379.168 527.241 365.613 523.401 354 516.184C350.373 513.931 342.732 509.174 343.117 504.105C343.444 499.808 351.803 497.775 355 496.255C368.215 489.972 383.437 482.143 398 480M407 535C426.76 552.206 449.931 565.549 471 581.375C482.425 589.957 496.544 601.925 501 616M406 538L408 537M432 555L443.084 571.039L481.826 608L508 642C509.405 634.811 503.971 628.545 500 623M844 559L812 572C810.62 569.431 810.245 564.663 807.682 563.042C800.815 558.7 785.109 569.944 779 572.833C750.692 586.223 720.111 593.21 690 601M842 561L840 569M803 649L805 636C794.561 633.137 780.25 643.411 770 646.116C763.347 647.871 753.887 651.168 747 649.693C742.049 648.632 737.828 644.062 734 641C725.38 634.104 714.415 628.082 708 619C715.671 616.754 725.901 619 734 619C754.303 619 776.789 619.489 796 611.826C811.964 605.457 820.648 589.484 834 580M698 613L708 620M507 624L507 626M509 643C520.919 663.782 530.605 684.32 538.942 707C541.906 715.063 541.526 723.148 545.938 731C556.099 749.08 574.292 760.846 585 779C589.279 774.809 588.579 766.742 589.88 761C592.935 747.521 596.016 729.853 607.093 720.279C617.173 711.566 639.604 715.144 652 714.996C665.136 714.84 678.846 716.082 692 714.83C714.742 712.666 737.13 706.982 760 706M515 659C524.005 691.046 523.622 725.483 530.662 758C538.581 794.579 556.313 831.363 545.573 869C538.977 892.111 528.894 914.172 521.482 937C519.201 944.022 512.384 956.482 519 962L521 962M778 701L766 715M542 711L554 739M560 750L562 764M587 780C587.514 791.24 591.21 802.999 600 810M593 805C593 835.634 587.711 863.863 583.272 894C582.572 898.747 580.908 904.208 581.233 909C581.58 914.109 584.406 917.562 583.561 923C579.785 947.31 561.297 980.888 545 999L559 1013C562.092 1016.1 565.249 1019.06 567.401 1022.91C580.784 1046.87 549.164 1057.47 545 1079C550.152 1077.66 567.361 1069.15 567.364 1062.97C567.366 1059.56 563.259 1057 561 1055M515 960L508.7 996L507 1015L513 1005M487 1025C481.515 1018.13 473.018 1012.84 465 1009.32C461.065 1007.6 454.257 1006.78 452.752 1001.95C451.11 996.69 461.578 992.28 465 990C478.722 980.856 496.62 964.911 513 962M520 962L515 965M506 1004C499.337 993.125 500.355 978.566 511 971M541 995C545.665 1001.79 541.249 1006.6 537.769 1013C530.984 1025.48 522.931 1038.25 519 1052C534.586 1054.27 557.68 1036.11 568 1026M518 1053C513.726 1062.15 509.179 1073.11 500.996 1079.4C498.624 1081.23 494.468 1084.89 491.209 1084.17C488.327 1083.53 485.865 1079.06 484 1077L482 1093C464.943 1077.86 454.035 1054.25 450.576 1032C449.335 1024.02 445.926 1012.89 453 1007M459 1008L467.397 1029L478.09 1061L484 1077M507 1015L499.37 1039L485 1072M490 1030L496 1045M430 1499C448.24 1492.17 463.667 1487.27 479 1474L465 1468C470.71 1451.23 481.642 1432.68 494.039 1420.01C499.532 1414.4 507.644 1410.88 512.49 1404.83C517.15 1399 518.412 1390.42 522.257 1384C529.406 1372.05 538.893 1361.31 548.171 1351C565.929 1331.27 586.302 1313.89 603.816 1294C620.925 1274.56 634.627 1253.36 647.421 1231C656.263 1215.54 665.624 1199.53 669.575 1182C678.612 1141.9 655.478 1092.01 619 1073.76C609.025 1068.77 597.842 1067.03 588.001 1062.09C584.196 1060.19 579.515 1056.52 583.257 1052.21C592.034 1042.12 617.025 1044.94 629 1045C637.956 1045.04 647.42 1046.62 656 1049.14C712.246 1065.67 714.422 1123.76 712.405 1173C711.505 1194.98 701.647 1213.78 690.228 1232C667.62 1268.08 636.354 1298.27 608.173 1330C592.514 1347.63 581.046 1368.19 566 1386C592.341 1407.98 555.262 1445.67 554 1470C570.917 1468.17 582.508 1450.08 594.089 1439.59C598.205 1435.86 606.407 1427.77 612.772 1429.78C616.36 1430.91 616.42 1435.99 617.053 1439C619.161 1449.01 617 1455.7 617 1466C617 1500.26 618.921 1547.5 598.906 1577C582.067 1601.82 541.476 1601.26 515 1609.74C490.47 1617.61 467.282 1626.96 445 1640.01C410.983 1659.94 380.748 1683.76 342 1694.65C328.886 1698.33 314.738 1669.38 309.969 1660C304.882 1650 289.289 1638.97 287.661 1628C287.011 1623.62 292.105 1618.67 294.058 1615C300.38 1603.13 305.369 1586.58 315.184 1577.15C321.471 1571.11 330.201 1576.94 337 1579.34C354.632 1585.59 371.68 1595.44 391 1593M554 1470C544.723 1479.51 546.647 1490.19 542.304 1502C538.779 1511.58 531.116 1519.31 523 1525.24C511.117 1533.93 494.448 1537 480 1537C462.892 1537 444.93 1536.71 430 1526.89C413.541 1516.07 405.854 1496.15 401.374 1478C392.514 1442.1 390.629 1409.33 396.296 1373C398.76 1357.2 409.418 1343.98 411.7 1328C412.865 1319.84 410.594 1310.8 408.279 1303C402.04 1281.98 384.747 1266.98 369.09 1252.58C346.681 1231.97 324.609 1210.81 318 1180C316.517 1173.09 312.132 1163.03 313.662 1156C314.921 1150.22 321.507 1146.59 326 1143.5C336.541 1136.25 347.002 1128.58 357 1120.6C376.379 1105.13 396.308 1092.61 418 1080.69C424.099 1077.34 434.941 1068.48 442 1068.71C447.237 1068.87 453.57 1076.46 456.91 1080C463.546 1087.04 469.403 1094.82 477.004 1100.9C480.764 1103.91 485.059 1103.52 488.725 1105.95C491.816 1107.99 493.193 1112.89 495 1116C515.981 1098.62 520.434 1048.21 557 1055M545 1079L538 1086M484 1085L488 1086M483 1094L486 1103M541 1113L537 1134C535.3 1128.08 537.08 1122.27 540 1117M509 1127C519.389 1177.6 517.994 1232.67 518 1284M509 1130C498.326 1134.54 483.565 1131.66 472 1134C443.189 1139.84 411.959 1161.61 403.428 1191C401.567 1197.41 397.094 1207.35 399.603 1213.98C402.575 1221.84 417.461 1227.97 423.7 1233.59C434.819 1243.62 443.242 1260.34 445.715 1275C449.88 1299.71 446.174 1325.12 449.729 1350C451.188 1360.21 453.404 1373.42 461.055 1380.94C470.198 1389.93 488.429 1374.11 501 1376.47C521.64 1380.33 535.088 1400.08 549 1414L566 1388M537 1134C534.295 1155.41 530.167 1176.63 527.289 1198C525.52 1211.13 524.508 1227.26 518 1239M525 1224C525 1237.91 522.642 1252.12 524.286 1266C525.63 1277.36 531.185 1292.91 528 1304L500 1279.59L462 1257M688 1250L689 1250M531 1396C541.216 1389.02 553.281 1377.6 566 1386M531 1396C516.287 1408.86 512.884 1425.87 507.576 1444C505.921 1449.65 501.38 1456.25 503 1462C511.925 1457.25 538.276 1445.08 546.142 1456.21C549.396 1460.82 548 1468.66 548 1474M617 1444L617 1452M621 1453C621.023 1487.65 629.419 1524.67 634.286 1559C635.66 1568.7 636.673 1578.31 638 1588C638.541 1591.95 640.263 1597.89 638.397 1601.68C636.088 1606.38 624.211 1603.01 620 1603C601.872 1602.98 586.181 1610.42 569 1614.97C511.276 1630.27 457.379 1658.55 402 1680.45C388.977 1685.6 376.172 1691.72 363 1696.41C355.706 1699.01 348.587 1700.86 342 1696M501 1461L485 1475C493.361 1485.12 515.211 1498.52 529 1495.06C535.304 1493.47 539.58 1488.42 544 1484M490 1467L495 1467M479 1474L487 1470M482 1473L485 1476M411 1504L425 1500M408 1502L392.711 1507.85L394.692 1516L404 1537C413.39 1542.15 424.227 1567.67 418.821 1577.96C414.883 1585.45 402.716 1590.75 395 1593M427 1504L421 1517M421 1519L407 1537M311 1665C302.978 1661.72 298.674 1652.63 293.66 1646C281.805 1630.32 271.245 1614.7 260.935 1598C258.593 1594.21 245.961 1580.13 249.708 1575.85C252.011 1573.23 257.807 1573.08 261 1572.35C271.026 1570.05 280.909 1567.22 291 1565.2C311.402 1561.12 331.975 1557.29 352 1551.57C368.724 1546.8 385.702 1540.2 403 1538M1099 1703C1108.37 1700.74 1122.32 1696.8 1117 1711C1127.56 1714.12 1134.34 1709.68 1143 1705M1117 1712L1107 1714M1135 1712C1133.68 1717.75 1129.28 1746.63 1143 1733M1115 1714L1112 1728M1134 1725L1143 1724" transform="translate(-577.122,-226.816) scale(0.911306,0.335168)"/></svg>