<svg xmlns="http://www.w3.org/2000/svg" xmlns:svg="http://www.w3.org/2000/svg" xmlns:sodipodi="http://sodipodi.sourceforge.net/DTD/sodipodi-0.dtd" xmlns:inkscape="http://www.inkscape.org/namespaces/inkscape" xmlns:xlink="http://www.w3.org/1999/xlink" width="210mm" height="297mm" viewBox="0 0 210 297">
  <sodipodi:namedview/><g inkscape:label="Ebene 1" inkscape:groupmode="layer" id="layer1">
    </g>
<path style="fill:none;stroke:#000000;stroke-linecap:round;stroke-width:5.0" d="M1 40L10 39M654 406C647.573 397.902 642.13 388.425 634.957 381.015C629.229 375.097 620.417 370.882 617.133 363C607.652 340.239 619.005 313.417 618 290C661.578 290 707.747 255.189 747 290.174C773.739 314.005 773.017 343.635 759.716 375C754.897 386.363 747.092 403.958 732 402.4C717.151 400.868 724.471 380.774 727.495 372C734.877 350.585 753.699 299.613 723.999 286.955C714.862 283.061 704.097 285.072 695 287.885C692.144 288.768 686.29 290.161 686.346 294.055C686.446 301.044 699.476 308.203 702.995 314C709.836 325.269 702.032 337.477 697.772 348C695.011 354.818 689.197 370.159 680 370.198C668.296 370.249 667.999 358.401 668 350C668.001 333.445 679.071 308.532 660.996 297.479C648.216 289.664 626.608 292.132 627.202 310.999C627.528 321.363 644.547 323.713 647.765 334C650.835 343.815 646.999 353.222 647.259 363C647.67 378.429 651.059 398.233 658 412M521 390C535.691 384.734 526.971 367.79 521.652 360C518.57 355.487 518.627 349.81 516.164 345C509.795 332.557 498.156 323.331 484 323.133C474.387 322.998 463.307 330.247 457.104 337.004C450.838 343.83 445.995 352.008 439.844 358.999C424.556 376.376 403.729 385.291 383 393.911C377.114 396.358 363.161 400.541 359.067 392.856C356.01 387.117 360.972 376.911 361.866 371C362.665 365.717 362.495 360.092 364 355L369.938 368.999L380 384C387.1 377.693 396.213 361.855 385.985 354.854C379.189 350.203 372.084 353.021 366.228 345.995C359.979 338.498 362.554 320.937 367 313C373.475 322.828 370 332.772 370 344C403.127 344 429.034 330.063 456 311.229C479.387 294.895 504.436 274.637 535 277.093C543.411 277.769 551.772 281.639 560 283.501C571.199 286.035 582.646 286.941 594 288.286C603.032 289.355 613.512 293.145 619 284M611 292C589.886 321.394 567.16 348.015 581.228 386C583.575 392.336 587.22 403.574 593.105 407.423C596.265 409.489 599.6 407.153 603 407.227C610.444 407.39 619.775 408.28 627 410C627.795 401.534 615.488 392.768 610.17 387.015C595.961 371.643 584.743 362.592 582 341M269 341L296.382 329.836L300.02 320.207L307 330L299 331L307 384L306 385C289.942 380.952 286.92 369.399 283.116 355C281.346 348.304 278.046 339.562 269.17 341.885C266.377 342.616 264.088 345.438 261.985 347.272C249.208 358.413 254.703 367.329 258.522 382C260.625 390.077 260.61 399.37 263.846 407C268.03 416.864 276.839 425.507 282.138 435C290.099 449.262 295.335 464.86 303.427 479C308.578 488 314.792 496.281 320.368 505C322.165 507.809 324.358 513.913 328.133 514.393C332.042 514.89 339.77 512.51 340.017 507.956C340.804 493.466 335.141 478.092 336.302 464C337.306 451.829 354.238 431.555 364.001 425.108C387.091 409.86 381.645 450.716 400 447L398.941 466L397 493C384.459 484.141 380.939 471.753 398 466M351 323L362 325M354 326L361 335M308 331C325.61 325.795 344.712 340.766 362 343M308 331C308 347.81 305.813 371.366 315.699 386C324.645 399.242 347.356 406.031 358 393M549 348L580 336M237 468C232.899 461.724 230.875 454.72 227.68 448C219.26 430.294 207.104 403.039 214.663 383C217.792 374.703 225.384 369.369 232 364L229 361C239.571 352.639 253.445 344.002 267 342M370 344C364.948 350.529 371.365 360.221 372 368M365 350L365 355M552 350L569.972 357.279L570.357 369.397L556 371.328L536.043 381.434L525 391M501 359L521 377C511.9 378.555 495.464 369.552 501 359M221 438C217.078 436.206 211.446 433.063 208.742 429.61C205.925 426.014 207.671 420.934 205.106 417.09C198.994 407.928 183.398 408.943 178 418C172.446 412.704 176.419 399.865 180.272 394.089C190.182 379.238 211.368 365.448 228 361M226 363L178 408M232 364C241.038 364.823 246.068 375.141 251 382M242 373C242.21 398.317 252.986 419.606 263.702 442C266.795 448.463 271.321 461.626 279 463L276 462M371 376L359 394M522 379L526 382M252 385L261 399M628 408L633 412M265 412L278 461M137 456L136 460C135.368 443.773 162.018 421.441 174 413M177 418C176.068 431.751 189.4 434.75 196.031 445.001C201.679 453.732 202.09 465.336 205.541 475C208.585 483.524 213.961 490.913 215 500L216 497M176 425C165.899 443.927 181.991 456.937 192.239 470.04C199.738 479.628 205.487 490.104 214 499M393 447C389.194 449.11 378.433 449.341 376.618 453.317C374.811 457.277 377.623 463.826 377.91 468C379.186 486.51 382.869 500.848 398.001 513.385C400.894 515.782 405.085 520.463 408.985 520.944C415.997 521.808 415.776 508.359 416.421 504C417.326 497.885 421.889 486.79 420.292 481C418.318 473.838 407.178 464.411 402 459M396 449L400 455M136 460L132 468M279 465L283 473M216 500C228.625 512.739 235.552 527.067 254 532M341 511L372 501C373.44 507.644 372.241 513.607 375.974 519.985C381.19 528.898 399.786 538.597 409 532L405 528L400 533M258 502C266.193 502.375 272.311 507.327 280 509.481C294.21 513.461 309.284 515 324 515M416 517C420.674 513.821 425.416 509.38 431 507.975C437.454 506.352 443.673 509.258 450 509.921C472.835 512.316 492.103 519.179 514 525.576C523.7 528.409 536.608 526.461 545 532C529.687 551.568 514.692 586.395 523 611M276 509C279.384 523.407 292.094 544.631 306 550.8C312.897 553.86 319.804 552.972 327 554M342 512C345.358 523.412 357.76 540.984 371 537C363.871 556.613 346.544 570.89 329 581M328 517C337.32 527.772 347.468 543.752 350 558L329 554M410 522L405 528M376 523C374.739 532.978 374.131 547.292 377 557L397 535M392 529L403 530M545 532C564.419 528.726 547.281 549.726 546 560L554 561L549 579L551 567M372 536L387 530M622 603C622.947 598.856 623.534 593.87 626.147 590.424C629.784 585.631 638.768 579.903 638.342 573.093C637.849 565.222 618.888 558.284 613 555C620.749 552.709 629.192 553.866 637 551.059C648.47 546.937 656.448 535.92 668 532.637C679.711 529.309 686.455 534.641 686 546C690.481 546 697.206 544.633 699.954 549.083C702.439 553.109 700.049 563.378 705 564M520 597C509.636 582.257 520.829 567.103 528.214 554C531.363 548.415 534.118 541.048 540 538M554 561L558 555C567.93 563.557 573.779 576.972 575.699 590C576.539 595.7 575.352 601.426 577 607C583.057 598.104 588.032 581.057 583.008 571C577.504 559.985 567.497 553.723 563 542C593.228 534.446 601 572.074 601 594M558 547L559 554M685 547L678.688 575L672 592C675.157 588.996 676.375 586.368 676 582M156 718C151.789 715.542 141.99 712.857 140.302 707.895C138.997 704.055 143.744 698.325 145.318 695C151.762 681.387 160.046 669.918 169.13 658C183.675 638.92 202.185 622.741 220 606.834C244.909 584.594 269.518 563.717 299 548M301 549C299.522 559.974 295.397 571.862 296.184 583C298.145 610.72 323.09 642.034 349 652L349 605C343.447 606.269 329.173 605.166 325.358 608.603C322.198 611.45 324.716 616.213 326.648 619C332.709 627.746 339.496 636.539 346 645M605 552L613 555M386 554C386.096 564.624 393.504 569.525 387 580L387 565M463 565L481 554C492.607 572.232 491.377 591.246 494 612L493 613C490.175 612.157 486.825 612.323 484.148 611.106C475.295 607.083 486.043 595.425 485.812 590.134C485.656 586.563 479.636 585.565 478.394 581.945C476.285 575.797 477.312 569.857 469.999 567.134C459.555 563.243 455.248 571.088 450.004 579C441.294 592.14 431.026 604.082 434.228 620.981C435.532 627.862 444.254 627.05 448.985 630.569C457.385 636.815 460.204 647.79 468.17 654.467C474.723 659.959 482.503 657.661 490 656.014C502.243 653.325 515.461 649.256 528 652.015C544.939 655.743 560.059 668.464 575 676.688C599.946 690.419 624.708 699.405 653 703C651.332 716.197 654.633 714.896 664 722.124C666.261 723.869 670.335 728.749 673.61 727.658C677.632 726.318 683.286 714.627 686 711C692.382 715.265 700.564 716.322 708 717.8C727.617 721.7 755.48 726.77 775 721C764.484 708.275 742.435 706 727 706M350 604C360.365 601.855 379.439 600.067 386 591L401 583.656L429 564.004L443 557.078L458 566M594 557C611.051 559.554 624.948 571.05 625 589M350 558L354 563M376 558C369.708 565.803 360.232 575.885 351 580M546 560C536.232 573.335 536.22 585.304 540 601M376 562L370 595L354 579M704 565C695.237 581.15 703.339 604.11 700.857 622C699.639 630.775 693.244 639.308 690.924 648C685.852 666.996 684.998 684.665 685 704L654 702M489 568L510 568M505 571C500.45 576.868 499.862 578.54 504 585L488 588L490 583M550 571L552 573M549 579L549 582M334 581L354 587L349 603M387 581L386 591M671 593L668 598M370 595L370 598M384 595L384 599M699 595C697.035 603.268 691.81 610.272 688.425 618C676.374 645.516 660.982 672.523 654 702M238 607C231.413 632.394 235.32 669.131 246.473 693C253.205 707.407 264.951 718.965 276 730C284.372 738.362 293.449 745.354 304 750.755C306.724 752.15 311.505 756.083 314.722 754.748C320.538 752.334 321.644 737.933 325.499 733.058C328.887 728.773 335.01 728.878 338.262 724.725C342.469 719.351 343.411 710.15 346.876 704C356.713 686.54 377.762 661.807 398 657C398.467 661.62 396.524 665.464 396.104 670C394.745 684.665 395.711 693.715 384.738 705.826C379.148 711.997 370.273 715.223 365.564 722.015C361.943 727.237 361.664 737.626 369.019 739.732C376.641 741.915 388.294 737.502 392.445 730.74C393.958 728.276 396.057 716.983 400 719M577 607L571 636M235 619C216.546 645.124 226.456 669.658 245 692M702 627C703.135 636.231 697.728 642.351 695.205 651C692.212 661.261 691.832 672.439 690.424 683C689.841 687.376 686.557 699.768 690.603 702.972C692.92 704.807 697.26 703.919 700 704.039C708.365 704.406 716.586 705 725 705M349 652C357.327 660.899 358.91 671.097 363 682M398 683C411.28 683.01 406.613 691.994 410 702C426.568 695.656 443.631 691.026 461 687.551C469.081 685.934 477.373 683.342 484.999 688.005C488.804 690.332 491.467 693.408 491.212 698C491.048 700.954 488.482 707.704 492.319 709.195C503.702 713.619 518.482 708.457 530 714C521.839 718.711 511.707 718.951 503 722.453C487.457 728.705 471.116 739.437 459 751C464.515 751.437 470.297 747.97 476 747.286C488.06 745.839 500.834 745.923 513 745.089C534.553 743.613 555.73 746.671 577 749.575C599.149 752.598 617.076 754.25 637 766C628.5 778.599 611.079 796.314 617 813C624.648 804.575 625.477 789.835 631.691 780C639.731 767.276 650.343 763.985 662 756M362 686C362 696.445 359.557 702.789 355 712C363.597 711.638 372.622 705.655 381 710M398 688L404 711L408 709C408 714.938 410.767 724.333 408.397 729.787C406.115 735.036 397.296 737.237 393 734M160 771C144.831 766.558 134.092 782.096 123 789.343C116.519 793.577 107.141 795.191 100 798.551C83.3765 806.372 67.9924 815.096 52 824C53.2105 812.182 61.4946 799.517 66.7531 789C79.7049 763.096 93.2118 736.451 113.09 715C121.6 705.817 132.798 693.161 146 692M410 702L410 707C415.543 705.162 421.26 706.394 427 705.714C444.029 703.698 465.991 700.407 481 711C466.484 720.922 443.991 735.445 446.988 757C448.154 765.393 462.161 779.85 456.922 788.682C451.747 797.407 445.365 783.545 447 778L456 783M402 704L407 703M689 703L686 711M387 707L401 705M410 707L408 709M139 710C137.778 713.294 134.086 722.356 139 723M481 711L489 710M403 712L402 718M354 713C350.102 718.42 344.682 730.978 337 727M428 714C433.898 725.064 433.21 752.624 446 757M531 714L562 720.57L593 735M400 716L402 715M348 720L349 718M159 719L206 734M263 719L260.704 747L255.867 755.749L241 748.228L210 735M341 723L347 719M400 719L397 724M775 721L778 721M434 742C432.638 755.699 436.795 767.582 440 781M354 751C350.265 756.553 350.8 760.413 344 763L349 765L344 782L342 768L334 772C331.185 762.634 332.947 748.736 344 746.255C352.325 744.386 352.396 751.436 359.019 751.788C373.971 752.581 392.267 758.08 406.91 756.702C414.959 755.945 424.364 752.178 433 751M433 751L438 752M459 752L449 760M346 761L351 754M440 756C440.732 761.8 441.166 765.831 438 771M718 777C740.833 783.976 763.98 761.136 786 756.666C799.456 753.934 813.503 760.998 816 775C789.412 773.051 791.938 805.937 795.25 825C796.317 831.142 797.063 841.411 802.264 845.623C809.111 851.169 816.398 834.619 818.189 830C824.468 813.81 822.836 791.008 816 775M358 757L351 760M409 757C421.604 764.422 418.646 780.353 426 793C408.101 800.309 404.636 768.343 407 758M655 762C652.195 770.912 646.987 785.688 648.698 795C650.464 804.608 655.904 814.642 663.015 821.166C665.092 823.071 668.499 827.431 671.775 826.539C675.143 825.621 677.795 817.691 680 815L680.043 847L686 868C679.704 865.194 675.787 859.525 670 856.005C664.188 852.47 656.554 852.897 651 849.309C636.516 839.952 630.003 823.97 620 811M335 768L343 767M593 1037C593 1054.33 597.38 1066.11 616 1070.21C620.686 1071.24 629.88 1074.07 632.972 1068.85C634.988 1065.45 633.717 1060.56 632.87 1057C630.539 1047.21 626.404 1038.87 615 1038.46C608.825 1038.23 598.801 1041.22 593.719 1036.15C589.074 1031.51 592.479 1014.8 593.666 1009C597.976 987.942 610.165 974.261 627 961.759C634.023 956.544 642.605 952.914 648.961 946.896C662.483 934.092 670.766 915.352 681 900L692 919C696.359 913.752 706.714 903.395 705.141 896C702.938 885.639 689.256 881.532 689.894 870C690.947 850.981 703.957 830.875 700.066 812C699.013 806.894 697.404 801.286 694.362 797C689.637 790.343 675.6 780.833 682.229 771.279C692.718 756.162 716.649 782.169 724 788C723.837 784.303 722.665 782.66 719 782M156 945C159.014 922.617 172.596 902.956 186.754 886C212.73 854.892 243.913 830.162 276 805.869C292.62 793.286 311.442 775.668 332 770M333 772L281 804M672 773C672.152 780.42 672.097 782.422 667 788C678.236 795.695 685.391 807.661 687 821M333 774C335.469 787.81 336.941 806.249 348.414 816.301C353.241 820.53 361.888 821.997 368 823.196C373.893 824.352 379.5 825.932 385 823L352.228 812.772L346 799L344 809M631 787C636.438 781.1 643.638 773.649 652.787 777.603C657.115 779.474 661.506 785.292 666 788M819 777C831.487 788.578 827.771 814.668 826.05 830C825.453 835.316 825.254 841.048 823.099 846C818.163 857.34 807.743 873.102 811 886C816.828 880.991 821.604 870.288 824 863M721 779L721 781M344 783L346 798M661 784L669 783M722 783L720 785M660 786C661.188 790.017 667.563 794.739 663 798M447 788L445.972 814.491L433 817.263L405 826C409.725 828.509 432.196 828.207 435.833 823.401C437.983 820.559 436.827 815.352 437.515 812C438.909 805.199 441.447 797.948 445 792M726 789C729.646 801.784 735.256 817.085 725.196 828.742C721.976 832.472 715.823 834.262 712 838C716.91 838.905 719.539 836.271 723 833M126 790C145.595 793.802 160.446 809.033 178 817.731C190.749 824.047 204.901 824.058 218 829C208.94 841.194 184.591 849.709 171.015 841.005C164.384 836.754 164.461 828.685 159.585 823.134C151.795 814.265 135.537 819.711 127 824.309C99.4661 839.139 82.2161 874.373 67.7693 901C61.6673 912.247 52.28 934.833 38.0046 937.383C31.6564 938.518 31.6773 931.373 32.3002 927C33.9133 915.673 38.6765 904.504 43.0108 894C52.484 871.041 63.931 848.99 80.1343 830.001C92.0369 816.051 106.789 804.644 120 792M628 791L625 799M574 867C573.443 859.635 566.692 856.559 562.579 850.985C551.837 836.426 536.778 822.753 531.439 805C526.451 788.415 551.814 791.807 558.567 801.001C561.996 805.669 559.768 809.043 560.657 814C561.194 816.995 563.789 819.11 564.632 822C565.595 825.301 564.291 828.57 565.348 832C566.219 834.826 566.542 840.909 570.109 841.677C582.206 844.284 592.254 824.331 606 829C598.966 845.97 585.129 855.044 574.728 869.286C568.824 877.37 564.165 892.052 563.171 902C562.39 909.808 562.139 919.808 565.684 927C568.874 933.472 574.712 938.078 577.211 945C579.771 952.09 579.999 960.545 580 968M554 793C557.964 794.15 559.597 795.833 559 800M497 813L529 797M437 824C464.023 821.864 489.701 804.335 516 798M666 798C671.41 802.762 678.039 807.806 680 815M628 799L628 811L645 804M617 813C612.609 816.344 604.461 816.899 599 817.927C593.224 819.014 587.247 819.425 582.039 822.413C579.896 823.643 576.986 827.552 574.279 827.079C569.656 826.272 572.613 810.935 574.318 808.318C576.194 805.438 581.043 805.683 584 804.497C597.632 799.03 603.701 798.827 614 810M623 805L622 812M290 811L310.344 845L348.029 902L364 944C366.933 938.016 363.209 931.531 364.514 925C368.719 903.953 374.857 890.711 389.682 875.406C392.951 872.031 392.145 866.931 390.351 863C381.042 842.596 350.769 844.038 348 817M628 811L624 813M622 813L618 816M628 813L628 823M564 827L560 823L560 837C551.474 832.928 548.778 817.725 559 814M618 816L619 823M560 817L560 823M683 817L686 818M660 819L660 825M593 820L578 827M386 824L405 826M51 825L32 871M437 826L438.949 848.83L454 863.004L468 875C461.835 861.814 451.201 851.891 440 843M565 826L565 831M724 830L726 827M299 828L301 834M573 828L573 838M522 890C516.633 882.675 512.024 874.765 505.924 868C500.397 861.871 490.026 852.284 488.308 844C486.372 834.667 498.699 829.494 505.941 833.457C513.884 837.804 511.362 855.373 513.85 863C515.854 869.14 520.645 874.066 523.2 880C524.94 884.043 524.319 886.438 522 890M561 838L566 842M1082 838C1051.65 855.717 1035.05 879.253 1014.25 907C1007.59 915.892 995.035 924.768 993 936C996.746 933.943 998.437 931.273 998 927M562 840L564 846L565 843M563 846L563 849M247 848C250.982 849.503 256.44 849.931 259.752 852.664C262.964 855.314 264.125 859.681 267.432 862.374C288.154 879.252 306.738 895.39 314.975 922C320.894 941.122 320.46 962.456 328.118 981C341.343 1013.02 363.904 1034.97 388 1059C377.953 1068.17 364.222 1081.6 351 1085.56C342.458 1088.12 333.423 1085.51 325 1088C334.382 1101.28 353.885 1118.61 369 1125C376.106 1109.81 383.059 1094.07 392.294 1080C394.312 1076.93 401.989 1068.24 399.212 1064.49C395.157 1059.02 395.308 1069.22 397 1072M392 874C401.71 870.69 405.716 859.619 413.171 853.314C419.04 848.35 429.699 848.001 437 848M254 852L262 857M655 853L677 873.714L686.218 885L682 897C676.249 889.66 675.531 882.937 675 874M1083 857L1047.83 903.999L1029.21 916.991L1014 935M268 864C271.109 882.066 281.854 895.411 291.975 910C301.557 923.812 310.274 938.34 320 952M539 866C549.097 879.718 559.014 873.895 573 871M687 869L689 869M547 872L555 876C548.202 883.666 530.883 904.408 522 891C515.569 900.711 507.323 909.473 502.32 920C497.263 930.641 493.878 945.659 486.362 954.7C478.906 963.668 464.15 965.49 457.738 974.21C452.035 981.967 460.89 993.391 452.852 1000.58C444.449 1008.1 430.718 1005.89 421 1003.14C394.36 995.598 372.641 969.623 364 944M822 872C822 888.075 819.592 903.353 824.749 919C830.825 937.435 851.461 939.914 868 942.271C889.59 945.347 908.681 938.879 930 938.04C937.359 937.75 944.024 942.156 950.961 942.002C954.338 941.928 956.813 938.666 960.015 937.708C970.645 934.525 978.835 937.488 988 943L993 936M468 875C476.126 886.878 477.298 904.382 481 918M192 879L194 877M391 877C388.223 884.402 387.647 892.453 385.38 900C381.327 913.497 377 923.553 377 938M468 877L469 878M98 1019L54 1035C59.68 1008.42 83.9554 986.356 96.7701 963C99.5513 957.931 108.124 941.411 115.697 943.737C122.814 945.923 120.352 966.425 122 972C129.101 962.057 130.01 951.255 135.873 941C148.66 918.633 169.906 892.859 191 878M469 879L470 880M334 884C344.335 928.671 337.269 979.753 360.654 1021C367.408 1032.91 379.571 1051.23 393.039 1056.34C397.22 1057.93 401.388 1053.89 406 1055L401 1065M472 885C464.882 894.339 473.045 905.636 479 914M812 886L811.204 905L813.935 945L814.829 980L805 1062M457 969C443.958 953.235 438.537 933.852 437.914 914C437.727 908.017 437.235 897.284 441.728 892.564C445.795 888.291 455.805 889.253 459.61 893.228C465.888 899.789 470.681 915.019 469.823 924C468.26 940.356 458.607 955.971 457 972M682 897L682 900M810 901L811 906M809 904C803.34 914.443 796.512 936.988 812 939M989 905C981.407 912.546 991.5 921.454 997 927M958 936C965.581 925.413 970.941 911.226 985 908M623 967C638.464 962.547 659.209 955.372 671.787 945.096C679.039 939.171 686.661 927.816 692 920C706.22 931.588 717.16 957.456 738.996 956.798C744.536 956.631 748.178 950.759 752.001 947.424C763.176 937.678 783.759 921.288 798.393 937.56C801.706 941.244 798.048 949.675 797.428 954C795.821 965.221 792.535 984.76 798 995C805.503 986.197 810.446 976.529 812 965M441 936C444.646 928.481 445.129 925.479 454 923.502C456.257 923 460.375 921.412 461.712 924.333C463.592 928.437 456.905 942.332 452 941M1013 937C1009.1 943.588 1003.68 954.64 996 957C997.601 963.171 1001.81 973.732 998.077 979.714C995.062 984.549 988.118 985.89 987.148 992.005C981.311 1028.82 977 1065.64 977 1103M377 941L384 974M954 942C967.226 952.23 977.499 961.436 986 976L999 976M452 943L449 954M367 944L367 947M989 944L995 956M1083 944L1077 947M962 945C971.659 947.761 978.219 952.69 980 963M1072 947L1075 947M113 1017C113.225 1023.29 110.601 1027.79 106 1032C104.315 1025.54 108.319 1019.25 113 1015L110 1011C127.535 992.109 138.075 963.183 163 951.328C173.534 946.318 184.527 948.88 195 952.695C218.286 961.178 241.526 977.775 256.999 997C261.982 1003.19 269.708 1010.49 272.492 1018C278.578 1034.43 273.512 1051.22 284.591 1067C289.638 1074.19 295.483 1080.42 304 1083.25C310.826 1085.52 319.288 1084.76 325 1089M1001 977L1044 963.03L1069 948M963 950C965.508 964.812 969.072 985.383 987 989M1001 958L1039 963M1045 963C1056.31 969.038 1071.71 961.017 1083 958M122 973C118.478 981.277 109.314 994.593 115 1003M580 973L579 983M609 976L611 974M115 1021L125 1010C123.001 1021.08 109.826 1032.42 113 1044C121.677 1028.16 131.848 1013.22 141.586 998C146.694 990.019 152.409 979.494 161 975M439 1058C466.156 1068.76 470.202 1094.9 483.274 1118C488.188 1126.68 496.983 1134.04 504.285 1140.67C519.244 1154.24 531.051 1164.18 552 1167C552.104 1159.53 548.753 1152.26 547.211 1145C545.085 1135 544.486 1124.19 544.039 1114C541.736 1061.39 562.64 1005 608 975M986 976L988 986M379 981L387 987L387 984M125 1117L123 1124C121.942 1118.87 124.94 1117.31 126.755 1112.92C129.937 1105.23 132.128 1096.88 134.831 1089C145.167 1058.86 157.884 1024.71 181.001 1002.01C187.702 995.435 195.092 987.855 204 984.336C209.928 981.995 218.245 980.49 223.985 984.009C233.064 989.576 239.717 1004.04 252 993M327 982L328 985M119 984L117 999M254 993C258.963 989.816 271.572 981.195 276 988M579 986L578 1000M329 988L333 999M386 988C393.796 999.405 409.44 1009.26 413 1023C403.158 1019.39 394.347 1009.26 392 999M275 991L272 1015M115 999L115 1000M335 1002L339 1007M116 1006L114 1010M578 1006C578.102 1018.36 581.29 1028.07 591 1036M126 1009L125 1010M114 1010L113 1013M109 1016C106.422 1013.46 104.232 1017.72 102.671 1020C98.5937 1025.97 95.6875 1034.6 90.5293 1039.61C87.4286 1042.62 82.4795 1042.8 79 1045.42C70.0649 1052.14 61.1773 1060.47 53.0394 1068.17C41.072 1079.49 32.3864 1094.1 21 1106L30 1079L1 1117M275 1021C289.611 1041.4 302.373 1066.22 320 1084M102 1142L101 1146C99.8748 1139.25 107.454 1125.36 109.371 1118C115.957 1092.7 124.483 1067.87 137.284 1045C141.774 1036.98 145.209 1026.13 154 1022M114 1026L113 1033M113 1201C109.654 1219.02 116.105 1242.16 109 1259C105.902 1248.52 107.883 1234.78 108.833 1224C111.799 1190.33 123.013 1157.47 140.452 1128C146.948 1117.02 157.573 1107.57 162.63 1096.04C169.878 1079.52 177.152 1062.91 185.665 1047C188.815 1041.11 191.595 1032.76 198 1030L200 1033M44 1060L43 1062C52.6528 1052.14 79.6583 1016.45 92 1038M359 1031L360 1032M103 1033L107 1032M102 1034L105 1035M54 1035C48.8025 1041.34 44.4393 1050.9 43 1059M89 1037L90 1040M101 1037C91.9872 1056.3 82.2639 1080.4 68 1096L71 1095M183 1037C154.001 1065.92 135.174 1102.06 125.127 1142C122.514 1152.39 118.229 1163.23 118 1174M200 1037L200 1038M1 1069C14.3196 1056.84 33.5061 1043.14 51 1038M246 1038L251 1039M242 1039L241 1040M88 1040L88 1041M239 1041L232 1048M89 1042L70 1093M112 1044L108 1050L110 1047M180 1044L179 1046M253 1046L253 1047M393 1055C397.829 1041.23 418.425 1050 429 1053M178 1048L178 1049M230 1049C212.474 1066.39 201.084 1084.22 187 1104C183.001 1089.45 199.72 1078.43 200 1065L165 1095M253 1049L253 1055M1083 1062C1067.32 1067.32 1048.21 1070.49 1032 1065C1046.24 1054.32 1065.44 1050.15 1083 1050M108 1052L91.7022 1090.97L87 1103C98.6012 1091.37 102.311 1079.88 105 1064M123 1055L123 1056M432 1055L435 1056M252 1058L252 1059M122 1059L121 1062M388 1059L395 1063M396 1059L397 1061M107 1061L106 1063M42 1062L31 1080M201 1066L206 1062M251 1063L251 1064M386 1063L388 1082M120 1064L120 1065M806 1065C807.202 1070.07 809.339 1074.46 811.867 1079C814.24 1083.26 815.866 1088.05 818.789 1091.98C832.646 1110.61 849.822 1078.82 864 1082.69C879.16 1086.83 880.497 1104.69 893.001 1110.35C902.034 1114.44 912.615 1109.47 921 1106.01C939.365 1098.43 957.014 1090.41 975 1082M983 1193C982.998 1172.88 981.196 1151.01 978.95 1131C978.286 1125.08 975.026 1111.31 978.618 1106.3C985.713 1096.42 1002.73 1094.48 1012 1087C1005.49 1077.2 1023.99 1067.31 1032 1065M267 1066L248 1099L246 1093M1072 1067L1083 1068M991 1076L1016 1068M1061 1068C1049.11 1075.57 1026.19 1087.03 1012 1087M118 1070L117 1074M31 1078L33 1075M116 1076L116 1078M397 1077C402.269 1102.46 414.551 1129.54 433 1148L419 1150L404.688 1129L399.972 1108L389 1088M984 1078L988 1077M982 1079L980 1080M187 1081L187 1083M114 1082L114 1085M186 1086L186 1087M247 1087L247 1088M185 1089L185 1091M1016 1089C1025.94 1094.74 1037.54 1094.03 1048 1098.07C1062.46 1103.66 1072.55 1114.11 1083 1125M112 1090L101 1141M89 1093L89 1095M90 1096L90 1098M184 1096L181 1117L187 1104M68 1098C65.3281 1106.21 62.596 1117.55 64 1126L87 1103M248 1100L248 1109M127 1103L127 1105M87 1105L84 1117M20 1106L1 1130M159 1106C151.623 1120.06 142.735 1147.12 145 1163M126 1107L125 1111M246 1107L230.343 1142L226.893 1156L236 1169M976 1107C964.575 1116.07 947.211 1132.89 944.275 1148C941.566 1161.94 953.44 1180.92 962.004 1191C965.332 1194.92 971.068 1206.3 976.028 1207.65C981.922 1209.27 982.715 1198.58 983 1195M155 1108L157 1110M186 1110C196.496 1127.94 203.856 1147.66 226 1155M82 1111L81 1112M249 1111C253.069 1117.5 258.174 1121.62 265 1125M81 1112C77.237 1129.99 69.6956 1146.47 67.2894 1165C62.9921 1198.08 67.6058 1228.37 72 1261M124 1113L124 1116M244 1115L235 1163M1 1209C21.1735 1188.81 31.0484 1162.23 46.9753 1139C51.6158 1132.23 55.6833 1119.8 63 1116L63 1120M180 1118C177.705 1141.05 161.894 1164.96 169 1189L177 1137M83 1119L70.2855 1178L67 1221M1 1123L6 1121M64 1121L67 1124M123 1125C116.604 1139.87 114.083 1160.87 112.975 1177C112.624 1182.11 110.727 1186.96 112 1192M369 1125L415 1151C404.599 1158.43 386.876 1165.26 374.001 1160.26C361.921 1155.56 364.596 1134.81 370 1126M268 1126L271 1128M66 1127C65.9809 1155.86 56.6654 1194.73 33.8302 1214.48C29.1474 1218.53 24.2457 1218.02 19 1220.42C12.5352 1223.37 6.90406 1229.02 1 1233M275 1130L276 1130M278 1131C284.448 1137.59 289.83 1145.29 293 1154C263.169 1169.48 251.026 1209.8 224 1229M101 1147C92.8256 1171.15 87.5708 1209.15 94 1234M433 1149C450.583 1163.27 474.294 1181.92 498 1183M419 1150L419 1152L415 1151M420 1153L430 1159M293 1154L295 1157M225 1158C221.981 1180.42 212.696 1205.04 230 1224M143 1161L145 1216M142 1165C141.12 1176.16 136.88 1190.47 142 1201M169 1189L168 1194L169 1190M674 1193L675 1193M168 1194L166 1229M109 1259L110 1266M442 1345L448.431 1376L445 1429M443 1354C440.642 1358.4 440.621 1363.39 438.663 1368C435.65 1375.09 429.79 1383.28 428.97 1391C428.446 1395.93 428.019 1403.36 434 1404L437 1425M509 1376C508.46 1373.16 514.757 1371.17 517 1370.08C526.02 1365.72 535.603 1362.27 545 1358.81C571.957 1348.88 601.722 1360.89 627 1369.84C633.807 1372.24 651.707 1378.41 653.681 1386.04C655.892 1394.59 645.632 1403.85 641 1410C647.247 1413.88 653.574 1415.56 657.968 1422.09C659.659 1424.6 659.482 1431.28 663.004 1431.94C666.812 1432.65 667.57 1424.4 667.826 1422C669.209 1409.09 658.411 1405.98 655 1395M384 1369L376 1373C374.001 1365.65 378.431 1359.92 385 1357L385.117 1368.4L399 1372.07L428 1390M576 1357L559 1361.1L509 1376M592 1359L598 1359M599 1362L602 1361M622 1369C626.078 1377.67 636.613 1382.32 645 1386C642.028 1393.17 638.85 1402.69 634.362 1409C630.776 1414.04 623.674 1417.69 622.344 1424.01C620.151 1434.45 629.643 1450.37 620 1457L624 1461L626 1456M375 1372C369.866 1385.93 373.151 1404.34 377.671 1418C378.617 1420.86 386.189 1436.79 390.867 1429.42C393.055 1425.97 386.871 1415.71 385.77 1412C381.959 1399.15 381.593 1385.22 383 1372M312 1400L373 1374M449 1374L462 1379C459.926 1387.01 462.164 1401.98 451 1400M483 1389L507 1376M338 1387L373 1402M656 1394C668.912 1390.66 674.716 1394.11 682 1405C697.075 1392.66 706.466 1420.49 707.826 1433C709.427 1447.73 704.375 1466.61 690.999 1474.85C686.287 1477.76 680.174 1478.1 675 1480L673 1473C654.024 1481.79 656.053 1500.22 645 1515C624.867 1502.84 612.861 1513.48 592 1516.7C548.523 1523.43 505.65 1533.06 462 1540L462 1524C451.656 1533.56 461.644 1546.37 473 1548C472.808 1552.2 470.52 1556.9 471.539 1561C473.606 1569.32 484.263 1582.71 479.073 1591.81C472.82 1602.78 452.239 1600.97 442 1604C453.642 1611.68 473.03 1604.18 481 1594M431 1395L435 1403C439.952 1400.74 442.615 1400.6 447 1404M373 1403C367.497 1410.82 366.56 1421.63 365.918 1431C363.986 1459.21 373.416 1486.54 386.826 1511C391.742 1519.97 397.739 1530.79 406 1537C409.182 1526.26 411.45 1512.23 412.478 1501.02C412.768 1497.85 410.062 1494.04 406.509 1496.12C398.581 1500.76 402.224 1521.48 400 1529M431 1405C429.16 1410.63 431.59 1416.4 435 1421M682 1406C688.104 1416.74 690.909 1432.21 685.776 1443.99C683.322 1449.62 678.006 1453.05 676 1459L680 1454M388 1585C366.299 1569.58 343.854 1549.91 329.627 1526.96C321.96 1514.6 317.187 1500.42 311.8 1487C305.923 1472.35 298.195 1455.19 301.515 1439C304.304 1425.4 317.099 1418.21 324 1407C333.185 1416.09 335.06 1432.38 339.861 1444C349.326 1466.9 360.814 1490.16 374.239 1511C379.192 1518.69 385.414 1526.59 392.039 1532.91C394.774 1535.51 398.3 1538.78 401 1535M393 1430L409 1424.76L429 1407M641 1411C634.372 1419.96 635.809 1430.61 634.327 1441C633.699 1445.4 629.225 1451.03 635 1453M653 1413L661 1413L660 1422M386 1432C385.612 1437.17 392.585 1439.44 397 1440.7C408.63 1444.01 422.082 1439.69 434 1440.19C450.459 1440.9 477.587 1444.38 493 1438.14C503.756 1433.79 506.718 1420.54 516.015 1414.86C520.112 1412.35 525.406 1412.99 530 1413C543.138 1413.02 559.454 1415.5 571 1422C563.271 1430.08 547.358 1445.2 546.679 1457C546.26 1464.28 555.468 1483.79 563.957 1483.79C567.72 1483.79 571.633 1476.49 574 1474C576.677 1479.56 578.326 1489.84 576.682 1495.96C575.639 1499.84 570.792 1501.69 567.858 1498.43C564.747 1494.97 566.858 1489.09 565 1485M214 1538C221.123 1534.78 228.845 1539.76 233.714 1545.04C244.326 1556.55 248.547 1569.9 256.4 1583C259.718 1588.53 266.287 1596.22 265.823 1603C265.472 1608.11 260.978 1613.6 256.985 1616.49C252.384 1619.82 246.025 1620.26 241 1623C231.468 1628.18 222.928 1635.72 213 1640C218.285 1610.26 251.648 1566.79 217.999 1541.86C213.263 1538.36 208.388 1534.7 203 1532.25C192.586 1527.51 181.657 1527.24 171 1524C174.201 1515.27 181.188 1507.7 186.333 1500C203.407 1474.45 227.082 1447.27 253 1430.66C261.078 1425.48 270.951 1421.23 280 1418.01C282.577 1417.1 287.769 1414.38 290.397 1416.12C294.979 1419.16 291.619 1437.75 292.439 1443C295.396 1461.94 304.901 1485.41 316 1501M645 1423L659 1432L657 1451C666.853 1454.75 666 1440.03 666 1434M566 1484C556.532 1468.77 557.99 1454.02 566.312 1439C568.399 1435.23 576.463 1422.36 582.397 1426.13C584.972 1427.77 583.583 1432.53 583.753 1435C584.16 1440.89 586.312 1445.1 583.775 1451C581.836 1455.51 577.228 1458.42 575.607 1463C574.345 1466.57 575.982 1470.35 575 1474M648 1427L642.17 1474L641 1505C623.421 1492.61 632.069 1477.75 625 1461M382 1433L383 1434M652 1452L657 1451M631 1452L627 1455M599 1455L619 1456M424 1593C429.405 1594.07 432.818 1595.21 434 1601C399.582 1592.91 411.743 1543.15 417.011 1520C418.326 1514.22 421.041 1508 421.338 1502.06C421.593 1496.95 414.474 1498.13 414.613 1492.95C414.839 1484.5 422.904 1464.53 431.039 1460.99C437.237 1458.3 446.277 1468.09 449.83 1472C460.947 1484.25 479.826 1511.1 471 1528C469.403 1523.75 465.785 1518.19 462 1524M675 1460L675 1467L678 1460M579 1508L596.866 1500.79L624 1461M674 1468L673 1473M577 1472L596 1471.91L603.397 1471.79L604 1484M589 1503L600 1493M316 1502L318 1504M460 1505L462 1520M463 1509L473 1521M447 1520C447.007 1531.18 452.266 1565.8 468 1547M474 1520L481 1535M471 1522L472 1522M171 1524C165.921 1530.99 158.562 1542.04 161 1551C173.716 1545.6 189.136 1539.1 203 1538M50 1690C43.8881 1669.32 55.236 1648.2 65.1281 1631C82.6778 1600.49 100.863 1563.61 130 1542.86C141.943 1534.35 153.946 1526.65 169 1526M471 1528L471 1537M474 1528L474 1536M332 1531L333 1535M333 1535C337.584 1553.14 364.916 1584.11 385 1584M206 1537L208 1536M482 1537C484.587 1548.18 495.85 1562.42 493.022 1574C491.502 1580.22 486.084 1585.32 482 1590M407 1538L408 1543L401 1539M473 1539L474 1547M462 1540L460 1543M401 1542C402.581 1554.51 403.478 1567.34 411 1578M412 1546C421.313 1545.24 433.574 1538.43 438 1550L450 1545M452 1544L459 1544M409 1544L410 1544M459 1544L458 1551M435 1602L442 1604M213 1640C207.369 1646.03 204.086 1653.71 198.7 1660C178.441 1683.67 154.992 1704.93 126 1717C122.506 1705.15 130.724 1692.88 139.004 1685.09C158.009 1667.2 184.608 1657.79 207 1645" transform="translate(-577.122,-226.816) scale(1.26084,0.416235)"/></svg>