<svg xmlns="http://www.w3.org/2000/svg" xmlns:svg="http://www.w3.org/2000/svg" xmlns:sodipodi="http://sodipodi.sourceforge.net/DTD/sodipodi-0.dtd" xmlns:inkscape="http://www.inkscape.org/namespaces/inkscape" xmlns:xlink="http://www.w3.org/1999/xlink" width="210mm" height="297mm" viewBox="0 0 210 297">
  <sodipodi:namedview/><g inkscape:label="Ebene 1" inkscape:groupmode="layer" id="layer1">
    </g>
<path style="fill:none;stroke:#000000;stroke-linecap:round;stroke-width:5.0" d="M163 559C169.335 547.948 167.842 534.231 169.285 522C175.66 467.978 153.262 419.683 127.127 374C121.006 363.299 112.636 352.767 103.985 344.004C100.698 340.674 92.9463 336.232 92.9321 330.999C92.9128 323.899 102.38 312.936 106.064 307C119.04 286.094 136.269 267.534 146.536 245C152.476 231.963 161.015 215.74 157.239 201C154.072 188.637 139.443 177.155 142.76 164C150.772 132.231 183.039 115.251 211 105.302C238.989 95.342 258.963 86.8013 282.715 111.17C297.282 126.116 290.708 144.635 287 163C285.378 171.032 282.611 176.968 286 185C291.525 182.813 297.943 179.485 304 179.59C314.518 179.773 327.356 187.6 336 192.935C355.009 204.666 372.432 215.606 389.039 230.718C398.462 239.293 408.256 248.828 412.935 261C421.071 282.165 414.172 306.098 422 327L435 316C434.548 326.372 431.455 341.136 426 350L420 330C410.416 336.75 414.96 355.717 413.424 367C412.949 370.487 413.451 377.724 409.686 379.548C403.365 382.609 390.03 380 383 380C371.987 380 360.927 381.884 350 381.701C338.295 381.506 322.521 377.822 311 380.206C305.629 381.318 300.648 388.18 297.09 392C286.415 403.46 272.237 416.031 265 430C275.087 432.989 284.32 433.916 285 447C270.459 447 253.077 454.8 239 459C244.812 467.228 263.836 485.245 274.61 475.427C281.255 469.371 282.879 456.139 286 448M329 155L303 162C306.905 154.796 314.986 149.235 322 145.232C323.988 144.098 328.907 140.914 330.879 143.644C332.518 145.914 330.229 151.368 330 154C375.392 153.97 427.879 142.278 471 163.439C488.365 171.96 501.53 186.53 515 200C528.328 213.328 545.708 232.177 547.471 252C551.372 295.864 518.78 338.259 528.424 382C532.879 402.202 544.848 412.53 562 423.186C571.296 428.961 582.974 433.624 589.301 443C596.685 453.942 596.076 469.577 594.424 482C589.779 516.951 568.082 541.995 552 572M327 156L315 181M303 162L292 170M168 552L204.439 496.004L222 483C202.605 468.616 206.283 439.984 198.782 419C191.008 397.251 175.864 379.206 168.746 357C156.485 318.75 172.053 275.045 191.603 242C207.702 214.789 221.847 192.131 251 178.37C262.613 172.889 270.527 165.254 283 173M313 183C308.877 194.744 293.544 192.367 286 186M282 199L256.09 222.001L233 254C230.442 252.546 227.898 251.193 225 250.529C198.118 244.374 213.578 285.9 218.782 297C220.772 301.245 224.684 306.17 224.682 311C224.679 321.517 214.826 332.456 212.805 343C209.123 362.207 214.013 388.336 221.88 406C223.792 410.293 223.961 415.958 226.843 419.726C235.636 431.222 252.437 437.8 265 430M285 234C299.704 228.493 318.391 231.898 333 235.849C347.109 239.665 365.563 240.094 377.996 248.133C383.893 251.946 387.9 259.216 391.691 265.004C405.865 286.64 408.117 307.574 414 332M316 234C328.559 244.321 345.729 247.214 361 251.573C367.659 253.473 377.523 254.58 382.667 259.638C387.161 264.057 382.042 274.128 380.308 279C374.585 295.081 367.462 321.374 350 328.517C339.311 332.89 326.701 327.129 317 331C319.838 334.354 323.696 336.584 326.387 340.043C338.383 355.459 320.344 366.108 312 378M234 253L238 257M233 254C231.948 260.114 229.318 265.686 229.039 272C228.535 283.414 231.671 297.018 225 307M386 258L384 260M241 260C246.59 270.474 240.86 288.038 238.349 299C233.541 319.986 226.787 340.798 224.14 362C222.466 375.403 225.803 391.135 222 404M317 331C306.039 328.583 308.169 318.053 301.772 311.108C298.03 307.045 292.512 306.323 289 302C299.239 298.164 317.98 294.653 328 300C320.607 305.637 312.032 304.612 318 316C319.979 314.989 321.938 313.917 324.005 313.09C328.731 311.201 336.621 310.937 331.562 318C328.282 322.579 323.256 325.464 319 329M328 300L339 302M270 302L289 302M438 309L436 315M194 314L221 321M421 328L421 329M301 329L309 330M344 380L375 365.799L413 337M426 350C426.044 362.898 432.798 377.135 437.604 389C439.25 393.064 441.097 399.671 445.133 401.972C448.463 403.871 452.432 402.272 456 402.688C464.725 403.704 489.254 407.957 490.713 419.004C491.76 426.933 479.665 437.209 476.27 444C467.589 461.363 464.217 485.015 460.211 504C458.466 512.268 457.168 521.485 461.97 529C477.412 553.166 502.36 539.67 525 536.428C535.079 534.985 551.694 536.345 555.347 548.001C556.843 552.774 555.101 558.119 555 563M228 358C237.298 375.102 273.16 365 289 365M426 358C423.119 362.639 417.229 374.31 418.788 379.87C420.293 385.237 429.795 384.844 426.702 392.004C422.35 402.077 410.118 406.359 405.893 416.004C401.798 425.351 400.332 437.083 397.576 447C390.699 471.746 383.911 497.47 380.845 523C379.397 535.051 375.584 548.98 378 561M303 377L309 380M410 381C409.169 399.182 394.847 411.524 390 428L404 418M412 381L417 382M416 382L408 410M445 403C446.673 422.163 451.152 437.205 447.576 457C442.646 484.285 428.202 512.426 427 540C436.387 539.259 444.732 536.879 454 540.101C484.167 550.59 494.822 589.786 496.816 618C497.808 632.05 493.049 647.804 488.667 661C478.495 691.628 462.718 723.347 443 749C465.219 772.218 468.501 804.863 484.001 832C487.748 838.56 491.745 844.838 496.111 851C497.326 852.715 500.211 856.03 498.263 858.168C495.087 861.654 477.324 859.335 472 860.735C452.8 865.783 436.897 876.809 419 884.924C413.857 887.255 408.942 892.383 403.004 892.639C391.845 893.12 391.879 875.006 384.614 871.086C380.69 868.969 378.643 874.139 377.904 877.001C376.215 883.541 376.091 892.542 378 899L393 886M1011 919C1013.44 899.774 1019.6 882.09 1026.43 864C1030.41 853.423 1036.93 841.619 1033.04 830C1022.31 797.911 975.479 783.337 945 778.247C913.534 772.992 880.247 750.815 847 759.928C829.425 764.746 817.954 782.912 801 789.032C790.792 792.717 778.648 788.235 769.015 793.442C760.194 798.211 758.581 813.259 755.667 822C748.26 844.22 737.562 865.285 728.799 887C726.242 893.336 717.979 903.368 718.059 910C718.177 919.73 731.347 935.855 737.325 943C746.847 954.382 757.026 959.581 771 963.31C776.592 964.803 789.626 964.139 793.061 969.419C800.544 980.919 789.061 991.814 784.417 1000.02C781.094 1005.89 780.415 1013.44 781.439 1020C782.044 1023.87 788.376 1038.38 785.303 1041.05C783.175 1042.9 778.319 1040.88 776 1040.27C767.849 1038.09 759.952 1035.47 752 1032.7C725.227 1023.36 697.948 1017.96 674 1002C666.994 997.331 653.443 990.721 653.201 981C653.018 973.633 658.716 965.554 661.576 959C667.675 945.02 672.681 930.903 676.113 916C682.419 888.611 684.037 860.535 689.311 833C690.998 824.195 696.818 816.723 698.624 808C700.47 799.089 699.699 790.054 701.898 781C708.593 753.442 721.952 727.594 723.911 699C727.266 649.997 709.656 605.224 701.385 558C697.827 537.686 690.114 517.61 695.238 497C703.925 462.066 736.608 432.256 767 416.219C783.534 407.495 799.151 398.847 813.787 416.001C822.794 426.557 823.856 435.407 814.866 446C810.529 451.11 800.274 458.866 803 466L815 458M818 453C833.6 443.224 849.773 431.524 869 429.184C891.761 426.415 915.448 426.148 937 435.337C955.065 443.04 970.285 459.303 982.869 474C999.577 493.514 1014.59 514.842 1021.24 540C1026.43 559.619 1024.28 579.258 1022.17 599C1020.38 615.644 1020.95 633.154 1014.93 649C1001.49 684.412 963.647 710.344 928 719.522C907.06 724.913 881.642 724.506 867.434 704.999C861.814 697.284 876.344 679.995 861.999 678.905C847.944 677.837 833.073 682.534 819 679.481C808.816 677.273 797.664 671.953 788 667.911C784.495 666.445 780.855 663.093 777.018 662.728C769.295 661.992 767.539 680.534 759.907 672.812C758.837 671.73 757.905 670.201 757 669M390 428C381.137 438.146 370.759 447.446 362.455 458C355 467.476 345.783 481.344 333 483L333 484L336 484M219 432C226.78 435.12 238.854 437.403 247 435M224 435C224 438.297 223.742 441.721 224.109 445C224.566 449.089 227.967 455.167 232.715 455.211C246.843 455.342 258.767 438.871 274 447M821 452C830.204 456.988 840.845 458.618 850 464.548C864.243 473.773 874.704 486.564 890 494.615C898.417 499.045 906.167 503.865 914 509.283C916.672 511.131 921.458 513.206 922.839 516.326C924.684 520.493 918.245 526.021 916 529C930.066 540.455 943.516 556.149 953.958 571C955.952 573.837 964.689 584.678 960.381 587.933C955.745 591.436 945.443 583.604 942 580.985C928.461 570.688 916.309 564.19 901 557.231C894.318 554.193 885.412 553.083 882 546C869.841 550.1 850.284 562.142 845 574M234 456L239 459M334 482C341.136 474.868 351.24 461.739 361 459M801 464L799 468L802 467M798 469C789.749 481.486 773.98 499.117 773.612 514.941C773.432 522.699 792.864 516.297 792.463 529.001C791.691 553.444 781.407 579.265 773.308 602C770.403 610.154 764.817 618.362 763.608 627C762.213 636.971 770.026 651.824 772 662M238 476C251.338 481.484 257.34 495.865 269 504.211C292.127 520.767 315.688 498.756 333 484M261 477L248 478M272 478C284.299 487.135 303.934 492 319 492M229 480L223 483M772 519L760 523L758 521C765.377 509.34 775.224 487.974 788 482M801 671C807.72 654.859 814.613 638.479 822.781 623C826.66 615.647 834.503 606.541 834.852 598C835.135 591.071 829.506 585.819 826.67 580C818.651 563.549 800.993 543.39 801.629 524C801.875 516.49 808.328 509.585 812.651 504C842.575 465.341 889.2 504.325 915 529M346 500C346.143 516.994 361.396 544.958 375 555M346 511L338.75 578L319 662M758 522L756 524M772 522C772 535.387 775.079 549.912 771.405 563C768.834 572.159 762.926 580.178 759.464 589C753.618 603.894 752.172 620.402 754.916 636C756.494 644.971 758.547 666.342 767 671M877 546C872.221 536.865 863.162 534.09 855 529C862.514 524.667 872.625 525.472 881 526.576C883.239 526.87 888.474 526.268 889.759 528.603C891.373 531.534 886.756 538.819 886 542C895.302 540.342 906.334 534.457 914 529M831 527L854 528M427 540C423.883 544.317 423.563 548.938 422.269 554C419.227 565.891 411.521 583.891 415 596C432.038 581.773 449.947 610.047 449.999 626C450.114 661.071 430.737 693.118 424.389 727C422.317 738.059 418.571 755.434 423 766C429.178 757.322 431.584 733.853 443 750M886 542L882 546M331 625C351.096 598.946 374.063 582.481 399.956 563.099C405.495 558.952 403.112 554.27 406.179 549.228C408.994 544.6 419.053 543.431 424 543M820 564C834.749 558.343 848.681 550.54 865 555M837 558C844.049 562.016 842.858 563.703 845 571M415 596C407.249 608.482 396.702 620.781 390.259 634C378.114 658.918 372.689 688.909 367.611 716C364.183 734.287 361.875 752.567 359.424 771C358.318 779.322 359.305 788.535 355 796C349.003 778.285 349.549 756.556 347 738C345.797 729.238 345.698 718.492 337.957 712.638C327.374 704.636 314.037 707.43 302.015 706.682C295.636 706.285 294.324 697.955 293.13 693C289.27 676.979 291.928 665.206 296.211 650C297.377 645.862 296.402 637.376 290.169 638.037C284.872 638.598 279.01 649.063 276.152 653C264.428 669.15 255.077 689.238 251.753 709C242.711 762.752 260.633 813.855 280.396 863C286.29 877.658 287.275 897.113 297.954 909.701C302.298 914.821 318.27 924.51 325 925.133C329.428 925.543 334.069 920.158 338 918.468C350.743 912.988 366.644 909.769 377 900M411 609C410.993 675.322 404.026 741.581 404 808C403.992 829.282 398.496 855.215 403 876C409.092 873.159 425.758 859.567 425.669 852.089C425.63 848.857 421.211 846.228 419.329 843.985C416.113 840.152 414.494 835.872 413.616 831C410.802 815.398 411.415 786.554 421.225 773.222C423.564 770.043 428.082 768.828 430.907 765.955C435.56 761.224 438.959 755.243 443 750M773 668L773.684 684L785 709C787.325 705.221 794.695 688.599 791.879 684.643C789.581 681.414 778.174 684.038 775 685M760 670L762 670M799 673L798 682L812 678M768 676L771 681M793 684L796 682M785 709L784 718L786 713M787 718L783 721L783 719M776 728C772.001 742.236 750.086 748.584 739.089 756.133C725.877 765.203 715.369 783.212 706 796C702.355 788.19 713.227 777.277 717.586 771C726.925 757.555 736.684 746.273 751 737.861C761.4 731.75 773.262 729.231 783 722M226 754C207.668 785.971 190.676 818.743 172.691 851C165.187 864.46 150.662 881.669 147.847 896.942C146.859 902.305 156.564 902.432 160 903.439C171.008 906.667 181.822 910.191 193 912.87C196.344 913.671 202.362 915.87 205.351 913.357C212.367 907.459 213.689 888.544 215.576 880C219.584 861.851 225.43 844.374 231.95 827C234.561 820.041 236.53 810.808 241 805L253.809 834L282 874M225 758C234.019 769.829 240.69 790.067 241 805M423 766L423 770M703 795L706 796M355 796C355.395 802.66 354.511 809.361 355.425 816C357.28 829.47 365.931 850.584 357 863C352.069 852.768 352.4 834.919 355 824M704 798L701 801M169 904L212.975 841L237 809M829 828C825.284 839.401 814.054 853.897 816 866C821.196 861.463 822.708 853.689 823 847M768 1338C764.044 1324.16 756.695 1311.83 756.039 1297C754.311 1257.88 788.902 1226.81 817 1206C820.613 1212.77 819.062 1222.4 820.13 1230C821.534 1239.99 826.386 1251.94 824.671 1262C823.343 1269.78 817.997 1277.36 814 1284C803.171 1302 789.987 1318.37 775 1333.01C755.881 1351.7 726.494 1368.79 701.023 1349.79C694.855 1345.19 697.978 1338.4 699.745 1332C704.025 1316.51 707.427 1300.81 710.389 1285C719.209 1237.93 724.053 1189.78 721.961 1142C721.321 1127.39 719.193 1112.39 716.576 1098C715.281 1090.88 711.794 1083.25 713 1076C718.375 1080.46 718.899 1088.7 721.453 1095C724.33 1102.1 730.707 1106.96 733.235 1114C738.177 1127.77 735.289 1146.15 747.043 1156.86C759.021 1167.76 786.868 1173.4 792.791 1154C800.983 1127.16 798.066 1088.29 793 1061C802.425 1061.18 812.191 1069.31 820 1074.09C831.521 1081.13 843.645 1086.35 857 1088.42C863.155 1089.38 870.272 1092.57 876 1088.97C895.181 1076.92 908.996 1054.87 922.156 1037C936.378 1017.69 952.788 1000.12 965.922 980C974.85 966.321 980.961 951.154 989 937C999.077 919.257 1019.85 886.557 993 871.799C989.528 869.891 985.879 868.584 982 867.808C974.52 866.312 967.47 867.679 960 868C966.722 843.315 997.208 830.822 1011.47 856C1017.98 867.497 1011.68 880.429 1015 892M233 844C232.547 867.077 225.168 891.186 218.194 913C206.768 948.74 193.309 984.664 178.14 1019C172.611 1031.51 164.623 1044.15 160.248 1057C155.825 1069.99 155.463 1085.46 153.246 1099C149.722 1120.52 144.233 1145.36 149 1167M235 847C240.727 856.224 239.765 867.508 247.185 876C266.347 897.929 299.545 913.346 307.1 944C312.3 965.098 311.098 987.504 312.039 1009C313.249 1036.63 314.807 1064.31 312.91 1092C310.215 1131.36 304.687 1170.58 302.961 1210C302.039 1231.05 301 1251.85 301 1273C301 1281.9 299.469 1292.44 302 1301L315.605 1275L343.424 1215L370.096 1152L390.776 1112L394 1086C399.864 1094.88 398.951 1108.69 399.001 1119C399.081 1135.64 401 1152.35 401 1169C401 1229.43 395.891 1289.88 390.17 1350C388.582 1366.69 386.978 1383.32 385.166 1400C384.206 1408.84 383.953 1418.92 380 1427L345 1393C339.577 1403.16 340.235 1423.51 340.804 1435C341.073 1440.43 342.716 1449.69 340.397 1454.72C339.026 1457.69 334.559 1458.75 332 1460.47C325.251 1465 319.471 1470.95 313 1475.87C296.025 1488.78 278.452 1500.37 261 1512.57C251.663 1519.09 242.369 1528.38 232 1533C233.179 1521.49 241.507 1510.15 244.975 1499C253.936 1470.2 262.118 1441.25 269.525 1412C272.924 1398.58 276.217 1374.31 286.637 1364.41C290.461 1360.77 298.585 1364 303 1365.01C317.428 1368.31 337.068 1378.31 344 1392M407 865L411 869M817 866L801.579 916L791.359 954L795 968M956 871L959 869M412 872L416 884M403 876L394 886M402 882L402 887M417 887C424.478 918.322 429.139 952.456 426.91 985C425.75 1001.94 419.013 1019.61 419 1036M401 894L398 941C380.54 935.064 382.931 914.986 376 902M805 896L786.583 948.891L766 961M166 906L148.789 942L144.246 984L132 1059L151 1048L140.851 1070L120 1118M418 910C416.901 918.699 416.844 929.678 411.2 936.892C408.035 940.936 399.79 940.577 398.303 945.148C396.012 952.193 396.631 960.687 395.572 968C392.342 990.305 389.572 1012.62 386.715 1035C383.574 1059.59 379.807 1084.49 375.715 1109C373.536 1122.05 370.036 1135.76 370 1149M299 912C302.139 925.245 309.317 933.384 323 925M328 927C331.24 933.943 329.983 944.951 335.419 950.468C344.756 959.943 361.359 959.542 370.787 970.043C378.816 978.986 377.587 993.949 392 994M306 929L306 935M786 1042C790.482 1044.86 798.559 1047.9 803.999 1046.67C808.808 1045.58 811.398 1040.5 815.039 1037.6C825.696 1029.11 841.749 1022.68 848.177 1010C853.447 999.606 833.068 999.585 828.694 994.301C826.225 991.318 829.026 982.468 829.903 979C833.589 964.415 847.753 943.5 863 939.805C868 938.593 878.547 935.446 881.954 941.279C883.886 944.588 881.082 948.941 879.81 952C877.873 956.66 876.145 962.718 873.006 966.701C870.433 969.967 866.473 971.046 864.457 975.005C860.14 983.482 864.375 994.397 860.995 1003C851.69 1026.68 822.066 1051.97 798 1059M762 963L758 969C769.184 977.277 780.457 974.844 793 973M393 995C413.788 995.952 412.768 1011.33 419 1026M168 1026L151 1048M789 1046L791 1060L788 1060M132 1059C129.488 1063.32 129.739 1068.12 128.919 1073C127.232 1083.03 122.07 1096.15 125 1106M123 1066L129 1063M119 1070C114.768 1077.94 119.411 1088.04 122 1096M394 1083L394 1086M125 1110L147 1161M366 1168C356.633 1218.46 355.016 1270.07 350.17 1321C348.876 1334.59 348.088 1348.37 347.089 1362C346.488 1370.19 346.915 1380.67 343 1388M817 1204C815.626 1202.07 814.289 1200.2 813.363 1198C807.675 1184.47 826.304 1185.61 822.942 1197C821.875 1200.61 818.894 1202.92 817 1206M302 1301L301 1313M770 1341C776.831 1357.41 786.265 1372.82 793.691 1389C804.095 1411.66 815.004 1437.38 832 1456C833.973 1448.83 830.192 1441.32 830.015 1434C829.746 1422.88 832.675 1410.58 836.029 1400C842.626 1379.19 857.489 1375.69 876 1369.14C889.824 1364.24 903.55 1358.8 918 1356L919 1357L908.661 1392L887.656 1483L875.159 1515L859 1550C873.815 1549.74 882.341 1527.88 876 1516M276 1361L285 1362M732 1409L730 1398C736.404 1404.05 733.122 1411.2 734.888 1419C737.774 1431.74 744.346 1444.55 748.782 1457C767.29 1508.95 781.804 1562.64 790.004 1617C790.804 1622.3 793.876 1626.74 794.696 1632C796.201 1641.65 793.385 1650.68 792.081 1660C791.234 1666.06 791.955 1673.47 787.914 1678.68C785.315 1682.04 779.732 1681 776 1681C766.812 1681 755.523 1679.74 747 1683M742 1434C749.659 1434.06 756.488 1434.34 764 1432.25C768.842 1430.91 774.989 1427.45 779.961 1430.03C790.455 1435.47 797.587 1455.47 804.205 1465C815.625 1481.44 829.523 1496.06 838.741 1514C846.979 1530.03 848.081 1550.74 859.39 1565C867.725 1575.5 878.485 1579.96 890 1586M834 1457C839.853 1470.56 853.583 1481.68 866 1489M793 1525L786.59 1553L784 1575M793 1533C797.411 1551.69 793.774 1573.79 795.089 1593C795.785 1603.16 798.559 1616.53 794 1626M231 1534L218 1557M859 1550L854 1555M867 1576L837 1574.71L827.832 1572.4L831.045 1565.38L852 1556M795 1654L811 1647M755 1680C763.825 1672.08 779.635 1662.34 791 1659M8 1747C11.9735 1744.13 19.7954 1735.2 12.848 1731.03C10.0686 1729.36 6.13512 1730.85 3.74228 1728.4C-4.0175 1720.45 6.86067 1714.28 13 1713.21C15.9928 1712.68 18.9786 1712.31 22 1712" transform="translate(-577.122,-226.816) scale(0.898376,0.326485)"/></svg>