<svg xmlns="http://www.w3.org/2000/svg" xmlns:svg="http://www.w3.org/2000/svg" xmlns:sodipodi="http://sodipodi.sourceforge.net/DTD/sodipodi-0.dtd" xmlns:inkscape="http://www.inkscape.org/namespaces/inkscape" xmlns:xlink="http://www.w3.org/1999/xlink" width="210mm" height="297mm" viewBox="0 0 210 297">
  <sodipodi:namedview/><g inkscape:label="Ebene 1" inkscape:groupmode="layer" id="layer1">
    </g>
<path style="fill:none;stroke:#000000;stroke-linecap:round;stroke-width:5.0" d="M164 147C195.614 113.968 242.393 80.4171 291 88.5864C303.146 90.6278 325.626 94.714 331.682 107.004C335.435 114.62 331.927 125.067 331.17 133C330.09 144.306 332 156.55 332 168C332 221.06 331.252 274.055 331.078 327C330.966 361.13 328.638 395.152 324 429C322.212 442.048 320.546 460.483 309.96 469.671C300.765 477.652 289.886 476.225 279 473.613C254.862 467.821 235.668 449.79 216 435.71C207.7 429.768 197.676 425.823 191 418C198.435 412.919 207.744 410.392 216 406.85C218.853 405.626 222.778 403.108 225.996 403.816C233.211 405.404 240.517 420.352 241 427M162 149L157 156M155 160C138.317 182.964 135.616 210.755 133.75 238C130.565 284.515 133.473 331.571 128.831 378C126.999 396.324 122.127 413.249 117.626 431C115.969 437.534 111.302 447.047 113.18 453.852C114.938 460.223 130.464 453.989 135 453.634C155.071 452.061 165.849 467.018 160 485M1 266C42.5881 277.98 55.1244 329.373 67 365C84.1638 416.491 98.4244 470.305 106.921 524C114.559 572.269 118.8 620.904 128 669M375 291L385.537 356L392 387C396.054 379.687 395.678 370.18 396.039 362C396.773 345.403 399.017 328.969 393.308 313C390.38 304.81 385.536 293.471 376 292M1 381L17.6011 413L62.341 479L77.9961 502L80.8642 510.397L73 513L73.2369 532.397L82 533.246L107 528M228 403C238.89 395.58 260.041 387.231 273 385M392 387L396 418M317 398C305.352 404.032 290.179 405.38 278.143 410.603C272.422 413.085 272.094 421.142 265 423.181C252.97 426.639 248.487 406.185 240 421M312 402C298.3 420.18 282.025 448.781 280 472M389 408C385.277 437.432 372.852 466.605 359.731 493C354.497 503.529 340.489 520.25 341 532C358.003 523.19 375.153 507.156 390 494.916C393.857 491.736 404.485 485.6 405.782 480.737C407.019 476.095 404.094 467.733 403.196 463C400.761 450.161 398.03 437.036 397 424M169 419L190 418M408 480C426.995 465.687 444.837 450.019 465 437.319C472.279 432.734 483.085 425.772 492 428C483.133 452.218 461.602 473.218 449.178 496C409.213 569.285 365.94 640.147 321.576 711C303.644 739.638 274.134 786.863 237 790.826C212.418 793.45 206.266 767.917 191.96 754.093C184.58 746.962 174.545 744.557 167 738C175.534 733.264 184.638 735.044 194 734.999C207.679 734.933 227.405 732.365 237.91 722.787C244.179 717.072 259.574 685.511 241.015 686.137C234.08 686.371 223.813 703.103 218 707.572C200.47 721.049 162.324 727.548 144 712C153.761 709.116 163.172 715.163 173 711.046C195.129 701.775 210.87 674.902 237 686M278 474C276.716 488.728 272.112 503.09 271.09 518C268.247 559.473 269.532 603.826 257.562 644C253.296 658.315 245.883 670.874 239 684M407 484L418 546M76 489L71 492M157 490C142.125 504.875 127.804 517.411 109 527M70 491C51.1719 503.091 30.9869 511.903 9 516M57 500L68 510L38 509M69 511L73 514M340 531L323.433 550.004L315 562L318 556M419 554C423.807 562.87 424.623 576.049 426.285 586C429.124 602.992 432.323 619.853 434.166 637C441.801 708.06 431.391 779.856 414.105 849C406.071 881.135 397.822 913.424 391.739 946C389.487 958.062 385.255 970.722 385 983C395.733 981.385 406.99 974.146 417 969.85C433.69 962.686 450.407 957.271 468 952.873C473.97 951.381 490.799 944.542 496.393 948.198C500.599 950.946 494.399 961.872 492.971 965C485.399 981.591 474.545 998.746 463.193 1013C437.999 1044.63 401.597 1062.36 372 1089.17C361.792 1098.42 355.414 1109.17 347.545 1120C336.813 1134.77 326.45 1153.47 325 1172M317 558L319 560M314 563L300 584M111 702L143 712M166 738L167 738M349 1310C360.921 1282.38 387.607 1269.68 413 1257.19C443.809 1242.05 471.071 1226.11 498 1204.6C506.263 1198 517.546 1192.36 524 1184L493 1174.85L445 1160L419 1150C441.219 1127.97 470.06 1112.63 491.961 1090C519.496 1061.54 535.797 1024.99 553.247 990C561.593 973.265 570.942 954.523 574.249 936C575.341 929.886 577.611 922.09 575.258 916.004C571.19 905.483 553.649 899.462 545 893.254C521.356 876.284 492.606 857.716 464 850.748C451.772 847.77 438.775 850.551 427 848C432.616 837.174 445.191 826.555 455 819.425C472.54 806.676 493.593 796.912 516 800.439C536.367 803.645 552.422 818.346 566.985 831.83C601.056 863.377 632.639 903.377 644.37 949C673.054 1060.55 626.131 1177.86 601.349 1286C596.703 1306.27 589.482 1327.36 587.062 1348C586.186 1355.47 600.96 1359.74 605.911 1364.3C618.315 1375.72 626.198 1393.26 631.33 1409C641.969 1441.63 634.944 1472.19 619.219 1502C613.429 1512.97 605.282 1522.83 600 1534C610.126 1536.78 625.64 1531.15 636 1529.41C660.295 1525.34 685.381 1521.12 710 1520.04C742.034 1518.64 781.629 1516.25 809 1536.61C834.252 1555.39 832.05 1596.62 801 1607.46C771.953 1617.59 736.902 1610.35 707 1609.04C671.852 1607.5 636.083 1611.13 601 1611.99C585.309 1612.37 569.698 1613 554 1613C544.695 1613 534.709 1612.13 527 1618M376 1281C412.047 1276.42 449.96 1283.98 486 1287.83C499.475 1289.28 516.889 1288.67 524.637 1302C531.285 1313.44 528.798 1326.4 523.988 1338C514.991 1359.7 500.165 1378.77 485.6 1397C456.223 1433.78 432.384 1480.01 394 1508.24C375.114 1522.13 353.452 1529.26 331 1534.87C318.692 1537.95 299.583 1544.6 287 1542.66C270.956 1540.18 254.12 1511.78 246.192 1499C218.647 1454.58 193.106 1412.68 181.35 1361C168.273 1303.52 172.402 1241.42 174.961 1183C176.52 1147.39 173.36 1111.49 177.174 1076C178.276 1065.74 181.606 1056.02 183.714 1046C187.862 1026.29 190.027 1006.11 196.695 987C203 968.925 213.521 951.587 223.001 935C235.078 913.868 248.014 893.538 261.047 873C270.956 857.385 281.475 840.307 298 830.879C309.494 824.321 323.055 823 336 823C349.427 823 378.466 826.788 385.836 840.043C394.186 855.061 379.639 883.9 374 898C358.512 936.725 333.912 969.689 306.718 1001C298.569 1010.38 290.367 1019.93 281.83 1028.96C277.025 1034.04 271.293 1037.65 268 1044C277.62 1044.01 288.423 1033.44 297 1029.26C316.858 1019.58 336.253 1009.12 356 999.247C364.464 995.015 377.565 990.786 384 984M383 988C379.486 1028.3 359.833 1066.35 354 1106M268 1044C257.217 1053.84 240.624 1066.76 227 1072M349 1121C346.723 1136.42 338.796 1160.45 327 1171M1139 1153L1139 1155M231 1480C221.399 1484.48 205.66 1491.28 201.739 1502C197.075 1514.75 212.946 1536.92 219.439 1547C222.485 1551.73 236.088 1564.06 234.539 1569.79C233.698 1572.9 228.562 1574.87 226 1576.22C217.826 1580.54 209.404 1584.39 201 1588.23C173.419 1600.82 144.437 1610.72 115 1617.87C105.233 1620.24 89.7774 1625.47 80 1623C83.5264 1612.58 83.3462 1600.85 84.0895 1590C86.0022 1562.07 82.8399 1533.83 80.1698 1506C75.6953 1459.36 77.8827 1412.49 89.8843 1367C97.1073 1339.62 116.661 1293.37 153 1302.42C159.84 1304.12 166.337 1310.94 172 1315M176 1319C189.533 1323.01 202.559 1335.89 214 1344C235.967 1359.57 258.721 1373.9 282 1387.42C290.421 1392.32 298.437 1397.65 307 1402.31C309.476 1403.65 314.341 1405.59 313.839 1409.1C312.738 1416.79 301.131 1424.87 296 1430C276.938 1449.06 253.291 1461.75 233 1479M585 1353C584.376 1367.31 578.211 1382.39 574.025 1396C566.552 1420.3 563.558 1451.57 542 1468C521.161 1442.64 527.049 1402.11 542.604 1376C551.153 1361.65 567.067 1347.7 585 1353M1138 1412L1138 1414M600 1534L571 1541.45L516 1553.88L409 1593.14L358 1606C364.02 1621.54 382.421 1625.71 397 1628.79C402.827 1630.02 411.379 1631.92 415 1626M595 1539L561.427 1577L533 1612M354 1604C347.033 1608.02 338.773 1607.36 331 1608.29C303.483 1611.54 278.495 1609.61 257 1589.91C252.532 1585.82 240.45 1577.22 239.631 1571C239.059 1566.66 247.263 1559.89 250.039 1557C267.849 1538.47 294.014 1546.87 313 1559.67C323.092 1566.47 333.395 1574.34 340.88 1584C345.701 1590.22 351.248 1602.38 358 1606M236 1569L238 1571M1137 1582L1137 1585M1137 1587L1137 1588M1 1640L79 1625C78.7759 1635.8 74.165 1646.12 70.1998 1656C58.2291 1685.83 35.953 1721.27 1 1726M1098 1722C1108.4 1721.18 1124.07 1715.79 1118 1732L1134 1732M1139 1732L1139 1735M1108 1736L1117 1734L1116 1746" transform="translate(-577.122,-226.816) scale(0.89893,0.328317)"/></svg>