<svg xmlns="http://www.w3.org/2000/svg" xmlns:svg="http://www.w3.org/2000/svg" xmlns:sodipodi="http://sodipodi.sourceforge.net/DTD/sodipodi-0.dtd" xmlns:inkscape="http://www.inkscape.org/namespaces/inkscape" xmlns:xlink="http://www.w3.org/1999/xlink" width="210mm" height="297mm" viewBox="0 0 210 297">
  <sodipodi:namedview/><g inkscape:label="Ebene 1" inkscape:groupmode="layer" id="layer1">
    </g>
<path style="fill:none;stroke:#000000;stroke-linecap:round;stroke-width:5.0" d="M267 228C266.853 245.472 248.942 261.538 239 275M237 278L230 287M334 348C343.504 337.651 349.625 325.483 362 317.926C385.745 303.426 413.154 297.505 440 291.576C466.683 285.682 493.746 279.106 521 286.003C539.135 290.593 561.147 297.629 570.687 315C579.849 331.684 573.601 353.203 565.164 369C544.363 407.947 506.535 426.295 471 449.218C458.002 457.602 445.709 469.908 431 475M227 291L226 292M224 296L213 314M211 318C197.712 336.664 185.422 365.679 188.286 389C190.43 406.454 200.001 420.629 205.254 437C209.055 448.848 208.754 462.676 207.91 475C205.448 510.96 187.602 543.302 171.753 575C161.567 595.373 150.079 616.487 150.079 640C150.079 661.771 162.385 680.251 171.753 699C175.138 705.775 176.404 713.514 180 720L194 686L201 671M329 356L316 379M314 387L313 389M663 405C656.488 408.638 641.265 412.831 634 411C635.896 406.105 639.321 402.679 643.001 399.001C670.571 371.441 693.424 414.991 710 433L727 410M311 395C305.589 407.822 308.558 423.456 307.897 437C306.188 472.008 309.785 506.981 306.914 542C305.982 553.377 303.018 564.505 303 576C302.995 579.312 301.832 585.897 305.318 587.882C310.761 590.981 324.797 584.553 331 584.089C356.878 582.151 383.184 580.591 409 584.271C415.49 585.196 429.864 585.242 434.436 590.318C443.219 600.067 435.27 622.571 428.482 630.985C413.537 649.511 377.714 653.433 356 647C368.575 630.435 382.164 610.116 399 597.61C406.709 591.883 416.692 592.258 424 587M657 408C648.802 423.28 620.784 420.329 607.222 426.148C602.284 428.267 597.894 440.172 599 445C607.79 441.284 615.296 433.487 621 426M634 411C626.485 416.23 614.887 415.04 606 416.439C586.782 419.465 568.517 422 549 422C540.35 422 529.643 422.407 522 418M513 487C532.964 496.443 551.689 508.16 572 517.246C579.538 520.618 585.531 524.648 594 525.71C620.754 529.066 650.832 513.231 675 504.066C707.121 491.884 741.59 485.683 774 473.946C788.177 468.812 802.868 464.058 814.996 454.761C825.887 446.412 833.772 434.927 845 426.86C850.205 423.12 863.352 408.735 869.471 415.164C874.922 420.889 878.684 429.997 882.244 437C888.702 449.704 896.45 468.402 895.726 483C895.063 496.374 888.711 510.724 883.8 523C874.562 546.095 863.811 568.74 855.065 592C843.064 623.916 836.468 660.505 830.424 694C827.924 707.857 823.074 721.949 822.089 736C820.108 764.278 824.801 793.723 826.039 822C826.995 843.836 834.114 870.063 825.121 891C820.562 901.613 811.373 909.049 804.425 918C798.174 926.053 793.567 935.327 786.816 943C773.582 958.039 757.772 970.809 744.576 986C734.062 998.102 719.457 1006.12 716.62 1023C714.74 1034.18 719.617 1048.12 722.119 1059C729.366 1090.53 743.964 1120.99 748.572 1153C750.237 1164.57 748.056 1175.47 748.001 1187C747.812 1226.16 744.293 1276.23 716.826 1307C700.357 1325.45 677.22 1336.96 655 1346.86C628.398 1358.72 602.844 1368.64 575 1377M629 416L627 420M432 474C433.589 458.042 443.905 434.028 458.001 425.479C468.973 418.824 481.57 418 494 418C501.37 418 509.089 417.084 516 420M598 444C589.729 453.277 585.985 467.204 579.715 478C577.747 481.388 574.316 488.594 569.961 489.245C565.259 489.946 559.292 482.461 556 479.805C543.874 470.019 531.029 461.181 519 451.25C515.981 448.758 504.857 442.917 506.921 438.101C509.742 431.521 524.898 430.167 531 430.015C555.365 429.407 579.629 427 604 427M709 434C704.52 447.534 690.928 462.056 681 472C651.181 501.867 619.025 518 577 518M435 589C442.631 587.351 452.505 591 460 592.873C481.243 598.184 502.096 606.715 522 615.769C552.666 629.719 598.221 644.993 613.677 678C625.49 703.229 616.113 735.385 610.424 761C599.49 810.234 579.193 858.751 553.603 902C538.454 927.603 522.038 952.124 498 970.475C449.668 1007.37 385.684 1016.59 335 979.511C317.149 966.452 304.752 948.596 291.883 931C279.93 914.656 270.042 896.829 262.601 878C259.559 870.303 256.057 859.309 258.573 851.023C260.066 846.105 263.905 846.952 268 847.79C277.187 849.67 286.62 850.821 296 849.714C330.477 845.647 366.664 845.46 391.907 818C396.917 812.549 409.774 795.388 408.007 787.336C406.935 782.451 395.835 791.239 394 792.414C379.927 801.42 368.002 810.12 352 815.656C331.429 822.772 303.035 833.855 281 831.829C262.761 830.152 246.596 820.914 231 811.999C220.95 806.255 207.006 799.119 200.742 789C194.218 778.459 204.859 761.135 215 757.148C222.276 754.288 230.435 755.586 238 754.829C248.196 753.81 258.976 751.171 269 748.985C298.594 742.533 327.856 723.709 347.576 701C355.413 691.975 363.15 682.841 369.975 673C371.571 670.7 376.449 665.631 374.828 662.564C372.503 658.163 356.572 658.62 352 657.736C341.409 655.688 337.031 660.123 327 662.497C315.487 665.221 290.811 665.064 281 658C297.806 653.032 320.706 653.814 338 656M281 658C266.087 657.359 253.334 641.424 238.015 644.229C228.243 646.018 233.218 658.073 235.333 664C239.994 677.067 247.259 689.302 252.847 702C255.254 707.469 259.268 712.891 258 719C248.299 712.841 239.397 704.733 231 696.911C224.533 690.886 219.972 684.719 215.779 677C212.9 671.699 210.447 665.886 209.04 660C204.038 639.072 215.89 625.979 233 615.99C256.323 602.373 278.996 597.481 304 589M304 591C305.244 606.759 305.934 633.135 321.039 642.517C326.7 646.033 334.506 646.384 341 646.914C345.826 647.308 350.323 648.512 355 647M350 650L345 655M269 656L236 664M215 676L235 665M214 675C210.532 677.852 205.431 682.534 201 680L201 677M259 719L262 722M180 721L178 732M578 1374C600.871 1347.74 643.787 1309.89 681 1333M685 1333C699.218 1343.04 718.86 1352.95 736 1356.49C748.438 1359.05 765.842 1358.68 775.671 1368.27C787.921 1380.24 794.361 1403.14 799.667 1419L824.645 1494C828.891 1506.74 831.756 1521.1 838 1533M1112 1729C1113.86 1727.16 1116.67 1722.42 1119.24 1721.74C1127.74 1719.48 1118.55 1736.1 1116 1738L1113 1729L1100 1744L1100 1723M1124 1725C1128.36 1724.67 1135.66 1718.74 1139.38 1722.6C1143.36 1726.73 1132.75 1739.15 1141 1739M1118 1726L1121 1727" transform="translate(-577.122,-226.816) scale(0.893415,0.327529)"/></svg>