<svg xmlns="http://www.w3.org/2000/svg" xmlns:svg="http://www.w3.org/2000/svg" xmlns:sodipodi="http://sodipodi.sourceforge.net/DTD/sodipodi-0.dtd" xmlns:inkscape="http://www.inkscape.org/namespaces/inkscape" xmlns:xlink="http://www.w3.org/1999/xlink" width="210mm" height="297mm" viewBox="0 0 210 297">
  <sodipodi:namedview/><g inkscape:label="Ebene 1" inkscape:groupmode="layer" id="layer1">
    </g>
<path style="fill:none;stroke:#000000;stroke-linecap:round;stroke-width:5.0" d="M1093 4L1093 5M1092 157L1092 158M359 163C361.255 172.022 353.864 185.321 350.999 194C343.013 218.196 336.382 242.83 328.333 267C326.174 273.484 323.371 294.666 316.722 297.533C313.585 298.886 308.156 297.025 305 296.258C296.004 294.07 286.981 292.122 278 289.873C251.401 283.215 225.05 276.802 198 272.286C186.729 270.403 171.067 273.372 161 268C170.55 260.291 183.929 256.15 194.985 250.907C204.543 246.374 213.869 239.771 223 234.189C266.958 207.314 308.294 175.493 359 163M1091 196L1092 196M1091 201L1092 201M161 268C153.892 269.63 140.172 274.806 133.318 270.111C130.298 268.042 130.671 262.255 130.285 259C129.083 248.848 130.358 237.903 128 228L157 236.964L201 246M208 244C208.356 248.997 204.328 250.042 200 249M210 246L265 247M426 272C432.005 268.795 440.256 269.605 447 268.718C465.631 266.269 484.357 265.921 503 263.714C508.132 263.107 524.512 258.953 528.062 263.357C535.44 272.513 531.203 298.138 530.17 309C527.868 333.19 527.61 358.711 527.015 383C526.68 396.66 527.889 412.844 524 426C515.562 422.439 502.815 421.394 494 424C489.703 412.527 498.183 395.275 491.972 385.275C487.368 377.861 470.52 381.789 468.357 371.956C467.242 366.884 470.032 360.092 470.718 355C472.278 343.417 471.005 332.572 471 321C470.997 314.882 471.499 306.498 467.991 301.17C462.292 292.515 450.461 287.018 442 281.495C435.457 277.224 427.993 271.575 420 271M147 272L132 282C140.628 291.312 155.893 297.273 167 303.309C197.141 319.687 229.222 332.063 260 347.194C272.53 353.354 286.263 358.873 297 368L287.87 391L262 424L277 428L286 396M133 273L133 279M78 684L75 687C59.779 663.92 52.7708 634.543 46.1265 608C43.0229 595.601 39.8799 583.172 35.9722 571C33.9052 564.562 29.7537 557.717 29.1049 551C28.3601 543.288 30.9005 535.58 31.8441 528C34.2689 508.522 37.7748 489.288 41.3889 470C44.5377 453.195 45.0002 434.021 51 418C58.1592 426.233 54 448.463 54 459C54 477.987 55.9429 497.116 57.831 516C59.0266 527.957 59.1352 541.583 63 553L86.5085 548.436L84.7145 529L80 472L85.9606 359L88 322L90.3179 306.213L103 298.127L132 282M317 299L305.67 337L296 366M319 299C341.307 304.326 364.685 304.926 387 310.63C395.197 312.725 407.015 314.552 412.121 322.043C421.15 335.29 411.558 357.996 406.399 371C390.543 410.966 370.559 449.072 354.6 489C349.985 500.547 345.236 512.109 341.566 524C340.479 527.521 339.602 535.663 336.411 537.842C333.503 539.828 327.482 539.536 324 540.671C315.444 543.463 307.093 547.443 299 551.359C252.977 573.628 207.961 588.333 157 593.336C142.539 594.756 128.714 598.264 114 596.896C96.619 595.28 74.5683 590.388 58.0008 584.779C53.388 583.218 50.6735 579.299 46 578M55 347L52 418M297 368L304 371L293 384M467 376C462.692 389.474 457.969 403.158 455 417C453.698 423.071 453.341 430.243 446 431M159 474C177.718 465.703 199.186 455.2 214.985 441.674C221.141 436.404 222.602 422.43 230 420M223 428C217.264 429.375 211.911 437.569 207.035 437.655C203.379 437.719 196.7 430.207 200.492 426.988C205.373 422.845 219.691 421.515 226 421M454 430L493 424M226 428L261 425M258 426C250.752 453.942 223.304 463.457 198 466.166C191.415 466.871 183.409 468.762 177 467M493 426L497.625 479L500 586L419 579.714L388 575M198 433C195.319 431.228 195.318 429.772 198 428M128 453L176 436.599L195 429M203 434L212 431M448 432C447.228 447.034 438.278 464.791 433.218 479C424.914 502.316 417.815 526.193 408.128 549C404.22 558.202 397.986 566.043 394 575M185 433C194.167 436.303 191.521 438.316 194 447M194 433L194 434M187 435L191 443M52 578C63.2214 578.231 74.7869 579.321 86 580.089C90.735 580.414 95.627 582.339 100 579.683C113.987 571.186 126.251 558.195 138 546.961C141.52 543.595 147.572 534.575 152.895 534.497C157.487 534.429 160.791 544.8 162.954 547.996C167.965 555.397 178.162 560.118 186 564M182 562C174.458 567.43 161.132 568.16 152 569.75C148.41 570.375 141.4 570.359 139.028 573.564C136.704 576.704 138.379 582.509 138.87 586C139.313 589.156 139.882 592.016 141 595M148 779C166.134 785.997 181.917 806.068 194 821C198.44 826.486 207.432 840.966 215 841.608C222.837 842.273 234.898 831.503 241 827.283C262.712 812.267 284.599 798.146 305 781.321C358.939 736.836 405.655 684.163 459 638.866C482.521 618.893 509.827 592.729 540 584M499 604C499.003 599.81 498.222 592.059 501.024 588.603C504.489 584.33 520.795 587 526 587M142 597L150 621C137.33 627.797 118.918 627.46 105 631.655C101.478 632.717 95.4247 632.513 92.6073 634.988C89.2028 637.979 93.1074 644.749 94.3194 648C95.7018 651.707 96.8527 658.672 99.5995 661.477C102.342 664.276 115.994 665.809 120 665.613C133.533 664.949 142.07 646.063 155 642.499C162.587 640.408 171.614 643.921 179 645.576C191.003 648.266 202.753 651.375 215 652.845C225.393 654.093 239.354 654.709 248 661C240.152 665.188 227.867 664.769 219 666.247C197.411 669.845 175.664 673.746 154 676.869C145.844 678.045 138.266 678.996 130 679C127.577 679.001 122.679 678.196 121.086 680.603C115.995 688.296 133.061 691.449 137 691.83C151.151 693.2 165.779 691 180 691C186.806 691 195.256 689.575 194.901 698.991C194.639 705.958 177.76 707.02 172 708.349C157.538 711.686 143.723 715.858 129 718.246C119.08 719.855 106.822 719.913 98 725C104.281 735.432 116.813 745.418 126 753.424C128.926 755.975 132.339 761.159 136.17 762.212C142.034 763.824 152.566 758.016 158 755.935C178.387 748.13 198.878 738.102 218 727.565C227.905 722.107 237.749 716.47 248 711.691C252.707 709.497 256.021 706.379 261 709L222 742.911L209.878 756L216.255 770L237 808L235 810C212.945 799.55 184.744 784.078 160 783M500 609C491.724 674.489 494.847 742.087 491.961 808C490.847 833.433 491 858.57 491 884C491 899.018 489.715 916.502 494 931C541.991 903.688 596.698 889.648 647 868C642.005 863.806 634.648 867.522 629 869.141C615.582 872.989 602.553 877.902 589 881.37C583.704 882.726 574.866 882.447 570.358 885.434C567.305 887.457 569.741 893.022 570 896M79 658L105 676L102 664M86 660L97 662M248 661L274 668M106 677L107 679M261 708L279 699M259 706L262 706M95 724L97 724M380 789C393.495 802.383 403.543 817.904 416.464 831.714C430.568 846.789 446.139 858.122 455.891 877C469.034 902.442 471.086 930.721 481 957C484.446 954.522 499.759 945.001 497.655 939.394C495.859 934.607 480.972 936.84 477 937M385 796C386.115 848.324 403.855 900.447 404 953L411 954L406 954M647 868L677 861M646 866C649.697 863.88 652.064 863.223 656 865M571 898C583.887 935.994 588.109 977.967 597.346 1017C600.963 1032.29 604.143 1052.39 612 1066C630.968 1042.92 640.962 1009.93 655.85 984C660.264 976.312 673.876 962.859 673.794 954C673.711 945.004 663.852 934.789 660 927M662 927C706.756 927 750.748 916.995 794 906.374C805.212 903.621 816.662 901.366 828 899.197C831.445 898.538 838.295 896.415 841.357 899.028C843.955 901.245 841.34 907.267 840.804 910C838.854 919.941 837.586 930.012 835.92 940C828.621 983.744 815.04 1027.04 801.681 1069C792.492 1097.86 788.029 1128.61 780.862 1158C777.394 1172.22 773.066 1186.06 771.933 1201C768.345 1248.33 766.169 1296.41 762.911 1344C760.198 1383.6 760.206 1423.34 760.986 1463C761.542 1491.27 761.746 1520.11 767 1548M484 936L493 932M494 933L494 943M412 954L474 938M495 949L498.031 1051L498 1071M250 1090L231 1091C230.989 1074.42 223.047 1057.84 218.579 1042C217.466 1038.05 212.581 1027.2 215.068 1023.59C217.968 1019.37 228.617 1021 233 1021L223.784 998L220.748 989.742L233 986.59L268 982.718L360 964.765L403 954M481 957C453.354 978.925 421.365 992.424 390 1007.92C381.655 1012.04 373.108 1015.84 365 1020.42C362.725 1021.71 358.244 1023.38 357.538 1026.21C356.401 1030.77 364.394 1038.02 367.17 1040.96C378.7 1053.17 394.446 1065.52 410 1072M405 958L407.17 987L408 999M481 960L492.335 1026L497 1050M214 989L219 990M409 1000L419.169 1132L429 1221M760 1456C750.232 1450.5 745.21 1432.47 739.715 1423C728.107 1403 711.302 1380.22 691 1368.46C672.725 1357.88 650.028 1357.9 630 1353.1C607.459 1347.7 586.512 1337.15 564 1332.01C551.61 1329.18 534.071 1330.33 523 1325C527.992 1319.28 537.404 1317.42 544 1313.66C555.91 1306.89 567.131 1298.07 578 1289.77C614.144 1262.13 644.735 1227.75 681 1200.13C701.819 1184.28 723.119 1169.2 744 1153.47C754.32 1145.7 766.689 1138.02 774.671 1127.71C780.191 1120.59 777.542 1106.51 776.424 1098C773.918 1078.91 774.157 1059.26 771.845 1040C771.291 1035.39 764.48 1013.82 769.333 1011.64C772.919 1010.04 779.369 1012.57 783 1013.34C786.989 1014.18 791.505 1014.27 794.996 1016.59C810.088 1026.62 802.041 1049.26 802 1064M318 1095C297.521 1092.24 276.831 1083.41 256 1090L235 1022C241.16 1020.18 247.658 1021.43 254 1020.83C270.837 1019.23 291.256 1016.09 308 1019.51C314.034 1020.75 325.225 1022.83 328.91 1028.22C333.688 1035.21 329.308 1047.48 327.8 1055C322.908 1079.42 316.47 1103.71 310.887 1128C299.503 1177.52 296.639 1232.48 299.105 1283C300.343 1308.38 307.904 1333.47 309 1359M233 1021L235 1023M612 1066L612 1068M416 1076C431.501 1078.67 446.651 1086.25 462 1090.1C493.695 1098.07 525.509 1103.74 558 1106.83C613.883 1112.15 670.829 1101.58 727 1104.04C743.913 1104.78 759.452 1109.77 776 1112M256 1091C262.098 1106.93 264.957 1124.43 268.884 1141C274.95 1166.59 281.363 1192.12 285.916 1218C289.039 1235.75 288.992 1263.9 299 1279M268 1652C259.574 1641.23 261.529 1626.97 260.961 1614C259.913 1590.07 257.224 1565.84 254.831 1542C244.01 1434.19 245.596 1325.74 235.17 1218C232.263 1187.96 228.276 1158.44 217.575 1130C214.613 1122.13 210.917 1114.02 206.252 1107C204.795 1104.81 201.155 1101.25 202.306 1098.32C204.223 1093.43 225.143 1092.21 230 1092M233 1092L244.339 1143L264 1233M319 1097C351.86 1106.48 346.848 1148.3 345.025 1175C340.735 1237.81 315.217 1317.88 365.039 1370C386.735 1392.7 414.837 1396.05 442 1408.78C448.988 1412.05 466.661 1417.64 464.318 1428C460.752 1443.77 435.872 1457.86 424 1467.29C384.844 1498.38 344.635 1528.9 304 1558C299.33 1549.25 302 1534.79 302 1525C302 1503.15 300.902 1480.76 298.83 1459C291.709 1384.22 281.814 1311.34 265 1238M196 1098L201 1098M775 1128L777 1164M771 1204L762.873 1232L746 1297M517 1325L523 1324M993 1723C994.663 1722.69 996.339 1722.3 998.024 1722.12C1011.82 1720.66 1002.09 1735.65 1005.24 1741.59C1006.89 1744.71 1013.59 1742.95 1016.35 1746.23C1023.29 1754.49 1018.1 1772.1 1008 1775M1027 1733C1029.75 1727.74 1040.25 1720.29 1040.93 1731C1041.5 1739.98 1036.79 1750.07 1035.42 1759C1034.96 1762.06 1033.43 1767.82 1037.24 1769.36C1041.16 1770.93 1046.49 1767.44 1050 1766M41 1745L24 1796M52 1760C51.0717 1760.98 49.8986 1762.05 49.0687 1763.16C42.0406 1772.55 55.516 1770.04 59.1019 1776.06C62.3881 1781.58 57.848 1785.16 53 1782M1 1768L3 1764C8.1727 1769.07 3.0882 1776.43 7.02778 1781.4C9.37934 1784.36 17.8528 1782.85 15.8241 1778.13C14.0325 1773.96 5.69418 1774.78 2 1773" transform="translate(-577.122,-226.816) scale(0.953054,0.331103)"/></svg>