<svg xmlns="http://www.w3.org/2000/svg" xmlns:svg="http://www.w3.org/2000/svg" xmlns:sodipodi="http://sodipodi.sourceforge.net/DTD/sodipodi-0.dtd" xmlns:inkscape="http://www.inkscape.org/namespaces/inkscape" xmlns:xlink="http://www.w3.org/1999/xlink" width="210mm" height="297mm" viewBox="0 0 210 297">
  <sodipodi:namedview/><g inkscape:label="Ebene 1" inkscape:groupmode="layer" id="layer1">
    </g>
<path style="fill:none;stroke:#000000;stroke-linecap:round;stroke-width:5.0" d="M98 3L106 3M773 11C771.677 8.55249 773.304 2.87256 777.058 3.75146C781.875 4.87915 784.025 10.5736 789.015 11.8464C814.423 18.328 839.638 21.7097 861 39C872.516 26.3859 889.195 16.2427 905 9.90039C908.435 8.52185 917.891 2.51282 921.142 5.64661C925.058 9.42139 924.218 21.0266 923.911 26C923.775 28.2061 922.546 32.1754 925.333 33.2269C930.369 35.1277 937.543 32.3667 943 33.9661C965.194 40.4706 987.211 51.9226 1006 65L1020 13M397 4C397 23.7479 392.498 43.2651 392.015 63C390.005 145.013 393.993 227.046 391.985 309C390.375 374.739 382.787 440.196 382.004 506C381.222 571.729 382.165 638.368 385.039 704C387.088 750.784 390.014 796.108 388 843C421.544 843 455.552 843.799 489 846.089C514.648 847.846 540.236 851.303 566 850.996C646.669 850.037 726.631 840.562 807 835.089C832.537 833.351 858.478 840.422 884 839.741C892.156 839.523 899.191 837.113 907 836M122 33L112 22C121.456 19.2048 134.326 20.7402 144 22.1466C147.055 22.5907 149.855 25.0016 153 24.5424C168.04 22.3463 181.449 7.06641 197 5M1 28C7.5541 21.4459 16.0904 8.71484 25 6M768 47L762 11L783 11M64 11C53.956 42.74 45.9409 74.2911 44.2091 108C43.7344 117.24 45.9744 126.726 46 136C31.5611 133.426 14.1865 124.03 2 116M1048 11C1053.4 12.8378 1056.86 16.3628 1058 22C1063.34 22.7793 1067.51 27.7228 1073 27.2939C1090.39 25.9354 1107.81 12.6241 1126 18C1121.79 26.8079 1107.93 31.8893 1099 34.5616C1095.49 35.6118 1088.52 35.9025 1086.02 38.7955C1083.69 41.5018 1084.18 47.6194 1083.54 51C1082.15 58.3638 1079.36 65.4933 1075.66 72C1057.1 104.651 1026.2 138.692 993 156.691C953.794 177.945 912.888 167.202 871 169.039C855.613 169.714 842.113 178.237 827 179.699C814.583 180.901 803.064 174.392 790.34 180.306C784.138 183.188 782.475 191.844 776 195C776.147 193.045 777.655 187.515 774.667 187.022C769.375 186.149 766.418 194.249 761 193.716C755.091 193.135 749.146 187.732 744 185.134C730.13 178.134 715.45 171.967 703 162.497C676.919 142.66 647.768 128.232 621 109.561C589.503 87.5912 560.655 62.5782 526 45.2484C506.791 35.6425 473.914 19.5223 452 26C458.454 33.5039 472.866 35.4377 482 38.6921C498.205 44.4658 514.595 53.8507 530 61.5872C557.397 75.3459 580.672 96.9463 607 112.548C621.651 121.23 635.919 131.235 651 139.11C666.883 147.404 681.269 152.466 695 165C679.767 178.298 660.638 193.478 649 210L652 211M253 133L219 155C219.612 125.51 233.233 89.4042 245.745 63C249.839 54.359 248.297 46.3424 255.425 39.0972C267.643 26.6785 292.881 18.3424 309 12M772 12L767 32M789 14L799 31L808 26L802 35L812 38M1056 15C1064.32 12.5397 1083.98 11.804 1087 22M69 18C82.1022 19.0341 100.478 15.9415 112 23M816 18L808 26M1039 18C1045.65 19.5217 1051.52 26.1921 1058 22M151 19L149 24M63 21C59.6934 54.2128 50.9978 86.2443 51 120C51.0004 126.135 53.6672 133.125 52.929 139C52.3547 143.571 47.8331 147.239 51.7731 151.667C54.9089 155.192 64.472 153.534 69 154.53C74.4136 155.721 90.8394 166.213 95.2469 163.84C98.4342 162.124 100.962 155.882 103.13 153C108.434 145.953 114.16 140.514 121 135M442 24L452 27M1055 25C1064.01 31.4126 1073.94 36.5092 1085 38M1086 25L1086 37M150 26C145.211 31.3894 139.901 43.651 138.863 50.9105C138.416 54.0339 140.488 56.7587 140.138 60.0039C138.836 72.0623 136.041 83.9901 134.272 96C133.15 103.612 133.316 112.463 129 119C123.185 99.3259 134.466 74.6201 137 55M259 35L269 26M1051 26L1026 44.5107L1010 55M738 84C732.273 84.0164 727.901 84.465 724 89C735.533 94.0546 741.308 83.542 747.73 76C762.391 58.781 781.927 46.7411 798 31C801.42 37.2327 795.806 40.5835 793 46L807 39M894 34C901.594 29.8114 911.895 31.1073 913 41L894 35C885.546 50.8748 896.849 49.6809 907 58L899 64L904 60M126 41L145 32M890 48C885.341 54.5186 872.707 77.4679 862.319 73.3071C859.425 72.1482 860.384 68.3324 860.805 66C861.956 59.6195 861.588 43.85 866.318 39.4491C872.698 33.5134 883.366 43.4927 889 46M862 38L864 40M860 39L855 43M245 43L251 42M914 42C917.493 54.1525 932.658 55.6884 932.985 71C933.467 93.5992 916.402 110.263 897 118.573C882.239 124.895 866.992 125.833 852 130.749C839.479 134.855 827.116 142.748 817 151.084C811.788 155.379 804.992 159.859 802 166C813.611 165.48 823.129 154.75 834 151.103C840.777 148.83 848.195 149.096 855 146.907C883.66 137.691 919.294 117.939 936.492 93C945.568 79.8379 949.559 57.8287 934.999 47.0548C931.519 44.4799 926.521 41.6416 922 42.3218C909.835 44.1521 908.485 61.2701 922 53M253 44L248 51M141 46L141 55M793 46L752 89M903 47L911 49M235 48L248 51M245 51C241.262 67.4863 229.248 82.5312 224.205 99C219.885 113.111 216.486 127.447 214.08 142C212.933 148.94 213.491 157.429 211.312 164C208.259 173.209 200.313 180.774 196.66 190C194.958 194.297 192.901 198.928 198.058 201.702C204.22 205.017 207.529 197.646 209.629 193.001C215.596 179.797 228.559 166.335 241 158.931C247.565 155.023 256.944 152.934 261 161M251 51C258.9 55.3136 271.958 54.7716 281 56.2855C299.796 59.4326 320.495 63.2406 338 71M894 54L900 60M258 55L325 96M911 55L908 58M860 90L898 65M779 74L822 79.1675L846.896 87.9684L859 74M798 76C804.263 80.7909 824.216 86.6405 832 85M858 79L855 94L848 89M375 85L392 86M742 85C744.898 88.4271 744.524 93.1478 747.028 96.1428C751.388 101.357 760.579 99.2412 762.678 108.001C766.037 122.021 747.695 138.234 742.309 150C735.728 164.374 741.538 170.191 744 184M388 87C381.65 92.2179 371.268 97.4141 363 98M833 87L836 86M55 137C67.7335 119.486 77.0799 98.6588 97 88M744 99C741.788 103.742 734.403 113.069 728.109 109.929C722.844 107.303 723.938 99.6346 729.055 97.6034C734.484 95.4485 740.407 98.9312 746 97M366 99C353.239 134.057 341.86 168.917 331.573 205C326.774 221.831 320.288 240.515 318.674 257.981C318.048 264.754 327.599 262.785 332 265.228C337.262 268.15 341.124 273.373 344.799 278C346.969 280.731 350.532 284.162 348.339 287.83C337.332 306.241 322.793 323.583 311.228 342C303.723 353.951 295.858 371.19 283.829 379.216C278.344 382.876 275.932 377.232 270.985 375.653C266.756 374.303 262.104 375.49 258 376.721C237.575 382.848 216.629 394.714 198 405.098C192.48 408.175 181.07 413.664 177.904 419.21C175.897 422.724 177.998 429.967 178 434C178.005 446.161 173.509 460.189 177 472L191 462C189.085 466.942 185.771 472.119 180 471M312 242C311.492 228.214 317.104 212.966 321.33 200C327.454 181.211 333.127 162.129 341.091 144C344.901 135.326 349.361 119.739 358 115M129 119C129 129.278 128.013 146.755 133.028 155.83C138.904 166.464 151.825 171.066 160.985 177.789C172.696 186.382 178.194 195.797 193 200M68 152L97 120M21 135C11.8543 144.372 14.2933 150.86 11.2145 162C9.439 168.425 5.22911 173.331 2 179M47 137L48 139L53 138M11 149C4.71559 145.039 6.88227 135.593 15 142M48 139L50 145M128 140C126.361 148.796 126 157.076 126 166C126 168.787 126.957 174.07 124.972 176.353C122.631 179.047 118.001 175.377 115 176.356C110.672 177.769 107.178 182.933 104 185.981C100.387 189.446 87.1359 204.64 81.527 200.212C78.0197 197.444 81.5588 191.968 84.1335 190.059C88.6887 186.683 91.9001 187.742 96 191M49 148C42.902 156.539 27.9299 175.79 43 181L45 177M1 149L7 149M115 175C103.844 167.211 116.542 157.294 125 152M64 155C61.8521 163.281 52.2401 169.889 54 179L63 172M218 156C215.602 163.172 214.284 172.534 216 180M599 169C597.945 167.582 596.611 166.198 595.688 164.69C588.097 152.281 615.08 157.854 609.863 167.511C608.124 170.73 603.243 169.608 600.424 170.944C594.227 173.883 591.272 178.559 590 185L606 172M213 162L215 162M93 165C91.2932 172.263 80.1505 180.425 87 187M96 165L107 171M802 166C797.544 169.629 792.576 172.944 792 179M211 170L211 186M105 171L95 189M311 195C300.883 199.034 291.981 205.684 284.17 213.286C281.224 216.152 277.226 223.421 272.83 223.898C260.618 225.224 256.751 214.033 263.015 206C272.564 193.756 291.557 172.786 308 171M789 180L787 178L791 176M35 177C30.3745 178.705 5.06242 181.912 13 191M560 202C555.757 198.927 561.016 195.007 564.001 192.76C571.487 187.124 581.684 179.662 591 178M33 179L33 189L42 181M777 187L787 180M43 181C48.2896 190.963 35.6076 208.002 25.0039 209.127C12.599 210.443 21.3269 195.875 25 192M78 184L83 184M680 192L696 184M814 196L830 202C821.576 204.419 811.682 198.847 805 194C837.347 164.966 884.967 204.079 917 213C913.887 214.812 913.113 214.812 910 213M215 185C225.366 197.72 242.523 207.368 256 217M590 185C581.58 194.526 579.176 205.004 574.996 216.999C573.69 220.746 570.722 224.13 570.144 228.039C567.925 243.059 571.387 260.626 571 276C591.824 272.975 614.946 257.366 628.83 242C631.137 239.447 643.067 228.256 640.824 224.698C638.937 221.703 629.84 230.826 626 230L648 209M81 186L81 190M691 187C686.059 197.595 674.071 205.704 666.039 214.004C646.181 234.525 627.512 258.555 603 273.529C592.897 279.702 577.487 286.13 566 280L571 276M573 198L581 194M764 194C768.223 196.349 771.652 197.391 776 195M779 195L805 194M209 195L213 209M441 231L471 240C469.433 234.139 458.207 231.115 458.207 226.96C458.207 222.063 473.309 215.338 477 212.709C486.604 205.869 499.692 196.464 512 195.731C523.306 195.057 539.922 205.972 548 213C538.586 222.836 519.157 238.723 516 252C531.548 250.407 555.645 233.016 565 221L549 213M773 198L770 205M192 200L189 218L178 218M533 202C539.416 198.708 549.328 200.918 556 203M830 202C842.524 204.871 855.212 209.126 868 210.636C872.932 211.218 877.973 209.692 883 210.17C890.367 210.87 900.319 214.51 907 211M555 203L551 209L542 207M203 204L199 220L208 207L204 204M208 207L211 207M655 208L657 207M551 209L551 211M872 211C881.237 217.123 906.26 222.175 917 219L915 216M650 212L641 223M917 213C929.077 214.626 940.885 218.226 953 219.714C966.194 221.334 979.342 220.809 992 225.929C1008.14 232.456 1022.83 244.818 1037 254.72C1049.59 263.516 1064.26 278.843 1061.78 296C1059.71 310.346 1039 326.746 1027 333.088C1014.29 339.803 997.093 343.734 983 340.5C973.9 338.412 965.355 332.849 956 332.093C942.686 331.018 934.16 334.888 923.004 341.731C919.946 343.607 917.284 347.166 913.911 348.323C906.721 350.789 899.678 347.196 893 352L896.708 367.714L915 385L873 413C879.98 423.609 890.612 436.921 905.911 434.995C911.738 434.261 918.157 428.308 924 426.334C929.911 424.337 940.634 423.507 944 418C933.15 415.417 920.755 417.07 910 419.499C906.831 420.215 900.802 420.719 898.732 423.514C897.096 425.724 898.707 429.525 899 432M151 214L146.343 223.586L131.523 235.286L127.387 247L104 272M126 230L148 216M256 217C253.217 220.897 244.553 231.688 247.133 236.698C250.979 244.166 266.645 244.481 265.767 256.001C265.468 259.93 262.912 263.111 260.406 265.957C258.052 268.63 255.386 270.806 252 272.03C231.129 279.578 219.946 247.14 242 244C242.573 256.34 257.02 261.32 259 247M195 230C192.795 228.075 188.604 224.878 189.792 221.361C191.038 217.673 196.047 222.04 196.674 224.044C197.71 227.358 195.183 234.2 195 238C201.343 237.352 204.31 231.649 208 227M917 219L919 219M200 220L197 223M195 238C191.521 241.477 188.134 245.175 184 247.892C160.6 263.268 157.943 222.225 180 223M140 224L142 226M50 233L47 232L66 225M272 225L259 245M275 225C284.856 231.269 299.501 238.95 311 241M199 228L197 234M586 268C594.163 257.169 609.876 230.02 625 230M923 247C922.571 243.994 922.304 240.968 923.232 238.005C928.317 221.771 961.416 236.799 944.891 252.863C942.901 254.798 940.6 255.924 938 256.801C934.102 258.116 930.07 258.576 926 259C925.672 255.865 925.855 248.853 921.775 248.086C916.427 247.08 905.41 256.205 901 259.1C883.746 270.43 860.331 277.475 846 293C865.369 303.337 884.677 283.321 892 266M49 234C41.8396 240.531 23.9141 256.136 14 255C21.5829 244.705 35.1889 238.376 46 232M940 234C945.491 241.813 942.904 247.557 938 255M917 247C915.24 241.316 917.195 237.644 923 236M97 252C101.985 241.537 118.272 237.365 129 238M246 237L234 245M55 299C41.5338 299.278 21.5037 309.091 9 304C17.8467 285.088 21.9007 263.622 43 254.504C51.4071 250.871 60.3842 251.498 69 248.957C73.0289 247.768 90.0411 236.326 92.9329 239.708C94.9807 242.103 92.473 248.089 92.5988 251C92.9817 259.863 101.151 277.045 95.3966 284.856C87.8018 295.164 68.3068 292.751 58.0895 297.546C51.5609 300.609 45.2548 309.946 40 314.961C29.546 324.936 15.2291 336.113 2 342M243 240L243 243M471 240C477.968 245.768 486.548 251.229 495 254.536C500.854 256.827 510.073 257.974 514.721 262.328C519.235 266.555 518.775 274.371 519.039 280C519.708 294.218 521.992 304.838 512 317L510.961 297L509 261M516 252L513 255M926 253L931 258M14 255L2 264M566 280L544 289L552 268L537 258C546.513 251.158 552.258 258.081 555 267L570 270M257 257L260 265M537 259C534.39 261.753 530.901 264.945 530.608 268.999C530.118 275.786 537.613 279.39 543 277L543 265M507 260L429 312.424L405 333L391 345M885 279L925 260M554 266L552 268M305 288C308.176 283.736 307.52 279.207 310.13 275.167C311.991 272.285 324.461 272.457 325.079 276.314C326.007 282.114 309.032 289.356 305 288M572 272L577 273M316 274L311 284M1069 275C1071.54 288.679 1078.26 310.823 1070.82 323.895C1065.6 333.083 1039.73 336.325 1030 338.257C1012.56 341.721 995.987 351.544 978 351.985C957.861 352.48 937.942 342.94 918 349L935.031 367L939.437 386L944.277 396L945 417M543 277L548 278M551 279L554 280M61 296C64.1255 289.298 72.3532 281.329 80 280.218C88.8122 278.937 101.1 285.961 99.6559 296C98.3403 305.142 91.9552 314.193 87.4244 322C74.7302 343.872 58.8796 359.462 42.0756 378.001C36.5123 384.138 31.118 399.467 23.8148 402.914C18.9734 405.198 14.616 397.992 12 395L2 406M169 378L174 379L168 402C176.338 399.729 183.894 390.856 189.996 384.961C201.345 373.997 211.341 361.538 222.09 350C229.443 342.106 238.285 334.91 243 325C215.911 331.212 200.666 361.232 177.576 374.192C164.177 381.712 148.245 379 133 379C119.119 379 104.414 380.066 95 368C102.329 363.129 106.089 355.284 112.039 349C131.211 328.754 148.816 306.28 173 291.8C183.327 285.617 199.509 276.764 211.999 281.109C219.381 283.677 223.158 291.711 229 296.536C239.409 305.133 250.171 304.618 251 319C257.318 317.142 266.916 308.63 273.772 311.607C279.974 314.301 277.336 334.911 279 341C289.331 334.654 303.815 325.857 306.61 313C309.16 301.27 299.314 291.265 289 288.092C273.696 283.383 257.918 285.79 247 299M292 289C296.587 285.244 300.434 283.079 306 286M878 286L888.671 291.314L898.194 312L907 342C896.872 340.194 887.533 333.654 878 329.927C867.994 326.015 857.395 327.487 847 327.74C843.849 327.817 840.001 326.398 837 327.198C827.057 329.845 822.217 341.427 813 345L817 343M813 345C796.679 360.033 774.796 370.009 752 367.83C737.912 366.484 725.264 360.66 711 361.015C701.713 361.246 692.412 363.528 684 367.12C682.133 367.917 677.373 369.548 676.346 366.643C675.034 362.935 681.633 358.765 684 357.015C693.461 350.018 703.057 343.347 713 337.053C734.168 323.654 756.15 310.995 779 300.694C787.626 296.806 797.598 290.248 807 288.78C818.821 286.934 832.833 293.992 845 294M300 293L305 289M543 290L532 302C537.343 302.731 542.084 299.611 542 294M870 295L879 294M862 299L839 326M532 302L521 308M10 305L1 308M7 308L1 333M512 318L506.351 341L475 373C480.037 373.295 483.857 369.582 488 366.953C497.065 361.201 510.211 355.52 508 343M250 319L243 325M281 334L280 335M865 344C856.11 337.63 847.088 345.894 839 350L838 349C841.46 340.747 847.403 334.407 857 334.59C866.935 334.78 870.453 347.721 866 355C868.694 356.107 872.372 355.82 874.701 357.617C877.31 359.63 877.892 362.965 881.058 364.487C884.725 366.249 890.465 365.663 892.972 369.419C894.749 372.081 896.898 385.484 891.852 385.694C885.155 385.974 877.142 375.929 874 371C863.921 379.664 859.257 397.566 856.575 410C855.606 414.491 853.032 421.606 856.553 425.57C861.968 431.665 872.325 429.13 879 428M818 339C820.885 340.154 819.53 338.486 820 336L821 336L822 336L823 336M815 340L818 339M279 341L287 376M5 342L43 378M907 342L910 347M868 343L885 349L877 352M850 350L864 345L865 354M893 352L888 349L896 349M916 348L918 350M885 349L888 349M839 350C835.181 358.232 837.173 367.913 848 368.694C852.656 369.03 857.337 366.407 862 366C860.731 375.503 846.922 385.277 860 392M856 350L862 352M839 352C846.387 364.734 851.529 364.673 860 352M843 360L857 355M1 357C1.85534 366.735 8.38579 374.42 14 382L25 372M866 357C864.213 365.589 874.148 364.407 869 357M792 361L783.889 371.015L786.424 389L794 432L834 398.946L853 383M838 363L841 361M872 362L876 363M837 363C829.517 369.027 814.569 374.287 810.194 383.04C807.124 389.182 808.903 401.857 808 409M865 363L862 366M874 364L874 371M735 366C725.446 371.099 709.594 369.637 699 369.235C693.773 369.037 689.49 370.038 685 367M775 367L783 370M1 369C2.67078 375.297 5.49816 386.907 14 383M677 369C673.865 378.03 660.638 384.782 653 390M475 373L412 429M177 376L174 379M43 378C57.816 392.816 75.0518 404.832 93 415.6C100.899 420.339 109.824 426.364 119 428C118.179 412.177 101.689 400.327 101 385C107.349 389.567 111.697 396.336 118 401.1C130.421 410.488 154.652 415.389 167 403M166 380L163 405M287 380C287.008 392.356 289.047 408.055 295 419L306 414C301.866 411.39 299.393 412.324 295 414M97 381L100 385M757 410L724 385C734.107 381.804 746.133 383.033 752.945 392.015C755.959 395.99 760.692 405.198 755.682 409.396C748.495 415.418 732.518 406.505 724 409C727.913 413.344 731.899 413.722 737 411M14 384L25 391M9 385L2 396M711 385C721.203 387.227 740.437 398.221 743 409M718 387L724 385M915 385L937 386M15 386L12 394L18 388M928 387C931.62 390.162 935.62 390.98 940 389M655 390C665.069 395.812 679.699 398.72 691 401.599C695.861 402.837 699.851 404.417 704 401C700.001 398.135 697.443 397.878 693 400M445 478C462.94 466.167 482.636 460.745 502 452.714C520.076 445.218 537.385 434.87 554 424.576C570.796 414.168 589.993 393.875 611 393.354C630.027 392.882 651.225 400.588 670 403.753C676.224 404.802 687.99 411.21 690 402M724 393C721.179 398.593 710.058 400.565 704 401M306 414C323.947 406.065 342.398 400.683 362 397.59C369.629 396.387 378.921 394.222 386 398M599 400C617.936 403.516 637.799 406.311 657 408C664.843 408.69 672.039 412.007 679 407M710 401L723 408M824 459C814.033 458.816 822.029 449.295 824.975 445C831.007 436.208 837.821 427.991 843.565 419C847.242 413.243 850.869 405.352 857 402M703 404C707.847 408.113 713.115 410.092 719 407M166 407L175 419M690 408C720.811 416.679 752.311 429.563 784 433.046C795.565 434.316 807.717 439.214 809 452C803.441 449.116 794.513 443.596 794 437M165 409C164.668 416.729 163.67 425.939 174 419M304 411L311 411M573 413C571.821 410.685 571.303 409.97 574 410M757 410L785 431M494 453C515.729 434.48 545.007 423.324 570 410M808 412L807 413M299 455C300.21 459.092 298.768 465.317 301.603 468.682C305.71 473.557 327.45 472.719 334 473C329.933 454.018 317.832 446.096 300 454L294.925 435L285.752 422.015L291 416M295 419L286 424M127 433L139 442L127 454L122 433L142 421M944 422L938.942 447.995L935 461C937.806 458.597 938.342 457.455 937 454M885 427C888.992 424.049 892.098 423.304 897 424M188 487C192.517 479.653 197.075 469.691 202.572 463.326C208.329 456.659 218.507 452.927 226 448.576C244.366 437.91 261.822 424.109 284 425M119 428L121 432M807 428L807 442M150 429L139 442L150 449C139.012 455.684 130.045 456.426 130 472M887 430L898 446C904.091 442.514 908.585 447.163 914.847 446.383C921.14 445.598 913.043 440.536 911.001 439.928C908.073 439.057 906.336 437.964 904 436M292 431C287.677 437.79 283.522 445.377 280.865 453C280.124 455.125 278.095 460.122 281.333 461.211C286.18 462.843 294.321 456.348 299 455M794 432L794 434M909 435L912 438M114 448L110 448L121 437M901 437L901 443M896 442L900 439M150 441L146 444M2 454C3.87564 450.68 17.761 440.096 19.0787 449.228C20.0143 455.713 6.84014 462.911 2 465M116 446L117 446M145 446L143 449M898 446C898.001 451.385 897.798 463.247 901.059 467.556C906.714 475.026 919.588 475.533 923.396 486C927.279 496.672 912.399 511.244 905 517C901.97 512.571 900.055 507.825 895.985 504.13C880.22 489.819 860.427 503.749 844 510.203C837.925 512.59 820.278 515.345 819.993 523.016C819.654 532.143 821.984 553.342 829.225 559.667C832.072 562.155 835.581 561.339 839 560.87C852.292 559.044 856.135 551.685 858 539C852.375 539.001 833.202 538.555 830.328 544.433C828.291 548.6 831.349 554.113 829 559M918 446L934 454M110 448L98 461M150 449L152 449M810 453L812 463L818 458M126 455L117 464M199 456L191 462M898 456L894 464L899 464M127 458L130 465M464 466L462 459C466.556 457.865 469.34 459.211 473 462M823 460C821.84 474.572 813.472 491.57 816.633 505.985C817.616 510.463 821.069 513.046 823 517M933 461C930.34 500.378 917.225 533.164 877 546C872.074 537.461 868.422 538 859 538M480 462C487.903 468.047 498.891 470.365 508 474.281C545.886 490.568 587.49 495.639 625 512.619C636.393 517.776 647.074 523.317 657 530.989C660.744 533.883 665.884 539.618 671 538.233C709.515 527.809 742.814 501.055 777 481.861C785.079 477.325 792.89 472.342 801 467.861C804.426 465.968 808.333 463.182 811 467M902 462C913.102 465.85 920.716 464.486 932 464M893 465L880 496M182 474L178 481L200 466M188 468L191 471M465 470C465 501.923 466.662 533.321 471.576 565C473.056 574.548 473.237 584.74 476 594C481.227 592.28 488.746 586.436 480 583M901 471C900.999 480.901 898.754 493.23 894 502M1 472L7 492C11.9806 489.5 23.5551 484.273 28.9452 487.042C34.7014 490 34.8778 499.638 37.3125 505C42.268 515.915 50.1375 528.033 60 535C61.3227 529.01 57.137 526.797 52 525M177 472L171 479M470 473C470.08 497.029 476.296 522.288 480.247 546C481.988 556.449 485.822 571.736 483 582M335 474C348.573 482.245 365.945 490.989 382 491M31 485C45.1388 481.025 64.385 476.32 79 478.755C83.1312 479.443 94.5143 481.615 93.1682 487.911C91.1235 497.473 75.0613 492.133 69.1088 494.603C61.408 497.8 65.1914 515.938 67 522C75.3365 513.594 83.4611 505.2 92 496.989C94.99 494.114 99.9507 488.347 104.79 490.329C113.076 493.722 119.846 516.688 131.985 512.928C136.748 511.453 149.387 497.885 144.381 492.742C138.475 486.675 125.877 494.282 121 498M338 478C344.257 491.001 336.722 506.548 339 520C344.521 515.793 350.34 510.983 352 504M178 481L170 490M473 483L475 484M7 492C7.36285 499.941 12.2505 507.867 1 508M324 493C311.846 501.2 298.498 511.937 290 524M813 494L815 496M887 500C888.562 503.277 890.448 506.224 894 504M345 501L341 503M892 507L896.428 516.019L896 535M320 522L338 509M817 510C813.779 514.353 811.17 520.893 819 520M891 512L874 539M858 537C857.997 532.587 852.904 517.527 855.121 514.708C857.132 512.151 862.334 516.04 863.956 517.39C869.796 522.252 870.941 529.824 871 537M132 514C136.446 517.389 151.663 517.915 153.263 523.278C154.897 528.755 144.889 537.394 141.715 541C129.229 555.181 113.596 569.832 95 575.38C89.9462 576.888 83.7795 574.124 79.3326 575.774C76.2852 576.905 77.8516 581.837 78.8542 583.926C82.007 590.494 91.6855 582.799 96 580.782C109.987 574.243 126.956 574.313 142 571.576C146.256 570.801 156.505 570.01 159.289 566.436C162.211 562.684 154.997 550.922 155 546M819 514L819 518M824 519C826.001 525.584 826.917 532.065 823 538M813 520L796 547C805.657 550.417 814.727 544.998 824 543M338 521C335.016 532.774 338.083 552.45 344 563M67 522L61 530M2 528L46 523M782 528L810 523M66 525C68.9006 530.407 74.6751 549.996 71.8827 555.714C68.2456 563.163 56.7803 570.724 51 577M798 526L806 530M808 529L820 535M193 622L187 622C191.774 613.743 200.568 607.193 205 619C212.282 613.216 218.124 607.601 213 598L202 606C196.608 595.889 191.969 583.765 198.45 572.444C200.437 568.974 209.433 567.03 213 565.247C224.572 559.461 234.376 551.507 246 545.752C254.266 541.66 268.31 531.502 277.941 533.407C283.809 534.568 282.711 550.008 284.88 555C290.601 568.172 304.455 569.204 313 579C324.675 571.294 342.498 570.679 356 567.651C359.654 566.831 369.183 563.671 371.393 568.318C373.592 572.941 369.504 581.13 368.95 586C367.182 601.527 365.969 617.392 366 633M59 535C59.0011 544.885 62.6123 550.858 68 559M75 536L70 539M60 545L68 540M670 541L674 635L671 724M258 542C261.74 549.008 259.7 558.251 260.039 566C260.743 582.066 274.325 613.224 255.999 623.347C245.969 628.888 232.09 619.736 222 618L208 642L210 640M824 543L829 545M59 545L46 557L53 556M291 553C295 548.211 311.241 538.785 314.211 550.055C315.576 555.232 310.021 561.447 307 565M876 546L854 555M791 551L786 561L782 557L796 548M785 561C781.608 564.886 777.462 569.437 772 569.876C766.773 570.296 759.495 566.252 761.762 560.055C764.285 553.157 779.626 550.859 786 550M199 570L201.024 556.643L209 555.957L230 553M158 556L186 577C186.926 582.609 190.914 583.074 196 583M74 558L77 574M68 560L73 566M788 561C799.347 563.936 818.682 567.81 829 561M829 563C830.616 567.777 838.726 580.9 835.303 585.363C831.374 590.485 819.761 594.315 814 597.244C797.962 605.397 782.173 613.725 767 623.435C742.28 639.254 720.662 659.57 699 679.17C690.491 686.869 682.292 700.099 672 705M186 577L197 573M327 575C333.769 578.612 346.227 573.066 351.393 577.042C355.299 580.05 349.726 587.958 348.258 591C342.477 602.983 338.814 619.704 339 633M172 583L182 578M312 578C308.838 584.06 312.532 587.203 316.336 592C325.251 603.243 330.244 615.406 338 627M284 581L310 580M180 582L185 582M485 583C496.426 586.306 511.025 589.3 520.981 595.969C523.75 597.824 529.731 604.014 529.083 607.786C528.435 611.563 520.792 611.476 518 612.789C507.963 617.51 498.093 630.326 488 621C496.308 613.126 486.359 601.91 477 600L478 610L485 606M198 584C204.088 588.161 211.718 589.698 213 598M191 585L194 589M486 590L502.544 600.228L502 620M483 592L484 601M489 592L485 594M477 611L455 606C460.37 599.405 466.704 595.907 475 595L476 599M194 596L194 611M504 600C509.734 601.039 517.208 605.858 520 611M54 642C48.5733 646.235 27.6798 650.367 21.2894 647.012C16.2336 644.357 15.5987 638.764 12.277 634.715C10.0991 632.061 3.84198 628.572 3.95216 624.871C4.28846 613.574 25.3329 599.489 35.9599 603.603C41.6034 605.788 46.0321 615.075 49.0856 620C54.261 628.348 52.1964 636.249 56 644C69.948 636.062 90.5756 640.178 100.471 653C105.211 659.142 106.374 667.037 111 673M519 607L525 604M48 617C49.9836 614.025 51.6362 609.831 54.5185 607.619C57.5923 605.259 61.5452 607.245 61.7438 611.044C61.9777 615.518 58.1696 620.321 56 624M202 606L198 610M455 606L455 617C459.625 619.157 474.714 632.669 472.655 638.681C471.711 641.44 461.125 641.128 458.015 644.056C445.039 656.272 429.242 670.461 419 685C434.78 693.421 448.033 678.053 440 663M514 606L504 610M491 607L502 607M202 608L202 612M454 618C439.806 624.635 427.919 637.003 417.004 648.001C412.267 652.773 408.861 658.549 403 662C402.014 655.233 406.99 649.169 410.898 644C420.385 631.454 436.788 611.226 453 608M484 609C483.929 621.863 480.556 624.731 471 633M469 610L458 617M478 612L481 624M205 613L210 615M213 613L221 617M360 613L364 623M497 623C495.867 618.161 496.146 615.962 501 614M493 616L495 618M480 617L483 617M546 659C537.799 655.906 526.687 653.118 518 655L559 665C550.512 674.64 539.92 681.797 531.807 692C528.077 696.692 523.389 701.945 526 708C536.452 691.796 548.946 685 568 685C567.826 676.825 563.893 671.841 560 665C579.24 650.502 598.619 627.36 621 618.086C627.045 615.582 642.535 620.958 646.393 626.214C649.3 630.174 646.61 636.608 646 641C644.696 650.387 643.087 659.714 641.199 669C640.408 672.891 637.959 678.004 638.502 681.96C639.149 686.668 645.748 689.379 648.999 692.17C657.804 699.728 662.745 709.237 670 718M205 619L210 635M485 621L488 621M96 647L117 629.49L126.701 624.994L132.144 630.533L146 643C149.051 640.346 153.725 636.334 157.981 636.016C164.277 635.547 161.413 641.644 159 644M502 625C501.887 630.491 502.503 647.795 494.956 648.633C491 649.072 486.498 645.499 483 644M482 626C483.275 634.308 475.002 643.407 477.644 650.941C479.051 654.958 483.433 655.015 487 654.995C497.446 654.938 507.44 654.913 518 655M492 626L485 631M4 628L8 640L12 636M470 633L465 638M602 633C614.513 641.526 626.895 644.667 632.251 661C633.353 664.363 635.57 671.224 632.972 674.382C631.179 676.561 625.666 675.691 623 677C626.322 683.038 631.343 690.539 638 684M441 659C439.912 654.429 437.53 640.202 441.603 636.774C445.684 633.34 456.343 638.729 460 641M9 639L14 642M213 639L211 641M8 640L2 645M229 642L228 643M146 644C153.35 658.018 150.252 668.989 138 678C146.469 683.264 154.514 687.119 162 694.089C166.367 698.156 171.397 706.408 177.039 708.534C183.344 710.91 183.095 701.231 188.109 700.502C201.797 698.513 214.31 712.793 218 724L215 726M619 645C618.29 653.99 614.756 669.894 623 676M49 646C43.3396 650.315 36.4053 651.418 30 648M95 647C91.8486 649.905 84.9801 654.061 85.2562 658.996C85.6592 666.201 96.167 670.503 101 666M770 715L775.985 674L775.068 656.603L786 653.804L821 649.576L834.802 650.603L834.246 669L824 718M580 650L599 658.258L617 670M498 651L498 652M770 655L774 657M593 658C601.427 666.434 608.678 676.291 611.841 688C614.018 696.059 611.052 702.116 602 701.944C589.171 701.702 581.65 689.343 570 687L568 729C584.853 721.984 602.373 713.234 618 703.796C624.356 699.958 631.89 695.519 634 688M944 681C944 677.114 941.742 667.659 944.042 664.603C945.808 662.258 951.347 662.611 954 662.285C960.648 661.468 982.48 656.227 986.972 662.514C991.271 668.531 987.361 684.196 986.424 691C985.184 699.997 985.032 708.984 984.17 718C983.892 720.9 984.698 725.135 982.397 727.393C978.805 730.917 970.125 727.231 966 726.36C955.798 724.207 932.086 727.668 937.322 709.148C938.482 705.045 945.548 705.363 949 705.086C961.203 704.105 972.961 700.05 985 699M564 663C573.354 668.018 590.363 669.781 601 670M1 688C13.7123 688.199 4.16703 669.333 11.1489 665.179C16.8446 661.79 20.9196 665.267 20.956 671.001C21.014 680.141 20.4969 691.887 16 700C11.4709 695.937 7.11241 693.537 1 693M868 715C881.981 729.11 907.873 689.165 885.999 684.189C881.806 683.235 877.29 682.858 873 683.039C868.14 683.244 862.642 683.627 858 685C852.104 663.502 874.619 665.691 888 664M1012 664L1012.1 683L1012 725M1 669L20 675M108 671L102 671L107 669M97 670L86 678M99 671L102 671M104 673L97 682M607 674L618 675M1014 682L1044 675.573L1054.98 675.618L1056 692L1056 736M23 677L62 690C59.998 692.166 58.0405 694.827 54.9606 695.397C51.6385 696.011 47.3698 693.818 45.0278 697.318C42.0947 701.701 40.0483 724.185 46.1474 726.306C49.3131 727.408 53.8565 725.44 57 724.801C66.5757 722.855 77.2645 720.934 84.956 714.482C94.3578 706.596 87.2426 695.074 76 696.475C70.4846 697.163 65.4757 695.975 60 696M120 678L138 678M211 707C214.32 684.849 237.861 677.658 257 681.196C267.2 683.082 269.454 678.325 274 689C277.539 686.306 284.599 677.585 289.625 679.287C291.984 680.086 293.895 682.984 296.042 684.32C298.001 685.539 302.526 686.91 302.079 689.938C301.233 695.66 289.052 701.302 285 705M625 679L637 685M779 687C794.969 685.729 813.1 682.05 829 685M568 685L570 687M62 690C69.7876 688.067 75.0522 685.11 78 695M274 689C275.838 699.677 293.321 729.255 276.995 735.991C264.88 740.989 249.378 731.022 238 737L283 758.229L327 790M67 691L64 695M116 713C121.618 709.158 129.713 698.788 136.945 698.851C140.682 698.884 141.693 703.144 142.666 706C145.215 713.483 150.285 722.043 148 730L124 721C125.536 726.411 126.426 733.302 129.703 737.957C143.045 756.908 172.428 734.156 189 743L182 749C186.941 751.637 213.116 754.7 209.392 745.058C207.318 739.688 196.508 739.76 197 746L198 747L199 748M89 699L101.238 715.146L124 721M526 700L529 703M525 702L528 705M524 707C518.078 715.392 516.7 725.596 527 731L526 708M213 710C222.2 715.656 235.341 723.818 238 735M118 712L122 719M95 713L98 713M225 719C221.392 723.562 222.301 725.781 226 730L231 725M219 723L221 723M568 729C557.223 737.311 538.37 745.123 528 732M227 730L216 739M227 730L238 737M567 733L563 747L550 740M231 735L229 737M491 739L523 742C514.48 754.46 502.317 764.475 490.947 774.236C488.073 776.703 480.118 781.466 482 786M499 742L513 752M792 799L795 805C785.244 807.884 774.129 806.142 764 808.626C761.145 809.326 755.321 811.734 752.603 809.883C748.747 807.257 751.629 796.753 752.05 793C753.873 776.766 751.404 757.547 756 742L765 745M189 743L194 743M549 747C538.851 753.212 528.059 758.334 518 764.709C511.901 768.575 506.013 772.975 499 769M484 777C483.839 762.537 470.805 761.172 463 752C480.4 746.498 484.086 757.995 495 769M202 752L208 767L210 753M460 752L463 752M514 753L517 763M368 756C366.612 767.84 382.102 777.401 384.456 789C388.147 807.18 354.117 804.82 344 801.273C338.942 799.499 336.644 796.793 331 798M211 757C218.473 765.75 213.923 797.607 233 784.367C236.061 782.242 238.754 779.868 242 778M325 788L322.121 771.564L334 767.525L367 757M1060 758L1061 770L1094 769M812 759L814 802M29 784L17 772C26.6905 758.825 31.7583 763.498 46 762.98C50.2908 762.824 53.7732 760.331 58 760.062C63.0713 759.741 67.8872 761.944 73 762C72.9379 769.497 70.0303 776.533 70.0293 784C70.0289 787.167 71.7511 791.8 69.3819 794.436C66.1654 798.014 59.2577 796.727 55 797.749C50.0441 798.939 44.071 803.273 39.044 803.037C32.8013 802.744 30.4262 789.851 30 785L38 792L46.213 777.015L65 762M687 801C687.024 792.232 689.771 783.821 688.826 775C688.467 771.64 685.934 766.488 688.042 763.357C689.888 760.617 694.27 762.004 697 761.946C702.869 761.821 723.257 756.59 726.687 763.318C728.452 766.78 727.068 774.249 726.576 778C725.37 787.179 724.006 796.738 724 806M814 778C821.101 765.768 827.881 766.16 841 762.421C844.089 761.541 851.432 758.17 853.933 761.604C855.648 763.959 854.057 769.222 854 772M886 760.607C890.098 760.442 911.775 762.401 913.353 766.303C915.145 770.734 911 780.777 911 786C911 790.767 913.7 799.697 910.397 803.57C905.623 809.169 889.876 809.817 883 809.985C880.064 810.057 874.104 811.042 872.029 808.397C869.455 805.116 872.054 796.79 872.576 793C874.157 781.526 869.688 761.266 886 760.607M74 761C96.0027 761.26 66.9102 780.537 81.0154 787.821C95.7688 795.44 115.875 780.784 129.956 793.225C135.307 797.953 136.493 804.176 135.829 811C135.493 814.462 132.678 819.516 137.102 821.396C141.393 823.219 156.683 818.8 158.863 814.581C161.41 809.653 153.086 804.171 149 804.247C145.008 804.321 140.87 806.115 137 807M634 769L633 765C637.233 763.414 649.39 759.403 653.292 763.028C655.603 765.174 652.391 773.184 652 776C650.358 787.814 652.051 805.504 647 816L628 812M682 762L687 763M755 764L781 763M53 764L59 766M965 764C958.76 778.077 953.551 798.29 942 809C937.365 800.961 936.44 788.219 936.039 779C935.901 775.823 937.696 769.255 935.883 766.603C933.93 763.748 928.604 765.231 926 766M744 765L754 765M451 795C437.742 790.641 425.309 768.506 447 766.174C462.162 764.543 461.078 778.563 472.015 784.427C483.556 790.616 495.187 779.408 504 773M977 785C978.07 771.902 982.031 767.544 995 766.961C997.634 766.842 1001.27 765.605 1003.68 767.067C1006.61 768.835 1008.88 777.646 1006.38 780.262C1003.02 783.774 994.489 783.185 990 783.92C985.624 784.636 981.433 784.997 977 785M1 769L17 772M135 769C141.579 772.366 148.445 775.744 156 775M1021 811C1023 804.243 1020.58 789.709 1025.6 784.6C1029.77 780.363 1038.77 782.175 1043.83 779.066C1047.08 777.065 1055.89 767.336 1059.96 773.357C1065.91 782.162 1054.01 800.98 1056.16 811C1060.07 829.237 1097.88 821.584 1110 818L1107 811M1026 772L1025 782M153 776C140.448 786.314 137.643 788.007 149 802M235 778L238 780M434 781C432.753 785.163 434.484 786.764 438 789M439 781C449.846 782.378 458.1 785.02 465 794L475 786M424 814L420 816C426.64 805.281 410.309 793.304 425.999 784.978C427.981 783.927 429.824 783.415 432 783M976 786C976 794.367 970.988 810.213 974.603 817.686C977.733 824.155 990.346 820.93 993 816M427 787C426.235 796.695 427.925 803.526 429.526 813C430.139 816.626 429.611 820.739 432.489 823.552C437.376 828.328 448.596 828.512 455 829.586C459.456 830.334 474.92 835.426 477.867 830.471C479.563 827.621 476.32 823.458 475.123 821C471.613 813.795 468.359 804.895 467 797L456 802M480 788L468 796M465 794L465 796M157 806C178.69 806.448 199.196 817.417 221 818.911C256.657 821.352 291.993 809.091 326 800M1 839C18.7919 839 36.3084 834.395 54 834.054C69.3977 833.757 86.9636 837.721 102 832.273C114.548 827.726 121.865 813.348 135 809M424 814L428 819M2 817C5.91607 820.839 5.03856 824.636 1 828M421 818C430.756 835.177 462.814 853.485 479 833M434 826L434 831M882 840L860 848M901 840C946.083 843.558 990.179 841.441 1035 848.92C1044.55 850.512 1077.11 849.006 1074.57 864.895C1073.23 873.3 1051.32 874.264 1056 867L1057 866L1058 866M1 845L99 844.015L240 845.961L342 844L387 844M987 844L994 886C1003.04 873.29 1013.6 867.305 1030 866M872 850C863.067 856.835 850.445 859.519 840 863.424C820.508 870.713 801.035 878.73 782 887.14C772.862 891.177 759.167 894.672 752.477 902.518C749.648 905.835 751.958 910.244 752.56 914C754.092 923.562 750.352 935.291 755 944C760.899 936.344 763.603 925.461 758 917M697 852L734.7 888.911L750 905M1071 854C1088.89 848.711 1112.45 854 1131 854M28 859C24.0392 878.2 30.2396 898.158 34.4244 917C36.2233 925.1 40.9701 937.95 36.6821 945.895C31.1476 956.15 11.9616 957 2 957M1047 860C1047.73 864.218 1048.71 867.614 1053 869M664 862C664 871.597 663.739 881.453 662.83 891C662.375 895.787 660.31 902.258 661.407 906.961C663.92 917.738 677.504 928.702 682.561 939C684.633 943.22 686.861 948.231 686.917 953C686.969 957.315 684.609 961.928 686.832 966C694.099 979.311 712.953 988.941 723.985 999.17C737.738 1011.92 747.014 1029.55 762 1041L763 1021L760 970M609 868C601.606 893.013 605 925.064 605 951C605 958.44 607.358 968.759 605.643 975.856C604.273 981.524 585.471 981.866 581.564 978.972C578.343 976.586 579.006 970.483 579 967C578.984 957.175 573.89 936.431 582.189 929.434C587.998 924.536 597.293 928.47 604 929M1049 868L1009 884.589L994.604 893.143L995.711 907L997 932M329 876C323.637 893.649 321.942 913.749 324.155 932C324.68 936.326 331.208 952.37 328.918 955.303C327.426 957.215 323.879 955.616 322 955.324C316.616 954.488 305.803 956.545 302.028 951.436C297.836 945.763 302.48 926.797 303.285 920C303.585 917.469 303.415 912.757 305.603 911.028C309.169 908.211 318.632 910 323 910M243 884C243 900.163 242.88 916.989 245.13 933C245.751 937.413 249.692 948.55 246.933 952.397C243.199 957.604 222.801 955.486 217 955.196C214.507 955.071 209.746 955.721 208.067 953.397C206.265 950.902 208.127 945.74 208.586 943C209.888 935.236 209.478 916.495 217.144 912.028C223.446 908.355 235.026 911.995 242 912M512 884C512.74 893.372 518.086 912.201 514.382 920.812C511.05 928.558 496.768 915.664 492.028 921.604C490.084 924.04 491 929.1 491 932C491 940.267 487.18 962.232 493.589 968.397C496.957 971.637 503.885 969.177 508 969M994 886L994 890M176 888L178 894M838 922C841.345 910.632 851.933 903.143 862 897.89C866.976 895.293 873.421 893.725 877.258 899.133C880.332 903.468 878.165 909.481 876.644 914C872.734 925.62 864.522 947.204 855.471 955.562C848.285 962.2 835.23 951.2 833.469 943.985C830.265 930.855 836.338 927.214 844 919M660 905C651.958 897.179 664.148 896.962 670 897.003C680.632 897.078 709.219 897.848 715 908M677 898C680.465 905.32 688.368 910.15 692.896 917C702.935 932.188 702.299 947.929 700 965M658 934C657.365 940.566 659.552 944.79 666 947C665.053 936.486 654.92 924.14 646.999 917.616C643.927 915.085 635.596 911.569 634.346 907.714C632.162 900.985 652.145 899.032 656 899M703 902C704.119 923.575 727.282 950.834 704 969M58 912L59 916L79 910.768L96 903M454 906L455 906M929 906C937.636 912.402 949.85 928.848 949 909M348 937C348 930.075 346.547 918.122 351.854 912.603C356.682 907.583 377.089 905.49 379.566 914.044C380.208 916.26 379.977 918.746 379.715 921C379.408 923.635 379.656 928.24 377.972 930.4C372.332 937.638 355.619 932.587 349.693 938.858C347.629 941.042 348.982 946.253 348.999 949C349.023 952.772 348.424 959.28 351.013 962.397C354.949 967.134 369.581 963.045 375 963M856 927C856.841 920.754 858.069 914.241 863 910C865.003 916.776 865.846 927.159 859 931M158 914L180.508 912.117L180.845 923L178 957L159 951M661 911L657 928M2 915L26 913M109.004 915.533C127.054 913.591 126.266 926.801 129.756 940C130.66 943.417 135.085 951.072 132.879 954.397C131.457 956.539 127.225 956.124 125 956.424C117.688 957.412 109.362 960.767 102.059 960.562C96.6398 960.411 98.0631 953.607 98.5795 950C99.7997 941.475 98.3901 916.675 109.004 915.533M59 916L60 952M424 963C419.115 964.008 413.005 966.335 408.105 964.258C399.683 960.687 403.167 944.945 403.83 938C404.294 933.146 403.085 922.311 407.564 919.029C411.721 915.982 418.932 920.615 423 922M936 918L939 918M849 920L846 928L841 923M516 924C516 939.766 518.613 958.495 511 973M534 951C534.123 945.062 532.882 931.181 536.179 926.322C539.762 921.041 552.464 927.637 552.667 933.043C552.843 937.721 550.502 948.243 545.941 950.272C542.758 951.689 537.378 950.7 535.013 953.6C531.155 958.33 533.364 968.27 532 974C540.245 977.088 552.028 976.837 560 973M840 925L841 936L845 928M847 927C850.705 932.21 849.12 937.056 848 943M446 930C449.107 929.936 454.946 928.128 457.357 930.618C459.512 932.843 458.028 937.259 458.029 940C458.032 945.617 462.809 966.295 457.397 969.879C453.945 972.164 445.685 966.875 442 966M841 936L841 938M925 945C923.181 946.713 920.827 949.634 918.057 949.656C914.578 949.683 913.476 944.802 915.747 942.647C917.123 941.342 937.463 943.958 939.697 945.742C942.913 948.311 942.892 953.371 944.09 957C946.477 964.234 950.103 973.708 956.093 978.706C960.729 982.573 970.219 983.553 976 986.319C984.089 990.191 991.375 996.392 1000 999.076C1025.15 1006.9 1057.86 1001.25 1083 996M755 944L752 983M666 947C672.399 955.062 676.022 959.607 676 970M961 971C959.185 967.35 952.083 960.903 952.631 957.055C953.428 951.456 964.769 950.464 969 949.87C985.733 947.518 1000.36 948.298 1014 959.376C1027.24 970.13 1029.26 986.069 1029.96 1002C1030.17 1006.8 1028.26 1015.18 1030.6 1019.47C1034 1025.69 1051.22 1017.82 1056.57 1021.2C1059.45 1023.01 1056.17 1027.17 1055 1029C1050.67 1035.69 1046.43 1044.5 1039 1048M912 958L908 966L894 951C902.138 949.017 913.587 962.973 917 951M528 952L534 954M677 961L685 963M908 966L908 981M700 975L710 972M956 972L964 980M864 975C869.003 977.906 877.584 982.935 880 975M694 976L678 985M79 977C76.9967 987.791 77.8175 999.083 76.9421 1010C76.312 1017.86 73.9963 1024.75 74 1033C74.0025 1038.58 74.9418 1048.66 80.3441 1051.97C86.1169 1055.5 98.1536 1049.66 104 1048M656 977C655.405 984.537 649.796 1005.33 657 1010M121 979L121 1007L143.697 1006.04L146.999 1018L145 1049M299 980L299 982M881 980C879.511 989.388 870.772 984.949 865 982M2 981L3 981M911 983C916.972 981.455 926.155 978.948 931.721 982.938C938.36 987.697 935.734 1008.52 933 1015M482 984C486.282 984 498.073 981.943 500.972 985.603C503.662 989 502 997.875 502 1002C502 1015.81 508.654 1037.53 502 1050L490 1047M923 1058C914.655 1066.24 899.627 1045.72 896.125 1039C887.087 1021.65 895.925 998.626 911 988M233 1047C239 1046.65 254.28 1054.58 258.4 1051.22C261.276 1048.88 260.847 1042.34 261.282 1039C262.828 1027.13 261.56 1013.21 245 1017C243.838 1012.96 243.038 995.709 247.318 993.603C252.239 991.182 260.657 993.985 266 994M173 1020C173.264 1013.85 172.101 1001.54 175.434 996.333C179.123 990.569 196.571 996.951 198.867 1002.1C200.325 1005.38 197.656 1009.23 196.142 1012C190.976 1021.46 183.413 1023.08 173 1020C171.406 1025.25 167.266 1038.84 170.042 1043.79C172.484 1048.14 179.618 1049.57 184 1051M947 995C963.225 1009.57 987.647 1017.5 1009 1020.28C1015.77 1021.16 1023.42 1023.29 1030 1021M288 999C290.042 995.85 296.453 994.283 297.821 999.148C299.126 1003.79 298 1010.18 298 1015C298 1025.96 300.11 1039.48 297 1050L280 1048M319 996C321.948 1008.19 332.222 1005.96 343 1002.65C345.785 1001.8 350.618 999.146 353.411 1001.07C356.788 1003.39 355.902 1010.53 355.861 1014C355.721 1025.99 356 1038.01 356 1050M436 998C436 1007.66 437.57 1017.37 436.91 1027C436.605 1031.46 434.528 1037.63 437.028 1041.78C440.322 1047.24 461.863 1050.07 465.933 1044.4C467.694 1041.94 465.989 1036.94 466.447 1034C468.18 1022.88 470 1012.41 470 1001M620 998L619 999M411 1038C409.318 1032.31 409.181 1025.28 412 1020C421.229 1035.06 402.282 1052.49 387.109 1044.57C379.252 1040.46 382.987 1018.63 383 1011C383.006 1007.57 382.548 1003.11 385.434 1000.6C389.681 996.913 400.674 999 406 999M1074 999L1064 1013L1035 1009M66 1002L78 1005M412 1002L412 1020M1 1004L1 1040M78 1005L86 1006M321 1005L323 1014L325 1006M522 1027C522 1021.66 520.358 1012.79 523.858 1008.31C528.205 1002.75 544.393 1003.59 547.486 1010.06C552.048 1019.6 550.987 1036.55 551 1047C551.005 1050.55 551.831 1055.52 550.258 1058.81C547.755 1064.06 531.97 1060.78 527 1061.09C524.906 1061.22 521.627 1062.25 520.029 1060.36C517.919 1057.85 519.621 1052.79 520.211 1050C520.839 1047.03 521.241 1041.79 523.728 1039.71C525.925 1037.87 529.505 1039.69 532 1039.89C538.025 1040.37 543.966 1038.12 550 1038M120 1008L121 1018L124 1008M575 1009C570.151 1023.32 572 1041.96 572 1057M637 1010L653 1010M694 1009C694 1013.17 692.327 1021.99 695.028 1025.4C697.138 1028.06 702.228 1026.78 705 1026.18C714.953 1024.03 718.79 1020.16 719 1010M653 1010C652.993 1021.02 650.861 1032.09 649.424 1043C649.016 1046.1 647.714 1052.71 650.603 1054.97C654.811 1058.27 673.627 1054 679 1053M1066 1011L1078 1014M2 1012L9 1012M323 1014L320 1047M876 1014C850.255 1023.71 820.608 1027.63 794 1035.42C785.51 1037.91 772.54 1047.12 764 1045L763 1042M1064 1014L1062 1019L1084 1019M575 1025C582.023 1022.35 601.797 1012.49 608 1017M969 1015L970 1015M1080 1015L1082 1017M78 1016C79.1092 1023.77 79.7108 1037.05 76 1044M624 1016C628.36 1027.64 624.249 1040.93 624 1053M121 1018L119 1044M977 1020L979 1021M1059 1021L1061 1020M981 1022L983 1023M718 1023L718.576 1049L717.397 1058.93L700 1058M1028 1023L1018 1037C1025.23 1046.49 1022.23 1056.12 1018 1066L1056 1071M469 1028L477 1059M1008 1034L1018 1037M551 1037L554 1037M411 1041L411 1079L379 1071M2 1058L28 1057M916 1064C931.745 1074.3 950.152 1082.32 959.307 1100.29C962.281 1106.12 952.881 1110.61 958.238 1116.71C968.368 1128.26 990.456 1136.4 984.682 1155.85C982.882 1161.91 965.156 1158.68 960 1159.29C937.038 1161.99 901.953 1171.38 882 1156C895.92 1151.89 914.392 1153.93 929 1152.91C984.727 1149 1040.22 1154.85 1096 1155C1095.29 1148.46 1089.19 1132.29 1082.81 1129.35C1078.46 1127.33 1070.53 1129.8 1066 1130.61C1050.62 1133.39 1030.02 1138.11 1019 1150M994 1076C1004.2 1075.92 1008.47 1071.42 1017 1067M992 1077C985.272 1080.13 976.123 1089.57 969 1086C976.936 1075.59 998.55 1065.64 1012 1069M1054 1071C1042.1 1082.26 1022.18 1083.03 1012 1096C1017.94 1097.74 1023.04 1095.28 1029 1095.04C1038.32 1094.66 1048.76 1096.66 1057 1101M429 1073L428 1074M196 1128C191.622 1130.37 173.532 1134.66 170.603 1128.68C167.508 1122.36 172 1109.08 172 1102C172 1095.99 170.243 1080.38 174.028 1075.6C177.086 1071.74 195.146 1073.58 198.397 1076.74C204.411 1082.59 202.298 1096.94 194.985 1100.53C189.959 1102.99 181.956 1100.86 177 1099M329 1074L329 1092L349 1089M612 1075C618.103 1074.87 625.092 1072.58 630.852 1075.65C634.815 1077.77 635.564 1086.36 631.682 1088.97C625.231 1093.32 613.288 1087.04 607.738 1092.6C603.175 1097.18 603.263 1110.87 603 1117C610.391 1117.24 618.235 1125.27 625.852 1122.22C629.432 1120.78 629.777 1115.48 625.852 1114.32C620.993 1112.88 614.247 1114.7 610 1117M662 1074L661 1088L676 1088M1050 1076L1057 1086C1050.96 1088.95 1042.18 1085.83 1037 1082M571 1085L569 1081C589.196 1070.36 579.963 1099.29 578.424 1111C577.861 1115.29 579.348 1122.18 576.397 1125.68C573.751 1128.82 569.437 1127.82 566 1127M308 1100C302.861 1099.73 289.373 1104.65 285.603 1101.93C281.556 1099.02 284.885 1081.6 288.513 1079.03C292.23 1076.39 300.608 1078 305 1078M2 1080L6 1079M221 1124L228.341 1097L232.513 1087.02L255 1079L258 1098M56.6034 1082.12C58.9355 1080.52 64.2783 1081.98 67 1082C86.7052 1082.13 88.4722 1093.14 86.2816 1110C85.69 1114.55 86.2678 1122.09 81.8519 1124.84C77.7434 1127.39 60.354 1132.32 57.0278 1127.56C53.408 1122.39 56.1363 1109.16 55.9853 1103C55.8762 1098.55 52.1636 1085.15 56.6034 1082.12M101 1087L111.775 1082.41L116.414 1093L123 1121C131.407 1110.74 136.517 1082.84 152 1083M566 1081L569 1081M717 1081L721 1081M978 1122C979.512 1116.7 978.826 1111.03 981.561 1106C988.437 1093.36 1009.27 1085.63 1023 1085M223 1086L222 1111M825 1098C825 1104.16 827.659 1118.56 823.397 1123.36C820.539 1126.58 814.929 1127.46 811 1128.66C807.902 1129.6 800.589 1132.57 798.028 1129.39C795.919 1126.78 797.365 1121.96 797.714 1119C798.487 1112.46 795.994 1090.44 803.228 1087.33C807.992 1085.28 816.921 1091.25 822 1092M969 1087L960 1100M1057 1087L1066.93 1104.54L1082 1128M654 1089C662.931 1087.7 659.207 1101.42 658.961 1107C658.721 1112.41 654.048 1128.09 658.603 1132.01C661.608 1134.6 667.337 1133.85 671 1134.29C676.003 1134.88 680.225 1135.86 684 1132M479 1129C482.664 1115.96 482.665 1101.61 496.001 1094.51C498.631 1093.12 504.38 1088.32 507.397 1090.74C510.082 1092.89 509.061 1099.06 508.715 1102C507.585 1111.57 506.759 1121.38 506 1131M328 1091C326.203 1095.88 326.326 1100.88 325.83 1106C325.228 1112.22 321.52 1123.03 325.028 1128.77C327.9 1133.47 335.498 1132.02 340 1131.42C351.618 1129.89 364.312 1126.81 376 1127M634 1091L629 1115M702 1094C705.99 1092.74 714.671 1090.08 718.397 1093.03C721.213 1095.26 720.005 1101.85 720 1105C719.982 1116.12 721.413 1129.99 708 1130M747 1092L747 1106C752.266 1102.17 759.277 1092.65 766.856 1094.36C770.874 1095.27 770.919 1100.74 770.985 1104C771.169 1113.18 769.991 1125.35 767 1134M325 1093L326 1093M450 1125C450 1118.09 448.756 1106.11 453.843 1100.56C456.361 1097.82 477.441 1091.69 479.972 1094.64C482.344 1097.41 481 1104.57 481 1108M396 1098L425 1095M424 1096C423.597 1105.37 426.081 1122.41 422.397 1130.85C418.826 1139.03 406.425 1132.73 407 1125M534 1096C533.999 1105.88 530.419 1115.02 531.044 1125C531.451 1131.5 535.358 1134.88 541 1131L535 1108M981 1113C989.919 1104.11 999.663 1101.71 1011 1097M940 1100C943.793 1105.97 948.263 1111.39 955 1114M1 1101C3.5185 1101.28 6.25618 1101.53 7.38194 1104.23C8.79461 1107.61 6.92852 1112.4 7.04321 1116C7.34239 1125.38 12.1183 1139.59 1 1144M554 1101L557 1138M305 1102C304.051 1109.51 307.5 1130.04 302.258 1135.4C297.221 1140.54 276.263 1139.21 283 1128M961 1104C966.031 1109.84 971.138 1109.68 978 1112M748 1106L743 1125M985 1140C986.549 1104.45 1039.66 1106.19 1065 1106M967 1118L978 1115M1011 1153C1008.15 1158.18 999.776 1161.49 999.127 1153C998.44 1143.99 1007.29 1134.79 1014 1130.04C1032.11 1117.22 1046.41 1115.07 1068 1116M553 1124C542.937 1135.97 544.3 1123.04 552 1117M602 1118C599.092 1129.14 588.65 1129.3 579 1127M986 1143C992.985 1141.92 996.836 1135.63 1002 1131.33C1009.86 1124.77 1019 1120.07 1029 1118M1054 1119L1055 1119M1059 1120L1065 1121M1069 1122L1073 1124M371 1123L373 1125M825 1125L823.972 1142.59L814 1143.83L786 1142M541 1131L543 1131M1094 1133L1094 1138M825 1146L826.603 1154.61L845 1155.32L882 1156M1 1165C49.5144 1165 97.6118 1159.58 146 1159C209.985 1158.24 273.993 1163.76 338 1160.96C378.084 1159.21 417.957 1152.79 458 1151.04C532.546 1147.78 606.543 1152.11 681 1153C728.655 1153.56 776.984 1151.32 824 1156M1056 1149L1061 1149M1065 1149L1069 1149M1096 1155C1104.96 1159.07 1121.02 1156 1131 1156M269 1175C270.402 1193.4 263.93 1210.56 258.908 1228C248.659 1263.6 229.438 1299.67 198 1321.1C180.705 1332.89 160.621 1339 141 1345.52C123.147 1351.44 100.937 1357.42 82 1356.99C53.4148 1356.33 28.0073 1346.83 2 1336M538 1387C534.237 1383.7 529.503 1380.56 529.629 1375C529.828 1366.19 539.12 1359.33 546.566 1366.51C550.212 1370.03 548.917 1376.23 546.297 1379.96C544.231 1382.89 540.166 1384.12 538.564 1387.27C532.667 1398.88 535 1421.18 535 1434M549 1387L546 1434M855 1434C831.061 1466.41 805.73 1497.98 782.589 1531C774.111 1543.1 765.95 1566.08 753.545 1574.29C750.185 1576.51 746.232 1572.3 743 1571.43C737.259 1569.88 730.863 1571.99 725 1572C701.576 1572.04 678.46 1575.4 655 1573.17C649.492 1572.65 641.344 1573.89 636.278 1571.55C630.297 1568.78 625.269 1552.55 621 1547L625 1546M846 1446L843 1436L852 1438M515 1438C515.988 1442.52 524.066 1440.68 528 1441.22C539.679 1442.84 551.324 1441.65 563 1440.97C566.664 1440.76 573.363 1438.24 576.667 1440.72C579.346 1442.74 578.08 1450.15 577.611 1453C575.961 1463.04 576 1473.81 576 1484M854 1438C887.417 1451.73 921.741 1462.72 955 1476.85C962.808 1480.17 984.72 1493.95 986 1480M514 1442L513 1471L514.028 1482.68L527 1485.29L572 1484M846 1449L848 1452M509 1458L512 1459M431 1490C431.052 1475.25 444.933 1477.56 451 1488C445.84 1490.98 430.534 1489.08 428.028 1492.47C424.747 1496.92 426.188 1513.61 429.589 1517.76C431.692 1520.32 435.189 1520.21 437.53 1522.39C441.948 1526.51 442.854 1531.72 450 1530C452.728 1537.12 454.267 1544.95 459.519 1550.81C469.283 1561.73 487.969 1559.54 499 1552M981 1488C978.632 1497.97 972.694 1502.44 966.464 1510C957.366 1521.03 948.971 1532.76 940.119 1544C921.871 1567.18 902.294 1590.41 886.004 1615C877.669 1627.58 871.908 1641.08 864 1654M986 1488C987.403 1511.67 987.5 1537.07 994.53 1560C995.911 1564.5 997.409 1569.96 1000.29 1573.71C1003 1577.25 1009.46 1581.96 1010.65 1586.13C1011.72 1589.84 1005.41 1593.22 1003 1595L999 1575M479 1552C481.849 1536.66 481 1520.56 481 1505C481 1501.82 479.277 1490.99 483.318 1489.82C489.853 1487.92 503.567 1498.81 510 1501M452 1490C451.724 1496.42 452.547 1512.71 448.397 1517.57C446.231 1520.11 441.955 1520.73 439 1522M987 1491L993 1493M512 1601C512 1577.08 515.793 1553.76 518.169 1530C518.654 1525.15 517.898 1508.9 521.603 1505.89C524.658 1503.41 532.427 1505.11 536 1505.58C543.314 1506.54 551.762 1505.55 559 1504.2C569.63 1502.21 580.264 1499.91 591 1498.72C595.045 1498.27 601.266 1497.67 604.142 1501.32C608.375 1506.68 606.581 1517.58 607.424 1524C610.966 1550.97 606 1578.96 606 1606M977 1502C976.948 1516.79 959.804 1530 951 1541C926.375 1571.78 902.507 1603.12 878 1634M441 1509L448 1508M451 1519C455.442 1539.01 477.599 1548.83 496 1543M451 1526L450 1529M1126 1537L1126 1538M997 1563L1072 1554.82L1126 1544M616 1545L621 1547M1026 1550L1102 1545M618 1547L626.074 1566L631.879 1584.68L638 1587L636 1573M1047 1549C1055.13 1553.34 1067.92 1551 1077 1551M475 1559L470.1 1586L467.618 1601.7L478 1605.17L507 1610M420 1595C415.982 1595.66 414.647 1597.06 416 1601C419.927 1599.34 427.07 1600.05 430.062 1597.06C432.338 1594.79 432.365 1589.96 433.155 1587C435.916 1576.65 449.108 1548.49 461 1567C448.537 1575.58 446.529 1586.98 441 1600C433.82 1596.19 431.401 1600.62 429 1607C434.355 1607.63 438.655 1604.77 441 1600M973 1620C972.636 1631.13 950.93 1630.12 942 1631.28C938.238 1631.77 931.869 1633.52 930.072 1628.85C928.284 1624.21 930.544 1617.61 931.576 1613C934.796 1598.61 939.88 1584.97 950.09 1574C953.875 1569.94 962.481 1559.89 968.772 1564.61C972.599 1567.48 972.949 1573.65 973.572 1578C975.352 1590.43 969.434 1607.79 974 1619L1003 1598L1003 1597L1003 1596L1003 1595M731 1564L738 1570M761 1568L765 1568M746 1571L756 1571M1 1585C33.4746 1585.27 65.5163 1583.3 98 1582.04C152.989 1579.9 208.022 1580.37 263 1577.96C315.497 1575.66 370.797 1569.4 423 1576M754 1576C764.272 1584.44 779.634 1588.42 792 1593.05C817.288 1602.51 844.033 1611.9 870 1619M646 1584C651.647 1598.43 633.303 1592.99 627 1590C625.607 1600.18 637.516 1604.88 643 1596M628 1590L631 1588M639 1588L640 1593M517 1600L600 1596M1004 1600L1007 1614M416 1601C417.714 1606.79 422.445 1607.87 428 1608M999 1609L1005 1612M980 1618L1014 1624M973 1626C982.014 1627.6 994.227 1626.67 1003 1624M890 1631C902.392 1632.57 916.684 1634.93 929 1632M1079 1719C1077.32 1718.79 1075.65 1718.59 1073.99 1718.23C1064.33 1716.07 1075.92 1706.39 1079.63 1713.15C1081.45 1716.47 1079.85 1721.27 1081 1725L1087 1722M1104 1721L1099 1723C1099.1 1717.65 1105.48 1708.6 1110.97 1714.73C1115.36 1719.63 1108.89 1735.15 1104 1738C1103.79 1742.9 1102.08 1748.19 1103.77 1752.98C1105.86 1758.94 1110.55 1757.86 1113 1753L1104 1754M1071 1718C1064.71 1723.87 1062.12 1731.31 1062.77 1740C1063.13 1744.9 1069.18 1749.8 1073.85 1746.44C1078.01 1743.44 1079.25 1731 1080 1726M1098 1723C1093.91 1729.19 1094.84 1735.74 1103 1737M1108 1739C1112.62 1741.74 1117.88 1746.64 1114 1752M1075 1747C1078.13 1749.09 1084.91 1749.98 1086.73 1753.3C1092.51 1763.85 1064.94 1775.02 1068.52 1757C1069.01 1754.55 1069.99 1752.27 1071 1750" transform="translate(-577.122,-226.816) scale(0.921688,0.33164)"/></svg>