<svg xmlns="http://www.w3.org/2000/svg" xmlns:svg="http://www.w3.org/2000/svg" xmlns:sodipodi="http://sodipodi.sourceforge.net/DTD/sodipodi-0.dtd" xmlns:inkscape="http://www.inkscape.org/namespaces/inkscape" xmlns:xlink="http://www.w3.org/1999/xlink" width="210mm" height="297mm" viewBox="0 0 210 297">
  <sodipodi:namedview/><g inkscape:label="Ebene 1" inkscape:groupmode="layer" id="layer1">
    </g>
<path style="fill:none;stroke:#000000;stroke-linecap:round;stroke-width:5.0" d="M274 33L262.663 61L247 100L248 101C254.144 99.5957 261.842 96.4601 267.96 99.4336C274.455 102.591 276.999 111.915 279.836 118C284.313 127.602 292.156 139.41 302 144C297.227 125.601 291.144 107.733 287.611 89C284.465 72.3156 282.103 49.9512 274 35M2 89L1 120M247 100L240.237 119L229 142M239 124C243.807 132.671 241.958 144.509 250.301 151.49C255.328 155.696 264.02 157.433 270 160.233C283.893 166.737 297.318 176.08 309 186.004C313.323 189.676 318.48 192.828 321 198L291 204C301.346 220.78 312.031 235.031 326 249C332.044 255.044 339.067 259.258 332 267C310.756 239.118 275.248 226.356 248 205.761C233.647 194.912 216.76 176.308 199 171.498C178.704 166.002 153.917 171.343 133 169.911C113.664 168.586 87.8823 159.771 69 166.105C41.7597 175.243 24.7877 206.009 2 222C0.843907 215.821 5.88445 210.067 9.05015 205C16.3044 193.389 22.7627 181.253 30.5648 170C34.5844 164.203 38.0158 156.169 43.3287 151.499C53.8984 142.21 75.0054 138.525 88 133C113.822 122.021 142.135 111.554 170 107.427C183.187 105.475 197.674 103.693 211 104.015C217.005 104.159 222.999 106.23 229 105.892C234.139 105.603 238.802 103.238 244 103M3 112L18.3086 146L23.1836 158.961L2 185M303 145L306 151M321 197L327 199M121 339C131.692 330.141 140.528 319.445 151.001 310.289C163.475 299.384 177.389 290.205 190 279.421C198.928 271.786 212.04 257.467 224 255.031C230.618 253.683 240.273 261.896 246 264.692C257.831 270.469 269.977 275.503 282 280.861C286.16 282.715 293.614 285.037 295.958 289.213C298.108 293.045 295.874 299.506 294 303L301.505 305.208L310.217 291L333 267M333 267C337.726 271.727 347.752 279.22 349.183 286C349.932 289.552 346.791 293.241 345 296C340.945 302.248 333.159 320.857 324.996 321.787C318.128 322.57 301.776 308.854 295.742 313.789C288.479 319.729 294.404 338.66 287.49 346.671C283.364 351.453 276.049 354.082 271 357.898C260.545 365.801 251.154 374.952 241 383.196C234.959 388.1 226.997 392.127 222 398C228.968 400.78 239.95 396.043 247 393.999C267.621 388.021 286.986 378.72 308 373.881C316.233 371.986 327.234 368.853 334.956 373.854C339.644 376.89 341.207 383.672 340.571 389C338.921 402.828 330.353 418.532 326.175 432C324.83 436.337 323.729 448.672 318.772 450.292C311.117 452.794 294.068 435.847 289 431L315 412.714L340 385M201 384L185 397C181.337 393.337 177.612 388.376 173 385.908C166.306 382.326 157.396 384.062 153.18 375.96C148.695 367.342 156.69 351.216 159.695 343C160.694 340.269 165.281 333.578 162.353 331.028C157.838 327.094 146.531 331.935 141 331C144.287 323.951 151.258 318.9 157 313.845C171.856 300.767 187.591 289.746 205 280.309C211.935 276.549 222.857 270.536 231 271.605C253.576 274.569 272.579 293.453 293 302M295 306L296 312M229 334C227.708 327.972 201.667 330.833 201.667 336.917C201.667 341.593 223.578 339.102 226.778 337.889C231.428 336.126 231.512 330.235 235.111 328.25C246.334 322.058 257.528 322.152 269 318.222C277.304 315.377 284.977 310.948 294 310M243 322L219 320.876L187 335C189.246 328.695 196.449 324.645 202 321.309C216.004 312.893 238.092 305.558 252 319M270 319C274.95 329.697 258.258 336.63 252.474 341.599C250.402 343.379 249.88 346.728 247.531 348.168C241.144 352.084 242 337.732 242 335M1 326C14.6895 334.449 27.0863 344.653 40 354.073C45.141 357.823 52.4516 359.336 55.8789 365.019C63.7961 378.145 60.6477 400.02 61.0147 415C61.7567 445.29 62.3999 480.624 70 510M272 326C272.676 341.78 262.255 350.695 248.001 356.386C245.003 357.583 240.299 360.87 237.015 359.963C229.679 357.936 227.018 345.318 227 339M230 330L232 329M131 334L140 332M176 387C180.795 385.682 186.329 388.335 190.848 386.142C195.386 383.94 192.256 378.381 190.938 375C188.803 369.522 186.239 362.411 181.812 358.39C178.175 355.086 170.803 353.222 169.331 347.985C167.228 340.507 180.031 332.033 186 336M137 334L134.827 342.999L153 362M186 336L185 343L186 337M367 337L341 385M367 340C364.282 374.435 348.369 406.561 333.248 437C319.486 464.701 305.242 496.365 286.363 520.911C279.389 529.978 267.697 537.285 259 544.729C247.053 554.955 234.643 567.841 221 575.663C205.507 584.546 182.47 587.573 165 589M60 341C60 350.12 63.3676 362.814 59 371M187 344C195.446 353.508 220.373 362.472 233 359M2 347C6.81733 352.567 11.1214 358.547 16.0849 364C17.9716 366.073 21.4797 368.771 20.6543 371.985C19.0164 378.362 6.13558 383.602 1 387M241 349L241 357M154 366C160.328 369.378 167.975 377.514 171 384M106 383C107.654 391.88 107.17 402.352 110.133 410.83C112.893 418.731 117.768 425.752 120.279 434C124.977 449.431 128.81 465.115 139 478C143.889 469.523 145.185 458.247 148.684 449C156.033 429.58 168.843 409.086 186 397M194 385L214 399C204.123 406.53 194.635 404.947 186 397M1 393C8.61403 390.149 33.3532 387.359 39.3573 394.514C41.4758 397.039 40.1325 401.98 39.9645 405C39.3941 415.255 39.0302 427.464 35 437C30.2756 434.924 28.3054 438.254 24 440.197C16.8144 443.439 8.50305 444.601 1 447M214 400L221 399M2 410C8.85857 406.757 17.7452 410.376 24 414C18.4554 417.659 13.4189 414.158 8.33642 416.618C2.39049 419.496 14.6423 431.798 18.0039 432.867C22.1354 434.181 24.8881 429.632 28.8519 429.711C31.4473 429.762 31.6659 432.004 32 434M25 414L33 416M109 414L112.285 457L123.87 529L127.996 557L129.858 570.303L141 568.805L172 556M407 424C402.76 435.238 402.025 448.198 396.548 459C382.758 486.199 362.266 510.181 342.286 533C326.285 551.275 311.393 569.501 291 583M35 437C30.6757 447.28 12.8478 474.372 1 469M395 464L386 503C399.297 498.481 411.774 483.46 423 475C425.054 481.95 423.035 488.914 423.001 496C422.867 523.291 413 549.783 413 577C413 597.513 417.23 616.786 419.714 637C423.884 670.94 429.131 704.927 432.834 739C436.711 774.676 433.086 814.724 445 849M426 472L424 475M344 494L326.139 533L303 572M338 502C324.324 515.676 312.648 531.247 298.83 544.714C270.595 572.235 227.339 599.241 187 601M385 504L370 520L336 557C341.19 559.951 354.689 566.932 360.725 564.509C364.725 562.903 366.225 554.659 367.495 551C371.934 538.218 379.633 525.32 382 512M218 510L244 557M217 512L218.996 554L215.682 569.436L182 584M55 549C57.7173 559.942 60.4727 569.408 59.9606 581C59.6089 588.964 55.3888 598.413 59.9383 605.957C65.3202 614.881 79.8198 615.592 89 616.039C100.506 616.598 114.748 616.941 124.996 610.272C131.758 605.873 136.327 597.317 141.13 591C148.77 580.953 157.274 571.117 166 562M55 552C42.5295 572.335 53.7253 601.867 47 624C36.1086 617.31 24.6415 611.392 14 604.333C10.783 602.198 4.73234 599.469 3.17593 595.714C0.83479 590.066 16.7913 583.057 18.9136 578.003C21.7001 571.368 6.48853 563.063 2 560M244 559L254 577M253 578C256.862 583.811 262.047 597.519 269.058 599.705C282.744 603.973 298.915 601.49 313 605.721C318.466 607.364 325.958 610.316 328.254 616.089C330.375 621.424 326.541 628.322 324.244 633C318.5 644.699 313.066 656.711 308.692 669C307.392 672.653 302.697 682.715 305.198 686.356C307.492 689.695 316.395 684.4 319 683.281C327.646 679.567 352.681 668.746 358.258 682.094C366.693 702.285 339.565 728.138 329.341 743C316.051 762.32 302.581 782.134 285 797.826C266.014 814.772 243.051 826.638 221 838.861C203.181 848.739 183.269 862.023 162 861.255C147.239 860.721 131.157 855.629 121.464 843.996C111.403 831.923 106.853 812.865 90 810M219 596C225.891 599.677 233.578 597.364 241 597.039C248.762 596.699 256.334 598.031 264 599M270 602C270.986 608.814 261.022 612.944 256 616.214C240.395 626.377 225.722 635.886 209 644.247C177.652 659.921 143.122 670.174 109 677.793C99.0348 680.019 86.1927 686.54 76 685.696C69.7105 685.176 62.8324 679.825 57 677.4C38.1782 669.574 19.4761 660.521 2 650M2 659C13.3856 669.804 22.7586 685.565 23.9105 702C24.528 710.81 21.4025 720.481 23.2955 729C27.2125 746.627 41.1206 767.903 52.0108 782C57.6107 789.249 63.0154 801.879 72 805C70.8672 778.684 52.9739 755.262 65.8789 729.153C69.1832 722.468 76.32 734.755 81.9961 731.377C90.2486 726.466 92.5737 710.635 101.184 707.693C107.433 705.558 118.531 708.715 125 709.576C152.012 713.167 175.243 726.297 196 744C184.725 752.203 163.076 748.179 154 758C159.082 760.709 166.177 762.448 168.968 768.015C173.305 776.666 159.872 791.357 153.961 796.381C140.236 808.046 120.547 811.988 103 812M7 664L14.1019 693L22 722M1 714L18 774M22 732L15 762M144 756C135.244 761.785 120.312 763.021 110 765C106.963 765.583 100.316 767.478 97.7122 764.972C95.2739 762.626 99.461 758.665 101.044 757.185C107.219 751.411 114.701 748.918 123 749.004C134.31 749.121 143.115 756.902 154 757M73 806L85 820M651 1668C645.002 1651.91 647.115 1632.93 644.714 1616C640.794 1588.35 634.002 1560.95 626.884 1534C619.948 1507.74 611.948 1481.33 594.385 1460C560.084 1418.33 492.038 1418.13 443 1424.58C424.83 1426.96 395.537 1427.04 390.939 1450C386.674 1471.29 415.681 1485.46 431 1493.24C436.618 1496.1 447.319 1498.39 449 1505C431.071 1500.11 415.051 1490.87 396 1490.04C363.593 1488.62 341.435 1503.9 315 1520.09C297.986 1530.51 281.255 1539.83 268 1555C264.908 1547.67 264.9 1538.83 263.586 1531C260.739 1514.02 258.412 1496.98 255.565 1480C249.894 1446.19 243.435 1412.25 241.09 1378C238.169 1335.35 240.171 1292.6 242 1250C234.251 1251.04 211.906 1259.18 205.643 1252.4C203.037 1249.58 205.681 1244.03 206.67 1241C210.052 1230.62 213.131 1220.05 217.427 1210C236.552 1165.28 268.296 1129.29 298.611 1092C305.859 1083.08 313.691 1074.56 321.711 1066.34C324.467 1063.51 328.963 1061.72 330.535 1057.91C332.897 1052.18 330.3 1043.95 330.039 1038C329.413 1023.7 330.186 1009.25 328.83 995C324.709 951.696 319.914 909.955 307.41 868C304.148 857.053 300.595 846.282 298.615 835C298.056 831.817 296.737 825.375 299.028 822.619C301.43 819.729 306.211 823.105 309 823.571C316.603 824.841 326.264 821.54 334 820.975C374.377 818.023 407.392 815.909 441 843M461 832C470.208 833.272 491.858 846.238 491.722 857C491.652 862.57 481.782 867.751 483.346 872.606C484.384 875.831 491.432 877.554 493.996 879.532C499.893 884.083 503.952 890.984 506.251 898C512.816 918.04 506.541 936.343 503.439 956C499.41 981.537 501.768 1013.19 478 1030.21C453.163 1048 418.237 1058.65 388 1059C370.454 1059.2 348.969 1046.89 333 1057M470 834C479.547 832.01 493.743 837.932 503 840.72C547.274 854.054 581.271 893.652 585.83 940C589.412 976.406 583.633 1013.59 582.039 1050C576.643 1173.24 560.135 1297.52 599 1417M252 1147C255.881 1118.18 264.16 1088.75 272.717 1061C276.556 1048.55 280.839 1032.11 289.61 1022.13C294.928 1016.08 301.103 1024.1 304.999 1028C314.912 1037.91 320.384 1049.87 321 1064M331 1061C330.997 1086.86 328.24 1113.41 324.572 1139C323.408 1147.12 319.688 1154.86 319.09 1163C317.69 1182.09 325.808 1204.23 318.772 1222.85C317.015 1227.5 308.162 1226.93 304 1227.89C293.749 1230.25 283.72 1234.16 274 1238.15C270.769 1239.47 265.1 1240.94 263.414 1244.27C258.145 1254.68 265.894 1274.61 268.525 1285C276.874 1317.96 289.577 1351.18 301.576 1383C305.713 1393.97 310.603 1411.11 322.004 1416.82C328.245 1419.95 335.232 1414.59 340 1410.96C354.441 1399.97 368.778 1388.53 383 1377.2C401.009 1362.86 418.751 1348.17 437 1334.12C446.666 1326.68 457.945 1318.16 458.91 1305C460.524 1282.98 442.992 1269.02 429.919 1253.96C410.211 1231.25 389.687 1192.22 403.312 1162C413.217 1140.03 436.146 1125.19 460 1132.89C467.409 1135.28 475.914 1138.76 478.276 1147C481.745 1159.09 477.549 1176.04 474.884 1188C468.95 1214.64 461.479 1238.8 451 1264C459.507 1268.46 469.906 1269.53 479 1272.7C494.744 1278.18 509.113 1285.84 522 1296.46C550.887 1320.28 564.667 1358.62 588 1387M320 1069C326.024 1081.07 318.645 1101.79 315.374 1114C303.367 1158.83 263.032 1192.79 263 1241M250 1157L242.996 1227L243 1249M243 1249L262 1244M451 1503C461.904 1511.41 477.071 1514.79 490 1519M450 1506L452 1505M268 1555C266.765 1564.77 263.179 1574.07 263.179 1584C263.179 1607.51 269.405 1631.04 273.69 1654C276.337 1668.18 278.493 1686.77 291 1696C293.92 1685.38 286.659 1668.45 283.71 1658C277.699 1636.7 275.176 1613.76 271 1592C269.418 1583.76 270.473 1574.3 266 1567M1119 1717C1116.7 1728.1 1135.6 1720.32 1137.57 1713C1141.56 1698.09 1116.95 1708.47 1125 1692L1137 1693M292 1697L292 1699M93 1703C89.6974 1717.41 80.1825 1730.81 83 1746M75 1729C68.2062 1730.76 67.166 1721.89 65 1717L58 1721C55.6074 1715.8 56.5807 1711.65 61 1708M105 1734C103.373 1729.69 101.611 1724.66 102.316 1720C102.714 1717.37 108.214 1705.69 111.382 1712.33C113.04 1715.81 110.237 1720.79 109 1724L121 1729M17 1719L25 1718M40.108 1718.75C47.7946 1715.57 49.1933 1727.35 42.9568 1729.59C36.9111 1731.77 34.2894 1721.15 40.108 1718.75M99 1718L101 1721M10 1723L5 1729C2.30537 1724.29 4.97317 1721.89 10 1723" transform="translate(-577.122,-226.816) scale(0.888509,0.32766)"/></svg>