<svg xmlns="http://www.w3.org/2000/svg" xmlns:svg="http://www.w3.org/2000/svg" xmlns:sodipodi="http://sodipodi.sourceforge.net/DTD/sodipodi-0.dtd" xmlns:inkscape="http://www.inkscape.org/namespaces/inkscape" xmlns:xlink="http://www.w3.org/1999/xlink" width="210mm" height="297mm" viewBox="0 0 210 297">
  <sodipodi:namedview/><g inkscape:label="Ebene 1" inkscape:groupmode="layer" id="layer1">
    </g>
<path style="fill:none;stroke:#000000;stroke-linecap:round;stroke-width:5.0" d="M487 389C493.297 385.651 502.025 384.238 509 386C507.327 390.988 504.506 395.66 504.094 401C501.279 437.49 526.855 463.289 549.985 487C559.701 496.959 568.15 508.014 576.651 519C578.677 521.62 584.684 526.967 583.542 530.698C582.751 533.284 578.13 534.222 576 535.273C569.282 538.589 562.846 542.22 556 545.306C544.919 550.301 532.438 555.876 520 555.82C497.618 555.719 468.975 540.117 452 526.714C411.205 494.504 398.377 429.847 397.71 380C397.415 357.971 400.932 335.988 399.961 314C399.573 305.226 396.619 296.508 394.651 288C394.019 285.266 393.788 280.85 390.721 279.647C385.087 277.436 377.747 284.994 374.289 288.425C342.064 320.408 350.825 361.947 354.829 402C357.694 430.654 358.885 463.427 355.826 492C352.067 527.111 342.793 560.575 328.772 593C320.651 611.779 307.443 628.811 302.598 649C298.193 667.356 305.215 688.359 309.625 706C312.062 715.748 313.634 724.554 321.04 731.96C338.794 749.714 365.086 740.322 385 731.872C397.485 726.575 411.389 725.538 424 720.55C445.565 712.021 465.384 698.455 489 696.17C524.801 692.705 553.2 735.907 547.674 769C544.504 787.988 529.121 802.71 509.152 793.262C500.366 789.104 515.909 769.939 512.879 763.039C507.122 749.932 481.001 748.312 469 747.17C409.318 741.49 354.811 778.547 296 773.075C274.737 771.096 242.403 763.078 231.519 743C226.331 733.43 230.179 721.136 231.575 711C234.956 686.451 240.502 662.297 245.4 638C250.036 614.999 255.813 592.315 258.714 569C262.22 540.819 262.48 512.265 265.17 484C268.03 453.945 271.546 422.179 270.741 392C270.308 375.771 267.023 359.062 260.855 344C257.987 336.997 252.627 330.967 250.13 324C241.901 301.047 237.805 276.668 228.548 254C223.076 240.6 209.932 226.277 208 212L243 240.522L305 283.461L337 310L342.004 277L360.349 208L368 165C388.271 189.668 400.063 221.612 432 235C430.073 225.037 421.487 216.332 417.424 207C404.935 178.314 398.279 153.187 402.575 122C403.689 113.909 403.848 105.392 407.825 98.0146C412.729 88.9158 425.972 84.7247 435 81.0109C459.255 71.0326 484.405 61.8035 510 55.9893C545.007 48.037 579.635 38.9541 615 32.5757C638.514 28.3347 666.893 24.9275 690 33.3248C718.632 43.73 743.688 70.2076 767 89.095C783.376 102.362 800.49 114.541 818 126.258C834.118 137.043 852.735 149.417 860.536 168C867.804 185.317 864.947 204.265 861.4 222C858.815 234.922 857.16 251.241 846 260L825.815 231.001L798 205M347 114C347.984 131.796 362.861 146.815 368 164M349 116C359.222 125.614 374.274 139.496 366 155M694 235L717 250C712.385 219.964 677.271 240.681 664 249.344C627.202 273.365 593.867 302.231 557 326.344C545.17 334.082 533.85 343.117 521 349C515.711 333.407 514.941 316.635 509.971 301C506.422 289.834 499.839 279.641 493.329 270C480.584 251.126 450.402 232.825 455.293 206C456.594 198.864 465.205 192.121 469.914 187C483.943 171.745 497.977 160.834 516 150.716C580.856 114.305 682.05 100.537 743 151M749 155L750 156M754 160L758 163M2 248C32.8174 218.506 64.8683 189.264 108 180.804C125.505 177.37 168.129 179.788 153.316 209C141.059 233.172 104.464 243.774 83 257.862C48.1488 280.735 12.24 321.905 1 363M789 195L790 195M793 199L795 201M201 203L208 212M433 236L437 239M531 342C534.136 335.276 540.584 330.705 546 325.831C557.466 315.512 569.617 306.112 580.911 295.576C591.836 285.382 596.434 270.254 606.518 259.3C624.153 240.144 651.869 238 676 238M717 250L747.961 300L784.515 353L803 401M737 286C740.149 310.917 729.45 331.972 717.488 353C714.033 359.073 711.057 368.686 705.725 373.246C696.622 381.031 680.28 383.929 669 387.14C664.921 388.302 659.288 390.973 655 390.111C646.385 388.38 629.97 375.121 625 368C619.96 376.109 618.663 385.896 616.265 395C615.478 397.99 614.908 404.291 612.272 406.248C608.12 409.332 601.802 399.784 600.154 396.996C592.135 383.429 588.382 369.574 583 355M548 384C541.603 379.969 527.768 376.135 528.505 366.043C528.911 360.48 540.728 355.871 545 353.427C563.052 343.102 584.18 333.106 604 326.746C628.169 318.991 664.265 310.035 688 323.221C699.993 329.883 708.609 342.212 720 350M522 349L510 361M521 350L526 364M720 350L737 364C716.667 386.565 707.149 425.265 677 437.914C669.55 441.04 659.491 438.71 652 437.011C633.637 432.846 599.727 427.646 602 402M585 357C589.697 358.95 593.986 363.774 599 364.596C609.811 366.368 626.029 359.881 637 358.3C660.871 354.86 684.506 359.126 704 374M526 364L495 385M738 364L799 398M625 367L625 368M708 374L729 371M535 373L556 370M560 370L564 371M530 373L510 385M544 379C551.812 377.075 565.305 373.914 572.985 377.013C590.319 384.007 591.141 411.098 601.44 423.7C606.695 430.13 614.561 434.029 621 439.12C631.593 447.494 640.794 457.056 651 465.79C671.691 483.498 703.907 477.558 728 471.115C735.211 469.187 754.712 455.923 761.397 462.603C765.941 467.145 762.281 480.321 762 486C761.557 494.967 756.234 500.325 750.751 507C741.992 517.663 733.045 526.545 723.286 536.286C716.519 543.039 709.18 551.071 699 551.907C648.164 556.077 608.925 521.781 573 490.155C559.094 477.913 540.142 461.338 531.135 445C521.495 427.513 521.087 403.083 515 384M518 381L535 380M586 381L589 381M1 471C9.76382 468.531 22.224 468.057 30 463.677C37.7806 459.295 44.1933 451.076 51 445.272C67.5892 431.126 84.0399 417.14 102 404.717C118.509 393.297 139.124 380.102 160 388.478C186.381 399.063 182.358 429.394 187.425 452C188.757 457.942 191.132 470.107 195.588 474.397C198.85 477.539 207.858 474.913 208.167 481.059C208.571 489.081 202.326 498.625 199.692 506C193.042 524.619 184.545 543.025 176.309 561C172.982 568.261 169.31 579.337 162.674 584.258C157.851 587.835 144.955 586.953 139 586.995C106.757 587.223 101.172 545.797 93.2515 522C90.3911 513.405 77.2682 503.753 84.3449 495.015C87.0266 491.703 101.507 480.51 105.972 485.647C108.672 488.752 106.823 497.084 107.285 501C108.701 512.994 110.651 525.539 117.272 535.996C126.11 549.956 149.014 540.903 158.907 531.787C162.963 528.049 165.557 523.324 170.004 519.899C175.604 515.586 183.414 511.994 187.397 505.961C191.093 500.362 189.482 489.75 191.998 483.001C192.732 481.034 194.357 477.921 192.353 476.179C189.777 473.939 184.109 475.069 181 475.15C172.535 475.369 163.391 475.717 155 474.575C120.706 469.907 90.1319 470.811 56 475.729C43.6814 477.504 28.0084 477.898 17 484L54.9606 499.928L74.4352 525L106 574M2 483C11.3584 499.809 19.7615 516.92 23.7145 536C30.0008 566.343 24.2506 599.209 17.5748 629C12.5363 651.485 -0.093158 674.616 2.16975 698C3.99069 716.817 15.8125 736.078 23.6914 753C46.879 802.802 80.3789 844.508 112 889M14 484L17 484M273 1222C247.086 1196.09 232.439 1165.27 223.37 1130C220.953 1120.6 215.318 1108.75 216.11 1099C216.7 1091.72 221.749 1084.54 224.694 1078C229.662 1066.97 233.804 1054.59 237.279 1043C240.89 1030.95 238.145 1016.51 237.996 1004C237.756 983.817 233.986 962.616 229.346 943C227.434 934.919 220.712 921.843 223 914C252.476 933.494 254.853 962.065 267.465 992C275.329 1010.67 288.96 1025.79 303.004 1040C312.962 1050.08 325.294 1061.53 340 1063.7C343.998 1064.29 353.275 1065.52 356.397 1062.4C358.655 1060.14 357.941 1055.9 358.285 1053C359.318 1044.31 360.805 1035.69 361.845 1027C365.713 994.69 374.96 958.067 391.8 930C405.245 907.592 421.274 887.189 431.463 863C433.871 857.283 438.032 851.266 438.833 845C439.495 839.816 435.004 835.313 432.816 831C427.103 819.74 420.882 808.82 416.424 797C414.672 792.355 409.966 784.26 413.029 779.39C415.407 775.607 422.007 773.205 426 771.685C434.571 768.422 445.303 765.266 454 769.966C462.947 774.801 471.292 787.645 481.996 788.472C487.375 788.888 492.541 780.655 497 778C499.219 785.576 494.81 791.46 505 793C500.617 826.935 490.419 858.085 464.83 881.754C446.772 898.457 424.174 907.838 407 925M486 788L496 792M483 791L435 834M495 792L485.6 819L466.229 859L424 908M151 822C145.789 804.169 185.038 802.775 194.999 809.653C204.226 816.023 206.422 827.587 211.259 837C217.537 849.216 226.486 860.735 237 869.56C255.242 884.871 288.717 901.252 313 900.101C328.832 899.351 344.155 892.214 358 885.108C385.344 871.074 410.209 853.372 434 834M153 829C160.258 855.537 177.791 880.791 197 900C203.464 906.464 211.498 916.56 221 918M216 918C208.022 922.324 199.164 921.56 192.004 928.105C188.929 930.915 183.87 941.495 179.79 941.887C172.325 942.602 158.525 930.382 153 926M218 1106C223.337 1099.57 228.5 1089.59 237 1086.92C247.043 1083.77 261.107 1090.64 271 1092.39C281.417 1094.23 292.841 1091.68 303 1089.35C360.154 1076.23 410.358 1054.62 459 1021.75C475.274 1010.75 504.274 988.868 524 1001.55C539.292 1011.38 551.311 1026.95 565 1038.84C603.068 1071.9 637.589 1107.15 671.911 1144C684.021 1157 694.773 1171.47 706.299 1185C710.859 1190.35 714.496 1198.43 722 1199C724.62 1208.43 738.324 1221.98 746 1228M300 1251C309.395 1233.38 314.02 1213.06 328.3 1198.17C339.785 1186.2 357.906 1181.68 372 1173.66C412.519 1150.63 457.629 1126.03 506 1126M510 1126L555 1131M562 1133L563 1133M565 1134L566 1134M573 1137L580 1139M585 1141L590 1143M612 1152L629 1162M640 1170L641 1170M645 1173L649 1175M652 1178L656 1180M660 1184L663 1186M398 1247C406.125 1250.99 420.556 1245.95 429 1243.73C450.725 1238.02 475.194 1239.89 496 1230.65C504.156 1227.03 511.446 1221.43 517.956 1215.42C519.612 1213.9 524.359 1209.57 520.638 1207.6C517.241 1205.81 511.48 1207.89 508 1208.6C495.968 1211.06 484.156 1216.19 473 1221.23C450.832 1231.24 425.727 1232.53 404 1243.04C392.679 1248.52 381.196 1254.86 370 1260.74C364.403 1263.68 357.6 1267.95 351.004 1267.8C342.837 1267.61 338.445 1258.53 334 1253C354.082 1237.53 388.167 1236.38 412 1229.57C439.675 1221.67 466.337 1209.4 494 1201.92C506.497 1198.54 519.343 1198.53 532 1196.56C557.743 1192.55 582.825 1187 609 1187M612 1188L625 1189M627 1190L634 1192M666 1190L669 1192M638 1193L655 1196M658 1196L690 1202M688 1198L710 1198M723 1198L727 1198M716 1199L705 1207L729 1220M693 1204L705 1207M701 1207C681.004 1224 659.627 1236.92 641.015 1256C622.306 1275.18 607.315 1298.92 586 1315.32C553.2 1340.55 510.749 1357.76 472 1371.34C442.725 1381.6 412.773 1393.12 381 1388.94C356.757 1385.75 323.51 1357.83 312.324 1337C308.133 1329.2 306.876 1320.42 304.701 1312C302.251 1302.51 298.012 1295.4 300.764 1285C303.387 1275.08 311.099 1267.28 319 1261.24C322.061 1258.9 330.379 1255.8 331.334 1251.87C332.925 1245.32 319.016 1229.31 313 1232L312 1233L311 1234L310 1235M732 1222L733 1222M346 1264C352.507 1262.17 362.737 1258.2 369 1261M341 1263C325.903 1276.19 314.087 1290.84 304 1308M383 1390C384.808 1397.63 390.61 1404.43 393.308 1412C399.368 1429.01 402.517 1449.31 413.514 1464C427.055 1482.08 449.231 1494.94 458 1516M1109 1733C1112.09 1731.56 1117.07 1725.65 1120.64 1726.75C1124.22 1727.86 1119.69 1733.57 1120.02 1735.78C1120.42 1738.45 1123.81 1738.97 1124.84 1741.27C1126.75 1745.55 1120.52 1751.23 1118 1754M154 1762L166 1762" transform="translate(-577.122,-226.816) scale(0.919941,0.329505)"/></svg>