<svg xmlns="http://www.w3.org/2000/svg" xmlns:svg="http://www.w3.org/2000/svg" xmlns:sodipodi="http://sodipodi.sourceforge.net/DTD/sodipodi-0.dtd" xmlns:inkscape="http://www.inkscape.org/namespaces/inkscape" xmlns:xlink="http://www.w3.org/1999/xlink" width="210mm" height="297mm" viewBox="0 0 210 297">
  <sodipodi:namedview/><g inkscape:label="Ebene 1" inkscape:groupmode="layer" id="layer1">
    </g>
<path style="fill:none;stroke:#000000;stroke-linecap:round;stroke-width:5.0" d="M137 8C151.546 17.0178 173.036 13.0747 189 18.6991C195.499 20.9888 205.116 24.6711 208.547 31.0402C211.075 35.7325 210.086 43.6445 213.742 47.5132C218.071 52.0958 231.034 52.8571 237 56.6998C260.156 71.6157 255.34 93.6321 247.221 116C245.728 120.111 243.368 125.618 243.314 130C243.207 138.751 247.28 146.99 236 151L243 133M144 12C153.767 37.391 186.669 45.9548 211 47M224 49C225.405 46.0012 226.532 42.7999 228.329 40.0046C233.2 32.4305 241.823 32.3531 246.728 40.0154C251.982 48.2244 252.999 59.5104 253 69M215 50L219 60L223 51M221 61L252 87M220 63C219.207 72.9651 216.57 82.8986 218.329 93C220.852 107.491 233.145 119.145 243 129M532 78C536.154 75.1715 539.911 71.5953 545 70.5439C573.296 64.6979 588.499 104.539 593.112 125C600.894 159.521 597.845 197.9 596.985 233C596.745 242.798 594.194 253.239 595.106 263C596.541 278.378 612.124 291.19 616.56 306C626.357 338.702 614.313 376.344 598.629 405C594.228 413.041 589.412 427.811 581 432L578 418C575.497 421.932 573.882 427.42 569.815 430.062C557.063 438.346 538.26 431.264 528 423C524.337 428.359 522.507 434.701 518.699 439.999C508.798 453.774 493.463 460.543 477 462.075C471.254 462.609 465.351 464.626 460 462C470.779 454.386 482.613 447.754 478 432L453 461L460 462M529 82C504.756 125.546 492.205 182.589 511.399 231C514.884 239.79 518.814 261.474 527 266L524 263M255 92L266 102C261.061 107.042 254.157 118.026 247 118L247 118M2 110L47 94M246 117L233 108C237.28 102.235 244.89 97.2831 252 96M260 96L254 99M38 97L17 117C24.1435 121.004 27.3961 113.203 33 109.742C38.2073 106.527 47.9202 108.814 52.6782 112.278C58.5749 116.571 47.9424 125.97 44.9853 129C29.553 144.815 14.5376 158.566 2 177M266 102C269.71 104.037 270.978 108.11 273.758 111.286C291.976 132.094 288.755 153.55 286.169 179C285.287 187.683 286.556 196.763 283.564 205C279.92 215.032 274.1 224.139 270.012 234C266.897 241.512 265.665 249.004 264.576 257C264.173 259.962 264.74 264.933 262.397 267.142C258.256 271.045 245.664 270.04 240 271.721C217.942 278.268 197.733 288.659 174 286.91C130.101 283.675 141.361 224.099 136.385 196C135.037 188.388 134.321 178.949 128.867 173.043C113.985 156.93 94.5971 169.583 77 167.829C57.967 165.933 46.3767 153.045 33 141M249 109L245 106L250 103M243 106L245 106M27 109L30 112M270 110C270 127.95 277.499 145.7 287 161M252 111L252 112M519 246C521.378 238.173 521.45 229.855 524.076 222C526.175 215.719 531.326 208.312 531.966 201.961C532.579 195.875 530.304 190.043 530.039 184C529.579 173.493 531.045 163.113 533.909 153C536.459 143.996 541.95 127.053 552.999 125.528C563.877 124.027 564.534 142.237 565.424 149C568.864 175.121 563.017 201.057 563 227L573 225C569.39 212.788 580.527 183.703 567 176M2 131L30 142M235 152C233.884 155.822 230.857 158.767 230.742 162.947C230.618 167.47 234.741 169.071 232.578 174.001C228.053 184.314 218.055 193.41 210.282 201.286C190.913 220.911 167.616 240.948 142 252M236 157C246.922 157 263.924 156.524 271.49 166.105C276.852 172.896 278.119 182.082 284 189M206 160L231 158M534 197C541.803 187.167 550.591 170.928 565 172M270 219C256.479 208.207 235.924 224.881 221 226.714C217.269 227.172 209.588 228.32 206.362 225.972C201.445 222.394 211.673 212.883 214.286 210.515C223.025 202.594 233.909 203.72 243 197.366C247.704 194.078 254.332 186.449 260.957 188.647C265.179 190.047 266.742 195.285 268.189 199C272.755 210.726 272.375 218.872 263.787 229C250.443 244.738 227.147 247.608 208 244M284 191L273 208M532 206L543.753 238.698L559 248C561.236 244.025 567.03 232.293 560.697 229.213C555.927 226.894 546.776 233.512 543 236M2 212C19.3101 207.879 43.4823 214.07 59 222M268 217L250 238M57 222C39.3343 234.844 22.8968 249.874 1 254M573 225L577 225M570 227L570 231L564 234M571 232L567 249C569.975 254.527 568.953 266.466 566 272C556.689 267.082 541.284 265.96 531 269L559 307M2 247C12.7867 236.215 19.933 232.811 35 234M441 359C435.838 340.63 434.685 322.841 415 313.403C405.341 308.771 394.138 309.437 384 306.572C380.2 305.498 374.88 304.087 373.329 299.956C370.591 292.667 380.604 282.516 385.015 278C401.146 261.484 422.917 249.741 444 240.72C450.244 238.048 466.473 230.127 472.393 236.564C475.683 240.141 472.253 247.258 470.796 251C466.347 262.429 458.139 273.465 454.586 285C452.879 290.543 461.33 297.066 463.468 302C467.122 310.431 467.224 323.127 465.177 331.996C461.821 346.531 436.71 354.338 437.371 370.996C437.556 375.658 444.759 379.184 448 381.718C456.546 388.403 471.111 398.206 472 410L462 408C464.448 414.581 468.936 420.871 476 416L472 410M41 236C46.4739 237.864 58.7725 241.531 60.1829 248.015C61.1214 252.33 56.2467 257.084 53.7106 260C44.8833 270.148 33.7384 276.332 23 284C32.166 290.126 46.3699 290.022 57 288.575C83.8078 284.926 119.114 270.292 140 253M545 241L558 266M563 241L566 248M570 253C588.1 260.663 586.347 274.308 588.433 289.985C588.962 293.965 592.044 296.967 592.695 301.004C594.547 312.492 590.768 324.134 585.127 334C580.277 342.484 565.781 354.534 564.552 364C564.098 367.5 568.393 372.394 572.004 371.941C578.023 371.185 583.212 363.765 586.343 374.004C590.064 386.169 579.272 404.216 579 417M523 258L525 261M528 267L531 269M434 274C438.963 271.399 443.557 270.395 449 272L440 278L453 288C447.204 294.635 438.752 307.862 429 307.913C423.999 307.939 419.553 304.93 415 303.229C411.589 301.955 404.788 301.21 403.828 296.892C401.943 288.407 424.274 276.198 431 275.422C434.04 275.071 437.118 277.249 440 278M449 272L451 272M568 273L588 288M436 277C430.367 283.481 425.34 298.011 418 284M424 280L432 281M13 283L23 284M2 291C35.9789 306.866 53.3079 340.424 73.6528 370C83.0721 383.693 92.9401 403.2 109 410C108.568 391.533 88.7533 367.685 96.7423 349.109C99.9181 341.725 110.826 346.514 116 348.604C130.119 354.306 153.755 366.148 159.532 381C164.761 394.439 166.914 409.97 170.235 424C175.633 446.81 180.991 470.417 181 494C181.009 516.115 174.399 547.999 191 565M588 295C585.993 308.641 579.33 326.766 566 333.08C556.324 337.664 544.168 337.372 534 341.054C524.02 344.668 509.598 352.645 499 348C511.924 330.862 536.279 313.498 556 305M269 473C258.006 472.132 247.638 475.219 237 474.725C220.896 473.979 207.171 463.919 197.38 451.714C191.048 443.822 192.318 432.212 189.699 423C180.978 392.322 182.208 349.024 207.09 325.174C224.359 308.619 249.708 302.312 273 302.019C287.813 301.832 302.343 308.825 312.571 319.289C316.472 323.28 318.418 329.201 323.019 332.415C346.884 349.086 375.447 370.455 378.826 402C381.038 422.643 370.892 437.494 360.003 454C343.983 478.286 325.693 500.944 309.344 525C304.312 532.404 299.83 540.306 293.826 546.999C290.33 550.897 284.74 553.553 281.693 557.609C278.647 561.662 282.728 567.31 278.682 571.471C268.184 582.266 249.545 586.918 236 592C253.798 612.45 283.644 596.794 302 586.424C343.181 563.16 378.597 533.254 412 499.999C422.766 489.281 440.59 476.746 447 463L425 459M270 410C285.808 408.38 297.591 390.426 308 380C311.984 376.009 319.605 370.208 314.562 364.213C302.981 350.443 278.736 355.723 264 352C272.924 334.939 298.77 323.221 317 329M325 336C334.063 362.624 343.322 396.27 312 412.737C306.661 415.543 300.899 417.706 295 418.985C288.387 420.419 280.747 421.846 274 420.671C256.898 417.693 245.124 401.148 229 397M264 352L248 369M537 403C533.646 403.375 530.352 403.184 527 402.714C523.777 402.263 514.837 401.859 513.252 398.486C511.225 394.172 519.34 387.615 522.001 385.289C530.372 377.97 551.102 360.408 563 365C555.865 373.769 549.121 382.671 542.718 392C541.237 394.157 536.726 399.411 539.647 401.972C542.25 404.254 548.901 402.997 552 402.575C562.078 401.203 571.776 398.028 582 398M428 377C422.402 379.813 412.996 384.302 407 382C415.159 374.553 426.546 365.269 438 365M432 370L436 372M231 397L255 381.756L264.698 379.133L277 397L285.589 372.039L300 371M266 378L284 372M291 373L295 390M426 380C425.254 383.262 423.968 386.611 424.099 390C424.761 407.224 453.28 400.324 462 408M397 385L407 382M534 404L528 423M447 405C444.033 407.975 440.794 412.781 436.83 414.397C432.967 415.971 428.778 414.325 425.039 416.742C419.066 420.604 415.615 428.231 411.831 434C408.773 438.663 404.889 443.23 406 449C427.646 439.405 452.665 435.459 471 419M110 411C116.58 418.927 129.531 416.725 138 421.995C152.64 431.105 159.654 459.597 156.918 475.985C154.94 487.839 134.618 490.953 137.695 506C140.234 518.411 155.572 532.479 169 528L160.807 502L156 480M113 415C114.671 426.151 122.986 437.511 128.811 447C131.303 451.06 133.642 455.91 138 458L141 457M481 415L479 431M476 416L480 416M650 422C658.642 427.653 676.698 438.37 673 451C681.31 454.309 687.08 462.875 692.025 470C696.848 476.95 706.895 487.479 707.751 496C708.648 504.936 700.859 515.036 696.323 522.039C689.61 532.406 683.533 547.222 672.996 554.297C666.46 558.686 652.766 560.318 645 561M654 425C656.625 435.162 665.792 443.787 673 451M571 431C574.802 438.421 568.751 447.815 564.409 454C552.599 470.823 534.528 487.297 518 499.482C502.536 510.883 482.486 496.802 465 499.3C443.124 502.426 418.282 521.055 401.039 534.152C389.963 542.565 381.959 554.328 374.684 566C372.268 569.877 367.562 575.291 367.441 580C367.217 588.669 376.208 600.191 379.688 608C382.771 614.921 381.875 621.667 381.945 629C381.986 633.315 383.913 642.338 378.852 644.548C370.321 648.272 358.785 642.448 350 643M405 448L402 451M676 450L676 451M105 480C117.433 476.024 125.942 466.992 136 459C141.249 464.888 148.221 467.661 156 469M448 462L452 462M139 466C134.558 477.531 127.022 483.949 114 477M142 467L150 483M124 471L130 478M236 475L208 494C215.376 497.936 224.159 495.485 232 494.275C245.927 492.125 260.037 491.094 274 489.13C279.092 488.414 293.441 483.788 296.917 489.514C298.864 492.721 294.956 496.842 292.906 498.907C286.6 505.258 277.971 509.178 270 512.941C247.017 523.792 218.579 531.959 193 532C185.2 532.013 174.837 533.068 168 529M135 479L147 482M701 487L702 509M593 653C586.391 654.571 582.586 658.531 586 665C589.531 661.275 591.891 653.689 596.144 651.268C611.696 642.415 630.537 650.391 644 638C647.808 640.162 649.336 639.381 652 636L645 637C642.203 627.624 643.551 617.533 641.32 608C639.027 598.202 632.216 587.878 626.1 580.015C618.361 570.064 596.531 571.69 596.094 557C595.388 533.295 620.644 511.543 640 502.909C645.334 500.53 656.762 494.211 662.678 497.372C666.549 499.44 663.544 505.311 662.099 508C657.783 516.028 636.86 537.204 655.998 535.05C658.358 534.785 660.666 534.434 663 534M702 518C704.397 528.198 713.978 539.308 720.834 547C736.247 564.292 752.59 580.578 770 595.844C777.154 602.118 786.06 605.65 792.995 612.004C795.067 613.901 799.044 616.655 798.248 619.949C797.226 624.184 790.258 627.835 787 630.269C777.698 637.218 768.903 644.491 761 653L756 648L739 666C737.522 661.746 733.726 647.207 727.881 647.207C724.378 647.207 721.312 653.608 719.525 656C713.992 663.409 699.678 676.672 700 686C709.813 681.207 719.108 677.109 730 675.286C735.748 674.323 745.846 676.048 750.722 672.973C754.621 670.514 760.662 657.475 761 653M171 532L181 551M657 557C659.71 542.342 646.393 548.405 642 538L645 536M630 539C626.588 538.167 624.287 538.738 621 540.004C618.188 541.087 614.663 542.035 612.318 543.994C609.105 546.678 610.187 550.565 613.148 552.895C620.776 558.897 636.04 560.706 637 548C626.78 545.06 631.836 534.305 641 539M642 540L638 547M579 541L580 541M200 567C205.751 566.369 210.952 561.298 216 558.389C226.294 552.456 241.809 543 254 543C260.556 543 268.13 547.009 273 551.222C275.718 553.573 276.492 557.252 280 558M207 567L276 559M496 677C484.527 679.13 455.146 674.281 460.751 657C463.097 649.766 476.889 638.778 476.079 632C475.138 624.132 463.383 621.53 464.974 612C466.336 603.836 474.465 597.276 481 593.193C496.27 583.651 517.531 573.818 536 576M501 585L507 599L518 583C531.411 590.939 521.445 597.783 518 608C522.309 608.382 526.855 605.596 531 606.682C536.645 608.162 542.447 613.323 548 615.719C564.169 622.696 595.939 628.662 596 650M213 585L236 592M500 611L517 609M384 625C396.716 619.692 414.233 618.114 428 618M383 620L389 622M354 642C361.309 634.846 370.489 627.923 381 627M414 629L402 653C410.433 658.511 420.668 661.147 429 666.702C442.577 675.753 453.995 687.833 468 696.575C478.129 702.897 492.295 708.448 493 722C469.791 720.317 452.028 694.011 429 690M384 635C392.597 630.001 394.701 633.592 403 633.177C406.383 633.009 409.517 630.463 413 630M382 644L402 653C394.715 661.754 386.719 661.99 376 660L379 646M369 676L359 668C361.042 665.399 369.616 657.671 373.187 661.697C376.709 665.668 368.221 673.382 371.473 678.576C374.7 683.729 379.713 688.088 383.37 693C394.365 707.767 405.837 726.401 426 728.816C436.445 730.066 447.502 724.809 458 724.089C467.11 723.465 478.77 726.392 487 722M760 661C759.697 665.763 757.52 670.169 758.329 675C759.475 681.833 763.978 687.891 763.917 695C763.829 705.058 755.718 716.824 753.425 727C747.35 753.963 751.346 783.308 733.192 806C711.964 832.534 660.091 849.823 637.548 815C624.966 795.565 630.704 769.022 639.012 749C642.156 741.421 654.307 728.781 651 721C647.283 725.526 642.875 730.771 637 732.428C629.124 734.649 623.11 731.739 616 737.215C600.712 748.991 592.926 766.953 576 777.174C555.64 789.47 540.693 783.503 519 780.299C501.247 777.677 482.05 776.611 468 764C461.489 775.454 466.483 792.21 455.895 801.1C432.093 821.086 414.85 807.828 396.424 789.155C365.289 757.602 360.322 720.934 369 679M587 664C601.201 676.953 612.199 669.329 628 674C624.414 678.414 619.499 679.695 614 680.561C601.187 682.578 575.49 684.382 566 674L585 665M474 676L452 682M432 689L447 683M650 721L622.001 725.598L606 712.009L589 708C592.129 703.54 598.097 694.119 604 693.531C609.853 692.948 613.739 698.087 620 695.343C625.313 693.015 629.554 684.328 635.985 685.376C648.037 687.339 658.721 712.378 652 722M699 685L691 691M637 720L616 715C623.988 704.25 639.466 705.948 651 709M578 709L588 709M703 717L722 714.004L756 714M616 715L613 718M732 716C725.556 719.457 715.554 720.497 709 717M494 723C492.369 741.568 471.488 747.236 461 760L458 756L465 754M767 732C779.068 738.114 792.796 766.416 790.786 780C789.854 786.3 785.048 792.149 781.113 796.911C776.771 802.164 755.998 817.279 759.662 824C768.441 840.106 792.857 844.505 808 851.703C812.649 853.913 824.371 858.337 823.149 865.004C821.345 874.849 807.555 885.06 801.089 892C778.899 915.822 756.247 950.171 784 978C798.152 954.185 832.586 936.596 856 922.861C862.125 919.268 875.432 908.747 882.852 910.89C888.662 912.568 885.26 924.83 884.718 929C882.395 946.887 885.901 967.408 877 984C870.425 980.211 864.933 966.951 857.985 966.188C844.927 964.754 841.73 978.874 832.826 984.088C820.648 991.219 796.426 983.593 785 978M399 761L433 751.213L458 756M472 751L484 751M784 752C804.878 761.941 802.608 787.106 809.263 805C811.422 810.806 817.346 814.284 819.516 820C821.463 825.129 820.097 831.537 821.774 837C825.898 850.433 832.437 862.965 837.536 876C840.726 884.152 841.503 897.444 848.228 903.581C854.926 909.694 866.936 907.592 875 911M478 754C473.741 757.468 469.833 762.834 464 762L463 761L462 760M454 756L435 767C444.166 769.709 452.975 765.929 460 760M405 763C414.106 769.225 423.432 770.173 434 768M426 770C421.043 774.957 414.965 779.802 413.479 787C412.296 792.732 414.937 798.683 413 804M819 818C821.998 812.827 823.21 806.933 826.789 802.004C834.086 791.952 842.679 795.589 848.532 805C857.593 819.566 856.352 836.28 861 852C864.258 850.771 867.588 849.926 871 849.211C899.624 843.21 886.475 888.59 887.068 903C887.426 911.693 891 919.67 891 929C891 942.777 887.016 959.591 889.799 973C896.779 1006.63 926.193 1042.2 905.471 1078C896.686 1093.17 878.774 1098.5 866 1109C859.453 1099.44 855.509 1090.34 853.014 1079C851.181 1070.67 850.904 1059.36 842.907 1054.23C833.586 1048.24 829.041 1058.44 824.127 1065C817.982 1073.21 799.763 1095.77 807.603 1106.89C811 1111.71 819.513 1113.55 825 1114.54C831.005 1115.62 837.036 1114.7 843 1113.87C850.483 1112.83 857.239 1111.56 864 1108M433 813C439.905 817.392 446.315 820.38 451.621 827C460.843 838.506 464.428 853.313 473.808 865C478.57 870.934 490.581 876.988 491.056 885.001C492.277 905.583 470.885 917.499 478 940C488.031 935.337 518.548 931.933 522.682 947.093C524.857 955.069 520.978 965.916 520.169 974C517.853 997.145 516.971 1020.06 521.551 1043C523.153 1051.02 524.367 1060.65 530.214 1066.9C540.701 1078.1 550.389 1066.32 562 1064.32C574.691 1062.14 587.635 1067.32 600 1064.47C613.513 1061.35 624.174 1049.33 636 1043M490 878C489.31 862.898 470.732 837.954 480.009 824.109C485.873 815.358 506.041 821.353 515 820.961C539.914 819.868 564.107 813.281 589 819.475C598.475 821.833 609.516 825.726 615.486 834.015C619.863 840.092 618.339 847.15 618.039 854C617.592 864.207 617.414 874.919 619.08 885C619.785 889.265 623.527 898.763 620.382 902.348C612.836 910.951 587.285 911.341 577 909.536C556.846 906 535.377 899.56 516 892.996C507.935 890.264 500.429 884.103 492 883M821 822L841.17 843L886 901M854 856L860 853L859 863M851 856C838.524 867.596 848.941 875.585 861 883L862 870M888 909L886 911M591 956C614.288 938.465 642.372 925.195 672 924.04C681.063 923.687 689.132 927.811 698 928M690 927C678.927 934.996 659.939 933.707 647 939.011C641.029 941.458 632.859 946.746 641.815 953.11C648.936 958.17 654.353 931.403 663.772 945.055C664.57 946.212 665.085 947.649 665.442 948.998C666.046 951.281 665.98 953.661 666 956C677.088 955.523 692.904 946.579 703 951.329C713.043 956.053 720.055 966.787 723.493 977C731.53 1000.87 732.141 1038.72 717 1060C712.793 1045.74 723.34 1029.63 720.517 1015C718.859 1006.41 711.872 999.034 705.985 993C690.432 977.057 660.151 948.739 637 963C643.744 966.599 651.894 964.839 659 963M478 940C460.535 956.364 481.854 986.949 492 1002L505 995L501.558 973L478 942M596 953C601.693 954.565 608.063 952.779 614 953.039C622.473 953.41 633 957.638 641 954M644 955L647 958M666 956L659 958M664 958L664 960M631 964L637 963M836 985C844.237 985.005 854.661 985.023 862 989L832 997.499L819.603 1001.63L814 1017L832 1013.55L865 1013L837 1050M813 987L818 1000M831 987L824 997M862 989C877.554 989.012 876.999 1004.18 866 1012M508 994L505 995M775 994C779.553 1003.28 773.347 1035.86 796 1028.74C801.678 1026.95 805.378 1021.91 811 1020C809.144 1030.28 800.517 1038.6 794.837 1047C783.036 1064.46 770.934 1081.72 758.884 1099C752.774 1107.76 745.97 1119.35 736 1124C739.343 1112.4 745.961 1103.37 747.714 1091C752.117 1059.95 745.039 1015.16 775 994M505 997C500.773 1005.4 502.099 1017.15 506 1025C503.353 1025.8 499.578 1025.15 497.299 1026.72C493.625 1029.25 491.569 1034.73 487.999 1037.79C485.121 1040.25 479.865 1042.01 478.904 1046.04C477.211 1053.15 484.382 1063.69 486.989 1070C495.413 1090.4 504.197 1110.37 514.245 1130C523.681 1148.43 535.068 1169.06 551.015 1182.67C569.523 1198.48 597.91 1202.96 621 1197.5C634.33 1194.34 645.934 1186.84 658 1180.75C677.316 1171 686.886 1150.88 695.436 1132C703.243 1114.76 718.699 1089.83 713 1070C699.92 1079.63 688.926 1088.47 674 1095.74C664.059 1100.58 650.203 1104.31 643 1113C645.622 1115.09 647.737 1117.22 649.64 1120C665.769 1143.63 618.864 1148.97 604 1154C606.372 1156.95 610.042 1159.37 611.397 1163C612.996 1167.3 611.178 1171.87 613.742 1176C620.699 1187.2 632.611 1186 644 1186M492 1003C484.363 1007.43 480.03 1014.32 480 1023L495 1028M492 1003L501 1015M496 1008L502 1003M471 1023L494 1009M814 1017L811 1020M501 1021L500 1025M475 1023L479 1024M502 1027C502 1072.72 524.859 1126.86 557 1159C559.244 1150.82 554.154 1141.74 555.289 1133C557.01 1119.76 564.506 1110.61 570 1099C560.047 1096.06 549.203 1096.53 539 1093.26C536.542 1092.47 530.372 1091.36 529.346 1088.62C527.6 1083.97 537.702 1083.97 540 1084.02C552.314 1084.26 567.217 1084.27 579 1088L574 1096C592.871 1098.79 618.884 1069.02 624 1053M960 1464C946.487 1444.85 949.146 1416.69 934.363 1398.1C929.1 1391.49 913.123 1386.87 905 1384.9C901.038 1383.94 893.674 1382.73 894.587 1389.02C896.231 1400.34 906.065 1411.16 912.63 1420C927.182 1439.59 940.725 1461.92 957 1480C963.518 1467.98 962.47 1448.54 964.156 1435C967.188 1410.65 973.768 1387.01 978.6 1363C980.794 1352.1 989.245 1333.88 986.447 1323C984.374 1314.94 971.853 1305.49 966.645 1298.54C956.271 1284.7 952.673 1266.88 940.711 1254.09C930.739 1243.43 918.988 1239.5 905 1237.43C894.738 1235.91 883.715 1237.38 877.905 1227C866.835 1207.22 874.243 1184.45 882 1165C884.027 1159.92 893.811 1142.35 889.382 1137.74C885.542 1133.74 876.934 1135.3 872 1134.83C858.368 1133.53 841.13 1118.67 828.089 1121.35C821.793 1122.65 816.685 1129.74 811 1132.54C803.17 1136.41 787.705 1131.01 782.163 1124.9C774.909 1116.89 783.069 1102.97 787.806 1096C799.257 1079.16 807.487 1051.21 832 1051M715 1061L713 1070M571 1098L574 1097M641 1112C632.953 1117.85 624.212 1122.32 615 1126C608.665 1128.53 602.153 1130.83 596 1133.78C591.544 1135.92 575.568 1148.42 571.043 1142.4C566.161 1135.89 580.916 1125.44 585 1122.57C600.117 1111.93 627.381 1098.19 643 1113M867 1109C888.424 1127.48 920.079 1129.08 937.845 1153C946.474 1164.62 941.986 1171.44 944.999 1184C949.506 1202.78 955.53 1218.03 968 1233L988 1218L991 1231L980 1230C982.612 1234.82 986.505 1238.17 992 1239L992 1232M736 1124C724.541 1138.07 716.879 1154.38 706.116 1169C702.626 1173.74 697.261 1182.4 691.001 1183.69C688.641 1184.18 672.373 1175.24 670 1173M682 1161C695.196 1152.72 710.878 1138.89 726 1135M944 1161C947.688 1154.36 948.998 1140.63 957.043 1137.43C964.89 1134.31 969.584 1147.73 971.459 1153C978.858 1173.79 979.343 1198.07 989 1218M582 1147L604 1154M558 1159C566.448 1167.09 575.421 1174.26 587 1177M673 1178C692.601 1201 677.822 1222.74 671.749 1248C669.32 1258.11 669.895 1268.79 668 1279C658.629 1277.82 648.658 1276.67 640 1281.42C624.613 1289.86 619.335 1315.77 625.873 1331C635.278 1352.92 651.317 1360.12 670 1372L654 1394C659.579 1394.66 664.639 1391.26 669 1388L663 1382M946 1180L948 1187M990 1217C993.096 1216.17 999.417 1212.82 1002.38 1215.07C1007.69 1219.09 996.601 1229.72 993 1231M959 1225C963.942 1239.52 971.371 1253.39 979.971 1266C982.548 1269.78 990.243 1278.01 989.172 1282.83C987.808 1288.96 975.965 1293.2 972 1298C981.797 1300.81 992.326 1293.3 1002 1298.01C1009.66 1301.74 1011.9 1309.4 1016.36 1316C1032.6 1340.04 1033 1369.49 1033 1398M1009 1286L981 1249C991.754 1244.36 998.576 1236.21 1006 1227C1027 1241.92 1002.65 1267.42 1011.72 1286.95C1013.82 1291.47 1020.13 1293.65 1024 1296.43C1031.38 1301.71 1038.79 1307.68 1044.24 1315C1066.14 1344.45 1056.86 1390.11 1040 1419C1026.87 1414.05 1015.77 1418.24 1005.02 1427.33C1002.53 1429.43 993.204 1440.37 997.697 1443.88C1001.74 1447.04 1015.71 1441.08 1020 1439.65C1038.9 1433.32 1063.62 1429.89 1059 1405M968 1234L981 1250M791 1267L782.671 1283.83L733 1319M770 1332L789 1324C782.58 1314.69 767.111 1312.1 762.047 1301.91C760.1 1297.99 763.507 1294.63 766.019 1292C773.033 1284.67 780.08 1276.3 788 1270M670 1280C702.025 1295.26 687.003 1345.8 696.157 1374C699.353 1383.84 711.346 1394.09 718.576 1401.25C732.881 1415.41 747.373 1430.01 759.286 1446.29C769.668 1460.47 768.249 1478.08 773 1494C795.914 1483.09 812.701 1463.96 831 1446.91C838.339 1440.07 848.877 1431.57 845.821 1420.11C843.734 1412.28 824.595 1410.57 818 1410.09C802.009 1408.92 780.523 1405.41 765 1410.33C757.219 1412.8 748.498 1420.05 742 1425M668 1281C668.048 1298.25 669.354 1317.62 675.24 1334C679.824 1346.75 687.317 1357.84 693 1370M782 1316C781.938 1311.01 780.239 1292.89 785.564 1290.25C789.314 1288.39 794.994 1294.12 796.427 1297.02C801.034 1306.32 794.799 1314.86 791 1323C797.579 1323.04 806.744 1319.4 811.857 1315.21C818.114 1310.08 822.282 1302.89 831.96 1307.01C841.409 1311.03 847.459 1328.52 852.281 1337C865.188 1359.7 859.763 1376.59 858.089 1401C856.506 1424.1 858.313 1450.22 849 1472C836.17 1468.79 818.685 1481.83 809.83 1489.62C805.187 1493.71 798.666 1495.76 800 1503C811.409 1497.67 818.982 1486.81 830 1481.57C837.331 1478.09 847.767 1482.95 849 1472M1014 1291L1025 1324M767 1297L781 1309M970 1299L971 1299M966 1300L963 1302M791 1323C789.98 1332.02 802.157 1341.11 806.91 1348C815.666 1360.69 821.026 1375.2 829.516 1388C835.434 1396.92 844.418 1405.79 845 1417M673 1369L683 1376L669 1405C688.529 1415.29 701.504 1426.1 713.921 1445C722.648 1458.28 729.912 1487.4 745 1494.18C753.102 1497.82 762.727 1495.6 771 1494M670 1372L672 1372M697 1380C698.425 1391.28 697.416 1409.53 704.653 1418.89C710.67 1426.67 730.102 1427.58 739 1426M673 1391C672 1387.11 673.474 1385.72 677 1384M669 1388L671 1388M847 1419L856 1421M858 1423C883.03 1432.49 895.565 1451.6 907.32 1474C916.145 1490.82 923.055 1508.7 919.671 1528C917.496 1540.41 905.821 1547.67 902 1559C923.698 1551.04 939.848 1522.85 949.219 1503C952.548 1495.95 956.597 1487.86 957 1480M733 1427L730 1431C734.544 1433.23 738.631 1432.37 743 1430M1055 1429C1049.56 1440.43 1041.02 1457.75 1027 1459.79C1019.83 1460.83 1012.99 1458.01 1006 1457M726 1433L729 1432M1007 1458C1009.48 1466.66 1012.6 1475.38 1015.34 1484C1016.48 1487.55 1018.91 1492.24 1016.96 1495.89C1013.96 1501.5 1007.32 1499.7 1003 1497.04C996.874 1493.28 992.02 1487.75 986 1483.84C977.939 1478.59 969.622 1475.14 962 1469M850 1471C867.534 1495.38 823.507 1510.29 808 1515C815.31 1522.91 828.828 1522.84 835.436 1531.21C841.036 1538.3 839.151 1550.89 843.98 1559C856.782 1580.5 886.417 1572.57 902 1559M957 1485C966.874 1490.97 966.906 1512.72 968.427 1523C970.267 1535.43 973.984 1548.37 973.541 1561C973.301 1567.84 969.852 1574.18 969.171 1581C967.532 1597.38 967.585 1616.62 969.17 1633C970.827 1650.13 980.524 1662.66 990.526 1676C1011.52 1703.99 1034.25 1721.03 1063 1740M773 1495C782.554 1525.15 792.441 1562.94 820 1582.2C836.87 1593.99 876.194 1590.11 886 1570M799 1502L794 1513M1101 1591C1091.02 1578.42 1078.62 1565.29 1062 1562.32C1052.91 1560.7 1043.23 1559.24 1034 1559.01C1027.83 1558.86 1020.4 1560.17 1015.06 1556.3C1003.2 1547.69 1022.36 1534.83 1029 1530.8C1050.19 1517.93 1070.85 1500.11 1095 1516.25C1100.1 1519.65 1108.29 1525.91 1110.17 1532C1111.73 1537.07 1108.35 1544.89 1107.42 1550C1105.08 1563.01 1101.58 1578.79 1102.16 1592C1102.55 1600.88 1109.77 1612.07 1112.12 1621C1115.52 1633.98 1115.58 1646.85 1117.29 1660C1119.55 1677.38 1127.78 1698.39 1117.79 1715C1113.6 1721.96 1107.01 1727.5 1101 1732.83C1095.4 1737.8 1088.45 1742.21 1081 1743.69C1070.4 1745.79 1050.3 1748.23 1040.04 1744.4C1032.12 1741.45 1022.56 1732.5 1016 1727.08C998.261 1712.42 981.336 1695.45 967.475 1677C954.49 1659.71 938.821 1624.26 969 1616M804 1514L808 1515M1102 1595C1092.11 1608.61 1088.55 1638.38 1091.33 1655C1092.37 1661.22 1096.05 1666.71 1096.82 1673C1098.6 1687.69 1098.36 1704.17 1099 1719M970 1615C997.408 1612.82 1027.86 1603.37 1055 1611.59C1066.14 1614.96 1081 1623.18 1082.78 1636C1084.64 1649.31 1066.86 1667.59 1062 1680C1054.13 1700.12 1058.23 1716.67 1060 1737" transform="translate(-577.122,-226.816) scale(0.927558,0.332853)"/></svg>