<svg xmlns="http://www.w3.org/2000/svg" xmlns:svg="http://www.w3.org/2000/svg" xmlns:sodipodi="http://sodipodi.sourceforge.net/DTD/sodipodi-0.dtd" xmlns:inkscape="http://www.inkscape.org/namespaces/inkscape" xmlns:xlink="http://www.w3.org/1999/xlink" width="210mm" height="297mm" viewBox="0 0 210 297">
  <sodipodi:namedview/><g inkscape:label="Ebene 1" inkscape:groupmode="layer" id="layer1">
    </g>
<path style="fill:none;stroke:#000000;stroke-linecap:round;stroke-width:5.0" d="M576 342C589.064 335.713 607.795 338.182 622 336.83C655.015 333.688 694.312 336.891 723 355.3C776.096 389.373 790.681 465.362 796.17 523C798.038 542.616 805.709 567.685 800 587C794.632 579.622 793.713 568.516 790.189 560C781.67 539.415 772.502 519.097 762.895 499C744.128 459.739 717.494 429.372 685 400.714C658.532 377.372 633.395 359.165 599 349.291C585.073 345.292 571.971 344.027 558 341.741C549.628 340.371 541.326 337.945 533 341C537.789 345.89 549.272 345.057 555 342M468 436C453.672 412.989 445.389 391.608 450.328 364C451.718 356.227 456.239 343.645 465 341.758C474.05 339.809 486.308 354.897 489.471 362C502.531 391.33 487.2 418.995 467 439C428.317 477.31 374.547 494.993 342.035 541C304.509 594.104 318.77 657.588 322.91 718C325.264 752.333 325.848 791.057 337 824C343.758 816.051 348.406 806.766 357.015 800.428C363.918 795.346 375.02 787.804 384 788.275C398.116 789.016 409.265 810.135 412.7 822C423.39 858.931 408.897 892.362 407.985 929C407.674 941.49 403.665 958.22 412.394 968.96C432.891 994.178 471.15 968.948 495 967M530 341L533 341M469 437C523.621 491.621 603.859 513.908 651.105 577C684.231 621.237 699.438 675.964 706.718 730C710.602 758.835 710.535 789.144 719 817C724.714 812.014 727.633 802.641 731.312 796C735.425 788.578 741 781.828 746.014 775C764.193 750.244 785.049 728.542 795.561 699C800.659 684.673 801.666 668.029 803.169 653C804.452 640.171 808.247 619.704 802 608L796.725 653L786.841 702L785 718M318 572L319 587M800 587L802 608M569 820C547.415 816.157 523.909 816.895 502 817.001C495.956 817.03 482.269 821.285 477.333 817.243C473.113 813.787 477.386 803.588 477.83 799C479.423 782.538 481.614 764.394 478.854 748C474.219 720.464 449.534 712.23 431 697C441.505 689.521 453.892 686.737 466 682.974C478.245 679.169 491.184 673.547 504 672.174C530.224 669.364 557.387 676.462 582 684.667C595.122 689.041 609.402 692.225 621 700.094C632.189 707.685 640.322 719.884 649.885 729.349C657.328 736.717 666.66 741.53 673.985 749.001C687.363 762.644 698.471 778.462 712 792M782 730C782 751.88 782.621 773.518 787.12 795C790.943 813.254 798.053 830.835 802.346 849C813.466 896.058 824.492 944.161 831.573 992C834.392 1011.05 826.27 1030.71 821 1049C819.399 1054.55 813.292 1067.4 816.002 1072.83C820.555 1081.94 836.255 1090.25 844 1096.87C847.148 1099.56 850.571 1103.03 855 1102.91C867.516 1102.56 882.596 1092.9 895 1097.15C903.85 1100.18 909.926 1110.16 915.704 1117C929.831 1133.71 943.427 1152.65 953.637 1172C957.371 1179.08 963.167 1185.87 964 1194L929 1163L854 1105M719 817C710.774 859.418 712.567 905.88 729.851 946C734.258 956.228 742.625 963.396 747.723 973C757.419 991.266 761.838 1012.31 772.951 1030C783.192 1046.3 799.307 1057.89 813 1071M555 819C544.88 825.888 529.695 821.789 534.589 837.995C535.235 840.135 535.999 842.009 537 844C540.936 840.802 542.892 829.657 548.012 828.921C555.521 827.842 554.961 842.953 565 837M337 824C336.602 836.554 329.543 848.795 328.961 862C328.803 865.562 326.769 871.437 329.858 874.303C333.02 877.238 343.417 872.436 347 871.344C362.062 866.756 377.481 864.68 393 865M516 833L532 828M336 831L346 862M560 840C553.824 851.57 540.406 854.912 530 861C538.682 872.693 550.606 869.669 563 868C562.2 872.501 559.562 876.483 558.945 881C558.362 885.268 560.541 888.854 558.424 893C553.461 902.72 541.413 909.99 533 916.499C518.341 927.841 503.128 938.242 486 945.573C465.289 954.436 441.496 960.832 423 974M563 868C571.16 861.378 578.704 854.943 589 852M527 860L530 862M388 865C375.556 873.472 357.16 873.051 343 877.671C335.397 880.152 328.615 886.83 321 888M326 888C338.494 894.116 346.997 885.743 359 887.291C365.715 888.157 369.772 896.196 376 899L379 891M358 888L361 909M376 899C370.484 915.224 339.835 934.606 323 935M556 1070C545.576 1071.99 539.066 1081.85 531 1088C527.797 1082.45 529.048 1071.38 522.867 1068.04C515.139 1063.87 500.645 1079.11 495 1083.27C488.497 1088.05 477.779 1091.83 472.904 1098.11C467.865 1104.6 464.64 1121.4 456.79 1124.67C448.568 1128.1 430.203 1116.8 424 1112.1C398.246 1092.6 385.15 1061.32 382.17 1030C380.079 1008.03 382.348 985.558 376.254 964C372.1 949.306 356.708 942.931 350 930L393 915M342 931L350 930M555 1071C554.647 1088.03 544.016 1100.05 531 1109.73C509.219 1125.94 486.188 1132.55 459 1126M815 1075C810.71 1093.24 833.344 1111.6 850 1102M456 1126L449 1141C461.949 1147.82 475.106 1152.14 487 1161.24C492.108 1165.14 499.148 1174.37 506 1174.56C512.919 1174.75 520.131 1167.14 525 1163.08C538.219 1152.05 550.032 1139.04 564 1129C567.585 1140.8 567.916 1153.88 570.196 1166C572.484 1178.16 579.289 1200.02 574.258 1211.9C569.841 1222.32 547.443 1224.18 538 1225.29C524.72 1226.84 510.93 1222.42 498 1219.66C481.707 1216.19 465.306 1213.5 449 1210C440.189 1208.11 428.912 1202.57 420 1204C428.427 1214.92 446.097 1222.61 458 1229.42C477.938 1240.83 499.689 1253.54 523 1255.83C559.647 1259.43 598.615 1230.01 621.911 1205C632.049 1194.11 643.151 1181.15 650.113 1168C656.455 1156.02 659.256 1140.46 673 1134C671.658 1144.09 661.856 1154 655 1161M676 1131L673 1134M375 1173L420 1205M645 1179C644.414 1191.81 638.005 1204.66 634.756 1217C629.933 1235.32 627.21 1254.06 628.039 1273C629.148 1298.32 642.044 1323.4 644.826 1349C651.118 1406.89 657.174 1472.19 641.091 1529C637.189 1542.78 632.337 1556.46 625.335 1569C622.005 1574.96 616.821 1579.84 614 1586C624.612 1589.05 639.421 1583.29 650 1581.4C669.972 1577.84 690.367 1578.77 710 1572.5C716.375 1570.47 735.671 1565.55 734.883 1556.23C734.411 1550.65 717.533 1554.78 714 1555.02C693.976 1556.42 668.215 1567.46 652 1579M386 1181C388.27 1185.77 392.487 1190.11 398 1189M398 1192L399 1192M965 1195L970 1202M614 1586C603.196 1592.23 587.175 1591.73 575 1593.29C552.581 1596.15 529.966 1601.43 508 1606.65C497.275 1609.21 481.779 1619.11 471 1617C499.147 1557.6 508.385 1498.31 509.985 1433C510.507 1411.71 505.598 1390.25 507.09 1369C508.057 1355.21 521.088 1351.4 531.907 1359.11C545.99 1369.14 546.979 1396.55 550.001 1412C558.258 1454.23 566.702 1497.23 583.72 1537C589.428 1550.34 598.31 1580.27 614 1584M1121 1432L1058 1483C1055.39 1472 1049.28 1462.76 1049.05 1451C1048.22 1408.12 1084.32 1380.73 1121 1369M1 1380C21.8291 1374.98 45.0159 1378.59 66 1380.83C75.1188 1381.81 86.1551 1383.02 91.0147 1392.02C105.013 1417.92 88.8602 1448.62 79.9529 1473C62.8667 1519.77 50.6052 1571.18 40.9992 1620C36.5769 1642.48 33.9017 1667.67 40.591 1690C42.3217 1695.78 46.7891 1708.56 53.0934 1710.74C59.4682 1712.95 68.8956 1699.28 72.0108 1695C86.0283 1675.74 99.2243 1656.35 111.6 1636C127.755 1609.43 146.552 1583.4 165.789 1559C176.597 1545.3 187.181 1530.56 201 1519.67C228.672 1497.87 268.87 1484.06 303 1476.43C328.488 1470.72 336.822 1490.72 345.861 1511C352.675 1526.29 361.693 1540.37 369.688 1555C378.151 1570.49 386.066 1586.16 400 1597.67C418.052 1612.58 445.796 1616.5 468 1620.74C489.365 1624.82 510.861 1633.56 532 1639.12C545.413 1642.64 562.927 1644.31 575 1651L603.015 1616L640 1585M1 1412L22 1411C18.3494 1418.19 8.76204 1422.32 1 1423M1 1435L20 1453M1058 1483L1032 1508C1044.55 1511.17 1058.77 1504.8 1072 1508.27C1076.96 1509.56 1094.36 1514.53 1094.36 1521.01C1094.36 1526.17 1081.13 1533.16 1077 1535L1075 1510M1059 1483L1072 1507M1026 1511L1032 1509M906 1560C920.26 1543.66 947.549 1525.65 968 1536M1077 1535C1046.21 1565.13 1008.83 1588.92 980.5 1622.17C976.725 1626.6 969.883 1633.4 968.248 1639C965.712 1647.68 972.054 1659.43 961.945 1665.93C946.695 1675.73 923.364 1677.33 906 1681.43C880.368 1687.48 856.034 1700.15 831 1708.25C815.192 1713.37 791.236 1717.2 778 1727C785.483 1728.89 794.554 1725.89 802 1724.4C819.004 1721 835.319 1716.37 852 1711.75C859.428 1709.68 869.048 1709.82 875.891 1706.35C881.154 1703.68 880.405 1696.75 879 1692M1061 1546C1050.03 1545.02 1038.01 1549.78 1027 1550.83C1014.18 1552.05 1000.67 1549.76 988 1548C979.118 1546.77 966.139 1545.03 960 1538L964 1536M955 1538L960 1538M757 1553L738 1553C738.606 1549.17 741.035 1541.21 746.039 1541.21C752.797 1541.21 755.159 1552.17 760.129 1555.11C764.311 1557.59 771.261 1557.56 776 1559.03C784.766 1561.74 793.082 1566 801 1570.61C840.271 1593.48 875.236 1642.6 879 1689M738 1553L736 1555M761 1557L771.333 1583L793.601 1649L802.343 1671L803.292 1678.96L794 1678.75L771 1678C778.401 1683.34 790.141 1682.95 799 1684.44C815.843 1687.26 833.864 1691.24 851 1688.56C860.309 1687.11 868.264 1683.13 877 1680M903 1562C883.045 1578.25 869.991 1598.36 863 1623C871.522 1623.1 879.484 1618.12 888 1617.17C914.737 1614.17 947.012 1618.44 967 1638M470 1619L470 1620M467 1621C465.14 1626.52 461.063 1630.91 456.985 1634.99C453.407 1638.56 449.463 1641.93 445 1644.36C418.127 1658.98 400.131 1638 374 1638M392 1639C413.9 1632.52 439.329 1631.85 460 1621M967 1641C955.482 1650.1 942.486 1651.86 929 1656.35C911.652 1662.13 894.831 1669.76 879 1679M577 1649C592.257 1657.8 616.743 1657.75 634 1660.42C678.674 1667.35 725.876 1677.88 771 1678M575 1651C570.906 1662.25 554.358 1684.84 567.133 1695.68C570.881 1698.86 575.767 1697.14 580 1695.99C589.668 1693.35 599.254 1690.2 609 1687.88C637.728 1681.07 666.62 1680 696 1680C709.268 1680 730.119 1683.34 742 1677M750 1730L778 1727M2 1754L2 1780M19 1754L19 1779" transform="translate(-577.122,-226.816) scale(0.916467,0.324287)"/></svg>