<svg xmlns="http://www.w3.org/2000/svg" xmlns:svg="http://www.w3.org/2000/svg" xmlns:sodipodi="http://sodipodi.sourceforge.net/DTD/sodipodi-0.dtd" xmlns:inkscape="http://www.inkscape.org/namespaces/inkscape" xmlns:xlink="http://www.w3.org/1999/xlink" width="210mm" height="297mm" viewBox="0 0 210 297">
  <sodipodi:namedview/><g inkscape:label="Ebene 1" inkscape:groupmode="layer" id="layer1">
    </g>
<path style="fill:none;stroke:#000000;stroke-linecap:round;stroke-width:5.0" d="M273 199C263.45 193.195 253.582 194.375 243 194.964C220.569 196.214 197.9 200.403 176 205.349C160.985 208.741 140.657 212.567 130.995 197C125.122 187.539 128.057 175.115 130.211 165C131.746 157.792 132.438 147.468 135.789 141C139.22 134.375 145.908 129.371 150.91 124C160.901 113.275 170.597 102.212 180.367 91.2855C195.46 74.4042 208.551 52.0162 228.019 39.8257C238.594 33.2031 251.637 32.9894 263 28.1272C271.403 24.5315 286.888 14.4393 296 15.3827C308.99 16.7274 316.501 33.2014 326.004 40.0609C343.678 52.819 368.49 53.1805 385 68C373.373 76.2784 358.502 86.144 345 90.6666C335.921 93.7075 319.598 96.3427 314.363 105.019C306.94 117.322 308.762 135.269 309.101 149C309.709 173.635 312.774 198.43 311.09 223C310.264 235.038 309.495 249.445 303 260C296.482 244.654 296.399 227.237 289.11 212C286.731 207.026 280.528 198.601 274.005 199.658C270.773 200.182 268.722 202.841 269.497 206.015C271.16 212.827 275.054 219.016 276.485 226C278.632 236.47 277.416 249.467 276.155 260C273.423 282.815 266.304 313.181 250.787 330.985C245.783 336.727 238.8 339.604 233 344.325C218.17 356.397 205.667 370.744 191.83 383.801C188.056 387.363 183.415 388.946 180 393M715 56C749.192 63.8389 782.014 81.4851 814 95.2871C822.666 99.0266 843.634 106.606 837.397 119.762C835.941 122.834 830.872 122.459 828 122.921C818.31 124.479 808.747 122.964 799 123.007C772.95 123.12 752.95 116.471 732 100.626C719.543 91.2041 708.812 76.4442 711.143 60.0146C712.577 49.9146 724.562 43.0125 733 39.4282C756.867 29.29 785.426 24.0398 811 20.7184C855.743 14.9076 901.143 14.9208 946 20.2855C987.351 25.231 1027.28 36.6476 1069 38.7909C1090.69 39.905 1114.48 35.72 1136 33M224 46C240.464 46 256.102 48.8467 271 56.2477C276.241 58.8512 282.606 61.5193 285.362 67.0393C298.132 92.6147 281.711 123.544 307 144M186 81C187.584 65.5325 197.434 47.0457 214 47M385 68C392.973 65.9489 399.892 59.4932 407 55.4275C416.966 49.7267 427.532 47.2496 439 48.0903C462.663 49.825 482.049 65.2548 504 72.6443C530.351 81.5149 559.973 80.6619 587 75.9159C614.934 71.0106 642.1 61.2244 670 55.6003C683.099 52.9598 699.459 49.2726 712 56M838 121C854.646 118.85 870.252 113.347 886 107.921C892.294 105.753 898.309 101.996 905 101.184C924.326 98.8397 946.017 107.984 965 101.455C1004.58 87.8427 1042.5 70.7511 1083 60.1157C1099.97 55.6582 1117.25 50.049 1135 50M389 68C400.458 77.485 417.822 80.9111 426.272 94.0007C431.808 102.576 426.943 113.903 425.414 123C424.006 131.374 422.936 142.443 416.671 148.775C412.218 153.275 403.982 154.508 398 155.789C382.748 159.056 362.594 167.453 347 164.532C333.197 161.947 322.7 153.281 310 149M265 198C267.192 207.866 242.746 215.814 236.105 221.666C227.442 229.3 221.067 240.337 212.715 248.576C194.32 266.717 172.339 281.939 149 293C146.071 283.09 147.976 270.431 143.91 261C142.121 256.85 138.479 253.894 136.274 250C128.301 235.918 120.242 221.925 107 211.9C90.4715 199.386 63.7012 198.9 45 206.453C32.464 211.516 27.3225 222.402 17 230C13.1698 217.871 19.841 203.336 23.858 192C35.1459 160.146 53.4761 122.335 80 100.464C95.841 87.4016 124.198 69.2632 138.91 95.0007C146.222 107.792 137.836 121.943 139 135M183 89C192.661 102.186 199.711 119.321 212.259 130.13C217.255 134.434 224.172 135.24 230 138.084C248.086 146.912 264.935 156.45 278.066 172.039C281.158 175.71 288.96 184.526 287.292 189.787C286.087 193.583 278.968 196.477 276 199M901 408C898.569 409.662 882.182 418.714 880.832 413.642C879.26 407.737 893.84 396.93 898 394C898.646 397.133 898.943 404.995 901.742 406.879C904.402 408.67 909.5 405.772 912 404.716C920.687 401.046 929.424 397.629 938 393.691C956.874 385.025 973.32 371.83 994 367.665C1009.69 364.505 1025.46 364.328 1041 359.565C1046.45 357.895 1054.93 355.716 1058.42 350.892C1062.25 345.59 1057.26 336.093 1057 330L1034 332.701L1010 330.615L962 347C963.779 306.193 990.175 258.035 965.031 219C959.89 211.019 951.371 205.685 944 200C954.001 188.333 975.77 184.729 989 176.988C1017.05 160.578 1045.33 146.346 1074 131.219C1091.97 121.738 1113.14 108.954 1134 108M836 123C834.222 144.74 811.464 164.536 797 179C765.52 210.48 732.884 235.336 693 254.914C676.767 262.883 661.85 271.411 644 275.5C634.474 277.682 623.721 279.076 614 277.561C604.699 276.112 592.139 271.374 583 274L641 302C604.453 329.865 545.626 341.835 502 326.308C487.859 321.275 474.455 314.522 463 304.7C459.618 301.8 451.939 296.195 454.712 291.015C459.596 281.895 475.097 280.449 484 278.346C499.764 274.622 515.763 270.202 532 269.089C542.523 268.369 554.933 270.976 565 268C555.572 257.002 536.151 251.071 524 242.911C508.324 232.382 492.256 220.194 478 207.819C464.499 196.1 448.846 180.108 430 178.174C412.509 176.38 397.515 188.274 385 198.537C377.204 204.93 368.048 209.752 361.039 217.004C346.409 232.141 333.61 259.802 332.09 281C331.349 291.333 336.478 301.583 342.003 310C356.722 332.42 390.732 361.895 419 343C406.174 329.167 369.7 315.473 351 321M140 135L168 128.804L209 130M218 136C232.666 150.666 256.063 171.991 261 193M92 171L133 143M1136 166L1087 212L1103 207.219L1136 191M921 207C915.403 211.599 909.107 212.698 903.039 216.138C888.924 224.142 871.675 233.125 855 235.396C843.033 237.025 828.935 234.569 817 233.12C810.117 232.284 802.639 232.963 796 231C799.964 222.501 809.665 216.171 817 210.626C824.919 204.638 832.875 200.326 841 195.066C856.03 185.337 871.668 170.84 891 173.184C900.949 174.391 905.86 181.818 914 186.505C922.342 191.307 931.95 193.269 940 199L921 207L915 189M18 221C27.7264 212.516 31.6449 202.178 37.2485 191C39.2597 186.988 42.0094 180.397 47.0394 179.542C52.3193 178.646 58.3737 185.339 61.9961 188.439C66.1401 191.985 69.0205 195.592 70 201M865 181L885 179.398L904 182M838 198L813 232M940 199L944 199M266 202L268 204M73 204C73.688 208.68 75.4978 213.191 74.7863 218C71.1984 242.249 37.2054 240.615 20 252C15.621 241.372 11.5942 250.355 8.24769 257C3.10982 267.202 0.822655 275.427 2.28858 287C4.8767 307.432 11.612 333.372 29 346.529C46.7633 359.971 66.3495 351.931 81 338.95C85.3077 335.133 91.2706 331.674 93 326C98.2621 325.111 102.123 319.737 105.715 316C113.768 307.623 123.278 300.261 129.12 290C131.099 286.523 135.293 277.327 131.396 273.897C127.624 270.578 118.5 274.22 114 274.405C96.1226 275.138 72.4375 284.215 57 294C65.6708 305.38 79.3165 318.29 92 325M1087 212L1056 228M880 215C885.001 216.144 890.36 216.594 892 222M892 218C895.441 215.928 897.294 215.354 901 217M1 227L15 224M18 230L1 255M728 239L771 233.17L795 232M809 233C806.464 246.114 793.737 260.169 787.309 272C774.782 295.056 765.808 319.012 758.28 344C755.693 352.587 746.834 371.377 749.552 380C754.035 394.224 776.451 408.248 789 414.741C799.205 420.022 815.107 426.539 826.941 424.964C829.833 424.579 830.705 422.709 829.975 419.991C827.727 411.622 822.13 406.874 826.901 398C840.156 373.349 878.157 372.912 896 393M790 234C785.214 244.276 775.059 253.622 768.424 263C755.885 280.724 745.411 300.232 738.976 321C734.97 333.93 731.382 348.377 738 361L746.248 346L764 318M15 236L18 242C23.5745 238.762 32.6794 235.144 37 242M852 236C847.648 244.398 832.614 250.929 825 256.745C807.504 270.11 792.455 286.453 776 301M66 238C75.6264 239.894 82.9444 244.874 93 245.83C108.362 247.291 119.12 243.278 134 250M60 239L41 265L38 244M17 243L17 245M981 251C1003.75 251 1026.37 256.375 1049 258.834C1077.99 261.984 1107.98 263.041 1136 272M20 252L31 279L41 265M699 254L685 267.171L643 302C673.954 324.78 654.164 368.64 645.576 398C642.105 409.866 633.204 430.41 645 440C653.3 426.631 655.606 399.147 652 384M1018 256C1028.5 264.971 1043.61 266.127 1053.91 276.174C1069.08 290.988 1059.8 310.649 1059 328C1073.14 327.961 1086.92 321.082 1101 321.499C1108.75 321.729 1122.45 327.853 1129 332C1124.1 337.323 1117.15 340.137 1111 343.799C1096.32 352.54 1085.51 359.639 1068 360M303 260C302.438 278.999 285.765 297.776 276.054 313C271.094 320.776 266.455 330.279 259.7 336.66C252.191 343.753 242.52 348.32 235.109 356.089C230.749 360.66 231.303 366.978 227.49 371.714C219.918 381.12 207.983 390.26 204 402C214.499 399.27 225.437 385.823 226 375M1124 262L1135 260M1 262L2 267M302 267C314.229 283.524 307.109 311.612 332 318.699C336.602 320.009 341.263 320 346 320M565 267L583 274M40 268L57 294M144 277C144 286.686 143.294 296.738 146.711 306C148.977 312.143 155.722 318.108 154.221 325C151.998 335.207 145.829 352.762 136 357.427C129.022 360.74 122.206 357.785 115.109 363.105C107.854 368.543 114.877 377.706 106.956 383.297C102.203 386.652 97.1961 385.042 92 386.317C87.6228 387.392 84.7801 391.892 80 391.747C74.9502 391.594 69.5588 386.878 65 384.862C58.1224 381.821 49.196 380.51 43 376.353C34.9929 370.981 30.9508 362.188 25 355M31 279C24.4606 288.258 15.276 293.993 4 294M31 281C37.0483 289.224 42.7624 299.003 54 293M1136 284C1127.28 289.145 1117.17 294.866 1110.94 303.089C1108.71 306.043 1105.53 312.077 1109.33 315.062C1115.25 319.704 1128.6 315.239 1136 317M182 361C187.746 341.054 202.094 317.371 220 306.464C227.286 302.026 235.274 297.884 243 294.262C244.975 293.336 251.391 290.526 250.983 295.149C250.508 300.531 244.529 307.633 241.576 312C233.518 323.917 225.294 336.11 215.841 347C212.897 350.392 209.753 355.83 205.826 358.084C200.627 361.068 192.07 358.617 186.015 361.272C173.934 366.569 159.881 387.741 156 400C166.897 394.92 183.41 380.533 180 367M44 296C49.2492 309.437 72.6065 320.2 86 323M641 302L643 302M5 313C4.97177 323.231 -1.6303 338.1 2.6034 347.853C4.67894 352.634 13.0284 351.785 16.9568 354.653C22.4911 358.693 33.0225 373.548 35.061 380.004C35.8226 382.416 37.7946 388.208 35.3573 390.183C32.9478 392.135 26.8495 388.373 24 388L36 404L36 392M98 327L107 331M1136 327L1129 332M1059 328L1057 330M166 591C139.163 606.273 103.617 617.207 73 620.17C64.6032 620.982 47.9854 623.982 40.358 619.471C36.4338 617.151 41.3668 608.079 42.5332 605C46.5361 594.432 62.6878 579.314 74.0394 576.608C82.9 574.496 94.4343 581.666 103 583.482C106.321 584.187 111.618 582.898 114.411 585.028C121.669 590.561 115.039 600.705 129 598.7C166.969 593.246 199.769 571.635 236 560.72C260.417 553.364 285.568 550.1 310 543.511C328.534 538.512 346.33 530.672 365 525.756C384.711 520.566 404.826 517.198 424 510.05C450.631 500.122 479.767 486.22 501.996 468.334C507.527 463.884 521.509 449.348 517.868 441.093C515.455 435.623 507.138 433.346 502 431.67C485.581 426.313 468.173 427.555 452 433.436C431.371 440.937 412.409 452.526 392 460.536C366.333 470.61 337.253 474.653 310 470.424C299.204 468.749 287.263 467.098 278 461C283.234 454.541 292.868 452.374 300 448.41C316.814 439.063 333.453 429.414 350 419.603C378.991 402.415 408.192 377.742 440 366.326C450.464 362.57 463.007 364.178 474 362.845C491.431 360.731 509.236 355.917 526 350.795C549.983 343.466 574.067 335.291 599 331.729C612.461 329.806 628.357 330.747 638.996 340.185C648.786 348.87 647.242 359.612 653 370M419 343L421 343M961 348C957.923 357.678 956.045 371.762 961 381M2 351L5 379L23 387M898 394L938 362.667L959 351M208 358L213 362M1093 358C1101.01 358.638 1113.02 360.01 1118.03 367.105C1122 372.719 1119.93 378.912 1118.37 385C1114.62 399.649 1108.52 414.795 1101.14 428C1098.81 432.157 1087.96 443.242 1089.34 447.775C1090.51 451.579 1096.84 451.903 1100 451.985C1112.12 452.303 1123.96 454.483 1136 455M204 360L186 387M215 362L225 372M740 362C740.203 368.252 743.934 372.487 748 377M739 369C734.424 393.649 738.251 442.406 771 444.816C784.496 445.808 794.228 435.552 807 432.375C815.225 430.329 831.272 434.523 837 429L831 423M46 379C47.8679 382.834 52.3877 385.083 53.8241 388.996C56.6398 396.666 42.4386 394.435 39 394M4 380L4 381M748 382L742 411M155 401C149.208 411.69 158.004 419.294 169 419.425C182.373 419.584 192.529 409.897 203 403M36 404L38 406M880 415C868.564 424.373 851.549 428.999 837 429M833 433C820.286 441.663 801.152 444.99 786 445M1104 487C1104.19 484.588 1109.27 471.288 1110.57 479.153C1111.28 483.424 1106.69 486.72 1104.97 490.17C1096.62 506.936 1062.01 524.306 1046.39 507.674C1027.73 487.805 1053.52 459.69 1074 455.377C1094.21 451.119 1110.29 465.717 1126 475C1124.16 478.306 1118.32 483.993 1118.92 487.852C1119.65 492.623 1130.88 492.911 1133.27 489.566C1135.84 485.962 1131.25 480.621 1130.65 477C1130.04 473.292 1132.79 470.592 1135 468M258 463L277 460M115 584C115 575.13 115.699 564.892 110.834 557.04C108.015 552.49 98.2068 548.836 98.2068 543.001C98.2068 536.669 111.658 529.703 116 526C101.185 518.094 79.8513 523.435 64 520C68.9409 508.461 90.4502 501.184 101 495.012C119.223 484.35 140.808 479.377 161 473.842C178.995 468.909 197.024 462.699 216 464.09C229.276 465.063 242.542 470.185 255 474.495C270.507 479.86 287.92 484.212 301 494.518C303.786 496.713 311.793 502.246 311.793 506.155C311.793 512.67 294.824 520.109 290 523.061C273.488 533.167 255.985 542.608 239 551.741C232.229 555.381 220.631 559.011 217 566M1110 466L1085 469.683L1051 483C1056.78 498.243 1069.78 500.48 1082 508M1113 469L1113 475L1120 474M1133 474L1136 474M1113 475L1111 477M1126 475L1129 475M103 521C114.426 506.314 147.381 482.331 167 487M1041 585C1034.31 587.328 1024.13 586.123 1019 581C1037.67 579.885 1054.03 587.681 1073 584.289C1077.45 583.493 1085.84 583.979 1089.36 580.836C1091.58 578.852 1089.94 574.404 1089.33 572C1087.31 564.009 1082.63 557.561 1084.93 549C1091.1 526.024 1115.48 513.914 1136 506M996 673L1000 703C992.024 702.177 978.009 685.909 980.708 677.185C982.627 670.984 992.4 667.369 996 673C1003.68 671.146 1016.36 682.04 1025 683.971C1042.74 687.936 1059.14 686.521 1077 685.086C1086.84 684.295 1097.06 684.434 1106 680.115C1120.86 672.933 1153.87 635.202 1122 629.464C1088.82 623.49 1058.03 640.044 1028 651.053C1020.18 653.922 1012.46 657.544 1005 661.248C1002.22 662.63 997.581 666.094 994.302 665.184C990.969 664.259 987.771 654.861 985.822 652C979.086 642.111 971.181 633.434 962 625.754C946.701 612.956 928.815 604.926 912 594.539C906.448 591.109 903.207 584.307 897.87 581.43C890.337 577.368 881.429 576.883 874 572.034C868.926 568.722 867.594 562.316 863.401 559.277C855.774 553.748 842.282 559.149 836.179 547.907C831.119 538.586 849.162 521.494 857 518.603C864.559 515.816 875.178 517.073 883 517.83C904.22 519.884 922.744 525.547 937.995 541C942.616 545.682 948.172 550.335 951.546 556.001C953.653 559.538 954.563 565.587 958.228 567.821C966.889 573.1 982.243 570.528 992 572.643C1001.31 574.659 1009.12 580.548 1019 581M990 571C986.802 563.778 981.745 556.515 977.23 550C975.617 547.672 972.059 544.373 973.256 541.214C975.821 534.448 997.59 531.374 1004 529.731C1024.31 524.526 1044.3 522.165 1065 519.714C1077.9 518.187 1094.33 515.256 1107 519M1116 519L1136 523M97 524C94.1087 532.58 91.0398 534.645 97 543M116 526L122 525M913 525C899.441 533.306 845.768 526.941 861 556M924 526C935.276 523.315 952.285 523.622 961.996 530.638C966.232 533.699 968.478 538.294 972 542M245 546C219.507 550.53 197.654 566.595 171 569.075C163.511 569.772 154.904 571.684 148 568C152.267 562.85 158.716 560.462 163.83 556.24C186.25 537.732 207.548 523.764 238 527.718C246.187 528.782 258.988 528.79 265 535M948 549L968 541M96 542C85.3752 551.691 71.9595 556.426 60 563.954C57.9041 565.273 47.9226 570.017 50.7515 573.44C54.189 577.598 65.9281 574.293 71 577M956 567C947.831 571.709 923.362 570.463 915 566C921.514 558.344 933.607 553.198 943 550M866 558L884 556.303L914 567M112 558L142 570C134.64 576.626 126.496 581.304 117 584M78 576C83.3238 565.516 99.7996 559.094 111 559M910 567L902 581C917.606 581 933.804 579.313 947 570M143 570L147 569M1136 571L1092 582M411 642C405.713 637.667 400.234 643.271 394 642.775C384.484 642.019 366.855 627.986 363.937 619C360.874 609.571 375.313 602.649 380.741 597.555C400.102 579.384 435.983 574.538 459.941 587.419C469.076 592.33 459.575 617.51 449 614C444.853 624.772 424.536 630.565 415.09 637.788C391.01 656.199 357.688 664.483 327 660.714C311.913 658.861 298.55 653.498 284 649.899C271.269 646.75 257.14 645.209 245 640.123C215.857 627.916 189.869 596.21 155 612.919C148.308 616.125 149.441 622.31 144.682 626.076C136.693 632.4 124.628 634.383 116 640.579C112.941 642.776 107.609 645.706 107.457 650.001C107.014 662.485 128.431 667.573 137 671C162.91 681.363 189.95 685.329 217 691.424C227.555 693.802 241.262 700.145 252 697C236.306 676.402 205.5 660.967 182 650.873C169.461 645.487 151.191 643.035 148 627M1092 583C1100.86 603.023 1076.51 592.908 1067 587M393 590C406.178 597.142 424.655 594.569 439 599.692C445.369 601.967 454.099 605.333 449 613M283 626C311.412 608.519 347.739 592 382 592M1136 598C1127.16 606.314 1113.58 614.943 1110 627M209 616C224.882 606.843 253.655 612.095 271 614.579C277.707 615.54 285.003 615.676 291 619M446 620L447 616M450 615L448 617M200 616C187.559 622.896 163.21 625.705 149 626M443 617L441 620M297 618L309 622M286 627C306.728 628.467 335.551 635.349 340 660M1105 630L1099 672L1071 653.594L1040 647M410 638L412 639M343 662C343.926 666.05 345.237 669.794 344.532 674C339.579 703.536 310.061 702.115 286 701.999C281.774 701.979 264.527 697.794 262.137 701.607C260.567 704.112 263.616 707.272 265.069 709C269.901 714.744 274.269 720.729 278.406 727C289.85 744.345 293.798 767.679 295.829 788C296.589 795.6 294.819 803.621 297 811C315.418 800.738 323.766 774.758 335.348 758C341.242 749.472 348.585 741.799 357 735.746C361.49 732.516 367.841 730.781 371.61 726.775C376.984 721.064 376.961 712.081 379.356 705C381.525 698.587 385.751 693.42 388 687M993 666L993 668M1098 685C1096.42 689.568 1092.67 694.166 1087.96 695.853C1076.38 700.002 1062.97 701.119 1051 704.286C1042.8 706.457 1034.58 710.67 1026 710.957C1021.18 711.118 1004.88 703.553 1002.03 706.697C998.653 710.412 1001.91 720.686 1002.58 725C1004.82 739.494 1003.89 752.758 1001.48 767C996.714 795.202 985.072 820.537 987.089 850C989.368 883.269 1008.7 913.44 1017.96 945C1022.03 958.856 1024.88 972.936 1028.12 987C1029.21 991.76 1029.88 999.969 1033.56 1003.51C1039.06 1008.8 1054.61 1005.74 1062 1010L1059 1021C1062.83 1018.57 1067.71 1011.97 1072.09 1011.39C1082.91 1009.96 1098.65 1021.03 1105.96 1027.72C1108.85 1030.36 1114.85 1036.2 1112.76 1040.76C1110.92 1044.79 1097.12 1044.55 1093 1045.71C1077.49 1050.09 1062.2 1055.17 1047 1060.49C1041.52 1062.41 1032.71 1063.21 1030.13 1069.03C1022.9 1085.39 1045.76 1087.08 1056 1095.38C1059.7 1098.38 1066.27 1105.25 1063.51 1110.68C1061.91 1113.84 1051.48 1113.44 1048.02 1114.35C1039.46 1116.61 1030.45 1125.55 1023 1130.52C986.478 1154.86 946.58 1176.48 915.17 1207.16C905.049 1217.04 894.908 1234.67 889.951 1248C888.258 1252.55 888.529 1257.59 886.471 1262C873.676 1289.39 854.351 1315.03 838.8 1341C832.492 1351.54 829.354 1367.98 820 1376C815.051 1364.27 825.774 1344.57 830.4 1333C843.824 1299.41 859.159 1270.96 880.999 1242C888.427 1232.15 895.091 1217.59 908 1214M1097 692L1100 735C1064.36 723.702 1035.93 743.994 1005 757M252 697L261 701M386 697C380.454 715.756 383.008 737.869 384.83 757C388.387 794.348 395.348 831.577 397.91 869C398.806 882.074 398.534 895.907 397.961 909C397.708 914.776 395.012 922.37 398.307 927.726C401.951 933.648 410.482 934.373 416 937.471C424.374 942.173 430.816 949.874 437.996 956.13C446.282 963.351 453.133 971.923 462 978.522C470.64 984.951 481.012 988.774 488.83 996.289C505.393 1012.21 519.806 1030.88 539 1044C541.828 1039.95 544.428 1035.8 547.594 1032C549.906 1029.22 552.341 1026.55 555.001 1024.09C563.452 1016.3 572.912 1019.18 575.606 1031C576.573 1035.24 574.945 1039.9 576.519 1044C577.909 1047.62 581.29 1051.28 584.089 1053.9C591.863 1061.17 608.431 1058.65 612 1071L600 1071C603.009 1077.4 610.341 1082.79 617 1085C617.777 1079.67 615.198 1075.15 612 1071M1000 703L1002 705M1068 1010C1063.41 1006.53 1072.9 994.538 1074.85 990C1083.78 969.234 1093.5 948.774 1099.97 927C1103 916.797 1094.24 911.017 1087 905.213C1083.34 902.277 1078.49 901.619 1079.4 895.995C1085.85 856.184 1094.35 816.749 1100.92 777C1102.47 767.61 1101.22 757.54 1100.99 748C1100.92 745.264 1099.12 739.95 1101.04 737.647C1103.86 734.268 1110.84 740.557 1113 742.311C1121.64 749.33 1134.48 762.555 1136 774M1030 1068C1015.14 1068.31 999.65 1073.78 985 1076.54C970.751 1079.23 956.228 1080.27 942 1083C931.49 1085.02 912.534 1087.5 905.607 1076.96C901.899 1071.31 907.35 1059.57 909.72 1054C917.765 1035.09 927.72 1018 937.688 1000C945.258 986.329 956.963 969.557 959.671 954C963.305 933.123 964.887 907.193 963.961 886C963.009 864.239 959.58 843.528 965.424 822C970.424 803.584 979.748 768.965 1001 763M743 1013L745 1001C739.857 1001.8 735.084 1004.07 730 1005.25C717.327 1008.21 690.422 1005.38 689.946 990C689.864 987.35 687.852 982.978 689.212 980.564C691.033 977.332 698.784 977.52 702 976.56C708.872 974.51 714.555 970.579 719 965C712.247 960.481 702.062 947.906 694 947.046C684.226 946.002 682.942 960.314 671 953C684.336 934.107 693.643 899.575 683.356 878C676.329 863.261 663.546 852.665 655 839C682.756 817.836 722.14 808.271 756 805.946C768.859 805.063 779.098 800.525 792 806.352C808.234 813.683 817.536 835.265 819.711 852C820.843 860.716 820.346 870.391 818.739 879C814.528 901.561 802.427 920.012 790.619 939C784.721 948.483 779.89 958.936 773.367 968C767.435 976.242 760.041 983.983 755.213 993C748.949 1004.7 744.947 1017.03 740.078 1029C736.323 1038.24 730.718 1047.03 728.644 1056.99C727.703 1061.5 732.674 1065.66 735.154 1069C744.395 1081.46 756.4 1086.14 766.816 1096.2C769.296 1098.6 779.301 1108.7 776.863 1112.36C774.972 1115.2 765.635 1111.55 763 1110.84C748.893 1107.08 732.12 1102.28 720 1094C717.418 1100 710.514 1118.49 714.117 1124.57C716.865 1129.2 731.182 1128.75 736 1128.96C757.83 1129.92 783.076 1127.15 803 1117.68C816.524 1111.25 837.374 1097.74 846.683 1085.96C849.333 1082.61 848.711 1078.7 850.363 1075.01C852.508 1070.23 859.124 1063.76 863.043 1060.21C870.251 1053.68 887.212 1053.16 891.682 1044.9C897.826 1033.54 889.199 1018.85 896.564 1008C905.665 994.599 921.607 1000.78 932 1009M761 806C769.803 811.399 779.584 812.555 788 819.465C808.635 836.406 810.028 865.676 805.919 890C804.321 899.458 801.266 908.899 798.252 918C796.575 923.062 793.675 926.785 796 932M671 953C668.8 951.608 663.677 949.185 663.461 954.062C663.325 957.157 666.666 959.173 667.455 962C668.574 966.008 664.004 982.566 660.437 984.932C657.18 987.092 650.626 983.363 647 983C647.823 986.466 652.632 994.199 650.096 997.382C648.029 999.974 642.558 997.971 640 997.254C630.493 994.589 619.718 990.797 612 984.532C592.512 968.715 584.811 934.702 589.804 911C591.683 902.079 595.658 890.761 603 885L606 890C610.487 884.544 621.293 871.798 618 865L604 880C595.168 863.451 608.421 840.56 615.752 826C617.866 821.802 621.255 810.747 627.04 810.737C639.359 810.715 646.764 832.665 655 839M653 839C642.745 847.875 627.881 855.093 621 867M695 865C712.273 851.934 724.424 846.108 746 844.25C750.803 843.836 764.191 842.295 766.353 848.148C768.39 853.661 761.974 861.538 761 867L768 866M619 865L622 864M697 864L712.996 871.363L722.089 877.71L733 874.141L760 868M755 870C752.742 874.417 747.056 875.757 745.133 880.104C742.971 884.99 749.767 891.977 752 896M723 879C729.838 883.666 736.447 881.727 744 880M1136 880C1135.72 893.075 1128.22 906.064 1123.45 918C1111.21 948.596 1096.01 984.954 1073 1009M604 881L603 885M729 884C745.008 904.185 756.477 929.395 741.302 953C739.301 956.113 734.28 966.49 730.701 967.424C727.673 968.214 722.426 965.159 719 965M750 891L763 884C768.801 889.326 783.483 893.034 786.258 900.018C791.914 914.256 778.217 939.293 773.974 953C772.159 958.866 768.167 965.127 771 971M606 890L597.026 914L591 941M409 937C436.022 974.617 437.695 1020.98 451.025 1064C460.696 1095.21 479.473 1125.59 481 1159C470.293 1153.78 462.311 1138.53 453.985 1130C434.112 1109.63 412.109 1091.25 393.174 1070C386.493 1062.5 383.801 1051.14 376.775 1044.38C368.658 1036.57 356.274 1032.38 347 1025.97C330.374 1014.49 317.781 999.177 308.981 981C297.743 957.787 291.83 912.214 316.004 894.434C325.564 887.402 336.137 896.848 336.771 907C337.36 916.443 324.24 920.388 321.657 929C319.556 936.003 325.252 941.277 330.001 945.424C339.007 953.289 347.107 961.206 357 968.026C364.294 973.053 371.841 977.816 379 983.025C380.991 984.474 384.731 988.104 387.397 986.172C390.69 983.786 389.939 974.641 390.424 971C392.109 958.36 391.802 940.181 398 929M1078 902C1076.77 911.1 1074.1 920.1 1071.87 929C1070.28 935.383 1068.75 941.754 1066.67 948C1065.02 952.932 1063.02 961.184 1057.81 963.589C1049.41 967.473 1037.17 953.585 1034.48 947C1024.39 922.327 1049.52 883.379 1077 899M605 895L616.259 921L639.11 961L647 983M373 902L395 922M375 907C378.871 915.802 387.151 925.108 396 929M793 931L793 933M671 955L668 961M596 957C611.887 964.761 623.86 978.274 643 980M669 962L678 971C684.897 960.246 698.389 962 710 962M769 969L768 973M728 970L727 972M678 971L688 981M663 987L688 998M661 988L660 1002M745 1001L754 995M651 998L685 1009L688 998M888 1004L902 1001M659 1003C662.207 1018.78 679.651 1023.83 692 1029.97C705.674 1036.76 717.473 1046.18 727 1058M1004 1070L978 1046.72L942 1023C970.373 1001.06 997.474 1004 1031 1004M891 1004L896 1008M897 1007L927 1018M935 1007C939.928 1009.92 942.408 1013.26 943 1019M1035 1007C1039.6 1016.67 1047.08 1029.81 1058 1020M659 1009C659 1020.12 659.269 1032.11 665 1042L677 1026M685 1009L679 1023M687 1009C702.556 1013.51 713.776 1022.01 709 1039M932 1010L942 1023M1062 1010L1064 1010M928 1018C932.14 1021.42 935.737 1024.46 941 1022M937 1024L920 1034M944 1027L944 1035M1050 1027C1044.79 1039.1 1034.35 1050.56 1033 1064M569 1031L574 1041M741 1031C741 1044.8 744.117 1056.62 750.269 1069C753.937 1076.38 760.907 1083.78 762 1092M858 1067L914 1040M544 1041C550.22 1043.96 554.738 1048.03 556 1055L539 1044M665 1042C662.28 1052.57 652.773 1062.26 656 1074L675.825 1067.57L665 1046M708 1042C705.049 1049.04 700.195 1054.73 694 1059.21C690.888 1061.47 684.567 1063.53 682.921 1067.21C681.16 1071.15 687.49 1074.74 690 1076.62C699.155 1083.51 708.834 1088.82 719 1094L727 1062M577 1046C564.982 1067.65 588.283 1062.34 600 1072M890 1048L892 1050M556 1055L571 1062M560 1059L563 1080C567.779 1075.64 570.069 1068.31 571 1062M588 1059L592 1066M677 1068L681 1068M616 1073L654 1074M1012 1073L1026 1081M656 1074C660.68 1090.25 669.022 1105.39 680.594 1117.74C692.326 1130.25 706.251 1140.52 714.738 1156.02C725.057 1174.86 733.376 1194.9 743.258 1214C752.934 1232.7 764.01 1250.75 772.688 1270C780.573 1287.49 785.468 1306.49 793.359 1324C795.975 1329.81 802.136 1334.73 805.856 1340C810.795 1346.99 813.855 1355.28 819 1362M769 1097L784 1096.83L808 1091.28L849 1075M563 1080L550.272 1111L540.022 1135L500 1178C492.416 1167.34 486.645 1176 479 1182.93C477.038 1184.7 469.117 1189.4 470.346 1192.66C471.499 1195.71 480.188 1196.74 483 1197.46C492.913 1199.98 502.89 1205.64 511 1211.77C526.84 1223.75 540.476 1237.28 549.88 1255C556.319 1267.13 560.028 1285.17 571 1294C573.228 1285.89 568.162 1276.52 565.316 1269C556.155 1244.79 539.088 1221.31 520.996 1203C516.659 1198.61 505.838 1182.51 499.95 1181.63C495.476 1180.97 488.435 1192.79 486 1196M1025 1081C1022.84 1088.35 1017.93 1095.28 1012.93 1101C1011.56 1102.56 1007.67 1105.88 1009.18 1108.34C1010.76 1110.93 1018.76 1106.94 1021 1106.38C1029.5 1104.25 1057.73 1097.79 1057 1112M617 1085C633.863 1099.01 657.285 1113.97 679 1119M626 1095C629.823 1109.74 643.451 1124.48 650.705 1138C662.346 1159.69 675.568 1180.72 686.111 1203C692.637 1216.79 696.156 1232.19 702.39 1245.71C709.15 1260.38 720.205 1274.76 723 1291L704 1288L707 1318C715.096 1313.75 734.344 1302.85 724 1292M950 1176C955.925 1167.59 964.863 1161.97 971.255 1153.96C982.77 1139.54 991.604 1120.88 1007 1110M1012 1110C1019.3 1114.82 1033.26 1113.93 1042 1114M495 1171L516 1149L548 1114M689 1122L712 1126L709 1145M464 1149C457.611 1158.69 442.65 1186.64 453.514 1197.55C459.136 1203.2 470.43 1202.97 477 1208C470.431 1212.38 457.577 1207.4 455 1200M708 1151L703.17 1196L701 1234M482 1160L489 1171M498 1171L504 1172M509 1171C521.824 1175.1 535.274 1175.93 544.621 1187.04C557.607 1202.48 561.646 1223.57 576.039 1237.96C600.258 1262.18 637.281 1269.52 669 1278.29C676.617 1280.4 684.381 1281.94 692 1284.01C694.549 1284.7 698.927 1286.71 701.397 1284.93C704.041 1283.03 702.927 1277.68 702.576 1275C701.409 1266.11 701 1256.97 701 1248M500 1178L500 1180M483 1198L477 1207M477 1209C491.397 1223.4 507.773 1235.06 520.739 1251C537.73 1271.88 554.996 1293.14 570.7 1315C575.013 1321 576.941 1329.27 581.649 1334.77C587.482 1341.59 604.44 1339.33 611 1335L601 1318M702 1286L704 1288M727 1294C752.385 1296.08 770.434 1314 792 1324M572 1295L572 1298M1135 1318C1130.47 1352.61 1096.64 1358.44 1070 1371.22C1063.4 1374.38 1056.08 1376.52 1051 1382L1073 1404M542 1520C562.744 1508.15 589.36 1506.19 613 1503.83C626.556 1502.48 641.341 1501.9 654 1507.89C665.095 1513.14 671.676 1522.61 678.887 1532C685.719 1540.89 698.045 1551.77 696.888 1564C695.851 1574.96 680.875 1588.35 674.373 1597C666.125 1607.97 656.669 1619.44 645 1626.91C615.878 1645.55 578.127 1638.45 546 1637.04C529.517 1636.32 503.684 1637.96 489 1630C507.476 1615.87 534.701 1622.23 555 1613.53C567.112 1608.34 580.595 1589.76 576.348 1576C574.309 1569.4 567.73 1562.84 562.911 1558.09C553.226 1548.55 537.565 1546.69 525 1542.96C507.848 1537.87 490.283 1528.17 479 1514C489.065 1506.3 504.184 1503.03 516 1498.58C542.793 1488.47 569.542 1478.96 596 1467.99C605.365 1464.11 614.312 1459.1 624 1456.03C627.266 1454.99 632.995 1454.66 634.306 1450.86C636.82 1443.57 630.103 1426.6 628.424 1419C622.586 1392.57 613.238 1364.08 612 1337C645.178 1337 674.689 1328.02 706 1319M707 1320C707.002 1338.99 708.37 1359.09 710.17 1378C710.974 1386.45 713.971 1400.44 710 1408L681 1392M138 1399C98.1766 1386.59 148.786 1310.52 177 1342C171.296 1346.94 166.081 1345.12 160.001 1348.18C153.243 1351.57 148.188 1360.23 145.453 1367C141.928 1375.72 141.315 1384.81 139.984 1394C139.474 1397.52 137.647 1402.22 140.6 1405.18C144.972 1409.56 153.473 1408.27 159 1409.6C164.907 1411.02 169.281 1413.05 175 1410C172.827 1406.5 171.706 1402.19 168.775 1399.21C161.253 1391.58 150.331 1394.81 141 1395M177 1342C188.055 1334.74 195.839 1344.81 194.7 1357C192.584 1379.65 193.178 1412.86 179 1432L173 1412M179 1342L194 1359M630 1350L642 1360M116 1427C113.315 1426.2 109.696 1426.28 107.495 1424.4C97.3725 1415.75 85.1415 1382.69 106 1378.52C110.662 1377.59 115.652 1380.76 120 1382M670 1381L678 1388M1048 1382L1051 1382M828 1383C837.274 1399.04 856.033 1408.08 870 1419.46C882.117 1429.34 891.144 1444.65 904 1453.03C922.389 1465.03 948.136 1461.5 969 1462.01C976.746 1462.2 985.477 1465.16 993 1463C989.721 1457.18 981.418 1454.32 976 1450.59C954.782 1435.98 923.634 1427.66 898 1428M828 1384C821.986 1391.07 818.35 1399.74 814.248 1408C807.8 1420.99 796.965 1445.59 809.185 1457.81C818.492 1467.12 835.962 1463.84 848 1465.29C869.202 1467.82 887.61 1473.9 906 1484.58C925.61 1495.96 938.433 1510.04 945.282 1532C946.784 1536.81 951.614 1546.08 948.357 1550.79C944.952 1555.71 936.36 1557.92 931 1559.75C918.976 1563.85 907.091 1568.45 895 1572.49C876.265 1578.76 858.858 1587.13 839 1589.71C805.368 1594.08 775.346 1582.61 747 1565.6C736.754 1559.45 725.558 1553.46 717.039 1544.96C708.823 1536.76 697.951 1526.53 694.638 1515C691.863 1505.34 700.265 1495.77 698.049 1487.04C696.257 1479.98 681.148 1474.33 675 1471.93C664.723 1467.91 654.176 1471.01 644 1473.63C629.174 1477.45 615.962 1485.13 602 1491.13C588.392 1496.97 573.16 1501.34 561 1510M123 1387L127 1405L134 1398M904 1427C911.303 1422.02 920.865 1419.79 929 1416.28C975.939 1396.03 1020.33 1395.7 1070 1403M176 1410L189 1398M126 1406C126.258 1429.35 145.987 1456.35 139 1480C124.135 1463.44 121.064 1435.2 125 1414M140 1406C141.658 1416.71 153.737 1416.88 159.566 1424.1C163.918 1429.5 161.325 1436.98 163.731 1443C165.65 1447.79 170.832 1450.16 174 1454M998 1512L987 1515C992.104 1502.26 1012.54 1494.27 1023 1485.91C1048.88 1465.22 1077.54 1448.95 1105 1430.65C1115.89 1423.38 1125.41 1414.46 1136 1407M173 1452L177 1444C181.725 1451.71 181.102 1462.21 182.155 1471C184.347 1489.31 186.019 1507.73 188.424 1526C189.539 1534.46 193.098 1548.64 190.682 1556.85C189.475 1560.95 180.72 1562.23 177.681 1566.02C169.058 1576.78 162.389 1597.28 165.904 1611C169.016 1623.15 184.979 1627.39 196 1628.84C200.922 1629.49 209.709 1629.81 212.86 1634.3C219.506 1643.77 217.99 1661.03 219.174 1672C219.762 1677.46 222.006 1682.63 223.091 1688C224.068 1692.83 228.838 1700.09 224.678 1704.29C221.558 1707.44 216.645 1708.93 213 1711.44C188.103 1728.58 160.207 1735.88 132 1720.48C110.059 1708.51 100.706 1685.51 103.715 1661C104.606 1653.75 104.271 1646.92 109 1641C116.685 1652.24 120.396 1669.65 122.562 1683C123.508 1688.83 122.968 1696.4 125.564 1701.79C130.354 1711.73 154.73 1718.45 160.697 1707C166.053 1696.71 168.84 1673.88 164.521 1663C161.804 1656.15 156.1 1650.74 151.65 1645C146.275 1638.07 138.65 1629.1 129 1629.09C121.502 1629.08 114.959 1634.11 109 1638C89.8017 1604.39 84.4788 1562.12 87.0895 1524C87.6702 1515.52 88.3076 1507.26 90.3735 1499C91.7617 1493.45 94.8504 1486.77 94.1458 1481C92.183 1464.92 68.4447 1455.47 70.2531 1438C70.7766 1432.94 74.325 1427.27 76.9267 1423C79.5187 1418.74 82.473 1415.13 87 1413C91.1286 1422.25 94.4817 1425.97 105 1426M179 1433L178 1443M1127 1455L1136 1451M1112 1463L1125 1457M993 1462L999 1465M1086 1473L1109 1465M1005 1508L1043 1491.3L1084 1475M224 1586C217.694 1589.86 199.229 1593.08 194.024 1585.57C190.258 1580.14 192 1569.27 192 1563C205.111 1565.37 215.443 1577.55 225.285 1585.57C232.254 1591.25 239.968 1596.1 247 1601.74C250.496 1604.55 261.793 1610.98 261.793 1615.96C261.793 1618.65 257.894 1619.68 255.999 1620.63C250.278 1623.48 245.423 1627.31 241.093 1632C224.464 1650.03 229.825 1679.53 253 1688.68C270.778 1695.69 289.661 1688.01 305 1678.54C309.985 1675.46 315.084 1667.41 321.005 1667C338.849 1665.76 356.228 1675.21 374 1673.91C392.69 1672.55 407.964 1660.8 426 1657.61C435.261 1655.98 453.566 1660.3 460.775 1654.44C470.37 1646.63 462.448 1628.01 458.938 1619C446.199 1586.3 430.335 1561.31 405 1537L414 1532C411.36 1530.02 406.662 1528.33 405.612 1524.94C404.167 1520.28 408.813 1515.19 412.04 1512.52C420.7 1505.36 434.786 1499.88 446 1499.09C461.614 1498 466.319 1509.13 479 1514M561 1513L562 1513M406 1523C416.282 1520.19 425.993 1514.03 437 1514.08C443.466 1514.11 447.092 1517.86 452.455 1520.49C465.297 1526.8 475.597 1535.22 486 1545M457 1521L474 1514M987 1515L985 1517M424 1535C420.738 1528.06 444.183 1523.89 450 1522M227 1587C239.183 1575.45 259.239 1576.06 275 1572.1C303.641 1564.91 332.695 1558.21 361 1549.72C373.411 1546 387.669 1543.38 399 1537L387 1532L404 1525M378 1531L386 1531M414 1532L421 1532M427 1536C440.075 1541.04 471.669 1551.87 484 1543M399 1537L405 1537M191 1561L191 1562M263 1616C270.702 1620.53 286.754 1629.95 289.444 1639.09C291.96 1647.64 279.768 1661.42 273 1664.71C265.043 1668.58 255.474 1667.43 247 1669M271 1619C286.459 1612.7 298.895 1622.27 291 1638C299.268 1642.84 308.698 1644.44 318 1646.08C321.286 1646.66 327.151 1647.22 328.208 1651.13C329.51 1655.95 323.564 1661.54 321 1665M473 1629L488 1630M109 1638L109 1641M275 1664C285.697 1669.93 302.089 1667 314 1667M35 1713C33.1337 1715.31 25.3801 1731.41 34.9136 1728.65C38.4615 1727.63 41.7262 1720.84 44 1718M44 1721L46 1743M7 1730C8.30748 1728.75 9.58634 1727.38 11.0448 1726.3C24.8531 1716.05 15.2077 1739.4 15.6435 1743.88C16.379 1751.43 25.2349 1743.24 27 1741" transform="translate(-577.122,-226.816) scale(0.904513,0.328844)"/></svg>