<svg xmlns="http://www.w3.org/2000/svg" xmlns:svg="http://www.w3.org/2000/svg" xmlns:sodipodi="http://sodipodi.sourceforge.net/DTD/sodipodi-0.dtd" xmlns:inkscape="http://www.inkscape.org/namespaces/inkscape" xmlns:xlink="http://www.w3.org/1999/xlink" width="210mm" height="297mm" viewBox="0 0 210 297">
  <sodipodi:namedview/><g inkscape:label="Ebene 1" inkscape:groupmode="layer" id="layer1">
    </g>
<path style="fill:none;stroke:#000000;stroke-linecap:round;stroke-width:5.0" d="M1024 91L1025 91M984 94L984 95M640 96L641 96M686 96L687 96M730 96L731 96M943 96L944 96M901 97L902 97M457 98L459 98M25 100L25 101M71 100L71 101M267 100L267 101M314 100L316 100M168 101L169 101M218 101L219 101M984 141L986 141M597 143L597 144M641 143L643 143M731 143L732 143M775 143L777 143M944 143L945 143M550 144L552 144M818 144L819 144M860 144L861 144M459 145L459 146M505 145L506 145M413 146L413 147M72 148L73 148M121 148L121 149M316 148L318 148M169 149L170 149M218 149L220 149M267 149L268 149M22 157L1 210M1026 184L1028 184M986 188L987 188M598 190L598 191M643 190L645 190M776 190L778 190M905 190L905 191M945 190L947 190M820 191L821 191M461 192L461 193M505 192L507 192M414 193L415 193M366 194L367 195M318 195L319 195M28 196L28 197M74 196L74 197M220 196L221 196M268 196L270 196M126 229.439C147.821 226.039 165.044 236.384 175.54 255C183.757 269.573 189.555 288.09 168 291.56C142.988 295.587 114.624 293.943 90 288.424C82.7133 286.79 68.6352 284.361 63.6034 278.443C58.1302 272.006 65.0417 260.586 68.4761 255C80.2962 235.774 104.749 232.75 126 229.439M110 234C120.536 242.998 137.133 245.027 149 253.136C154.965 257.212 160.377 257.964 160 266C143.601 263.178 128.726 253.658 112 251.286C100.629 249.673 84.1176 252.711 75 245M987 234L988 234M946 236L948 236M600 237L600 238M644 237L646 237M689 237L691 237M734 237L735 237M778 237L780 237M905 237L907 237M554 238L554 239M462 240L463 240M124 241L124 244M414 241L416 241M367 242L368 242M318 243L320 243M29 244L29 245M221 244L223 244M270 244L271 244M161 267L182 276M1028 277L1030 277M185 280C200.219 281.567 225.431 300.583 228.606 316C231.696 331.004 226.354 354.761 221.424 369C218.942 376.17 217.392 388.231 211.502 393.512C208.23 396.446 202.849 394.353 199 394.089C187.823 393.323 177.114 392.937 166 391.625C156.159 390.463 145.729 395.008 136 396.101C117.202 398.213 96.4931 397.403 78 393M737 283L737 284M646 284L648 284M822 284L823 284M907 284L908 284M509 286L510 286M463 287L464 287M416 288L417 288M368 289L369 289M320 290L321 290M223 291L223 292M271 291L273 291M75 292L78 292M1030 323L1031 323M990 327L991 327M949 329L951 329M1 330L1 353M738 330L738 331M908 330L909 330M603 331L603 332M647 331L649 331M693 331L694 331M781 331L782 331M823 331L825 331M865 331L867 331M557 332L557 333M511 333L511 334M465 334L465 335M370 336L370 337M322 337L322 338M78 339L78 340M126 339L126 340M175 339L175 340M273 339L274 339M952 375L952 376M695 377L695 378M739 377L740 377M784 377L783 378M826 377L826 378M868 377L868 378M909 377L910 377M604 378L604 379M649 378L650 378M512 380L513 380M466 381L466 382M419 382L420 382M323 385L324 385M176 386L176 387M225 386L226 386M274 386L275 386M33 387L34 387M78 387L80 387M127 387L128 387M214 395C231.437 398.599 256.131 407.3 268.907 420.093C276.904 428.102 279.952 439.431 282.735 450C290.946 481.185 285.361 509.586 282.169 541C278.776 574.397 279.274 609.35 270.255 642C264.971 661.126 254.93 680.024 244.799 697C227.636 725.761 206.092 771.846 166 768.91C158.112 768.332 150.232 764.989 143 761.988C133.954 758.235 126.009 753.561 118 748C128.797 739.293 146.745 742.239 160 738M136 397C137.351 403.943 139.324 411.4 145 416C147.071 412.994 149.199 405.663 153.13 404.832C158.879 403.615 168.322 415.579 167.044 420.96C164.548 431.467 140.39 433.67 132.015 436.532C127.855 437.954 125.47 441.299 121 442M210 397C205.088 407.047 198.001 415.172 189 421.845C184.658 425.064 177.075 427.862 178 434M1032 416L1034 416M993 420L994 420M952 422L954 422M785 424L785 425M911 424L912 424M650 425L652 425M695 425L696 425M560 426L561 426M604 426L606 426M514 427L514 428M468 428L467 429M419 430L421 430M126 441C139.3 450.531 162.968 435.438 176 431M371 431L373 431M323 432L325 432M35 434L35 435M81 434L81 435M994 466L995 466M955 468L955 469M912 470L914 470M785 471L786 471M869 471L871 471M607 472L607 473M651 472L653 472M561 473L562 473M515 474L515 475M468 475L469 475M422 476L422 477M374 477L374 478M325 479L326 479M276 480L278 480M131 481L131 482M178 481L180 481M36 482L37 482M81 482L83 482M2 516C36.1604 526.098 73.9084 508.245 108 505.911C116.161 505.352 124.998 503.635 133 506C125.64 523.679 115.112 542.011 103.193 557C99.2323 561.981 94.7191 569.121 89.0039 572.199C84.4014 574.678 81.3604 569.031 76.9961 568.228C69.2112 566.796 41.8345 567.453 39 576M955 515L956 515M914 517L915 517M829 518L830 518M608 519L608 520M652 519L654 519M698 519L699 519M516 521L517 521M423 523L423 524M375 524L375 525M327 526L328 526M277 527L279 527M180 528L181 528M229 528L230 528M36 529L38 529M83 529L84 529M131 529L132 529M1036 555L1037 555M2 559L12.0147 568.552L39 574M996 559L997 559M957 561L957 562M915 563L917 563M873 564L874 564M700 565L700 566M743 565L744 565M787 565L789 565M830 565L832 565M608 566L610 566M654 566L656 566M1 567C2.90177 581.726 10.3627 596.175 15.5764 610C23.9857 632.299 29.6209 655.307 43.439 674.945C46.9207 679.893 52.8412 683.38 56.9498 688C64.653 696.663 78.1716 718.232 91 716M563 567L564 567M516 568L518 568M469 569L471 569M423 570L425 570M12 571C16.0749 577.925 23.8787 585.306 31 589M376 571L376 572M329 572L329 573M83 574L78 578M133 575L133 576M181 575L183 575M1 589C3.19437 600.64 7.51114 612.359 12.7562 623C15.5227 628.612 20.8963 634.594 19 641L2 622M1038 601L1039 601M997 605L999 605M790 611L790 612M832 611L833 611M701 612L702 612M745 612L746 612M610 613L611 613M565 614L566 614M472 615L472 616M425 617L426 617M376 618L378 618M329 619L330 619M232 621L233 621M135 622L135 623M182 622L184 622M39 623L41 623M86 623L88 623M21 642L27 647M1039 647L1040 647M959 654L960 654M76 706L66 665C73.6216 666.928 75.3927 662.763 82.0008 659.88C89.035 656.81 100.432 654.241 108 656.514C116.498 659.066 125.452 672.494 131.285 678.997C142.09 691.042 156.263 701.435 169 711M918 656L919 656M876 657L877 657M791 658L792 658M834 658L835 658M658 659L658 660M701 659L703 659M746 659L748 659M612 660L613 660M566 661L567 661M65 662L65 664M474 662L474 663M378 665L379 665M234 667L234 668M281 667L283 667M185 668L185 669M135 669L137 669M1041 693L1042 693M1001 697L1001 698M919 702L920 702M878 703L878 704M704 705L704 706M748 705L749 705M613 706L614 706M658 706L659 706M566 707L568 707M521 708L522 708M474 709L475 709M427 710L428 710M167 711C160.959 714.224 152.77 713.326 146 714.286C130.546 716.477 108.979 719.157 95 726C99.1681 733.815 108.538 747.69 118 748M379 711L381 711M332 712L333 712M284 713L284 714M185 715L187 715M86 726L94 725M1001 744L1003 744M138 745L125 751M960 747L962 747M919 749L922 749M794 751L794 752M836 751L838 751M749 752L750 752M613 753L615 753M660 753L661 753M567 754L569 754M522 755L523 755M475 756L476 756M382 757L382 758M333 759L334 759M284 760L286 760M1 762L1 764M44 763L46 763M91 763L92 763M1044 786L1045 786M1003 790L1004 790M962 793L963 793M922 795L923 795M881 796L881 797M751 798L751 799M794 798L796 798M661 799L662 799M706 799L707 799M569 800L570 800M522 801L524 801M476 802L478 802M382 804L383 804M334 805L336 805M285 806L287 806M237 807L239 807M141 808L141 809M2 809L2 810M45 809L47 809M92 809L94 809M1045 832L1047 832M1004 836L1006 836M963 839L965 839M924 841L923 842M881 843L882 843M797 844L797 845M839 844L840 844M708 845L708 846M751 845L753 845M661 846L663 846M570 847L572 847M479 848L479 849M525 848L526 848M432 849L433 849M288 852L288 853M336 852L337 852M190 854L191 854M95 855L95 856M141 855L143 855M2 856L4 856M47 856L49 856M1047 878L1048 878M1007 882L1007 883M965 886L966 886M923 888L925 888M708 892L709 892M754 892L755 892M571 893L573 893M617 893L619 893M525 894L527 894M434 895L434 896M386 896L386 897M337 898L338 898M192 900L192 901M97 901L97 902M143 901L144 901M49 902L50 902M1048 924L1048 925M1007 929L1009 929M968 931L968 932M925 934L927 934M883 936L885 936M841 937L843 937M574 939L574 940M618 939L620 939M664 939L666 939M528 940L528 941M434 942L436 942M386 943L388 943M338 944L340 944M290 945L292 945M241 946L243 946M146 947L146 948M50 948L52 948M97 948L99 948M5 949L7 949M1010 975L1011 975M968 978L970 978M885 982L886 982M844 983L844 984M756 985L757 985M574 986L576 986M483 987L483 988M529 987L530 987M436 988L437 988M388 989L389 989M340 990L341 990M244 991L244 992M292 991L293 991M52 994L53 994M99 994L100 994M7 995L8 995M1011 1021L1012 1021M970 1024L971 1024M929 1027L930 1027M844 1030L846 1030M714 1031L714 1032M757 1031L759 1031M622 1032L623 1032M668 1032L669 1032M531 1033L532 1033M438 1034L439 1034M484 1034L486 1034M389 1036L391 1036M293 1037L295 1037M245 1038L246 1038M149 1039L149 1040M196 1039L198 1039M100 1040L102 1040M8 1041L10 1041M1012 1067L1014 1067M972 1070L973 1070M889 1075L890 1075M846 1076L847 1076M804 1077L804 1078M715 1078L716 1078M760 1078L761 1078M533 1079L533 1080M578 1079L579 1079M392 1081L392 1082M439 1081L440 1081M295 1083L296 1083M246 1084L248 1084M198 1085L199 1085M56 1086L56 1087M102 1086L103 1086M10 1087L11 1087M1015 1113L1015 1114M974 1116L974 1117M889 1121L891 1121M848 1123L849 1123M717 1124L717 1125M760 1124L762 1124M579 1125L581 1125M625 1125L627 1125M440 1127L442 1127M346 1128L346 1129M297 1129L298 1129M248 1130L249 1130M199 1131L201 1131M58 1132L58 1133M11 1133L13 1133M1016 1159L1016 1160M975 1163L976 1163M934 1165L934 1166M891 1167L892 1167M848 1169L850 1169M718 1171L719 1171M763 1171L764 1171M581 1172L583 1172M443 1173L443 1174M489 1173L490 1173M394 1174L396 1174M346 1175L348 1175M249 1176L251 1176M298 1176L299 1176M201 1177L203 1177M105 1178L106 1178M153 1178L154 1178M58 1179L60 1179M976 1209L977 1209M935 1212L936 1212M893 1214L894 1214M850 1215L851 1215M584 1218L585 1218M629 1218L631 1218M675 1218L676 1218M445 1219L445 1220M490 1219L492 1219M537 1219L539 1219M396 1220L397 1220M348 1221L349 1221M251 1222L252 1222M299 1222L302 1222M203 1223L204 1223M107 1224L109 1225M60 1225L61 1225M1018 1252L1019 1252M978 1255L979 1255M936 1258L938 1258M894 1260L895 1260M851 1261L852 1261M765 1263L766 1263M632 1264L633 1265M677 1264L678 1264M721 1264L723 1264M493 1265L493 1266M540 1265L541 1265M399 1266L399 1267M445 1266L447 1266M350 1267L351 1267M253 1268L254 1268M301 1268L303 1268M110 1270L110 1271M156 1270L157 1270M17 1271L17 1272M61 1271L63 1271M1019 1297L1020 1297M979 1301L980 1301M938 1304L939 1304M895 1306L896 1306M853 1307L853 1308M723 1310L723 1311M542 1311L542 1312M588 1311L588 1312M678 1311L679 1311M401 1312L401 1313M447 1312L448 1312M494 1312L496 1312M304 1313L304 1314M351 1313L353 1313M255 1314L256 1314M206 1315L207 1315M158 1316L159 1316M19 1317L19 1318M63 1317L65 1317M980 1347L981 1347M939 1350L940 1350M854 1354L855 1354M811 1355L812 1355M724 1356L725 1357M767 1356L769 1356M589 1357L589 1358M636 1357L636 1358M680 1357L681 1357M450 1358L450 1359M496 1358L497 1358M542 1358L544 1358M353 1359L354 1359M401 1359L403 1359M257 1360L257 1361M305 1360L306 1360M208 1361L209 1361M113 1362L113 1363M159 1362L161 1362M65 1363L66 1363M1023 1389L1023 1390M981 1393L982 1393M940 1396L942 1396M898 1398L899 1398M855 1400L856 1400M813 1401L813 1402M724 1403L726 1403M545 1404L545 1405M636 1404L637 1404M681 1404L682 1404M356 1405L356 1406M403 1405L404 1405M450 1405L452 1405M498 1405L499 1405M306 1406L308 1406M209 1407L211 1407M161 1408L162 1408M66 1409L68 1409M21 1410L22 1410M1024 1435L1024 1436M982 1439L984 1439M941 1442L942 1442M900 1444L900 1445M857 1446L858 1446M771 1449L772 1449M547 1450L547 1451M682 1450L684 1450M406 1451L406 1452M499 1451L501 1451M260 1453L261 1453M163 1454L164 1454M68 1455L70 1455M22 1456L24 1456M1025 1482L1026 1482M983 1485L985 1485M942 1488L943 1488M900 1490L902 1490M859 1492L859 1493M772 1495L774 1495M685 1496L685 1497M729 1496L730 1496M455 1497L455 1498M502 1497L502 1498M548 1497L549 1497M593 1497L595 1497M639 1497L641 1497M311 1498L311 1499M358 1498L360 1498M407 1498L408 1498M262 1499L263 1499M165 1500L166 1500M25 1502L25 1503M70 1502L71 1502M1026 1528L1028 1528M985 1531L986 1531M902 1536L903 1536M859 1538L860 1538M816 1540L818 1540M775 1541L775 1542M730 1542L731 1542M504 1543L504 1544M550 1543L550 1544M596 1543L596 1544M685 1543L687 1543M312 1544L313 1544M360 1544L361 1544M408 1544L409 1544M456 1544L457 1544M215 1545L216 1545M263 1545L264 1545M167 1546L168 1546M26 1548L27 1548M1028 1574L1029 1574M987 1577L988 1577M944 1580L946 1580M902 1582L904 1582M860 1584L861 1584M817 1586L819 1586M775 1587L776 1587M731 1588L732 1588M687 1589L688 1589M410 1590L411 1590M457 1590L458 1590M505 1590L506 1590M550 1590L552 1590M597 1590L598 1590M264 1591L266 1591M314 1591L315 1591M168 1592L170 1592M120 1593L122 1593M73 1594L75 1594M1030 1620L1031 1620M988 1623L989 1623M947 1625L947 1626M904 1628L905 1628M861 1630L862 1630M733 1635L734 1635M316 1636L316 1637M363 1636L364 1636M411 1636L413 1636M459 1636L460 1636M507 1636L507 1637M552 1636L554 1636M598 1636L599 1636M644 1636L645 1636M171 1637L171 1638M218 1637L219 1637M266 1637L268 1637M30 1640L30 1641M1032 1666L1033 1666M990 1669L991 1669M949 1671L949 1672M906 1674L907 1674M864 1676L864 1677M820 1678L821 1678M734 1681L736 1681M555 1682L555 1683M599 1682L601 1682M645 1682L647 1682M690 1682L691 1682M220 1683L221 1683M268 1683L269 1683M316 1683L318 1683M508 1683L509 1683M125 1684L125 1685M78 1685L78 1686M993 1715L993 1716M949 1718L951 1718M908 1720L909 1720M864 1722L866 1722M822 1724L823 1724M780 1725L780 1726M736 1727L737 1727M319 1728L319 1729M367 1728L368 1728M414 1728L416 1728M648 1728L648 1729M691 1728L693 1728M173 1729L175 1729M222 1729L223 1729M462 1729L463 1729M509 1729L511 1729M556 1729L557 1729M601 1729L602 1729M125 1730L127 1730M79 1731L80 1731M1036 1759L1038 1759M994 1761L994 1762M951 1764L953 1764M909 1766L910 1766M781 1772L782 1772M738 1773L738 1774M176 1774L176 1775M223 1774L224 1774M272 1774L273 1774M321 1774L321 1775M368 1774L369 1774M416 1774L417 1774M693 1774L694 1774M511 1775L512 1775M557 1775L558 1775M127 1776L128 1776M80 1777L81 1777M33 1778L35 1778M1039 1805L1040 1805M996 1808L997 1808M954 1811L955 1811M911 1813L912 1813M826 1816L826 1817M782 1818L783 1818M738 1819L740 1819M177 1820L178 1820M225 1820L226 1820M273 1820L274 1820M321 1820L322 1820M370 1820L371 1820M694 1820L696 1820M129 1821L130 1821M465 1821L466 1821M512 1821L513 1821M604 1821L606 1821M650 1821L651 1821M82 1823L83 1823M36 1824L37 1824M990 1907L990 1908" transform="translate(-577.122,-226.816) scale(1.30607,0.40392)"/></svg>