<svg xmlns="http://www.w3.org/2000/svg" xmlns:svg="http://www.w3.org/2000/svg" xmlns:sodipodi="http://sodipodi.sourceforge.net/DTD/sodipodi-0.dtd" xmlns:inkscape="http://www.inkscape.org/namespaces/inkscape" xmlns:xlink="http://www.w3.org/1999/xlink" width="210mm" height="297mm" viewBox="0 0 210 297">
  <sodipodi:namedview/><g inkscape:label="Ebene 1" inkscape:groupmode="layer" id="layer1">
    </g>
<path style="fill:none;stroke:#000000;stroke-linecap:round;stroke-width:5.0" d="M1108 137C1103.87 129.873 1102.88 121.669 1100.25 114C1095.91 101.33 1089.58 89.4303 1084.6 77C1082.27 71.1698 1079.18 58.306 1072 56.7515C1064.98 55.2319 1057.92 70.4314 1054.52 75C1040.87 93.3412 1021.7 112.825 1003 126L981.702 106.625L968.771 79L945 50C950.594 47.0144 956.833 48.2307 963 47.9607C978.073 47.3005 993.071 49.1726 1008 48.6744C1031.77 47.8813 1054.91 38.1168 1079 38.0007C1088.85 37.9532 1112.53 37.8416 1117.68 48.0186C1122 56.5457 1117.83 71.9847 1116.41 81C1112.79 103.914 1107.08 127.859 1110 151M659 228C647.693 237.393 636.426 246.574 626 257C615.795 267.205 600.53 280.801 598.213 296C595.673 312.661 613.88 313.34 626 315.611C629.695 316.303 636.1 318.981 639.722 317.509C644.668 315.498 646.783 302.633 648.333 298C654.553 279.41 667.275 257.149 663.671 237C660.723 220.522 648.227 220.863 638.059 211.671C632.003 206.195 637.293 198.048 630.867 192.557C624.506 187.122 614.025 186.039 606 186.001C588.952 185.919 572.129 188.405 555 187.985C545.037 187.741 518.077 181.765 523.782 166.094C526.501 158.625 544.272 153.609 551 150.247C581.739 134.888 615.391 130.948 648 122.505C660.914 119.162 674.562 116.57 687 111.547C740.291 90.0239 792.744 51.9397 853 56.0895C875.721 57.6543 898.353 70.7623 919 79.5725C935.533 86.6272 952.271 94.1115 967 104.525C972.783 108.614 979.809 112.452 983 119M1034 145C1045.97 142.191 1058.36 164.24 1058 175L1017 128C1039.13 107.803 1067.66 101.267 1096 109M982 108L982 114M1101 113L1109 116M995 116L1007 122M999 116L997 118M1113 118L1145 136M1009 121L1016 128M1003 126L991 139M1005 126L1009 132L1015 128M1009 132L995 138M1011 132L1027 149L1030 146M1025 149C1002.68 166.156 982.866 182.895 967.681 207C959.815 219.488 953.342 232.808 955.184 248C956.742 260.843 965.032 273.617 968.971 286C972.938 298.467 972.901 311.524 976.294 324C980.246 338.531 985.474 357.26 976.215 371C955.972 401.037 916.852 413.663 890.001 436.439C882.913 442.451 867.185 460.282 875.742 470.682C880.498 476.462 896.118 474.345 903 476.301C908.369 477.827 913.474 481.855 919 482.591C926.582 483.601 934.392 481.153 942 481.755C949.083 482.315 955.968 485.361 963 483.327C979.028 478.69 988.523 462.705 1003 455.557C1009.26 452.465 1015.71 455.944 1021.91 454.231C1032.32 451.355 1044.55 432.008 1051.27 424C1054.1 420.624 1057.04 416.854 1055.68 412.127C1053.43 404.293 1032.87 420.787 1029 422.957C1017.81 429.234 1004.7 430.062 993 435.015C984.088 438.788 977.429 446.051 969 450.694C961.943 454.582 952.265 457.858 947 464C957.954 466.69 983.598 443.632 993 459M1027 149C1050.91 176.626 1075.61 200.468 1089.55 235C1095.11 248.788 1092.73 264.869 1098 278L1111.42 254L1145 206M660 228C679.203 212.771 700.73 200.193 722 188.128C755.86 168.921 786.577 152.362 826 150M828 151L834 152M837 153L860 165M862 167C873.659 183.408 873.175 206.473 870.081 226C869.443 230.027 871.92 237.425 869.381 240.502C866.707 243.742 860.743 245.231 857 246.85C847.596 250.92 838.309 255.263 829 259.54C802.82 271.569 775.143 286.86 752 304M1053 408C1047.87 396.971 1038.42 388.323 1033.31 377C1024.04 356.507 1019.08 334.158 1009.03 314C1002.56 301.02 989.074 280.71 988.793 266C988.469 249.027 1015.68 232.53 1028 224.695C1031.96 222.176 1039.93 216.263 1044.89 217.847C1053.36 220.552 1049.02 237.786 1049 244C1048.97 253.3 1046.58 262.215 1043.67 271C1042.65 274.055 1039.67 279.424 1041.21 282.61C1043.15 286.623 1052.46 290.75 1056 293.819C1059.87 297.174 1063.87 300.251 1069 301M726 263L727 263M1098 278L1097 286M1038 284C1037.97 287.847 1038.46 296.644 1034.57 298.879C1028.14 302.57 1010.86 289.544 1007 285C1017.19 278.729 1028.36 279.901 1039 284M717 347C717.068 351.156 714.804 351.849 711 351C718.736 341.355 731.517 335.042 742 328.799C766.209 314.384 791.756 300.202 819 292.427C828.998 289.574 840.59 286.601 851 288.62C854.32 289.264 860.497 291.265 859.963 295.775C859.487 299.797 843.591 302.136 840 303.333C833.987 305.338 826.511 306.04 821 308.939C809.494 314.993 803.132 326.436 795 336C798.565 338.929 815.574 343.279 815.883 347.144C816.226 351.441 809.805 356.319 807 358.826C798.121 366.764 779.822 376.307 768 370C760.061 378.819 738.945 392.474 727 393.966C708.242 396.31 688.359 389.953 670 387.3C658.399 385.624 646.692 386 635 386C622.315 386 610.452 387.463 598 384.651C595.106 383.997 588.26 381.482 586.072 384.604C582.795 389.28 593.209 398.925 595.038 403C603.027 420.794 611 437.119 611 457C611 482.67 608 508.188 608 534C608 539.409 605.693 556.444 608.889 560.397C612.119 564.392 623.382 562.741 628 563.286C646.547 565.474 667.336 569.637 686 567.83C707.469 565.752 726.689 556.88 746 548.028C785.717 529.821 823.196 507.305 863 489.312C867.684 487.195 873.727 483.709 879 484.369C884.926 485.11 889.853 489.392 896 489.4C902.704 489.408 910.201 486.088 916 483M1064 300C1060.42 303.045 1053.45 305.372 1051.03 309.275C1048.68 313.057 1049.75 319.62 1048.33 324C1047.28 327.241 1043.68 333.361 1048.16 335.497C1052.44 337.535 1058.68 332.77 1063 332M795 337C792.451 332.156 784.864 321.724 786.661 316.105C789.744 306.467 815.696 301.857 822 309M749 306L747 307M827 308C823.756 312.505 822.37 315.472 824 321C827.081 318.236 830.444 315.049 828 311M822 309L824 311M856 309C848.111 318.378 848.55 339.781 835.985 344.852C829.82 347.339 823.321 344.689 817 345M1023 313L1050 309M742 311L737 315M789 322C794.907 317.799 804.636 312.911 812 314M819 343L821.988 330.448L831 326.19L851 315M48 528C34.6188 525.627 21.8538 535.333 11 542C7.03035 528.57 12.8857 511.355 15.3889 498C18.7864 479.874 19.8653 458.157 29.348 442C43.0218 418.702 74.7565 399.708 97 385.309C133.662 361.575 168.883 336.113 211 323.026C274.086 303.421 355.603 323.36 400.91 372C432.194 405.585 456.088 446.868 477.77 487C492.415 514.108 505.665 539.242 501.714 571C495.1 624.155 461.293 674.92 436.309 721C415.155 760.015 401.64 801.561 386.319 843C370.379 886.112 354.921 938.963 375.781 983C388.773 1010.43 419.817 1015.15 446 1022.42C462.608 1027.04 479.265 1031.26 496 1035.37C502.523 1036.98 512.36 1040.96 519 1040.07C528.339 1038.82 539.837 1027.9 548 1023.14C566.732 1012.22 587.239 1001.71 608 995.219C639.186 985.472 680.692 995.844 701.101 1022.01C714.189 1038.8 716.977 1057.87 721.424 1078C723.374 1086.83 726.606 1095.95 727 1105C713.97 1101.91 701.217 1092.92 689 1087.31C667.617 1077.49 645.655 1068.89 623 1062.43C602.687 1056.63 581.883 1051.66 561 1048.42C548.966 1046.56 532.614 1046.12 522 1040M734 317L721 327M640 319C638.552 335.584 624.087 355.223 629 372C637.579 360.786 636.55 343.446 649.04 334.361C653.428 331.169 677.367 336.971 678.393 343.015C679.586 350.042 672.011 356.648 670 363C680.692 360.221 693.888 348.449 702 341C687.199 330.553 660.208 319.794 642 319M786 321L722 350L765 372M823 322L823 328M702 341L719 329M1045 334C1039.9 336.722 1034.1 336.722 1029 334L1045 332M1021 333L1029 334M795 337L780 348.598L769.237 354.225L769 369M1049 337C1046.02 353.04 1039.88 365.855 1045.69 382C1050.11 394.316 1062.33 404.165 1062.96 418C1064.03 441.506 1044.59 462.722 1036.53 484C1031.88 496.291 1032.47 511.787 1026 523C1011.53 509.356 990.349 489.504 970 486M705 341L713 347M718 350L722 350M706 353L710 352M670 363L652 384M649 387L644 397M203 395L204 395M1059 407L1056 410M300 520C291.488 509.649 285.176 497.931 275.91 488C253.292 463.758 221.913 446.641 190 437.745C177.521 434.267 164.39 439.272 153 436C156.508 428.136 161.563 411.846 171.015 409.448C181.597 406.763 197.976 418.241 207 422.753C222.505 430.505 235.628 439.9 250 449.485C268.75 461.989 288.259 474.927 299.662 495C305.31 504.941 304.335 515.456 307.439 526C311.476 539.71 318.535 552.621 325.518 564.985C328.997 571.146 335.997 574.297 340.981 579.09C348.281 586.111 355.561 597.376 358.794 607C364.274 623.311 363.001 640.14 363 657C363 662.137 360.905 669.081 362.183 673.961C363.965 680.762 373.07 687.559 376.666 694C383.369 706.007 386.098 720.482 387.715 734C391.381 764.658 385.862 798.851 380.424 829C368.894 892.929 348.931 952.18 313.692 1007C295.63 1035.1 275.583 1061.36 247 1079.56C202.129 1108.14 139.109 1113.99 105.836 1065C98.5438 1054.26 86.578 1040.25 85.1705 1027C84.8303 1023.8 83.2291 1019.34 85.0316 1016.38C92.6523 1003.86 111.597 1008.87 122 1002L94 999.227L73 984C71.1466 993.623 81.3121 1001.46 90 997M153 437C142.32 448.302 143.45 461.122 147.591 475C148.765 478.936 150.939 487 155.213 488.644C160.781 490.785 175.827 483.425 182 482.2C200.784 478.472 220.097 480.427 239 476.803C245.481 475.561 252.402 475.695 258 472M149 446C147.352 443.227 146.934 442.49 149 440M147 444L146 449M1030 451L1018.79 469L1009.41 481L1018 514M147 452L144 461M1024 454L1026 456M1020 455C1016.7 461.488 998.202 475.859 995 464M946 465L944 468L946 465M943 467L924 480M275 469L262 474M281 471C297.056 462.431 323.971 474.619 334.7 487.004C353.679 508.913 356.976 531.511 351.804 559C350.234 567.345 349.584 575.617 345 583M1021 470C1021 479.41 1020.39 488.941 1015 497M155 490C159.171 501.632 179.714 501.819 190 503.803C225.424 510.637 260.534 512.785 296 518M46 528C36.7872 546.907 10.0572 555.58 1 575M821 642C852.833 607.545 894.715 579.743 936 557.309C947.026 551.317 968.887 535.874 981.999 542.457C988.953 545.948 992.284 553.641 996 560C1001.56 557.799 1015.43 547.818 1020.77 548.882C1026.18 549.958 1025.07 561.234 1024.58 565C1023.81 570.84 1024.99 577.344 1023.36 583C1020.94 591.409 1013.59 598.675 1009 606M11 542C9.29067 547.221 10.424 555.173 13 560M1 549L9 544M584 547C607.687 563.113 612.995 590.216 633.001 608.911C654.53 629.028 698.624 639.899 708.532 670C715.457 691.042 674.336 704.822 687.854 726.999C692.039 733.864 700.132 739.732 706.015 745.17C731.532 768.755 762.121 777.671 791 796.054C817.963 813.218 837.432 839.13 865 855.938C899.644 877.061 962.072 871.111 988.671 838.999C998.362 827.3 1001.03 809.523 1003.27 795C1006.32 775.255 1011.85 752.804 1006 733C997.481 739.292 983.23 749.974 972 749.352C953.27 748.314 939.865 729.767 922 729M601 559L607 560M609 562L608 568M2 581C14.4647 579.077 22.6822 561.462 37 563.369C58.8357 566.277 62 596.173 62 613C62 661.276 47.4302 711.083 27.6883 755C22.4687 766.611 17.0885 778.041 12.6813 790C11.1501 794.155 7.7364 800.43 10.1937 804.786C12.7766 809.365 18.6176 809.092 23 808.112C34.1603 805.615 44.6735 801.073 56 799.084C67.3938 797.083 78.5994 797.915 90 796.83C107.432 795.171 127.13 790.44 144 797.312C166.182 806.35 185.844 830.772 169.211 854C161.463 864.821 148.655 870.436 137 875.941C122.41 882.833 108.175 889.709 93 895M12 565L12 573M13 576C17.25 594.592 19.0012 615.945 19 635C18.9996 640.835 15.2955 653.981 20 658M608 576C597.416 618.962 578.104 657.855 562.003 699C556.959 711.89 555.47 725.852 551.255 739C542.833 765.275 532.211 789.909 526 817M8 580L12 582M346 586C338.79 596.581 334.879 613.31 334.865 626C334.854 635.919 339.247 642.822 333 652C315.745 637.716 292.026 628.309 271 621.333C262.411 618.484 252.216 614.815 243.09 616.129C237.241 616.971 231.768 620.906 226 622.39C218.638 624.285 210.098 623.742 203 626.147C192.016 629.869 184.699 638.742 175 628C166.521 643.646 176.208 680.11 196 683C196.131 667.131 208.678 652.447 205 637M16 587C34.8993 596.575 35.5328 637.058 20 649M131 634C156.886 618.103 181.365 596.411 212 589.529C220.523 587.614 229.441 589.958 238 589.999C249.69 590.056 271.312 591.211 279 601L252 615M825 641C836.614 638.929 847.826 630.755 859 626.695C887.346 616.397 915.529 608.309 945 601.885C965.109 597.502 988.591 603.8 990 627M151 624C173.094 616.799 191.517 611.293 215 611.92C223.263 612.14 232.603 611.9 240 616M943 654C961.555 647.207 966.121 621.75 989 625M175 625L175 628M286 628C279.903 632.168 272.129 636.371 265 638.426C261.966 639.3 257.973 638.595 255.225 640.103C250.848 642.504 249.39 650.185 245.815 653.826C232.822 667.06 216.424 666.15 206 651M906 630C924.85 630 946.664 627.649 965 632M299 634C298.999 644.841 294.341 650.039 288.926 659C284.845 665.753 281.509 673.161 275.816 678.815C252.387 702.081 223.93 687.962 197 684M954 650C972.678 649.845 997.874 640.229 1007.24 663C1008.68 666.509 1009.47 670.259 1010 674C1010.7 678.932 1010.91 683.085 1010 688M334 652C328.202 662.261 324.479 672.334 315.961 680.985C310.27 686.764 302.915 690.675 296 694.799C279.62 704.569 258.803 718.003 239 717.545C217.415 717.045 190.146 701.613 175.95 685.985C167.67 676.87 166.19 669.168 163 658M334 652L360 673M2 661L17 653M18 658L2 671M12 659C20.0439 665.705 10.0655 671.358 13.2122 678.576C17.252 687.841 27.525 691.339 30 680M165 662L179 673M934 729C940.479 729 946.747 728.752 953 730.746C959.207 732.725 967.355 737.621 973.999 736.732C980.776 735.824 986.789 725.472 984.254 719.044C982.512 714.626 978.109 714.176 974 713.579C964.078 712.138 953.981 711.383 944 710C911.411 705.484 876.79 711.889 845 701.671C833.993 698.132 819.966 695.344 815.109 683.004C812.634 676.716 820.411 674.489 825 673.029C837.746 668.973 850.61 666 864 666C891.816 666 919.241 665.814 947 663.911C963.971 662.747 982.863 659.748 997.96 669.969C1003.87 673.969 1006.01 681.391 1010 687M12 679L2 700M362 679C360.566 712.396 346.965 744.596 325.561 770C314.381 783.27 295.455 795.303 289.13 812C281.393 832.422 289.068 854.558 295.772 874C302.865 894.575 310.378 915.276 316.971 936C321.298 949.597 322.201 967.734 329 980M2 684L7 692M28 689C25.3025 700.346 11.6962 707.158 1 709M689 703L690 704M2 714C14.1554 718.182 4.25748 725.973 1 733M1011 717L1006 733M8 823C8.92937 828.003 9.0035 833.276 11.1088 837.985C20.3027 858.553 43.2931 842.768 57 840.096C76.2575 836.341 102.648 836.143 117.985 851.043C128.9 861.648 123.515 871.903 113 880.535C109.072 883.76 101.469 886.26 103 892M525 823L520 843M505 888L473 976C486.107 973.635 499.573 961.681 510 953.873C535.668 934.652 559.17 912.858 584 892.615C605.516 875.074 631.565 851.96 658 842.372C664.139 840.145 664.375 845.974 669.209 847.184C672.29 847.955 676.324 845.266 679 844C680.218 850.511 674.259 858.371 671.139 864C662.628 879.353 648.449 894.211 643.221 911C638.5 926.16 639.159 946.87 643.428 962C646.28 972.107 651.956 982.587 653 993M12 843L16 889L13 889C14.2901 903.795 19.3733 918.601 22.8704 933C24.2399 938.639 24.2238 946.924 27.0625 951.91C31.721 960.091 49.3593 970.676 58 974L58 969M2 858L7 881L2 878M8 882L13 889M16 889L18 891M100 889L98 891M1 920C4.93229 932.422 14.5115 941.789 24 950M1 934L10 940M59 972L69 980C68.6819 974.119 61.8388 967.507 62.8781 962.171C63.8405 957.229 74.1964 950.688 78 947.666C84.8224 942.245 93.0398 936.774 102 936.094C122.593 934.531 145.757 954.765 164 962.573C175.857 967.647 187.456 972.981 199 978.753C202.695 980.6 209.977 982.673 212.168 986.376C214.179 989.774 209.152 992.698 207 994.424C198.788 1001.01 192.172 1009.33 185.025 1017C174.673 1028.11 162.241 1041.69 147 1046.06C125.804 1052.14 103.307 1037.35 87 1026M359 937L360 937M58 956L61 959M473 976L471 978M69 980L73 984M329 987C330.58 1023.79 337.077 1061.15 332.715 1098C330.682 1115.17 328.778 1132.18 324.626 1149C322.633 1157.07 316.709 1168.75 317.479 1177C317.864 1181.13 322.309 1184.25 324.985 1187C329.917 1192.07 333.702 1197.84 337.138 1204C349.597 1226.33 356.658 1253.56 352.562 1279C349.016 1301.02 337.609 1336.07 318.985 1349.7C293.212 1368.56 255.213 1352.08 234 1334C274.278 1291.91 298.478 1234.78 316 1180M655 995C661.873 1024.98 684.605 1047.98 678 1080M80 999L83 1014M122 1002L134 1002M518 1041C489.46 1064.63 455.629 1081.72 429.17 1108.17C417.765 1119.57 404.184 1133.82 415 1150M676 1082C671.505 1104.59 640.44 1115.69 622 1123.42C582.026 1140.19 538.566 1152.32 496 1160.26C470.736 1164.98 449.98 1169.46 426 1158M727 1105C736.959 1112.85 752.447 1114.66 764 1119.86C773.137 1123.98 780.211 1131.65 788 1137.79C796.623 1144.59 804.966 1148.03 805 1160C779.234 1155.41 738.936 1135.97 731 1109M418 1153L419 1154M2 1272C18.745 1248.23 46.0616 1227.38 70 1211.26C141.186 1163.31 235.102 1132.69 315 1177M806 1161C812.261 1166.63 821.176 1170.17 828 1175.52C845.245 1189.03 856.725 1206.49 854.907 1229C852.322 1260.99 817.423 1287.06 796 1307.02C745.512 1354.08 689.487 1401.11 629 1434.86C600.73 1450.63 570.305 1466.25 537 1459.55C487.701 1449.63 438.764 1422.88 412.989 1379C401.692 1359.77 391.455 1335.63 402.27 1314C418.016 1282.51 461.187 1269.3 493 1261.77C564.531 1244.83 637.725 1235.97 709 1218.13C734.23 1211.81 759.565 1204.91 784 1195.95C790.814 1193.45 805.231 1190.42 809.11 1183.81C812.222 1178.51 807.254 1168.84 807 1163M139 1292.42C165.643 1288.88 192.014 1301.57 213 1316.75C217.552 1320.04 232.747 1329.54 231.379 1336C230.506 1340.12 225.792 1344.12 222.985 1347C215.559 1354.61 207.796 1362.1 199.961 1369.29C168.298 1398.34 127.58 1429.52 83 1433.83C44.2119 1437.58 35.2285 1400.66 46.4252 1371C60.4004 1333.97 99.0646 1297.73 139 1292.42M2 1493L43 1518.22L70 1530C49.6524 1546.09 31.5511 1561.98 16 1583C10.3248 1590.67 3.73295 1598.71 1 1608M70 1530C101.459 1516.94 128.114 1501.88 162 1519.89C178.099 1528.45 189.174 1545.68 198.141 1561C212.511 1585.54 223.694 1612.29 244.285 1632.58C269.606 1657.51 306.76 1665.49 341 1669.17C392.797 1674.73 451.516 1682.33 495 1646.54C503.439 1639.59 509.689 1630.81 516 1622M73 1529C91.5252 1543.28 121.386 1543.91 128.24 1571C132.381 1587.37 120.198 1606.32 111.279 1619C95.113 1641.98 75.0942 1660.4 53 1677.5C38.096 1689.03 20.5165 1699.84 1 1700M1132 1700L1145 1701M1137 1719L1145 1723M1141 1724L1142 1728" transform="translate(-577.122,-226.816) scale(0.89232,0.329505)"/></svg>