<svg xmlns="http://www.w3.org/2000/svg" xmlns:svg="http://www.w3.org/2000/svg" xmlns:sodipodi="http://sodipodi.sourceforge.net/DTD/sodipodi-0.dtd" xmlns:inkscape="http://www.inkscape.org/namespaces/inkscape" xmlns:xlink="http://www.w3.org/1999/xlink" width="210mm" height="297mm" viewBox="0 0 210 297">
  <sodipodi:namedview/><g inkscape:label="Ebene 1" inkscape:groupmode="layer" id="layer1">
    </g>
<path style="fill:none;stroke:#000000;stroke-linecap:round;stroke-width:5.0" d="M617 380C612.496 384.49 610.77 392.626 603 389C609.331 376.949 599.186 350.929 596.6 338C590.762 308.805 588.636 279.486 585.83 250C584.288 233.795 583.138 212.175 592.994 198.063C597.958 190.956 602.843 199.652 602.917 205C603.41 240.337 609.344 275.421 621.435 309C628 327.233 639.892 344.703 645.351 363C649.357 376.428 633.19 384.865 634 397C643.027 389.809 648.637 378.935 651.64 368C654.039 359.26 659.193 350.316 658.621 341C656.797 311.283 634.577 283.928 629.464 255C623.612 221.894 648.669 175.102 672.015 153.093C692.292 133.978 716.178 116.582 739 100.589C750.589 92.4683 764.365 84.9452 779 88.7083C798.343 93.6819 807.354 112.295 816.337 128C829.094 150.302 854.97 183.036 824.575 204.539C820.716 207.269 814.675 202.434 811 200.872C798.616 195.608 786.276 190.553 774 184.953C761.276 179.148 743.304 170.914 729 172.174C702.103 174.545 685.46 207.111 678 230C688.321 231.995 702.685 222.535 714 222.039C752 220.375 787.856 234.255 821 207M1094 100L1095 100M114 150C85.8667 178.133 67.6762 213.35 51 249C63.1566 252.887 65.7608 263.164 68.8843 275C75.4841 300.01 72.8514 324.934 68 350C65.5052 362.89 61.6353 384.108 81 386.64C87.4708 387.487 96.503 381.632 102 378.778C114.775 372.144 127.011 366.343 141 363M102 222C124.755 203.276 150.732 185.9 179 177.025C186.377 174.708 197.142 169.288 204.996 170.488C212.353 171.612 211.349 180.618 216.418 183.972C219.709 186.15 225.209 185.3 229 186.877C241.206 191.954 252.791 198.443 264 205.425C280.038 215.415 308.286 233.118 312.61 253C314.93 263.671 310.489 274.959 307.414 285C299.286 311.531 287.108 337.495 274.255 362C260.187 388.822 242.186 417.322 220 438.025C213.083 444.479 200.05 457.13 189.167 453.971C183.082 452.205 193.286 443.715 195 442C203.939 433.057 217.687 414.301 230 411M156 189C163.478 196.413 148.332 210.573 144.309 218C142.773 220.834 138.397 227.038 142.333 229.566C146.522 232.257 153.35 230.045 158 230C179.845 229.789 200.789 208.253 223 215.041C239.493 220.081 243.791 242.151 240.715 257C237.124 274.332 227.64 283.323 216.17 296C204.574 308.816 196.704 318.707 180 324C183.776 328.659 189.709 330.643 193.957 335.015C201.789 343.076 203.803 354.208 204.83 365C205.785 375.029 205.517 386.047 204.13 396C203.68 399.236 200.968 406.412 203.067 409.258C205.94 413.153 218.625 411 223 411M825 207C846.974 214.494 850.324 235.783 859.784 254C867.125 268.136 877.626 280.997 886.77 294C891.35 300.512 907.069 312.364 907.404 320C908.013 333.908 879.717 340.399 881.437 355C882.852 367.011 892.079 378.087 896.525 389C904.477 408.52 907.846 437.718 901.492 458C886.036 507.34 855.063 556.117 825.218 598C810.81 618.219 793.786 637.008 780.53 658C758.361 693.105 743.6 731.074 733.116 771C727.274 793.246 722.46 815.12 719.714 838C718.495 848.166 716.038 859.978 719 870C724.853 862.877 727.809 853.96 732.336 846C741.634 829.654 751.336 813.552 760.309 797C769.571 779.915 781.542 764.801 791.127 748C801.366 730.054 808.762 710.065 816.548 691C836.377 642.442 851.322 595.695 884.904 554C898.451 537.181 906.228 515.296 913 495C914.933 489.207 920.512 479.264 918.357 473.09C916.344 467.323 907.144 464.142 902 462M59 419C58.832 413.715 55.9876 410.011 54.8225 405C52.2443 393.911 50.5414 381.366 50.0394 370C49.8432 365.56 48.8982 360.348 49.7994 356C50.6434 351.927 54.1059 346.162 52.713 342C50.4613 335.272 42.3264 333.23 38.7539 327.853C24.3897 306.231 8.45963 272.635 37.0008 254.559C41.3191 251.825 46.0172 250.722 51 250M50 251C49.8482 258.353 47.9879 265.665 49.6806 273C51.4226 280.548 56.8867 286.718 59.4522 294C64.3348 307.859 61.6904 328.616 54 341M180 324C171.518 323.15 164.961 318.82 160 312L176 299L167 299L163 289C172.647 283.009 179.55 284.335 190 285M185 285L177 299M166 320C155.345 322.778 138.23 310.03 130 304C135.891 296.75 153.728 289.929 163 289M167 299L167 306M687 344C701.602 328.268 733.084 303.994 756 305.105C766.462 305.612 776.514 312.168 784 319L757.032 332.275L757 345C749.069 343.207 744.32 340.455 736 343C742.921 351.001 750.021 357.835 755.6 367C757.501 370.122 759.822 375.139 764.015 375.454C769.176 375.843 775.185 369.188 778.424 365.829C786.547 357.41 792.757 347.613 800.718 339.089C803.602 336.002 807.664 330.879 812 329.967C818.103 328.682 827.779 338.24 831.999 341.87C851.403 358.564 846.856 376.788 841.374 399C839.395 407.022 839.326 416.029 833 422C831.308 416.277 832.854 410.37 829.717 405C819.497 387.507 796.062 377.034 781 364M150 311L160 312M784 319L789 319M39 330C32.1148 334.337 33.995 338.5 34 346L14 337L33 333M45 330L48 330M764 342L773 331C774.071 334.624 775.47 341.104 770.852 342.834C767.351 344.145 761.033 342.154 759.752 347.161C758.343 352.663 775.258 360.811 779 364M690 344C710.815 342.185 724.055 325.828 745 339M272 613C270.639 644.691 265.019 681.663 255.717 712C251.908 724.42 248.396 737.424 238.91 746.91C221.601 764.217 208.058 749.229 191 741.324C179.046 735.784 165.236 736.09 167.909 718C170.029 703.654 189.229 695.508 199 686.827C218.167 669.799 236.679 650.056 253.829 631C261.493 622.485 268.482 609.709 278.015 603.388C287.501 597.099 302.552 604.886 310.61 598.397C315.95 594.095 320.066 583.077 323.255 577C331.666 560.975 347.491 542.633 348.906 524C349.891 511.025 343.675 497.986 343.104 485C342.441 469.91 346.064 455.108 342.572 440C335.745 410.467 305.095 410.567 292 387C300.375 384.501 308.868 384.331 317 380.511C330.238 374.292 336.952 362.948 345.805 352C349.63 347.27 359.798 332.957 366.961 334.737C376.2 337.033 384.572 353.367 385.711 362C389.522 390.888 386.701 425.054 383.285 454C377.789 500.584 370.272 546.778 361.611 593C356.134 622.231 351.747 650.051 340.939 678C328.905 709.12 315.118 739.342 299.892 769C294.473 779.556 279.751 795.438 278.728 807C276.71 829.834 287.333 855.961 288.91 879C291.574 917.894 287.968 957.09 287.015 996C286.372 1022.21 290.555 1047.81 289.209 1074C288.29 1091.89 292.442 1110.22 294 1128C294.811 1137.26 296.542 1145.86 291 1154C276.923 1127.59 274.761 1091.3 271.831 1062C265.828 1001.96 267.07 940.329 250.421 882C242.967 855.886 229.253 831.022 211.17 811C204.898 804.055 198.456 794.648 189 792M4 336L14 337M757 345L759 347M34 346C40.4392 347.956 44.786 349.142 51 346M36 348C37.8569 350.779 39.0877 350.393 42 349M35 351C33.319 353.563 28.0909 355.089 27.6312 358.097C27.1015 361.563 33.4898 366.24 35.3009 369.004C40.1587 376.418 42.8101 385.131 42.9846 394C43.2421 407.091 40.4675 421.17 38 434C36.7593 440.451 33.943 449.535 35.5617 456C37.8371 465.088 48.185 474.506 55 480.424C75.8776 498.555 105.283 510.265 132 496.727C156.715 484.203 172.179 459.431 186.699 437C190.158 431.656 201.336 420.49 199.187 413.318C197.818 408.751 184.577 410.943 181 410.997C163.318 411.264 140.366 416.074 125 425C127.751 429.834 135.137 439.676 135.256 445C135.452 453.695 111.663 466.354 104 465.509C99.3667 464.997 94.5912 459.805 91 457.127C84.2854 452.122 78.4699 449.175 70 449M759 352L758 357M132 368C120.209 382.528 102.527 409.203 83 388M597 380C598.784 385.739 597.596 394.604 595 400L594 400L586 380C594.434 373.023 605.634 370.835 616 368M285 375L291 386M605 391C603.935 404.499 597.334 409.335 585.996 401.576C582.632 399.274 573.966 393.878 574.631 389.039C575.228 384.7 582.444 381.368 586 380M60 383C65.4432 387.716 71.3921 389.526 78 386M599 385L603 389M62 387L58 411M613 389L615 405C627.636 399.221 630.881 418.782 638.21 424.523C643.787 428.892 657.809 421.232 662 417L653 416C659.27 398.873 686.853 380.596 695 407C712.148 407 728.81 401.741 746 400.961C750.82 400.742 756.15 399.019 760.945 400.318C765.711 401.609 768.098 409.204 772.005 412.331C779.802 418.572 789.56 421.736 799 424.652C810.135 428.091 828.333 437.186 833 423M635 393L637 395M633 397L625 408M614 406C609.152 416.474 620.307 424.118 621.879 434C624.49 450.417 629.364 465.155 637.347 480C640.688 486.212 646.322 491.583 649.062 498C650.969 502.464 650.745 508.232 652.144 513C654.692 521.682 658.626 530.134 660.486 539C662.01 546.264 661.559 553.772 663.235 561C669.951 589.961 680.555 617.464 688.572 646C698.23 680.382 704.458 718.393 706.911 754C708.078 770.959 709.097 791.176 706.7 808C703.723 828.89 695.984 849.265 693.289 870C690.685 890.037 697.203 912.768 691 932M695 407L663 416M676 614C661.409 602.549 659.302 571.768 653.308 555C646.978 537.292 640.464 518.391 629.441 503C621.569 492.008 611.484 483.484 602 474C590.673 462.674 564.296 446.143 561.797 429C560.319 418.862 583.714 411.375 591 409M597 409L610 409M624 409L620 426M202 410L200 412M622 411L616 418M273 605C276.526 577.121 282 549.172 282 521C282 506.608 282.548 492.988 265 491.189C256.798 490.349 251.573 498.085 249.205 505C243.793 520.806 238.859 536.295 236.95 553C235.117 569.038 233.86 590.426 226.573 605C213.439 631.267 169.303 660.07 139 656.826C131.826 656.058 124.86 653.068 119 648.958C86.2165 625.96 93.5137 590.803 95.9105 556C96.6001 545.986 97.0963 535.991 98.1659 526C99.2543 515.833 100.468 504.008 97.8441 494C94.0175 479.403 82.3523 468.352 72 458C68.9317 454.932 59.2357 448.117 59.9213 443.214C60.696 437.673 71.2248 438.708 74.7145 436.258C89.3552 425.979 105.632 412.447 124 425M123 424L80 450M833 431L851 438.427L899 460M827 432C822.417 441.82 809.224 450.572 800 455.85C771.673 472.057 739.645 471.181 711 486.769C700.648 492.403 680.571 511.323 667.337 501.972C661.511 497.856 678.139 479.524 681.151 476C682.5 474.423 687.012 470.284 684.338 468.068C681.388 465.624 675.614 469.75 673 471.034C660.553 477.149 652.308 478.428 639 480M623 433L627 434M834 434C832.916 442.577 832.748 452.05 829.099 460C817.547 485.164 791.592 501.779 772.17 520.424C753.857 538.005 740.863 556.655 727.575 578C716.812 595.289 705.879 624.016 682 621M636 479L625 482L654.7 504.317L703 548.576L723 558M623 482L625 482M145 1351C145.148 1333.08 148.208 1314.99 147.981 1297C147.717 1275.97 143.959 1255 143.039 1234C141.263 1193.44 141.684 1152.5 138.91 1112C136.491 1076.66 135.51 1041.39 133.961 1006C133.194 988.499 130.492 970.56 132.17 953C134.166 932.109 140.38 912.975 146.294 893C156.472 858.618 168.467 823.492 181.192 790C184.512 781.263 189.978 761.567 201.941 761.373C207.094 761.289 205.289 767.044 204.185 770C201.107 778.247 197.092 785.616 191 792M719 871C713.424 888.148 706.014 909.556 695 924M717 878C721.832 885.888 721 897.933 721 907C721 925.656 720.373 944.505 722.17 963C726.222 1004.71 737.65 1045.78 744.565 1087C748.233 1108.87 749.579 1130.99 752.05 1153C754.256 1172.65 755.963 1192.38 758.286 1212C759.011 1218.13 762.207 1229.42 758.338 1234.71C745.028 1252.93 722.298 1266.46 706 1282.04C656.974 1328.9 605.946 1374.06 558 1422C529.126 1450.87 493.078 1491.02 496.09 1535C498.041 1563.49 510.93 1599.78 532.089 1619.71C553.568 1639.95 590.615 1653.23 619 1659.65C646.826 1665.95 690.675 1664.06 708.907 1637.99C731.494 1605.68 729.002 1563.16 736.664 1526C740.327 1508.24 743.638 1490.34 749.026 1473C754.607 1455.04 762.862 1435.78 764.83 1417C771.108 1357.11 761.233 1296.74 760 1237M843 1107C826.87 1094.6 811.474 1082.45 797.015 1067.99C782.518 1053.49 769.533 1037.51 755 1023C752.087 1020.09 740.291 1012.46 740.921 1008.02C741.6 1003.23 751.292 1000.68 755 999.14C769.329 993.184 790.554 987.179 806 991.989C854.434 1007.07 869.413 1066.88 843 1107M844 1106C860.798 1118.95 892.315 1117.53 903.583 1138C913.742 1156.46 902.397 1182.17 899.084 1201C888.987 1258.4 872.028 1315.87 856.424 1372C848.261 1401.37 844.503 1431.23 838.551 1461C836.593 1470.79 837.097 1489.64 824 1486M843 1108C833.321 1124.35 817.271 1137.51 808.554 1154.09C802.855 1164.93 803.136 1178.69 797.677 1190C789.817 1206.28 774.829 1219.72 762 1232M1026 1714C1026 1720.07 1024.93 1739.29 1030.43 1742.97C1035.39 1746.29 1038.91 1740.28 1042.26 1737.92C1045.62 1735.54 1050.77 1735.08 1053.38 1731.7C1056.66 1727.44 1052.97 1718.7 1052 1714M1037 1716L1040 1737M1062 1725L1068 1758M1056 1733C1056.28 1739.46 1057.4 1746.15 1065 1742M1066 1743L1076 1739M1041 1743L1043 1758" transform="translate(-577.122,-226.816) scale(0.941349,0.328448)"/></svg>