<svg xmlns="http://www.w3.org/2000/svg" xmlns:svg="http://www.w3.org/2000/svg" xmlns:sodipodi="http://sodipodi.sourceforge.net/DTD/sodipodi-0.dtd" xmlns:inkscape="http://www.inkscape.org/namespaces/inkscape" xmlns:xlink="http://www.w3.org/1999/xlink" width="210mm" height="297mm" viewBox="0 0 210 297">
  <sodipodi:namedview/><g inkscape:label="Ebene 1" inkscape:groupmode="layer" id="layer1">
    </g>
<path style="fill:none;stroke:#000000;stroke-linecap:round;stroke-width:5.0" d="M7 8L15 22M26 68L26 71M87 69L88 74M105 73C105.929 77.0532 108.291 81.8879 106.592 86C102.785 95.2095 91.2954 97.4691 94 109M54 81C49.2344 84.3848 46.4357 83.5374 42 80C46.7597 76.9604 49.5984 77.6575 54 81M55 81L72 88C62.1741 97.0853 55.7836 89.9198 45 88.7916C33.6864 87.608 29.0415 94.7919 19 85C26.4636 77.7784 32.3998 79.2423 42 80M98 80L93 88L99 93M11 85L19 85M96 93C83.8387 103.283 70.6521 85.3754 84.9985 86.0941C87.3411 86.2114 89.6756 86.7062 92 87M73 89L76 89M39 91C42.9947 93.8704 45.6123 94.326 50 92M101 94L109 105M33 100L33 102M106 100L103 108M1149 102L1159.12 130L1162 172M1 111L2 128M912 261C906.528 264.139 891.25 244.16 887 240.015C869.311 222.759 848.033 210.346 828 196.127C820.33 190.684 811.875 182.311 814.789 172C818.662 158.291 832.521 148.31 844 141.192C872.176 123.721 910.662 111.623 943 125.232C983.888 142.439 1020.02 182.11 1036.07 223C1040.79 235.017 1041.38 247.87 1045 260C1052.61 252.995 1054.75 234.932 1056.61 225C1057.15 222.135 1056.95 212.687 1059.59 211.176C1062.75 209.368 1065.13 214.934 1065.91 217.001C1068.92 225.036 1069.69 234.538 1068.58 243C1064.48 274.231 1062.73 306.033 1056.4 337C1054.88 344.435 1052.65 351.915 1049.94 359C1049.23 360.857 1046.57 365.172 1048.71 366.882C1050.89 368.625 1055.76 366.373 1058 365.656C1067.48 362.618 1075.59 357.924 1084 352.684C1106.58 338.621 1130.12 323.762 1147.24 303C1153.54 295.364 1161.47 284.133 1162 274M485 133C476.934 145.386 475.487 163.171 469.573 177C454.598 212.016 430.471 245.238 440.039 285C447.99 318.045 479.539 336.516 475.829 373C474.902 382.118 470.889 391.339 468 400C460.353 422.922 450.301 448.239 436.218 468C430.016 476.703 421.607 483.564 414 490.985C411.133 493.782 405.783 496.901 404.792 501.015C403.592 505.99 409.478 512.441 412.286 516C422.103 528.44 433.755 537.987 445 549C453.925 540.099 473.513 532.663 462 520M750 336C732.842 275.535 665.934 251.16 610 240.611C575.562 234.116 534.994 237.852 518.681 199C513.417 186.465 523.602 175.25 533 168.131C554.618 151.755 580.517 144.341 607 140.421C624.11 137.889 642.699 135.905 660 137.089C715.793 140.911 789.729 178.94 790.946 242C791.246 257.576 785.067 274.715 779.399 289C772.083 307.438 762.262 323.609 750 339C766.33 348.598 780.394 360.663 791.957 376C799.457 385.948 805.94 397.571 810.85 409C817.108 423.567 827.423 439.419 823.076 456C816.823 479.844 790.381 487.027 769 491.399C754.457 494.373 740.451 499.253 726 502.486C695.37 509.339 666.134 513.722 638 528L639 529L642 528M842 188C839.753 185.136 835.812 181.063 836.792 177.04C837.991 172.125 845.136 169.839 849 167.548C860.31 160.842 871.642 154.712 884 150.065C920.364 136.391 953.072 142.151 977.346 174C998.658 201.964 1009.01 246.396 1009 281C1009 290.651 1009.09 311.434 1001.58 318.562C995.757 324.093 979.896 317.526 974 314.332C952.752 302.819 925.979 284.749 913 264M67 160C62.4178 162.931 59.291 162.119 55 159C59.6422 156.526 62.7628 156.953 67 160M10 206C8.20309 199.921 5.30308 185.052 11.1481 180.599C15.5321 177.26 21.5234 178.619 26 174.853C36.2104 166.263 41.0881 159 55 159M67 160C81.499 160.12 107.463 160.771 120 168C117.295 171.76 118.027 179.772 113.852 181.882C110.202 183.726 103.801 180.91 100 180.25C90.4778 178.596 80.6949 176.676 71 176.858C64.363 176.983 61.1292 180.408 55 176C59.8473 173.208 63.254 172.907 68 176M123 161L119 167M21 165C18.5816 167.231 0.511201 175.765 3.66204 166.039C6.87389 156.125 27.4511 164.796 32 169M12 163L12 169M35 168C41.4597 174.164 46.2058 175.999 55 176M120 168C124.071 170.117 129.758 179.065 127.173 183.856C124.224 189.323 118.813 188.297 121 196C114.943 198.77 112.319 195.991 111 190M125 179L121 186M116 184L120 185M126 187C129.988 192.974 129.688 199.468 121 197M845 192L846 192M848 194L878 219M104 197L106 197M881 221L882 222M886 226L889 229M62 234L62 237M898 241L900 243M67 245C72.5035 242.063 77.7678 242.795 83 246C74.3515 252.221 69.7466 245.05 61 245.059C45.2346 245.074 21.4863 244.58 7.10494 251.804C1.50999 254.614 2.08718 259.681 6.04475 263.576C11.7644 269.204 26.3679 278.147 19.6821 286.999C16.3129 291.46 4.92837 297.283 2.86265 287.945C1.96798 283.901 5.53357 279.958 5.52161 276C5.50489 270.47 1.21935 269.504 5 264M83 246C97.1442 247.788 114.018 246.498 127 253C125.008 256.737 126.751 263.768 123.643 266.357C118.667 270.501 102.255 265.168 96 265.015C88.5978 264.833 81.9737 266.557 75 266.728C56.4776 267.18 36.6833 262.369 22 277M903 248L904 248M127 253L136 254C133.727 258.26 135.247 261.617 134.112 265.946C133.011 270.145 121.961 284.404 134.058 286.568C140.815 287.776 153.818 279.915 143.722 274.047C136.563 269.885 137.866 280.642 139 284M136 254C143.492 256.292 147.879 266.896 143 273M30 258L65 255M1045 260C1045 291.035 1016.05 324.594 988 336.536C976.186 341.567 960.763 341.256 950 347L966.8 369L970.825 377.686L960 382C968.464 404.074 978.226 429.652 992 449C1000.32 444.618 1009.73 443.407 1015.44 434.999C1020.46 427.592 1016.49 415.813 1014.14 408C1010 394.222 1005.89 380.518 1000.95 367C998.197 359.459 994.607 349.022 997.742 341.015C999.592 336.292 1005.29 332.524 1009 329.286C1022.06 317.894 1047.92 302.572 1042 281M1 261L1 265M69 265C73.2372 261.953 76.3577 261.526 81 264M142 264L138 272M124 267L129 269M133 269L137 271M70 272L77 307M14 273L7 276M922 283L927 296M4 285L7 292M21 286L31 297M487 293C503.011 292.867 518.934 290.621 535 291.015C566.112 291.777 599.715 296.441 630 303.654C636.968 305.314 642.348 310.147 649 312M518 294C528.829 297.53 537.56 307.022 548 310.032C556.3 312.424 568.303 308.029 577 308.029C591.885 308.029 607.185 310.759 622 312.17C629.438 312.878 638.162 314.649 645 311M932 308L932 309M545 309C540.463 311.421 532.024 309.05 528.618 312.603C525.529 315.826 529.185 322.556 530.333 326C534.509 338.526 541.467 348.353 547 360M552 312C569.615 331.08 599.005 340.515 623 347.545C641.865 353.071 660.191 361.706 680 363.826C704.593 366.459 732.301 355.927 750 339C722.716 319.576 689.315 330.101 660 337.526C648.877 340.343 635.045 341.431 625 347M78 313L81 324M1162 314C1160.37 328.999 1147.34 346.554 1140.6 360C1121.71 397.679 1100.09 432.694 1078.86 469C1071.98 480.768 1071.6 493.354 1067.65 506C1059.44 532.361 1050.36 557.658 1045.42 585C1037.88 626.752 1038.38 671.828 1053.05 712C1060.75 733.063 1068.61 754.389 1077.43 775C1081.62 784.798 1089.85 795.351 1091 806C1074.15 802.74 1060.36 782.421 1049 771C1045.38 767.364 1036.2 761.029 1037.85 755.004C1040.41 745.658 1055.15 743.621 1063 742M934 315L942 339M547 355L543 321L572 353L548 356M79 332C83.5232 328.75 86.4768 328.75 91 332C84.7771 336.454 79.9633 332.048 73 332.001C57.6134 331.896 40.9028 333.055 26 337.158C10.0644 341.546 11.1943 351.404 22 361C19.7894 363.609 15.9991 366.525 15.3719 370.039C14.1082 377.121 24.1296 382.085 30 379.84C46.9571 373.356 33.8968 360.769 22 361M91 332C107.542 332 129.623 332.501 145 339C142.483 343.716 145.701 353.237 141.678 356.307C138.232 358.937 130.866 356.379 127 355.754C117.352 354.193 106.775 353.274 97 354.058C90.296 354.595 87.2718 358.507 81 354C85.6029 351.184 88.5288 350.821 93 354M145 339L155 341C149.704 348.364 156.788 361.712 143 358M84 340C81.5206 343.825 77.1923 343 73 343M155 341C165.51 344.852 161.916 353.853 163.113 362C163.615 365.422 166.605 370.687 161.856 372.673C155.329 375.403 155.105 364 162 362M752 341C753.271 357.075 756.458 372.717 754.829 389C748.975 447.554 709.629 479.71 666 513M944 346L952 365M948 346L949 346M159 348L163 357M572 354C583.044 358.96 604.118 352.327 615 347M21 350L26 354C33.6248 348.516 40.1424 352.022 45 359L81 354M26 354L28 359M544 356L526 364M45 359L39 367M151 359L158 363M528 364C540.221 370.555 565.195 363.779 577 358M89 362L89 366M146 366C148.526 371.771 150.309 375.513 157 372M1047 367L1042 372M954 370L959 382M39 373L55 389M136 374L137 374M146 374L147 374M142 375L144 375M19 378L23 377M989 448C964.309 448 940.88 439.214 919 428.247C911.687 424.582 898.893 418.462 901.693 408.004C903.468 401.373 911.343 398.445 917 396C930.26 390.27 943.296 386.353 957 382M876 671C868.197 656.602 867.062 634.988 863.486 619C852.793 571.187 842.212 527.42 844.964 478C846.015 459.13 849.675 418.582 875 416.105C904.898 413.181 905.573 454.918 913.011 473C920.27 490.649 934.438 510.962 936.815 530C939.006 547.546 931.555 565.14 925.011 581C911.788 613.047 895.205 642.192 876 671M155 421C158.873 422.824 161.489 425.029 166.001 425.036C169.346 425.042 174.558 422.806 177.512 425.028C180.369 427.178 177.617 432.005 178.292 435C179.689 441.187 185.249 454.431 177.852 459.07C173.684 461.684 167.617 460.627 163 462M160 425C157.702 439.84 128.505 430.516 118 431.233C110.313 431.758 106.276 436.496 99 431C104.101 428.278 109.899 428.278 115 431M169 426C169.369 431.874 169.308 435.024 176 435M170 429L177 434M28 431C29.4121 433.963 32.0291 438.096 35.9105 437.887C39.5948 437.689 42.9045 433.81 47 433.301C64.0529 431.18 81.8017 431 99 431M53 434C53.4413 439.854 57.0127 442.999 61 447C68.4334 440.122 79.2314 440.016 89 440C94.7041 439.991 101.55 441.243 104 435M158 434L163 435C161.887 438.801 164.233 446.615 160.678 448.968C157.405 451.135 149.756 449.194 146 448.83C136.999 447.959 127.028 446.909 118 448.144C110.711 449.14 106.896 452.96 100 448C104.494 445.169 106.379 443.862 103 439M163 435L168 435M171 436L171.358 447L166 460M38 440L46 449L34 458L30 451M106 445L115 448M61 447C54.4297 453.913 51.3417 464.972 40 463M55 456L58 460C70.4673 447.542 84.0179 451.805 100 448M46 449L55 453M992 449C998.284 466.168 1009.41 481.795 1017.74 498C1031 523.797 1039.32 554.924 1035.82 584C1031.62 618.833 1004.88 651.653 987.876 681C958.715 731.317 934.34 783.825 908.742 836C894.161 865.72 873.941 897.274 871 931C877.198 930.189 881.568 926.034 887 923.273C895.722 918.839 904.947 915.292 914 911.603C956.025 894.482 998.52 881.349 1043 872.4C1058.04 869.374 1082.1 862.637 1097 867L1042 886.284L926 939.139L882 950.576L864.854 953.488L859.116 972L846 1019M163 451L167 451M171 452L181 452M175 453L175 459M177 459L178 460M33 465L33 466M529 481L540 494L539 495L537 493M538 496L541.814 511L538.015 522L524.911 537.509L509 535.4L466 522M541 496C551.877 505.408 562.97 517.385 570 530C558.337 537.177 542.033 538.108 529 538M47 518C53.358 516.152 53.7998 509.563 61 507.889C93.0699 500.432 129.428 506.621 161 511.59C170.477 513.082 179.772 515.18 189 516.821C191.632 517.289 195.594 516.21 196.079 513.09C197.146 506.212 186.275 513.821 185 515M117 507C121.54 509.996 125.133 510.594 130 508M52 516L71.3966 534.514L74.858 544.999L87 556M79 516C91.686 517.354 109.515 511.871 121 518M190 518L187 533L199 534L195 518M178 522L179 525M73 534C83.2971 523.739 94.2846 526 108 526C114.873 526 121.521 523.556 128 523.529C132.197 523.511 135.834 526.465 140 526.981C154.051 528.724 169.501 528.43 183 533C180.751 540.829 183.562 550.512 193 546L192 537M62 526C57.8629 529.728 51.3035 532.781 57 538L54 532M123 526C127.523 529.25 130.477 529.25 135 526M627 534L626 537C626.982 531.5 632.717 528.532 638 528M639 530L629 536M67 531L59 538M183 533L187 533M199 536C201.372 541.645 200.659 545.96 194 547M546 537C552.348 541.619 561.34 542.19 569 543.05C585.579 544.913 605.686 546.54 621 539L622 538L623 537L624 537M616 540L620 539M525 540C519.796 546.906 512.625 560.596 504 563.357C500.186 564.577 495.668 562.138 492 561.232C482.656 558.924 470.592 554.456 461 556C465.329 560.669 471.442 562.957 477 565.917C492.473 574.158 512.036 582.827 530 579.671C538.228 578.226 545.64 571.95 553 568.27C560.72 564.411 569.359 562.84 577 559L543 540M617 542L582 559C596.505 568.186 615.277 574.125 631 581.374C654.267 592.102 676.777 604.714 699 617.427C711.218 624.417 724.025 630.81 736 637.979C747.502 644.865 760.301 653.502 774 655M440 550L446 549M447 550L460 555M577 559L582 559M444 653C438.862 660.723 447.546 667.65 455 669C450.54 658.465 441.107 650.249 435.82 640C428.7 626.198 429.306 611.942 429.961 597C430.28 589.714 428.505 559.746 442 571M451 579L451 580M136 583L136 585M101 639C97.5996 635.609 93.0163 632.328 90.9429 627.911C89.2877 624.384 90.2459 618.743 87.9722 615.818C84.8411 611.789 78.5188 611.44 75.0008 606.981C72.5695 603.9 66.9358 598.722 68.6474 594.279C70.6898 588.976 81.587 590 86 590C102.765 589.999 123.9 589.239 140 594C136.441 605.496 146.687 615.944 158 610C153.85 605.641 148.194 605.231 143 608M140 594C148.065 591.144 149.321 594.091 157 595.811C166.692 597.982 178.082 599.943 187.995 600.513C192.624 600.78 194.55 596.461 199.019 596.059C204.847 595.534 212.02 594.145 215 600L208 605C212.466 608.005 214.943 606.025 216 601M460 593L461 594M143 594C146.692 596.541 148.308 596.541 152 594M213 597L210 600M79 598L138 600M463 598C473.418 611.136 485.617 633.511 502 639.601C530.298 650.12 568.468 634.525 597 630.428C626.839 626.144 660.949 625.31 691 628.17C701.118 629.133 710.923 632.198 721 633M208 605L203 603L209 600M193 602L197 603L193.682 613.357L183 613.579L158 610M61 603L63 603M197 603L203 603M89 615C101.943 602.103 121.939 608 139 608M210 608C204.143 615.364 198.148 618.021 200 628M214 609C214.322 619.332 205.135 623.682 213 634C218.007 628.047 218.741 623.407 214 617M195 616L199 616M204 616L209 618M143 617L143 619M218 627C219.787 630.086 220.136 632.316 216 632M201 630C203.497 634.274 206.886 634.159 211 632M739 638C751.19 639.064 763.079 646.312 773 653M446 654C471.908 646.342 498.665 662.053 522 670.772C538.361 676.885 556.572 680.784 572 689C567.26 693.84 556.563 693.218 550 694.13C531.116 696.755 512.035 695.24 494 703C499.698 709.168 515.26 717.495 524 716.621C529.036 716.118 534.202 711.945 539 710.218C548.679 706.736 559.859 705.117 570 707M456 670C470 677.802 481.118 688.755 497 693M876 672C855.103 689.793 841.531 718.943 823.725 740C789.556 780.407 747.321 813.526 700 837.247C675.826 849.365 634.664 866.773 609 849.892C593.012 839.376 594.597 817.324 589.329 801C578.689 768.022 552.149 726.659 515 720M875 673C881.337 689.205 882.09 709.794 884.155 727C888.592 763.959 891.371 801.798 887.83 839C886.214 855.981 880.736 873.112 880 890M156 679L156 681M174 690C168.923 686.649 164.99 686.411 160 690C166.621 694.763 169.984 691.103 177 690.144C186.483 688.847 199.022 692.932 207.966 689.397C211.756 687.899 210.937 684.15 213.623 682.028C216.072 680.093 221.057 681.154 224 681M222 682L225 690L210 690M225 687C226.448 685.818 232.865 681.614 232.079 687.005C231.548 690.644 226.766 690.615 225.029 693.313C219.899 701.278 227.507 709.974 235 710L231 691M77 687C87.9182 689.027 95.6949 693.246 104 701L89 714M103 700C117.915 685.087 139.949 690 160 690M214 692C214.176 696.087 217.085 703.2 214.357 706.682C210.403 711.729 194.823 709 189 709C181.985 709 174.476 712.165 168 711.799C154.405 711.029 131.298 703.206 118.005 710.028C108.788 714.758 117.559 721.559 122 726M78 693L78 694M88 695L84 698C83.9268 694.823 84.9541 694.516 88 695M94 694L88 695M104 702L110 708C123.068 694.978 141.809 699.355 159 699M1066 741L1121 741C1119.81 727.476 1104.42 712.361 1107 699C1127.75 704.383 1146.03 724 1145 747L1123 743L1137 777C1142.69 769.538 1144.76 757.224 1146 748L1162 752M161 709C166.077 705.649 170.009 705.411 175 709M568 707C561.506 718.87 538.169 721.962 527 716M110 708L112 716M215 710L225 710M218 711C220.125 721.723 233.042 721.414 236 711M110 714C105.401 718.599 101.931 723.353 95 723M164 716L164 718M522 717L520 719M94 718L104 718M219 718L213 720M83 719L85 723M1121 741L1123 743M174 764L175 768M235 766L235 767M240 776L241 766C246.791 769.45 250.128 776.303 241 777C242.101 785.179 242.213 794.595 251 797C253.15 789.727 252.365 782.209 248 776M230 767C229.642 775.484 230.139 777.042 239 777M2 771C71.5906 840.59 98 943.98 98 1040C98 1062.43 97.9293 1084.83 94.439 1107C93.1806 1114.99 93.1243 1123.85 89 1131C84.5451 1115.93 87.7083 1097.8 84.3387 1082C76.1439 1043.58 71.0821 1003.6 59.5648 966C46.5304 923.449 26.9852 883.729 2 847M94 771C98.3242 771 104.096 769.998 107.83 772.603C111.348 775.058 115.022 783.012 120 782.369C123.814 781.876 126.142 777.285 130 776.318C142.652 773.147 157.951 776.897 170.961 775.946C178.949 775.362 183.121 771.173 191 776C185.676 779.83 180.324 779.83 175 776M191 776L228 777M1137 777C1136.56 783.055 1132.59 787.809 1129.69 793C1119.88 810.578 1104.43 823.913 1088 835.119C1048.17 862.291 999.102 867.763 953 876.804C928.494 881.61 905.156 889.409 881 895M99 778L112 779M231 778C231.707 781.753 233.681 787.221 232.357 790.941C230.409 796.415 222.522 795 218 795C211.159 795 203.781 795.784 197 794.857C190.066 793.908 185.949 790.292 179 794C183.658 797.351 187.915 797.714 193 795M1137 783C1143.42 794.084 1145.15 809.429 1146.71 822C1147.24 826.25 1146.27 832.068 1148.04 835.985C1150.23 840.795 1164.66 848.015 1160.91 854.567C1157.4 860.718 1135.62 859.907 1129 862L1162 901M103 796C110.467 794.371 114.763 789.237 120 784L127 792C138.859 780.281 161.193 785 177 785M127 792C127.251 799.738 132.547 803.236 138 808M128 798C138.725 788.93 165.35 794 179 794M232 796L243 796M127 798C119.23 805.518 116.302 801.502 107 801M182 803L183 806M237 803L237 804M115 804L108 808M1091 806L1109 817M102 807L103 807M1097 813L1102 823M1112 817L1145 835M1103 824L1129 862M966 825L967 825M189 833L189 835M190 838L190 840M1149 838C1143.07 847.228 1137.53 852.115 1127 856M192 847L193 856M258 866C255.569 866.012 251.636 866.761 249.603 865.111C246.625 862.694 246.184 853.216 250.149 851.619C258.743 848.158 257.335 859.575 259.564 863.762C261.418 867.245 265.789 864.886 268.258 867.488C271.389 870.79 269.763 877.814 271 882L269 884C262.536 882.009 256.932 882.3 254 889M259 851C265.358 854.2 266.701 858.064 267 865M110 854L114 853M1124 857L1098 867M113 858C121.771 858.181 127.644 859.798 134 866C128.332 871.663 124.184 875.348 116 876M206 864L196 866C193.888 872.953 184.903 870.13 179 869.985C162.413 869.578 153.813 865.189 141 878C135.911 868.464 143.447 858.44 154 859.09C165.777 859.816 178.139 863.063 189.91 862.698C193.158 862.597 195.655 860.322 199.004 860.552C203.898 860.887 208.106 864.043 213 864.71C224.062 866.218 235.832 866 247 866M1127 860L1121 862M193 863L196 866M134 866L139 867M250 867C250.227 872.27 250.295 880.125 256 882M261 867L261 873M195 870C199.267 877.449 203.157 875.808 210 880C203.267 884.605 198.953 880.784 192 879.298C181.194 876.987 169.011 877.104 158 876.996C152.799 876.945 146.384 879.942 142 878M262 876L262 882M140 877L124 890M193 879L196 877M210 880L251 882M121 881L131 885M200 886L202 898M864 953C859.033 952.787 851.874 949.89 847.17 951.508C834.62 955.827 824.33 972.372 814 980.482C810.487 983.24 796.262 994.426 791.618 991.759C788.966 990.237 791.299 985.092 791.846 983C794.231 973.875 796.637 965.424 801.025 957C813.203 933.617 832.369 917.598 856 906.627C863.098 903.331 870.085 898.793 878 898M203 900C203.972 911.899 207.552 924.323 210.117 936C210.982 939.943 210.86 946.375 214.43 948.992C230.395 960.694 254.73 947.808 271.996 952.315C278.781 954.086 279.401 971.548 285.817 969.503C289.366 968.372 288.181 961.735 287.896 959C287.101 951.383 281.577 949.698 275 952M870 932L866 951M265 951C265 945.713 263.788 939.874 269 937M272 937C281.547 937.652 282.462 940.516 285 949M849 949C854.39 944.05 860.65 938.421 868 937M127 938C142.718 938.002 162.021 953.095 141 964M275 938L277 950M141 943L131 944M153 957C159.514 956.381 162.406 949.486 169 949.073C183.373 948.174 197.986 955.005 212 950M209 952C213.587 955.398 216.413 955.398 221 952M215 956C212.758 966.751 181.832 960.64 173 959M844 956C843.997 981.093 836.546 1006.36 832.414 1031C829.508 1048.32 829.969 1065.97 825.09 1083C821.999 1093.79 814.512 1114.65 802.961 1118.95C794.039 1122.27 783.477 1111.14 776 1108C769.57 1126.99 770 1151.12 770 1171C770 1195.17 775.191 1218.53 780.501 1242C791.651 1291.28 810.205 1340.79 832.753 1386C844.738 1410.03 856.492 1434.06 872.141 1456C875.185 1460.27 885.552 1478.46 892.272 1471.47C897.355 1466.18 893.91 1454.27 892.739 1448C888.512 1425.36 879.809 1403.47 874.651 1381C858.658 1311.33 851.795 1239 879 1171C888.917 1146.21 906.56 1112.6 935 1106M156 958C159.927 970.221 173.579 969.834 184 970.83C191.847 971.58 200.982 973.202 208.83 972.416C213.236 971.974 216.207 969.515 221 970.008C236.427 971.594 250.081 973.081 266 971.959C271.953 971.54 277.558 972.904 283 970M268 959L269 971M156 961C150.147 966.853 145.766 972.896 137 973M214 962L217 968M132 968L132 970M211 973C216.23 975.82 221.77 975.82 227 973M219 976C220.205 991.137 225.155 1006.02 227.562 1021C228.411 1026.28 228.067 1034.97 233.144 1038.31C236.525 1040.53 243.092 1039 247 1039C257.37 1039 267.68 1038.79 278 1037.89C282.224 1037.51 287.818 1035.58 291.941 1037.31C297.954 1039.84 294.502 1047.62 298.589 1051.38C301.353 1053.93 312.255 1050.37 311.079 1057.69C310.659 1060.29 306.779 1059.99 304.999 1059.4C295.389 1056.19 290.534 1054.81 280 1055.83C263.213 1057.45 244.669 1059.96 228 1059.96C219.436 1059.96 210.754 1057.04 202 1057C193.364 1056.96 177.492 1058.45 174.787 1047C173.598 1041.97 179.854 1038.42 184 1038.06C194.988 1037.1 205.981 1040.17 216.91 1039.69C221.076 1039.5 224.564 1037.05 229 1037M926 1108L915 1105C921.382 1096.73 932.868 1092.36 942 1087.75C954.54 1081.42 966.866 1074.07 979 1066.99C1001.53 1053.84 1024.63 1041.59 1047 1028.2C1083.75 1006.19 1119.37 984.032 1162 976M142 1020L144 1019M149 1019C154.824 1020.98 164.025 1028.51 166.973 1034.05C169.511 1038.83 166.349 1043.55 173 1045M142 1022L142 1025M283 1036C282.866 1032.87 280.959 1027.28 283.032 1024.6C285.98 1020.79 297.804 1022.9 300.397 1026.23C304.956 1032.09 305.999 1043.8 306 1051M293 1024C293.264 1030.05 294.304 1034.49 301 1035M168 1033C172.206 1028.84 176.762 1023.68 182 1029M145 1028L161 1029M1162 1030L1107 1096M143 1032C147.452 1033.67 150.706 1034.26 155 1032M295 1035L293 1037M144 1038L145 1040M220 1040C224.543 1042.42 228.457 1042.42 233 1040M146 1043C149.736 1054.69 161.657 1050.14 168 1044M232 1043L234 1054L220 1058M285 1045L285 1047M175 1047C191.652 1047 214.151 1052.68 230 1048M152 1051L144 1052M299 1053L299 1055M234 1055L236 1059M236 1059L245.35 1110L249.603 1127.11L264 1127.58L288 1125.83L298.852 1125.89L303 1136M1100 1103C1086.88 1104.15 1073.19 1111.45 1062 1117.99C1040.39 1130.61 1019.39 1146 1001.96 1164C948.968 1218.76 919.38 1291.54 912.17 1367C908.415 1406.3 912.924 1445.96 916.831 1485C919.583 1512.51 924.048 1540.01 929.986 1567C932.62 1578.97 933.987 1593.7 941 1604C949.676 1591.71 949 1573.45 949 1559C949 1533.8 949.368 1508.14 951.089 1483C958.34 1377.13 995.2 1272.67 1047.43 1181C1058.96 1160.76 1072.48 1141.71 1086.27 1123C1090.55 1117.18 1096.52 1104.91 1103.14 1101.89C1120.79 1093.84 1145.22 1101.53 1162 1108M158 1104C159.336 1118.73 170.24 1110.29 178.941 1115.03C183.892 1117.72 188.773 1126.78 193 1131C189.818 1134.29 188.457 1139.54 185.401 1142.38C180.336 1147.08 168.746 1140.51 166 1136L158 1137C161.014 1134.86 162.845 1133.75 166 1136M307 1109C310.165 1110.99 319.74 1127.33 319 1113M302 1112L304 1111M299 1113L299 1115M166 1115C162.151 1121.24 159.869 1122.03 153 1119M321 1120L331 1144L329 1146C325.138 1143.48 319.443 1141.7 316.703 1137.94C310.29 1129.14 314.824 1120.17 300 1124M311 1122L314 1120M183 1122L166 1134M164 1123L172 1128M193 1131C206.273 1125.24 217.111 1128.89 231 1127.94C237.726 1127.48 240.692 1123.47 247 1128M188 1126C183.355 1130.65 179.223 1134.13 179 1141M236 1128C239.843 1130.04 242.157 1130.04 246 1128M250 1129C249.824 1143.86 217.69 1138.55 207 1136M89 1131C89 1141.82 83.6622 1156.8 86.1759 1167C87.7364 1173.33 94.3146 1179.68 97.9861 1185C109.762 1202.07 124.314 1217.56 138.134 1233C149.029 1245.17 158.949 1258.03 168.875 1271C171.611 1274.57 177.988 1280.92 177.199 1285.94C176.275 1291.81 157.868 1293.82 153 1295.85C138.846 1301.75 120.742 1315.58 105 1315.38C96.7329 1315.27 90.3114 1309.49 83 1306.67C79.5816 1305.36 73.8434 1305.98 71.162 1303.65C68.6245 1301.44 70.2385 1297.86 67.7639 1295.72C65.96 1294.15 64.3439 1293.94 64 1296M158 1135L160 1135M250 1138C252.344 1146.66 258.539 1160.1 256 1169L255 1165M324 1138L323 1140M3 1151C17.7543 1143.27 36.4641 1140.99 53 1141C59.3673 1141 67.3996 1141.04 72.7863 1144.99C77.9422 1148.78 80.2012 1157.77 84 1163M256 1149C277.004 1149 297.459 1146.24 318 1142M251 1144C235.104 1153.22 203.044 1149.77 186 1144M242 1149L252 1152M6 1152C23.9612 1154.86 41.7079 1152.71 60 1156.79C65.0569 1157.92 75.9176 1160.16 77.6543 1166.04C78.8288 1170.02 62.2133 1178.03 59 1180.14C38.4069 1193.66 20.4927 1210.15 1 1225M86 1169C80.3082 1179.65 80.9656 1196.13 79.8302 1208C77.8835 1228.36 74.977 1248.75 72.1304 1269C70.9438 1277.44 71.4017 1286.87 69 1295M256 1169L258 1179L259 1169M258 1179L260 1189C262.135 1184.94 261.759 1182.18 260 1178M263 1189C262.305 1195.01 267.309 1204.32 263.307 1209.68C260.366 1213.62 252.414 1214.2 248 1214.03C234.231 1213.52 211.507 1215.32 201 1207C198.127 1209.87 186.485 1217.17 186.485 1221.05C186.485 1228.43 200.976 1229.37 206 1230.5C223.441 1234.42 253.895 1242.37 269 1231C280.744 1240.88 311.269 1236.14 325 1231C321.373 1226.1 321.604 1215.89 315.941 1213.07C312.026 1211.11 305.175 1213.22 301 1213.71C290.463 1214.96 272.931 1217.33 265 1210M259 1190L262 1194M196 1198C190.488 1203.48 186.568 1206.66 179 1203C184.35 1197.71 189.103 1192.37 196 1198M321 1196C330.915 1193.6 327.993 1209.59 338 1205C341.207 1209.8 348.982 1227.69 347 1232C343.448 1229.68 338.212 1228 335.43 1224.84C328.348 1216.8 332.016 1205.65 317 1212M176 1196L184 1196M317 1196L321 1210M261 1197L264 1203M196 1198L201 1206M338 1201L338 1205M176 1202L179 1203M332 1207L329 1210M178 1214L184 1221M255 1215C257.804 1216.5 262.352 1216.45 264.623 1218.6C271.849 1225.44 251.54 1225.03 249 1225M268 1216L267 1219M342 1223L341 1227M268 1224L269 1231M337 1227L325 1231M276 1236C270.665 1243.6 274.476 1246.96 275.23 1255C275.649 1259.47 273.935 1263.58 275 1268L276 1262M261 1237L272 1243M272 1251L274 1258M19 1259L63 1293M21 1262C22.7886 1274.11 30.6105 1283.6 39 1292L20 1293C27.3433 1299.2 37.2281 1302.04 43.0841 1310.09C55.2735 1326.85 62.5455 1357.61 64.8272 1378C65.868 1387.3 64.3707 1398.1 67 1407C74.3287 1400.95 74 1388.76 74 1380C74 1355.86 66.9547 1332.93 65 1309C72.7594 1311.54 85.3135 1316.77 93 1313M275 1268C275.496 1271.03 275.874 1272.07 279 1272C281.591 1278.55 284.533 1285.37 281 1292L276 1273M279 1268L279 1272M190 1274L194 1269M278 1277L279 1277M217 1292C214.649 1294.32 211.638 1298.31 208 1298.37C192.62 1298.62 193.092 1280.66 208 1278.69C216.241 1277.61 216.172 1291.04 221.058 1295.1C232.903 1304.94 251.859 1306.46 267 1305.98C275.232 1305.72 284.443 1302.49 281 1293M346 1283C352.25 1284.32 354.682 1287.96 356 1294L336 1301L339 1310M335 1285L335 1291M1 1288L20 1293M40 1294C48.9589 1297.94 63.7674 1315.2 63 1297M356 1294C358.756 1298.47 362.741 1306.5 360.397 1311.85C357.094 1319.4 351.589 1309.71 351 1306M47 1296L48 1298M49 1297L68 1301M194 1298L200 1305L207 1299M70 1299L78 1303M283 1301L289 1306C284.689 1312.03 275.225 1322.29 267 1315M289 1306L336 1301M425 1302L425 1303M200 1305C200.124 1315.52 208.031 1317.62 217 1319.87C233.354 1323.98 250.079 1326.99 267 1327C275.799 1327 288.855 1327.62 286 1315M272 1306L285 1313M426 1306L426 1307M63 1307L65 1309M73 1307L74 1310M233 1313L235 1313M242 1314L266 1316M360 1314L368 1318M79 1315C101.507 1346.33 123.122 1382.58 138.576 1418C142.227 1426.37 154.691 1445.74 149.817 1454.91C145.558 1462.92 129.05 1465.85 121 1468.14C99.1936 1474.35 78.0526 1483.42 55 1483.99C43.9796 1484.26 32.0836 1483.01 28 1471L1 1478M354 1315C342.844 1323.53 325.469 1324.12 312 1325.71C306.996 1326.31 299.899 1325.36 295.43 1328.03C285.915 1333.71 293.986 1352.64 295.79 1361C297.525 1369.04 297.276 1383.82 303.148 1389.81C312.305 1399.15 338.63 1392.95 350 1390.1C354.097 1389.07 359.622 1385.36 363.941 1386.62C368.518 1387.96 370.724 1398.33 374 1402L377 1399C370.816 1392.16 378.567 1377.59 365 1386M273 1318L275 1318M287 1321L295 1327M281 1327L290 1334M430 1327L430 1328M217 1390C219.028 1394.04 218.454 1396.11 215 1399C213.201 1392.66 216.707 1389.34 221 1385C217.973 1382.09 212.507 1378.68 212.377 1374.01C212.248 1369.41 223.937 1362.65 227.942 1364.18C233.88 1366.44 231.687 1375.09 236.148 1378.82C250.766 1391.05 283.961 1401.11 300 1387M350 1369L351 1369M353 1370L355 1370M364 1370C370.483 1371.68 373.781 1375.25 374 1382M353 1374L353 1380M233 1377L221 1385M213 1378L211 1383M376 1385C379.964 1389.69 380.686 1393.42 378 1399M292 1394C296.964 1396.77 302.019 1399.49 307 1396L308 1395L309 1394M357 1397L358 1400M216 1399C221.626 1403.61 228.099 1405.45 235 1407.42C253.695 1412.76 289.399 1423.07 305 1409C310.441 1415.71 308.165 1423.82 309.8 1432C311.74 1441.7 321.776 1467.14 313.902 1474.69C301.658 1486.44 275.001 1468.93 261.004 1469.33C255.192 1469.49 253.246 1476.77 246.148 1474.68C242.118 1473.49 243.003 1468.29 243 1465C235.915 1466.92 227.59 1474.52 235.228 1481.58C239.918 1485.92 248.067 1487.34 254 1489.19C268.243 1493.64 283.172 1496.38 298 1498.05C302.841 1498.59 309.184 1500.66 313.985 1499.64C317.525 1498.89 319.747 1495.55 322 1493C337.737 1504.65 360.994 1499.86 379 1494.55C385.127 1492.75 395.508 1489.71 398.968 1483.78C405.711 1472.22 390.054 1467.04 382 1472L393 1488M305 1409L303 1401C292.934 1409.03 276.851 1402.1 265 1402M373 1401C357.751 1414.34 329.397 1415.6 310 1416M375 1401C378.287 1404.04 380.471 1406 385 1405M68 1407C63.6318 1414.5 64.9088 1423.72 62.5718 1432C57.7342 1449.14 45.4452 1463.12 29 1470M299 1414L308 1421M1 1433C22.2301 1431.27 44.1693 1422.1 64 1415M297 1416L300 1418M226 1438L228 1438M230 1449L225 1457C218.44 1446.75 233.067 1442.04 240.999 1445.28C247.351 1447.88 246.685 1453.7 250.013 1458.28C252.578 1461.81 257.672 1464.16 261 1467M226 1457L237 1466M372 1457L378 1457M380 1457L382 1459M370 1458L370 1466M249 1459L243 1465M392 1463L392 1468M226 1464L227 1465M318 1472C323.651 1479.39 321.724 1484.34 322 1493M324 1480L382 1472M310 1479L319 1486C309.429 1492.86 288.201 1485.42 277 1484M272 1483L274 1483M38 1484L43 1491M374 1484L375 1488M399 1485C402.206 1488.51 404.904 1492.18 399 1494M319 1486L321 1486M38 1490L40 1490M316 1500C322.58 1506.27 325.501 1506.4 332 1500M326 1508C327.506 1526.92 330.474 1552.5 344 1566C335.984 1576.09 341.96 1579.17 351 1585L342 1593L336 1583C329.273 1584.93 320.803 1582.48 314 1581.2C297.974 1578.18 282.185 1574.88 267 1568.8C258.23 1565.29 246.201 1559.85 254 1549C249.006 1544.4 238.926 1538.69 242 1531M250 1530C247.002 1531.39 246.332 1531.36 244 1529C261.442 1524.89 267.019 1543.35 278.259 1553.14C282.24 1556.6 288.053 1556.74 293 1557.88C306.082 1560.89 324.449 1568.21 335 1558M247 1533L245 1540M265 1541L254 1549M387 1545C387.222 1550.16 387.669 1558.34 393.055 1560.93C399.6 1564.07 410.815 1556.6 411 1550M391 1545L395 1545M398 1545L401 1546M258 1549C265.6 1557.01 267.859 1562.2 276 1552M412 1554C417.939 1558.38 425.052 1568.3 416 1574C418.396 1577.26 419.961 1579.03 424 1578L420 1575M273 1559C281.667 1569.08 306.357 1570.7 319 1572.57C324.935 1573.45 329.914 1574.64 335 1571L329 1564M416 1575C411.481 1577.82 402.616 1583.1 397.058 1581.31C391.528 1579.53 388.852 1566.02 392 1562M344 1566L389 1564M406 1569L406 1571M411 1569L416 1574M336 1572L337 1572M339 1577L337 1582M351 1585C365.053 1585 381.638 1587 395 1582M342 1593L347.841 1622L352.6 1641.41L367 1649L357 1656C366.943 1665.19 386.332 1665.19 398.999 1661.7C402.043 1660.86 405.076 1656.18 408.17 1656.63C411.974 1657.19 415.884 1662.81 419 1665M269 1631C266.684 1628.82 262.918 1626.32 262.339 1622.96C260.408 1611.78 273.042 1609.86 278.467 1618C285.443 1628.48 264.148 1629.27 266.592 1638.98C268.239 1645.54 277.412 1648.47 283 1650.57C300.217 1657.07 318.591 1661 337 1661L337 1649C343.507 1649 348.954 1649.73 350 1642M256 1617L261 1623M281 1624L293.424 1637.11L309 1639.89L336 1648M286 1630L273 1645M417 1631C421.606 1631.96 428.351 1633.23 430.4 1638.1C431.797 1641.43 430.438 1645.55 432.158 1648.74C434.505 1653.09 439.472 1653.79 441 1659M404 1632L405 1639M419 1638L427 1650C418.198 1654.42 406.414 1655.75 406 1643M294 1640C300.643 1648.07 312.296 1652.67 321 1645M348 1649L357 1656M367 1649C379.644 1651.35 395.817 1645.95 406 1655M427 1650L430 1650M229 1653C240.628 1662.13 237.767 1679.62 243 1692M259 1655C260.648 1660.19 262.782 1666.43 262.106 1671.96C261.762 1674.77 258.548 1677.98 255.603 1675.93C252.197 1673.56 253.011 1660.9 253 1657M354 1656C352.735 1663.93 344.298 1662 338 1662M406 1658L415 1667M354 1661L358 1670L372 1664M441 1663L441 1664M436 1668L441 1668M357 1671C359.575 1680.16 367.1 1703.81 356.741 1709.57C349.757 1713.45 336.779 1711 329 1711L261 1711C177.745 1711 94.3355 1710 11 1710M264 1676L271 1674M264 1676L266 1684M466 1714C474.892 1719.12 482.814 1712.92 478.467 1703C475.038 1695.18 468.387 1697.32 463.604 1692.4C458.492 1687.15 466.181 1685.05 470 1685M446 1688L454 1712" transform="translate(-577.122,-226.816) scale(0.854617,0.324673)"/></svg>