<svg xmlns="http://www.w3.org/2000/svg" xmlns:svg="http://www.w3.org/2000/svg" xmlns:sodipodi="http://sodipodi.sourceforge.net/DTD/sodipodi-0.dtd" xmlns:inkscape="http://www.inkscape.org/namespaces/inkscape" xmlns:xlink="http://www.w3.org/1999/xlink" width="210mm" height="297mm" viewBox="0 0 210 297">
  <sodipodi:namedview/><g inkscape:label="Ebene 1" inkscape:groupmode="layer" id="layer1">
    </g>
<path style="fill:none;stroke:#000000;stroke-linecap:round;stroke-width:5.0" d="M377 34C451.514 34 546.649 13.9377 609 67.3002C623.863 80.0203 633.485 96.2458 643 113C652.973 130.561 654.471 148.18 653.985 168C653.383 192.599 647.7 216.508 641 240M313 39L375 35M301 40L310 39M298 40L299 40M246 52L295 41M241 53L242 53M235 55L237 55M159 92L140 77C170.987 51.5399 224.37 57.7419 260 66.2507C270.814 68.8333 282.158 69.4517 293 72.2863C326.173 80.9592 357.968 93.4471 390 105.424C419.208 116.345 447.813 132.053 479 136.572C509.108 140.934 537.004 139.045 567 135.834C578.673 134.584 599.783 127.706 610.851 132.742C615.365 134.796 613.174 142.89 614.459 147C616.184 152.517 619.7 157.166 620.674 163C622.544 174.194 619.4 185.934 618 197M202 67L205 67M108 72L140 77M101 73L105 72M92 76L96 74M135 79C119.362 95.14 96.0927 93.7388 75 98.2593C49.8943 103.64 23.939 114.755 1 126M171 84L170 85M121 93L142 106M102 106L101 107M86 124L86 125M62 141L62 147M151 143L161 142M170 142L172 142M175 142L177 142M143 144L148 143M180 143L193 146M133 146L135 146M197 147L206 150M61 151L61 157M210 152L221 156M226 158C256.331 166.608 288.204 176 320 176M14 164C20.7235 166.832 24.3444 163.218 31 163.023C43.6157 162.653 66.0874 169.358 70 183C64.4809 182.019 58.9575 180.414 60 174M70 165C71.8158 170.168 74.8176 170.939 80 171M24 166L57 178M323 177L340 178M356 178L389 177M391 177L414 178M342 178L352 178M418 178L437 179M440 180L470 183M70 183C80.3309 192.886 86.2473 200.815 92 214M472 183L502 189M1 188L2 188M7 189L8 189M11 190L21 191M507 190C524.053 194.933 543.443 200.567 551.673 218C557.245 229.804 556.684 242.524 559 255M25 191L26 191M28 192L35 193M56 193L56 194M38 194L86 207M616 204L613 215M54 212L54 214M55 217L64.0247 238L82.5864 276L91.5633 293.987L101 297M93 218L94 219M611 221L610 223M95 222L95 223M97 227L97 229M212 229C218.21 229.981 219.754 235.39 223.239 240C230.614 249.757 238.963 258.8 247 268M97 232L98 235M489 235C499.511 242.466 505.072 254.455 506.711 267C507.401 272.284 506.294 279.841 508.603 284.698C510.297 288.259 516.806 289.1 520 290.954C525.95 294.41 531.219 299.692 535.532 305C551.466 324.607 553.519 353.359 547.393 377C546.274 381.317 543.141 384.624 542 389M605 237L601 245M99 238C98.7591 250.762 90.5531 248.8 82 256M204 238C214.924 238.354 220.282 251.701 227 259M187 246L197 239M77 241L97 242M638 246L637 247M99 247L102 252M599 247L596 255M636 250L634 254M103 258L105 261M559 261L559 265M230 263C236.376 271.312 245.775 273.331 253.961 278.878C261.83 284.211 267.618 295.783 269 305L262 304M591 267L591 268M162 270L164 268M559 273L559 277M624 273L622 278M586 278L584 285M52 279C52.0228 287.281 48.772 306.209 61 303M151 281L154 279M128 283L133 285M146 287L149 285M407 396C404.419 382.692 398.823 369.815 394.309 357C392.336 351.4 388.208 343.016 389.612 337C392.154 326.108 406.364 321.19 415 316.333C433.88 305.713 453.435 296.331 474 289.143C483.753 285.734 497.173 282.853 507 287M558 286L558 291M135 287L135 289M615 288L607 301M141 293L137 294M580 293L574 307M557 294L555 322M70 298L89 295M92 297L92 301M507 297L507 302M230 302L233 302M237 302L242 302M245 303L248 303M93 304L94 313M251 304L257 304M506 305L507 307M56 306C59.2668 312.984 61.8005 325.238 67.6381 330.397C71.2859 333.62 76.7244 330.569 80.9815 331.242C89.0546 332.52 93.4 341.157 96 328M603 306L575 341M215 307L214 308M203 310L206 310M506 310L506 314M199 311L200 311M572 312L571 314M227 328C215.171 334.313 205.27 328.51 196 321C204.955 317.622 212.45 317.451 220.995 322.124C226.679 325.233 229.076 329.64 236 330L249 343.464L269 362M505 318L505 319M275 319C290.534 333.263 310.114 329.693 329 335M568 320L563 333M150 337C163.589 327.548 179.611 322.293 196 321M153 322L155 323M160 322L162 322M554 325L554 330M504 326L503 329M237 329L277 329M176 330C181.576 330.124 188.687 328.885 193.938 331.032C198.504 332.9 196.279 337.556 199.448 340.397C206.385 346.612 209.639 337.557 208 332M198 332L205 331M86 393C81.7601 385.051 75.0968 378.03 67 374C68.9093 370.416 73.1049 369.296 74.9329 365.812C76.7011 362.442 75.0376 345.066 71.8125 343.144C65.2385 339.226 56.0016 343.736 49 340C53.142 335.184 59.9141 333.306 66 332M182 332C185.037 342.276 182.844 348.714 190 358M86 335L76 341C80.0122 345.599 92.6187 358.496 84 363M501 336L499 345M561 336L561 339M45 340L48 339M560 341L560 342M76 342L74 344M208 342C216.28 357.515 197.563 360.963 193 372L196 372M82 344L88 343M558 346L557 349M410 347L409 350M571 347L563 359M497 348L496 351M495 355L494 356M211 356L260 358M167 359C174.723 369.574 178.845 371 192 371M493 359L493 360M154 363L171 369M561 363L557 370M238 396L262 384.09L308 367M407 368L407 371M488 370L484 378M172 376C181.645 381.37 189.399 390.622 199 395.442C208.351 400.137 220.82 400.988 231 403.12C253.294 407.788 273.114 411.011 296 408.83C310.176 407.479 323.767 405.533 338 407.286C343.189 407.926 350.085 408.231 353 413M549 379L554 376M547 381L547 391M541 391L541 393M476 392L475 393M539 398L539 401M545 398L545 401M469 403L467 405M538 403L538 406M466 407L461 414M536 412L524.544 458L517 475M459 416L458 418M456 420L453 425M449 429L448 430M535 432L535 433M193 434L191 436M444 436L443 437M436 444L432 448M430 450L428 451M421 458L409 467M405 471L407 470M53 471L54.1644 490.741L68.9136 505.089L65.7022 517L72 538M403 472L394 480M106 473L112 478M521 475C520.392 482.706 517.664 490.395 517.274 498C517.111 501.18 519.109 505.689 516.971 508.512C514.997 511.121 508.941 510.101 506 510.615C497.272 512.14 489.206 514.883 481 518.208C456.6 528.097 429.259 544.185 416 568M390 482L389 483M127 500L136 484M388 490C398.725 486.511 418.786 479.028 428.348 489.419C433.936 495.492 433.169 506.429 433 514M238 576C290.737 555.01 334.94 514.92 384 487M509 489L509 491M97 492L102 490M89 496L91 495M505 497L504 498M53 499L51 502M84 499L74 501M83 503C97.6202 507.988 103.119 528.441 119 514M124 504L124 505M122 508L121 510M70 512C81.395 515.149 86.5358 520.083 99 519M51 515L51 517M268 515L269 515M264 518L265 518M89 521L92 524M231 534L260 521M433 522L433 525M52 524C53.6567 544.818 64.4075 562.576 61.9568 584C61.3149 589.611 60.737 606.069 65.6034 610.115C69.1386 613.054 78.4955 612.417 83 613.425C93.7137 615.823 104.917 620.417 115 624.72C126.013 629.419 146.937 643.812 159 639C151.43 629.27 140.293 621.883 131.17 613.614C121.662 604.997 112.189 593.805 100 588.93C92.7561 586.033 87.2288 589.512 80 588.891C73.9524 588.372 69.1944 584.321 63 584M82 525C121.6 564.245 174.038 555.618 222 538M468 526C478.053 532.955 486.287 540.325 495 548.999C501.027 555 508.078 560.635 512.521 568C522.536 584.604 512.373 595.883 496 600.706C472.492 607.63 415.096 608.806 415 574M433 527L433 536M432 543L431 546M430 554L430 558M67 556L67 557M428 561L428 563M427 570L426 573M425 575L425 576M423 581L423 582M422 584L422 585M419 599L418 600M416 604L410 623M66 612C65.8306 621.9 70.4335 634.235 78 641M65 620C56.5558 632.484 70.2213 639.707 75.088 649C79.5013 657.427 80.9076 668.539 86.0085 676.999C94.1703 690.536 113.564 699.675 129 696M409 627L398 651M159 639L167 645M64 641L71 692M611 648C601.754 667.771 593.684 691.621 589.25 713C587.586 721.023 588.747 729.798 587.572 738C584.216 761.422 578.249 783.708 570.308 806C557.736 841.292 542.822 875.798 529.947 911C524.391 926.189 514.807 944.66 515 961C526.4 957.36 532.748 945.611 545 942.306C557.544 938.923 579.819 931.304 591.945 939.728C597.175 943.361 598.244 951.156 599.246 957C601.818 972.005 603.708 986.868 601.576 1002C600.279 1011.2 598.248 1020.21 595.214 1029C594.284 1031.7 592.432 1035.85 595.357 1037.98C598.499 1040.26 605.212 1040.27 609 1040.92C619.031 1042.62 628.932 1044.93 639 1046.42C667.614 1050.66 696.42 1055.38 724 1064.33C730.74 1066.52 738.85 1066.71 745 1070L721 1078.86L685 1090.69L585 1127.69L544 1142L564.753 1102L592 1038M78 651L115 655.17L140 660M396 655L388 668M102 656C111.146 662.978 120.882 666.363 126 678M75 659C77.0882 667.671 81.0873 678.208 79 687M125 659L115 661M386 672C371.365 696.223 349.914 718.824 325 732.586C317.016 736.997 301.516 745.366 292.039 742.052C288.898 740.954 286.7 737.898 283.961 736.101C275.009 730.23 264.447 727.59 256 720.985C253.751 719.226 249.16 716.424 249.631 713.036C250.402 707.495 261.676 701.829 266 699.203C282.55 689.15 299.169 678.718 318 673.428C327.353 670.801 340.843 667.704 341 681M340 684L339 693M338 699L335 724M73 702L78 703M76 705L76 717M588 718C583.02 724.51 581.144 733.357 578.319 741C573.488 754.067 568.15 766.933 563.319 780C548.36 820.459 532.68 860.824 514.691 900C508.492 913.501 501.187 927.268 493.691 940C491.174 944.277 485.308 954.521 486.904 959.667C487.807 962.581 491.96 961.118 494 960.624C500.759 958.988 507.091 955.935 514 955M334 730L334 733M288 740C276.782 747.645 261.467 751.104 249 756.664C205.884 775.893 164.603 787.953 118 795.438C102.522 797.924 66.686 805.188 58 787M332 741L328 770M700 790C685.731 775.731 668.917 761.813 659 744C669.935 738.739 697.295 745.906 704.142 756.174C711.758 767.594 696.095 782.861 701.567 792.576C707.969 803.942 718.203 814.03 725.484 825C746.559 856.753 768.226 890.259 781.808 926C786.134 937.385 789.409 949.226 792.478 961C793.965 966.706 796.578 970.688 793 976C782.722 957.536 761.687 953.87 742 955.831C696.81 960.332 646.879 961.586 604 978M272 752C233.383 777.573 190.843 794.309 148 811.309C126.355 819.897 102.111 829.767 79 820M327 775C325.549 808.276 318.382 841.805 315.17 875C306.826 961.218 301.943 1048.53 302 1135M700 792C689.749 806.399 682.757 821.598 670.41 834.83C633.064 874.856 586.342 903.679 546 940M526 954L526 950M517 952L524 951M287 1136C260.676 1126.39 235.469 1144.22 213 1156C209.01 1142.47 215.513 1120.92 217.573 1107C223.323 1068.15 226.27 1026.87 246.15 992C253.906 978.396 261.098 966.972 275 958.862C279.57 956.196 286.672 951.919 291.772 955.743C296.357 959.181 296.184 969.773 295.914 975C295.168 989.405 296.659 1004.97 300 1019M514 962C509.987 972.32 523.891 976.406 532 979.302C555.445 987.674 578.365 979.488 602 979M590 1037C575.616 1035.86 561.437 1031.55 547 1030.17C527.406 1028.3 506.727 1030.37 488 1023.32C480.797 1020.6 459.938 1011.98 461.033 1002.01C461.409 998.594 465.421 996.449 468 994.812C475.128 990.286 482.084 985.561 489 980.72C495.795 975.963 503.095 969.621 511 967M797 975C804.719 998.721 812.219 1024.99 813.911 1050C817.446 1102.27 801.932 1154.94 788.735 1205C771.952 1268.66 751.441 1331.28 731.344 1394C720.381 1428.22 710.024 1465.12 693.297 1497C685.249 1512.34 677.081 1527.42 662 1537C647.06 1507.24 675.178 1477.61 651.535 1451.09C639.836 1437.97 618.693 1431.66 604 1422.3C578.473 1406.05 556.404 1387.43 534 1367.17C510.932 1346.31 488.835 1325.74 482.449 1294C473.712 1250.57 493.131 1213.53 518.989 1180C524.877 1172.37 530.283 1164.29 535.199 1156C536.218 1154.28 540.184 1148.97 537.353 1147.24C533.781 1145.06 523.396 1152.12 520 1153.57C502.288 1161.15 484.914 1169.37 468 1178.63C413.282 1208.58 368.141 1249.66 325.91 1295C310.621 1311.41 293.402 1327.31 279.799 1345.17C265.462 1363.99 247.328 1383.86 228 1397.7C222.819 1401.41 210.859 1410.39 204.394 1405.26C198.484 1400.56 193.504 1374.24 202.008 1371.72C218.02 1366.98 227.579 1379.74 237 1390M793 976L800.789 1008L812 1059M300 1025L303 1038M745 1070L750 1070M814 1089C817.982 1096.35 817.161 1105.85 818.424 1114C821.564 1134.24 824.712 1154.65 827.155 1175C830.305 1201.24 836.733 1227.39 834.911 1254C828.872 1342.18 794.154 1426.52 764.692 1509C752.92 1541.96 739.974 1574.75 724.248 1606C719.516 1615.4 712.415 1633.41 701.999 1637.65C690.738 1642.23 669.978 1631.52 659 1628.43C621.669 1617.9 584.825 1607.79 548 1595.52C522.294 1586.95 496.503 1577.27 470 1571.42C444.443 1565.79 417.567 1564.15 393 1554.54C341.658 1534.45 298.376 1491.71 283.424 1438C275.172 1408.35 277.98 1381.07 278 1351M289 1138C303.791 1151.26 302.526 1176.08 301.086 1194C299.562 1212.96 294.578 1231.3 291.435 1250C286.235 1280.94 282.922 1311.97 279 1343M544 1142L539 1147M213 1156C191.934 1173.44 163.68 1190.25 139 1202L137 1198L131 1204L136 1205L133.039 1232L123.015 1417L124.004 1505L126 1535M212 1160C208.302 1179.92 208.75 1200.85 206.83 1221C202.028 1271.4 197 1321.3 197 1372M140 1194L137 1198M137 1203L137 1204M127 1524C132.207 1514.61 131.966 1500.55 134.211 1490C140.904 1458.52 148.698 1425.2 168.375 1399C175.356 1389.71 184.449 1378.4 196 1375M236 1391C244.11 1402.2 246.082 1414.77 248.463 1428C250.566 1439.69 252.967 1452.06 251.83 1464C246.465 1520.37 200.47 1543.2 156 1567.31C138.74 1576.67 122.304 1588.03 104 1595.35C93.2396 1599.66 79.4322 1602.07 68 1599.08C64.1302 1598.06 53.8698 1590.84 50.6026 1593.66C47.8968 1596 48.1973 1602.71 47.7292 1606C45.9436 1618.53 44.7948 1631.38 43.9105 1644C40.68 1690.09 33.3831 1736.72 33 1783M48 1588C17.6668 1557.02 21.1051 1509.49 32.4244 1471C35.8337 1459.41 41.5143 1447.07 48.206 1437C49.93 1434.41 53.6469 1427.34 57.7006 1429.18C60.9506 1430.65 60.8038 1436.07 61.1551 1439C62.3939 1449.31 62.9331 1460.66 61.5756 1471C58.3187 1495.8 57.7026 1521.1 54.7145 1546C53.1262 1559.24 47.1778 1578.08 50 1591M1116 1756C1115.49 1765.93 1109.7 1772.58 1116 1782" transform="translate(-577.122,-226.816) scale(0.931713,0.326615)"/></svg>