<svg xmlns="http://www.w3.org/2000/svg" xmlns:svg="http://www.w3.org/2000/svg" xmlns:sodipodi="http://sodipodi.sourceforge.net/DTD/sodipodi-0.dtd" xmlns:inkscape="http://www.inkscape.org/namespaces/inkscape" xmlns:xlink="http://www.w3.org/1999/xlink" width="210mm" height="297mm" viewBox="0 0 210 297">
  <sodipodi:namedview/><g inkscape:label="Ebene 1" inkscape:groupmode="layer" id="layer1">
    </g>
<path style="fill:none;stroke:#000000;stroke-linecap:round;stroke-width:5.0" d="M329 66C328.687 53.5201 329.025 37.5627 334 26C347.301 35.8765 343.767 51.1615 348 65L346 67L316 67M347 54C356.299 53.1831 365.111 48.3699 374 45.7207C389.781 41.0177 407.498 37.571 424 37.571C438.795 37.571 455.022 39.8246 469 44.6953C476.435 47.286 483.545 52.7938 491 54.5416C497.047 55.9595 503.782 54.568 510 55.1698C526.03 56.7212 542.429 59.3403 557 66.49C560.952 68.4292 570.689 74.3522 568.744 79.8958C566.409 86.5476 553.264 89.9402 548 94C560.985 105.952 573.578 116.432 582.536 132C589.581 144.243 592.043 158.445 595.235 172C603.4 206.678 604.589 241.707 593.974 276C588.365 294.123 581.17 311.874 573.059 329C568.809 337.972 562.259 346.268 560 356C573.512 351.287 584.402 338.614 595 329.424C601.026 324.199 608.589 318.313 612 311M486 53L467 55.0039L435 55.571L348 65M330 60L345 56M496 57L533 83.3411L548 94M320 67L328 62M346 67C346 80.0559 345.062 92.9821 344.999 106C344.984 109.151 342.743 116.902 345.606 119.092C348.375 121.209 351.482 117.755 353.285 116.032C358.603 110.954 376.689 103.017 378.169 95.9066C379.331 90.3247 368.913 79.7428 366 75M231 68C257.949 114.172 262.461 170.823 251.715 223C244.612 257.486 223.669 302.744 239.782 337C247.364 353.119 259.415 363.455 275 371.247C278.717 373.105 283.759 376.897 288 377.045C292.82 377.212 298.211 370.612 302 368.029C309.555 362.877 318.16 359.982 327 357.884C363.07 349.324 404.683 349.235 441 356.197C454.648 358.813 467.974 360.773 479.999 368.324C496.059 378.407 482.169 394.367 471.985 403.08C454.157 418.336 429.709 429.908 407 417C415.072 406.135 433.447 399.619 445 392.691C449.786 389.82 457.782 385.521 459.839 380C461.657 375.119 455.54 371.595 451.999 369.81C442.507 365.025 429.539 362.42 419 364.147C405.283 366.394 398.3 379.451 386 384.049C377.872 387.087 368.511 386 360 386C344.181 386 329.725 386.4 314 383.46C305.931 381.951 297.837 382.064 291 377M328 69C328.792 107.353 335.781 144.667 344.349 182C348.741 201.138 352.459 221.666 364.039 238C382.599 264.177 412.842 281.439 435.83 303.425C445.526 312.699 452.196 324.266 460 335C467.145 325.076 468.266 303.218 471.105 291C472.17 286.416 474.953 280.62 472.901 276.002C470.527 270.658 465.512 269.791 461 266.978C451.689 261.173 444.628 253.751 434 251M368 75C376.572 76.1068 386.682 81.9495 395 81.2808C421.333 79.1637 447.802 63.1959 474 77M41 110C52.8217 102.593 63.9726 93.7306 77 88.453C112.578 74.04 162.474 71.2966 198 87.3118C209.628 92.5536 223.07 99.7416 228.38 112C230.371 116.594 231.397 131.451 237 131L235 128M236 82L237 128M406 82C399.915 86.2954 386.279 89.1105 382.907 96.21C380.538 101.197 394.654 118.847 400.005 118.566C411.577 117.959 421.382 111.346 432 108.026C448.5 102.865 465.183 100.256 482 96.5756C492.361 94.3079 507.477 90.1661 517 96C512.097 102.599 503.784 104.608 496 106.193C479.563 109.539 462.622 110.139 446 112.155C438.755 113.034 429.76 116.468 423 113M544 93C537.295 97.8828 522.147 103.335 514 101M379 96L381 98M38 113C24.8797 121.961 13.9177 133.696 4 146M419 116C419.265 128.449 426.067 141.693 434 151L438 124C444.037 129.112 448.867 142.54 458 142.719C473.404 143.022 481.237 112.29 497.61 132.04C499.543 134.372 501.201 137.252 502.47 140C508.03 152.036 489.081 157.852 481 161.471C463.147 169.465 443.005 167.972 424 167.075C414.295 166.617 404.478 167.117 396 162M394 117C384.741 121.941 361.852 122.496 352 119M142 118C129.331 148.22 93.1516 175.682 63.3009 147.621C55.8471 140.614 59.3578 131.448 54 124L45.2153 155L26 184M344 121C344 141.102 342.097 168.462 353.61 186C363.799 201.523 384.185 207.71 401 212.721C432.579 222.13 456.634 232.15 488 215.602C513.055 202.383 537.225 186.692 562 172.822C566.681 170.201 584.793 162.019 584.793 156.018C584.793 150.641 570.726 150.148 567 148L577 136M438 123L438 124M235 133C237.48 152.73 229.832 171.808 228 191L230 188M136 134C150.976 140.993 192.788 150.819 186 174M1 150L1 151M560 153C539.331 171.102 518.999 189.369 494 201.255C481.87 207.023 467.399 212.081 454 207.455C434.484 200.718 420.419 181.8 406 168M2 229C38.2367 201.414 78.2611 165.339 127 165.339C142.605 165.339 155.83 171.504 170 177M155 171L132 174.845L89 182.211L67 185M184 180C153.521 221.481 89.7435 246.413 39 240M23 186L20 189M226 191L221 205M17 192L1 205M230 192C229.152 210.549 218.393 223.34 209 238M77 233C74.7212 226.915 71.7624 204.936 79.2284 201.353C85.8076 198.195 105.428 209.204 111 213C90.8788 227.653 60.1583 224.547 41 240M220 208L215 218M32 209C44.5791 212.996 62.1376 215.304 71 226M111 213L130 210M214 222L212 231M445 252C454.138 253.962 465.289 259.342 468 269M1 256C1.10442 268.614 0.33749 284.853 3.23997 297C8.58633 319.375 24.6394 341.385 40.0895 358C63.8185 383.517 103.893 406.174 104 445M476 280C508.778 298.462 472.947 368.167 523 369.74C534.177 370.091 543.34 363.574 554 362L538 402L584 379C582.606 392.609 571.99 405.919 567.745 419C556.909 452.399 547.46 487.094 543.286 522C538.955 558.207 554.453 593.107 556.911 629C560.475 681.044 538.969 728.25 506.386 768C497.962 778.277 489.077 788.223 480.086 798C474.89 803.65 470.652 809.727 463 812C467.943 775.319 498.092 748.045 498.985 711C499.744 679.539 473.487 658.69 470.289 629C467.424 602.393 478.278 571.64 484.346 546C489.364 524.794 495.234 503.543 498.576 482C500.797 467.677 501.037 450.143 507.515 437C514.809 422.199 527.612 414.003 538 402M613 315C611.071 337.094 591.665 353.714 588 375C597.419 374.056 605.654 368.142 615 366.464C618.885 365.767 624.127 365.316 625.388 370.059C628.339 381.158 616.717 395.141 611.654 404C596.61 430.327 579.064 455.769 570.026 485C553.015 540.013 567.738 595.104 563.911 651C560.488 700.981 541.928 742.239 512.105 782C490.573 810.707 459.739 830.185 430 849.302C420.108 855.661 399.682 858.722 392.854 868.214C388.769 873.893 389.084 885.247 389.004 892C388.59 926.824 390.36 961.423 393.831 996C394.767 1005.32 395.354 1014.71 396.576 1024C396.919 1026.61 396.23 1031.25 398.028 1033.36C400.521 1036.29 405.437 1032.69 408.09 1031.84C416.439 1029.13 427.28 1028.66 436 1029.04C450.962 1029.69 464.56 1034.41 475.981 1044.32C479.75 1047.6 482.044 1052.07 486.019 1055.14C498.946 1065.12 511.192 1071.47 512 1090L486 1094L479 1109L473 1106C469.941 1119.34 449.368 1134.34 452 1148L480 1109M14 319C28.6396 321.944 42.0723 338.174 55 345.573C74.1097 356.51 96.9483 359.875 116 370M21 319C30.6691 319.442 40.2081 323.819 49 327.579C71.5525 337.222 92.7807 350.758 112 366M463 334L466 353M460 336L461 337M1060 347L1060 348M560 356L554 362M266 622C284.207 627.344 298.397 643.301 318 647.482C328.203 649.658 338.263 646.517 348 643.848C376.649 635.995 404.05 616.439 424.025 595C434.277 583.996 439.092 572.661 446.51 560.318C448 557.839 454.616 558.432 454.079 555.022C453.15 549.12 441.119 542.91 437 539.035C425.111 527.848 412.468 514.875 398 506.96C385.954 500.37 372.481 502.891 365.318 489C357.917 474.648 371.084 452.13 374.715 438C375.651 434.356 379.823 421.473 376.383 418.752C373.567 416.524 370.638 421.001 369.519 423.005C365.549 430.11 363.03 438.01 361.615 446C359.564 457.584 360.468 470.079 355.355 481C346.37 500.191 321.978 503.606 304 496.236C299.224 494.279 294.957 490.794 291 487.536C274.459 473.918 278.524 456.843 286.603 439C288.811 434.125 295.23 425.346 294.549 420.015C293.691 413.294 278.797 403.797 274 399C260.691 415.487 213.31 416.905 212.113 389.004C211.894 383.884 215.421 381.552 220 380.351C229.751 377.794 247.418 371.643 256.999 376.457C265.47 380.713 268.324 391.092 274 398L289 378M588 375L584 379M225 410C228.514 414.612 234.874 418.817 234 425C225.564 421.539 214.707 419.578 207.108 414.637C194.535 406.46 210.952 405 217 405M531 413C519.761 454.092 496.973 487.543 500.09 532C501.742 555.575 517.525 573.679 523.105 596C530.582 625.91 524.042 651.692 517.235 681C513.163 698.535 508.601 719.109 498 734M235 423L251 433M104 458L104 460M104 470C104 518.938 124.358 566.794 140.947 612C160.389 664.982 178.139 718.467 196 772C201.005 787 204.898 802.932 210.784 817.576C216.15 830.927 224.691 847.496 225 862C214.435 857.578 205.012 851.713 194 848.09C170.97 840.512 140.837 834.94 124.76 814.911C108.051 794.093 114.233 762.495 115.91 738C118.65 697.999 117.286 658.052 119.039 618C119.637 604.359 124.998 591.703 125 578M217 566C236.671 551.012 254.188 525.152 278 516.329C293.828 510.465 309.633 526.242 326 524.907C343.096 523.511 357.059 507.428 373 502M380 503C389.605 516.041 413.447 527.117 428 534M413 1247C402.133 1239.61 388.4 1230.7 375 1229.03C365.761 1227.88 356.202 1229.6 347 1230L356 1217C350.911 1212.6 340.68 1209.29 337.198 1203.86C329.121 1191.24 328.257 1176.03 315.985 1165.3C283.162 1136.6 241.966 1163.46 208 1173C206.719 1110.93 200.05 1049.79 194.17 988C191.488 959.825 194.859 928.823 183.521 902.001C180.635 895.174 173.374 891.428 168 886.714C157.965 877.912 149.43 865.068 137 859.417C127.058 854.898 117.158 859.424 110.133 847.996C104.804 839.327 104.765 827.784 103.83 818C102.116 800.059 101.542 781.966 99.8302 764C97.8231 742.937 91.9999 721.699 87.6651 701C82.5854 676.745 78.466 651.295 69.7724 628C62.7631 609.218 55.463 590.16 49.5864 571C46.8345 562.028 43.0456 551.53 45.419 542C54.6374 504.983 102.554 538.184 117 552M441 545L446 557M275 623C286.771 623.929 299.201 626.459 311 625.961C334.932 624.951 359.596 617.885 382 609.819C395.627 604.913 422.474 590.431 401.996 575.638C398.386 573.03 394.024 571.792 390 570L406 564.119L446 559M378 569C358.737 580.107 326.594 577.747 305 578.004C296.303 578.107 287.085 580.316 279 576C295.998 564.419 327.726 558.861 348 561.286C362.155 562.979 375.96 569 390 569M273 578L279 576M355 782C347.223 781.978 339.777 779.622 332 779.089C317.497 778.096 302.537 778.854 288 779.004C265.261 779.238 240.159 781.319 219 771.215C204.314 764.203 197.726 750.782 210.09 738.039C213.648 734.372 217.902 731.402 222 728.377C228.118 723.862 234.868 720.646 242 718.054C285.684 702.178 342.207 707.643 387 716.6C403.001 719.8 419.028 722.688 435 725.997C437.979 726.614 449.793 727.683 449.793 732.012C449.793 736.51 431.696 743.318 428 745.427C404.925 758.598 378.427 765.737 356 780C360.2 784.338 367.344 784.258 373 785.86C386.362 789.644 412.658 799.862 413.253 817C413.56 825.848 401.284 828.473 395 830.811C373.726 838.724 353.936 848.044 335 860.667C322.138 869.241 308.251 878.709 299.81 892C284.038 916.835 282.107 950.388 284.83 979C285.491 985.944 283.982 994.382 285.748 1001C288.157 1010.03 294.297 1019.94 299 1028M410 805C425.708 801.952 441.664 797.069 455 787.971C462.31 782.985 467.833 776.049 475 771M348 782C333.909 793.366 308.229 799.151 291 804.656C284.234 806.818 276.779 807.723 271 812C280.166 816.891 293.904 812.875 304 813.375C337.624 815.04 371.886 813.422 405 807M215 825L271 812M213 817L247 814M210 818L203 825L212 826M226 863C233.594 875.156 252.944 875.839 259.86 891C264.658 901.517 252.636 921.561 262.148 929.348C272.92 938.166 294.065 934.114 307 939.065C334.537 949.606 356.774 976.679 370.688 1002C378.332 1015.91 386.723 1032.32 389.576 1048C392.698 1065.17 390.282 1082.71 391.039 1100C392.325 1129.36 397.476 1165.6 411.26 1192C415.747 1200.59 423.957 1197.69 432 1199.92C440.003 1202.15 447.956 1207.72 453.891 1213.43C462.789 1221.98 467.431 1237.93 467.961 1250C468.161 1254.57 466.425 1260.42 467.407 1264.77C468.44 1269.34 480.041 1267.49 483.411 1272.08C489.734 1280.7 486.88 1308.26 484 1318C505.668 1324.85 533.983 1316.05 554 1307.7C585.573 1294.52 621.326 1278.47 655 1272L640.4 1246L619 1208M230 870L283 997M398 1035C398.046 1051.82 402.181 1069.35 404.572 1086C407.385 1105.59 408.711 1125.39 411.289 1145C413.378 1160.89 417.547 1179 415 1195M406 1035L446 1041.65L480 1052M489 1058L493.022 1079L489 1093M508 1103C535.451 1088.1 560.428 1059.65 596 1062.09C616.341 1063.48 633.792 1074.38 653 1079.58C657.954 1080.92 670.931 1083.61 672.654 1089.29C673.861 1093.26 665.466 1096.97 663 1099C678.37 1113.16 685.942 1136.94 686 1158L667 1133L678 1126M506 1070C518.034 1060.14 533.115 1065.01 536 1081M1 1286C4.42377 1272.31 14.5912 1260.3 22.5756 1249C45.3334 1216.78 75.8647 1192.03 99.6867 1161C103.52 1156.01 109.476 1149.66 112.077 1144C117.237 1132.77 117.579 1121.01 124.701 1110C136.791 1091.31 164.286 1075.05 185 1068M505 1070L495 1079M427 1081C443.719 1085.56 467.322 1096.82 485 1093M536 1083C547.825 1102.39 535.352 1134.44 520.985 1149C514.985 1155.07 501.985 1161.13 498.742 1169.04C486.309 1199.39 492.934 1236.94 480 1267M488 1088L485 1093M528 1089L536 1094L523 1096M578 1092C583.251 1089.2 589.202 1090.19 595 1089.42C613.072 1087.05 644.608 1088.51 660 1099C655.742 1102.63 648.212 1110.66 642.911 1111.97C636.456 1113.57 628.002 1109.26 622 1107.34C606.891 1102.52 591.756 1095.43 576 1092.83C561.875 1090.5 545.348 1096.49 532 1099.95C525.37 1101.66 518.557 1101.78 512 1104C515.996 1128.01 491.515 1116.3 480 1109M448 1090L473 1106M513 1091L522 1092M513 1091L512 1095M502 1093L512 1095M481 1094L474 1106M548 1097C552.914 1099.8 557.568 1098.65 563 1099.17C575.232 1100.33 595.509 1106.9 607 1103M660 1099L663 1099M553 1100L564.83 1112.04L582 1136M680 1125C700.857 1109.1 734.462 1098.5 760 1107.59C768.421 1110.59 776.818 1113.68 781.351 1122C787.26 1132.84 783.891 1145.34 785.286 1157C788.056 1180.17 794.046 1203.25 799.116 1226C812.471 1285.94 816.91 1347.96 821.089 1409C823.672 1446.71 828.328 1484.29 830.911 1522C834.105 1568.65 831.427 1617.99 840 1664M103 1152C103.043 1136.54 108.221 1118.69 123 1111M667 1133L649 1114L665 1111M646 1113L648 1114M511 1122L532 1129M509 1123L500 1164M119 1131L119 1135L116 1136M536 1131C556.142 1135.16 585.71 1136.9 602 1150.33C629.517 1173.02 618.647 1198.2 605.247 1225C591.208 1253.08 575.677 1281.26 555 1305M687 1159C693.52 1174.89 694.35 1191.04 696.166 1208C696.795 1213.88 698.721 1222.33 696.477 1228C692.69 1237.57 677.39 1248.59 670 1256C654.335 1234 639.6 1204.74 631.344 1179C629.665 1173.77 622.506 1158.48 625.201 1153.5C626.848 1150.45 633.032 1149.12 636 1147.77C645.216 1143.57 654.034 1138.72 663 1134M120 1136L116 1213C124.97 1209.08 132.064 1201.64 140 1196.04C152.587 1187.14 167.06 1180.12 182 1176.27C189.503 1174.34 199.585 1171.18 207 1174M587 1144L594.742 1163L616 1201M112 1145L116 1154M452 1148C440.207 1161.87 432.746 1180.65 425 1197M254 1158C258.424 1160.37 263.583 1160.07 267.985 1162.56C271.054 1164.29 277.594 1172.25 270.852 1173.96C267.517 1174.8 262.398 1173.18 259 1172.72C249.534 1171.44 233.574 1173.45 226 1168M102 1161C104.539 1169.19 106.308 1179.12 116 1180M121 1162L155 1185M456 1213C456.165 1193.02 480.935 1176.18 498 1169M219 1172C214.917 1180.06 205.891 1185.51 201.324 1194C191.281 1212.66 193.716 1237.93 203.876 1256C207.184 1261.89 211.182 1270 218 1272C217.43 1244.37 213.889 1213.19 209 1186M694 1173C700.476 1178.35 715.981 1196.96 714.578 1206C713.563 1212.53 703.819 1220.8 699 1225M205 1174C195.002 1180.83 179.069 1184.6 167 1184M207 1174L209 1179M219 1273C221.977 1282.9 236.78 1282.79 245 1280.98C261.347 1277.39 272.27 1266.02 284 1255.09C288.766 1250.65 294.896 1246.6 298.396 1241C301.697 1235.71 297.369 1230.19 294.157 1226C285.59 1214.82 274.768 1204.84 273.174 1190C272.852 1187 271.544 1178.03 275.318 1176.79C280.423 1175.1 290.375 1181.03 295 1183C300.322 1185.26 305.772 1187.31 311 1189.78C319.027 1193.57 326.541 1199.32 335 1202M107 1179L109 1217L115 1214M356 1217C374.764 1208.69 392.711 1199.18 414 1199M423 1199L420 1207M339 1207C339.029 1217.4 341.051 1227.55 341.001 1238C340.979 1242.41 338.623 1248.8 339.777 1252.91C341.466 1258.92 349.965 1264.16 353.085 1270C357.172 1277.65 356.89 1287.21 360.934 1294.71C366.538 1305.11 375.541 1313.22 380.68 1324C385.188 1333.46 389.662 1343.96 392.657 1354C394.362 1359.72 394.451 1367.83 397.528 1372.86C403.84 1383.17 424.526 1384.47 429.535 1395.26C432.861 1402.43 428.601 1417.22 428.09 1425C427.888 1428.09 428.758 1431.96 426.941 1434.69C424.143 1438.89 416.13 1442 412 1445C410.212 1440.23 409.187 1432.43 402.152 1436.99C396.015 1440.96 404.565 1448.25 398.901 1453.49C378.706 1472.15 354.059 1487.31 331 1502C350.027 1537.87 377.632 1575.05 409 1600.92C419.723 1609.76 433.229 1621.7 447 1625L445 1613M109 1217C101.369 1222.39 92.2075 1224.97 85.0039 1231.21C65.2865 1248.29 59.1443 1269.52 50.7824 1293C47.272 1302.86 39.4488 1317.51 41 1328C59.3734 1317.54 81.3666 1315.32 102 1313.91C107.009 1313.57 117.228 1310.51 121.726 1312.98C124.979 1314.76 126.89 1320.2 129.301 1323C134.002 1328.45 140.306 1333.18 147 1335.91C163.445 1342.61 181.221 1340.07 197 1348.54C229.866 1366.17 262.782 1391.31 284.229 1422C301.891 1447.28 312.805 1477.14 331 1502M359 1217L375 1227M115 1218C115.746 1232.25 108.344 1227.01 99 1232C102.923 1234.8 110.597 1237.13 113.096 1241.27C116.202 1246.42 111.998 1260.8 112 1267C112.006 1282.65 116.788 1296.24 121 1311M116 1220C128.571 1221.85 146.649 1224.15 157 1231.76C166.44 1238.7 171.311 1250.19 182 1255.76C191.414 1260.66 214.153 1270.7 212 1284C199.874 1278.07 191.426 1267.43 182 1258M458 1224L453 1269L466 1268L461 1293C470.559 1287.9 477.361 1279.94 479 1269M114 1230C134.144 1231.57 148.7 1238.38 167 1246M342 1230L346 1231M115 1231L114 1238M300 1233L341 1231M346 1231C346.018 1237.41 346.964 1243.82 348.749 1250C351.646 1260.02 359.067 1266.96 368 1271.82C395.829 1286.97 422.936 1273.69 452 1270M97 1232L99 1232M219 1273C223.806 1267.06 226.405 1259.51 232.093 1254.21C248.167 1239.24 274.643 1232.06 296 1232M697 1232C696.351 1240.22 697.014 1253.57 692.686 1260.78C689.931 1265.36 677.769 1263.78 678.658 1270.05C679.495 1275.96 685.608 1282.89 688.576 1288C696.997 1302.51 705.891 1316.65 714.55 1331C725.926 1349.86 734.404 1370.33 743.863 1390C754.61 1412.35 767.721 1432.23 775.645 1456C790.608 1500.89 803.117 1546.75 816.975 1592C822.894 1611.33 826.274 1637.34 838 1654M115 1242C139.757 1251.37 161.952 1272.96 183 1288.52C205.068 1304.84 231.001 1318.43 256 1329.69C279.279 1340.18 308.014 1339.2 333 1340.91C341.748 1341.51 351.526 1340.52 360 1343.23C372.429 1347.2 381.888 1362.97 394 1369M670 1257L660 1268L678 1267M671 1258L675 1266M660 1268L656 1272L686 1317L652 1316.01L626 1320L654 1273M453 1271C453.005 1279.07 454.958 1283.68 460 1290M453 1284C452.122 1288.04 450.319 1295.68 446.687 1298.11C443.879 1299.99 439.202 1298.87 436 1299.09C426.371 1299.75 414.507 1303.01 405 1300.57C390.844 1296.94 376.991 1285.79 363 1297M453 1292C454.403 1295.6 455.663 1295.79 459 1294L460 1294M460 1294C467.903 1305.89 467.861 1318.01 484 1318M365 1296C372.576 1300.04 391.492 1301.66 400 1300M455 1297L450 1299M454 1299L468 1314M446 1300L439.634 1332.9L455 1346.43L490 1379L529.572 1334.04L548 1312M124 1313C144.477 1306.96 178.503 1322.94 187 1342M439 1336L435 1355C419.262 1345.37 399.938 1334.76 391 1318C408.94 1310.43 423.193 1321.96 437 1332M474 1319L496 1368M485 1319L483 1337M687 1319C689.919 1320.4 696.032 1321.23 696.444 1325.11C697.165 1331.9 689.953 1341.65 687.692 1348C682.354 1363 680.471 1378.41 677.92 1394C669.556 1445.11 668.363 1497.48 671.911 1549C673.288 1569.01 673.874 1595.82 683 1614L691 1577C700.985 1590.88 691.377 1613.36 696 1629C708.134 1618.87 717.001 1602.67 726.371 1590C740.816 1570.47 759.059 1548.08 767.302 1525C780.739 1487.37 766.967 1447.36 754 1412M691 1322L695 1329M39 1328L34 1338M697 1332L727.197 1370L742 1387M387 1342L373 1344L389 1350M365 1345L373 1344M483 1344L475 1365M391 1346L416 1358C408.969 1359.76 400.35 1354.97 394 1352M193 1349C212.801 1396.62 219.117 1453.09 261 1487.92C278.995 1502.88 307.8 1515.84 330 1501M436 1355C434.719 1358.05 432.994 1366.83 434.812 1369.74C437.887 1374.65 459.517 1382.09 464.985 1380.09C470.306 1378.15 472.832 1371.77 475 1367M436 1355L469 1374M417 1360L433 1369M107 1370C94.3707 1376.75 75.8057 1374.51 66 1387C88.2018 1402.81 116.976 1409 140 1424.35C178.824 1450.25 208.832 1494.51 228.778 1536C235.625 1550.24 242.374 1564.28 248.204 1579C250.519 1584.84 254.955 1590.87 252 1597C241.697 1582.53 235.737 1564.93 225.921 1550C209.277 1524.68 185.867 1504.14 160 1488.65C133.851 1472.99 105.086 1464.54 77 1453.31C64.3349 1448.24 50.0758 1444.66 40.0039 1434.96C30.786 1426.08 21.0947 1409.38 25.8789 1396C27.525 1391.4 31.979 1388.93 33.9182 1384.71C36.7659 1378.53 24.6704 1371.41 30.0278 1364.6C33.4744 1360.23 47.0275 1362 52 1362C67.064 1362 83.241 1362.77 98 1365.8C105.336 1367.31 111.411 1371.38 119 1372M1 1366L29 1364M24 1365C20.9149 1376.1 8.8465 1385.92 2 1395M435 1371L431 1392M497 1372L510.109 1398.94L534 1411C531.183 1414.14 529.872 1415.83 531 1420L522 1422C527.671 1439.4 536.919 1455.5 544.702 1472C565.844 1516.81 589.295 1561.38 623 1598M438 1373C442.99 1383.89 453.704 1392.34 455 1405L431 1396M471 1375L484 1384C470.55 1403.69 449.588 1419.79 430 1433M399 1376L409 1435M490 1380L485 1384M490 1380L499 1391L486 1384M499 1391L505 1395M514 1403C514.399 1406.89 520.343 1416.19 517.303 1419.31C514.759 1421.91 507.142 1419.32 504 1418.87C491.277 1417.04 474.004 1414.77 463 1408M456 1406L458 1408M518 1407L529 1417M535 1411L543 1411M459 1412C465.231 1431.16 469.054 1451.26 472.536 1471C473.447 1476.16 470.474 1487.36 473.693 1491.35C476.219 1494.49 482.342 1495.49 486 1496.66C497.778 1500.41 509.687 1502.06 522 1502C525.921 1501.98 537.214 1502.23 538.093 1496.87C538.799 1492.56 532.621 1487.65 529.996 1485C520.629 1475.53 508.727 1469.93 499 1461L513.88 1432L519 1420M528 1416L526 1419M411 1435L421 1436M428 1438L428 1456C433.66 1451.17 435.679 1443.09 441.263 1438.73C448.164 1433.34 457.507 1437.99 465 1439M429 1439L437 1441M439 1442L467 1455M468 1442L499 1462M412 1445C412.056 1451.74 412.09 1459.38 416 1465L427 1456M411 1459L403 1451L411 1445M426 1460C425.956 1480.91 455.687 1483.29 471 1492M472 1461C480.816 1469.74 489.356 1475.16 498 1463M417 1464L424 1469M415 1466L430 1551C422.29 1545.52 419.448 1539.57 426 1532M427 1472C426.865 1485.15 428.125 1497.86 429.089 1511C429.556 1517.37 431.985 1523.49 428 1529M418 1477L424 1480M428 1485C454.257 1494.56 479.007 1508.76 506 1517.02C515.707 1520 530.771 1524.53 540 1519M471 1492L468 1501M467 1504L456.961 1515.11L433 1525M460 1513C465.936 1516.17 473.42 1514.89 480 1516.2C493.355 1518.85 508.128 1523.24 520 1530L504.17 1541.59L490 1555M456 1517C453.371 1534.15 487.017 1541.02 498 1548M533 1522L524 1530L550 1547L520 1555L565 1569.7L582.714 1577.91L598 1570M431 1529L434.257 1547L434.452 1556.7L443 1562.44L470 1578.7L520 1607.06L548 1618L536 1632C540.696 1634.85 546.438 1634.9 550.711 1638.55C557.255 1644.16 564.002 1651.72 569.853 1658.09C572.6 1661.08 573.486 1664.96 577.059 1667.21C592.014 1676.62 613.509 1672.73 630 1676.59C635.418 1677.86 643.288 1683.36 649 1681.6C659.682 1678.3 671.708 1660.19 679 1651.99C681.234 1649.47 686.298 1645.97 687.268 1642.74C689.341 1635.84 683.331 1621.72 683 1614M520 1530L524 1530M2 1531C45.1503 1574.51 47.1573 1646.15 55.5725 1703C57.3561 1715.05 57.2872 1728.49 61 1740M500 1547L520 1555M431 1552L433 1552M493 1554C498.689 1557.04 506.229 1556.78 512 1554M435 1559C436.199 1567.9 437.813 1583.65 443.854 1590.62C450.773 1598.61 462.547 1602.86 471 1609L490 1593M691 1576L691 1577M464 1577L444 1590M474 1578C480.618 1579.21 486.481 1576.81 493 1577.33C510.179 1578.68 527.141 1585.11 543 1591.4C550.242 1594.27 557.852 1596.04 564 1601L583 1579M2 1578C30.3585 1625.11 29.2589 1684.46 57 1732M585 1580C596.693 1593.52 600.414 1599.16 588.325 1614C585.867 1617.02 584.04 1621.76 579.957 1622.83C570.378 1625.36 557.922 1617.84 548 1618M444 1594L445 1597M255 1597C255.501 1608.61 263.926 1621.93 267.666 1633C277.672 1662.62 286.69 1692.03 301 1720M252 1598L254 1600M566 1600C572.03 1604.29 579.264 1606.6 585 1611.33C589.047 1614.67 592.354 1620.82 597.129 1622.99C610.156 1628.9 605.572 1611.02 603 1605M564 1602L551 1616M606 1607L627 1629L607 1623M472 1608C486.73 1619.36 517.33 1631.94 536 1632M470 1609C462.621 1616.06 457.137 1620.16 447 1617M522 1609L542 1627M571 1623L547 1629L559 1639M584 1623L593 1623M580 1624L564 1653M448 1626L448.958 1643.77L427 1654L455 1668.67L505 1700.86L526.999 1717.87L535.246 1725.08L543.015 1720.02L563 1713C560.978 1703.23 556.522 1693.17 557.326 1683C557.685 1678.45 562.553 1667.41 559.932 1663.59C556.762 1658.97 541.322 1657.5 536 1655.66C524.581 1651.69 508.262 1643.07 496 1644.15C488.337 1644.83 479.172 1650.33 472 1653.2C465.443 1655.82 457.719 1657.5 453 1663M610 1626L630 1675M449 1628L477 1639.24L493 1644M544 1634L543 1629L547 1629M628 1630L638 1636M695 1630L688 1640M527 1632L500 1644M695 1636C695 1674.31 698.396 1711.66 707.235 1749C712.08 1769.47 723.184 1791.21 725 1812M476 1639L451 1646L453 1660M688 1646C689.25 1661.84 687.235 1679.88 696 1694M423 1654L427 1654M564 1655L561 1663M563 1663L572 1666M635 1681L640 1691L649 1683M650 1682L672.911 1692.84L690 1714M640 1692L618 1709.85L574 1737L585 1756M640 1692L665.692 1736L682 1763L658 1747.66L610 1717M564 1714C575.107 1707.2 595.366 1710.4 606 1717M564 1714L573 1736M692 1718L692 1719M534 1726L528 1734L553 1738.6L583 1756M537 1726L549 1737M559 1739L571 1737M713 1758L713 1760M714 1762L714 1764M682 1763L693 1774M715 1767L733 1812" transform="translate(-577.122,-226.816) scale(0.942567,0.322881)"/></svg>