<svg xmlns="http://www.w3.org/2000/svg" xmlns:svg="http://www.w3.org/2000/svg" xmlns:sodipodi="http://sodipodi.sourceforge.net/DTD/sodipodi-0.dtd" xmlns:inkscape="http://www.inkscape.org/namespaces/inkscape" xmlns:xlink="http://www.w3.org/1999/xlink" width="210mm" height="297mm" viewBox="0 0 210 297">
  <sodipodi:namedview/><g inkscape:label="Ebene 1" inkscape:groupmode="layer" id="layer1">
    </g>
<path style="fill:none;stroke:#000000;stroke-linecap:round;stroke-width:5.0" d="M259 2L272 2M670 2L672 2M682 2L683 2M651 3L654 3M333 570C320.855 567.495 308.621 564.686 297 560.189C289.897 557.44 282.954 554.238 276 551.139C269.672 548.318 246.96 538.597 252.913 529.093C258.365 520.388 274.868 520.439 284 520.039C307.804 518.997 331.501 527.686 354 534.586C360.784 536.667 375.088 541.036 378.958 547.39C380.386 549.736 379.552 553.363 380 556C389.312 548.905 404.195 537.499 404.907 525C405.571 513.346 392.906 504.707 387.781 495C378.348 477.136 374.281 457.779 371.711 438C364.567 383.025 370.147 328.962 373.91 274C374.981 258.364 374.019 242.621 375.09 227C377.605 190.302 386.107 151.732 400.876 118C403.699 111.551 407.69 104.962 413.015 100.301C418.669 95.3505 425.446 92.2159 432 88.6921C454.272 76.717 489.82 59.0751 510.674 83.0393C518.545 92.0842 520.542 104.641 522.8 116C527.071 137.485 530.634 159.296 533.322 181C535.799 201.005 537.756 221.78 535.83 242C534.429 256.717 528.747 271.407 528 286C531.195 285.676 532.391 285.177 533 282L530 282M1045 693C1056.5 684.226 1069.24 677.135 1077.79 665C1085.76 653.687 1087.7 641.319 1093 629C1097.19 633.475 1095.67 639.304 1096.09 645C1096.55 651.213 1099.81 662.685 1103.92 667.485C1107.36 671.497 1119.71 664.528 1118.96 672.02C1118.38 677.861 1109.23 683.056 1105.8 687.424C1098.58 696.62 1087.71 712.071 1076 715.878C1072.3 717.082 1068.8 713.844 1066 711.859C1058.66 706.651 1048.93 701.394 1045 693C1037.23 695.826 1030.05 699.995 1022 702.254C997.903 709.019 974.179 707.366 950 702.741C928.805 698.686 907.522 692.37 893.599 674C883.185 660.261 880.89 641.405 877.113 625C875.713 618.92 873.417 608.139 866.711 605.643C861.231 603.603 849.836 607.888 844 608.729C827.601 611.093 810.913 614.018 795 618.721C785.649 621.484 773.831 627.129 764 625C781.049 589.019 813.111 563.25 814.961 521C816.766 479.775 797.567 440.635 792.289 400C791.369 392.917 791.099 383.896 793.039 377C794.589 371.493 799.421 363.672 798.622 358C797.259 348.323 790.698 338.766 788.514 329C781.393 297.16 781.928 264.451 794.207 234C805.272 206.558 824.763 176.977 848.001 158.38C858.662 149.848 872.57 143.984 884 136.255C912.53 116.961 938.489 100.702 974 110.781C995.11 116.772 1007.52 134.87 1022.16 149.829C1044.8 172.984 1067.26 190.609 1084 219M416 137C422.982 132.505 428.96 127.624 437 124.695C475.476 110.679 494.082 143.51 527 154M418 137C426.355 141.464 437.779 140 447 140C458.879 140 470.576 141.543 482 144.913C499.966 150.213 513.8 167.314 531 172M842 137C841.53 145.025 843.62 152.767 847 160M832 172C832.007 162.164 833.737 147.25 841 140M531 158C545.461 160.578 552.036 173.005 559.72 184C563.307 189.133 569.076 194.8 570.58 201C571.557 205.028 569.359 209.03 570.392 212.961C571.591 217.524 576.007 220.065 576.786 225C579.454 241.895 571.625 257.078 565.492 272C561.341 282.096 559.396 292.934 554.996 303C551.26 311.547 543.271 319.075 540.862 328C537.373 340.925 541.16 355.007 542.714 368C545.174 388.555 547.807 410.247 545.83 431C539.642 495.981 513.327 558.433 480.452 614C473.52 625.717 468.39 638.841 460.56 650C448.118 667.733 429.744 684.365 413 698C412.642 691.829 419.103 685.191 417.223 679.149C415.996 675.205 410.941 676.528 408 677.239C400.353 679.088 392.15 685.134 384 683.456C374.426 681.485 370.109 672.48 362 668.318C357.777 666.15 351.612 666.772 347 667.089C308.367 669.75 279.719 702.337 241 704M848 161C855.74 175.919 876.128 181.676 890 189.312C923.925 207.987 958.732 223.635 973.746 262C982.775 285.072 980.716 310.607 974.255 334C971.728 343.148 962.915 357.767 963.978 367C964.955 375.493 976.345 384.436 981.24 391C991.617 404.914 1000.91 422.239 1005.7 439C1014.21 468.746 1013.41 499.603 1017.29 530C1022.51 570.961 1036.74 611.897 1060.22 646C1072 663.103 1090.02 673.243 1105 687M178 196C188.732 183.026 203.538 171.938 221 172.03C228.632 172.07 244.17 184.866 242.122 193.682C241.219 197.57 230.868 196.103 228 195.83C220.239 195.092 211.781 193.442 204 194.17C196.075 194.911 185.552 198.608 178 196M831 176C834.993 182.488 836.493 190.281 840.337 197C847.788 210.024 857.159 221.902 864.576 235C876.501 256.061 886.724 278.275 902.44 297C916.649 313.929 932.092 329.781 946 347C950.541 352.622 959.96 360.731 961.402 368C962.558 373.824 955.94 384.788 953.396 390C944.701 407.813 934.678 425.002 926.374 443C924.396 447.287 914.306 463.114 917.133 467.382C919.229 470.549 937.909 468 942 468C960.969 468 988.031 468.719 998.175 488C1007.57 505.854 999.813 528.26 997.289 547C991.508 589.909 993.583 641.476 1034 668M534 177C546.413 181.221 559.808 199.94 568 210M167 207C158.016 211.19 150.852 221.044 145.28 229C133.119 246.362 124.638 264.154 117.319 284C113.013 295.673 108.253 304.352 112 317C117.529 309.824 119.553 300.203 123.309 292C132.852 271.158 142.82 250.123 153.769 230C160.17 218.236 167.25 205.191 178 197M570 217C569.868 232.953 561.763 253.588 566 269M1086 223C1097.53 263.326 1105.19 304.569 1116.42 345C1123.47 370.366 1136.78 400.621 1137 427M836 231C835.002 243.218 829.703 255.11 826.884 267C821.531 289.58 817.089 312.394 811.765 335C808.246 349.946 802.491 368.747 807 384C812.508 376.782 815.488 369.881 825 367.598C832.73 365.743 840.969 368.581 848 371.579C864.983 378.819 895.854 386.251 903.517 405C912.033 425.838 898.178 453.705 898 475L916 468M467 289L527 287C526.117 307.574 522.672 329.577 519.729 350C518.978 355.213 518.745 367.92 513.581 370.883C504.941 375.841 483.939 363.243 476 359.872C462.556 354.162 447.917 349.024 436 340.406C430.85 336.681 425.091 332.105 426.359 325C427.684 317.576 435.736 313.576 440 308L424 303C428.328 296.987 434.8 293.436 441 289.576C459.556 278.024 480.278 274.101 502 276.17C510.389 276.969 518.626 279.635 527 280M534 283L546 286M468 291L477 318L485 305C491.898 311.349 497.779 322.57 498 332L521 329M421 305L423 304M112 317C112 330.153 118.807 331.516 129 338C126.423 340.862 125.028 342.239 126 346L127 346L128 346L129 346M130 338C158.779 310.714 210.687 310.3 242 331M477 318L477 320M198 387C185.539 381.889 175.977 375.162 166 366L177 362C173.881 357.909 171.571 353.574 169.244 349C167.257 345.094 161.43 338.559 162.022 334.04C162.768 328.341 173.433 325.115 178 323.545C198.656 316.44 216.15 326.079 236 329M522 328L541 325M111 329L100.726 377L113.941 406L138.14 460L151 486C156.638 466.925 149.163 442.118 142.997 424C141.038 418.245 139.493 408.536 134.772 404.438C129.241 399.635 119.922 404.527 115 408M498 332C484.865 339.61 469.343 337.296 455 337M131 337L152 353.289L165 365M218 345C210.381 351.266 192.831 363.823 182.147 361.592C177.364 360.593 175.685 344.6 179.603 342.202C184.368 339.287 187.515 347.24 191.209 348.068C194.88 348.89 200.371 345.711 204 344.888C209.37 343.671 214.619 344.601 220 344M162 364L154 367C159.4 373.299 171.78 378.975 180 380M148 366L154 367M806 385C805.929 391.084 802.793 395.252 801.429 401C799.211 410.349 799.447 420.597 801.314 430C809.163 469.528 841.81 503.387 865.575 534C871.998 542.274 876.152 551.401 882 560C887.498 555.42 890.313 542.036 892.667 535C895.437 526.719 897.73 518.326 900.341 510C901.235 507.151 903.857 502.455 903.14 499.455C902.323 496.033 897.288 492.141 895.361 489.039C882.344 468.089 859.971 459.823 844 442C854.078 438.219 877.237 430.796 887 436C880.873 446.612 876.106 454.189 876 467M806 394C809.748 408.299 815.976 431.319 827.495 441.401C836.244 449.059 848.653 450.401 856.671 460.004C872.779 479.297 881.187 519.687 874 544M412 698C405.665 706.383 404.038 716.345 398.25 725C391.794 734.653 384.524 738.429 375 744C390.309 755.671 406.768 745.481 422 741C421.433 767.616 402.577 786.515 387.211 806C377.376 818.47 369.293 831.671 358.246 843.159C351.773 849.891 338.213 867.047 328 866.642C319.145 866.291 310.012 853.282 302 849.248C283.516 839.939 263.198 836.253 244 828.934C237.09 826.3 232.953 820.248 225.999 817.98C211.104 813.121 195.25 813.668 180 810.55C155.818 805.607 132.068 791.197 119.061 770C90.8327 723.997 103.748 668.707 120.003 621C124.873 606.707 131.36 592.876 137.28 579C139.33 574.195 144.019 565.416 142.306 560.093C140.791 555.384 134.062 553.573 130 551.891C116.658 546.367 98.7721 549.628 87.0147 540.467C76.7229 532.448 73.6761 515.04 70.6258 503C68.8967 496.175 61.3224 489.752 60.6073 483.985C59.6942 476.622 64.7449 466.477 67.7816 460C77.4921 439.29 92.546 418.888 113 408M827 442L812 446M834 444L844 442M882 469L897 476L895 484M914 472L905 497M151 488C152.599 498.999 162.623 511.078 167.742 521C186.448 557.266 224.833 613.291 272.995 603.227C282.542 601.232 281.015 580.368 288.39 573.318C294.663 567.321 309.789 571.957 318 568M895 489L890.729 510L886 547M152 493L134 552M904 500C910.18 506.18 928.828 520.331 928.404 530C928.048 538.105 913.804 540.129 916.538 549C919.946 560.06 927.551 569.884 927.957 582C928.064 585.202 928.131 591.026 925.411 593.303C921.984 596.173 915.578 591.324 912 590.539C905.507 589.115 898.776 591.097 893 594C914.767 610.167 947.077 602.373 972 607M875 553L877 571L882 560M133 554C129.849 572.297 118.538 591.895 111.284 609C87.3582 665.42 54.4689 721.739 56.0147 785C56.5366 806.362 62.7238 826.562 68.1157 847C78.5866 886.689 91.4517 925.219 107.573 963C121.781 996.298 137.956 1028.73 152.128 1062C161.903 1084.95 169.674 1109.52 179.856 1132C197.915 1171.87 219.985 1211.61 234.782 1253C249.409 1293.91 249.112 1335.53 253.17 1378C256.044 1408.08 265.96 1436.96 268.83 1467C270.327 1482.66 272.336 1498.31 273.83 1514C274.434 1520.34 273.179 1526.84 275 1533C287.776 1517.16 292.937 1491.79 300.449 1473C320.939 1421.73 336.156 1371.7 348.884 1318C352.825 1301.37 356.103 1284.61 360.13 1268C361.592 1261.97 364.913 1251.12 362.397 1245.13C360.785 1241.29 355.288 1240.07 352 1238.07C346.06 1234.47 340.168 1229.95 336.468 1224C319.755 1197.12 321.369 1164.77 293 1145.22C282.976 1138.31 270.525 1130.21 259 1126.33C245.654 1121.84 229.23 1120.06 218 1111C229.494 1104.87 251.289 1108.98 264 1109.91C306.141 1113 349.677 1118.23 390 1131.67C401.763 1135.59 413.019 1139.98 424 1145.78C428.1 1147.95 434.367 1150.53 436.258 1155.09C439.057 1161.85 435.123 1173.02 434.13 1180C431.082 1201.44 425.874 1222.62 422.438 1244C414.493 1293.45 404.549 1342.17 393.499 1391C387.22 1418.75 381.73 1447.33 371.627 1474C367.006 1486.2 359.385 1498.14 353.745 1510C343.99 1530.51 335.897 1551.95 327.396 1573C324.602 1579.92 321.358 1593.91 314.892 1598.06C300.561 1607.26 283.909 1601.38 271 1592.9C245.104 1575.88 223.917 1552.78 205.629 1528C185.155 1500.26 167.188 1464.83 159.63 1431C154.881 1409.75 156.968 1388.37 154.829 1367C151.955 1338.27 146.459 1308.27 140.338 1280C136.664 1263.03 131.957 1246.24 125.808 1230C123.21 1223.14 121.624 1215.71 116.671 1210.04C109.715 1202.09 91.4281 1195.47 81 1194.22C65.9011 1192.42 35.6686 1203.79 36.588 1222.74C36.8643 1228.44 45.2531 1238.58 47.892 1244C56.9313 1262.57 66.5815 1280.86 74.3966 1300C91.4491 1341.76 110.543 1382.85 126.576 1425C138.608 1456.63 148.015 1492.11 165.91 1521C176.972 1538.86 180.935 1560.9 191.424 1579C195.336 1585.75 199.839 1594.37 207 1598L203 1594M379 556L359 580M885 558L904 589M882 564C892.89 581.123 891 602.608 891 622C891 627.493 888.716 636.829 890.618 641.83C896.804 658.093 920.697 666.536 932.96 676.414C940.134 682.194 943.919 692.462 949 700M877 571L874 583M906 591L910 598M869 604L868 605M1075 608C1084.25 610.121 1093.47 619.326 1094 629M925 671L916 643C924.238 646.016 932.909 655.095 942 654.841C954.416 654.495 967.766 643.826 980 640.899C990.578 638.368 998.952 641.619 1009 644M1137 652L1120 671M1016 655C1018.91 661.237 1021.4 667.114 1029 667M1118 665L1116 667M936 679L970 671.841L1021 667M1025 668L1041 691M1119 674C1127.65 686.703 1123.98 704.493 1124 719C1124 722.879 1122.31 730.875 1124 734M1107 687L1122 700M263 701L314 702.171L365 712.899L387 718.473L405 706M425 733C427.017 724.813 425.702 711.119 430.858 704.279C433.243 701.115 438.072 700.458 438.852 705.059C439.699 710.054 438.341 716.404 436.363 721C433.225 728.29 426.191 732.804 423 740M1126 702L1137 710M953 706C954.87 710.338 958.705 721.664 963.144 723.547C970.715 726.758 985.541 720.811 994 721.015C1020.5 721.653 1048 735.359 1072 717M1076 717C1089.07 727.083 1105.77 729.182 1121 734M1123 733L1120.07 754.168L1137 755M1124 734L1137 735M282 740C306.464 757.384 346.309 752.76 374 744M1012 872L975 889.595L932 921C930.514 914.917 934.192 909.479 936.576 904C942.18 891.117 949.182 879.03 956.4 867C980.158 827.402 1015.19 801.49 1055 779.139C1074.41 768.24 1095.15 756.984 1118 756C1113.33 772.155 1112.06 798.784 1100.49 811.722C1093.83 819.168 1076.93 820.711 1068 825.363C1049.1 835.206 1025.64 853.826 1013 871C1020.62 873.249 1028.26 869.696 1036 872.559C1050.87 878.063 1073.55 902.087 1079.06 917C1081.08 922.448 1073.91 926.027 1071.35 930.039C1066.97 936.895 1059.34 951.551 1050.91 953.817C1046.03 955.128 1038.9 951.924 1034 951M1137 858C1135.96 868.197 1130.54 878.866 1128.13 889C1125.48 900.134 1126.23 912.012 1122.78 923C1120.49 930.281 1114.4 935.155 1111.62 942C1090.5 993.998 1074.85 1045.65 1085.39 1102C1087.94 1115.63 1089.97 1131.86 1097 1144C1102.38 1133.51 1097.4 1113.02 1098.09 1101C1100.27 1062.6 1104.84 1021.29 1100 983M1006 876C988.085 893.915 977.911 916.718 960.911 935C943.156 954.093 917.512 970.844 902.924 992.325C896.428 1001.89 899.615 1016.7 895.536 1026.99C893.796 1031.37 888.467 1034.61 885 1037.58C877.118 1044.33 870.207 1053.74 860 1057C862.433 1046.39 870.576 1036.64 876.848 1028C884.19 1017.89 890.493 1007.24 899 998M931 920C919.204 934.927 921.872 958.653 916 976M1081 921C1085.45 927.138 1098.03 947.353 1092.5 954.79C1087.22 961.896 1073.96 966.685 1066 969.988C1037.56 981.79 1006.35 980.178 977 987.884C964.456 991.178 951.812 994.9 940 1000.31C930.748 1004.54 921.727 1011.14 912 1014L914 983M902 990L891 957C881.085 965.02 874.153 976.407 864 984.536C845.104 999.665 816.589 1002.77 794 995.329C779.864 990.672 766.073 982.18 754 973.573C750.204 970.866 741.121 966.73 744.623 961.011C756.012 942.41 785.277 952.765 802 953.911C832.646 956.009 866.266 954.801 895 942.989C906.794 938.141 915.714 929.369 927 924M1041 952C1048.77 942.464 1058.93 933.476 1071 930M1094 948L1110 944M1055 955C1069.24 955.118 1079.39 953.605 1093 949M1101 949C1093.63 955.797 1097.93 962.077 1098 971M1050 956C1035.15 967.442 1013.31 964.324 1001 981M995 985C991.542 992.759 984.98 999.246 979.899 1006C967.503 1022.48 951.842 1053.76 965.363 1073.88C969.379 1079.85 976.839 1075.31 981 1071.79C989.869 1064.28 997.663 1057.06 1008 1051.46C1012.13 1049.22 1016.34 1046.29 1020.96 1049.02C1035.26 1057.49 1040.82 1082.02 1043.8 1097C1051.02 1133.31 1049.23 1171.84 1042 1208C1039.22 1221.88 1034.72 1240.68 1026 1252C1034.85 1259.21 1036.7 1267.55 1042.2 1277C1053.71 1296.8 1070.37 1319.37 1075.47 1342C1077.13 1349.35 1073.43 1356.74 1075 1364L1137 1348M911 1015C909.342 1020.58 910.39 1026.28 909.714 1032C904.234 1078.45 920.821 1115.08 935.656 1158C946.735 1190.06 952.835 1225.42 956.83 1259C962.618 1307.66 944.819 1359.13 959 1407C971.499 1400.52 979.041 1384.76 985.826 1373C995.307 1356.57 998.404 1338.06 1003.42 1320C1009.66 1297.57 1017.59 1275.69 1026 1254M898 1026L909 1018M896 1031C896.511 1042.91 898.877 1056.94 907 1066M860 1057L857 1060M912 1075C922.397 1085.4 932.982 1094.34 939.208 1108C945.915 1122.72 946.563 1139.09 954.258 1154C967.761 1180.16 980.474 1209.64 1000 1231.99C1007.31 1240.35 1018.01 1244.18 1026 1252M190 1111L218 1111M36 1220C32.5827 1215.52 26.2895 1208.7 25.5486 1203C24.1046 1191.88 41.3633 1178.82 49 1173.29C63.0009 1163.16 78.0005 1162.25 93 1154.73C113.702 1144.35 131.311 1123.6 156 1122.21C162.909 1121.82 169.479 1124.22 176 1126M181 1138C184.381 1152.2 181.67 1168.6 181.039 1183C179.14 1226.39 170.591 1266.76 160.881 1309C157.421 1324.05 161.044 1346.8 154 1360M1097 1144L1106.04 1191L1105 1207C1099.05 1193.56 1099.01 1176.5 1099 1162M35 1226C27.556 1281.28 58.0481 1335.68 80.6914 1385C114.719 1459.12 150.557 1532.85 177.344 1610C186.355 1635.95 199.959 1662.63 204 1690M954 1333C970.972 1336.92 980.666 1355.73 985 1371M847 1752C848.518 1746.73 852.022 1741.68 851.725 1736C851.207 1726.14 840.421 1713.83 833.961 1707C813.102 1684.96 785.373 1675.06 762 1656.2C752.254 1648.33 741.258 1642.78 737.736 1630C731.832 1608.57 755.625 1580.84 764.755 1563C782.783 1527.78 798.724 1487.09 823.45 1456C842.027 1432.64 867.797 1415.4 887.834 1393C895.795 1384.1 904.098 1375.4 911.49 1366C922.386 1352.15 934.463 1333.89 954 1333M1137 1362L1132 1376M1074 1363L1069.91 1399L1066 1427L1093 1404.36L1118.58 1395.8L1129 1380M959 1465L967 1479C959.644 1482.99 950.166 1482.38 942 1483.17C929.037 1484.43 916.061 1487.31 903 1486.99C896.671 1486.83 887.565 1486.72 883 1482C917.275 1471.14 939.049 1438.47 964.089 1414.07C995.61 1383.37 1027.52 1365.92 1072 1365M986 1378L988 1391M989 1396C989.054 1415.5 992.387 1435.68 994.859 1455C995.587 1460.69 995.303 1471.92 999.013 1476.51C1002.22 1480.49 1014.82 1475.5 1019 1474.58C1040.12 1469.88 1059.15 1454.33 1063 1432C1055.01 1435.36 1048.34 1441.06 1040 1443.92C1025.01 1449.06 1010.13 1449.99 997 1460M959 1407L959 1411M1065 1428L1064 1431M159 1437L164.166 1493L167 1521M963 1468C975.414 1470.3 984.14 1466.71 995 1461M998 1477C991.197 1480.63 974.353 1482.24 967 1480M850 1478L883 1482M1000 1479C1002.77 1510.75 1019.98 1544.45 1031.19 1574C1037.25 1590.01 1040.23 1607.3 1047 1623C1052.66 1614.69 1054.17 1603.67 1056.21 1594C1060.43 1574.05 1062 1556.61 1062 1536M969 1483C1003.35 1541.25 1001.16 1607.82 998 1673M275 1534L264 1578M188 1567L205 1592M1062 1583C1062 1617.57 1074.33 1653.71 1070 1688M208 1599L213 1605M1047 1623L1059.77 1662L1070 1686M1047 1628C1034.39 1645.66 1023.39 1661.85 1000 1665M855 1746C860.568 1716.11 864.099 1691.55 891 1673.05C896.375 1669.36 902.995 1667.46 909 1665M1 1718C11.4476 1718.22 12.1022 1723.88 7 1732C9.16234 1733.33 13.5405 1734.4 14.9282 1736.56C19.0863 1743.05 5.47382 1749.87 1 1751M854 1748L854 1752" transform="translate(-577.122,-226.816) scale(0.901713,0.327922)"/></svg>