<svg xmlns="http://www.w3.org/2000/svg" xmlns:svg="http://www.w3.org/2000/svg" xmlns:sodipodi="http://sodipodi.sourceforge.net/DTD/sodipodi-0.dtd" xmlns:inkscape="http://www.inkscape.org/namespaces/inkscape" xmlns:xlink="http://www.w3.org/1999/xlink" width="210mm" height="297mm" viewBox="0 0 210 297">
  <sodipodi:namedview/><g inkscape:label="Ebene 1" inkscape:groupmode="layer" id="layer1">
    </g>
<path style="fill:none;stroke:#000000;stroke-linecap:round;stroke-width:5.0" d="M1096 5L1096 6M1095 16L1096 16M1095 102L1096 102M279 283C247.623 254.363 205.669 255.909 167 247.661C158.212 245.787 145.562 247.308 138 243C159.011 195.601 205.19 146.693 260 140.17C296.683 135.804 353.074 146.737 347.826 195C346.516 207.054 337.325 216.747 330.373 226C312.429 249.887 290.168 281.083 262 292.994C254.182 296.3 244.398 300.717 236 301.863C231.647 302.456 223.067 301.583 219.708 304.988C217.723 307.002 219.972 310.132 221 312L236 304M1095 140L1096 140M815 625C808.884 629.691 798.573 629.614 791 630.036C767.866 631.324 750.753 627.662 730 616.886C712.315 607.702 694.358 597.093 680.171 582.83C671.561 574.175 665.626 563.008 658.806 553C644.698 532.301 632.94 513.71 622.219 491C615.382 476.517 605.083 463.937 601.514 448C599.039 436.952 602.293 426.917 603.711 416C605.537 401.936 606.233 384.954 603.533 371C600.196 353.754 583.731 344.786 571 335.101C566.698 331.828 557.123 325.347 559.064 319C560.859 313.133 566.828 308.179 571 304C580.386 294.599 590.299 286.014 600 276.975C647.129 233.064 702.116 206.396 759 177.752C780.977 166.686 811.017 146.344 836 158.569C847.895 164.389 847.037 175.256 850.209 186C853.245 196.283 858.932 205.637 861.845 216C864.514 225.496 864.212 235.654 867 245C874.981 238.941 895.122 217.485 905.297 231.109C910.914 238.629 908.959 249.563 907.424 258C903.231 281.054 891.51 302.416 885.295 325C881.622 338.346 882.849 352.372 881.911 366C881.54 371.377 877.949 377.843 878.764 383C880.834 396.104 887.65 408.339 887.985 422C888.594 446.762 875.091 467.252 870.379 491C867.1 507.526 870.628 524.717 864.871 541C860.204 554.202 855.394 567.45 846.96 578.985C836.719 592.99 821.281 608.76 815 625C832.946 631.095 846.56 604.165 839 590M1095 161L1095 162M152 166C149.094 174.385 140.055 181.914 134.654 189C123.083 204.182 112.998 220.808 104.706 238C101.405 244.845 97.0768 252.286 96.3403 260C95.4237 269.599 102.478 281.769 105.011 291C106.924 297.973 108.593 314.452 114 319M836 195C843.634 207.471 851.068 219.82 857.424 233C859.523 237.351 861.415 245.419 867 245M1095 199L1096 199M83 323C91.5162 324.587 98.206 325.52 106 321C93.604 302.421 78.4035 278.997 77.0934 256C75.9754 236.376 87.5081 225.044 106 233M108 232C115.315 238.586 123.484 242.869 128.179 252C140.329 275.628 127.849 311.728 119.996 335C117.067 343.681 114.092 352.392 110.947 361C109.742 364.298 106.768 369.204 107.788 372.815C109.903 380.301 127.574 388.245 134 392M865 247C853.058 266.176 837.837 282.862 829.012 304C826.089 311 821.055 319.28 823 327C835.378 318.912 854.423 314.435 863.351 301.985C872.435 289.317 866.591 264.702 866 250M867 257C877.648 268.863 883.394 294.513 879.243 310C877.475 316.597 864.198 332.575 872 337M281 283C306.427 303.493 327.008 319.903 339.861 351C342.906 358.367 348.496 367.796 347.66 376C345.775 394.49 329.409 415.047 319.33 430C306.466 449.087 293.504 470.481 276 485.711C263.622 496.48 248.045 503.727 233 509.988C219.499 515.607 202.565 522.61 188 516.931C175.047 511.88 160.319 497.878 152 487C164.44 480.327 214.819 474.598 193 451L217 434C205.723 429.001 193.48 426.035 183 419.302C177.151 415.544 170.574 409.182 163 411.704C151.185 415.638 142.876 430.208 132 436.596C127.817 439.053 119.966 433.46 118.118 435.712C116.353 437.864 118.655 442.75 119.29 445C121 451.063 123.035 458.224 120 464C96.2437 434.528 89.6486 392.937 102.586 357C105.27 349.546 117.35 324.445 106 321M1095 285L1095 286M1095 301L1095 302M220 311C213.367 315.776 200.674 316.671 193 314C198.596 307.588 209.813 305.669 218 305M226 311L238.981 317.353L246.414 311.241L256 315M221 313L227 322M226 313L224 317M185 316L192 315M254 315C240.826 323.783 222.13 331.743 212 344C225.696 348.05 246.86 348.695 261 346.497C273.083 344.618 283.407 339.008 296 339M112 319L110 321M96 327C104.849 335.521 95.8089 352.88 93.1559 363C90.5852 372.806 90.7811 383.008 89.8302 393C88.1911 410.225 84.4925 425.675 88.0039 443C100.224 503.296 146.851 550.467 152.83 613C158.415 671.41 141.7 731.754 131.75 789C128.947 805.129 122.139 820.161 122 837C129.975 834.755 132.949 826.063 135.799 819C142.551 802.268 147.105 784.725 153.858 768C170.276 727.336 190.043 689.126 211.719 651C223.442 630.38 233.883 607.988 251.41 591.455C266.283 577.426 278.94 559.895 292.08 544C295.795 539.507 305.561 530.312 305.379 524.109C305.244 519.523 297.293 519.044 294 519.129C283.826 519.392 269.286 526.145 262.361 533.609C259.145 537.075 262.62 543.82 263.046 548C264.138 558.7 261.141 568.656 259 579M740 435C755.719 434.315 771.204 424.631 786 419.851C797.485 416.141 811.982 415.583 824 416C822.232 393.782 820 372.529 820 350C820 344.072 817.449 331.376 823 328M815 330L818 329M824 329L855 336.247L864.802 338.357L864 358C853.975 358 849.395 360.137 844 351L838 358C826.69 341.094 843.341 343.146 854 337M868 335L866 337M201 346L211 345M257 347C251.816 356.135 232.739 360.169 223 361.075C205.523 362.701 187.335 360.731 170 363.439C151.532 366.324 134.682 374.639 116 377M838 358L838 360M865 359C865.011 373.232 873.018 387.752 875.536 402C879.998 427.242 873.922 447.273 863.167 470C859.635 477.462 856.399 489.347 849.815 494.643C845.875 497.812 840.416 495.129 836 494.439C827.261 493.074 817.831 494 809 494C777.95 494 748.521 506.742 718 510M864 369C857.253 383.178 836.207 392.83 822 398M790 418C797.752 411.63 810.391 403.828 820 401M218 435L221 434M189 452C178.216 454.791 168.185 459.001 157 459C153.884 459 147.962 460.002 146.122 456.683C143.009 451.068 152.144 447.093 156 446.029C172.125 441.582 178.659 446.136 193 451M721 509C739.486 491.359 769.975 466.306 797 470.301C806.485 471.703 812.388 480.339 821 482.441C827.797 484.101 829.239 474.902 834.31 473.346C841.378 471.176 844.775 491.615 845 496M850 498C868.928 504.619 851.911 533.708 845 545L861 545M253 524L260 536M324 771L327 780C329.179 772.32 322.288 767.372 321.044 760C317.455 738.728 312.116 714.581 314.17 693C316.706 666.35 323.647 639.79 333.861 615C337.764 605.528 342.086 596.301 346.374 587C347.964 583.552 351.431 578.926 351.292 575.015C351.144 570.853 346.048 568.585 343 566.684C335.932 562.278 329.225 559.584 321 558.424C317.282 557.9 311.142 558.293 308.789 554.697C306.685 551.482 309.778 546.739 311.468 544C320.531 529.322 330.936 529.655 346 529.946C353.987 530.1 360.106 529.15 368 531.749C393.833 540.254 407.597 565.154 412.715 590C418.196 616.613 412.404 645.914 407.003 672C398.923 711.024 388.203 750.292 384.169 790C382.102 810.341 380.485 830.621 379.09 851C378.501 859.592 381.149 870.226 377 878C371.43 866.427 373.635 846.745 373.95 834C374.729 802.456 376.665 772.271 381.272 741C383.061 728.855 386.216 717.064 388.245 705C388.761 701.936 390.913 695.344 388.933 692.603C386.346 689.024 376.635 691.245 373 691.718C361.62 693.201 334.087 702.436 334.228 717C334.502 745.156 344.975 773.738 346.91 802C349.864 845.135 352.698 887.987 357.845 931C359.852 947.774 359.17 966.812 364 983L377 964C379.446 972.276 372.246 991.034 378.603 997.258C382.424 1001 392.03 998.68 397 999.619C407.753 1001.65 433.161 1011.91 437.637 1022C450.031 1049.94 445.212 1079.95 446.441 1109C446.791 1117.26 450.112 1125.4 449.946 1134C449.762 1143.51 445.411 1153.6 447 1163C455.693 1155.94 458.067 1136.61 460.424 1126C467.26 1095.22 475.028 1064.65 481.989 1034C484.497 1022.96 488.893 1002.72 475.996 996.179C463.092 989.636 443.521 1004.72 435 1013.01C405.999 1041.26 375.941 1071.96 356 1107M757 552L785 556.832L820 550.08L845 546M840 550C829.122 559.764 801.928 565.533 789 557M840 584C838.83 569.865 847.896 558.822 859 551M2 579C9.06625 574.326 21.7092 559.46 30.9414 560.647C38.6804 561.643 32.5572 578.396 31.75 583C28.6229 600.834 20.3975 613.998 1 614M255 591C254.149 600.751 249.694 610.721 246.67 620C239.303 642.602 229.921 664.455 222.333 687C219.423 695.645 208.867 714.313 214.603 722.96C219.911 730.961 232.466 734.957 241 738.192C266.5 747.858 294.822 745.888 319 760M726 685L697.714 647L681 623C695.621 618.678 708.457 624.006 720 632.626C723.745 635.423 729.429 638.147 730.682 643.015C734.307 657.096 724.954 672.657 727.545 686C728.957 693.275 736.974 701.02 741.115 707C747.119 715.67 750.257 725.855 757 734L786.259 671L811 629M727 687C718.667 698.715 713.839 713.485 706.576 726C691.69 751.649 673.648 776.828 669.3 807C667.962 816.288 669.555 825.747 669.961 835C671.074 860.431 673.417 885.643 675.83 911C678.184 935.733 675.274 965.591 684 989M1 810L72 871.17L107 905C112.648 892.579 101.311 869.126 99.2747 856C92.8139 814.36 91.3341 774.032 95.8341 732C97.055 720.596 97.3434 698.24 106 690L108.615 729L126.363 774L127 801M327 781L332 798M629 801C627.863 815.409 621.831 826.266 618.375 840C612.697 862.566 608.683 887.752 607.089 911C603.46 963.955 629.747 1014.43 653.514 1060C662.708 1077.63 670.607 1097.56 686 1111M626 820C629.339 826.256 627.845 834.077 628.015 841C628.232 849.873 629.494 859.408 631.756 868C638.142 892.258 653.538 912.418 663.78 935C669.617 947.869 671.79 963.367 680 975M336 828C342.651 850.293 332.535 874.607 326.884 896C320.656 919.577 318.632 943.086 314.754 967C312.328 981.958 310.98 999.823 301 1012C298.301 1002.87 300.915 990.308 302.41 981C305.78 960.022 311.338 939.771 315.486 919C318.168 905.57 302.103 895.871 302.717 882C303.02 875.154 310.277 868.238 314.079 863C322.154 851.877 327.251 838.569 336 828M122 837C117.8 843.855 118.636 852.24 117.715 860C115.212 881.072 116.354 901.924 114.91 923C114.509 928.862 114.359 935.29 112.957 941C112.41 943.228 110.003 947.159 111.241 949.397C112.754 952.132 119.395 950.951 122 951.289C130.632 952.411 141.024 954.956 147.999 960.394C164.577 973.317 155.095 992.656 157 1010C169.515 1000.44 179.001 984.903 197 986.326C210.505 987.393 219.535 996.823 225.985 1008C237.663 1028.24 243.447 1052.27 247.803 1075C249.43 1083.49 253.368 1095.41 251.712 1104C250.143 1112.14 236.534 1127.69 229 1130.72C219.85 1134.39 208.052 1117.39 202.83 1112.09C193.23 1102.35 179.54 1098.72 168 1092.13C155.726 1085.11 145.294 1074.66 135 1065.09C113.957 1045.53 76.7207 1020.24 46 1024.3C30.5603 1026.35 17.153 1036.53 2 1040M689 852C702.279 864.232 701.009 873.148 703.428 890C704.177 895.211 707.844 901.839 706.471 907C703.412 918.501 688.911 928.408 678 931M702 865C709.56 868.6 714.029 878.148 718.414 885C730.139 903.324 739.863 922.85 745.371 944C750.029 961.884 755.634 978.355 756.911 997C759.921 1040.96 749.348 1085.52 740.014 1128C735.641 1147.9 733.071 1168.05 729.004 1188C724.751 1208.86 722.738 1230.09 718.804 1251C717.329 1258.84 717.842 1267.91 714 1275C704.319 1256.86 722.401 1230.76 716.196 1211C713.146 1201.29 697.798 1191.3 689 1187C684.626 1184.86 679.695 1184.84 676.314 1180.89C668.091 1171.29 673.518 1145.06 673 1133M377 878L380 951M616 973C624.998 959.836 628.628 944.418 644 936.328C649 933.697 654.599 933.331 660 932M664 933L677 932M364 983C361.952 994.024 356.977 1003.31 353.721 1014C344.695 1043.64 335.397 1073.22 326.859 1103C322.788 1117.2 314.88 1136.24 316.058 1151C316.61 1157.91 320.725 1165.09 322.237 1172C325.214 1185.61 327.057 1199.73 335.07 1211.87C341.221 1221.19 349.011 1229.32 355 1239M364 995C364 1012.31 366.097 1029.67 364.91 1047C364.011 1060.14 359.79 1078.29 363 1091M156 1011C153.238 1029.57 151.687 1055.02 141 1071M301 1013C289.328 1044.1 270.891 1073.36 254 1102M128 1059C137.119 1046.19 141.709 1027.18 154 1017M300 1024C300 1053.17 302.359 1082.32 308.001 1111C309.993 1121.12 310.987 1133.96 316 1143M128 1061C122.327 1074.83 116.958 1088.65 112.721 1103C111.717 1106.4 108.484 1115.23 111.042 1118.36C114.586 1122.69 122.18 1114.49 124.076 1111.99C131.96 1101.56 137.998 1085.67 141 1073M54 1075C63.3776 1088.03 82.8741 1092.53 90.8603 1107C99.2552 1122.21 93.5028 1143.84 103.278 1158.77C107.325 1164.95 125.697 1159.07 126.353 1167.06C126.716 1171.47 122.76 1176.34 120.769 1180C114.146 1192.18 104.874 1201.81 97 1213C106.75 1218.28 120.217 1219.56 131 1221.88C149.509 1225.87 174.027 1232.47 191 1241C192.955 1238.05 197.206 1230.11 193.393 1227.03C190.14 1224.4 181.954 1226.08 178 1225.99C165.607 1225.68 153.426 1222.1 141 1222M61 1084C62.4702 1095.24 70.5092 1108.18 74.5748 1119C80.1592 1133.86 83.2674 1152.17 83.9606 1168C85.7542 1208.96 80.2351 1249.37 69.8457 1289C64.1037 1310.9 53.2805 1333.79 50 1356C54.0606 1355.83 61.2475 1356.15 64.7222 1353.97C67.7834 1352.05 68.7887 1347.09 70.2554 1344C74.4982 1335.05 78.6286 1326.03 82.6883 1317C84.7049 1312.51 86.3126 1302.31 91.3256 1300.18C97.5831 1297.51 105.222 1316.77 107.219 1321C113.487 1334.27 119.636 1348.35 121.715 1363C123.386 1374.78 121.686 1388.79 125 1400C134.577 1391.58 139.161 1368 143.811 1356C154.252 1329.05 165.921 1302.67 177.012 1276C181.677 1264.78 189.189 1253.09 191 1241M366 1104C362.493 1113.36 363.083 1125.05 361.844 1135C359.207 1156.19 355.329 1176.54 358.181 1198C359.01 1204.24 362.352 1209.82 363.539 1216C366.505 1231.43 368 1246.31 368 1262M251 1107C255.351 1115.15 253.216 1126.94 254.285 1136C257.43 1162.65 258.32 1189.42 262.59 1216C263.747 1223.21 270.482 1244.71 264.552 1250.3C259.692 1254.88 249.907 1252.99 244 1252.29C226.425 1250.18 210 1245.83 193 1241M446 1112C438.103 1124.72 434.139 1148.09 434.455 1163C434.618 1170.69 438.183 1181.7 429 1185L434 1164M1 1129C17.6693 1145.81 23.8974 1166.19 27.5617 1189C28.8067 1196.75 25.9354 1214.25 30.7693 1220.35C33.0441 1223.22 38.6641 1224.11 42 1225.12C57.0186 1229.66 67.3701 1225.52 82 1223M316 1155C311.36 1163.09 316.616 1172.33 322 1179M448 1163L440.576 1188L429 1217M437 1179L442 1176M673 1181C673 1195.29 671.791 1209.81 672.034 1224C672.096 1227.64 675.419 1231.36 674.968 1234.7C674.656 1237.02 671.505 1237.99 670.603 1240.14C669.368 1243.09 670.128 1246.88 669.83 1250C669.293 1255.65 665.934 1271.82 670.603 1276.06C679.098 1283.78 702.44 1280 713 1280C712.939 1287.34 706.451 1301.67 709.846 1307.99C720.032 1326.92 751.593 1328.91 770 1331.43C777.49 1332.45 786.65 1335.11 794 1333C782.937 1323.25 753.255 1323 739 1323M435 1185L435 1199M428 1186C423.81 1197.49 423.617 1210.46 414.895 1220C407.905 1227.64 398.814 1229.58 391.529 1220.91C384.114 1212.08 385.651 1200.22 380 1191C373.599 1194.47 365.041 1188.61 358 1188M381 1188L381 1190M384 1195L426 1190M714 1275C717.464 1281.26 725.44 1277.49 731 1275.86C746.292 1271.36 761.22 1264.13 774 1254.56C802.86 1232.94 827.083 1194.94 866 1191.17C898.381 1188.04 941.428 1228.77 928.867 1263C925.739 1271.52 917.378 1277.08 911 1283.02C897.642 1295.47 885.424 1311.01 871 1322C870.594 1315.68 875.532 1309.28 873.142 1303C858.977 1265.78 813.32 1252.2 779 1265.8C771.544 1268.75 762.376 1270.73 757 1277C770.445 1280.97 787.314 1277.2 801 1275.83C807.793 1275.15 818.945 1274.09 824.682 1278.84C828.69 1282.16 826.007 1290.43 826 1295C825.975 1310.33 830.687 1324.9 831 1340L821 1340C823.829 1343.29 832.631 1347.97 831 1340M377 1194L371.59 1223L368 1238M2 1201C9.19054 1208.04 18.9637 1216.7 29 1219M97 1213C94.7587 1221.58 110.909 1221.7 116 1219M84 1220L95 1215M335 1215C335.001 1226.48 340.975 1231.02 351 1236M30 1221C30 1256.86 28.3594 1293.24 25.9105 1329C24.7204 1346.38 20.1518 1364.57 33 1378C37.1418 1370.92 37.9855 1361.54 47 1359C46.087 1369.46 40.6986 1380.21 37.0502 1390C29.7369 1409.62 23.2799 1430.26 12 1448M671 1230L671 1236M643 1237L644 1242L670 1239M643 1243L646.833 1263L650.049 1319L649 1351L705 1347C699.041 1334.33 682.593 1336.52 671 1333.25C662.99 1330.99 657.74 1325.74 652 1320M647 1256C654.211 1258.26 656.602 1270.56 659.201 1277C664.352 1289.78 670.323 1302.34 677.681 1314C682.224 1321.2 688.943 1328.1 692 1336M715 1278L713 1280M753 1278L756 1278M1 1289C2.79911 1311.8 10.6694 1340.09 22 1360M702 1301L708 1306M914 1319L892 1352L889 1343C883.584 1347.28 881.216 1354.87 878.258 1361C869.912 1378.3 864.13 1397.19 860.611 1416C858.786 1425.76 858.116 1441.41 850 1448L843.701 1408L834 1348C854.367 1349.12 845.72 1385.36 866 1391M869 1323L861 1332M833 1342C839.424 1342 846.77 1342.98 853 1341.21C865.392 1337.69 878.167 1327.43 889 1340C893.383 1334.98 897.144 1329.38 904 1328M794 1332L821 1340M742 1337C735.62 1351.24 737.6 1369.65 735.714 1385C733.057 1406.62 726.557 1425.54 721 1446M889 1340L889 1343M703 1342L720 1346.88L738 1345M705 1346C709.329 1348.31 712.671 1348.31 717 1346M833 1346L833 1347M122 1419C122.712 1423.49 121.684 1427.58 120.8 1432C119.459 1438.7 118.383 1446.58 113.61 1451.86C105.312 1461.04 87.3856 1461.04 76 1461C70.1182 1460.98 46.0237 1462.51 44.3333 1455.87C42.6442 1449.22 49.5906 1440.19 51.5756 1434C58.8122 1411.45 66.3291 1388.64 76.0255 1367C78.8849 1360.62 85.5912 1344.34 95 1348.5C115.063 1357.38 117.194 1392.78 114.246 1411C112.976 1418.85 109.675 1428.14 111 1436C119.766 1428.88 124.132 1410.91 125 1400M719 1348L722.825 1405L722 1441M732 1348C742.974 1355.25 758.08 1351.19 770 1355.6C780.431 1359.47 787.674 1373.53 796 1380.56C802.067 1385.68 812.443 1389.39 817.262 1395.39C821.084 1400.15 821.037 1409.22 822.475 1415C826.443 1430.95 831.45 1456.37 845 1467C849.037 1461.91 852.456 1455.84 859 1454C857.254 1460.05 853.441 1469.42 846 1466M687 1349L676.45 1380L670 1414L665.718 1390L659 1350M892 1352L899.335 1388L911.679 1442L920 1461L882.83 1448.34L867 1445C872.876 1438.68 880.256 1437.8 883 1447M66 1354L72 1357M50 1356L47 1359M892 1358L877 1400L868 1393M25 1369C22.1174 1374.4 23.3933 1380.08 22.8302 1386C21.5638 1399.31 15.7651 1419.2 19 1432M915 1447C920.203 1437.25 915.304 1423.24 913.389 1413C912.616 1408.87 910.548 1402.37 912.603 1398.33C914.676 1394.27 922.142 1398.47 925 1399.6C934.383 1403.32 955.932 1407.2 959.673 1418C961.081 1422.07 956.487 1425.48 954 1428C948.97 1433.09 939.561 1441.51 938.393 1449C937.647 1453.78 944.112 1457.86 946.857 1461C956.099 1471.57 971.709 1487.72 986 1491C984.343 1480.26 972.443 1472.23 962 1474M877 1400L873 1417M670 1414L672 1443M909 1426L914 1429M918 1434C923.834 1436.67 935.129 1444.87 935.496 1452C935.69 1455.76 929.239 1463.86 932.697 1466.97C935.284 1469.3 945.351 1467.71 949 1468M111 1436L107 1455M867 1446L859 1454M886 1451C887.058 1458.17 890.239 1464.85 891.537 1472C893.88 1484.91 893.673 1498.92 894.015 1512C894.166 1517.8 897.645 1528.95 892.436 1533.53C887.709 1537.69 879.429 1524.12 877.204 1521C869.008 1509.51 861.183 1497.9 853.565 1486C849.577 1479.77 844.688 1474.64 844 1467M104 1459C102.836 1472.34 95.0139 1485.85 88.0502 1497C74.7045 1518.36 58.9833 1539.34 41 1557M920 1461C923.362 1464.35 926.055 1468.25 931 1467M986 1491L990 1494M1019 1699L1044.4 1703.03L1045.58 1714L1044 1742M1084 1708C1076.68 1717.6 1069.94 1729.61 1069.1 1742C1068.69 1748 1071.56 1755.58 1079 1753.28C1092.38 1749.15 1095.52 1727.12 1078 1738M162 1721L158 1729C161.08 1730.48 166.039 1730.57 168.254 1733.32C174.769 1741.4 161.441 1750.45 155 1752M1028 1728C1037.73 1729.44 1046.83 1734.42 1057 1731.35C1063.45 1729.41 1067.95 1723.7 1074 1721M36 1723C36.0852 1733.29 35.9467 1747.88 41 1757M149 1724L159 1724M183 1757C187.697 1747.57 198.482 1727.54 208 1723M226 1753C224.128 1742.92 220.732 1725.09 234 1724M217 1728L225 1726M125 1731C127.142 1730.79 132.333 1728.75 133.928 1730.71C136.458 1733.81 130.954 1739.58 130.927 1743C130.835 1754.38 144.119 1748.22 149 1745M79 1731C79 1736.55 76.1408 1753.13 84 1753M90 1734L93 1755M1040 1736L1043 1737M1 1738C3.33698 1745.03 9.72393 1739.17 14 1737C15.2222 1741.14 13.3656 1747.05 15.4074 1750.68C19.081 1757.21 27.8564 1747.02 30 1744M54 1743L67 1739M103 1746L114 1744" transform="translate(-577.122,-226.816) scale(0.919941,0.33097)"/></svg>