<svg xmlns="http://www.w3.org/2000/svg" xmlns:svg="http://www.w3.org/2000/svg" xmlns:sodipodi="http://sodipodi.sourceforge.net/DTD/sodipodi-0.dtd" xmlns:inkscape="http://www.inkscape.org/namespaces/inkscape" xmlns:xlink="http://www.w3.org/1999/xlink" width="210mm" height="297mm" viewBox="0 0 210 297">
  <sodipodi:namedview/><g inkscape:label="Ebene 1" inkscape:groupmode="layer" id="layer1">
    </g>
<path style="fill:none;stroke:#000000;stroke-linecap:round;stroke-width:5.0" d="M589 137C588.943 116.471 579.045 96.811 584 76C572.703 77.1654 568.853 88.0603 567.925 98C566.194 116.546 566.943 144.779 579 160C592.806 142.085 604.625 109.822 599.9 87C598.542 80.4371 586.573 76.4371 586.832 71.8673C587.064 67.7631 592.211 63.6766 595.001 61.1736C604.148 52.9656 614.698 45.8452 626 41M762 100C761.615 93.7319 758.304 89.6449 757.273 83.9105C756.31 78.5514 758.518 75.0063 754.387 70.213C745.673 60.1045 718.999 61.1044 707 63.3395C698.079 65.0012 679.789 72.2556 672.272 63.8518C663.937 54.5322 683.834 47.9706 690 47.1589C710.502 44.4602 734.167 48.2318 753 57L750 60L751 61C780.847 67.2662 808.553 116.362 790.161 145C778.542 163.092 754.749 169.773 737.714 180.924C703.229 203.5 668.914 230.766 647 266L659 266M296 160C291.591 157.19 281.367 152.51 280.221 146.812C279.23 141.877 284.022 136.502 286.807 133C295.378 122.22 305.087 112.147 316 103.765C326.704 95.5425 335.446 84.2426 347 77.3093C368.176 64.6021 394.164 62.1071 418 58.6998C428.739 57.1647 437.872 53.1215 449 54.0941C466.969 55.6646 444.874 72.9026 439.055 76.6018C436.984 77.9182 433.757 79.6946 435.792 82.5887C437.749 85.371 442.992 86.0632 446 87.1929C454.379 90.3394 463.334 92.4812 471 97.2716C486.089 106.7 493.608 124.099 507 135L507 93C542.815 97.8274 534.468 154.576 532.104 180C530.475 197.522 539.616 215.122 536.195 233C533.623 246.443 528.983 260.674 523.019 273C518.628 282.076 512.392 290.759 511.058 301C508.412 321.311 512.925 342.82 510.867 363C510.017 371.335 506.412 380.944 503.961 389C502.183 394.84 499.927 401.676 494.957 405.57C492.256 407.687 484.894 407.926 483.788 411.314C481.901 417.089 488.611 428.377 490.279 434C494.779 449.164 502.319 475.624 497 491C491.436 484.21 489.982 475.324 485.15 468.015C472.993 449.624 454.223 429.261 437 415.514C428.754 408.932 418.034 404.134 408 400.88C404.275 399.673 395.867 397.036 394.557 392.856C392.938 387.692 399.833 380.51 402.755 377C406.659 372.311 409.564 366.842 413.394 362.286C420.962 353.281 438.991 343.225 429.272 329.044C422.261 318.814 401.713 321.604 391 319.331C375.878 316.123 362.541 304.708 353 293C356.548 289.523 360.788 286.426 363.175 281.985C374.147 261.579 377.009 218.449 352.985 205.836C342.261 200.205 327.63 197.405 316 193.671C313.145 192.754 304.978 190.024 304.06 195.015C303.418 198.507 317.148 202.827 319.741 205.314C327.965 213.201 330 223.105 330 234L324 235C327.973 239.372 329.286 236.188 334.039 235.402C337.918 234.76 342.965 237.615 346.501 235.111C360.112 225.471 336.34 206.389 325 211M673 64C680.735 57.8201 691.499 58 701 58C717.826 58 733.276 57.8751 750 60M753 57L758 60M673 65C666.139 71.0977 656.893 71.2043 649 75.6768C632.142 85.229 625.522 99.6853 621.801 118C620.292 125.427 616.251 136.551 623.228 142.486C634.373 151.968 672.763 138.052 674.752 161C676.003 175.426 650.366 183.589 645 195C653.829 197.586 664.202 192.097 672 188.136C674.054 187.092 680.904 184.498 679.654 181.228C678.501 178.211 668.144 179.676 665 178M702 66C709.629 70.0713 721.386 68.1418 730 69.1698C740.206 70.3877 748.429 75.3917 756 82M769 70L758 74M443 75C452.268 77.7396 463.579 76.4618 473 74.9197C478.312 74.05 485.814 71.8569 490.961 74.01C497.401 76.7043 501.342 84.4768 505 90C491.598 97.7745 492.016 100.28 494 115M711 73L712 73M586 74L584 76M719 74L720 74M724 74L730 74M425 79L431 83C427.701 87.3303 423.937 91.2019 420 94.9607C415.84 98.9316 407.92 107.557 402.001 108.258C390.763 109.588 395.537 90.7834 399.498 86.3295C405.717 79.3367 425.198 75.6293 434 77M431 83L433 83M404 171C400.865 178.527 395.616 185.296 392.987 193C390.259 200.992 391.008 211.22 384 217L384 189L368 206C367.406 196.746 374.212 186.713 378.731 179C380.413 176.128 384.79 171.708 384.118 168.134C383.533 165.022 379.588 164.32 377 164.094C368.859 163.382 360.97 164.645 353.059 161.775C345.252 158.944 352.752 148.641 347.682 143.394C340.134 135.581 328.181 138.714 319 136C330.002 106.981 368.706 87.5576 398 85M756 87C753.349 93.5583 753.846 96.0157 761 98M505 91L507 93M753 95C744.555 105.731 766.387 110.697 756.851 121.999C749.641 130.545 741.199 132.068 732 136.881C721.934 142.147 713.967 146.296 703 149.806C694.107 152.651 684.371 153.963 677 160M734 135C734.705 132.852 735.713 131.056 736.62 128.996C742.382 115.922 724.859 129.246 722 130.588C717.828 132.546 714.143 129.2 710.188 130.542C706.707 131.724 704.948 137.177 703 140C699.875 135.298 691.883 125.027 692.902 119.089C693.787 113.931 701.894 110.974 706 109.139C717.552 103.975 737.354 93.2632 750 97M738 99L748 103M746 103L737.701 115.862L721 116.039L695 123M697 115L703 117M735 118L735 121M693 122L684 124L691 118M495 125L500.167 179L508 237M702 139C694.04 142.905 680.624 136.957 674 132L683 125M718 134L705 140M508 136L521.921 159L532 178M835 136C805.089 237.157 715.562 318.519 707 427M286 150L303 140.071L318 137M314 138C312.439 144.642 307.42 150.161 304.012 156C297.224 167.627 287.359 184.769 285 198L303 197M508 143L506 201M765 167C787.8 173.551 809.667 149.663 830 145M587 146C590.96 153.721 585.312 164.198 587.39 173C590.279 185.24 604.514 192.714 603.682 205.981C603.379 210.818 598.257 210.325 596.603 214.147C594.185 219.737 594.302 233.254 596 239C610.047 234.243 632.772 230.162 643 243L647 239L641 239M276 148L279 148M716 148L693 165C710.44 172.504 731.482 170 750 170M545 150L578 166L579 160M560 152L572 153M573 156L571 162M679 159L693 163M569 164C569.052 182.873 579.913 197.835 596 207L598 194M578 166L574 180M723 174L738 178M642 183L638 181C643.633 177.994 651.932 178.206 658 180M747 179C761.025 182.456 786.363 186.306 791.181 203C795.412 217.658 780.713 228.593 771 236.21C743.59 257.704 715.11 279.319 684 295.245C671.769 301.506 656.312 313.638 642 313.522C629.05 313.416 631.998 294.073 623.49 288.498C619.173 285.67 613.496 285.545 609 283.121C599.333 277.909 590.759 269.944 582 263.375C578.82 260.99 568.383 255.612 571.137 250.318C572.881 246.964 586.982 244.548 591 242C580.806 227.558 576.175 209.211 574 192M598 189C608.17 182.769 626.235 181 638 181M468 216L448 192C451.783 190.884 455.178 190.909 459 192.044C461.409 192.759 463.827 193.706 465.91 195.134C483.706 207.326 458.269 224.404 454.638 237C453.016 242.627 459.46 251.645 457.033 255.49C451.917 263.593 438.964 255.771 437 268C443.2 268 457.585 270.977 462.397 266.771C466.556 263.135 460.988 257.234 461.603 253C463.445 240.33 475.74 232.187 467 219M433 342C438.183 338.051 442.543 333.143 448 329.544C452.677 326.459 460.534 323.426 462.917 317.985C466.106 310.706 453.135 298.654 447 296.8C434.633 293.064 423.748 303.983 412 301.127C401.636 298.608 400.043 285.398 406.533 278.329C409.197 275.427 412.97 273.509 416 271C410.319 266.796 400.071 267.251 398.41 258.996C397.646 255.199 399.283 252.172 402.109 249.749C409.873 243.092 443.284 217.575 419 212.019C414.013 210.877 408.877 211.442 404 210L409 200L448 192M532 193C521.38 210.332 527.283 234.553 519.272 252.911C517.547 256.864 513.222 259.794 510.424 263.001C496.539 278.915 479.804 284.515 464 267M285 198C279.996 205.732 283.173 213.644 291 205M301 199C300.227 201.916 297.381 207.533 299.198 210.397C301.731 214.388 316.844 210.328 321 210M394 199L408 199M597 208L597 210M287 212C290.986 217.659 296.709 221.875 300.095 228C307.163 240.784 308.921 258.628 309.91 273C310.4 280.105 309.892 287.063 308.35 294C307.868 296.167 306.294 300.237 308.617 301.882C313.403 305.27 315.722 297.707 317.1 294.999C321.659 286.037 327.801 278.311 332 269C335.379 271.69 338.086 274.845 341.025 278C342.841 279.95 344.641 281.871 346.25 284C361.522 304.205 325.75 298.582 316 299M384 217L383 226M479 227C480.515 231.302 484.9 234.389 485.501 239.001C486.677 248.038 471.544 262.706 466 269M480 231L477 251M310 234L324 236M349 237L359 238M345 238L345 247C334.519 245.38 332.183 260.848 332 269M637 238C626.347 243.685 604.068 243.715 592 243M648 239L657 248M330 240C330.391 244.955 330.311 250.415 335 253M595 240L593 243M644 242L651 245M595 244L599 256M579 249C582.055 259.387 594.54 258.315 601.683 263.924C606.479 267.689 610.502 277.86 615 283M659 249L666 252M330 252L330 265M639 257L653 255M634 259L634 260M604 264L628 263M476 261L477 274M647 266L613 279M657 267C653.497 279.48 637.375 284.933 626 287M416 271L436 269C436.609 282.925 450.776 278.267 456 269M641 273L633 283M484 281L510 303M613 281L610 284M315 302L328 319C340.101 313.185 351.726 326.89 364 327M689 310C693.91 345.384 668.522 385.021 652.309 415C645.811 427.015 640.676 441.442 632 452C626.743 442.149 629.957 424.774 631.285 414C631.709 410.56 634.34 402.355 630.667 400.068C627.263 397.948 621.2 401.267 618 402.616C605.852 407.734 593.753 416.926 585.325 427C560.215 457.013 563.898 512.955 586 544C580.575 550.029 573.462 559.536 574 568C584.975 561.767 594.057 557.669 586 545M692 317C720.484 331.167 710 373.512 710 399M185 350C196.099 346.849 203.127 337.995 214 334.09C225.758 329.868 238.786 328.97 251 326.69C263.29 324.396 275.618 320.376 288 318.782C294.935 317.89 303.082 317.359 310 318.616C317.103 319.906 322.1 325.106 328 319M310 319L298.164 334.001L291 356C288.661 354.398 286.284 352.862 284.299 350.814C272.233 338.359 284.242 331.146 292 321M325 323C329.579 328.312 331.727 339.527 337.39 343.212C340.75 345.398 349.185 342.313 349.288 337.949C349.369 334.501 345.899 331.543 344 329L352 324M632 452L609 499C616.604 496.573 623.248 490.63 630 486.425C643.588 477.963 657.691 469.419 672 462.27C701.767 447.398 733.651 440.508 765 430.33C778.247 426.03 807.022 419.465 810.522 403C811.742 397.264 805.652 391.234 802.575 387C790.768 370.757 773.668 364.332 754 364.003C751.344 363.959 734.222 363.823 737.752 358.475C742.353 351.503 757.566 346.81 765 343.576C797.305 329.521 863.083 324.302 874.522 369C886.625 416.294 842.002 459.544 825 499C833.017 499.095 840.99 495.153 849 494.156C872.635 491.214 900.736 489.103 924 495.49C930.158 497.181 935.26 501.148 939.999 505.289C946.192 510.702 952.913 517.902 955.211 526C961.779 549.139 937.345 575.186 922 588.714C914.952 594.928 907.396 602.508 899 606.875C892.554 610.228 885.58 608.626 879 610.549C866.083 614.325 853.011 622.199 841 628.248C824.021 636.797 809.468 648.421 794 659.279C786.393 664.62 778.406 670.212 770 674.215C765.116 676.541 759.379 677.129 755 680.419C742.329 689.939 733.175 703.345 718 709.546C703.273 715.564 686.532 716.365 671 719.261C661.204 721.087 651.081 724.557 641 722.624C632.653 721.024 630.232 715.876 623.7 711.885C618.208 708.53 611.553 708.845 606.015 704.471C589.727 691.606 584.013 667.796 584 648C596.2 649.223 607.707 656.186 620 657.836C645.084 661.202 668.415 657.437 693 652.804C705.952 650.363 718.91 648.552 731 643L730 625C704.539 628.432 681.512 640.482 655 637.829C645.629 636.892 641.806 631.695 633.961 628.053C622.443 622.707 611.001 620.855 600 613.656C594.47 610.037 591.562 604.935 586.701 601.032C582.929 598.003 577.816 598.468 574.228 594.786C569.011 589.435 570.711 574.163 574 568M350 340L362 336M386 339C380.723 342.113 371.561 345.695 369.471 352.004C367.789 357.083 373.529 362.513 375.189 367C379.643 379.038 379.11 387.293 372 397C376.303 397.798 378.554 396.439 379 392M229 344C226.353 347.376 224.309 348.803 220 348C224.608 338.66 246.762 340.259 255 344.378C266.414 350.085 269.53 363.563 280 371.076C299.429 385.018 327.12 384.104 350 384M196 346L220 345M338 345C338.314 354.673 344.343 353.238 350.715 357.56C359.444 363.481 366.411 371.825 375 378M219 349L222 351M113 452C118.897 469.419 115.818 484.943 113.135 502C111.808 510.439 112.399 519.883 110 528C86.4727 517.093 97.7169 477.546 105.702 459C107.454 454.932 111.541 452.351 112.707 448C114.146 442.629 111.496 437.321 111.121 432C110.643 425.226 111.741 417.823 112.039 411C113.005 388.948 125.891 349.178 154 350.263C160.831 350.527 168.132 355.107 174 358.312C181.486 362.402 187.624 367.403 193 374L215 354C211.943 366.895 198.562 377.902 190.604 388C176.755 405.573 163.22 426.204 154.801 447C151.722 454.606 149.462 462.121 147.254 470C146.465 472.815 144.219 476.713 145.952 479.541C148.193 483.195 154.422 485.664 158 487.799C171.424 495.81 183.8 498.408 198 503.891C204.47 506.389 213.566 511.835 220.83 510.732C225.468 510.028 228.858 506.424 234 506L234 511C252.933 510.987 272.452 506.602 290 499.89C294.3 498.246 299.475 498.871 303.545 496.582C318.899 487.946 333.312 470.642 352 469C351.36 481.464 341.839 498.53 334 508C344.457 518.552 348.17 531.318 347.996 546C347.959 549.135 344.333 560.978 348.322 562.071C353.006 563.354 361.365 558.307 366 557.127C374.912 554.859 384.988 553.489 392.961 548.637C398.035 545.548 401.45 540.117 406 536.326C411.745 531.538 418.686 528.276 425 524.319C432.121 519.857 450.169 513.827 445.171 503C433.99 478.777 396.474 476.765 374 470.846C367.28 469.076 349.457 466.786 346.349 459.892C344.536 455.872 346.88 449.76 348.465 446C353.494 434.062 365.366 423.975 373.46 414C377.102 409.512 385.262 401.955 381 396M219 350L215 354M428 351C457.094 351.019 476.984 382.211 481 409L449 409C463.487 421.656 480.954 442.622 482 463M352 356L368 352M1064 357L1065 357M383 397C386.83 393.462 386.16 390.225 388.517 386C392.79 378.342 402.594 366.881 411 364M511 367C516.229 376.798 515.915 392.014 519.347 403C528.582 432.556 537.594 463.834 538.961 495C540.134 521.75 534.02 548.595 530.425 575C527.696 595.051 527.092 615.798 525.17 636C521.815 671.25 524.804 712.965 497.674 740.856C492.252 746.43 480.323 747.177 473 749.151C456.442 753.616 439.915 757.145 423 759.92C414.521 761.311 404.846 760.223 397 764C402.908 769.559 415.229 769.121 423 770.612C428.445 771.657 433.63 774.987 439 775.637C453.595 777.401 474.772 770.863 489 767.374C496.153 765.62 507.324 764.535 512.436 758.609C516.752 753.607 517.175 742.334 519.194 736C524.485 719.404 530.544 702.753 538 687M346 385C340.441 390.005 320.23 399.807 321.882 408.891C322.746 413.642 330.381 413.754 334 414.074C346.791 415.207 359.256 412.035 372 412M380 387L387 387M388 393L393 393M401 397C415.416 392.86 434.046 405.358 448 408M353 409L371 398M439 406L430 409M421 407C412.548 411.516 387.457 413.339 379 409M481 409L483 411M98 519C87.5491 521.589 75.4612 510.466 73.1312 501C68.4066 481.806 73.9525 463.617 85.6296 448.001C91.2155 440.531 100.047 431.294 110 436M114 443C119.323 445.783 119.721 451.231 122.836 455.911C125.503 459.917 129.862 462.619 132.067 467C134.049 470.937 132.964 475.817 134.563 480C137.733 488.29 146.181 491.755 154 494.329C159.33 496.084 164.73 498.572 170 496M121 450C131.216 447.199 135.395 456.764 131 465M115 451L118 450M632 457C638.288 464.556 645.687 466.819 655 469M95 514C78.3121 496.409 79.1594 467.768 105 459M123 459L118 476M675 467C702.663 461.293 727.991 460.576 755 469.667C762.188 472.087 777.328 476.125 780.218 484.093C785.314 498.147 761.197 513.542 767 527C780.902 519.352 790.049 528.268 797 540L814.05 515L817.292 505.133L808 508.221L789 528M354 467L352 469M135 470L143 477M257 501L235 505C236.914 495.726 239.679 487.3 244.312 479.001C245.573 476.743 248.217 471.57 251.596 473.176C257.229 475.853 257.273 495.319 259 501C267.238 498.395 281.161 495.817 289 500M492 480L496 482M144 481L143 487M142 491L143.428 522L159 563L154 564C173.907 590.158 209.853 615.104 243 620C243 615.272 244.601 607.23 241.512 603.329C237.865 598.722 230.191 597.567 229.149 590.961C227.24 578.857 239.183 573.669 235 562L226 564L227.741 539L222 512M500 491C517.582 504.578 520 538.684 520 559C520 618.277 494.031 700.745 439 730.583C430.809 735.023 422.313 731.453 414 729.375C403.598 726.775 393.738 725.552 383 726.039C366.214 726.801 349.801 733.72 333 735.4C324.501 736.25 315.403 737.208 309.279 729.956C301.01 720.166 311.47 702.824 315.4 693C316.718 689.704 319.703 684.792 318.353 681.148C316.101 675.067 305.871 679.885 302 681.453C297.612 683.23 288.027 691.162 283.375 688.867C279.46 686.936 276.595 680.523 274.309 677C269.877 670.17 265.001 664.585 259 659.086C256.498 656.794 251.186 651.026 247.322 651.882C241.906 653.082 247.813 667.396 249.135 670C258.09 687.642 261.18 708.67 274.3 724C286.023 737.697 299.869 745.858 318 746.791C332.261 747.524 345.693 743.677 360 747.24C368.162 749.273 372.423 756.46 379.259 760.573C384.639 763.81 390.942 763.999 397 764M497 492C500.326 503.251 505.085 514.961 505.91 527C508.693 567.589 489.541 610.33 464.424 641C458.083 648.743 452.969 657.801 445 664C441.692 650.871 453.353 627.344 458.203 615C472.267 579.202 493.921 543.018 497 504M116 494C123.735 508.494 115.364 530.317 120 546C133.226 544.071 142.265 560.116 154 564M306 498L333 507M825 499L819 505M608 500L595 518M259 502L260 507M200 504L212 507M335 509L311 535.536L294.479 547.495L293 573L343 566C340.214 593.196 312.929 602.159 292 610C303.279 629.324 316.528 655.159 317 678M223 510C227.035 512.66 229.652 513.281 234 511M261 510C261.439 513.264 261.649 518.822 263.85 521.411C265.976 523.913 271.055 524.264 274 525.453C283.156 529.148 291.169 534.736 293 545M233 514C237.992 519.156 253.949 521.625 261 521M232 516L235 562M877 611L851 610L804 608.039L779 610C785.294 600.58 799.02 595.518 807.778 588.667C829.231 571.884 851.738 556.38 874 540.611C888.661 530.226 907.206 516.593 926 516.028C934.459 515.773 941.923 521.934 947.361 527.778C949.914 530.521 951.387 535.23 955 536M264 523L272 555L293 548M769 526C781.383 534.437 808.053 547.064 796.437 567C793.699 571.698 789.736 576.085 786 580L781 570C776.947 573.73 774.511 581.456 769.74 583.995C764.354 586.861 748.905 579.732 744 577C742.191 579.636 738.493 583.49 738.747 586.891C739.045 590.89 745.023 591.779 748 592.775C755.923 595.427 772.159 595.792 775 586L780 586C778.777 589.401 777.662 590.832 774 591M760 537L755 552C757.778 549.858 760.878 547.653 761.664 543.999C763.301 536.379 756.176 532.286 765 527M110 528L112 530M737 586C730.728 584.621 727.62 580.8 723.589 576C719.183 570.752 711.991 564.405 712.137 557C712.499 538.763 743.473 523.716 759 532M790 530L785 535M758 531C744.84 543.595 730.781 563.517 739 583M586 543C589.451 540.454 592.714 537.661 597 536.696C611.791 533.364 620.426 546.955 617.988 560C616.762 566.559 614.911 576.056 606.089 571.724C599.81 568.641 595.705 560.931 591 556M952 536L920 555.884L894 571L895 560M785 539C783.433 547.08 779.6 555.879 782 564C790.444 559.904 788.983 550.727 791 543M797 540L795 546M795 546L792 548M119 547C121.264 571.805 129.073 600.181 126.829 625C124.355 652.375 112.703 675.267 95.2469 696.004C89.7972 702.478 84.3493 710.684 77 715.146C69.9827 719.406 58.9722 719.432 51 721.001C33.8917 724.368 18.6851 730 1 730M606 573L610 579L614 574L630 582C636.52 571.715 639.355 553.349 652.039 548.148C668.064 541.577 680.161 557.563 693 562.603C699.66 565.217 707.765 564.717 712.486 571.044C716.008 575.764 715 582.459 715 588L730 584M620 556L647 548M753 553L745 576M121 554L139 558M237 562L270 555M594 558C601.689 553.33 601.307 560.288 603 566L617 559M272 556L278.317 573.547L292 574M159 563L160 568M345 563L343 566M161 565L190 567.911L225 565M787 564L784 573M225 565L225 612M693 565C698.344 572.209 711.889 583.361 713.708 592.054C714.689 596.739 711.258 602.965 709.241 607C702.931 619.619 690.12 633.931 674 628.397C659.426 623.394 658.636 607.935 651.034 597.054C646.332 590.324 637.899 586.031 631 582L629 595L644 592M781 565L781 570M599 566C594.835 569.747 577.207 577.292 577.207 583.039C577.207 589.88 586.204 590.208 585 599M239 568L275 574M798 569L792.722 583.864L780 586M893 572L889 609M238 573L243 602M162 574C162.024 609.883 176.455 646.181 172.155 682C171.332 688.857 171.515 705.202 167.972 710.697C163.187 718.118 144.505 717.559 137 721.164C126.054 726.421 117.933 737.014 107 742.677C90.518 751.213 68.8543 753.61 51 757C55.514 765.193 68.6095 760.241 76 764.024C82.306 767.251 86.3439 773.589 93 776.676C109.703 784.423 140.72 782.968 152 767C145.486 764.795 138.685 765.2 132 763.789C119.412 761.133 106.956 756.751 94 756.455C84.1077 756.229 72.1384 760.877 63 756M292 574C291.938 581.371 290.176 588.865 286 595L278 576M808 589C825.164 598.208 857.818 589.575 875 583.305C880.856 581.168 885.829 577.114 892 576M610 580C605.686 591.892 598.552 592.852 587 593M786 580L786 582M591 591L609 581M573 582L576 582M794 584L803 591M772 585L774 585M768 586L767 590M583 647L579 627L571 640C560.73 634.275 543.571 617.712 548.743 604C550.623 599.016 555.864 595.201 560 592.156C563.183 589.812 566.151 587.904 570 587M650 594L708 588M738 591L733 607L716 594M286 595L291 609M629 595C624.614 606.218 629.065 615.104 631 626M590 601L626 596M762 596L751 616C759.712 618.911 769.712 613.285 778 611M286 600C281.867 606.078 281.865 610.379 290 610M244 605C255.712 606.023 270.708 615.696 282 609M733 607L733 616L741 611L734 607M741 611L744 611M887 611L883.576 638L882.111 647.401L875 651L884 658C874.479 665.285 861.106 669.571 850 674C825.801 683.65 801.043 692.124 775 695.05C764.663 696.211 749.848 700.011 740 696M279 612C278.497 632.79 254.579 616.092 245.603 623.032C241.089 626.522 244.423 644.841 245 650M226 616C222.953 654.609 222.821 700.894 197.482 733C186.61 746.777 167.942 752.236 157 765C183.693 775.96 233.181 765.589 240.471 734C243.798 719.584 243.893 701.862 244.91 687C245.372 680.262 243.73 673.128 247 667M733 616L730 625M767 616C760.772 621.719 750.645 631.236 742 632L747 620L732 623M751 617L748 619M699 626L731 618M243 620L245 622M928 651C940.702 646.682 943.257 632.864 950 623C959.197 634.222 959.11 660.519 943 666C940.856 658.365 933.636 656.55 928 652C917.911 659.329 903.188 665.279 892 657C900.563 651.171 913.779 650.002 923 655M639 629C648.911 629.782 661.739 632.457 671 628M742 633L732 643M571 640L582 645M571 642C565.239 659.03 557.937 681.199 564.387 699C571.057 717.406 610.513 722.929 626 714M239 643L244 647M884 648C897.281 647.715 915.792 644.384 928 651M885 650L892 657M888 656L884 658M618 658L610.153 673L616.911 684.421L640 709L628 714M623 659L619 684M443 665L438 676M943 666L939 670M319 684C328.208 696.654 331.746 719.669 334 735M619 690L623 710M638 712C645.544 716.005 657.01 712.187 665 710.424C679.897 707.139 694.98 704.577 710 701.916C716.908 700.692 724.065 697.969 731 700M335 736L336 745M2 741C16.4689 750.753 32.5877 757.751 50 760M993 1172C1000.82 1185.56 991.93 1216.63 980 1226C976.481 1209.71 988.021 1186.19 992.484 1170.71C999.849 1145.18 996.275 1122.62 978.855 1102C961.548 1081.52 934.544 1080.63 910 1084C862.409 1090.54 815.834 1117.67 767 1114.91C753.117 1114.12 736.055 1109.51 728.272 1097C722.017 1086.95 721.729 1073.41 711.826 1065.51C703.662 1059 687.431 1066.59 681.712 1056.9C677.971 1050.55 695.745 1042.75 700 1040.28C723.507 1026.63 746.123 1010.98 768 994.884C786.676 981.142 804.52 967.03 820.271 949.911C829.124 940.289 835.93 929.036 844.286 919C854.039 907.285 868.905 895.294 874.776 881C877.42 874.564 875.34 868.562 875.039 862C874.163 842.859 869.737 819.179 852.985 807.043C824.566 786.455 777.45 790.823 744 786.715C724.89 784.368 704.015 781.556 685 786.039C672.618 788.959 662.125 795.147 651 801C646.447 792.826 645.641 781.019 635.999 776.653C630.085 773.974 623.775 776.531 618 774C622.732 762.635 630.917 748.753 643 744.005C651.882 740.516 663.884 743.858 673 744.834C693.161 746.994 714.094 747.73 734 751.46C749.547 754.373 765.129 758.266 781 758.961C809.246 760.198 837.601 756.119 866 757.036C878.564 757.441 891.535 757.81 904 759.286C912.419 760.282 923.541 763.172 931.911 761.593C937.2 760.595 942.528 755.16 948 753.359C964.151 748.043 983.029 744.851 1000 744.104C1024.43 743.03 1047.13 754.802 1071 755C1076.2 736.901 1101.96 742.026 1106.36 758C1110.38 772.618 1092.35 778.959 1089.38 790.001C1086.65 800.155 1081.33 812.652 1081.04 823C1080.86 829.588 1084.47 835.481 1084.9 842C1085.39 849.311 1077.68 869.756 1071.78 874.411C1064.32 880.292 1052.35 874.981 1044 879L1048 891L1021 884L1008 889C1012.65 899.31 1026.47 908.208 1038 908.562C1047.74 908.862 1052.01 898.517 1048 891M338 748C342.51 756.405 368.496 764.363 377 760M1071 755C1085.02 763.133 1099.84 761.461 1091 782M1081 760L1082 813M935 763C940.194 765.023 947.172 768.873 949.821 774.015C952.696 779.597 949.692 784.261 956.019 788.123C966.801 794.704 979.326 794.439 991 798.695C1006.7 804.419 1020.41 817.014 1029 831C1047.47 817.878 1060.55 790.146 1074 772C1061.49 765.291 1041.85 771.161 1028 770.996C1015.75 770.85 1003.23 767.354 991 766.17C974.347 764.558 957.713 765.112 941 763M153 766L156 766M2 769L7 768M1074 772L1080 772M597 864L598 853C589.118 853.891 581.747 859.823 574 863.783C563.666 869.066 552.878 872.713 542 876.772C535.451 879.217 525.678 883.982 519 881C528.518 867.488 542.619 853.726 556 844.011C568.83 834.696 586.901 824.096 593.579 809C595.672 804.267 592.82 799.828 594 795C607.999 806.994 599.327 836.139 599 852C611.265 852.672 606.893 864.956 597 864C585.496 890.737 579.781 925.279 552.039 941.665C544.33 946.219 529.723 961.143 522 947L548 943M1043 878C1039.69 877.059 1035.57 874.75 1034.97 870.911C1034.43 867.505 1036.99 863.26 1037.84 860C1039.75 852.713 1037.57 832.16 1045.23 828.272C1049.72 825.992 1061.52 832.489 1060.25 837.971C1059.13 842.783 1050.73 845.374 1047 848M1081 829C1076.08 836.358 1079.06 848.499 1074.17 854.643C1069.62 860.365 1053.09 851.301 1049 848M1030 831C1021.97 837.886 1012.69 840.771 1003 844.425C992.466 848.398 982.263 853.091 971 854.7C951.54 857.48 927.379 853.222 908 850.575C896.73 849.036 886.759 844.097 875 844M897 846C905.627 843.426 915.136 843.803 924 841.996C945.211 837.672 968.289 832.035 990 832C1000.41 831.983 1012.56 830.883 1022 836M576 864C582.26 869.346 587.339 868.063 595 868M2 868C2.00159 882.418 14.2419 883.137 26 887.989C49.8859 897.847 72.4592 909.693 96 920.306C103.84 923.84 118.623 933.631 127 930C111.807 912.895 89.7064 905.713 68 904M1004 873L1022 869.267L1033 873M559 871L563 871M1026 873L1024 882L1038 877M384 922C372.254 930.291 359.416 929.949 346 932.789C344.25 933.16 330.303 936.289 334.086 930.544C336.274 927.222 344.456 927.481 348 926.803C360.954 924.324 375.545 923.173 388 919.149C406.242 913.256 425.152 912.844 444 909.536C473.271 904.4 500.492 896.502 528 885.811C538.585 881.697 550.167 878.717 560 873M1030 875L1030 878M519 881C509.909 888.459 494.275 884.333 483 886.46C467.839 889.319 453.727 896.397 439 900.798C426.703 904.472 412.619 906.446 402 914M1022 882L1022 883M561 938C591.515 929.671 617.413 910.577 645 896.216C651.212 892.982 657.507 886.767 664 884.614C668.317 883.183 690.479 884.863 693.397 888.318C697.354 893.003 697.01 904.088 699.004 910C700.608 914.757 706.55 922.084 704.164 927C698.223 939.242 686.149 946.551 677.325 956.104C666.683 967.625 659.477 981.956 647.985 992.911C628.191 1011.78 606.663 1027.14 588.576 1048C581.921 1055.67 574.004 1064.05 570.905 1074C568.46 1081.85 570.001 1091.84 570 1100C570 1105.16 568.67 1110.95 569.649 1116C572.127 1128.79 588.596 1137.89 595 1149C619.111 1140.17 631.656 1103.05 636 1080M513 887L510 892M1038 910C1029.32 916.126 1016.98 916.781 1008.01 910.351C999.893 904.527 996.636 892.948 1008 889M501 898C496.753 907.106 486.448 914.719 479 921.286C467.818 931.144 457.27 941.656 446 951.424C429.119 966.056 413.023 981.966 395 995.244C370.005 1013.66 340.802 1028.16 312 1039.6C296.371 1045.81 281.909 1052.85 265 1055C266.955 1044.2 277.561 1032.85 283.859 1024C295.01 1008.33 303.899 990.977 314.67 975C323.066 962.544 333.324 950.707 334 935M264 1056C252.057 1052.48 235.747 1059.33 224 1062.12C203.148 1067.06 185.778 1064.61 165 1061.08C159.286 1060.11 148.043 1060.25 143.333 1056.97C137.113 1052.64 146.477 1031.78 147.87 1026C152.968 1004.83 157.553 967.747 143.15 949.097C137.503 941.786 118.711 939.388 110 937.425C82.0282 931.123 52.3089 933.235 25 926.239C19.5532 924.844 -6.88502 912.094 5.05864 906.059C18.4812 899.275 39.3842 903 54 903M296 939L312.039 932.634L333 930M128 932C134.091 934.392 138.013 938.779 140 945M137 936C192.232 953.661 251.144 936.409 307 932M306 937C313.044 940.457 324.616 936.91 332 935M145 950C153.765 948.917 165.289 955.908 173 959.753C195.652 971.05 217.209 984.456 238 998.885C245.309 1003.96 259.767 1012.48 261.477 1022C263.33 1032.32 248.342 1047.08 243 1055M564 953C564.862 956.978 563.332 961.017 564.318 964.961C565.169 968.367 568.512 970.324 568.552 974.015C568.689 986.608 559.676 1000.77 554.873 1012C547.198 1029.94 540.695 1049.87 536.807 1069C535.048 1077.65 532.776 1087.14 534.329 1096C536.578 1108.83 544.388 1120.61 545 1134C527.265 1126.2 543.896 1144.99 547.884 1150C557.475 1162.04 572.461 1168.19 584 1178C576.759 1180.48 567.139 1171.87 561 1168.27C539.432 1155.6 518.365 1144.1 508.001 1120C502.807 1107.93 498.003 1095.26 497.09 1082C494.689 1047.14 514.719 1013.74 535.116 987C543.029 976.627 551.976 958.654 564 953M2 1020C19.1649 1026.44 36.7247 1024.18 53 1033.93C64.7179 1040.95 71.7355 1052.13 79.4244 1063C91.3553 1079.86 107.199 1097.9 113.229 1118C117.041 1130.71 114.79 1144.56 119 1157C124.131 1149.26 125.133 1137.96 127.373 1129C132.971 1106.61 139.809 1080.09 140 1057C124.68 1055.06 108.257 1054.12 94 1047.69C73.9245 1038.64 60.3985 1024.06 37 1024M22 1025L2 1031M388 1040C402.03 1047.73 415.575 1057.71 430 1065.48C433.668 1067.46 442.594 1067.44 444.958 1070.6C446.853 1073.14 445.029 1078.08 445.029 1081C445.029 1088.71 445.29 1100.86 450 1107M293 1049C300.163 1051.88 309.463 1049.66 317 1049.09C340.242 1047.32 369.439 1037.55 392 1046M237 1060C235.636 1070.26 225.236 1080.14 219.003 1088C197.842 1114.69 169.546 1137.62 134 1131M1 1070C11.5484 1097.83 42.1386 1101.73 62 1119.18C82.1318 1136.88 91.4421 1162.49 109 1182C116.694 1174.87 117.758 1166.83 119 1157M636 1081C645.855 1087.12 658.552 1087.62 669 1092.81C693.626 1105.03 716.318 1121.7 741 1133.51C767.743 1146.31 797.858 1154.3 823 1170.29C839.248 1180.62 849.452 1189.67 858.139 1207C859.965 1210.64 866.349 1218.44 863.928 1222.58C860.353 1228.69 843.167 1227.61 837 1228.42C811.973 1231.71 781.886 1229.91 758 1238C773.89 1248.62 795.073 1247.94 810.911 1260.9C822.984 1270.78 817.832 1282.16 823.974 1294C829.836 1305.3 837.638 1315.1 842.908 1327C844.448 1330.48 848.369 1336.84 847.211 1340.74C845.776 1345.58 832.659 1352.78 828.83 1357C824.513 1361.76 819.871 1367.26 814 1370L815 1330L806.799 1345L795 1378C783.302 1378.9 772.717 1394.7 779.858 1405.96C783.036 1410.96 789.552 1412 795 1412.71C813.058 1415.06 814.416 1399.93 829 1395.69C836.777 1393.43 846.874 1399.13 854.777 1394.57C858.055 1392.67 858.245 1387.94 861.134 1385.42C866.537 1380.7 887.214 1377.28 892.851 1382.32C898.008 1386.93 893.7 1391.52 888.999 1394.01C878.559 1399.55 866.297 1405.41 859 1394M165 1132C180.507 1137.5 202.61 1134 219 1134C265.298 1134 312.808 1132.4 358 1121.1C369.708 1118.18 381.759 1115.21 393 1110.8C409.739 1104.23 427.414 1093.74 445 1102M545 1134C555.5 1144.96 565.299 1145.24 578 1151.89C592.003 1159.22 605.226 1168.32 619 1176M874 1180C881.197 1174.19 889.331 1174.21 898 1172.34C913.367 1169.01 929.969 1166.07 944.871 1161.28C952.987 1158.68 955.497 1147.31 965 1148.2C975.462 1149.18 984.49 1158.61 991 1166M580 1150L593 1149M597 1149L608 1168M948 1161C959.819 1168.49 972.336 1173.04 970.941 1190C970.222 1198.74 958.927 1205.39 953.899 1212C941.347 1228.5 929.989 1245.74 922.201 1265C918.206 1274.88 910.777 1287.83 917 1298C929.343 1289.13 940.725 1275.6 956 1272M116 1173C120.745 1182.25 114.492 1198.68 109.659 1207C106.997 1211.58 105.012 1216.9 100.816 1220.37C91.6605 1227.92 75.9589 1237.01 64 1237.62C43.6257 1238.67 21.4746 1227.55 2 1223M585 1178L611 1195M584 1181L585 1181M632 1198C672.486 1211.2 714.373 1237.1 758 1238M2 1216L12 1223M980 1226L976 1238M78 1235C100.197 1246.85 126.475 1219.54 141.811 1248C152.389 1267.63 127.728 1276.32 114 1281.34C109.902 1282.84 102.049 1284.47 100.585 1289.13C95.8493 1304.21 100.652 1325.22 99.9606 1341C98.4877 1374.64 95 1408.3 95 1442M100 1285C100.01 1281.33 99.6779 1260.1 105.051 1260.92C109.655 1261.62 117.097 1274.58 121 1278M955 1273C954.376 1286.65 949.543 1309.11 942.637 1321C936.34 1331.84 926.802 1340.86 920.427 1352C915.871 1359.97 904.746 1374.78 919 1379M96 1288L100 1288M2 1313C11.4799 1316.01 22.1399 1316.69 31 1321.4C42.1511 1327.32 50.2325 1338.81 58.5756 1347.96C65.8759 1355.97 72.7429 1358.93 73 1371C63.8708 1365.32 54.6945 1359.11 44.0185 1365.99C38.3238 1369.66 37.4672 1375.82 36.5795 1382C34.6503 1395.44 31.5896 1415.99 39.7022 1428C44.602 1435.25 69.4699 1444.53 66.767 1428C65.3604 1419.4 55.4441 1415.52 48 1414C31.0017 1410.54 8.02789 1413.73 1 1432M816 1324L815 1330M74 1372C79.8047 1387.98 84.5856 1407.49 95 1421M915 1378L892 1381M793 1379C790.379 1394.48 800.546 1401.68 816 1402M796 1379L803.144 1388.15L824 1398M876 1382L861 1393M84 1407C84 1421.21 80.2902 1434.99 78.2708 1449C74.2248 1477.08 69.9873 1504.81 67.169 1533C66.1432 1543.26 65.0007 1553.69 65 1564C64.9998 1567.23 66.2758 1573.73 64.1111 1576.4C62.3616 1578.55 58.4199 1578.06 56 1577.83C49.9981 1577.27 35.2165 1580.37 31.3025 1574.68C26.4715 1567.66 23.8293 1557.91 20.6914 1550C12.5688 1529.53 2.47504 1505.3 2 1483M66 1578C71.6242 1582.43 79.1929 1583.3 84.8958 1588.46C93.5057 1596.26 94.4258 1608.69 98.0895 1619C99.5308 1623.05 102.812 1627.59 102.716 1632C102.287 1651.82 82.2376 1659.22 68 1665.8C62.1349 1668.5 56.4734 1672.54 50 1673.67C43.3716 1674.83 36.6774 1672.91 30 1674.34C19.7056 1676.55 14.5413 1684.36 3 1681M67 1580C69.3559 1597.48 86.9544 1607.21 80.6705 1627C77.0764 1638.32 60.6741 1650.89 51.9606 1658.7C47.0028 1663.15 40.8988 1666.24 39 1673M2 1582C9.00125 1585.68 9.75452 1590.92 2 1594M1 1622C16.6418 1622.68 12.0736 1629.83 2 1636M4 1681C9.68915 1676.34 16.7447 1673.88 24 1676M1089 1749C1094.05 1746.05 1100.74 1743.64 1099 1752C1109.85 1755.57 1108.01 1764.31 1100 1771L1101 1763M1121 1745C1113.28 1750.33 1110.42 1766.21 1122 1757" transform="translate(-577.122,-226.816) scale(0.925201,0.327791)"/></svg>