<svg xmlns="http://www.w3.org/2000/svg" xmlns:svg="http://www.w3.org/2000/svg" xmlns:sodipodi="http://sodipodi.sourceforge.net/DTD/sodipodi-0.dtd" xmlns:inkscape="http://www.inkscape.org/namespaces/inkscape" xmlns:xlink="http://www.w3.org/1999/xlink" width="210mm" height="297mm" viewBox="0 0 210 297">
  <sodipodi:namedview/><g inkscape:label="Ebene 1" inkscape:groupmode="layer" id="layer1">
    </g>
<path style="fill:none;stroke:#000000;stroke-linecap:round;stroke-width:5.0" d="M766 138L725 130.621L690 140C695.027 129.737 702.108 117.613 711.015 110.268C715.325 106.713 721.195 106.208 726 103.396C739.784 95.329 752.993 86.3872 767 78.6943C781.485 70.7393 797.196 62.9862 814 68L788.28 150L777 191C780.14 189.032 782.918 186.612 779 184M737 323C739.126 328.005 748.076 344.252 746.67 348.946C743.359 359.993 720.302 362.211 712.213 367.027C706.433 370.468 703.808 380.799 699.532 385.996C690.907 396.481 676.937 402.615 667.015 412.089C661.863 417.009 658.403 423.506 651 425C649.988 401.496 641.485 378.852 641.014 355C640.506 329.279 648.096 302.5 643.385 277C642.345 271.37 640.353 264.319 634.907 261.419C630.106 258.863 615.081 258.32 615.358 250.957C615.676 242.524 623.064 232.379 626.753 225C637.522 203.462 655.75 177.843 660 154C636.706 156.947 639.126 192.671 628 209C623.597 193.965 634.826 172.631 640.397 159C648.097 140.156 657.005 118.029 671.09 103.004C693.989 78.5774 732.308 72.3918 764 72M757 73L717 105M605 75C587.738 109.387 591.229 152.565 574.29 187C568.322 199.133 554.973 216.385 568 226L576 189M764 139C753.241 152.213 739.77 180.002 723 159L722 159C708.537 177.229 692.487 194.764 680.612 214C675.321 222.57 673.7 232.496 669.115 240.985C665.188 248.255 652.559 256.134 645 259C642.957 246.927 648.303 232.254 652.308 221C658.407 203.859 665.283 187.362 673.258 171C677.705 161.875 683.947 152.647 687 143L663 153C660.147 133.326 689.08 127.176 701 120M690 140L687 143M915 162C931.183 158.66 946.709 152.873 963 149.804C968.076 148.848 978.002 146.701 982.867 148.618C989.057 151.057 992.816 165.417 995.782 171C1005.24 188.813 1018.62 204.539 1028.81 222C1040.94 242.779 1049.32 265.761 1055.37 289C1057.12 295.705 1061.51 304.026 1061.12 311C1060.79 316.972 1056.09 323.39 1054.09 329C1048.53 344.578 1041.55 362.615 1039.28 379C1037.85 389.279 1047.13 399.512 1045.77 410C1044.95 416.327 1040.4 422.883 1038.33 429C1031.86 448.158 1024.49 466.963 1017.69 486C1013.6 497.468 1008.9 509.197 1005.9 521C1002.6 533.949 1000.72 549.298 993.914 561C989.637 568.35 981.865 574.767 976.089 581C952.439 606.52 932.779 630.399 900 644.427C893.597 647.168 886.078 653.112 879 653.589C873.82 653.938 869.693 647.546 866.615 644.17C857.747 634.443 849.719 623.665 840.675 614.184C829.194 602.148 810.571 596.713 796 589.738C780.33 582.236 766.162 571.271 750 565M662 152L660 154M910 164L913 163M900 166L901 166M741 168L766 178M739 169C735.847 178.878 727.019 188.477 721.115 197C717.977 201.53 713.635 205.408 716 211L722 207L709 227C711.923 228.58 714.92 230.214 718 231.474C734.888 238.387 732.621 214.866 729.536 204.166C728.835 201.738 727.748 201.925 726 203L729 204M889 169L891 169M528 251C528.052 232.302 536.053 211.809 543.77 195C546.215 189.674 548.444 181.179 553.213 177.488C557.895 173.864 572.94 170.532 579 170M883 171L887 170M551 172L553 176M880 172L881 172M877 173L878 173M873 174L874 174M866 176L867 176M768 179L778 183M846 182L847 182M834 186L835 186M831 187L832 187M828 188L829 188M825 189L826 189M221 338C227.531 335.041 243.592 326.904 231.852 317.703C222.5 310.374 203.036 318.36 193 320.975C189.261 321.95 183.16 322.747 180.889 326.278C177.274 331.898 179.16 350.774 181 357L195 338L199 347C206.482 342.051 211.638 333.629 221 339L205.83 356.864L188 363C198.749 368.959 209.86 368.091 221 364L222 365C213.476 381.52 203.04 382.735 187 385.805C180.267 387.093 173.715 391.109 167 391.75C154.01 392.99 140.864 385.63 130 379.89C124.144 376.797 116.738 375.216 112.318 369.895C107.964 364.653 111.276 356.97 108.427 351C104.495 342.758 94.8289 337.791 91.7284 329C89.5799 322.908 92.8998 315.289 92.9815 309C93.354 280.32 103.054 256.853 121.87 235C125.297 231.02 128.711 227.011 132.424 223.289C145.822 209.864 181.465 182.778 197 207C207.067 200.816 218.872 191.592 231 190.34C239.144 189.5 248.597 192 257 192M822 190L823 190M777 191L774 199L782 198M819 191L820 191M733 196L732 192L738 200L730 203M816 192L817 192M260 193L264 194M795 196L813 193M773 195C767.213 200.33 750.324 210.192 750.327 219C750.329 224.973 761.006 235.674 765 240L761 239M730 197L729 201M788 197L792 197M271 198L272 199M770 198C774.737 206.104 765.822 225.79 762 234M749 217C746.519 214.011 740.2 207.567 740.998 203.318C741.969 198.14 761.608 200.19 765 202M738 201L740 203M726 203L722 207M277 204L280 207M197 209C192.652 207.952 187.596 212.01 184 214.345C173.728 221.014 164.869 228.391 155.83 236.615C136.913 253.828 114.615 269.661 109.468 297C103.641 327.946 145.479 334.019 167 331.837C171.278 331.403 174.793 327.988 179 327M873 207C879.461 212.618 893.746 211.999 902 212M282 208L286 212M294 358C290.15 349.522 295.95 334.094 297.41 325C301.984 296.525 304.726 267.946 315.861 241C319.473 232.259 322.517 222.672 328.159 215.001C329.766 212.815 332.478 208.49 335.779 209.497C339.269 210.561 339.814 216.032 339.96 219C340.43 228.583 338.219 237.708 336.21 247C328.002 284.958 308.255 321.984 294 358M714 209C710.65 212.372 707.002 215.024 708 220L715 212M874 209C881.732 250.039 879 289.722 879 331M627 210L627 212M199 212C203.004 233.643 180.116 247.667 166 260M922 212L926 212M946 213C955.882 214.841 966.046 216.531 976 217.841C980.092 218.38 987 217.84 990.501 220.144C997.381 224.67 1001.92 243.501 1005.31 251C1016.87 276.569 1024.52 301.337 1029.39 329C1032.06 344.211 1031.42 364.326 1039 378M288 214C307.725 256.247 286.215 303.489 277.515 346C274.004 363.155 276.003 381.604 274.05 399C271.915 418.018 269.462 447.692 254.671 461.809C250.531 465.76 245.823 462.244 242 459.56C234.504 454.299 227.36 439.896 217 440.357C205.897 440.851 193.286 458.416 185 464.721C177.958 470.081 173.793 464.067 175.47 457C176.194 453.947 177.505 451.079 178.206 448C179.191 443.676 180.156 439.354 181 435M708 215L710 217M706 220L706 217M558 221L548.692 247L539 273C534.135 256.542 543.641 232.609 551 218L559 221M691 237L693 238C685.402 241.022 681.795 247.779 677 254C667.065 236.165 690.249 225.656 704 218M749 219L724.505 249L716 265L759 244C756.785 251.657 746.555 252.409 740.17 255.749C733.137 259.428 727.796 265.586 722 270.83C718.835 273.694 714.583 278.845 710 278.82C700.59 278.769 694.629 269.834 686 268.039C681.939 267.193 677.802 269.913 674 271C677.235 261.514 691.081 248.563 690 239M706 221L694 236M608 269L569 228C582.055 224.81 595.328 236.78 603.961 244.826C606.698 247.378 611.368 250.268 612.458 254.039C614.128 259.813 607.46 265.158 610.238 271C613.961 278.828 625.524 284.476 626.852 293C628.903 306.168 626.615 320.77 626.076 334C625.583 346.084 627.064 358.923 627.911 371C628.332 377.01 627.438 385.129 629.179 390.821C630.896 396.435 639.041 398.776 641.708 404.089C643.519 407.696 641.479 412.125 642.418 416C644.358 424.005 653.182 432.017 661 434.196C664.398 435.143 667.651 433.813 671 433.296C696.845 429.306 698.218 405.298 714.3 389.21C722.985 380.521 736.446 378.271 745.585 371.312C751.695 366.659 755.457 353.43 748 349M709 227L695 241C701.521 244.806 711.306 251.875 719 250L711 229M692 241L695 241M761 242L759 244M718 251L720 253M163 263L162 264M715 264L713 266M674 271L671 275M608 272C606.738 275.981 606.752 281.484 604.397 284.907C598.056 294.12 581.267 305.337 571 309.761C567.359 311.33 563.645 309.74 560 311.092C549.361 315.038 538.198 324.667 532 334L534 336L567 313M539 273L539 276M142 286L141 287M604 289C603.992 301.662 603.026 305.437 617 306M130 300L128 302M604 307C604.042 318.913 590.268 319.159 582 324C570.968 309.127 591.258 306.008 603 306M613 307L605 312M574 311L577 313M574 313L567 314M605 315C605.837 321.48 614.976 340.207 610.058 345.356C608.025 347.485 604.305 345.804 602 345.069C594.297 342.612 587.779 338.51 580 336M751 350C761.659 342.564 774.43 338.868 786 332.891C802.765 324.23 812.28 315.054 832 315M762 343C766.98 333.259 794.042 319.358 805 320M580 322L563 331L578 335M582 324L590 338M114 325L113 327M228 325L224 336M740 326L759 344M610 328L618 329C613.538 335.392 620.001 338.998 617.759 344.907C616.46 348.331 606.852 355.728 603.093 354.658C599.454 353.623 596.965 347.912 595 345M215 336L225 328M589 334L591 329C597.128 334.14 600.927 337.977 608 332M171 331C177.358 334.524 189.906 336.571 197 335L198 332M557 331L563 331M167 333L131 356M197 334L209 337M879 334C878.915 344.26 877.927 354.791 876.834 365C876.402 369.04 874.508 375.03 876.198 378.911C880.895 389.7 901.463 397.519 911 403.424C936.399 419.153 956.264 440.268 980 457.997C987.224 463.392 994.377 468.855 1002 473.681C1004.5 475.261 1008.58 478.859 1011.79 477.698C1017.75 475.535 1019.34 459.388 1020.73 454C1026.29 432.396 1027.16 403.067 1039 384M532 335L526 341M108 338L104 345M104 347C102.665 352.611 102.958 357.034 106 362M601 357C593.36 366.154 579.846 366.841 569 368M292 358L294 359M222 365L229 359M292 361L282.296 409L274 444L291 424L282 413M152 368L188 363M109 369L109 371M578 369C591.18 378.851 611.873 386.643 628 390M108 373L108 376M743 373L734 398M105 385L104 387M630 394L630.741 425L630.988 437L656.911 466L705.95 518.7L733 542L730 539M94 401L97 399M168 448C145.667 463.266 122.14 470.44 101.039 448.985C92.4573 440.258 72.5459 406.879 92 402M293 406L291 422M644 406L646 406M291 426C291.504 435.614 289.396 443.777 284.315 452C279.785 459.33 274.97 466.585 270.609 474C268.663 477.308 267.972 481.485 263.945 482.893C253.719 486.468 247.023 478.297 239 473.781C224.432 465.581 203.218 458.4 188 470L209 477M293 428C314.125 457.756 284.436 493.121 266.011 517C261.349 523.042 254.197 538.432 246.995 540.757C229.823 546.301 215.177 537.318 199 535.614C195.332 535.228 191.39 537.989 188 539.163C180.154 541.88 171.398 543.286 164 547C169.345 552.804 178.859 553.355 186 556.066C191.581 558.184 196.313 562.39 202 564.058C222.199 569.984 235.711 557.223 247 543M853 443C842.802 451.344 831.45 458.796 822 468.015C803.178 486.375 787.565 506.819 766 522.29C757.995 528.033 743.296 543.165 733 542M730 536L706 484C716.461 480.914 725.144 488.372 733.61 477.981C739.076 471.272 740.846 462.065 743.34 454C744.316 450.845 744.732 446.086 748.147 444.603C757.819 440.405 773.942 445.872 784 446.83C805.968 448.922 827.334 448.202 849 444M273 445L273 448M165 452L126 496L160 520.19L196 535M178 456L179 466M119 466C100.618 488.202 88.4834 518.925 89.2593 548C89.5327 558.247 96.0349 568.069 96.0887 577.961C96.1065 581.218 93.1262 583.947 92.1736 587.015C90.2051 593.354 89.0945 600.419 88.2863 607C86.2863 623.285 97.066 639.921 107 652C99.2419 659.42 91.7444 662.27 82 666M181 469C184.686 473.721 188.126 476.993 194 474M186 470L188 470M890 495C884.907 499.988 875.46 506.718 876.348 515C877.099 522.003 888.152 531.535 885.353 538C873.973 564.281 838.454 581.972 817 599M125 496L126 496M298 605L281.999 590.754L266 580.348L257.133 576.486L261.244 565.043L273.671 556.49L285 542L260 539C267.419 526.42 276.258 512.955 290 506.442C302.063 500.726 314.905 510.595 315.907 523C316.782 533.843 310.977 544.059 307.505 554C300.677 573.552 292.772 603.507 303 623C306.448 618.23 304.795 616.023 301 612M879 508L879 505M735 545C746.874 556.775 762.32 559.602 778 563.849C782.743 565.133 790.113 568.694 795 567.31C801.607 565.44 808.136 558.085 814 554.425C836.885 540.141 855.258 521.313 877 506M257 513L255 528M199 535C205.896 529.137 220.638 517.861 229 526C237.313 520.995 246.222 515.344 256 514M718 542C717.927 550.186 714.717 557.963 713.321 566C709.912 585.621 707.479 605.348 704.41 625C702.956 634.31 699.168 644.632 699.127 654C699.103 659.224 703.044 665.233 705.011 670C710.498 683.297 719.731 698.554 721 713C707.731 713.082 687.43 714.99 676 722C686.265 727.479 702.496 725.546 714 727L700.578 767L707.974 788L726.439 841L740.815 868L755.753 903L762.51 916.157L789 922L771 927C778.533 936.077 785.001 958.616 796.04 963.107C807.047 967.585 826.274 971.409 838 968.39C848.106 965.789 857.363 957.624 866 952.051C890.63 936.158 911.846 916.534 935 898.745C945.644 890.567 956.144 882.332 967 874.424C971.586 871.084 979.181 867.547 982.357 862.815C988.299 853.96 977.814 837.016 980.515 827C983.69 815.224 999.105 804.789 1006 795C1001.49 793.666 982.23 791.294 979.206 795.603C975.825 800.423 979.394 818.568 981 824M155 547L164 547M229 563C221.946 576.933 198.948 591.437 186 600M97 581L114 600M100 584C101.886 594.581 110.308 602.781 113.211 613C115.632 621.519 113.498 629.61 112.3 638C111.331 644.786 113.063 648.594 107 653M115 603C120.936 612.561 122.115 627.885 123 639M303 624C293.717 634.728 286.286 656.472 273 662.344C264.41 666.141 255.332 660.514 248.001 656.515C245.763 655.295 242.1 653.452 241.042 657.134C239.503 662.488 249.808 664.53 253 666.609C261.74 672.301 270.319 678.364 279 684.167C282.357 686.412 287.928 689.043 289.357 693.093C291.232 698.406 287.38 706.727 286.285 712C282.981 727.922 275.99 746.652 276.432 762.961C276.594 768.931 282.606 777.166 284.692 783C292.047 803.573 300.957 826.74 313 845C306.467 849.839 299.824 850.004 292 850M302 625C309.805 637.272 311.711 651.427 315.706 665C325.154 697.096 331.185 729.56 338.884 762C347.171 796.915 365.12 829.261 370 865M679 625L698 654M683 631L684 632M684 633L686 635M688 633L697 641M124 641L130 676L129 670M200 644L220 662.505L239 661L230 682M114 649L124 646M702 647L737.59 686.83L753.508 703.17L750 721M113 652C111.922 671.416 125.112 700.801 141 712L138 693L156 700.335L179 691.171L219 676M108 654L112 657M95 664L113 666M223 665C227.975 668.917 229.504 672.78 230 679M116 667L122 669M130 676L131 679L132 676M219 678C213.353 687.666 208.803 700.945 200.79 708.852C196.723 712.865 190.182 712.31 185 714.079C169.169 719.481 153.186 728.385 141 712M131 679L138 708M136 691L138 693M722 714L730 713M722 714C720.458 716.808 717.205 720.589 717.368 723.942C717.506 726.77 722.754 730.124 724.879 727.306C726.711 724.876 723.805 719.476 723 717M884 717C890.799 719.044 893.396 729.827 895.68 736C902.763 755.141 907 776.571 907 797L900 797M889 717C913.855 717 932.888 719.555 956 729.124C961.081 731.228 971.595 730.522 974.836 735.303C977.999 739.97 977 747.679 977 753C977 766.387 978 779.648 978 793M144 720C145.827 737.832 166.322 758.819 182 766C182.011 760.437 175.69 754.012 178.604 748.357C179.918 745.809 190.861 744.978 194 743.487C212.058 734.908 230.743 732.402 250 728C252.483 748.119 225.651 764.952 210 770.586C205.577 772.179 197.809 776.021 193.09 774.932C189.064 774.003 185.164 768.583 182 766M671 722L676 722M749 723L748 728M716 725L714 727M747 731C742.802 745.905 739.622 760.68 737.428 776C736.704 781.056 735.814 789.734 740.303 793.397C746.145 798.163 758.587 794.232 765 792.746C786.198 787.835 805.583 778.035 827 774C826.963 787.289 821.063 801.9 825 815M275 767C274.555 776.708 268.454 783.652 264.27 792C259.542 801.433 256.646 811.646 251.738 821C249.066 826.094 245.35 832.159 239 832.696C221.912 834.14 212.577 814.81 205.235 803C202.638 798.821 199.056 795.489 197 791C201.97 791.406 207.047 793.547 211.985 791.848C219.062 789.413 225.568 776.704 228 770M281 769C294.755 782.793 307.81 799.429 319.366 815.015C333.924 834.65 345.574 853.562 369 864M828 773L827 774M197 791C193.522 787.365 186.16 781.336 189 776M225 781C223.782 786.823 222.595 791.491 216 792M189 788L192 788M768 819C762.425 822.499 759.654 819.736 756 815C761.446 814.636 765.122 817.508 770.17 818.666C782.274 821.443 801.84 827.238 814 824.61C834.416 820.196 848.876 799.456 869 793.525C876.202 791.403 889.531 795.613 897 797M908 798L943 797.705L977 795M908 798C908.373 816.054 912.907 833.911 913.001 852C913.021 855.94 912.384 868.759 916.434 870.763C920.292 872.672 929.341 867.879 933 866.396C951.687 858.82 964.454 842.154 978 828M318 1147C319.544 1153.27 323.454 1164.47 320.397 1170.68C317.471 1176.63 305.046 1171.6 303.241 1166.9C299.644 1157.52 316.058 1150.57 316.901 1142.87C317.853 1134.17 312.836 1122.7 311.438 1114C308.723 1097.1 307.724 1079.96 305.715 1063C305.201 1058.66 306.059 1039.91 300.775 1039C297.229 1038.39 294.105 1042.65 292.235 1045.02C286.656 1052.06 282.727 1061.01 276 1067C265.98 1050.69 254.717 1031.71 240.83 1018.43C236.145 1013.94 221.869 1006.05 221.613 998.999C221.4 993.141 231.005 988.355 235 985.417C249.172 974.994 265.31 967.665 279 956.54C293.07 945.106 308.598 929.715 314.402 912C316.51 905.566 312.429 885.498 317.434 882.028C321.25 879.382 329.425 880.619 334 879.711C352.198 876.099 376.243 878.064 393 870C383.495 852.86 371.256 809.408 396 799M750 812C738.383 812.008 731.778 811.479 740 799L756 815M774 818C781.868 813.114 800.476 800.328 810 802.657C815.146 803.916 819.414 809.424 823 813M359 823C367.578 815.577 377.223 806.945 388 803M358 823L336 839M335 838L314 847L320 859M742 868L747 840C759.292 846.57 770.131 855.078 785 854.054C793.241 853.487 806.356 843.938 814 847.475C826.055 853.054 829.1 869.37 838 878M303 851L319 858M748 881C776.742 884.632 806.442 881.19 835 878M789 922L825 924M911 922L951.309 1007L965.219 1036L960.424 1048L943 1080C935.673 1068.95 937.846 1050.07 928 1041M184 955L220 998M997 987L974.127 1042L959 1080L974 1073C971.528 1082.04 962.316 1093.43 964.089 1103C967.664 1122.3 980 1145.16 989.812 1162C993.874 1168.97 1004.56 1179.67 1004.46 1188C1004.41 1192.45 1000.65 1197.88 999 1202C994.296 1213.76 989.503 1225.45 984.312 1237C976.392 1254.62 967.151 1272.65 961.09 1291C957.368 1302.27 956.063 1314.17 951 1325C933.394 1317.55 920.986 1304 901 1300.46C885.865 1297.79 873.619 1303.69 859 1304M963 1026L994 991M961 1027C952.591 1033.91 941.372 1038 931 1041M276 1067C277.125 1071.29 280.174 1074.66 281.292 1079C283.715 1088.41 283.389 1100.31 282.961 1110C282.406 1122.55 276.326 1133.48 281.482 1146C285.226 1155.09 294.635 1160.15 302 1166M276 1070C270.797 1076.12 266.311 1083.72 262.89 1091C257.384 1102.71 251.688 1115.85 254.453 1129C257.296 1142.52 266.162 1146.01 274.83 1155.04C289.889 1170.73 306.643 1186.15 319.215 1204C337.768 1230.34 341.676 1272.65 330 1302M975 1072L974 1073M943 1080C942.331 1087.08 946.757 1090.58 948.647 1097C954.414 1116.6 967.738 1135.85 977.319 1154C980.239 1159.53 987.32 1167.82 987.955 1174C988.328 1177.62 984.328 1180.07 981.999 1182.17C976.212 1187.37 969.638 1194.88 962 1197L978.938 1169L970 1142M954 1092L946 1080L959 1080M956 1083L953 1090M941 1087L943 1088M941 1090L949 1101M38 1225C47.214 1196.73 65.8793 1182.63 88 1164.74C100.241 1154.84 111.243 1143.84 125 1136C133.371 1131.23 157.109 1118.84 166.697 1125.03C171.419 1128.08 172.55 1140.83 174.344 1146C180.583 1163.97 190.973 1180.62 196 1199C188.886 1198.38 181.344 1192.57 174.09 1194.33C169.372 1195.48 165.436 1201.63 162.039 1204.83C151.412 1214.84 142.228 1224.75 132.192 1235.25C128.869 1238.72 113.57 1246.53 112.907 1250.27C110.918 1261.51 128.408 1262.83 135 1262L137 1267L176 1233L167 1233L186 1212M319 1142C321.446 1138.86 331.616 1126.77 336.258 1130.71C341.304 1134.99 338 1155.71 338 1162C338 1184.5 342.309 1205.61 349.025 1227C352.104 1236.81 358.18 1252.29 353 1262C349.125 1253.99 349.746 1244.37 346.533 1236C338.22 1214.34 326.239 1192.45 311 1175M220 1187C219.585 1204.67 202.281 1223.86 211 1242L211 1232M961 1198C957.397 1203.16 953.507 1215.65 948.571 1218.97C942.846 1222.82 935.38 1217.79 929 1222.09C924.998 1224.79 913.353 1235.83 908.34 1233.12C900.033 1228.64 898.775 1211.51 891 1205M196 1199L199 1204M202 1204L207 1209L176 1232M213 1204L215 1207M200 1205L201 1211M213 1205L208 1209M217 1206L220 1206M936 1218L954 1206M898 1210C908.143 1214.82 917.663 1219.1 929 1220M203 1214L209 1225M188 1219L194 1216M202 1219C201.997 1223.23 202.986 1236.45 198.682 1238.64C193.49 1241.28 183.954 1238.29 178 1240L187 1255C193.289 1248.91 195.378 1246.08 189 1239M37 1227L37 1228M173 1229L173 1230M36 1230L36 1232M175 1230L177 1230M167 1233L136 1261M35 1234L34 1242M210 1243L211 1251L212 1242M33 1244L33 1250M195 1246L208 1256C196.227 1263.49 182.019 1267.54 169 1272.24C153.699 1277.76 141.814 1285.99 127 1274L134 1266M213 1250L218 1251C211.741 1262.01 208.824 1286.23 193 1286.51C183.789 1286.68 174.627 1274.19 165.04 1279.32C160.344 1281.83 159.552 1287.2 155.776 1290.5C150.144 1295.42 125.115 1303.99 120 1299L119 1297M211 1251L213 1256M32 1254L32 1255M211 1254L209 1256M31 1261L31 1272M353 1262C354.431 1269.71 357.637 1280.23 356.694 1288C355.757 1295.71 347.695 1302.68 342.001 1307.12C338.783 1309.63 335.701 1313.7 331.91 1315.26C312.683 1323.18 287.137 1313.95 267 1320M31 1275L31 1279M127 1275L124 1278L130 1280M354 1275L333 1299M970 1276L980 1275M883 1299C905.033 1283.33 940.761 1279.39 967 1276M978 1277C970.132 1290.02 963.532 1302.53 958.667 1317C957.564 1320.28 956.364 1330.34 952.697 1331.55C947.576 1333.25 937.133 1323.26 933 1320.71C924.733 1315.6 902.643 1308.98 893 1310.34C888.356 1310.99 881.651 1312.88 880.434 1318.02C878.592 1325.79 880.18 1335.05 879.985 1343C879.603 1358.62 878.645 1374.36 877.961 1390C877.649 1397.12 874.315 1409 877.603 1415.68C879.416 1419.37 886.667 1418 890 1418C901.798 1418 927.729 1405.25 928.911 1422C931.343 1456.48 926 1492.31 926 1527C926 1544.92 923.906 1563.01 946 1567L935 1542L950 1551.94L961 1546.38L991 1524C987.315 1536.8 981.326 1548.87 978.424 1562C977.564 1565.9 977.559 1574.54 973.686 1576.73C966.993 1580.53 955.351 1572.83 949 1571L955 1588L927.039 1562.6L909.028 1549.53L908.015 1528L909 1482L911 1459L914 1463L863 1477M31 1281L31 1289M246 1294C247.912 1300.41 249.904 1317.48 258.105 1319.54C262.572 1320.66 267.666 1313.18 272 1311.92C285.514 1307.98 296.936 1307.6 311 1307M33 1299L33 1302M108 1302C106.034 1303.53 104.115 1304.99 102.648 1307.04C91.6529 1322.47 117.324 1328.43 114 1342L80 1324M34 1304L34 1307M248 1308C248.031 1311.73 249.417 1316.44 248.218 1320C246.936 1323.81 243.301 1326.88 240.888 1330C233.601 1339.42 224.777 1353.33 213 1357.25C202.175 1360.85 190.584 1357.87 180 1361C185.319 1365.65 193.708 1365.66 200 1368.81C209.406 1373.52 218.751 1386.79 230 1386.79C235.431 1386.79 241.033 1382.73 246 1380.81C253.908 1377.75 262.505 1376.13 271 1376.02C287.663 1375.81 306.292 1383.01 322.715 1377.39C327.087 1375.89 330.261 1371.33 334 1368.75C340.175 1364.5 347.566 1362.5 354 1358.71C359.633 1355.39 364.475 1350.3 371 1349C369.884 1355.26 366.053 1372.51 360.856 1376.26C352.77 1382.09 334.512 1379 325 1379M276 1312L269 1318M39 1320L41 1323M319 1376C328.062 1368.27 336.862 1359.47 342.895 1349C345.275 1344.87 344.65 1335.71 348.514 1333.05C351.162 1331.23 355.075 1332.52 358 1331C362.168 1328.83 366.648 1320.46 371.787 1321.04C376.537 1321.57 380.743 1336.18 379.018 1339.91C377.601 1342.97 374.014 1345.26 372 1348M43 1324L78 1323M578 1361C557.034 1354.38 534.898 1342.73 512 1345.17C494.593 1347.03 479.688 1357.03 463 1360C464.669 1350.79 473.149 1346.56 481 1342.92C496.474 1335.77 512.501 1334.51 529 1331.54C537.769 1329.96 548.433 1327.28 557 1331.09C566.181 1335.16 571.934 1346.57 576.399 1355C585.695 1372.56 597.489 1390.15 601.486 1410C604.776 1426.34 599.799 1444.69 598.169 1461C594.89 1493.8 593.935 1525.99 584.576 1558C579.836 1574.21 573.718 1594.98 560.957 1606.81C547.083 1619.68 526.241 1621.71 516 1604M115 1341C118.886 1345.36 120.227 1352.64 127 1352L121 1346M127 1352C144.533 1358.27 161.48 1361.38 180 1361M138 1358C145.756 1363.52 155.492 1366.62 164 1361M463 1360C458.12 1374.39 483.134 1388.38 495 1389.82C512.385 1391.93 537.063 1386.5 554 1382.25C560.512 1380.62 572.729 1374.4 578.697 1379.56C584.323 1384.44 580.321 1392.89 582 1399L588 1381M455 1613C457.662 1608.99 460.461 1604.58 462.024 1600C463.556 1595.51 466.361 1587.7 465.731 1583C464.699 1575.29 456.16 1573.77 450 1572.26C438.394 1569.42 420.157 1567.92 414.879 1555C411.201 1546 410.665 1535.34 407.795 1526C406.135 1520.6 402.328 1515.72 402.048 1510C401.429 1497.37 405.614 1482.73 406.83 1470C410.977 1426.6 418.881 1384.42 461 1362M363 1375C369.268 1386.74 362.082 1405.86 362.999 1419C364.137 1435.29 374.268 1450.09 379.305 1465C381.396 1471.19 379.916 1477.93 382 1484L391 1483C389.898 1493.72 390.165 1498.11 397 1507C393.933 1508.16 389.067 1505.86 386.728 1507.73C381.887 1511.61 381.552 1526.23 380.729 1532C377.235 1556.51 379.139 1587.23 389 1610L389 1605M581 1400C573.761 1427.1 555.543 1449.02 542.001 1473C538.497 1479.2 539.131 1493.71 533.683 1497.77C521.319 1506.98 506.558 1504.33 493 1505.6C486.365 1506.22 476.889 1513.43 470.147 1509.84C462.884 1505.97 465.848 1486.27 463.697 1479.09C461.93 1473.2 453.705 1471.75 449 1469L470 1466.03L520 1457M841 1416L876 1438.82L907 1458L876 1472M845 1416L876 1418C876.97 1440.59 909.983 1433.99 910 1456L926 1448M380 1480C370.057 1467.06 362.294 1451.96 355.873 1437C351.828 1427.57 348.794 1418.29 362 1421M365 1424L368 1425M374 1429C392.73 1436.26 397.017 1465.85 391 1483M601 1630C615.362 1619.71 631.442 1609.27 649 1605.67C653.256 1604.79 665.511 1603.42 667.096 1609.23C668.412 1614.05 663.8 1622.34 662.411 1627C657.496 1643.47 651.923 1664.76 638.96 1676.89C630.295 1685 615.52 1683.09 609.214 1672.99C601.442 1660.54 600.49 1643.2 598.807 1629C593.136 1581.15 608.536 1529.18 636.144 1490C646.576 1475.2 668.53 1441.39 690.999 1448.02C699.325 1450.48 702.027 1459.39 703.385 1467C706.693 1485.54 705.933 1506.17 706.001 1525C706.141 1563.9 709.468 1603.25 704.816 1642C702.806 1658.74 691.524 1673.74 689.799 1690C688.501 1702.25 694.272 1715.49 697.72 1727C706.409 1756 712.698 1796.43 752.985 1788.77C760.325 1787.38 763.998 1778.32 768.123 1773C777.037 1761.51 787.193 1746.84 801 1741C800.093 1745.34 796.662 1750.66 797.079 1755C799.904 1784.45 841.326 1798.03 864 1806.81C870.937 1809.5 877.81 1813.66 885 1815.49C895.739 1818.21 906.806 1816.16 917 1821.37C927.113 1826.55 931.642 1836.25 938 1845M910 1456L908 1458M518 1459C517.719 1464.93 519.421 1473.48 515.836 1478.69C513.641 1481.87 508.402 1481.81 505 1482.75C490.007 1486.88 478.548 1480.45 469 1468M493 1503L478 1486C487.009 1482.66 487.83 1477.28 491 1469L500 1478L517 1463M441 1468L449 1469M496 1506L523 1491.93L539 1477M393 1481L399 1480M389 1486L380 1501L357 1489L380 1484M382 1484L385 1489M476 1486L478 1486M381 1487L381 1493M347 1491L356 1489M385 1490L389 1494M390 1497L386 1505M378 1501C377.234 1515.96 364.749 1530.99 369 1546L372 1529M380 1501L385 1505M995 1520L992 1523M988 1526L990 1528M929 1536L935 1542M369 1546C369 1561.63 369.001 1576.85 376 1591L376 1586M947 1568L949 1571M368 1572L374 1587M944 1579C942.365 1584.41 945.386 1588.83 946.921 1594C950.624 1606.46 955.387 1618.51 958.961 1631C964.127 1649.05 962.198 1672.15 970.433 1688.96C975.382 1699.07 990.233 1703.7 994.397 1714.09C1000.14 1728.42 998.123 1747.73 1002.43 1763C1006.45 1777.27 1009.16 1792.41 1011.44 1807C1012.18 1811.75 1012.57 1820.94 1017.23 1823.57C1034.96 1833.57 1054.58 1806.67 1066 1796.02C1070.85 1791.5 1079.5 1787.2 1079.96 1780C1081.24 1759.66 1069.43 1741.61 1056.29 1727.34C1052.11 1722.79 1046.87 1720.08 1043 1715C1034.17 1719.78 1027.52 1712.99 1021 1707C1029.61 1700.89 1043.95 1695.72 1049 1686C1039.41 1683.19 1013.12 1689.32 1029 1701M955 1588L958 1591M470 1674C462.035 1678.15 453.203 1673.35 445 1672.21C435.206 1670.84 408.225 1677.66 415 1658L423.985 1660.78L438.921 1652.22L456 1668.77L494 1678L497 1674C506.746 1678.69 527.826 1658.11 525.344 1648C519.349 1623.57 495.508 1609.14 478 1594C491.798 1588.18 504.078 1588.6 513 1601M376 1591L387 1607M379 1591L379 1594M439 1651L434 1632L416 1656C411.074 1642.85 415.989 1632.17 407 1620C412.554 1618.35 417.863 1618.68 423 1615.44C434.82 1608 446.379 1593.16 461 1594M391 1611C393.703 1616.46 400.478 1617.32 406 1619M391 1613C387.37 1618.52 391.846 1621.64 397 1624L396 1619L392 1621M384 1615L388 1616M398 1625L408.798 1652L410 1680C421.271 1676.67 441.146 1678.73 452 1682.91C460.615 1686.23 474.54 1693.98 483.996 1691.82C489.852 1690.48 492.314 1683.02 494 1678M401 1628L402 1629M627 1716C618.131 1719.45 609.376 1719 600 1719C579.112 1719 553.277 1717.35 535 1706C544.626 1686.32 561.566 1665.48 577.001 1650C583.117 1643.86 590.008 1636.56 598 1633M1083 1638L1030 1667.72L993 1683L1021 1694M444 1654L463 1669M446 1655L444 1657M416 1656L416 1658M410 1658L413 1659M450 1660L448 1662M1083 1663L1074 1679L1082 1676M500 1670L498 1673M1074 1679C1066.84 1684.12 1058.08 1691.65 1049 1687M409 1681C411.184 1689.4 420.084 1695.09 426 1701C432.093 1707.09 442.728 1720.67 451.001 1723.16C464.527 1727.24 481.566 1703.37 485 1693M992 1683L993 1683M1050 1685L1065 1683M409 1686C408.876 1692.93 413.885 1698.07 413.921 1705C413.999 1720.16 405.253 1737.87 414.133 1752C424.488 1768.48 446.256 1772.4 464 1775.8C487.886 1780.38 508.416 1774.88 531 1767.52C564.274 1756.68 593.807 1743.19 621 1720M1061 1690L1048.04 1703.53L1043.5 1708.16L1051 1718M1028 1699L1039 1694M817 1701C811.392 1711.92 805.08 1724.61 804 1737C821.538 1731.18 821.925 1719.17 818 1704M1083 1701L1073.57 1726.97L1058 1726M1031 1702L1042 1709M1041 1702L1044 1705M1074 1703C1068.69 1706.78 1055.29 1709.88 1058 1718L1068 1709M1047 1706L1056 1714M1047 1708L1044 1712M1039 1711L1043 1713M1058 1718L1052 1724M803 1738L801 1741M798 1743L800 1745M1080 1787L1080 1802M99 1821L101 1821M49 1822L52 1822M59 1822L60 1822M108 1822L116 1824M96 1825L100 1824M47 1825L49 1827M60 1827L67 1830M116 1827C112.65 1833.72 112.639 1837.79 104 1838M7 1829L12 1830M26 1831L38 1829M1083 1829L1064 1838C1069.03 1844.75 1075.29 1844 1083 1844M76 1830L88 1830M48 1834L50 1833M65 1836L67 1835M101 1835L98 1836M3 1839L9 1838M1060 1838L1064 1838" transform="translate(-577.122,-226.816) scale(1.25649,0.41497)"/></svg>