<svg xmlns="http://www.w3.org/2000/svg" xmlns:svg="http://www.w3.org/2000/svg" xmlns:sodipodi="http://sodipodi.sourceforge.net/DTD/sodipodi-0.dtd" xmlns:inkscape="http://www.inkscape.org/namespaces/inkscape" xmlns:xlink="http://www.w3.org/1999/xlink" width="210mm" height="297mm" viewBox="0 0 210 297">
  <sodipodi:namedview/><g inkscape:label="Ebene 1" inkscape:groupmode="layer" id="layer1">
    </g>
<path style="fill:none;stroke:#000000;stroke-linecap:round;stroke-width:5.0" d="M250 172C211.855 174.126 181.327 176.583 150.289 201.505C137.868 211.479 130.558 227.517 117 236C114.138 226.317 116 214.076 116 204C116 169.562 121.878 137.19 136.703 106C142.648 93.4916 150.798 75.4417 164 69.1643C176.35 63.2917 191.582 72.6638 199.961 81.0393C210.113 91.1881 217.021 103.938 224.533 116C234.931 132.695 249.575 151.495 250 172M64 133C51.8756 158.92 39.5143 186.684 31.0255 214C26.888 227.314 26.1459 242.132 21.7963 255C18.5882 264.491 6.73145 273.239 6.0054 283.853C5.70664 288.22 17.9135 290.293 20.9992 292.236C29.654 297.685 33.5873 308.036 31.7716 318C29.3082 331.518 10.3131 339.026 7 353C15.5174 351.861 21.5324 343.936 27.0895 337.999C31.3992 333.395 40.1246 328.294 42.8827 322.791C44.9863 318.594 42.2689 311.318 41.4599 307C38.7463 292.518 34.2527 279.947 24 269C20.4889 273.936 16.2716 280.821 17 287L29 277M135 459C131.851 461.236 125.901 463.64 124.198 467.213C119.068 477.972 130.604 488.257 138 493.347C154.869 504.958 166.466 509.479 187 505.539C210.928 500.948 230.935 484.601 249 469.438C289.085 435.794 326.448 394.887 349.111 347C351.931 341.042 359.178 320.45 352.397 315.027C347.279 310.935 334.16 313 328 313C312.686 313 298.258 312.144 285.004 303.452C275.617 297.296 274.047 286.496 274.001 276C273.902 253.846 283.452 233.826 289.576 213C291.429 206.696 293.917 200.574 294.707 194C295.052 191.125 293.967 187.206 296.407 185.075C305 177.57 323.276 176.749 334 173.849C350.441 169.402 370.282 164.411 387 170.388C408.34 178.017 417.651 200.451 421.08 221C427.678 260.544 428.728 300.328 422.576 340C417.627 371.91 411.953 406.735 400.575 437C392.996 457.159 379.284 474.449 370.309 494C352.439 532.923 338.212 574.136 329.014 616C315.855 675.891 322.389 732.798 328.834 793C339.556 893.146 364.506 1001.32 421.745 1086C442.276 1116.37 468.604 1140.03 494.985 1165.09C515.264 1184.35 536.525 1202.79 558 1220.75C570.4 1231.13 587.192 1242.86 595.405 1257C601.721 1267.87 605.15 1280.69 610.752 1292C612.407 1295.34 614.244 1303.22 619.044 1302.72C632.36 1301.32 645.85 1277.21 652.192 1267C663.987 1248.02 674.667 1227.64 676.83 1205C678.957 1182.74 666.441 1150.96 652.535 1134C629.93 1106.42 593.388 1088.64 564 1069.3C545.375 1057.05 529.58 1041.42 512 1027.88C485.166 1007.22 461.097 991.945 455.439 956C447.955 908.45 480.831 870.104 502 831C511.842 812.819 525.966 786.307 518.387 765C514.402 753.797 502.25 748.662 493 742.657C474.939 730.931 453.905 725.266 433 721.004C416.252 717.59 398.91 715.706 384 706.677C363.789 694.438 368.307 670.389 366.91 650C366.343 641.712 366.27 632.735 362.891 625C361.466 621.737 355.289 616.965 356.346 613.289C358.256 606.643 376.336 599.361 382 595.656C398.145 585.096 413.545 573.463 428 560.714C436.789 552.963 444.07 543.75 455 538.799C469.673 532.153 484.638 552.055 487.765 565C495.393 596.584 495.799 630.124 509.478 660C515.553 673.266 527.527 684.657 536.55 696C549.852 712.721 562.285 730.229 575.601 747C633.887 820.41 641.291 917.771 652.285 1007C656.922 1044.64 663.176 1083.02 671.651 1120C681.774 1164.17 696.209 1206.13 713.453 1248C728.313 1284.08 746.363 1318.47 755.112 1357C766.902 1408.93 762.33 1469.32 743.575 1519C739.813 1528.97 732.039 1554.72 720.996 1558.36C716.116 1559.96 708.793 1557.39 704 1556.23C690.586 1552.98 677.096 1549.7 664 1545.33C614.425 1528.81 565.605 1521.51 525 1485.71C511.975 1474.23 500.119 1459.83 493.138 1444C491.533 1440.36 487.897 1428.26 482.999 1428.46C477.389 1428.69 475.418 1438.89 474.374 1443C470.225 1459.36 466.133 1475.72 458.742 1491C442.051 1525.5 414.794 1553.42 393.519 1585C376.875 1609.71 367.692 1637.02 354 1663C365.148 1665.41 381.195 1659.2 392 1656.14C434.559 1644.08 471.085 1619.04 497 1583M225 206C216.802 208.192 201.113 211.697 195.488 218.394C190.208 224.679 201.304 243.052 208.285 244.08C212.192 244.656 221.374 239.081 225 237.244C231.025 234.191 237.926 230.49 242.826 225.79C256.842 212.345 251.742 190.275 251 173C265.92 173 283.69 174.996 294 187M293 186C281.946 193.345 265.699 204.72 253 208M215 240C216.916 226.878 237.929 215.153 250 213M207 245C195.381 253.441 182.284 257.441 168 255.921C165.052 255.608 155.693 254.24 154.176 251.401C152.211 247.721 159.716 242.429 161.91 240.439C170.492 232.658 180.956 221.575 193 220M24 269C25.558 257.098 36.9061 236.447 47 230M25 250L34 242M22 259L24 266M34 278C38.481 278 45.7145 276.629 49.6713 279.028C55.5455 282.589 56.9129 291.877 57.7184 298C59.8543 314.236 58.442 330.878 61.0802 347C62.1324 353.429 61.3217 365.357 68.108 368.958C73.6239 371.884 83.6963 365.517 89 363.657C105.392 357.906 116.947 351.204 135 353.576C138.59 354.047 143.526 353.267 146.682 355.318C153.357 359.656 139.986 380.896 138 387M17 287L17 289M14 290L8 304M44 325C44 336.274 44.4898 343.539 37.5756 352.942C34.0954 357.675 25.6656 359.517 24.7276 366.004C23.7072 373.06 35.8261 387.904 38.7716 395C44.0422 407.696 44.883 423.273 52.3526 434.91C59.8727 446.625 82.9354 452.156 96 452L92.9753 409L90.6821 394.858L69 392M23 345L31 356M42 348C50.0057 360.129 48.0277 380.069 54.0949 394C62.5789 413.481 85.0142 427.398 87 450M7 353L4 356M88 393C91.0362 387.155 98.4406 384.751 104 381.688C114.685 375.802 132.245 356.86 143 371M119 458C114.561 445.244 126.48 439.697 136 434.153C147.375 427.528 163.988 415.492 177 413.607C184.025 412.589 191.977 414.481 199 415M197 417L176 436.985L146 452M90 453L105 487M97 470C100.089 464.204 97.8252 459.128 97 453L117 456M348 1666L350 1674L353 1665C293.905 1668.35 236.109 1692.1 181 1711.34C164.289 1717.18 147.632 1723.13 131 1729.18C124.568 1731.52 116.889 1736.81 110 1736C117.07 1721.15 140.409 1707.74 153 1697.25C190.878 1665.68 230.62 1636.29 270 1606.63C283.971 1596.1 297.14 1584.55 311 1573.88C314.424 1571.24 324.459 1566.44 324.914 1561.87C326.593 1544.98 319.389 1523.91 317.285 1507C312.105 1465.37 305.304 1422.47 287.691 1384C276.095 1358.67 259.508 1335.48 243.255 1313C234.035 1300.25 222.958 1287.55 211 1277.3C192.845 1261.74 173.052 1248.42 168.325 1223C164.55 1202.7 170.87 1182.88 174.385 1163C180.091 1130.72 184.691 1097.99 196.053 1067C204.949 1042.74 229.124 1020.99 218.174 993C208.112 967.286 189.038 944.668 181.427 918C168.991 874.417 177.451 829.524 189.573 787C196.337 763.27 203.497 739.611 215.72 718C225.375 700.929 237.257 687.764 250 673C259.874 661.559 271.39 649.269 287 647M286 648C285.036 652.999 281.929 657.06 280.666 662C274.86 684.71 269.655 707.735 262.252 730C256.518 747.245 248.17 763.656 242.519 781C231.16 815.857 226.172 852.824 221.715 889C219.747 904.974 218.702 921.035 216.715 937C215.566 946.234 212.866 957.817 215.51 967C218.329 976.79 227.703 987.207 234 995C258.163 1024.9 294.573 1042.33 317.625 1073C339.689 1102.36 357.674 1134.88 378.721 1165C397.951 1192.52 420.413 1216.96 434.138 1248C452.038 1288.49 457.757 1334.1 467.425 1377C471.161 1393.58 482.305 1410.45 484 1427M496 1455C496.339 1496 474.607 1528.12 445.715 1556.58C433.911 1568.2 417.376 1579.75 407.843 1593.17C404.78 1597.48 405.29 1604.88 403.717 1610C398.746 1626.19 391.149 1643.32 375 1651C369.85 1633.54 389.785 1604.1 405 1597M326 1562C346.812 1556 362.773 1547.43 385 1545.91C400.373 1544.86 409 1541.5 409 1560M326 1566L340.475 1635L347 1665M409 1568L408 1590M350 1674C350 1691.79 340.789 1715.94 349 1733C356.649 1725.52 354.73 1695.86 350 1687M349 1733L349 1735M110 1736L88 1757M1102 1752L1099 1779" transform="translate(-577.122,-226.816) scale(0.91878,0.317746)"/></svg>