<svg xmlns="http://www.w3.org/2000/svg" xmlns:svg="http://www.w3.org/2000/svg" xmlns:sodipodi="http://sodipodi.sourceforge.net/DTD/sodipodi-0.dtd" xmlns:inkscape="http://www.inkscape.org/namespaces/inkscape" xmlns:xlink="http://www.w3.org/1999/xlink" width="210mm" height="297mm" viewBox="0 0 210 297">
  <sodipodi:namedview/><g inkscape:label="Ebene 1" inkscape:groupmode="layer" id="layer1">
    </g>
<path style="fill:none;stroke:#000000;stroke-linecap:round;stroke-width:5.0" d="M417 36L420 36M429 37L431 37M384 38L385 38M442 39L443 39M359 43L362 43M353 45L355 45M291 129C281.919 92.0391 316.88 56.0579 350 47M481 51C501.852 51.8932 525.143 73.8311 542 84.564C567.443 100.763 593.285 119.628 607.68 147C612.9 156.926 611.195 172.06 616.944 180.726C619.173 184.087 623.935 185.945 626.714 189.015C635.169 198.358 643.628 209.169 650.077 220C664.898 244.89 670.926 277.246 668.911 306C668.197 316.181 663.831 325.829 663 336L715 313C702.877 347.978 669.301 373.968 659 410C680.171 415.041 701.918 415.091 722 425.12C729.913 429.072 737.595 433.916 744 440.039C793.566 487.431 732.812 557.354 697.985 593C690.242 600.925 682.821 609.167 675 617C664.493 627.524 653.512 637.488 643 648C629.501 661.499 615.512 674.488 602 688C599.719 680.283 601 671.018 601 663C601 642.877 602.831 622.924 605.575 603C614.62 537.333 629.474 471.273 658 411M182 256C170.648 251.914 163.351 252.774 153 259C138.294 225.98 134.998 186.682 135 151C135.001 137.988 137.036 118.097 151.001 112.228C157.205 109.621 165.551 110.943 172 111.87C196.364 115.373 223.934 133.003 227.866 159C234.791 204.79 211.06 243.341 186.951 280C175.09 298.034 164.69 316.93 152.667 335C149.388 339.927 144.791 351.427 138 350M416 134C448.044 115.014 489.319 103.7 526 116.941C559.562 129.056 587.049 155.82 614 178M423 130C429.803 132.625 438.421 127.548 445 125.355C458.728 120.779 472.434 116.626 487 116M521 123L522 124M295 161L296 161M591 265C588.147 280.81 570.933 297.05 560 308C550.896 317.118 541.922 326.572 531 333.565C518.62 341.492 504.308 350.524 489 349.956C479.082 349.588 467.904 341.814 460 336.279C432.994 317.365 417.244 282.086 399.761 255C391.611 242.373 379.614 233.857 367 226.19C363.544 224.089 353.951 221.027 354.801 215.957C355.758 210.246 362.589 205.715 367 202.749C379.61 194.271 394.297 188.643 408 182.22C454.397 160.472 507.611 157.167 554 180.034C571.339 188.581 592.323 202.616 598.64 222C603.308 236.319 590.434 241.582 578 240.267C555.354 237.872 534.046 218.716 510.144 220.782C505.613 221.173 505.766 229.751 502.772 232.61C496.405 238.688 485.118 238.97 477 237.335C462.85 234.485 450.056 232.573 436 237.029C432.206 238.231 424.204 239.858 424.539 245.044C425.076 253.363 433.813 262.851 437.691 270C446.828 286.841 463.179 313.225 484 316.241C497.776 318.237 516.541 310.901 529 305.573C544.993 298.733 558.241 287.838 572 277.474C582.861 269.294 593.684 262.851 600.779 251C611.889 232.44 616 204.261 616 183M296 167L296 168M587 170L589 172M296 173L297 173M453 209C454.028 203.7 454.938 188.181 459.564 185.067C462.314 183.217 467.032 185.509 470 185.826C475.6 186.426 480.653 185.39 486 183.859C490.042 182.701 502.861 175.483 506.142 178.647C508.785 181.196 507.999 186.708 508 190C508.004 199.728 507.2 209.327 507 219C490.463 219 474.88 216.25 459 211.794C454.906 210.645 449.551 212.133 446 210.201C438.147 205.927 430.426 196.293 424 190M596 178L613 198M297 179C297 222.643 252.441 254.548 224 283C215.644 291.36 207.273 299.973 198 307.334C195.659 309.192 189.207 312.391 189.207 315.866C189.207 319.102 196.724 320.8 199 322.029C208.406 327.108 220.066 332.28 226.682 341.004C231.576 347.457 227.456 354.967 227.109 362C226.862 366.99 229.5 370.912 232 375L205 391.985L195.327 399.069L203 408M615 204C625.635 217.323 614.652 236.425 605 247M443 209L414 219.553L396 227M417 217L431 212M19 242L20 242M179 255C172.631 259.203 162.571 259.844 155 260M153 259C146.127 267.043 124.916 268.424 115 267M154 262L160 280C167.668 271.988 187.422 251.427 188 276M146 265C146.003 269.874 145.522 276.581 147.885 280.995C151.654 288.038 158.06 287.374 160 280M124 269L146 280M161 286L158 288M162 287L159 288M163 290L164 292M139 383C139.746 395.559 145.102 403.155 132 409L146 435C139.721 432.047 136.342 425.67 132.692 420C118.326 397.682 121.421 364.539 134.465 342C138.638 334.787 144.008 328.781 150 323.039C152.203 320.928 156.669 318.269 157.079 314.961C157.519 311.409 152.873 307.673 151 305L177 294M148 305L151 305M716 312L715 313M662 337C656.926 356.562 648.777 374.01 639.753 392C638.165 395.165 629.896 406.143 632.736 409.307C635.624 412.524 651.565 410 656 410M631 409C626.09 412.664 621.736 410.618 616 411.286C602.302 412.879 588.635 414.444 575 416.59C526.451 424.232 478.739 436.157 430 442.576C415.098 444.538 380.594 443.061 383.316 420C386.152 395.98 427.981 402.79 445 401.17C489.037 396.979 534.384 389.139 576 373.576C592.832 367.281 609.742 360.893 626 353.219C636.474 348.275 649.431 340.185 661 339M142 351L162 361M141 352C143.108 364.646 155.564 369.477 165 375.234C174.761 381.189 184.707 389.183 192 398C182.028 402.694 163.441 380.441 157 374M140 357L145 364M235 375C249.491 362.001 282.631 352.601 301 360.904C306.557 363.416 323.537 372.98 320.643 380.866C318.517 386.661 305.173 387.731 300 388.562C286.286 390.764 271.124 388.854 258 384.485C249.627 381.697 240.601 376.231 232 375M141 387C146.772 391.786 148.497 397.747 144 404C157.275 416.954 170.297 405.974 185 401M192 398L194 398M191 400L194 403M627 413C624.178 420.445 618.392 426.246 614.309 433C600.918 455.149 577.476 487.047 553 497.471C542.778 501.825 530.781 499.567 520 500.039C501.336 500.857 482.611 502.339 464 504.17C427.826 507.729 390.558 521.278 356 531.974C340.641 536.729 322.317 538.815 308 546C319.541 560.178 334.909 571.253 346.335 586C349.455 590.026 356.413 597.627 356.288 602.985C356.191 607.141 351.251 609.212 348 610.546C339.25 614.138 328.45 613.858 320.148 617.738C313.734 620.736 320.374 633.284 315.566 638.775C307.896 647.536 285.796 647.436 275 648.714C260.77 650.399 243.259 651.864 229 650.911C225.66 650.687 215.293 647.78 213.175 651.603C211.101 655.348 221.334 667.452 223.218 671C226.859 677.854 229.054 686.078 234.213 691.985C243.863 703.032 264.471 704.476 277.941 700.683C283.051 699.244 280.561 695.269 277.941 692.714C273.295 688.187 261.337 679.188 271.019 673.996C285.354 666.309 304.394 670.999 320 668.561C335.296 666.172 349.801 660.099 365 657.261C387.204 653.115 410.078 652.254 432 648M146 435L151 440M162 478C156.054 476.759 155.634 472.866 160 469C161.866 472.343 162.185 476.901 164.484 479.856C169.496 486.301 175.807 487.099 178.899 496C182.006 504.944 181.978 514.866 184.721 524C185.655 527.108 186.918 532.592 190.214 534.079C194.258 535.903 200.118 528.083 203 525.9C212.327 518.835 222.296 514.949 234 515.001C251.127 515.077 270.521 523.98 285 532.649C291.739 536.684 300.259 545.118 308 546M167 483C167.695 490.955 172.152 498.047 172.812 506C173.638 515.96 170.282 526.916 169.986 537C169.861 541.264 166.353 552.086 171.268 554.623C178.382 558.297 188.405 540.461 192 536M17 500L17 501M191 537C213.105 558.154 243.79 556.106 272 552.13C281.456 550.798 293.947 550.337 302 545M168 555L167 567C160.827 563.688 157.19 552.598 159 546L167 552M168 568C171.416 582.901 178.648 596.658 189 608M313 618C297.703 619.207 282.247 620.719 267 622.17C254.833 623.328 243.372 625.288 232 619.366C227.275 616.905 211.116 607.247 211.921 601.09C213.067 592.329 235.388 589.636 242 588.845C262.457 586.397 289.984 585.688 305.895 601.184C311.35 606.497 312.616 614.082 317 620M193 642L212 651M421 651C414.538 655.98 406.288 658.175 399 661.756C374.725 673.683 346.983 682.658 321 690.14C310.122 693.272 297.055 694.954 287 700C295.752 715.143 304.58 726.227 308.193 744C313.233 768.795 311.33 803.084 329.185 822.985C353.447 850.028 392.3 841.061 422 829.95C473.432 810.709 517.973 769.13 557.015 731.911C571.737 717.875 585.25 700.524 602 689M602 691C602 761.157 625.712 829.932 612.195 900C608.199 920.714 601.833 942.028 588.667 958.907C579.747 970.34 562.4 983.888 560 999C567.788 995.366 584.736 975.996 582 967M282 698L287 700M605 934C622.928 915.255 638.687 894.268 656.424 875.286C668.827 862.014 682.242 848.977 696 837.13C707.07 827.599 718.021 818.179 730 809.77C788.596 768.637 884.841 722.572 946 783.004C956.023 792.908 965.323 802.992 972.807 815C984.59 833.906 996.001 855.434 1001.99 877C1010.18 906.504 1016.92 938.276 1017 969M583 1064C589.012 1046.23 597.565 1029.15 605.14 1012C637.122 939.609 683.66 864.9 754 824.579C794.252 801.505 855.697 789.792 897 817.104C913.824 828.229 926.815 846.37 936.055 864C963.994 917.308 964 978.561 964 1037C964 1074.65 965.315 1112.42 966.961 1150C968.117 1176.41 967.957 1206.57 976 1232C985.216 1224.51 987.131 1204.12 990.29 1193C1001.24 1154.48 1008.74 1112.86 1012 1073M527 1344C528.021 1334.86 527.372 1326.17 529.425 1317C535.234 1291.05 552.23 1275.96 576 1265.74C584.918 1261.91 611.592 1254.21 618.047 1265.06C623.48 1274.19 613.873 1292.76 609.753 1301C599.355 1321.8 585.975 1340.86 574.427 1361C567.675 1372.78 562.535 1387.59 554 1398L512 1322C504.228 1336.34 503.296 1359.85 500.586 1376C496.439 1400.72 490.925 1425.2 487.272 1450C484.505 1468.78 483.509 1489.87 478 1508L436 1498C437.976 1487.87 434.803 1474.42 434.09 1464C432.892 1446.51 432.892 1427.49 434.09 1410C439.221 1335.07 451.779 1264.64 474.706 1193C476.937 1186.03 481.283 1179.81 483.281 1173C488.023 1156.84 489.303 1138.16 497.209 1123C501.329 1115.1 511.679 1100.43 506 1092L525.085 1052L539 1027C530.241 1029.57 521.661 1041.72 515 1047.91C496.164 1065.43 477.2 1082.8 459 1101C417.07 1142.93 372.987 1183.67 322 1214.45C306.574 1223.76 290.976 1235.74 274 1242C274.715 1225.38 280.156 1208.11 283.961 1192C289.851 1167.05 295.702 1141.53 306.312 1118C327.548 1070.89 363.043 1027.93 404 996.654C410.177 991.937 416.588 987.507 423 983.12C449.984 964.658 510.4 941.892 525.251 987C527.329 993.314 528 999.396 528 1006C528.001 1014.21 528.91 1022.98 527 1031M586 963L584 969M1017 973L1018 973M1016 982L1017 982M1017 987L1018 1016M559 1000L540 1026M1016 1021L1016 1036M526 1041L525 1049M1015 1043L1014 1048M1015 1052L1013 1067M580 1071C574.282 1091.95 565.478 1112.24 559.026 1133C547.048 1171.54 536.396 1210.78 526.87 1250C521.44 1272.36 511.678 1299 512 1322M510 1090L509 1094M505 1094C504.165 1098.7 498.062 1108.24 502 1112M499 1113L501 1117M498 1116L498 1120M482 1179C481.972 1189.31 479.856 1199.71 480.054 1210C480.751 1246.12 490.199 1285.84 511 1316M976 1232L976 1238M273 1243C268.258 1268.17 263.381 1293.51 260.831 1319C260.033 1326.98 256.162 1338.18 258.406 1345.96C260.082 1351.77 266.008 1357.89 269.309 1363C279.346 1378.53 290.732 1393.37 302.88 1407.29C321.407 1428.52 344.74 1447.69 368 1463.5C373.307 1467.1 391.541 1474.78 390.693 1482.02C388.569 1500.14 372.496 1516.12 361.155 1529C335.633 1557.99 307.308 1584.51 282.41 1614C273.994 1623.97 264.004 1635.89 252 1641.6C248.83 1643.11 240.789 1645.96 237.693 1643.09C234.695 1640.31 237.443 1629.65 237.834 1626C239.737 1608.23 242.248 1590.6 245.221 1573C253.177 1525.88 254.868 1475.62 255.1 1428C255.199 1407.76 254.343 1387.1 256.715 1367C257.444 1360.82 255.985 1354.65 259 1349M257 1341C248.241 1328.7 241.801 1312.24 236.861 1298C235.046 1292.77 232.13 1285.57 233.664 1280C236.644 1269.18 247.452 1261.99 256 1255.86C261.043 1252.24 265.877 1247.46 272 1246M563 1409C558.242 1410.02 560.943 1414.54 562 1418C564.613 1426.55 564.831 1436.22 563.917 1445C563.392 1450.04 561.18 1454.02 563 1459C567.742 1455.38 583.973 1442.3 583.23 1436C582.816 1432.49 578.362 1429.45 576.174 1427C571.423 1421.67 566.266 1415.33 563 1409C578.697 1400.73 596.954 1396.78 613 1388.75C619.095 1385.71 627.116 1378.71 634 1380L614.089 1404L586 1436C605.707 1453.68 632.438 1445.39 645.39 1424C652.755 1411.84 653.836 1394.86 654.816 1381C655.168 1376.01 652.042 1369.6 654.693 1365.01C661.537 1353.17 682.657 1344.6 694 1337.58C728.695 1316.09 775.123 1278.39 819 1285.44C839.577 1288.75 854.509 1304.82 864.281 1322C881.994 1353.14 888.751 1395.57 883.7 1431C879.534 1460.22 867.342 1489.13 848.739 1512C842.664 1519.47 836.04 1527.19 828.961 1533.71C824.668 1537.67 817.337 1541.44 815.125 1547.02C810.909 1557.65 810.807 1571.7 808.551 1583C804.34 1604.09 798.829 1624.95 794.339 1646C787.654 1677.33 781.448 1708.71 774.576 1740C769.304 1764 762.938 1788.45 761 1813M634 1380L652 1366M554 1398L560 1409M306 1409C314.419 1404.14 323.691 1404.72 333 1403.83C343.827 1402.8 357.519 1401.19 368 1404.97C381.484 1409.84 389.411 1426.15 393.09 1439C395.493 1447.39 396.343 1455.37 395.13 1464C394.564 1468.03 391.558 1475 393.893 1478.72C395.905 1481.93 401.715 1483.45 405 1485C414.608 1489.52 425.278 1496.06 436 1497M553 1403C552.24 1407.51 553.756 1409.01 558 1407M302 1408L279 1417.31L256 1430M814 1548C806.448 1551.2 800.151 1557.46 793 1561.57C779.763 1569.19 765.585 1575.1 751 1579.56C698.141 1595.75 658.087 1563.66 612 1543.85C593.853 1536.05 575.648 1532.75 557 1526.97C552.287 1525.52 540.488 1522.41 544.198 1515.17C546.468 1510.75 552.851 1507.65 557 1505.29C569.056 1498.43 582.016 1492.79 595 1487.95C610.139 1482.31 625.993 1478.5 641 1472.55C675.782 1458.76 712.715 1442.29 750 1436.87C765.237 1434.65 779.567 1433.93 795 1434C799.667 1434.02 808.889 1434.11 812.382 1437.74C815.242 1440.71 813.398 1451.54 814.721 1456C823.374 1485.2 818.339 1512.37 816 1542M243 1577C232.341 1568.81 211.988 1562.87 206.367 1550C202.302 1540.69 205.934 1527.13 209.004 1518C216.165 1496.7 225.715 1474.84 238 1456C242.467 1449.15 246.438 1441.03 253 1436M561 1460C543.908 1491.98 514.427 1507 479 1507M437 1499C437.056 1519.4 439.782 1549.64 449 1568C466.603 1552.62 483.68 1536.63 501 1520.93C507.026 1515.46 518.587 1508.91 521 1501M478 1508L473 1544M472 1550C470.835 1564.74 467.407 1585.66 459 1598L448 1569C431.183 1584.49 412.114 1599.73 390 1606.65C376.306 1610.94 362.106 1611.6 348 1613.29C328.147 1615.66 307.9 1616.45 290 1606M246 1579L288 1606M34 1766L34 1801M69.1003 1769.89C75.5173 1768.05 72.3193 1779.31 68.6443 1780.65C64.0452 1782.34 64.7191 1771.14 69.1003 1769.89M47 1773C44.5967 1777.79 42.3118 1784.61 43.7384 1790C44.866 1794.26 48.8014 1797.77 52.5664 1793.75C56.5595 1789.49 56.4849 1771.93 48 1778M73 1775L75 1805M748 1811L749 1813" transform="translate(-577.122,-226.816) scale(0.935904,0.320231)"/></svg>