<svg xmlns="http://www.w3.org/2000/svg" xmlns:svg="http://www.w3.org/2000/svg" xmlns:sodipodi="http://sodipodi.sourceforge.net/DTD/sodipodi-0.dtd" xmlns:inkscape="http://www.inkscape.org/namespaces/inkscape" xmlns:xlink="http://www.w3.org/1999/xlink" width="210mm" height="297mm" viewBox="0 0 210 297">
  <sodipodi:namedview/><g inkscape:label="Ebene 1" inkscape:groupmode="layer" id="layer1">
    </g>
<path style="fill:none;stroke:#000000;stroke-linecap:round;stroke-width:5.0" d="M548 319L511 326.957L493.019 329.97L476 341.189L441 351C470.964 375.639 519.173 395.649 559 389.999C577.52 387.372 600.852 376.632 607.452 358C612.948 342.485 608.246 325.943 600.691 312C597.695 306.47 592.359 300.959 590.462 295C588.267 288.105 591.169 276.496 590.985 269C590.757 259.692 587.188 250.555 583.796 242C571.302 210.486 534.985 191.937 506 177.691C498.072 173.795 490.345 169.097 482 166.09C454.358 156.132 421.494 155.726 394 166.065C379.634 171.467 364.855 183.136 350 186L357 171C353.24 171.385 346.866 175.509 343.419 173.787C334.219 169.191 341.347 147.756 343.291 141C350.456 116.099 366.094 93.1006 382.425 73.2855C387.85 66.7039 398.419 51.8711 408 52.7029C413.835 53.2094 419.772 57.0593 425 59.4598C434.137 63.655 444.025 67.5708 451.981 73.8434C462.382 82.0433 470.668 93.4406 482 100.601C495.936 109.407 515.32 113.826 527.826 124.418C534.484 130.057 539.565 139.094 544.881 146C557.354 162.204 569.408 178.702 581.742 195C596.566 214.589 614.941 231.81 627.547 253C658.241 304.595 659.315 360.399 630.139 413C599.59 468.077 549.149 512.494 493 540.244C476.074 548.609 456.275 560.674 437 561.91C423.057 562.803 409.289 555.966 396 552.879C392 551.95 388.891 554.542 385 554.831C378.835 555.29 371.079 553.366 366 550C373.731 547.715 383.05 548.988 390 553M470 140C452.522 139.249 436.486 136.511 419 140.425C400.124 144.65 384.687 155.306 367 162C367.012 153.094 378.587 141.767 384 135C400.626 114.216 425.718 72.9048 456 81M485 103C486.255 106.691 488.324 109.11 490.926 112C498.211 120.093 504.76 128.803 510.586 138C512.192 140.536 516.326 145.42 513.377 148.357C510.74 150.984 504.156 148.607 501 148.08C497.975 147.576 494.973 147.029 492 146.269C487.353 145.08 482.642 144.201 478 143M365 162L357 171M350 186L347 189M286 404L255 404C243.45 377.911 235.274 350.222 223.463 324C209.872 293.827 204 258.808 204 226C204 218.48 205.884 190.366 220 196.362C226.537 199.139 230.668 207.168 233.999 213C244.246 230.939 247.646 253.597 254.695 273C273.605 325.05 299.473 369.718 296.961 427C295.76 454.383 280.994 479.547 280.259 507C279.996 516.85 282.914 527.759 286.079 537C286.983 539.64 288.011 545.284 290.563 546.802C293.885 548.78 301.211 546.659 305 546.71C308.354 546.755 314.212 548.511 317 547M428 559C438.197 532.369 447.857 493.45 435.33 466C430.115 454.571 419.948 445.176 410 437.885C394.598 426.596 376.474 424.414 359 417.946C352.697 415.613 343.864 411.906 343.653 404C343.178 386.275 361.403 373.439 373 362.925C406.504 332.549 448.608 311.686 486 286.481C499.522 277.367 516.487 258.192 534 258.187C555.49 258.18 574.213 279.213 588 293M589 297C578.526 319.401 556.863 330.388 541.103 348.039C535.335 354.499 543.858 361.066 534.985 367.034C526.673 372.625 506.354 379.914 497 375C505.095 368.757 515.311 364.688 524 359.139C526.628 357.461 532.662 354.876 533.654 351.686C535.517 345.699 514.184 334.868 509.185 336.647C502.749 338.937 500.18 351.357 495 356L486 338M505 328C502.033 333.517 493.941 335.478 488 336M437 350L441 351M535 352L537 352M493 376L497 375M207 430C218.619 426.533 229.561 428.023 241 431C245.823 432.255 255.959 436.536 260.667 433.731C264.944 431.184 260.762 423.864 259 421C251.384 431.232 249.84 424.09 241 421C240.024 410.835 243.588 407.919 253 404M255 404L259 421M281 405L273 410C275.984 414.364 280.185 418.171 282.431 423C290.786 440.959 251.337 443.581 241 450C243.67 453.114 249.817 454.602 251.382 458.275C253.827 464.012 248.697 475.993 247.614 482C244.229 500.776 239.244 518.803 241.171 538C243.034 556.569 251.929 571.606 261.681 587C276.202 609.926 293.674 634.009 319 646.11C331.313 651.994 350.391 656.116 364 652.683C368.217 651.619 371.505 647.769 375 645.348C387.171 636.917 401.216 623.976 405 609L404 608C388.263 612.533 381.92 617.181 366 609.247C363.187 607.845 354.871 602.179 352.042 605.644C349.922 608.241 352.229 614.123 352.8 617C354.285 624.486 356.195 633.576 354 641L345 640L351 651M269 410L263 411L266 406L273 410M263 411L259 415M257 414L244 421M228 427L240 422M238 450L241 450M616 618C613.133 608.933 612.197 599.196 609.573 590C600.717 558.967 591.869 528.992 607.377 498C618.569 475.633 667.443 446.799 685.786 477C693.48 489.667 691.7 506.602 687.329 520C678.115 548.239 658.367 574.005 638.833 596C632.433 603.206 620.114 611.598 615.998 620.039C613.266 625.641 614.244 635.608 612.626 642C608.824 657.015 603.03 671.535 597.575 686C577.462 739.331 559.675 793.484 540.053 847C525.413 886.929 510.983 926.522 486.914 962C470.288 986.506 447.717 1004.28 427 1025M317 546C318.888 540.435 318.896 531.528 324.214 527.938C328.813 524.833 336.673 525.009 342 525C354.156 524.98 365.934 524.188 378 525.87C382.664 526.52 391.098 526.611 394.397 530.433C398.402 535.073 394.687 545.57 394 551M278 547L288 548M317 547L321 564C336.098 554.531 348.089 548.586 366 550M318 548L347 549M279 548C279.133 563.823 287.757 569.803 295.124 582.015C302.612 594.427 307.35 608.125 317.174 618.996C322.252 624.616 330.021 632.879 338 633L321.428 607L290 549M426 562L411 602C421.126 600.195 431.302 592.043 441.996 597.457C454.439 603.756 459.547 630.489 452.262 641.999C447.214 649.974 439.268 652.178 431 655C436.14 669.48 430.476 675.949 415 675.999C400.39 676.046 384.6 671.071 371 666L369 668C374.64 682.621 376.038 706.812 392 714.427C397.429 717.018 403.383 715.365 409 714.414C424.078 711.861 438.758 704.847 453 699.424C508.944 678.125 564.561 657.902 613 622M411 602L405 609M339 635L345 640M367 652L389 654L430 655M356 655L369 667M223 1331C228.755 1320.88 231.903 1308.86 236.065 1298C243.817 1277.77 251.745 1258.9 253.83 1237C258.092 1192.24 251.846 1145.19 268.232 1102C279.026 1073.55 298.841 1045.7 320.015 1024C326.306 1017.55 332.841 1011.47 341 1007.44C344.911 1005.51 351.192 1005.68 352.721 1000.94C362.254 971.377 355.188 934.037 351.827 904C350.411 891.341 342.708 877.178 349.353 865C355.179 854.322 366.022 847.731 375 840C398.934 819.391 425.537 797.786 457 790.235C464.8 788.364 474.162 786.294 482 789.133C499.103 795.327 501.49 817.059 492 831C501.127 840.126 514.979 851.245 516.812 865C519.832 887.666 496.338 905.379 484.428 922C471.901 939.482 467 962.781 467 984M582 813C593.077 816.487 603.718 816.402 615 818.286C631.244 820.997 647.449 824.919 664 824.999C680.813 825.08 702.442 821.834 714.787 836.015C722.685 845.087 723.999 858.491 724 870C724.001 890.283 721.83 909.297 716.873 929C701.227 991.204 677.486 1051.21 654.612 1111C644.469 1137.51 638.664 1169.59 622 1193C610.751 1175.86 606.174 1149.95 602.576 1130C601.271 1122.76 598.491 1114.36 600.302 1107C602.227 1099.18 607.856 1091.91 610.229 1084C615.799 1065.43 618.354 1044.21 621 1025C622.322 1015.4 625.793 1003.45 623 994C617.313 1001.43 614.919 1012.16 612.001 1021C603.781 1045.9 595.111 1076.67 600 1103M359 896C369.852 883.613 383.22 873.444 394.925 861.829C415.061 841.849 443.505 805.253 477 819.133C482.503 821.414 486.531 826.247 491 830M604 818C611.169 823.465 621.599 824.508 630 827.707C646.152 833.856 666.398 849.225 667.907 868C668.743 878.407 662.547 884.704 655 890.916C641.385 902.122 624.688 909.899 610 919.635C581.391 938.599 553.554 959.061 524 976.548C507.667 986.212 490.367 994.247 474.039 1003.92C456.918 1014.06 439.193 1023.06 422 1032.91C417.068 1035.73 413.391 1039.93 408 1042M491 833C482.325 845.315 468.734 852.121 456 859.421C427.273 875.891 395.522 891.659 362 895M624 986L623 993M466 989L471 1005M354 1006C368.133 1018.38 375.953 1033.41 384.247 1050C410.789 1103.08 410.526 1154.3 389 1209M352 1007C351.847 1025.5 346.898 1045.75 343.614 1064C337.244 1099.4 330.568 1135.37 320.845 1170C311.516 1203.23 299.446 1236.57 295 1271M471 1009C471.687 1042.11 500.062 1063.98 522 1084M526 1087L538 1096M541 1097C552.687 1106.41 562.739 1119.16 570.396 1132C572.63 1135.75 577.428 1141.49 577.34 1146C577.166 1154.86 565.034 1168.36 560.614 1176C548.209 1197.44 538.481 1220.9 527.244 1243C487.259 1321.65 428.473 1390.36 356 1440.88C341.64 1450.9 326.707 1459.93 312 1469.38C303.889 1474.59 293.657 1482.36 284.015 1484.3C279.449 1485.23 276.697 1480.46 272.996 1478.61C266.002 1475.12 257.73 1474.06 250 1474M579 1145L599 1113M579 1147C590.244 1162.75 597.217 1181.9 614 1193M622 1193L634.139 1224L659 1274C693.418 1249 745.648 1241.75 784 1262.12C793.761 1267.3 800.005 1275.23 808.089 1282.39C815.318 1288.78 823.568 1293.86 831 1299.99C847.559 1313.65 881.662 1328.02 873.566 1355.96C870.92 1365.09 853.807 1367.1 846 1368.41C816.696 1373.34 786.518 1373.11 757 1373.32C748.171 1373.38 729.033 1384 737.498 1393.85C742.161 1399.28 756.208 1400.61 763 1403.19C786.137 1411.98 810.63 1418.75 833 1429.34C843.953 1434.52 853.69 1440.78 861.711 1450C867.421 1456.56 871.658 1465.9 879.039 1470.73C889.087 1477.3 907.213 1479.86 919 1477.77C932.583 1475.36 934.462 1458.75 936.88 1448C944.927 1412.25 921.982 1375.81 895 1355M385 1217L381 1226M378 1228L374 1237M371 1242L370 1243M367 1249L364 1252M363 1255L361 1257M359 1261L350 1281M294 1273C289.538 1297.02 284.626 1320.74 281.715 1345C280.995 1351 276.071 1367.25 286.005 1368.24C291.048 1368.74 295.64 1364.17 298.985 1361.07C308.704 1352.09 314.605 1340.01 324 1331M700 1346L646 1345L648 1355C639.796 1354.81 628.183 1351.34 622 1346C626.953 1343.56 639.691 1346.66 642.933 1342.26C646.078 1337.98 640.145 1320.7 640.015 1315C639.627 1298.07 646.227 1285.81 658 1274L680.757 1314L708.166 1353L733 1386M346 1290L338 1305M336 1308L335 1310M333 1313L325 1328M706 1347C726.409 1347.01 745.224 1346.45 765 1340.56C774.979 1337.59 791.025 1330.88 801 1336L757 1372M222 1335L220 1338M219 1342L218 1344M644 1343L646 1345M656 1381C665.097 1381.42 675.764 1387.73 683 1393C670.482 1402.26 647.916 1402.44 633 1407.02C604.402 1415.82 579.109 1430.3 552 1442C554.453 1432.29 561.883 1423.51 567 1415C577.431 1397.65 587.716 1380 598.699 1363C604.444 1354.11 610.779 1346.1 622 1346M216 1347L215 1350M648 1355L671 1363.86L692 1375M212 1356L211 1359M651 1359L661 1381M637 1361L640 1372M208 1366L207 1369M913 1368L997 1408M205 1373L204 1374M203 1376L202 1379M724 1376L703 1381L710 1388M728 1378L740 1376M643 1377L653 1380M669 1384C677.676 1381.44 694.199 1379.39 703 1381M201 1382L200 1384M198 1386L198 1388M731 1386C728.052 1387.9 722.436 1389.96 722.037 1394.02C721.315 1401.36 740.813 1414.28 747 1416L740 1398M196 1392L195 1393M683 1393L721 1393M724 1393L736 1393M194 1396L193 1397M182 1415L183 1415M748 1417L750 1422M179 1419L179 1420M174 1428L173 1429M170 1435L170 1436M167 1441L160 1454M551 1443L549 1446M158 1459L158 1460M141 1467L142 1467M136 1468L137 1468M195 1479C209.59 1473.86 227.592 1472.04 243 1472M189 1479L192 1479M179 1481L187 1480M173 1482L174 1482M167 1483L163 1484M152 1486L156 1486M141 1488L143 1488M137 1489L138 1489M120 1492L126 1491M109 1493L110 1493M105 1494L106 1494M99 1495L100 1495M88 1497L89 1497M44 1509L67 1501M72 1501L73 1501M30 1511L32 1511M23 1513L24 1513M12 1517L21 1514M2 1522L3 1522" transform="translate(-577.122,-226.816) scale(0.926378,0.32924)"/></svg>