<svg xmlns="http://www.w3.org/2000/svg" xmlns:svg="http://www.w3.org/2000/svg" xmlns:sodipodi="http://sodipodi.sourceforge.net/DTD/sodipodi-0.dtd" xmlns:inkscape="http://www.inkscape.org/namespaces/inkscape" xmlns:xlink="http://www.w3.org/1999/xlink" width="210mm" height="297mm" viewBox="0 0 210 297">
  <sodipodi:namedview/><g inkscape:label="Ebene 1" inkscape:groupmode="layer" id="layer1">
    </g>
<path style="fill:none;stroke:#000000;stroke-linecap:round;stroke-width:5.0" d="M152 431C79.8595 278.256 162.66 63.4825 337 31M341 31C351.454 31 362.441 31.2306 372 36.1373C394.926 47.9049 392.708 77.663 383.651 98C377.279 112.308 366.537 125.379 357.424 138C341.302 160.33 324.788 182.165 308.012 204C293.794 222.505 286.476 243.158 308 259M302 252C339.803 214.197 375.189 173.239 419 142C431.741 132.915 454.125 114.504 471 117C464.526 133.712 443.021 141.672 429 150.698C406.177 165.392 382.57 185.097 367.545 208C353.85 228.874 350.104 250.712 340.573 273C333.397 289.779 322.773 305.068 323.019 324C323.225 339.868 335.265 351.694 335.961 367C336.875 387.105 325.036 409.502 334.84 428.999C343.27 445.766 367.916 448.181 377.907 465C385.97 478.574 386.75 495.675 393.309 510C405.221 536.016 430.57 550.377 457 558M349 424C355.796 410.591 347.475 401.355 348.04 387C349.023 362.025 353.761 340.626 361.667 317C365.352 305.985 371.672 286.483 385 283.818C393.973 282.024 404.931 294.769 409.66 301C425.336 321.653 434.019 349.033 451.171 367.999C462.285 380.29 484.965 384.616 496.606 369.985C510.84 352.092 482.286 332.321 472.449 320C465.825 311.703 457.529 303.341 454.224 293C449.337 277.712 460.552 258.021 469.043 246C492.218 213.19 525.727 190.044 567 194.171C579.916 195.462 591.735 200.483 604 204.283C618.189 208.68 632.136 214.733 642.985 225.089C646.543 228.486 652.301 233.748 652.663 239C653.855 256.302 625.193 252.903 616 249.564C584.604 238.16 558.849 213.835 526 237.428C519.318 242.228 513.658 248.116 507.961 254.004C501.9 260.267 489.436 269.403 489.294 279C489.028 296.991 519.366 283.409 527 280.692C549.618 272.642 576.602 262.99 599 276.352C608.162 281.818 614.498 290.595 622.171 297.754C627.896 303.096 644.149 315.419 644.252 323.895C644.3 327.791 638.672 329.006 636 330.526C628.005 335.074 621.358 341.04 613 345.108C600.467 351.208 588.409 361.325 576 366.591C556.568 374.838 535.581 379.228 518 392M576 368C574.398 373.002 565.379 378.496 565.731 383.039C566.054 387.219 571.534 391.857 573.986 395C587.761 412.653 609.783 416.768 627.961 400.696C631.837 397.269 636.029 392.486 635.782 387C635.467 379.978 628.63 369.438 632.607 363C635.537 358.258 653.968 339.581 660.397 345.622C667.116 351.937 657.933 374.086 655.435 381C651.988 390.543 650.475 401.29 645.006 409.999C636.468 423.596 615.401 432.667 601 438.399C594.736 440.892 588.772 443.556 582 442M763 345C761.072 355.139 763.511 366.736 763.961 377C765.096 402.936 765.661 431.846 758.572 457C749.981 487.482 726.788 502.331 702 519.216C685.857 530.212 666.956 541.675 647 543.826C630.458 545.61 612.538 544.821 596 542.816C588.526 541.909 581.687 539.159 574 539M379 455C385.292 456.497 401.352 454.744 404.397 447.786C406.053 444.001 406.854 425.794 401.852 424.538C398.005 423.572 392.21 429.213 389 431C376.686 412.732 364.029 392.776 364.029 370C364.029 364.845 364.655 353.187 369.419 350.028C378.885 343.75 393.52 358.966 397.262 366C407.611 385.458 413.873 405.973 420.001 427C422.717 436.322 427.179 445.103 426.985 455C426.723 468.318 425.411 483.095 421.986 496C420.248 502.552 415.815 515.514 419.042 521.96C422.418 528.703 433.363 532.274 438.791 537.464C442.531 541.04 444.991 546.844 450 548.941C454.529 550.838 460.195 547.044 464.39 550.603C470.586 555.859 477.923 573.86 472.972 581.61C470.652 585.24 464.487 586.616 461 589C465.517 593.517 472.813 598.658 474.682 605C476.416 610.881 473.503 617.85 474.174 624C475.44 635.615 485.895 648.758 496 654C498.25 645.818 489.082 630.677 495.028 623.622C497.224 621.016 501.598 623.93 504 624.77C510.363 626.994 517.75 628.342 524 625.081C538.839 617.337 546.965 599.493 563 593.559C575.532 588.922 591.262 592.878 604 594.576C634.719 598.67 669.939 602.447 696 621C685.039 635.193 656.075 649.202 639 654.351C631.345 656.659 622.714 655.996 615 658M548 411C542.409 411.004 521.553 410.565 519.346 417.238C518.076 421.076 526.701 425.942 528.999 428.089C540.12 438.481 544.407 455.598 558 463.095C609.552 491.529 678.124 465.116 711.501 422C724.402 405.334 735.365 387.449 747.116 370C751.806 363.035 754.391 354.462 761 349M21 372L21 373M564 372L556 373M553 412L560 418M787 415C792.497 425.433 795.468 437.32 800.809 448C810.336 467.054 822.002 484.936 829.575 505C846.614 550.143 850 597.238 850 645C850 662.993 851.637 682.219 848.674 700C844.595 724.483 831.659 756.371 816.471 776C797.06 801.089 768.361 816.141 739 826.228C716.023 834.122 696.277 839 672 839M563 420L578 438M347 428L350 432M389 431L376 436M389 433L391 435M155 436L158 442M353 436L355 437M363 443L365 444M161 448L166 463M371 449L372 450M155 659C162.294 623.943 189.658 595.571 211.675 569C238.941 536.095 264.189 498.561 297.039 470.805C318.399 452.758 342.773 450.633 366 466M168 467C172.69 501.831 159.841 534.278 146.385 566C139.551 582.111 130.801 598.447 128.3 616C126.906 625.787 130.679 637.348 132.385 647C137.446 675.631 147.186 702.378 156 730M369 468C351.799 484.451 330.671 498.116 312 513.004C290.574 530.088 271.08 549.245 253.209 570C241.869 583.17 230.344 596.384 219.513 610C211.75 619.76 203.043 632.368 191 637L189 602M810 476C810 492.22 807.168 507.716 809.289 524C814.022 560.326 828.814 589.908 811.243 626C805.278 638.252 789.965 669.965 772 663.106C752.314 655.591 754.854 625.101 740 613C735.592 620.911 735.021 635.272 728.57 641.49C722.975 646.883 711.809 645.269 706.923 651.419C699.014 661.374 697.236 676.44 689.699 687C670.323 714.147 641.906 734.761 612 748.78C596.447 756.071 578.148 762.086 561 756.78C543.544 751.379 539.027 739.132 528.61 726.004C523.92 720.094 517.348 715.348 512 710M484 544C488.893 545.41 495.985 551.786 500.941 551.003C509.009 549.729 501.832 538.989 499.482 536C489.096 522.79 475.889 516.844 464 506C472.808 502.102 479.941 504.131 489 506M459 506L464 506M492 508L504 513M507 515L538 535.112L571 538M462 541L469 540M477 541L482 543M453 544L458 542M451 551L453 555M446 581L461 589M719 586L740 613M568 640C575.77 638.835 583.307 634.061 590 630.077C595.181 626.994 600.595 622.744 606.999 623.149C611.596 623.439 616.209 628.107 611.681 632.031C593.723 647.596 566.722 642.524 552 663L569 659.67L599 654M562 642L565 641M550 646L558 643M539 651L547 648M521 661L535 653M606 656L610 656M552 664L550 666M507 670L515 666M153 669L156 719M502 673C522.621 680.818 524.698 707.762 550 708.737C564.073 709.279 578.298 701.724 590 694.8C594.935 691.881 605.783 684.491 611.786 685.929C621.504 688.256 615.29 705.375 612 710M513 711L517 710M521 712L522 712M528 715L530 716M604 717L587 724M533 718L549 723M563 726L584 724M552 725L553 725M557 725L561 726M949 742C959.411 760.31 960.06 781.059 965.235 800.83C968.553 813.505 975.968 824.59 977.711 838C980.459 859.146 978.868 883.358 993.529 900.91C1005.99 915.824 1026.86 921.236 1044 928.424C1075.01 941.431 1106.2 953.535 1132 976M622 787C629.075 776.309 636.12 764.217 647 757M631 766L625 770M683 770C669.249 777.809 649.922 787.169 642.558 802C636.285 814.634 657.511 835.27 669 837M621 772L619 773M659 776L671 772M551 773C575.798 782.096 573.299 814.874 593.015 828.161C607.264 837.765 624.058 828.616 638 835.558C645.356 839.221 656.195 845.945 661.606 852.129C664.808 855.787 665.99 860.894 668.534 865C675.651 876.485 686.19 887.482 699 892.536C760.731 916.887 814.55 851.352 843.505 807C849.711 797.494 858.962 788.921 864 779M574 776L606 773M611 774L613 774M560 775L565 775M648 781L654 778M627 789L643 783M862 786C856.882 807.497 857.411 831.12 853.536 853C845.412 898.881 827.525 946.128 795.896 981C781.455 996.921 764.092 1010.62 748.286 1025.2C719.256 1051.97 690.8 1079.07 662.999 1107C644.711 1125.38 618.807 1146.84 615.289 1174C613.376 1188.77 629.369 1195.02 641 1198.92C671.961 1209.32 704.687 1219.45 734 1233.97C748.394 1241.1 760.667 1250.06 774 1258.86C782.826 1264.69 789.843 1270.18 801 1268.71C811.646 1267.31 820.815 1258.44 828.13 1251.13C844.831 1234.44 858.843 1216.06 873.92 1198C926.403 1135.13 985.342 1076.14 1043 1018M621 790L622 790M964 804C963.981 833.025 947.809 859.686 933.495 884C928.01 893.316 923.77 903.222 919.189 913C917.526 916.55 914.586 921.888 915.272 925.945C916.838 935.206 940.592 938.477 948 939.714C973.948 944.047 1000.25 946.573 1026 951.807C1037.47 954.139 1048.5 959.046 1060 961M1065 965L1064 978M1063 980C1060.35 992.672 1053.55 1003.72 1046 1014M404 1726C419.133 1647.97 443.921 1572.18 443.921 1492C443.921 1445.58 425.237 1401.96 422.09 1356C416.827 1279.15 454.058 1206.53 500.119 1148C510.043 1135.39 518.515 1121.96 529.428 1110.09C561.01 1075.75 604.304 1045.02 649 1030.89C662.678 1026.56 678.654 1020.84 693 1020.04C695.982 1019.87 704.996 1017.38 706.828 1020.6C709.845 1025.91 695.204 1037.46 692 1040.29C672.251 1057.7 648.619 1068.24 625 1079.51C609.855 1086.74 594.426 1093.67 581 1103.9C567.388 1114.27 553.858 1126.68 544.356 1141C523.361 1172.63 521.096 1212.42 522.7 1249C523.898 1276.33 527.467 1308.92 551 1327M1132 1063L1132 1065M1130 1068L1106 1099M1103 1103L1093 1116M1089 1120L1064.09 1153L1004 1236M1000 1240L993 1250M990 1254L976 1272M974 1275L941 1317M937 1321C908.385 1356.26 871.028 1393.53 827 1408.59C802.539 1416.96 776.956 1413.24 752 1410.29C693.786 1403.39 627.862 1386.65 581 1349M553 1329L579 1348M7 1734L7 1750" transform="translate(-577.122,-226.816) scale(0.91474,0.329903)"/></svg>