<svg xmlns="http://www.w3.org/2000/svg" xmlns:svg="http://www.w3.org/2000/svg" xmlns:sodipodi="http://sodipodi.sourceforge.net/DTD/sodipodi-0.dtd" xmlns:inkscape="http://www.inkscape.org/namespaces/inkscape" xmlns:xlink="http://www.w3.org/1999/xlink" width="210mm" height="297mm" viewBox="0 0 210 297">
  <sodipodi:namedview/><g inkscape:label="Ebene 1" inkscape:groupmode="layer" id="layer1">
    </g>
<path style="fill:none;stroke:#000000;stroke-linecap:round;stroke-width:5.0" d="M369 205C359.697 200.446 346.216 200.389 336 201.089C333.214 201.281 325.432 201.266 325.117 205.148C324.611 211.388 335.403 216.092 339 220C331.889 223.8 322.76 222.887 315.001 224.904C312.749 225.489 308.44 226.694 308.921 229.842C309.432 233.182 315.37 234.912 318 235.938C327.286 239.563 336.35 242.301 346 244.731C349.347 245.573 357.038 245.459 357.303 250.109C357.541 254.274 354.037 259.411 352.247 263C347.184 273.151 341.703 283.027 336.309 293C316.951 328.788 297.317 364.354 277.694 400C269.497 414.891 256.958 430.788 238.002 427.695C228.476 426.141 230.733 403.183 229.715 395C227.244 375.14 220.226 352.615 208.779 336C203.663 328.574 195.273 320.955 186 320C186 310.582 188.183 300.255 187.258 291C185.138 269.781 181.611 248.567 183.09 227C185.322 194.423 197.107 161.479 216.04 135C245.107 94.3486 313.742 74.785 351.83 115.039C366.475 130.517 372.472 152.045 372.985 173C373.174 180.687 368.666 198.849 372 205M257 157C238.867 184.491 221.068 214.285 206.784 244C202.373 253.176 198.007 262.462 194.425 272C192.23 277.844 191.771 283.904 188 289M371 204C370.825 208.016 366.855 217.048 369.118 220.397C371.508 223.933 392.961 222.113 395.029 218.698C399.058 212.045 376.197 205.877 372 205M469 242C456.107 233.223 435.025 231.381 420 227.296C415.666 226.117 405.268 226.505 403.752 220.911C402.874 217.673 406.651 216.596 409.005 216.1C416.437 214.532 424.431 213.694 432 213.086C456.46 211.12 494.836 211.724 515 228L494 236.667L433 250C444.37 264.488 479.355 262.334 491 249L480 243M398 218L403 218M395 220L402 223M340 221L368 221M366 223L361.212 245.397L380 247.999L433 250M412 228L428 248M611 334C590.155 312.716 570.263 295.085 545 279.053C530.108 269.603 510.736 263.076 498 251C505.335 246.098 515.461 245.259 524 243.551C551.417 238.066 604.712 230.049 614.96 266C618.97 280.067 618.592 300.524 616.711 315C616.02 320.318 610.102 331.007 612.118 335.714C614.013 340.141 619.166 344.173 622.113 348C628.937 356.862 634.941 366.202 640.335 376C663.751 418.537 675.077 469.334 663.105 517C646.24 584.15 575.217 616.872 521 650.089C511.404 655.968 499.845 660.718 491 667.507C481.646 674.687 474.675 685.426 466.7 694.089C450.755 711.41 434.057 728.127 419.895 747C407.452 763.582 397 782.755 383 798C368.742 777.976 356.616 758.479 332.83 748.194C323.227 744.041 313.562 754.981 305 749C309.329 746.69 312.671 746.69 317 749M360 246L358 248M491 250L498 251M185 321L186.914 371L179.015 446L184 479C174.125 474.185 168.841 459.594 164.775 450C153.412 423.189 139.411 387.056 149.001 358C153.784 343.507 165.446 316.776 185 321M611 336C597.148 356.778 580.814 375.194 566.745 396C551.361 418.753 538.2 445.834 512 458.11C493.772 466.651 474.258 458.603 456 464C462.055 472.155 472.943 475.274 482 479.011C497.636 485.463 515.493 492.123 529 502.529C540.181 511.144 554.158 524.641 557.471 539C560.543 552.318 552.004 568.484 546.247 580C531.739 609.019 507.531 634.357 495 664M188 364C202.401 381.856 203.387 418.664 231 425M458 375C474.307 364.966 505.627 362.689 524 366.823C529.258 368.006 544.715 376.484 542.263 383.639C541.162 386.853 526.071 382.181 523 381.728C510.222 379.845 497.997 375.312 485 375.015C476.57 374.822 465.639 379.014 458 375C452.856 381.045 443.695 395.015 436.871 398.297C428.49 402.328 408.116 401.413 402.948 410.375C400.608 414.432 412.336 422.274 415 424.575C429.759 437.324 439.87 454.126 456 465M353 406C375.234 403.725 400.04 393.064 421 385.193C430.617 381.582 445.746 374.351 456 376M381 399L401 411M444 454C453.412 448.15 464.99 446.312 472.895 437.96C474.496 436.269 480.357 429.073 475.706 427.346C472.751 426.248 468.8 431.865 465.996 432.762C460.29 434.587 455.299 430.076 451 427L445 437C442.297 433.045 432.886 417.73 435.136 413.303C437.021 409.594 445.385 408.998 449 408.011C463.379 404.083 477.113 401.37 492 402M398 411L391 415M407 416L434 412M397 415L401 415M233 427C233.688 443.026 236.016 458.861 234.91 475C233.827 490.827 229.313 511.746 235.344 527C243.124 546.676 263.627 555.399 283 556.01C291.462 556.277 299.686 555.788 308 553.985C329.685 549.284 336.063 529.196 354 519.352C363.708 514.024 374.617 515.276 385 517.262C391.867 518.575 397.963 521.642 402.532 527.039C423.788 552.151 390.386 577.135 368 583.115C340.922 590.348 310.374 590.519 286 575.381C277.888 570.343 271.019 562.465 264 556M440 453L431 458L447 462M407 455L431 457M185 480C191.063 500.651 205.798 519.767 218.255 537C234.201 559.059 250.063 581.289 263.498 605C276.602 628.128 287.398 653.735 295.495 679C301.568 697.948 305.087 717.637 313 736M196 503C189.617 506.709 177.975 506.298 172 502L189 496M305 749C296.338 748.024 295.371 737.105 293 730C286.959 711.894 278.974 693.276 268.935 677C255.818 655.735 240.275 638.852 220 624.158C202.233 611.282 179.096 600.426 171.749 578C166.671 562.499 178.729 551.043 191 543.467C194.089 541.56 207.822 536.864 205.824 532.141C203.27 526.104 189.643 521.963 184 519.579C181.738 518.624 178.007 516.385 175.603 518.071C172.618 520.164 173.833 528.566 172 532C162.019 520.29 150.752 506.137 172 502M127 508C135.388 509.022 142.383 512.212 150.942 509.2C155.067 507.748 156.47 503.941 161 503M130 508C136.132 503.589 148.26 502.403 155 506M155 508L157 510M242 548L252 550M244 551C257.807 574.659 272.624 596.325 279.849 623C281.905 630.594 286.969 640.187 285 648M334 748C354.186 737.224 377.312 729.88 398 718.691C424.231 704.505 451.156 684.309 480 676M377 1004L374.17 1036L372.736 1048.87L361 1060L364.83 1017L367.013 1002.64L376 1004C380.697 995.333 379.92 983.592 381.615 974C385.812 950.249 390.505 926.013 392.83 902C393.666 893.374 390.903 877.954 394.603 870.314C396.702 865.982 406.888 866.254 411 865.565C424.122 863.364 442.52 862.581 452.91 853.532C469.826 838.8 481.529 817.716 493.319 799C498.008 791.555 502.035 780.865 509.174 775.407C513.603 772.021 522.575 772.855 528 771.229C540.96 767.345 552.212 761.183 564 754.769C582.834 744.521 611.166 730.297 631.985 744.699C652.097 758.612 642.087 789.774 637.793 809C628.229 851.827 610.89 894.309 594.6 935C590.008 946.472 584.835 957.767 579.691 969C577.621 973.522 573.429 979.708 574.338 984.941C575.291 990.429 585.76 989.946 590 989.996C606.046 990.187 623.612 992.208 638 999.781C663.583 1013.25 671.293 1038.61 681.449 1064C685.815 1074.91 691.693 1087.07 691.985 1099C692.475 1118.99 680.776 1136.3 671.281 1153C650.887 1188.87 628.581 1222.06 600.155 1252.09C573.753 1279.98 546.614 1307.07 521.286 1336C493.14 1368.15 468.082 1402.68 438.91 1434C404.56 1470.88 365.632 1503.37 330 1539C310.479 1558.52 291.418 1578.04 274.654 1600C264.696 1613.05 257.719 1630.49 243 1639C236.772 1627.77 236.965 1612.47 234.92 1600C227.823 1556.74 232.194 1514.19 236.834 1471C243.463 1409.3 251.632 1347.22 248.896 1285C248.458 1275.04 244.825 1266.49 243.297 1257C240.19 1237.71 237.934 1218.28 234.715 1199C228.838 1163.81 214.461 1125.72 216.039 1090C216.861 1071.4 223.767 1051.52 231.97 1035C247.617 1003.48 284.242 990.201 318 991.015C329.861 991.301 342.483 993.319 354 996.13C357.47 996.977 364.323 1000.38 366.397 995.837C371.487 984.686 369.987 966.169 371.17 954C372.923 935.95 378.969 919.471 383.116 902C384.743 895.144 390.409 878.377 384.411 872.603C377.566 866.013 359.667 874.802 351 872.251C317.244 862.314 305 830.266 305 798M394 748C383.283 755.074 356.316 754.633 346 747C359.886 738.993 382.85 741.093 396 749M345 747L346 747M301 749C301.222 759.715 305.853 770.806 308.975 781C312.875 793.734 315.749 806.825 321.309 819C324.519 826.029 327.774 834.688 334.04 839.591C339.785 844.086 346.878 840.154 352 836.387C363.023 828.28 379.506 811.582 383 798M383 803C389.901 824.208 394 844.599 394 867M305 828C307.044 853.027 322.501 873.982 349 874M385 872L394 869M576 983C601.273 975.459 630.644 972.041 657 972C665.992 971.986 679.235 971.637 686.907 976.97C701.144 986.867 705.878 1012.4 710.152 1028C715.855 1048.81 723.51 1069.12 729.076 1090C733.909 1108.12 736.56 1126.76 740.884 1145C753.71 1199.1 765.613 1249.12 755.537 1305C752.666 1320.93 748.637 1336.83 742.935 1352C740.374 1358.81 734.535 1367.08 733.368 1374C732.276 1380.48 736.113 1390.27 736.834 1397C738.854 1415.85 742.018 1438.21 739.12 1457C727.053 1535.26 695.171 1606.22 665.799 1679C659.19 1695.38 649.288 1713.81 635.961 1725.7C613.52 1745.72 582.696 1750 554 1750C541.19 1750 527.187 1751.68 515 1747.05C510.468 1745.33 504.434 1744.7 503.573 1738.98C502.289 1730.45 510.283 1720.01 514.281 1713C526.482 1691.6 540.709 1671.15 553.4 1650C571.459 1619.9 585.326 1587.53 604.44 1558C638.073 1506.05 676.098 1456.38 713.25 1407C720.454 1397.43 710.127 1381.25 705.986 1371C704.474 1367.26 700.626 1361.4 703.042 1357.34C710.657 1344.57 729.661 1364.29 733 1371M373 1053C372.595 1072.64 371.992 1092.29 372 1112C372.003 1120.17 373.641 1128.04 375.425 1136C376.798 1142.12 378.685 1148.59 381.93 1154C403.117 1189.33 445.387 1167.45 472 1150.3C516.466 1121.66 532.56 1069.71 554.752 1025C560.689 1013.04 564.049 995.912 573 986M365 999L367 1001M379 1006C381.615 1006.78 383.816 1007.69 386.001 1009.39C402.124 1021.96 386.287 1034.71 376 1045M360 1061C356.499 1071.32 356.703 1083.2 354.69 1094C351.116 1113.17 346.095 1132.15 341.116 1151C328.699 1198.01 310.349 1242.69 302.59 1291C299.544 1309.96 298.056 1328.99 295.714 1348C295.189 1352.26 294.733 1365.01 288.892 1365.45C281.752 1366 275.245 1354.14 272.284 1349C265.437 1337.11 260.53 1323.06 256.344 1310C254.094 1302.98 253.394 1295.04 249 1289M248 1264C251.025 1247.71 253.074 1231.85 258.355 1216C270.567 1179.34 292.51 1144.64 315.626 1114C327.356 1098.45 341.014 1078.27 357 1067M733 1378L718 1399M719 1403C723.386 1415.96 729.666 1433.19 738 1444M740 1458C745.238 1465.84 746.402 1476.89 748.424 1486C752.905 1506.17 756.737 1526.51 759.286 1547C764.578 1589.53 767.985 1632.28 770.911 1675C773.656 1715.08 776.882 1753.17 794 1790M56 1777C52.0465 1774.35 45.2757 1771.03 46.9275 1765.05C48.0512 1760.99 57.8719 1756.5 60.9568 1760.6C64.1588 1764.87 57.5888 1772.88 56.4992 1777C55.316 1781.48 56.9059 1786.44 57 1791M5 1762L6 1784M23 1763C15.6117 1775.36 36.5043 1768.64 33.2137 1779.91C31.9652 1784.19 24.9448 1791.34 20.7415 1786.56C17.4284 1782.8 17.9489 1775.47 19 1771" transform="translate(-577.122,-226.816) scale(0.946857,0.326355)"/></svg>