<svg xmlns="http://www.w3.org/2000/svg" xmlns:svg="http://www.w3.org/2000/svg" xmlns:sodipodi="http://sodipodi.sourceforge.net/DTD/sodipodi-0.dtd" xmlns:inkscape="http://www.inkscape.org/namespaces/inkscape" xmlns:xlink="http://www.w3.org/1999/xlink" width="210mm" height="297mm" viewBox="0 0 210 297">
  <sodipodi:namedview/><g inkscape:label="Ebene 1" inkscape:groupmode="layer" id="layer1">
    </g>
<path style="fill:none;stroke:#000000;stroke-linecap:round;stroke-width:5.0" d="M301 1135C263.808 1179.92 253.931 1249.3 278.309 1302C283.909 1314.1 292.413 1328.37 304 1335.53C322.152 1346.74 347.499 1339.29 355.535 1319C367.393 1289.06 355.186 1259.95 344.203 1232C336.702 1212.91 329.749 1193.67 321.231 1175C316.804 1165.3 312.528 1155.54 307.753 1146C306.047 1142.59 302.165 1137.86 302.07 1134C301.888 1126.62 313.132 1115.21 316.939 1109C326.247 1093.82 332.605 1077 342.054 1062C346.671 1054.67 356.649 1045.21 358.682 1037C362.456 1021.75 350.788 1016.29 344.349 1005.98C336.156 992.868 330.858 977.406 325.425 963C318.526 944.706 309.725 921.827 311.09 902C313.892 861.273 336.347 807.972 311.3 770.015C297.734 749.456 265.011 738.573 242 733.425C228.454 730.395 210.154 731.217 200.8 718.907C195.414 711.818 194.947 700.536 193.729 692C190.482 669.231 188.769 644.834 187.264 622C186.704 613.513 195.287 604.572 188.436 596.228C181.467 587.739 161.375 591.237 152 592.579C144.939 593.591 137.64 594.082 131 596.876C117.264 602.656 107.72 615.968 94 621C96.0183 610.533 103.972 599.562 108.753 590C120.275 566.955 132.578 544.52 143.143 521C147.246 511.866 154.752 500.185 155.334 490.004C155.821 481.493 135.693 473.833 130 468.816C116.656 457.055 105.915 436.006 105.04 418C103.109 378.283 128.824 338.716 153.428 310C163.117 298.691 179.944 288.498 184.892 274C187.423 266.584 183.679 260.052 179.645 254C171.686 242.06 161.617 231.685 153.291 220C149.499 214.678 144.925 208.948 146.097 202C152.201 165.827 179.279 144.889 208 125.344C254.113 93.964 305.992 70.5721 362 65.1698C373.716 64.0398 385.346 65.7596 397 66M401 67C403.101 67.9454 408.457 68.9064 409.184 71.3673C410.375 75.4054 404.894 81.9227 402.806 85C394.84 96.7365 386.146 107.834 377.424 119C339.251 167.875 292.847 213.254 260 266C266.757 267.921 274.799 262.325 281 259.73C297.782 252.705 314.44 245.87 331 238.309C352.432 228.523 375.866 224.063 399 220.729C438.157 215.087 481.697 209.098 511.957 241.001C526.398 256.226 530.084 280.126 537.861 299C551.275 331.554 566.532 369.122 564.961 405C563.259 443.864 550.083 482.26 538.344 519C529.156 547.758 521.228 576.863 513.36 606C510.38 617.032 506.99 628.312 502.936 639C501.254 643.434 497.052 649.115 496.801 653.83C496.639 656.864 499.888 660.455 501.305 663.001C506.398 672.15 512.625 680.576 520.001 688C536.98 705.089 550.416 724.062 560.306 746C562.837 751.616 568.882 760.635 568.353 766.941C567.989 771.291 562.294 771.538 559 772.2C550.048 773.997 538.992 775.855 532.04 782.188C517.429 795.5 512.546 824.44 508.424 843C487.823 935.761 475.908 1029.98 456.715 1123C449.712 1156.94 439.652 1190.23 431.887 1224C419.153 1279.38 407.527 1335.03 397.615 1391C387.04 1450.72 376.922 1514.14 381.09 1575C383.164 1605.29 390.002 1634.86 390 1665C389.999 1677.05 390.341 1690.66 386 1702M278 208C260.209 236.189 241.002 263.616 223.424 292C214.586 306.272 207.674 324.925 197.157 337.759C193.551 342.159 180.51 338.361 175 339.329C161.165 341.759 153.393 355.191 151.44 368C147.583 393.288 171.784 419.79 183 440C187.204 438.378 198.6 437.239 200.972 433.682C205.559 426.806 199.334 411.199 197.65 404C192.439 381.723 191.702 363.415 195 341M304 270C317.551 266.865 328.452 257.07 341 251.309C365.494 240.063 392.658 236.206 419 243.289C438.765 248.604 448.162 276.671 459.665 292C484.948 325.691 527.757 366.584 521.711 413C520.195 424.634 514.656 435.992 508.787 446C499.919 461.123 478.222 468.409 464 477.324C457.875 481.164 454.606 487.568 448.985 491.96C436.764 501.51 422.653 510.294 409 517.691C399.211 522.995 381.782 526.297 373.362 515.856C368.35 509.642 378.771 507.272 383 506.461C397.459 503.687 412.371 503.628 427 503M260 266L255 270M316 266C324.513 270.544 337.454 269.989 347 272.478C369.171 278.257 391.58 289.483 410 303.015C418.172 309.019 427.424 317.891 430.231 328C432.467 336.049 426.365 347.519 426 356L433 357M197 339C202.107 343.2 208.144 345.954 212.536 351.039C238.959 381.628 242.573 425.571 230.251 463C225.323 477.968 214.657 490.407 209.065 505C207.502 509.078 203.26 516.659 205.777 520.867C209.135 526.482 219.288 527.182 225 528.5C238.607 531.64 253.928 535.965 267 541M416 355C402.227 365.5 383.028 362.659 368 369C373.786 381.444 371.478 383.797 360 387.877C357.33 388.827 354.912 391.13 352 391.272C346.141 391.559 340.327 387.647 334 388.174C325.292 388.899 311.922 393.064 304 389C334.704 358.551 383.211 344.297 425 357M425 357C424.754 386.33 380.905 381.367 362 393C375.935 402.533 395.756 412.89 397.826 432C399.653 448.855 387.372 464.117 378.14 477C358.891 503.863 335.884 529.113 313.09 552.985C300.064 566.627 286.572 580.234 267 582.557C242.516 585.463 211.837 559.827 196 544C193.363 553.181 199.095 566.842 201.373 576C209.298 607.854 224.905 641.419 248 665C249.963 655.582 243.992 642.246 241.63 633C240.829 629.866 238.501 623.546 241.028 620.693C243.208 618.231 249.232 620.465 252 620.675C258.803 621.191 266.76 619.807 273 617.127C288.011 610.68 298.304 595.764 313 589.279C327.132 583.042 344.571 591.378 356 599.283C360.775 602.586 372.04 608.575 372.94 614.911C373.76 620.691 357.101 630.32 353 633.6C343.378 641.298 333.205 648.662 323.86 656.545C317.93 661.547 312.635 667.456 305 669.844C297.775 672.104 288.768 674.134 282 670C294.149 658.844 306.651 654 323 654M357 392L361 392M201 437L196 459L187 457L186 456L190 448L197 453M182 439C180.125 440.315 176.515 441.83 175.932 444.274C175.212 447.295 179.107 451.659 175.639 453.933C172.847 455.764 167.93 453.602 165 453.004C157.502 451.473 151.449 449.21 144 452M185 441L190 447M154 450C159.802 445.353 167.601 443.158 175 443M190 446C193.888 443.408 194.979 444.762 199 446M195 447L193 450M193 451L191 456M178 454L186 457M198 457L201 458M196 459L191 523C173.915 520.522 165.531 493.384 170.901 478C173.347 470.994 179.383 466.363 183 460M435 504C446.151 503.908 462.809 499.736 471.606 509.225C481.987 520.422 474.001 546.324 474 560C473.998 587.911 480.948 628.066 496 652M202 509L189 536L195 544M192 512L201 510M179 516L191 513M182 522L189 533M191 523L193 525M195 523C204.548 528.929 225.828 536.815 237 534M193 533L193 536M188 537C181.454 553.872 171.123 571.567 176 590M179 594L187 617M94 621L91 624M187 624C179.36 635.177 174.559 648.985 168.219 661C145.822 703.447 123.889 754.97 126.039 804C126.835 822.145 132.434 840.604 137.255 858C147.689 895.65 162.15 932.148 183.544 965C203.196 995.177 228.749 1021.96 250.116 1051C268.982 1076.64 281.842 1106.87 301 1132M330 655C341.488 657.98 349.809 662.398 354.546 674C356.248 678.169 358.032 682.967 354.681 686.787C343.864 699.121 322.286 702.677 308 709C336.436 735.11 378.661 729.099 413 721.662C426.885 718.655 441.18 715.434 453 707.087C472.531 693.294 482.333 674.798 496 656M249 665L269 681M307 709L308 709M390 1643C394.069 1636.39 394.903 1628.18 397.861 1621C404.312 1605.34 412.5 1590.51 424.09 1578C446.045 1554.31 472.514 1536.02 499 1517.81C519.866 1503.46 540.192 1488.38 562 1475.45C586.156 1461.14 612.47 1450.3 634 1431.87C664.498 1405.76 695.046 1367.75 677 1325C664.523 1332.26 649.521 1335.55 636 1340.44C594.379 1355.47 556.065 1364 512 1364C502.143 1364 490.206 1364.32 481 1360.32C466.759 1354.12 448.215 1326.8 447.623 1311C447.172 1298.95 455.672 1282.67 460.745 1272C470.334 1251.83 479.628 1230.88 487.576 1210C517.079 1132.51 542.754 1055.52 562.626 975C574.564 926.622 585.333 874.933 581.911 825C580.978 811.4 578.357 798.171 574.845 785C574.016 781.891 569.747 773.728 572.694 771.024C575.482 768.465 582.474 769.167 586 768.832C602.187 767.291 616.757 768.592 631 776.575C636.98 779.926 643.974 782.139 648.892 787.105C656.11 794.393 659.127 807.667 663.012 817C667.346 827.414 673.332 836.992 676.244 848C680.99 865.943 681.151 887.54 680.795 906C680.402 926.354 679.448 947.923 675.916 968C674.633 975.291 668.193 984.003 668.404 991C668.921 1008.22 676.859 1028.05 680.576 1045C688.493 1081.1 694.973 1117.68 701.739 1154C716.001 1230.56 720.138 1308.86 730.282 1386C735.996 1429.45 747.457 1472.43 751.831 1516C758.008 1577.54 755.248 1636.41 744 1697M569 770L571 772M637 807C637 828.531 646.118 852.462 649.714 874C655.916 911.14 656.597 950.954 668 987M637 818C632.501 825.337 631.825 835.586 630.414 844C627.444 861.703 625.67 879.697 620.703 897C612.51 925.543 597.375 952.011 591.211 981C579.631 1035.46 590.586 1098.81 608 1151C617.988 1180.94 632.099 1208.17 646.781 1236C655.087 1251.74 667.611 1271.75 668 1290C660.421 1286.3 655.159 1276 650.808 1269C637.748 1247.98 628.321 1224.66 625 1200M668 993C658.228 1006.84 653.956 1026.15 648.308 1042C638.557 1069.37 627.196 1095.95 623.282 1125C621.538 1137.95 622 1150.95 622 1164C622 1169.77 623.39 1176.74 621 1182M669 1291L678 1325M674 1301C684.388 1305.86 690.664 1317.1 679 1324M731 1636L746 1682" transform="translate(-577.122,-226.816) scale(0.934703,0.332312)"/></svg>