<svg xmlns="http://www.w3.org/2000/svg" xmlns:svg="http://www.w3.org/2000/svg" xmlns:sodipodi="http://sodipodi.sourceforge.net/DTD/sodipodi-0.dtd" xmlns:inkscape="http://www.inkscape.org/namespaces/inkscape" xmlns:xlink="http://www.w3.org/1999/xlink" width="210mm" height="297mm" viewBox="0 0 210 297">
  <sodipodi:namedview/><g inkscape:label="Ebene 1" inkscape:groupmode="layer" id="layer1">
    </g>
<path style="fill:none;stroke:#000000;stroke-linecap:round;stroke-width:5.0" d="M540 308L544 321L520 317L538 300L541 307L543 305L546 312C555.972 305.07 564.136 304.454 558 318L565 319C566.787 324.637 568.627 332.366 565.821 338C564.02 341.617 560.164 344.001 559.067 348C557.671 353.093 560.858 360.561 561 366M563 309C567.823 311.533 567.973 314.724 565 319M546 312L544 319M563 312L566 318M501 341C488.258 346.942 472.841 364.881 468 378C494.043 370.708 500.902 333.8 520 318M558 319C553.293 321.996 548.938 322.857 544 320M543 322C543.425 331.892 547.735 343.267 544.022 353C535.251 375.989 504.752 392.991 484 403.194C473.516 408.349 459.246 412.413 453.007 423.004C440.239 444.678 435.53 468.219 433.17 493C431.735 508.064 433.526 524.671 427.688 539C424.065 547.891 417.116 552.987 411 560L453 569L506.289 501L536.687 465L540.325 433L548.512 419.853L543.854 382L544 365C540.092 368.828 541.367 372.99 542 378M555 322C554.537 332.745 549.929 341.885 550.505 353C550.817 359.007 549.402 366.5 558 362L551 359M548 323L549 336L546 336M552 343L559 345M561 344C566.446 349.511 570.823 356.156 562 361M546 349L549 349M544 358L544 365M545 360L548 361M559 363L560 363M551 364C551 376.5 550.094 390.701 551.92 403C552.473 406.726 554.921 414.499 559.921 413.963C564.068 413.519 565.577 407.188 566.667 404C568.607 398.322 573.105 391.204 571.552 385.001C567.764 369.873 558.228 384.352 557.286 392C556.523 398.192 558.022 404.336 555 410M467 379L450 397M549 400L551 402M555 412L555.035 434L548 478M549 424C549.66 436.58 543.379 452.319 549 464M550 426L553 426M557 433L564 448M327 579C317.471 589.138 298.42 584.892 286 589.244C268.441 595.396 256.685 611.937 240 619C243.586 606.899 257.227 598.019 257.957 585C260.055 547.576 219.984 517.319 185 523.616C169.786 526.354 160.684 537.668 147 543C149.918 531.78 163.005 520.957 171 513.001C189.228 494.861 212.279 488.117 236 480.166C261.387 471.656 288.075 462.228 309.961 484.04C329.098 503.112 327.04 532.161 327 557C326.988 564.366 324.871 571.797 327 579C334.359 573.454 357.591 544.894 363 559C373.568 550.949 390.628 537.34 405 545C398.621 550.126 394.585 557.282 391.601 564.999C390.264 568.457 392.201 574.308 396.914 573.408C402.789 572.287 405.779 562.773 411 560M147 543C115.463 575.201 96.8923 616.804 75.6914 656C64.7719 676.188 49.0467 695.005 40 716C54.2925 720.225 71.9618 714.508 86 711.424C111.052 705.922 135.868 698.929 158 685.55C179.748 672.403 196.142 655.782 220 645.78C243.914 635.755 272.118 646.642 296 634.623C314.084 625.521 324.155 603.622 325 584M405 545L407 545M466 552C472.123 561.215 475.407 577.161 488 579M362 560C357.747 570.794 352.473 572.609 343 578L353.705 589.089L362 613L397 575C405.797 583.078 416.188 586.345 426 592.699C429.053 594.676 433.134 599.549 436.995 599.388C441.718 599.191 443.403 593.757 444 590C430.942 588.654 414.947 574.759 407 565M39 717L15 728C26.0679 680.159 60.5459 635.701 92.9252 600C102.557 589.38 112.828 572.143 126 566M454 569L449 577M454 569C462.208 576.559 473.602 585.478 485 579M357 573L353 587M338 578L343 578M455 582L444 590M454 584C462.771 591.143 479.74 603.512 467 613L477 625C464.851 629.583 447.835 624.526 437.004 630.028C422.142 637.577 445.34 648.083 452 651.691C467.124 659.885 503.582 660.19 498.331 685C497.597 688.467 496.43 691.771 495 695C505.718 698.167 520.606 695.54 532 696.039C548.604 696.766 567.448 701.67 583.911 699.867C598.124 698.311 605.622 689.398 621 692.464C636.032 695.46 643.421 706.908 655.039 715.052C661.927 719.88 668.346 719.646 674 727M448 589L445 593M356 590L371 602M441 600C435.728 617.917 423.032 615.036 408 616.089C402.845 616.451 397.031 619.208 392 617.061C384.823 613.998 377.879 606.12 372 601M461 612L451 610C457.074 602.714 459.804 610.025 466 612M240 619L221 643M315 764C305.39 753.882 297.402 739.525 289.14 728C282.638 718.93 275.692 709.797 270.312 700C266.691 693.407 262.424 684.756 263.2 677C265.273 656.262 294.43 641.074 313 639.174C329.981 637.437 354.053 645.498 370 650.951C380.561 654.562 394.721 663.729 406 662.812C412.538 662.28 421.297 659.534 423.991 652.995C426.474 646.966 423.149 640.595 430 637M433 642L443.116 656.039L479.451 695L483.972 707.961L516.138 756L558 840C565.225 834.91 572.094 826.996 573.671 818C575.478 807.697 571.535 796.205 567.22 787C565.754 783.874 564.289 778.807 560.867 777.313C556.741 775.512 550.005 777.644 546 779L544 777C550.589 754.067 530.718 732.398 514 720.721C507.377 716.096 497.345 709.46 489 712M216 649C212.384 657.519 204.217 665.299 198.885 673C177.547 703.818 155.42 725.613 119 737.481C93.2822 745.862 64.0638 743.275 41.2091 759.895C37.3236 762.721 34.4104 767.559 31 771C26.8346 764.371 21.1771 750.888 23.6998 743C26.4504 734.4 33.9652 727.872 36 719M437 652C439.175 661.156 453.597 677.57 447.821 686.833C444.541 692.092 439.218 684.804 436 683.129C431.736 680.909 427.58 682.509 424.171 685.482C404.715 702.45 398.471 732.222 392.526 756C390.215 765.243 386.987 776.407 388.185 786C390.525 804.73 420.25 800.609 432 794.73C441.189 790.132 447.833 781.689 454.421 774C468.974 757.013 481.053 739.349 488 718M213 658C202.565 696.243 253.143 723.426 280 740.692C289.151 746.575 298.819 754.147 309 758M458 675L460 675M459 676L481 704M495 696L491 710M491 699L492 699M587 700L616 705.275L650 713M206 702C197.405 721.39 193.415 740.873 179.701 757.996C173.671 765.527 162.462 769.626 154.09 774.178C140.05 781.812 128.17 790.243 112 793.55C94.1146 797.209 76.1634 798.764 58 797.075C53.3224 796.64 40.4423 793.103 36.8434 796.618C33.3867 799.994 31.5828 808.469 30 813C25.3315 826.364 20.5452 839.839 18.9498 854C13.1623 905.375 17 958.399 17 1010C17 1025.63 21.0062 1041.45 19.9105 1057C19.4315 1063.8 13.3818 1070.47 19 1076L20 1067M483 710L485 712M483 711L481 713M535 737C536.341 724.802 540.658 706.927 558 712.702C569.072 716.389 577.651 729.392 584.75 738C606.954 764.923 634.618 811.216 616.724 847C608.166 864.114 591.851 867.62 576 875C581.866 886.056 589.594 896.047 597.13 906C610.287 923.378 625.258 943.771 648 928.899C651.367 926.697 655.073 924.06 657.617 920.911C661.039 916.673 660.151 910.166 660.87 905C662.444 893.678 664.097 882.143 666.651 871C675.378 832.928 696.455 800.775 682.504 761C679.358 752.031 674.612 739.973 667 734L670.387 757L662 789M658 718L667 734M659 723C649.694 738.208 662.642 757.429 664 773M14 729L10 737M541 746L561 775M817 751C811.353 766.518 800.314 781.842 799.51 799C799.201 805.588 802.797 812.541 803.855 819C805.56 829.406 804.999 839.579 803.833 850C802.285 863.843 793.073 882.84 798 896L807.024 880.618L818.397 878.643L818.011 863L808 809M168 764L181 753M817 754L828.699 796L843 832L829 830L838 845C842.767 841.529 844.991 837.78 843 832M38 766L38 776L31 772M31 773C28.5146 776.413 22.9082 785.601 23.2523 789.853C23.5989 794.135 33.6147 795.245 35.9869 792.397C39.0346 788.738 37.696 781.41 39 777M40 777C74.124 789.802 115.527 780.685 150 774M21 792L15 788L28 776M564 777C569.957 778.11 576.595 778.219 582 781.228C606.107 794.652 596.193 830.395 580.699 846.83C571.999 856.059 560.996 863.037 552.015 872.015C546.18 877.847 539.356 892.283 532.61 895.879C527.35 898.682 517.495 890.919 511 892C518.064 900.526 530.452 906.107 539 913.428C556.874 928.736 573.011 946.501 586.254 966C591.424 973.614 603.373 994.562 591.891 1001.91C584.197 1006.83 568.775 1004.14 560 1003.83C539.598 1003.09 519.582 1004.09 500 1010.34C495.932 1011.64 486.779 1012.61 484 1015L485 1016M20 792C15.5697 807.379 7.53722 820.897 4.6142 837C0.132983 861.687 5.1852 884.601 8.86574 909C10.589 920.424 9.19861 938.546 16 948M810 811L829 831M786 836C785.342 841.942 781.327 845.734 778.901 851C774.221 861.159 773.422 873.724 764 881C754.581 861.742 733.076 845.889 714 863C711.616 858.701 710.69 853.859 710.001 849L708.718 839C705.125 811.331 737.952 841.597 749 842.812C763.012 844.354 781.444 835.239 795 832M845 834C854.651 836.433 864.881 843.051 873 848.721C897.658 865.944 930.311 896.735 932.907 929C934.262 945.847 926.027 962.208 919 977M558 840C542.668 860.772 508.649 869.365 487 882L511 892M559 843L567 858M842 897L844.535 869L839 845C864.244 872.426 881.456 903.845 897.756 937C904.202 950.112 914.134 964.883 914.387 980C914.504 986.999 908.534 990.705 904 995.039C886.171 1012.09 864.636 1010.34 851.353 988C840.366 969.523 847.651 948.125 838 930L828 940L836 918L839 925C846.399 915.295 847.205 904.188 837 896L838 908L841 902M836 850C830.829 863.427 829.88 882.637 836 896M325 881C311.815 879.922 287.31 871.426 281 859C297.057 857.577 314.834 873.817 328 881.186C336.347 885.858 347.65 887.715 357 889.246C377.058 892.531 402.816 897.802 423 894.683C432.894 893.154 442.734 884.118 453 881.478C464.896 878.42 475.303 882.178 487 882M752 858L750 861M567 860L576 875M692 862C692.009 875.56 698.768 911.257 719.999 903.397C730.26 899.598 726.192 889.514 731.407 883.228C735.061 878.823 740.859 878.436 744 883C748.411 878.801 749.584 870.762 748 865C740.288 872.642 733.667 874.241 723 872.195C719.57 871.538 714.454 868.801 711.043 869.674C705.507 871.089 700.77 881.87 697 886M750 863L748 865M713 864L713 867M546 879C553.945 882.231 566.015 877.249 574 875M508 888L542 882M819 882L833 891M482 883C469.837 891.313 442.002 900.473 428 893M744 883L739 910M820 884L823.856 921L820 947L827 941M694 887L694 899M421 896C397.128 916.359 371.232 939.898 344 955.572C332.068 962.439 317.386 963.994 306 971C314.62 975.971 327.22 976.404 337 977.089C365.401 979.08 396.79 976.473 417.985 954.996C434.378 938.387 440.96 915.197 460 900.528C472.338 891.022 485.092 893.398 499 889M662 917L693 891M462 892L467 894M121 938L115.67 915L116.604 908.032L128 908.654L161 919.811L246 952.308L295 970C283.02 976.393 260.064 971.999 247 970.282C206.693 964.981 168.602 952.646 130 940.344C119.794 937.092 116.946 946.509 106 944.181C89.2736 940.625 72.2799 931.751 60 920M837 909L836 917M927 957C921.929 948.207 918.616 920.88 926 913M62 921C80.4356 917.893 100.739 934.17 119 936M682 922C669.986 939.976 684.253 966.773 675 986C670.411 977.402 672.216 959.298 677 951M659 923C657.924 948.067 658 972.638 665 997C667.271 1004.9 670.482 1019.28 680 1020L675 987M838 926L838 930M820 947C819.725 963.916 822.717 980.72 821.961 998C821.763 1002.5 817.295 1012.78 819.213 1016.5C821.033 1020.04 828.758 1022.16 832 1024.44C841.882 1031.38 850.061 1040.44 857.346 1050C859.855 1053.29 863.659 1057.57 863.442 1062C863.111 1068.77 854.655 1073.78 850 1077.61C840.11 1085.76 819.659 1113.64 809.658 1092.71C806.761 1086.65 817.672 1077.5 816.521 1070C814.879 1059.31 809.253 1049.39 807.444 1039C803.917 1018.75 806.689 997.758 808 978M804 955L819 950M936 962C934.439 972.042 930.04 981.747 928.439 992C925.326 1011.93 925.617 1028.22 913.64 1046C904.053 1060.23 888.186 1071.59 874 1080.92C861.655 1089.04 844.577 1105.54 829 1096M928 964C928.003 967.987 927.402 971.668 931 974M295 970L306 971M809 985C809.001 995.905 813.499 1007.16 807 1017M484 1013C498.637 1001.84 518.759 994.526 537 992.286C546.333 991.14 556.638 993.137 560 1003M678 998L704 1030M562 1005C564.418 1017.47 569.324 1034.01 557.957 1043.66C549.586 1050.76 539.673 1046.47 530 1047.09C517.416 1047.89 505.365 1051.51 494 1056.89C480.007 1063.51 465.729 1076.29 456.904 1089C450.745 1097.87 448.098 1109.93 438.996 1116.49C428.796 1123.84 417.654 1116.07 407 1119C413.898 1124.86 422.217 1129.14 430 1133.73C433.045 1135.52 438.054 1137.56 439.357 1141.13C442.636 1150.12 433.364 1166.73 432 1176L460 1167L457 1166M406 1119L376 1105C385.893 1099.27 396.002 1096.37 404.999 1088.73C432.566 1065.31 451.694 1034.16 483 1015M818 1017L809 1046M680 1020L697 1027M808 1021C793.046 1025.17 781.127 1038.22 767 1044.69C752.606 1051.28 735.939 1050.79 721 1056.43C710.023 1060.56 693.872 1070.21 682 1066C688.075 1051.61 685.336 1036.59 682 1022M809 1021L815 1020M23 1085C25.005 1074.31 41.191 1077.5 49 1079.71C74.7217 1086.98 102.389 1097.98 129 1100.83C166.274 1104.82 204.432 1089.65 241 1084.13C285.009 1077.5 330.19 1081.76 373 1067.48C394.547 1060.3 414.745 1048.88 435 1038.75C444.818 1033.84 455.924 1026.13 467 1025M670 1039C670.477 1046.43 674.023 1053.5 674.826 1061C675.306 1065.47 674.333 1070.07 677.434 1073.82C684.539 1082.41 696.182 1084.27 706 1087.54C732.442 1096.37 762.446 1106.43 791 1102.81C799.455 1101.74 802.757 1088.56 808 1089M669 1045C665.992 1059.58 667.631 1078.67 672.216 1093C677.418 1109.26 686.078 1123.11 680.791 1141C676.671 1154.94 664.706 1166.14 655.589 1177C621.975 1217.03 571.609 1238.68 528 1265.68C514.957 1273.76 501.172 1280.7 488 1288.6C482.007 1292.19 474.42 1297.72 467 1296.62C449.887 1294.09 437.369 1264.65 428.424 1252C424.829 1246.92 421.536 1238.14 415 1237M808 1047L806 1087M20 1077L22 1082M24 1081C72.691 1116.4 140.689 1128.44 200 1126.99C220.695 1126.48 241.252 1122.01 262 1122C285.799 1121.99 303.664 1129.33 325 1138C332.495 1141.04 340.716 1135.55 344 1147L330 1139M813 1094L825 1096M368 1104L376 1105M396 1115C387.895 1119.67 377.946 1119.2 373.417 1129C369.242 1138.04 374.106 1150.24 377.001 1159C385.214 1183.86 398.961 1212.01 416 1232L432.464 1201L459 1168M100 1125C101.039 1131.47 109.122 1133.96 109.383 1140C109.513 1142.98 107.359 1145.97 107.043 1149C106.418 1154.99 107.69 1161.12 106.853 1167C103.686 1189.27 98.503 1208.34 113.895 1227.96C118.334 1233.62 124.781 1240.54 132 1242L121.671 1219L106 1171M110 1136C115.511 1118.94 151.036 1132.14 163 1135.13C186.595 1141.03 210.866 1142.44 235 1144.09C255.29 1145.48 273.916 1147.12 294 1142.79C302.833 1140.88 315.265 1142.13 323 1138M100 1132C102.622 1143.48 102.206 1163.71 96 1174L103 1174M109 1143C112.992 1149.05 112.602 1156.96 113.754 1164C115.67 1175.7 118.358 1187.69 124.452 1198C130.505 1208.24 137.639 1217.53 146.004 1226C154.778 1234.88 166.244 1246.84 178.17 1251.41C192.196 1256.79 209.823 1248.57 222 1242.37C242.082 1232.15 261.238 1220.9 282 1212C289.331 1208.86 297.006 1203.82 305 1203C295.95 1218.88 284.046 1223.42 269 1231.8C263.704 1234.75 259.792 1239.16 254 1241.3C245.852 1244.32 225.13 1247.03 222.346 1257.07C221.305 1260.83 227.475 1265.45 230.129 1267.29C239.944 1274.06 249.36 1281.79 259 1288.88C278.42 1303.17 301.93 1312.22 325 1318.86C332.13 1320.91 341.464 1325.66 348.985 1324.81C355.325 1324.1 359.198 1314.39 363.286 1310.17C377.705 1295.29 396.998 1275.31 389 1252C380.206 1262.7 375.32 1275.13 365 1284.96C362.105 1287.72 356.466 1293.74 352 1293.09C347.451 1292.44 343.05 1286.05 340 1283C331.009 1274.01 319.616 1257.59 306 1256.1C297.528 1255.17 293.541 1257.9 288.688 1265C286.889 1267.63 285.544 1273.5 281.87 1274.09C275.602 1275.11 268.166 1264.74 262 1263.28C253.298 1261.21 241.987 1265.93 233 1266M263 1237C281.856 1240.93 302.175 1218.01 313.17 1206C317.254 1201.53 322.009 1197.86 324 1192L316 1193L344.711 1165.7L363 1144C377.593 1193.37 328.461 1227.03 298 1255M344 1147L350 1152M493 1147L460 1166M36 1184C38.5536 1177.4 49.4347 1162.05 58 1163.82C61.7254 1164.59 64.8306 1168.57 68 1170.53C75.7459 1175.34 84.8677 1178.3 94 1177C93.8255 1185.19 88.7128 1199.75 78 1197.91C63.8852 1195.48 42.8971 1177.77 28.2137 1186.2C21.9875 1189.78 23.2151 1205.47 21.2793 1212C15.2145 1232.46 15.003 1253.49 10.74 1274C8.75072 1283.57 1.72241 1299.14 4.18133 1308.94C5.65347 1314.8 11.9635 1311.06 15 1309C8.98525 1301.71 12 1287.21 12 1278M96 1175L94 1177M432 1176C426.343 1185.41 423.481 1203.97 423 1215M338 1177L324 1192M395 1195L429 1179M33 1186L26 1200M305 1203L316 1194M393 1196C389.395 1198.86 384.672 1201.38 381.995 1205.18C371.006 1220.79 383.555 1237.84 389 1252M398 1224L389 1249M420 1231L416 1236M416 1232L416 1234M132 1242C150.939 1260.55 168.395 1265.14 194 1268.28C203.883 1269.5 217.977 1270.82 227 1266M214 1268C213.12 1257.9 213.677 1246.42 228 1250M234 1249L258 1261M143 1251L176 1251M207 1251L214 1252M15 1309C22.7646 1306.8 29.5428 1298.89 36 1294.16C43.5335 1288.63 54.238 1284.48 60.6319 1277.78C66.6171 1271.52 68.3837 1258.64 78.0008 1255.85C83.8676 1254.14 99.6393 1261 104.741 1264.19C107.87 1266.14 110.015 1269.97 113.986 1270.42C121.004 1271.23 132.626 1250.05 136.994 1266.98C139.592 1277.06 121.759 1272.71 118 1270M265 1263L295 1256M391 1256L418.09 1287.31L437 1289C412.826 1309.25 395.123 1335.77 373.001 1358C366.828 1364.2 359.537 1378.57 350.999 1381.2C346.909 1382.47 343.027 1379.04 340 1376.77L316 1358.63C291.617 1340.42 267.207 1322.04 245.039 1301.17C235.571 1292.26 223.364 1282.04 218 1270M64 1274C69.7614 1271.36 73.9218 1265.75 80 1263.7C88.5807 1260.82 97.6601 1266.77 106 1268M58 1281C55.8894 1302.06 40.5306 1321.37 19 1308M710 1623L711 1623M1107 1747C1108.97 1746.49 1110.97 1745.9 1113 1745.66C1131.65 1743.49 1106.69 1768.5 1122 1769M2 1747L1 1756M42 1747C38.2599 1755.94 31.639 1768.71 22 1772M1089 1748L1090 1768M1098 1748L1100 1764M44 1763C48.8586 1756.72 50.7879 1754.49 58 1759L64 1752L66 1768M1 1765L10 1759C11.2247 1772.49 23.852 1761.44 11 1760" transform="translate(-577.122,-226.816) scale(0.930522,0.330169)"/></svg>