<svg xmlns="http://www.w3.org/2000/svg" xmlns:svg="http://www.w3.org/2000/svg" xmlns:sodipodi="http://sodipodi.sourceforge.net/DTD/sodipodi-0.dtd" xmlns:inkscape="http://www.inkscape.org/namespaces/inkscape" xmlns:xlink="http://www.w3.org/1999/xlink" width="210mm" height="297mm" viewBox="0 0 210 297">
  <sodipodi:namedview/><g inkscape:label="Ebene 1" inkscape:groupmode="layer" id="layer1">
    </g>
<path style="fill:none;stroke:#000000;stroke-linecap:round;stroke-width:5.0" d="M212 229C194.022 272.182 168.312 312.061 149.576 355C145.484 364.376 141.308 373.836 136.752 383C134.878 386.77 130.876 391.726 130.696 396C130.483 401.068 136.251 407.102 139 411C146.101 421.068 152.97 431.144 160.373 441C163.921 445.723 168.53 450.65 167.659 457C164.469 480.245 148.033 502.369 139.808 524C137.611 529.777 130.005 542.003 132.269 548C136.477 559.145 149.085 568.411 155.961 578C174.916 604.437 193.197 631.275 211.717 658C218.554 667.866 228.768 676.403 234.326 687C238.39 694.748 239.472 703.743 242.025 712C249.836 737.258 256.149 765.098 267.428 788.961C278.095 811.529 295.826 829.153 315 845M519 472C504.17 462.539 486.069 460.953 470 454.15C463.771 451.512 453.861 445.5 447 446.703C428.291 449.983 408.437 469.027 394 480.338C368.644 500.203 338.876 520.936 308 531C305.068 519.394 311.256 509.325 317.344 500C327.845 483.915 339.38 468.594 350.579 453C355.149 446.638 359.991 440.475 364.406 434C365.598 432.251 368.404 428.914 366.863 426.647C364.246 422.793 347.123 433.217 344 435.001C329.137 443.489 314.502 452.144 300 461.228C293.132 465.529 284.264 472.579 276 473C281.12 458.93 290.386 446.25 297.258 433C299.099 429.452 304.75 423.401 302.864 419.184C301.428 415.974 296.777 413.779 294 411.887C284.648 405.519 274.111 400.302 264 395.247C260.797 393.645 250.207 390.357 250.207 385.985C250.207 382.479 256.642 378.353 259 376.285C267.543 368.79 275.962 361.037 284 353C301.959 335.042 321.388 318.335 338.91 299.985C355.763 282.337 371.018 263.888 392 251C394.423 259.834 387.601 272.476 384.836 281C378.542 300.401 368.945 326.515 375 347C396.449 339.696 413.6 312.822 437 312.231C445.629 312.014 455.708 324.273 462 329.389C482.115 345.742 501.973 362.755 524 376.576C544.039 389.148 563.337 402.672 583 415.795C594.798 423.668 608.511 430.899 617.671 442.001C626.977 453.281 632.814 470.78 639.258 484C654.706 515.696 669.041 547.661 685.258 579C695.273 598.351 705.354 617.23 714.629 637C717.681 643.507 724.884 653.523 722.153 661C715.566 679.036 698.851 695.496 689.014 712C658.971 762.403 626.275 811.049 594.003 860C581.319 879.24 569.1 898.49 555.378 917C550.047 924.192 546.186 933.896 538.714 939.262C533.396 943.08 523.319 942.781 517 943.011C504.275 943.474 490.403 943.945 478 946.884C454.245 952.514 430.783 959.586 407 964.989C398.518 966.916 387.752 972.071 379 969.487C364.368 965.167 351.314 948.743 343 937M517 471C510.411 475.794 500.767 476.381 493 478.72C483.803 481.49 474.574 485.463 465 486.711C439.108 490.085 412.532 489.306 391 507C398.762 512.123 408.035 509.952 416 506.218C419.443 504.604 424.81 500.459 428.812 501.708C432.091 502.732 433.494 507.179 434.713 510C438.441 518.627 440.844 527.072 446 535M275 474L273 477M445 532C447.521 524.555 448.242 516.559 450.429 509C451.039 506.891 452.051 502.207 454.964 502.207C457.668 502.207 460.331 506.295 462.015 508C467.099 513.149 474.866 521.688 483 519.347C495.379 515.785 503.582 493.246 517 503C504.047 521.088 498.738 549.892 481 563.606C474.562 568.583 465.633 568.127 458 569.881C440.963 573.797 423.452 575.789 406 575.996C394.682 576.131 380.875 573.785 370 577C375.706 584.271 386.928 589.376 395 593.792C415.09 604.782 443.286 628.046 468 622.471C490.547 617.386 505.995 597.964 527 591C526.358 597.232 521.863 601.16 520.419 607C518.54 614.597 520.079 625.156 520.079 633C520.079 655.764 523.39 677.058 521.17 700C520.367 708.298 520.215 720.796 514.914 727.759C511.253 732.568 503.018 726.146 499 724.427C483.134 717.642 468.716 719.493 452 721.171C431.406 723.238 413.022 733.061 393 736.556C386.94 737.613 373.58 733.561 369.029 739.589C363.249 747.243 377.439 768.155 367.566 774.972C361.71 779.016 348.843 778.152 342 777.985C338.72 777.905 334.344 776.365 331.533 778.618C318.089 789.395 337.953 813.1 350 814M388 508L391 507M565 544L527 591M356 575L370 577M259 596C262.222 599.996 275.103 615.768 280.701 613.694C283.262 612.745 284.81 608.154 286.157 606C290.157 599.605 294.446 593.417 298.424 587C300.103 584.292 302.39 578.795 306.104 578.596C313.144 578.217 325.734 589.663 332 593.139C356.242 606.585 380.147 620.628 403 636.341C409.865 641.061 416.57 645.891 422.995 651.197C424.871 652.745 429.302 655.579 427.248 658.501C424.206 662.829 408.183 665.012 403 666.371C396.356 668.114 389.746 672.508 383 673.211C374.603 674.087 362.24 668.453 354 666.09C347.506 664.228 331.436 653.92 325.213 656.291C322.347 657.383 320.975 661.558 319.573 664C315.54 671.023 310.105 677.518 307 685C314.909 687.807 324.856 685.507 333 684.424C347.972 682.435 363.745 682.402 377 674M267 588C275.7 593.529 278.952 599.914 283 609M259 599C259.986 646.772 270.709 694.3 266.17 742C265.145 752.771 269.848 769.55 265 779M282 614L282.975 632L273.662 681L268 702M388 673C396.083 678.403 411.196 677.615 417.393 685.394C420.584 689.4 416.745 695.215 414.891 699C409.22 710.578 400.592 721.533 397 734M347 693L358.613 711L369 738M393 738C391.317 743.843 387.84 753.459 382.787 757.157C371.908 765.116 348.955 762.597 336 763.83C331.534 764.255 324.195 762.441 320.318 765.028C317.53 766.888 317.995 771.086 317.572 774C316.308 782.697 313.379 791.195 313 800C304.228 799.093 294.446 803.253 288 809C295.436 813.928 319.881 815.006 313 800M267 792L268 798M316 801L329 801M334 803C344.386 798.799 363.905 805.588 375 807.13C378.783 807.656 385.689 807.249 388.307 810.514C390.465 813.205 388.593 817.989 388.081 821C386.786 828.616 384.826 836.323 384.076 844C383.746 847.372 384.17 853.642 381.973 856.397C379.666 859.289 369.673 860.109 366 861.333C349.97 866.677 330.079 872.471 313 871.625C307.634 871.359 287.532 866.452 284.121 871.603C281.986 874.828 286.373 881.93 287.6 885C292.198 896.504 296.151 908.331 300.308 920C302.511 926.184 309.148 942.759 296 936M343 813C334.587 817.42 318.509 814.564 309 814M301 815C288.758 828.411 292.619 837.961 310 843M301 939C309.926 959.056 331.131 981.262 348 995C355.396 981.657 349.04 963.392 349 949M757 1063C747.153 1085.85 731.525 1106.26 718 1127C713.267 1134.26 702.713 1145.26 701.771 1154C701.192 1159.36 706.321 1164.58 708.677 1169C713.237 1177.55 716.036 1187.02 719.601 1196C721.099 1199.78 724.212 1204.81 723.579 1209C721.705 1221.39 703.133 1227.67 700.618 1240C699.25 1246.71 706.448 1256.45 709.576 1262C719.501 1279.61 724.403 1303.12 736.905 1318.87C741.834 1325.08 753.956 1323.53 761 1322.57C782.044 1319.71 802.024 1311.97 823 1309C827.684 1308.34 848.148 1303.15 850.356 1308.32C851.879 1311.88 848.801 1317.53 847.884 1321C844.915 1332.24 842.158 1343.65 839.714 1355C837.298 1366.22 833.547 1377.1 830 1388C837.593 1390.24 845.29 1388.19 853 1388.01C862.092 1387.81 870.833 1389.73 880 1388.83C893.135 1387.54 906.705 1383.22 920 1384.18C927.61 1384.73 948.109 1392.91 954.397 1387.97C957.906 1385.22 957.185 1375.1 957.718 1371C959.884 1354.33 961.36 1337.61 964.08 1321C970.763 1280.2 976.153 1237.28 977.961 1196C978.824 1176.28 976.906 1156.67 977.001 1137C977.07 1122.7 978.94 1108.26 980.086 1094C980.46 1089.34 982.708 1082.36 979.397 1078.3C976.381 1074.6 969.373 1074.28 965 1073.59C951.7 1071.49 938.468 1069.57 925 1068.96C904.637 1068.04 884.358 1064.93 864 1064.04C845.627 1063.23 828.063 1065.05 810 1060.89C800.627 1058.73 783.204 1057.27 776 1051C794.163 1044.2 820.922 1049.13 840 1049.96C876.181 1051.54 912.78 1050 949 1050C962.088 1050 974.991 1050.59 988 1051.83C991.54 1052.17 999.475 1050.41 1001.4 1054.32C1004.54 1060.7 1000.81 1073.21 1000.05 1080C997.623 1101.62 995.335 1123.34 993.169 1145C988.931 1187.38 985.895 1229.64 981.83 1272C978.532 1306.37 971.023 1340.32 971 1375M756 1050L776 1051M163 1089C131.239 1142.85 94.2049 1193.86 70 1252L111 1254M852 1306C863.086 1278.98 874.403 1252.25 884.939 1225C889.018 1214.45 890.62 1198.04 897.702 1189.22C902.126 1183.72 912.465 1182.66 919 1182M918 1183L902.201 1211L872 1264M327 1238C318.592 1242.98 296.621 1240.26 288 1235.92C280.22 1232 274.468 1224.8 266 1222C268.536 1213.65 279.248 1219.43 285 1221.58C296.963 1226.03 309.28 1229.49 321 1234.62C326.38 1236.97 330.649 1242.37 336.985 1241.66C342.033 1241.08 345.618 1236.6 350 1234.38C360.8 1228.9 371.699 1223.38 383 1219L384.424 1228L384.883 1241.68L376 1243.87L350 1243C355.958 1250.82 364.557 1248.32 372 1244M265 1223C262.612 1230.33 259.014 1236.94 256.001 1244C255.044 1246.24 252.677 1249.99 254.133 1252.44C255.782 1255.2 261.235 1255.02 264 1255.42C274.065 1256.88 283.946 1256.26 294 1257.17C296.805 1257.42 304.793 1258.68 304.793 1253.79C304.793 1248.89 294.264 1242.26 291 1239M331 1241C325.805 1246.96 314.001 1254.75 306 1255M343 1242L350 1243M385 1243L391 1245M386 1246L388 1258L364 1250M353 1248C344.916 1252.95 322.678 1257.26 314 1253M70 1252L57 1280C68.0862 1279.5 78.7593 1269.41 88 1264.02C94.5112 1260.22 101.812 1258.4 108 1254M58 1281L43 1288C41.1355 1283.13 34.8871 1272.35 36.6968 1267.27C38.8974 1261.11 60.9673 1255.6 67 1255M311 1257C326.471 1278.96 353.469 1294.83 365 1320C342.691 1319.54 320.496 1308.32 298 1306.17C268.245 1303.33 234.544 1310.85 205 1314M297 1258C293.223 1264.66 280.748 1268.81 274 1272.24C257.843 1280.46 242.533 1290.23 227 1299.55C220.995 1303.15 212.313 1306.61 209 1313M388 1258C414.375 1272.31 442.595 1280.37 471 1289.58C477.139 1291.57 497.793 1298.37 499.654 1305.1C500.693 1308.86 495.243 1312.73 493.004 1315C485.723 1322.38 478.989 1330.34 472 1338C454.343 1357.35 439.312 1379.24 424.833 1401C417.988 1411.29 408.505 1423.08 405 1435C412.329 1432.06 417.341 1425.36 423 1420.09C433.874 1409.96 444.687 1399.76 454.961 1389C459.521 1384.22 467.142 1375.93 467.717 1369C468.198 1363.19 461.936 1359.21 458 1356M390 1260C390.83 1279.03 398.893 1300.69 406.424 1318C408.572 1322.94 410.214 1331.97 414.198 1335.5C425.395 1345.41 444.694 1346.64 457 1356M56 1283L61 1299L45 1296L49 1336L46.6821 1349.98L34 1350.47L3 1354M43 1288C40.2912 1291.72 35.0589 1289.52 31 1289M44 1292L46 1295M61 1299C69.1329 1303.51 78.9233 1304.29 88 1305.17C91.613 1305.52 97.3782 1305.31 99.1065 1309.15C103.567 1319.05 97.5637 1339.2 97.0386 1350C96.2044 1367.16 95.3035 1385.01 92.9421 1402C90.998 1415.99 86.1231 1431.65 88.1713 1445.91C89.0312 1451.9 93.7291 1458.97 95.6559 1465C100.897 1481.4 102.712 1499.44 122 1506L112 1468C129.335 1468.05 144.944 1475.95 159 1485M63 1301L71.6991 1336L71.1319 1350.4L79 1352M366 1321C374.402 1327.11 374.242 1332.58 386 1329L372 1324M223 1353L296 1333.87L322 1326.69L333.129 1336.67L368 1364M386 1328L411 1333M372 1329L334 1337M376 1333C382.841 1344.32 363.426 1348.85 356 1355M236 1351C244.765 1353.52 256.155 1349.23 265 1347.75C286.302 1344.2 308.055 1341.42 329 1336M48 1350C53.8692 1354.23 63.7234 1354.65 70 1351M40 1352C40.3487 1359.63 43.4552 1367.86 46.1142 1375C47.2186 1377.97 49.7178 1381.6 46.6636 1384.26C40.8954 1389.27 28.8362 1384.52 22 1386C29.7297 1396.97 41.8082 1411.47 52.9815 1418.62C56.4719 1420.85 59.3687 1425.3 64.0046 1424.41C74.586 1422.38 80.3996 1409.52 91 1407M325 1380C331.289 1375 336.41 1380.56 330.855 1382.49C328.052 1383.46 325.554 1380.92 322.83 1380.73C318.026 1380.39 313.194 1383.02 309 1385L301 1370L292 1389C289.658 1384.54 288.653 1379.72 286.946 1375C285.452 1370.87 279.37 1357.6 282.121 1353.62C284.314 1350.45 297.517 1353.3 301 1353.71C313.022 1355.14 324.973 1354.27 337 1355.09C343.033 1355.5 349.478 1357.97 355 1355M58 1354L62 1364L66 1354M58 1357L48 1379M351 1358L334 1377M62 1364C61.8754 1368.29 56.0977 1377.98 58.213 1381.38C59.738 1383.83 63.5816 1381.92 64.2917 1379.77C65.3295 1376.63 62.6613 1373.36 61 1371M65 1381L89 1371M57 1382L44 1409M247 1382C262.621 1392.92 283.458 1388.86 301 1393.48C306.497 1394.92 315.274 1401.58 320.896 1400.19C326.049 1398.91 330.107 1388.63 331 1384M334 1383C354.904 1388.03 381.116 1391.27 399 1404C390.304 1409.4 379.575 1411.95 370 1415.44C352.308 1421.89 334.706 1428.58 317 1435.05C310.849 1437.29 293.174 1445.62 287.184 1443.5C282.795 1441.95 279.457 1434.58 276.849 1431C267.313 1417.9 257.552 1401.25 252 1386M50 1385L53 1387M19 1386L22 1386M101 1398L94 1402M399 1404L401 1404M44 1415C45.2951 1425.63 50.952 1436.22 55.1505 1446C66.3129 1471.99 81.9814 1495.55 94.216 1521C101.068 1535.25 106.845 1558.96 118 1570L116.275 1550L104 1493M375 1663C376.998 1640.12 389.226 1615.7 396.485 1594C416.658 1533.7 438.85 1476.09 471 1421C478.72 1427.96 473.461 1440.42 471 1449C463.878 1473.82 455.421 1498.19 448.291 1523C438.428 1557.32 424.26 1589.66 407.309 1621C400.666 1633.28 393.229 1651.39 382.907 1660.85C378.11 1665.25 371.881 1663.47 366 1664.47C353.243 1666.63 340.679 1670.38 328 1673C290.277 1680.81 252.295 1691.9 215 1701.73C201.636 1705.26 179.921 1715.85 166.148 1713.51C161.884 1712.78 162.5 1704.31 162.169 1701C161.066 1689.97 159.51 1678.99 158 1668C157.329 1663.11 157.275 1656.88 151 1659L140 1637L141 1640M141 1636C120.884 1606.06 105.363 1572.77 87.6914 1541C66.5298 1502.96 43.8099 1465.75 28 1425L45 1427M58 1424L48 1427M83 1432L87 1438M404 1436C379.795 1470.77 358.188 1508.87 339.248 1547C333.48 1558.61 328.015 1570.38 322.248 1582C320.539 1585.44 319.035 1592.9 315.581 1594.88C310.727 1597.67 301.372 1593.12 296 1593.26C278.526 1593.72 260.4 1595.17 243 1596.83C236.417 1597.46 228.918 1595.77 223 1599L232 1611C221.309 1617.17 207.225 1617.94 196 1623.11C180.099 1630.43 167.039 1645.62 154 1657M89 1441C98.6871 1442.72 107.18 1448.77 117 1450.54C134.613 1453.71 155.102 1451.09 173 1451C180.095 1450.97 197.849 1446.55 203.353 1452.6C206.151 1455.68 202.172 1461.25 200.548 1464C194.784 1473.75 188.719 1489.54 179.675 1496.58C175.199 1500.06 154.092 1491.29 157 1485M227 1595L337 1496.99L375 1462.71L393 1449M87 1450C87 1464.46 85.4189 1475.41 98 1485M111 1467L112 1468M136 1485L154 1488M123 1507L126 1513M125 1586C123.595 1577.46 135.64 1575.7 142 1573.2C159.247 1566.43 185.211 1560.99 201.79 1572.99C210.516 1579.31 213.357 1594.16 223 1599M119 1571C121.549 1578.92 119.678 1580.69 113 1585M122 1580L124 1582M113 1594C104.902 1594 94.2424 1594.86 87 1591L109 1585M80 1591L87 1591M118 1595C136.795 1589.44 164.729 1594.01 184 1596.29C193.052 1597.35 209.997 1600.25 218 1596M219 1600L198 1620M138 1628L177 1634M144 1638L155 1655M373 1665C370.137 1693.57 352.381 1719.43 346 1747M1100 1787L1100 1803" transform="translate(-577.122,-226.816) scale(0.958701,0.326615)"/></svg>